<?xml version="1.0" encoding="utf-8" standalone="no"?>
<!DOCTYPE svg PUBLIC "-//W3C//DTD SVG 1.1//EN"
  "http://www.w3.org/Graphics/SVG/1.1/DTD/svg11.dtd">
<svg xmlns:xlink="http://www.w3.org/1999/xlink" width="1000.280625pt" height="388.844525pt" viewBox="0 0 1000.280625 388.844525" xmlns="http://www.w3.org/2000/svg" version="1.1">
 <metadata>
  <rdf:RDF xmlns:dc="http://purl.org/dc/elements/1.1/" xmlns:cc="http://creativecommons.org/ns#" xmlns:rdf="http://www.w3.org/1999/02/22-rdf-syntax-ns#">
   <cc:Work>
    <dc:type rdf:resource="http://purl.org/dc/dcmitype/StillImage"/>
    <dc:date>2025-04-01T05:20:41.688515</dc:date>
    <dc:format>image/svg+xml</dc:format>
    <dc:creator>
     <cc:Agent>
      <dc:title>Matplotlib v3.8.2, https://matplotlib.org/</dc:title>
     </cc:Agent>
    </dc:creator>
   </cc:Work>
  </rdf:RDF>
 </metadata>
 <defs>
  <style type="text/css">*{stroke-linejoin: round; stroke-linecap: butt}</style>
 </defs>
 <g id="figure_1">
  <g id="axes_1">
   <g id="patch_1">
    <path d="M 40.600625 353.2239 
L 985.445625 353.2239 
L 985.445625 35.2559 
L 40.600625 35.2559 
z
" style="fill: #ffffff"/>
   </g>
   <g id="matplotlib.axis_1">
    <g id="xtick_1">
     <g id="text_1">
      <!-- 0 -->
      <g transform="translate(38.055625 366.30265) scale(0.08 -0.08)">
       <defs>
        <path id="DejaVuSans-30" d="M 2034 4250 
Q 1547 4250 1301 3770 
Q 1056 3291 1056 2328 
Q 1056 1369 1301 889 
Q 1547 409 2034 409 
Q 2525 409 2770 889 
Q 3016 1369 3016 2328 
Q 3016 3291 2770 3770 
Q 2525 4250 2034 4250 
z
M 2034 4750 
Q 2819 4750 3233 4129 
Q 3647 3509 3647 2328 
Q 3647 1150 3233 529 
Q 2819 -91 2034 -91 
Q 1250 -91 836 529 
Q 422 1150 422 2328 
Q 422 3509 836 4129 
Q 1250 4750 2034 4750 
z
" transform="scale(0.015625)"/>
       </defs>
       <use xlink:href="#DejaVuSans-30"/>
      </g>
     </g>
    </g>
    <g id="xtick_2">
     <g id="text_2">
      <!-- 20 -->
      <g transform="translate(224.479625 366.30265) scale(0.08 -0.08)">
       <defs>
        <path id="DejaVuSans-32" d="M 1228 531 
L 3431 531 
L 3431 0 
L 469 0 
L 469 531 
Q 828 903 1448 1529 
Q 2069 2156 2228 2338 
Q 2531 2678 2651 2914 
Q 2772 3150 2772 3378 
Q 2772 3750 2511 3984 
Q 2250 4219 1831 4219 
Q 1534 4219 1204 4116 
Q 875 4013 500 3803 
L 500 4441 
Q 881 4594 1212 4672 
Q 1544 4750 1819 4750 
Q 2544 4750 2975 4387 
Q 3406 4025 3406 3419 
Q 3406 3131 3298 2873 
Q 3191 2616 2906 2266 
Q 2828 2175 2409 1742 
Q 1991 1309 1228 531 
z
" transform="scale(0.015625)"/>
       </defs>
       <use xlink:href="#DejaVuSans-32"/>
       <use xlink:href="#DejaVuSans-30" x="63.623047"/>
      </g>
     </g>
    </g>
    <g id="xtick_3">
     <g id="text_3">
      <!-- 40 -->
      <g transform="translate(413.448625 366.30265) scale(0.08 -0.08)">
       <defs>
        <path id="DejaVuSans-34" d="M 2419 4116 
L 825 1625 
L 2419 1625 
L 2419 4116 
z
M 2253 4666 
L 3047 4666 
L 3047 1625 
L 3713 1625 
L 3713 1100 
L 3047 1100 
L 3047 0 
L 2419 0 
L 2419 1100 
L 313 1100 
L 313 1709 
L 2253 4666 
z
" transform="scale(0.015625)"/>
       </defs>
       <use xlink:href="#DejaVuSans-34"/>
       <use xlink:href="#DejaVuSans-30" x="63.623047"/>
      </g>
     </g>
    </g>
    <g id="xtick_4">
     <g id="text_4">
      <!-- 60 -->
      <g transform="translate(602.417625 366.30265) scale(0.08 -0.08)">
       <defs>
        <path id="DejaVuSans-36" d="M 2113 2584 
Q 1688 2584 1439 2293 
Q 1191 2003 1191 1497 
Q 1191 994 1439 701 
Q 1688 409 2113 409 
Q 2538 409 2786 701 
Q 3034 994 3034 1497 
Q 3034 2003 2786 2293 
Q 2538 2584 2113 2584 
z
M 3366 4563 
L 3366 3988 
Q 3128 4100 2886 4159 
Q 2644 4219 2406 4219 
Q 1781 4219 1451 3797 
Q 1122 3375 1075 2522 
Q 1259 2794 1537 2939 
Q 1816 3084 2150 3084 
Q 2853 3084 3261 2657 
Q 3669 2231 3669 1497 
Q 3669 778 3244 343 
Q 2819 -91 2113 -91 
Q 1303 -91 875 529 
Q 447 1150 447 2328 
Q 447 3434 972 4092 
Q 1497 4750 2381 4750 
Q 2619 4750 2861 4703 
Q 3103 4656 3366 4563 
z
" transform="scale(0.015625)"/>
       </defs>
       <use xlink:href="#DejaVuSans-36"/>
       <use xlink:href="#DejaVuSans-30" x="63.623047"/>
      </g>
     </g>
    </g>
    <g id="xtick_5">
     <g id="text_5">
      <!-- 80 -->
      <g transform="translate(791.386625 366.30265) scale(0.08 -0.08)">
       <defs>
        <path id="DejaVuSans-38" d="M 2034 2216 
Q 1584 2216 1326 1975 
Q 1069 1734 1069 1313 
Q 1069 891 1326 650 
Q 1584 409 2034 409 
Q 2484 409 2743 651 
Q 3003 894 3003 1313 
Q 3003 1734 2745 1975 
Q 2488 2216 2034 2216 
z
M 1403 2484 
Q 997 2584 770 2862 
Q 544 3141 544 3541 
Q 544 4100 942 4425 
Q 1341 4750 2034 4750 
Q 2731 4750 3128 4425 
Q 3525 4100 3525 3541 
Q 3525 3141 3298 2862 
Q 3072 2584 2669 2484 
Q 3125 2378 3379 2068 
Q 3634 1759 3634 1313 
Q 3634 634 3220 271 
Q 2806 -91 2034 -91 
Q 1263 -91 848 271 
Q 434 634 434 1313 
Q 434 1759 690 2068 
Q 947 2378 1403 2484 
z
M 1172 3481 
Q 1172 3119 1398 2916 
Q 1625 2713 2034 2713 
Q 2441 2713 2670 2916 
Q 2900 3119 2900 3481 
Q 2900 3844 2670 4047 
Q 2441 4250 2034 4250 
Q 1625 4250 1398 4047 
Q 1172 3844 1172 3481 
z
" transform="scale(0.015625)"/>
       </defs>
       <use xlink:href="#DejaVuSans-38"/>
       <use xlink:href="#DejaVuSans-30" x="63.623047"/>
      </g>
     </g>
    </g>
    <g id="xtick_6">
     <g id="text_6">
      <!-- 100 -->
      <g transform="translate(977.810625 366.30265) scale(0.08 -0.08)">
       <defs>
        <path id="DejaVuSans-31" d="M 794 531 
L 1825 531 
L 1825 4091 
L 703 3866 
L 703 4441 
L 1819 4666 
L 2450 4666 
L 2450 531 
L 3481 531 
L 3481 0 
L 794 0 
L 794 531 
z
" transform="scale(0.015625)"/>
       </defs>
       <use xlink:href="#DejaVuSans-31"/>
       <use xlink:href="#DejaVuSans-30" x="63.623047"/>
       <use xlink:href="#DejaVuSans-30" x="127.246094"/>
      </g>
     </g>
    </g>
    <g id="text_7">
     <!-- % GC -->
     <g transform="translate(499.317656 379.564837) scale(0.1 -0.1)">
      <defs>
       <path id="DejaVuSans-25" d="M 4653 2053 
Q 4381 2053 4226 1822 
Q 4072 1591 4072 1178 
Q 4072 772 4226 539 
Q 4381 306 4653 306 
Q 4919 306 5073 539 
Q 5228 772 5228 1178 
Q 5228 1588 5073 1820 
Q 4919 2053 4653 2053 
z
M 4653 2450 
Q 5147 2450 5437 2106 
Q 5728 1763 5728 1178 
Q 5728 594 5436 251 
Q 5144 -91 4653 -91 
Q 4153 -91 3862 251 
Q 3572 594 3572 1178 
Q 3572 1766 3864 2108 
Q 4156 2450 4653 2450 
z
M 1428 4353 
Q 1159 4353 1004 4120 
Q 850 3888 850 3481 
Q 850 3069 1003 2837 
Q 1156 2606 1428 2606 
Q 1700 2606 1854 2837 
Q 2009 3069 2009 3481 
Q 2009 3884 1853 4118 
Q 1697 4353 1428 4353 
z
M 4250 4750 
L 4750 4750 
L 1831 -91 
L 1331 -91 
L 4250 4750 
z
M 1428 4750 
Q 1922 4750 2215 4408 
Q 2509 4066 2509 3481 
Q 2509 2891 2217 2550 
Q 1925 2209 1428 2209 
Q 931 2209 642 2551 
Q 353 2894 353 3481 
Q 353 4063 643 4406 
Q 934 4750 1428 4750 
z
" transform="scale(0.015625)"/>
       <path id="DejaVuSans-20" transform="scale(0.015625)"/>
       <path id="DejaVuSans-47" d="M 3809 666 
L 3809 1919 
L 2778 1919 
L 2778 2438 
L 4434 2438 
L 4434 434 
Q 4069 175 3628 42 
Q 3188 -91 2688 -91 
Q 1594 -91 976 548 
Q 359 1188 359 2328 
Q 359 3472 976 4111 
Q 1594 4750 2688 4750 
Q 3144 4750 3555 4637 
Q 3966 4525 4313 4306 
L 4313 3634 
Q 3963 3931 3569 4081 
Q 3175 4231 2741 4231 
Q 1884 4231 1454 3753 
Q 1025 3275 1025 2328 
Q 1025 1384 1454 906 
Q 1884 428 2741 428 
Q 3075 428 3337 486 
Q 3600 544 3809 666 
z
" transform="scale(0.015625)"/>
       <path id="DejaVuSans-43" d="M 4122 4306 
L 4122 3641 
Q 3803 3938 3442 4084 
Q 3081 4231 2675 4231 
Q 1875 4231 1450 3742 
Q 1025 3253 1025 2328 
Q 1025 1406 1450 917 
Q 1875 428 2675 428 
Q 3081 428 3442 575 
Q 3803 722 4122 1019 
L 4122 359 
Q 3791 134 3420 21 
Q 3050 -91 2638 -91 
Q 1578 -91 968 557 
Q 359 1206 359 2328 
Q 359 3453 968 4101 
Q 1578 4750 2638 4750 
Q 3056 4750 3426 4639 
Q 3797 4528 4122 4306 
z
" transform="scale(0.015625)"/>
      </defs>
      <use xlink:href="#DejaVuSans-25"/>
      <use xlink:href="#DejaVuSans-20" x="95.019531"/>
      <use xlink:href="#DejaVuSans-47" x="126.806641"/>
      <use xlink:href="#DejaVuSans-43" x="204.296875"/>
     </g>
    </g>
   </g>
   <g id="matplotlib.axis_2">
    <g id="ytick_1">
     <g id="line2d_1">
      <path d="M 40.600625 353.2239 
L 985.445625 353.2239 
" clip-path="url(#pdb4c7f298e)" style="fill: none; stroke: #dedede; stroke-linecap: square"/>
     </g>
     <g id="text_8">
      <!-- 0.0 -->
      <g transform="translate(20.878125 356.263275) scale(0.08 -0.08)">
       <defs>
        <path id="DejaVuSans-2e" d="M 684 794 
L 1344 794 
L 1344 0 
L 684 0 
L 684 794 
z
" transform="scale(0.015625)"/>
       </defs>
       <use xlink:href="#DejaVuSans-30"/>
       <use xlink:href="#DejaVuSans-2e" x="63.623047"/>
       <use xlink:href="#DejaVuSans-30" x="95.410156"/>
      </g>
     </g>
    </g>
    <g id="ytick_2">
     <g id="line2d_2">
      <path d="M 40.600625 284.919014 
L 985.445625 284.919014 
" clip-path="url(#pdb4c7f298e)" style="fill: none; stroke: #dedede; stroke-linecap: square"/>
     </g>
     <g id="text_9">
      <!-- 0.5 -->
      <g transform="translate(20.878125 287.958389) scale(0.08 -0.08)">
       <defs>
        <path id="DejaVuSans-35" d="M 691 4666 
L 3169 4666 
L 3169 4134 
L 1269 4134 
L 1269 2991 
Q 1406 3038 1543 3061 
Q 1681 3084 1819 3084 
Q 2600 3084 3056 2656 
Q 3513 2228 3513 1497 
Q 3513 744 3044 326 
Q 2575 -91 1722 -91 
Q 1428 -91 1123 -41 
Q 819 9 494 109 
L 494 744 
Q 775 591 1075 516 
Q 1375 441 1709 441 
Q 2250 441 2565 725 
Q 2881 1009 2881 1497 
Q 2881 1984 2565 2268 
Q 2250 2553 1709 2553 
Q 1456 2553 1204 2497 
Q 953 2441 691 2322 
L 691 4666 
z
" transform="scale(0.015625)"/>
       </defs>
       <use xlink:href="#DejaVuSans-30"/>
       <use xlink:href="#DejaVuSans-2e" x="63.623047"/>
       <use xlink:href="#DejaVuSans-35" x="95.410156"/>
      </g>
     </g>
    </g>
    <g id="ytick_3">
     <g id="line2d_3">
      <path d="M 40.600625 216.614128 
L 985.445625 216.614128 
" clip-path="url(#pdb4c7f298e)" style="fill: none; stroke: #dedede; stroke-linecap: square"/>
     </g>
     <g id="text_10">
      <!-- 1.0 -->
      <g transform="translate(20.878125 219.653503) scale(0.08 -0.08)">
       <use xlink:href="#DejaVuSans-31"/>
       <use xlink:href="#DejaVuSans-2e" x="63.623047"/>
       <use xlink:href="#DejaVuSans-30" x="95.410156"/>
      </g>
     </g>
    </g>
    <g id="ytick_4">
     <g id="line2d_4">
      <path d="M 40.600625 148.309242 
L 985.445625 148.309242 
" clip-path="url(#pdb4c7f298e)" style="fill: none; stroke: #dedede; stroke-linecap: square"/>
     </g>
     <g id="text_11">
      <!-- 1.5 -->
      <g transform="translate(20.878125 151.348617) scale(0.08 -0.08)">
       <use xlink:href="#DejaVuSans-31"/>
       <use xlink:href="#DejaVuSans-2e" x="63.623047"/>
       <use xlink:href="#DejaVuSans-35" x="95.410156"/>
      </g>
     </g>
    </g>
    <g id="ytick_5">
     <g id="line2d_5">
      <path d="M 40.600625 80.004356 
L 985.445625 80.004356 
" clip-path="url(#pdb4c7f298e)" style="fill: none; stroke: #dedede; stroke-linecap: square"/>
     </g>
     <g id="text_12">
      <!-- 2.0 -->
      <g transform="translate(20.878125 83.043731) scale(0.08 -0.08)">
       <use xlink:href="#DejaVuSans-32"/>
       <use xlink:href="#DejaVuSans-2e" x="63.623047"/>
       <use xlink:href="#DejaVuSans-30" x="95.410156"/>
      </g>
     </g>
    </g>
    <g id="text_13">
     <!-- Count -->
     <g transform="translate(14.798438 209.088338) rotate(-90) scale(0.1 -0.1)">
      <defs>
       <path id="DejaVuSans-6f" d="M 1959 3097 
Q 1497 3097 1228 2736 
Q 959 2375 959 1747 
Q 959 1119 1226 758 
Q 1494 397 1959 397 
Q 2419 397 2687 759 
Q 2956 1122 2956 1747 
Q 2956 2369 2687 2733 
Q 2419 3097 1959 3097 
z
M 1959 3584 
Q 2709 3584 3137 3096 
Q 3566 2609 3566 1747 
Q 3566 888 3137 398 
Q 2709 -91 1959 -91 
Q 1206 -91 779 398 
Q 353 888 353 1747 
Q 353 2609 779 3096 
Q 1206 3584 1959 3584 
z
" transform="scale(0.015625)"/>
       <path id="DejaVuSans-75" d="M 544 1381 
L 544 3500 
L 1119 3500 
L 1119 1403 
Q 1119 906 1312 657 
Q 1506 409 1894 409 
Q 2359 409 2629 706 
Q 2900 1003 2900 1516 
L 2900 3500 
L 3475 3500 
L 3475 0 
L 2900 0 
L 2900 538 
Q 2691 219 2414 64 
Q 2138 -91 1772 -91 
Q 1169 -91 856 284 
Q 544 659 544 1381 
z
M 1991 3584 
L 1991 3584 
z
" transform="scale(0.015625)"/>
       <path id="DejaVuSans-6e" d="M 3513 2113 
L 3513 0 
L 2938 0 
L 2938 2094 
Q 2938 2591 2744 2837 
Q 2550 3084 2163 3084 
Q 1697 3084 1428 2787 
Q 1159 2491 1159 1978 
L 1159 0 
L 581 0 
L 581 3500 
L 1159 3500 
L 1159 2956 
Q 1366 3272 1645 3428 
Q 1925 3584 2291 3584 
Q 2894 3584 3203 3211 
Q 3513 2838 3513 2113 
z
" transform="scale(0.015625)"/>
       <path id="DejaVuSans-74" d="M 1172 4494 
L 1172 3500 
L 2356 3500 
L 2356 3053 
L 1172 3053 
L 1172 1153 
Q 1172 725 1289 603 
Q 1406 481 1766 481 
L 2356 481 
L 2356 0 
L 1766 0 
Q 1100 0 847 248 
Q 594 497 594 1153 
L 594 3053 
L 172 3053 
L 172 3500 
L 594 3500 
L 594 4494 
L 1172 4494 
z
" transform="scale(0.015625)"/>
      </defs>
      <use xlink:href="#DejaVuSans-43"/>
      <use xlink:href="#DejaVuSans-6f" x="69.824219"/>
      <use xlink:href="#DejaVuSans-75" x="131.005859"/>
      <use xlink:href="#DejaVuSans-6e" x="194.384766"/>
      <use xlink:href="#DejaVuSans-74" x="257.763672"/>
     </g>
    </g>
    <g id="text_14">
     <!-- 1e7 -->
     <g transform="translate(40.600625 32.2559) scale(0.1 -0.1)">
      <defs>
       <path id="DejaVuSans-65" d="M 3597 1894 
L 3597 1613 
L 953 1613 
Q 991 1019 1311 708 
Q 1631 397 2203 397 
Q 2534 397 2845 478 
Q 3156 559 3463 722 
L 3463 178 
Q 3153 47 2828 -22 
Q 2503 -91 2169 -91 
Q 1331 -91 842 396 
Q 353 884 353 1716 
Q 353 2575 817 3079 
Q 1281 3584 2069 3584 
Q 2775 3584 3186 3129 
Q 3597 2675 3597 1894 
z
M 3022 2063 
Q 3016 2534 2758 2815 
Q 2500 3097 2075 3097 
Q 1594 3097 1305 2825 
Q 1016 2553 972 2059 
L 3022 2063 
z
" transform="scale(0.015625)"/>
       <path id="DejaVuSans-37" d="M 525 4666 
L 3525 4666 
L 3525 4397 
L 1831 0 
L 1172 0 
L 2766 4134 
L 525 4134 
L 525 4666 
z
" transform="scale(0.015625)"/>
      </defs>
      <use xlink:href="#DejaVuSans-31"/>
      <use xlink:href="#DejaVuSans-65" x="63.623047"/>
      <use xlink:href="#DejaVuSans-37" x="125.146484"/>
     </g>
    </g>
   </g>
   <g id="line2d_6">
    <path d="M 40.600625 353.220389 
L 50.049075 353.213668 
L 59.497525 353.206947 
L 68.945975 353.207766 
L 78.394425 353.208586 
L 87.842875 353.203388 
L 97.291325 353.19819 
L 106.739775 353.187931 
L 116.188225 353.177658 
L 125.636675 353.156271 
L 135.085125 353.134851 
L 144.533575 353.088103 
L 153.982025 353.041287 
L 163.430475 352.956664 
L 172.878925 352.870142 
L 182.327375 352.709428 
L 191.775825 352.54484 
L 201.224275 352.255111 
L 210.672725 351.964898 
L 220.121175 351.485964 
L 229.569625 351.002311 
L 239.018075 350.325587 
L 248.466525 349.643057 
L 257.914975 348.715641 
L 267.363425 347.780971 
L 276.811875 346.723351 
L 286.260325 344.58213 
L 295.708775 343.161887 
L 305.157225 341.644931 
L 314.605675 340.101719 
L 324.054125 338.357813 
L 333.502575 336.53897 
L 342.951025 334.707286 
L 352.399475 332.857473 
L 361.847925 331.101662 
L 371.296375 329.302737 
L 380.744825 327.174145 
L 390.193275 324.895651 
L 399.641725 322.922179 
L 409.090175 321.013058 
L 418.538625 319.902044 
L 427.987075 318.966629 
L 437.435525 318.285206 
L 446.883975 317.858355 
L 456.332425 316.964784 
L 465.780875 315.436879 
L 475.229325 312.664705 
L 484.677775 309.202152 
L 494.126225 303.940354 
L 503.574675 301.212912 
L 513.023125 307.389593 
L 522.471575 311.670356 
L 531.920025 311.658703 
L 541.368475 309.296741 
L 550.816925 304.346604 
L 560.265375 305.560143 
L 569.713825 307.011205 
L 579.162275 301.477635 
L 588.610725 292.983874 
L 598.059175 289.863086 
L 607.507625 299.63552 
L 616.956075 311.137441 
L 626.404525 317.096346 
L 635.852975 319.954537 
L 645.301425 320.935873 
L 654.749875 323.470087 
L 664.198325 328.438611 
L 673.646775 332.965292 
L 683.095225 335.625276 
L 692.543675 338.034225 
L 701.992125 339.425166 
L 711.440575 340.248574 
L 720.889025 341.378658 
L 730.337475 341.841287 
L 739.785925 341.610929 
L 749.234375 342.36022 
L 758.682825 342.983201 
L 768.131275 342.719551 
L 777.579725 342.466564 
L 787.028175 343.021992 
L 796.476625 343.60317 
L 805.925075 344.112301 
L 815.373525 344.517841 
L 824.821975 345.518255 
L 834.270425 346.660408 
L 843.718875 346.715401 
L 853.167325 346.707149 
L 862.615775 347.196247 
L 872.064225 347.66977 
L 881.512675 348.691522 
L 890.961125 349.713391 
L 900.409575 349.907855 
L 909.858025 350.10208 
L 919.306475 350.669325 
L 928.754925 351.236528 
L 938.203375 351.574405 
L 947.651825 351.912282 
L 957.100275 352.520551 
L 966.548725 353.12882 
L 975.997175 353.171551 
L 985.445625 353.214283 
" clip-path="url(#pdb4c7f298e)" style="fill: none; stroke: #d9534f; stroke-linecap: square"/>
   </g>
   <g id="line2d_7">
    <path d="M 40.600625 353.219638 
L 50.049075 353.216031 
L 59.497525 353.212425 
L 68.945975 353.202282 
L 78.394425 353.192138 
L 87.842875 353.17666 
L 97.291325 353.161176 
L 106.739775 353.142153 
L 116.188225 353.12313 
L 125.636675 353.09701 
L 135.085125 353.070767 
L 144.533575 353.030563 
L 153.982025 352.990092 
L 163.430475 352.907812 
L 172.878925 352.823852 
L 182.327375 352.665132 
L 191.775825 352.502839 
L 201.224275 352.226881 
L 210.672725 351.949672 
L 220.121175 351.506326 
L 229.569625 351.058164 
L 239.018075 350.444164 
L 248.466525 349.82468 
L 257.914975 348.988574 
L 267.363425 348.14496 
L 276.811875 347.14469 
L 286.260325 345.139921 
L 295.708775 343.869614 
L 305.157225 342.463667 
L 314.605675 341.013725 
L 324.054125 339.439093 
L 333.502575 337.815581 
L 342.951025 336.179194 
L 352.399475 334.520198 
L 361.847925 332.910498 
L 371.296375 331.273476 
L 380.744825 329.599603 
L 390.193275 327.833041 
L 399.641725 326.217391 
L 409.090175 324.560608 
L 418.538625 323.044096 
L 427.987075 321.744938 
L 437.435525 320.285385 
L 446.883975 318.850047 
L 456.332425 319.203545 
L 465.780875 319.561046 
L 475.229325 318.849767 
L 484.677775 317.95084 
L 494.126225 317.660012 
L 503.574675 317.810037 
L 513.023125 317.780597 
L 522.471575 317.597813 
L 531.920025 317.482897 
L 541.368475 317.380481 
L 550.816925 317.107056 
L 560.265375 315.869276 
L 569.713825 312.112412 
L 579.162275 307.641106 
L 588.610725 306.457006 
L 598.059175 308.209648 
L 607.507625 310.73406 
L 616.956075 311.209326 
L 626.404525 311.310451 
L 635.852975 314.583307 
L 645.301425 318.275808 
L 654.749875 314.247288 
L 664.198325 303.481625 
L 673.646775 301.462314 
L 683.095225 312.299485 
L 692.543675 324.124994 
L 701.992125 330.65488 
L 711.440575 333.506212 
L 720.889025 336.410468 
L 730.337475 338.741195 
L 739.785925 338.698456 
L 749.234375 339.253843 
L 758.682825 339.852727 
L 768.131275 340.011023 
L 777.579725 340.15973 
L 787.028175 340.484335 
L 796.476625 340.841775 
L 805.925075 341.448206 
L 815.373525 342.031311 
L 824.821975 342.394823 
L 834.270425 342.768813 
L 843.718875 344.423444 
L 853.167325 346.06522 
L 862.615775 346.697826 
L 872.064225 347.316388 
L 881.512675 347.811161 
L 890.961125 348.302034 
L 900.409575 348.678811 
L 909.858025 349.059385 
L 919.306475 349.990934 
L 928.754925 350.920652 
L 938.203375 350.855162 
L 947.651825 350.789664 
L 957.100275 351.199207 
L 966.548725 351.608749 
L 975.997175 351.145423 
L 985.445625 350.682098 
" clip-path="url(#pdb4c7f298e)" style="fill: none; stroke: #d9534f; stroke-linecap: square"/>
   </g>
   <g id="line2d_8">
    <path d="M 40.600625 353.076758 
L 50.049075 353.112037 
L 59.497525 353.147317 
L 68.945975 353.165554 
L 78.394425 353.183791 
L 87.842875 353.180629 
L 97.291325 353.177466 
L 106.739775 353.165588 
L 116.188225 353.153799 
L 125.636675 353.127556 
L 135.085125 353.10117 
L 144.533575 353.045105 
L 153.982025 352.98876 
L 163.430475 352.888646 
L 172.878925 352.785471 
L 182.327375 352.616601 
L 191.775825 352.445156 
L 201.224275 352.121814 
L 210.672725 351.79557 
L 220.121175 351.252136 
L 229.569625 350.707282 
L 239.018075 349.957157 
L 248.466525 349.197832 
L 257.914975 348.220615 
L 267.363425 347.23169 
L 276.811875 346.055446 
L 286.260325 343.790196 
L 295.708775 342.31716 
L 305.157225 340.600283 
L 314.605675 338.824684 
L 324.054125 336.726788 
L 333.502575 334.541646 
L 342.951025 332.410657 
L 352.399475 330.244545 
L 361.847925 328.038468 
L 371.296375 325.817541 
L 380.744825 323.389296 
L 390.193275 320.77593 
L 399.641725 318.301155 
L 409.090175 315.838628 
L 418.538625 313.786886 
L 427.987075 311.815593 
L 437.435525 310.234321 
L 446.883975 308.806278 
L 456.332425 307.358405 
L 465.780875 305.518702 
L 475.229325 302.336343 
L 484.677775 298.69335 
L 494.126225 294.768722 
L 503.574675 292.636517 
L 513.023125 295.796833 
L 522.471575 297.575185 
L 531.920025 290.794778 
L 541.368475 281.857705 
L 550.816925 281.170203 
L 560.265375 285.690511 
L 569.713825 288.522623 
L 579.162275 286.335944 
L 588.610725 279.870914 
L 598.059175 277.697377 
L 607.507625 286.168584 
L 616.956075 295.458137 
L 626.404525 300.903252 
L 635.852975 304.291352 
L 645.301425 306.563944 
L 654.749875 310.36033 
L 664.198325 315.921891 
L 673.646775 321.759739 
L 683.095225 326.126553 
L 692.543675 329.561735 
L 701.992125 332.195387 
L 711.440575 334.627369 
L 720.889025 336.766118 
L 730.337475 338.372813 
L 739.785925 339.741943 
L 749.234375 341.714656 
L 758.682825 342.636957 
L 768.131275 342.97094 
L 777.579725 343.315026 
L 787.028175 343.915877 
L 796.476625 344.519282 
L 805.925075 344.971174 
L 815.373525 345.344972 
L 824.821975 346.299895 
L 834.270425 347.352029 
L 843.718875 347.593808 
L 853.167325 347.79 
L 862.615775 348.159639 
L 872.064225 348.51451 
L 881.512675 349.272975 
L 890.961125 350.031569 
L 900.409575 350.037101 
L 909.858025 350.042361 
L 919.306475 350.667726 
L 928.754925 351.29303 
L 938.203375 351.630613 
L 947.651825 351.968197 
L 957.100275 352.545551 
L 966.548725 353.122904 
L 975.997175 353.167794 
L 985.445625 353.212684 
" clip-path="url(#pdb4c7f298e)" style="fill: none; stroke: #d9534f; stroke-linecap: square"/>
   </g>
   <g id="line2d_9">
    <path d="M 40.600625 353.213326 
L 50.049075 353.205055 
L 59.497525 353.196783 
L 68.945975 353.169461 
L 78.394425 353.142139 
L 87.842875 353.09977 
L 97.291325 353.0574 
L 106.739775 353.011725 
L 116.188225 352.966022 
L 125.636675 352.919206 
L 135.085125 352.87228 
L 144.533575 352.821694 
L 153.982025 352.771045 
L 163.430475 352.694243 
L 172.878925 352.61613 
L 182.327375 352.478864 
L 191.775825 352.338061 
L 201.224275 352.101596 
L 210.672725 351.864291 
L 220.121175 351.49356 
L 229.569625 351.118866 
L 239.018075 350.575924 
L 248.466525 350.026644 
L 257.914975 349.319012 
L 267.363425 348.606941 
L 276.811875 347.686826 
L 286.260325 345.805074 
L 295.708775 344.576843 
L 305.157225 343.146163 
L 314.605675 341.661003 
L 324.054125 339.963989 
L 333.502575 338.192481 
L 342.951025 336.269275 
L 352.399475 334.279977 
L 361.847925 332.15603 
L 371.296375 329.972097 
L 380.744825 327.641869 
L 390.193275 325.243808 
L 399.641725 322.968934 
L 409.090175 320.541843 
L 418.538625 318.325008 
L 427.987075 316.292288 
L 437.435525 314.501402 
L 446.883975 312.714028 
L 456.332425 311.651484 
L 465.780875 310.619588 
L 475.229325 309.263729 
L 484.677775 307.708727 
L 494.126225 306.470298 
L 503.574675 305.481155 
L 513.023125 304.66164 
L 522.471575 303.667756 
L 531.920025 302.490316 
L 541.368475 301.398169 
L 550.816925 300.016286 
L 560.265375 298.232688 
L 569.713825 295.685271 
L 579.162275 292.814615 
L 588.610725 291.694463 
L 598.059175 291.786599 
L 607.507625 292.947611 
L 616.956075 293.766928 
L 626.404525 294.754132 
L 635.852975 298.230202 
L 645.301425 302.509715 
L 654.749875 301.238315 
L 664.198325 295.762531 
L 673.646775 295.977479 
L 683.095225 305.782837 
L 692.543675 317.597144 
L 701.992125 323.662782 
L 711.440575 326.245594 
L 720.889025 329.674295 
L 730.337475 332.718869 
L 739.785925 333.501513 
L 749.234375 335.146076 
L 758.682825 336.433924 
L 768.131275 337.324094 
L 777.579725 338.214748 
L 787.028175 338.728053 
L 796.476625 339.219178 
L 805.925075 339.847126 
L 815.373525 340.481016 
L 824.821975 341.289513 
L 834.270425 342.097464 
L 843.718875 343.14602 
L 853.167325 344.183031 
L 862.615775 344.856415 
L 872.064225 345.508979 
L 881.512675 346.133416 
L 890.961125 346.753767 
L 900.409575 347.217442 
L 909.858025 347.68421 
L 919.306475 348.446123 
L 928.754925 349.206357 
L 938.203375 349.445458 
L 947.651825 349.684559 
L 957.100275 350.236149 
L 966.548725 350.787738 
L 975.997175 349.969643 
L 985.445625 349.151549 
" clip-path="url(#pdb4c7f298e)" style="fill: none; stroke: #f0ad4e; stroke-linecap: square"/>
   </g>
   <g id="line2d_10">
    <path d="M 40.600625 353.219242 
L 50.049075 353.220676 
L 59.497525 353.222104 
L 68.945975 353.222076 
L 78.394425 353.222268 
L 87.842875 353.222179 
L 97.291325 353.221612 
L 106.739775 353.220662 
L 116.188225 353.219132 
L 125.636675 353.217438 
L 135.085125 353.215089 
L 144.533575 353.211045 
L 153.982025 353.203907 
L 163.430475 353.193361 
L 172.878925 353.174884 
L 182.327375 353.137665 
L 191.775825 353.080405 
L 201.224275 352.988153 
L 210.672725 352.831311 
L 220.121175 352.579737 
L 229.569625 352.190652 
L 239.018075 351.637594 
L 248.466525 350.857115 
L 257.914975 349.796784 
L 267.363425 348.434566 
L 276.811875 346.662703 
L 286.260325 344.468122 
L 295.708775 341.788275 
L 305.157225 338.645165 
L 314.605675 335.314796 
L 324.054125 331.878384 
L 333.502575 328.082012 
L 342.951025 324.24853 
L 352.399475 320.603768 
L 361.847925 316.98169 
L 371.296375 313.526658 
L 380.744825 310.287462 
L 390.193275 307.22325 
L 399.641725 304.501868 
L 409.090175 302.426608 
L 418.538625 300.636412 
L 427.987075 299.135911 
L 437.435525 298.096994 
L 446.883975 296.413019 
L 456.332425 293.493852 
L 465.780875 289.205371 
L 475.229325 286.716778 
L 484.677775 286.62609 
L 494.126225 284.020894 
L 503.574675 282.555542 
L 513.023125 285.263762 
L 522.471575 288.123183 
L 531.920025 289.743675 
L 541.368475 291.076727 
L 550.816925 291.18264 
L 560.265375 291.01834 
L 569.713825 292.636155 
L 579.162275 296.128829 
L 588.610725 296.097436 
L 598.059175 292.548963 
L 607.507625 292.957133 
L 616.956075 291.428272 
L 626.404525 287.516123 
L 635.852975 273.470678 
L 645.301425 255.72612 
L 654.749875 271.236972 
L 664.198325 301.855436 
L 673.646775 316.281202 
L 683.095225 322.125498 
L 692.543675 327.568182 
L 701.992125 332.029276 
L 711.440575 333.793619 
L 720.889025 334.861764 
L 730.337475 336.397196 
L 739.785925 337.06379 
L 749.234375 338.242726 
L 758.682825 339.311643 
L 768.131275 338.443781 
L 777.579725 339.070274 
L 787.028175 341.046443 
L 796.476625 342.673698 
L 805.925075 343.338762 
L 815.373525 344.112807 
L 824.821975 344.791081 
L 834.270425 345.611129 
L 843.718875 346.269834 
L 853.167325 346.72954 
L 862.615775 347.356988 
L 872.064225 347.997845 
L 881.512675 348.834908 
L 890.961125 349.62109 
L 900.409575 350.764029 
L 909.858025 351.944065 
L 919.306475 352.585044 
L 928.754925 352.812008 
L 938.203375 352.904937 
L 947.651825 352.958337 
L 957.100275 353.011041 
L 966.548725 353.010522 
L 975.997175 353.024962 
L 985.445625 353.108506 
" clip-path="url(#pdb4c7f298e)" style="fill: none; stroke: #d9534f; stroke-linecap: square"/>
   </g>
   <g id="line2d_11">
    <path d="M 40.600625 353.222288 
L 50.049075 353.222821 
L 59.497525 353.223388 
L 68.945975 353.223524 
L 78.394425 353.223572 
L 87.842875 353.22349 
L 97.291325 353.223319 
L 106.739775 353.222971 
L 116.188225 353.222493 
L 125.636675 353.221742 
L 135.085125 353.220813 
L 144.533575 353.219132 
L 153.982025 353.215164 
L 163.430475 353.208497 
L 172.878925 353.197487 
L 182.327375 353.174748 
L 191.775825 353.136634 
L 201.224275 353.078233 
L 210.672725 352.976882 
L 220.121175 352.811598 
L 229.569625 352.556684 
L 239.018075 352.178528 
L 248.466525 351.637929 
L 257.914975 350.902436 
L 267.363425 349.95739 
L 276.811875 348.728011 
L 286.260325 347.195577 
L 295.708775 345.386263 
L 305.157225 343.316147 
L 314.605675 341.039504 
L 324.054125 338.618498 
L 333.502575 336.094524 
L 342.951025 333.571041 
L 352.399475 331.117673 
L 361.847925 328.782328 
L 371.296375 326.58285 
L 380.744825 324.469838 
L 390.193275 322.398943 
L 399.641725 320.59497 
L 409.090175 319.290094 
L 418.538625 318.018776 
L 427.987075 316.907736 
L 437.435525 315.998092 
L 446.883975 311.245063 
L 456.332425 300.313016 
L 465.780875 282.105358 
L 475.229325 273.109489 
L 484.677775 274.795308 
L 494.126225 265.667664 
L 503.574675 262.418141 
L 513.023125 273.46272 
L 522.471575 278.315489 
L 531.920025 275.615731 
L 541.368475 273.353173 
L 550.816925 269.299169 
L 560.265375 262.765738 
L 569.713825 261.779047 
L 579.162275 274.706716 
L 588.610725 276.561939 
L 598.059175 269.00153 
L 607.507625 276.222142 
L 616.956075 277.529341 
L 626.404525 272.718122 
L 635.852975 268.528697 
L 645.301425 261.661672 
L 654.749875 271.320317 
L 664.198325 292.561149 
L 673.646775 304.568608 
L 683.095225 312.597124 
L 692.543675 318.869958 
L 701.992125 320.92241 
L 711.440575 320.718431 
L 720.889025 317.885069 
L 730.337475 319.444518 
L 739.785925 318.784898 
L 749.234375 322.91929 
L 758.682825 324.678632 
L 768.131275 318.863878 
L 777.579725 321.114893 
L 787.028175 325.20305 
L 796.476625 327.378807 
L 805.925075 326.514251 
L 815.373525 328.303252 
L 824.821975 330.103714 
L 834.270425 331.147296 
L 843.718875 331.130179 
L 853.167325 331.553465 
L 862.615775 334.812461 
L 872.064225 335.463789 
L 881.512675 335.364413 
L 890.961125 338.275526 
L 900.409575 343.431008 
L 909.858025 348.665935 
L 919.306475 351.499851 
L 928.754925 352.251676 
L 938.203375 352.528085 
L 947.651825 352.762664 
L 957.100275 352.893823 
L 966.548725 352.940571 
L 975.997175 353.004471 
L 985.445625 353.09285 
" clip-path="url(#pdb4c7f298e)" style="fill: none; stroke: #d9534f; stroke-linecap: square"/>
   </g>
   <g id="line2d_12">
    <path d="M 40.600625 353.217206 
L 50.049075 353.219248 
L 59.497525 353.221571 
L 68.945975 353.22196 
L 78.394425 353.222172 
L 87.842875 353.22211 
L 97.291325 353.221694 
L 106.739775 353.220731 
L 116.188225 353.218641 
L 125.636675 353.216612 
L 135.085125 353.214542 
L 144.533575 353.209419 
L 153.982025 353.199966 
L 163.430475 353.184584 
L 172.878925 353.159946 
L 182.327375 353.113629 
L 191.775825 353.032052 
L 201.224275 352.895688 
L 210.672725 352.6791 
L 220.121175 352.330206 
L 229.569625 351.798903 
L 239.018075 351.044045 
L 248.466525 349.964206 
L 257.914975 348.514381 
L 267.363425 346.672191 
L 276.811875 344.2804 
L 286.260325 341.29868 
L 295.708775 337.858456 
L 305.157225 334.019776 
L 314.605675 329.813001 
L 324.054125 325.341497 
L 333.502575 320.715788 
L 342.951025 316.056623 
L 352.399475 311.554771 
L 361.847925 307.309397 
L 371.296375 303.308151 
L 380.744825 299.44178 
L 390.193275 295.759607 
L 399.641725 292.535412 
L 409.090175 290.059018 
L 418.538625 287.856411 
L 427.987075 285.80376 
L 437.435525 284.663082 
L 446.883975 282.638109 
L 456.332425 279.465326 
L 465.780875 275.942263 
L 475.229325 273.545417 
L 484.677775 273.020474 
L 494.126225 268.524482 
L 503.574675 264.506153 
L 513.023125 266.516715 
L 522.471575 271.79283 
L 531.920025 277.0643 
L 541.368475 280.302444 
L 550.816925 282.547714 
L 560.265375 285.37831 
L 569.713825 289.161663 
L 579.162275 292.600056 
L 588.610725 293.18926 
L 598.059175 290.862318 
L 607.507625 290.974953 
L 616.956075 289.905523 
L 626.404525 287.453439 
L 635.852975 274.566555 
L 645.301425 257.538652 
L 654.749875 272.299024 
L 664.198325 302.77872 
L 673.646775 318.167756 
L 683.095225 323.634497 
L 692.543675 328.979566 
L 701.992125 333.897982 
L 711.440575 335.973078 
L 720.889025 337.392754 
L 730.337475 338.846808 
L 739.785925 339.843874 
L 749.234375 340.504069 
L 758.682825 341.231024 
L 768.131275 340.917443 
L 777.579725 341.184453 
L 787.028175 343.064552 
L 796.476625 344.739723 
L 805.925075 345.605726 
L 815.373525 346.353316 
L 824.821975 346.981428 
L 834.270425 347.713738 
L 843.718875 348.365934 
L 853.167325 348.909408 
L 862.615775 349.34184 
L 872.064225 350.002778 
L 881.512675 350.908822 
L 890.961125 351.429114 
L 900.409575 351.901285 
L 909.858025 352.433148 
L 919.306475 352.767815 
L 928.754925 352.904206 
L 938.203375 352.964205 
L 947.651825 352.988678 
L 957.100275 353.016007 
L 966.548725 352.992353 
L 975.997175 353.002544 
L 985.445625 353.097925 
" clip-path="url(#pdb4c7f298e)" style="fill: none; stroke: #d9534f; stroke-linecap: square"/>
   </g>
   <g id="line2d_13">
    <path d="M 40.600625 353.221045 
L 50.049075 353.221817 
L 59.497525 353.222671 
L 68.945975 353.222903 
L 78.394425 353.222944 
L 87.842875 353.222657 
L 97.291325 353.222233 
L 106.739775 353.221516 
L 116.188225 353.219802 
L 125.636675 353.217869 
L 135.085125 353.215539 
L 144.533575 353.21112 
L 153.982025 353.204249 
L 163.430475 353.192452 
L 172.878925 353.171599 
L 182.327375 353.132016 
L 191.775825 353.064886 
L 201.224275 352.955277 
L 210.672725 352.783941 
L 220.121175 352.503721 
L 229.569625 352.089294 
L 239.018075 351.489755 
L 248.466525 350.633348 
L 257.914975 349.489815 
L 267.363425 348.004491 
L 276.811875 346.098526 
L 286.260325 343.715552 
L 295.708775 340.901309 
L 305.157225 337.764804 
L 314.605675 334.373302 
L 324.054125 330.779154 
L 333.502575 327.015411 
L 342.951025 323.227106 
L 352.399475 319.67103 
L 361.847925 316.317752 
L 371.296375 312.929441 
L 380.744825 309.56423 
L 390.193275 306.323668 
L 399.641725 303.33936 
L 409.090175 300.972199 
L 418.538625 298.651465 
L 427.987075 296.276689 
L 437.435525 294.6583 
L 446.883975 291.850785 
L 456.332425 287.32032 
L 465.780875 281.98478 
L 475.229325 277.857935 
L 484.677775 276.109979 
L 494.126225 269.26057 
L 503.574675 262.857526 
L 513.023125 264.333014 
L 522.471575 270.009908 
L 531.920025 275.334295 
L 541.368475 278.059025 
L 550.816925 279.761244 
L 560.265375 282.246012 
L 569.713825 286.008197 
L 579.162275 289.492019 
L 588.610725 290.189959 
L 598.059175 287.913562 
L 607.507625 288.228072 
L 616.956075 287.489354 
L 626.404525 285.949455 
L 635.852975 278.716439 
L 645.301425 266.86843 
L 654.749875 277.826146 
L 664.198325 302.537774 
L 673.646775 315.485423 
L 683.095225 320.464938 
L 692.543675 325.842097 
L 701.992125 330.68742 
L 711.440575 333.092469 
L 720.889025 334.842454 
L 730.337475 336.550199 
L 739.785925 337.791477 
L 749.234375 338.845476 
L 758.682825 339.803704 
L 768.131275 339.136127 
L 777.579725 339.202676 
L 787.028175 341.430898 
L 796.476625 343.530542 
L 805.925075 344.519002 
L 815.373525 345.172789 
L 824.821975 345.818626 
L 834.270425 346.608661 
L 843.718875 347.212435 
L 853.167325 347.819378 
L 862.615775 348.213825 
L 872.064225 348.886191 
L 881.512675 350.022122 
L 890.961125 350.735628 
L 900.409575 351.370256 
L 909.858025 352.130332 
L 919.306475 352.664681 
L 928.754925 352.868749 
L 938.203375 352.963214 
L 947.651825 353.020188 
L 957.100275 353.067598 
L 966.548725 353.045269 
L 975.997175 353.070883 
L 985.445625 353.156852 
" clip-path="url(#pdb4c7f298e)" style="fill: none; stroke: #f0ad4e; stroke-linecap: square"/>
   </g>
   <g id="line2d_14">
    <path d="M 40.600625 353.218572 
L 50.049075 353.212261 
L 59.497525 353.205949 
L 68.945975 353.204269 
L 78.394425 353.202589 
L 87.842875 353.195451 
L 97.291325 353.188313 
L 106.739775 353.18024 
L 116.188225 353.172166 
L 125.636675 353.151292 
L 135.085125 353.130295 
L 144.533575 353.080911 
L 153.982025 353.031396 
L 163.430475 352.942074 
L 172.878925 352.850921 
L 182.327375 352.680582 
L 191.775825 352.506863 
L 201.224275 352.181882 
L 210.672725 351.853082 
L 220.121175 351.337599 
L 229.569625 350.820196 
L 239.018075 350.101786 
L 248.466525 349.379735 
L 257.914975 348.414109 
L 267.363425 347.43226 
L 276.811875 346.312217 
L 286.260325 344.103681 
L 295.708775 342.659894 
L 305.157225 341.067556 
L 314.605675 339.434312 
L 324.054125 337.630926 
L 333.502575 335.771537 
L 342.951025 333.94253 
L 352.399475 332.108503 
L 361.847925 330.308109 
L 371.296375 328.425743 
L 380.744825 326.227685 
L 390.193275 323.936541 
L 399.641725 322.086523 
L 409.090175 320.263726 
L 418.538625 319.061006 
L 427.987075 318.050948 
L 437.435525 317.203926 
L 446.883975 316.539456 
L 456.332425 315.675557 
L 465.780875 313.788607 
L 475.229325 307.330715 
L 484.677775 299.958821 
L 494.126225 288.922985 
L 503.574675 281.819598 
L 513.023125 296.226266 
L 522.471575 306.371304 
L 531.920025 304.499825 
L 541.368475 299.030633 
L 550.816925 289.366516 
L 560.265375 292.147788 
L 569.713825 296.383019 
L 579.162275 288.41384 
L 588.610725 275.432442 
L 598.059175 271.169261 
L 607.507625 284.489718 
L 616.956075 294.888741 
L 626.404525 296.73871 
L 635.852975 297.058944 
L 645.301425 295.846607 
L 654.749875 300.014148 
L 664.198325 310.923401 
L 673.646775 322.631098 
L 683.095225 330.277721 
L 692.543675 334.151263 
L 701.992125 336.101805 
L 711.440575 338.593383 
L 720.889025 340.381898 
L 730.337475 340.478543 
L 739.785925 341.354983 
L 749.234375 343.511649 
L 758.682825 344.502042 
L 768.131275 344.633386 
L 777.579725 344.776792 
L 787.028175 345.74334 
L 796.476625 346.715968 
L 805.925075 347.051283 
L 815.373525 347.330172 
L 824.821975 348.001841 
L 834.270425 348.725081 
L 843.718875 348.735415 
L 853.167325 348.753147 
L 862.615775 349.235468 
L 872.064225 349.686895 
L 881.512675 350.462695 
L 890.961125 351.238468 
L 900.409575 351.249663 
L 909.858025 351.260688 
L 919.306475 351.873383 
L 928.754925 352.486016 
L 938.203375 352.672188 
L 947.651825 352.85836 
L 957.100275 353.030802 
L 966.548725 353.203245 
L 975.997175 353.210027 
L 985.445625 353.21681 
" clip-path="url(#pdb4c7f298e)" style="fill: none; stroke: #d9534f; stroke-linecap: square"/>
   </g>
   <g id="line2d_15">
    <path d="M 40.600625 353.218326 
L 50.049075 353.212568 
L 59.497525 353.20681 
L 68.945975 353.190977 
L 78.394425 353.175144 
L 87.842875 353.15427 
L 97.291325 353.133389 
L 106.739775 353.108267 
L 116.188225 353.083158 
L 125.636675 353.057127 
L 135.085125 353.030987 
L 144.533575 352.993221 
L 153.982025 352.955223 
L 163.430475 352.879555 
L 172.878925 352.802971 
L 182.327375 352.656136 
L 191.775825 352.504677 
L 201.224275 352.231041 
L 210.672725 351.956052 
L 220.121175 351.543566 
L 229.569625 351.128422 
L 239.018075 350.529491 
L 248.466525 349.921912 
L 257.914975 349.111919 
L 267.363425 348.297014 
L 276.811875 347.272864 
L 286.260325 345.256784 
L 295.708775 343.995288 
L 305.157225 342.519691 
L 314.605675 341.002612 
L 324.054125 339.390699 
L 333.502575 337.69281 
L 342.951025 335.933584 
L 352.399475 334.182813 
L 361.847925 332.409564 
L 371.296375 330.565571 
L 380.744825 328.660746 
L 390.193275 326.742615 
L 399.641725 324.945541 
L 409.090175 322.908962 
L 418.538625 321.214516 
L 427.987075 320.005 
L 437.435525 318.818456 
L 446.883975 317.472283 
L 456.332425 317.4074 
L 465.780875 317.341868 
L 475.229325 316.603936 
L 484.677775 315.743042 
L 494.126225 315.135463 
L 503.574675 314.975192 
L 513.023125 314.934797 
L 522.471575 314.714746 
L 531.920025 314.060781 
L 541.368475 313.131951 
L 550.816925 310.803554 
L 560.265375 307.146401 
L 569.713825 300.422966 
L 579.162275 292.013235 
L 588.610725 288.187123 
L 598.059175 288.036504 
L 607.507625 290.55903 
L 616.956075 291.452704 
L 626.404525 290.42572 
L 635.852975 294.351816 
L 645.301425 298.084945 
L 654.749875 289.70968 
L 664.198325 272.285014 
L 673.646775 264.166405 
L 683.095225 281.461475 
L 692.543675 310.012364 
L 701.992125 325.459583 
L 711.440575 330.643377 
L 720.889025 336.138772 
L 730.337475 340.016269 
L 739.785925 340.501958 
L 749.234375 341.459258 
L 758.682825 342.024248 
L 768.131275 342.529486 
L 777.579725 342.981343 
L 787.028175 343.295409 
L 796.476625 343.698504 
L 805.925075 344.234273 
L 815.373525 344.719682 
L 824.821975 344.884031 
L 834.270425 345.057231 
L 843.718875 346.435241 
L 853.167325 347.801059 
L 862.615775 348.758366 
L 872.064225 349.704361 
L 881.512675 350.06107 
L 890.961125 350.413803 
L 900.409575 350.507333 
L 909.858025 350.605712 
L 919.306475 351.257805 
L 928.754925 351.907638 
L 938.203375 352.022772 
L 947.651825 352.137907 
L 957.100275 352.020723 
L 966.548725 351.903539 
L 975.997175 350.943541 
L 985.445625 349.983544 
" clip-path="url(#pdb4c7f298e)" style="fill: none; stroke: #d9534f; stroke-linecap: square"/>
   </g>
   <g id="line2d_16">
    <path d="M 40.600625 353.219815 
L 50.049075 353.221516 
L 59.497525 353.223224 
L 68.945975 353.223285 
L 78.394425 353.223278 
L 87.842875 353.222923 
L 97.291325 353.222438 
L 106.739775 353.222028 
L 116.188225 353.221434 
L 125.636675 353.220669 
L 135.085125 353.219119 
L 144.533575 353.216182 
L 153.982025 353.211147 
L 163.430475 353.204092 
L 172.878925 353.188935 
L 182.327375 353.159803 
L 191.775825 353.10634 
L 201.224275 353.013869 
L 210.672725 352.864247 
L 220.121175 352.619108 
L 229.569625 352.223213 
L 239.018075 351.652833 
L 248.466525 350.841419 
L 257.914975 349.69738 
L 267.363425 348.212487 
L 276.811875 346.246556 
L 286.260325 343.784978 
L 295.708775 340.896501 
L 305.157225 337.57549 
L 314.605675 333.907968 
L 324.054125 329.981919 
L 333.502575 325.837418 
L 342.951025 321.668689 
L 352.399475 317.456251 
L 361.847925 313.104165 
L 371.296375 308.796544 
L 380.744825 304.608136 
L 390.193275 300.487904 
L 399.641725 296.672058 
L 409.090175 293.268883 
L 418.538625 290.087815 
L 427.987075 287.583226 
L 437.435525 285.669487 
L 446.883975 283.514222 
L 456.332425 280.697226 
L 465.780875 276.877801 
L 475.229325 274.425539 
L 484.677775 273.629637 
L 494.126225 271.705031 
L 503.574675 270.610971 
L 513.023125 271.513401 
L 522.471575 271.782953 
L 531.920025 271.49084 
L 541.368475 271.683173 
L 550.816925 271.068969 
L 560.265375 270.620438 
L 569.713825 271.673686 
L 579.162275 274.238329 
L 588.610725 273.567828 
L 598.059175 269.049152 
L 607.507625 268.103314 
L 616.956075 265.849431 
L 626.404525 261.63019 
L 635.852975 244.85505 
L 645.301425 221.83521 
L 654.749875 241.73368 
L 664.198325 283.625326 
L 673.646775 303.12909 
L 683.095225 310.372727 
L 692.543675 317.161898 
L 701.992125 323.057286 
L 711.440575 325.923844 
L 720.889025 327.614807 
L 730.337475 329.773227 
L 739.785925 330.932518 
L 749.234375 331.08294 
L 758.682825 331.563348 
L 768.131275 330.393702 
L 777.579725 330.519274 
L 787.028175 333.919197 
L 796.476625 337.154882 
L 805.925075 338.769541 
L 815.373525 339.750563 
L 824.821975 340.550229 
L 834.270425 341.630232 
L 843.718875 342.627551 
L 853.167325 343.61955 
L 862.615775 344.364941 
L 872.064225 345.790436 
L 881.512675 347.746046 
L 890.961125 348.709425 
L 900.409575 349.967813 
L 909.858025 351.488102 
L 919.306475 352.301128 
L 928.754925 352.644511 
L 938.203375 352.820088 
L 947.651825 352.933761 
L 957.100275 353.020106 
L 966.548725 353.008535 
L 975.997175 353.020078 
L 985.445625 353.106887 
" clip-path="url(#pdb4c7f298e)" style="fill: none; stroke: #d9534f; stroke-linecap: square"/>
   </g>
   <g id="line2d_17">
    <path d="M 40.600625 353.222001 
L 50.049075 353.222589 
L 59.497525 353.223292 
L 68.945975 353.223231 
L 78.394425 353.223149 
L 87.842875 353.223087 
L 97.291325 353.222875 
L 106.739775 353.2225 
L 116.188225 353.221318 
L 125.636675 353.21985 
L 135.085125 353.219119 
L 144.533575 353.217104 
L 153.982025 353.212882 
L 163.430475 353.206339 
L 172.878925 353.195963 
L 182.327375 353.17722 
L 191.775825 353.147207 
L 201.224275 353.097311 
L 210.672725 353.013569 
L 220.121175 352.882389 
L 229.569625 352.679496 
L 239.018075 352.392104 
L 248.466525 351.985239 
L 257.914975 351.408909 
L 267.363425 350.660855 
L 276.811875 349.614909 
L 286.260325 348.298161 
L 295.708775 346.698386 
L 305.157225 344.696602 
L 314.605675 342.590455 
L 324.054125 340.361352 
L 333.502575 337.799017 
L 342.951025 335.15292 
L 352.399475 332.496905 
L 361.847925 329.642191 
L 371.296375 326.695724 
L 380.744825 323.72037 
L 390.193275 320.832876 
L 399.641725 318.269032 
L 409.090175 315.881229 
L 418.538625 313.311012 
L 427.987075 310.923196 
L 437.435525 308.980742 
L 446.883975 306.769733 
L 456.332425 303.476051 
L 465.780875 298.00263 
L 475.229325 293.763411 
L 484.677775 291.079848 
L 494.126225 287.954695 
L 503.574675 287.994161 
L 513.023125 289.761332 
L 522.471575 289.402458 
L 531.920025 287.886793 
L 541.368475 286.489459 
L 550.816925 284.19268 
L 560.265375 282.651435 
L 569.713825 282.225103 
L 579.162275 283.092719 
L 588.610725 272.930052 
L 598.059175 248.196798 
L 607.507625 231.512858 
L 616.956075 200.109277 
L 626.404525 165.70416 
L 635.852975 119.816077 
L 645.301425 50.397221 
L 654.749875 92.462149 
L 664.198325 214.888487 
L 673.646775 277.683751 
L 683.095225 293.664 
L 692.543675 309.78941 
L 701.992125 324.500657 
L 711.440575 327.574199 
L 720.889025 328.501889 
L 730.337475 330.728212 
L 739.785925 332.793465 
L 749.234375 333.327875 
L 758.682825 333.397553 
L 768.131275 331.403938 
L 777.579725 330.869207 
L 787.028175 334.025575 
L 796.476625 337.380793 
L 805.925075 338.75853 
L 815.373525 339.380801 
L 824.821975 340.171779 
L 834.270425 341.143812 
L 843.718875 341.53968 
L 853.167325 342.082198 
L 862.615775 342.607702 
L 872.064225 344.137684 
L 881.512675 346.676877 
L 890.961125 348.086915 
L 900.409575 349.460588 
L 909.858025 351.156256 
L 919.306475 352.215262 
L 928.754925 352.611991 
L 938.203375 352.802329 
L 947.651825 352.921077 
L 957.100275 353.047878 
L 966.548725 353.052222 
L 975.997175 353.059606 
L 985.445625 353.124926 
" clip-path="url(#pdb4c7f298e)" style="fill: none; stroke: #d9534f; stroke-linecap: square"/>
   </g>
   <g id="line2d_18">
    <path d="M 40.600625 353.222985 
L 50.049075 353.223313 
L 59.497525 353.223634 
L 68.945975 353.223627 
L 78.394425 353.223558 
L 87.842875 353.223395 
L 97.291325 353.223265 
L 106.739775 353.222964 
L 116.188225 353.222711 
L 125.636675 353.222356 
L 135.085125 353.221598 
L 144.533575 353.220246 
L 153.982025 353.217992 
L 163.430475 353.214877 
L 172.878925 353.209201 
L 182.327375 353.198258 
L 191.775825 353.178368 
L 201.224275 353.143806 
L 210.672725 353.091218 
L 220.121175 353.003644 
L 229.569625 352.859623 
L 239.018075 352.657714 
L 248.466525 352.375116 
L 257.914975 351.980505 
L 267.363425 351.469632 
L 276.811875 350.791782 
L 286.260325 349.94474 
L 295.708775 348.926081 
L 305.157225 347.756067 
L 314.605675 346.527344 
L 324.054125 345.215849 
L 333.502575 343.811828 
L 342.951025 342.421721 
L 352.399475 341.054975 
L 361.847925 339.653898 
L 371.296375 338.256865 
L 380.744825 336.905064 
L 390.193275 335.513037 
L 399.641725 334.222157 
L 409.090175 333.171273 
L 418.538625 332.074849 
L 427.987075 331.144482 
L 437.435525 330.218022 
L 446.883975 325.308506 
L 456.332425 313.302583 
L 465.780875 292.157351 
L 475.229325 281.833218 
L 484.677775 283.347032 
L 494.126225 271.70053 
L 503.574675 267.78168 
L 513.023125 279.240159 
L 522.471575 282.481254 
L 531.920025 276.474904 
L 541.368475 271.810015 
L 550.816925 266.739839 
L 560.265375 258.129148 
L 569.713825 254.153257 
L 579.162275 267.65869 
L 588.610725 270.045741 
L 598.059175 261.680715 
L 607.507625 271.249601 
L 616.956075 274.686143 
L 626.404525 271.868409 
L 635.852975 273.860972 
L 645.301425 269.998795 
L 654.749875 275.288599 
L 664.198325 292.656489 
L 673.646775 301.836461 
L 683.095225 309.280088 
L 692.543675 315.035451 
L 701.992125 315.752502 
L 711.440575 315.029147 
L 720.889025 311.061445 
L 730.337475 311.91331 
L 739.785925 311.508692 
L 749.234375 316.998294 
L 758.682825 318.769672 
L 768.131275 312.282156 
L 777.579725 315.258774 
L 787.028175 320.045007 
L 796.476625 322.653843 
L 805.925075 321.886363 
L 815.373525 323.733901 
L 824.821975 325.83446 
L 834.270425 327.147594 
L 843.718875 327.305188 
L 853.167325 328.067306 
L 862.615775 331.902373 
L 872.064225 332.977758 
L 881.512675 332.63525 
L 890.961125 335.292303 
L 900.409575 341.684869 
L 909.858025 348.362928 
L 919.306475 351.426498 
L 928.754925 352.333402 
L 938.203375 352.664626 
L 947.651825 352.923857 
L 957.100275 353.092338 
L 966.548725 353.135288 
L 975.997175 353.148389 
L 985.445625 353.177009 
" clip-path="url(#pdb4c7f298e)" style="fill: none; stroke: #f0ad4e; stroke-linecap: square"/>
   </g>
   <g id="line2d_19">
    <path d="M 40.600625 353.22263 
L 50.049075 353.223026 
L 59.497525 353.223442 
L 68.945975 353.223436 
L 78.394425 353.223524 
L 87.842875 353.223477 
L 97.291325 353.223053 
L 106.739775 353.222664 
L 116.188225 353.222336 
L 125.636675 353.221441 
L 135.085125 353.220068 
L 144.533575 353.218859 
L 153.982025 353.21558 
L 163.430475 353.210143 
L 172.878925 353.201168 
L 182.327375 353.18554 
L 191.775825 353.156975 
L 201.224275 353.107522 
L 210.672725 353.02557 
L 220.121175 352.900715 
L 229.569625 352.721716 
L 239.018075 352.457465 
L 248.466525 352.073864 
L 257.914975 351.55696 
L 267.363425 350.872894 
L 276.811875 349.973687 
L 286.260325 348.860304 
L 295.708775 347.487731 
L 305.157225 345.873543 
L 314.605675 344.164247 
L 324.054125 342.341955 
L 333.502575 340.315568 
L 342.951025 338.302623 
L 352.399475 336.306679 
L 361.847925 334.077508 
L 371.296375 331.712738 
L 380.744825 329.331179 
L 390.193275 326.964107 
L 399.641725 324.731815 
L 409.090175 322.528839 
L 418.538625 320.100142 
L 427.987075 317.926148 
L 437.435525 316.064075 
L 446.883975 313.384481 
L 456.332425 308.840594 
L 465.780875 301.878359 
L 475.229325 297.182986 
L 484.677775 295.514051 
L 494.126225 291.626725 
L 503.574675 289.459383 
L 513.023125 290.583183 
L 522.471575 289.567489 
L 531.920025 286.99747 
L 541.368475 284.845634 
L 550.816925 281.157382 
L 560.265375 277.963193 
L 569.713825 277.332609 
L 579.162275 279.478079 
L 588.610725 272.554136 
L 598.059175 255.608991 
L 607.507625 247.622463 
L 616.956075 234.76456 
L 626.404525 219.056315 
L 635.852975 180.833331 
L 645.301425 124.805162 
L 654.749875 162.097287 
L 664.198325 250.151759 
L 673.646775 288.696192 
L 683.095225 300.661876 
L 692.543675 312.015508 
L 701.992125 321.878685 
L 711.440575 324.377299 
L 720.889025 324.990055 
L 730.337475 327.215005 
L 739.785925 328.067135 
L 749.234375 327.638843 
L 758.682825 327.500505 
L 768.131275 324.889517 
L 777.579725 324.360052 
L 787.028175 328.406747 
L 796.476625 332.212518 
L 805.925075 333.361024 
L 815.373525 334.121277 
L 824.821975 335.162415 
L 834.270425 336.428412 
L 843.718875 336.862195 
L 853.167325 337.523073 
L 862.615775 338.593683 
L 872.064225 340.394023 
L 881.512675 342.713219 
L 890.961125 344.398752 
L 900.409575 347.026413 
L 909.858025 350.036555 
L 919.306475 351.768658 
L 928.754925 352.429589 
L 938.203375 352.72621 
L 947.651825 352.935749 
L 957.100275 353.118758 
L 966.548725 353.134345 
L 975.997175 353.136975 
L 985.445625 353.173095 
" clip-path="url(#pdb4c7f298e)" style="fill: none; stroke: #d9534f; stroke-linecap: square"/>
   </g>
   <g id="line2d_20">
    <path d="M 40.600625 353.219679 
L 50.049075 353.21237 
L 59.497525 353.205062 
L 68.945975 353.203477 
L 78.394425 353.201892 
L 87.842875 353.195745 
L 97.291325 353.189597 
L 106.739775 353.177309 
L 116.188225 353.165042 
L 125.636675 353.138259 
L 135.085125 353.111436 
L 144.533575 353.055446 
L 153.982025 352.999225 
L 163.430475 352.897266 
L 172.878925 352.792261 
L 182.327375 352.59958 
L 191.775825 352.405307 
L 201.224275 352.055224 
L 210.672725 351.70092 
L 220.121175 351.151086 
L 229.569625 350.59755 
L 239.018075 349.809776 
L 248.466525 349.01621 
L 257.914975 347.972163 
L 267.363425 346.920322 
L 276.811875 345.738012 
L 286.260325 343.384253 
L 295.708775 341.861157 
L 305.157225 340.247905 
L 314.605675 338.604018 
L 324.054125 336.829839 
L 333.502575 335.008599 
L 342.951025 333.2725 
L 352.399475 331.515883 
L 361.847925 329.881006 
L 371.296375 328.22757 
L 380.744825 326.329357 
L 390.193275 324.336814 
L 399.641725 322.753343 
L 409.090175 321.23899 
L 418.538625 320.468449 
L 427.987075 319.898622 
L 437.435525 319.608067 
L 446.883975 319.476054 
L 456.332425 318.925025 
L 465.780875 317.605682 
L 475.229325 314.211127 
L 484.677775 310.237777 
L 494.126225 304.749951 
L 503.574675 302.054394 
L 513.023125 307.712962 
L 522.471575 310.943544 
L 531.920025 312.308993 
L 541.368475 311.907299 
L 550.816925 307.794184 
L 560.265375 309.543486 
L 569.713825 311.149893 
L 579.162275 305.93959 
L 588.610725 298.05041 
L 598.059175 295.795611 
L 607.507625 304.72821 
L 616.956075 313.193302 
L 626.404525 316.516772 
L 635.852975 318.08493 
L 645.301425 318.274018 
L 654.749875 320.97228 
L 664.198325 327.280803 
L 673.646775 333.620575 
L 683.095225 337.567252 
L 692.543675 340.07314 
L 701.992125 341.273871 
L 711.440575 342.261669 
L 720.889025 343.314733 
L 730.337475 343.520405 
L 739.785925 343.51477 
L 749.234375 344.629089 
L 758.682825 345.394302 
L 768.131275 345.333477 
L 777.579725 345.278116 
L 787.028175 345.873912 
L 796.476625 346.482932 
L 805.925075 346.750496 
L 815.373525 346.963846 
L 824.821975 347.570537 
L 834.270425 348.243237 
L 843.718875 348.174953 
L 853.167325 348.08544 
L 862.615775 348.488356 
L 872.064225 348.875761 
L 881.512675 349.703425 
L 890.961125 350.531035 
L 900.409575 350.638813 
L 909.858025 350.746297 
L 919.306475 351.280619 
L 928.754925 351.81492 
L 938.203375 352.104321 
L 947.651825 352.393722 
L 957.100275 352.784201 
L 966.548725 353.174679 
L 975.997175 353.195752 
L 985.445625 353.216824 
" clip-path="url(#pdb4c7f298e)" style="fill: none; stroke: #d9534f; stroke-linecap: square"/>
   </g>
   <g id="line2d_21">
    <path d="M 40.600625 353.217274 
L 50.049075 353.212022 
L 59.497525 353.206769 
L 68.945975 353.192985 
L 78.394425 353.179194 
L 87.842875 353.160882 
L 97.291325 353.142576 
L 106.739775 353.118301 
L 116.188225 353.094025 
L 125.636675 353.063363 
L 135.085125 353.03251 
L 144.533575 352.980912 
L 153.982025 352.929028 
L 163.430475 352.829111 
L 172.878925 352.727064 
L 182.327375 352.540715 
L 191.775825 352.350718 
L 201.224275 352.022875 
L 210.672725 351.693891 
L 220.121175 351.176748 
L 229.569625 350.653799 
L 239.018075 349.953933 
L 248.466525 349.24652 
L 257.914975 348.274009 
L 267.363425 347.297065 
L 276.811875 346.204152 
L 286.260325 344.010978 
L 295.708775 342.620584 
L 305.157225 341.083711 
L 314.605675 339.517138 
L 324.054125 337.9392 
L 333.502575 336.320169 
L 342.951025 334.780126 
L 352.399475 333.242631 
L 361.847925 331.770059 
L 371.296375 330.26201 
L 380.744825 328.761748 
L 390.193275 327.260441 
L 399.641725 325.910969 
L 409.090175 324.412831 
L 418.538625 323.240616 
L 427.987075 322.397481 
L 437.435525 321.512592 
L 446.883975 320.634976 
L 456.332425 321.056732 
L 465.780875 321.436049 
L 475.229325 321.06292 
L 484.677775 320.537874 
L 494.126225 320.38121 
L 503.574675 320.632968 
L 513.023125 320.83705 
L 522.471575 320.90502 
L 531.920025 320.944787 
L 541.368475 320.838368 
L 550.816925 319.683127 
L 560.265375 317.523873 
L 569.713825 313.367487 
L 579.162275 308.469282 
L 588.610725 307.117774 
L 598.059175 308.580981 
L 607.507625 310.875765 
L 616.956075 311.779596 
L 626.404525 311.900585 
L 635.852975 314.670457 
L 645.301425 318.346954 
L 654.749875 314.347512 
L 664.198325 303.184697 
L 673.646775 300.180894 
L 683.095225 311.988329 
L 692.543675 326.467893 
L 701.992125 333.682924 
L 711.440575 336.492775 
L 720.889025 339.625429 
L 730.337475 341.932706 
L 739.785925 341.944755 
L 749.234375 342.374687 
L 758.682825 342.806817 
L 768.131275 343.211531 
L 777.579725 343.608956 
L 787.028175 343.73853 
L 796.476625 343.901369 
L 805.925075 344.225742 
L 815.373525 344.524651 
L 824.821975 344.78367 
L 834.270425 345.051309 
L 843.718875 346.100397 
L 853.167325 347.13859 
L 862.615775 347.583822 
L 872.064225 348.018685 
L 881.512675 348.433938 
L 890.961125 348.846568 
L 900.409575 349.008867 
L 909.858025 349.174568 
L 919.306475 349.897056 
L 928.754925 350.617871 
L 938.203375 350.711469 
L 947.651825 350.805046 
L 957.100275 351.244021 
L 966.548725 351.682996 
L 975.997175 350.964176 
L 985.445625 350.245356 
" clip-path="url(#pdb4c7f298e)" style="fill: none; stroke: #d9534f; stroke-linecap: square"/>
   </g>
   <g id="line2d_22">
    <path d="M 40.600625 353.2239 
L 985.445625 353.2239 
" clip-path="url(#pdb4c7f298e)" style="fill: none; stroke: #dedede; stroke-width: 2; stroke-linecap: square"/>
   </g>
   <g id="text_15">
    <!-- FastQC: Per Sequence GC Content -->
    <g transform="translate(376.386875 19.3575) scale(0.16 -0.16)">
     <defs>
      <path id="DejaVuSans-46" d="M 628 4666 
L 3309 4666 
L 3309 4134 
L 1259 4134 
L 1259 2759 
L 3109 2759 
L 3109 2228 
L 1259 2228 
L 1259 0 
L 628 0 
L 628 4666 
z
" transform="scale(0.015625)"/>
      <path id="DejaVuSans-61" d="M 2194 1759 
Q 1497 1759 1228 1600 
Q 959 1441 959 1056 
Q 959 750 1161 570 
Q 1363 391 1709 391 
Q 2188 391 2477 730 
Q 2766 1069 2766 1631 
L 2766 1759 
L 2194 1759 
z
M 3341 1997 
L 3341 0 
L 2766 0 
L 2766 531 
Q 2569 213 2275 61 
Q 1981 -91 1556 -91 
Q 1019 -91 701 211 
Q 384 513 384 1019 
Q 384 1609 779 1909 
Q 1175 2209 1959 2209 
L 2766 2209 
L 2766 2266 
Q 2766 2663 2505 2880 
Q 2244 3097 1772 3097 
Q 1472 3097 1187 3025 
Q 903 2953 641 2809 
L 641 3341 
Q 956 3463 1253 3523 
Q 1550 3584 1831 3584 
Q 2591 3584 2966 3190 
Q 3341 2797 3341 1997 
z
" transform="scale(0.015625)"/>
      <path id="DejaVuSans-73" d="M 2834 3397 
L 2834 2853 
Q 2591 2978 2328 3040 
Q 2066 3103 1784 3103 
Q 1356 3103 1142 2972 
Q 928 2841 928 2578 
Q 928 2378 1081 2264 
Q 1234 2150 1697 2047 
L 1894 2003 
Q 2506 1872 2764 1633 
Q 3022 1394 3022 966 
Q 3022 478 2636 193 
Q 2250 -91 1575 -91 
Q 1294 -91 989 -36 
Q 684 19 347 128 
L 347 722 
Q 666 556 975 473 
Q 1284 391 1588 391 
Q 1994 391 2212 530 
Q 2431 669 2431 922 
Q 2431 1156 2273 1281 
Q 2116 1406 1581 1522 
L 1381 1569 
Q 847 1681 609 1914 
Q 372 2147 372 2553 
Q 372 3047 722 3315 
Q 1072 3584 1716 3584 
Q 2034 3584 2315 3537 
Q 2597 3491 2834 3397 
z
" transform="scale(0.015625)"/>
      <path id="DejaVuSans-51" d="M 2522 4238 
Q 1834 4238 1429 3725 
Q 1025 3213 1025 2328 
Q 1025 1447 1429 934 
Q 1834 422 2522 422 
Q 3209 422 3611 934 
Q 4013 1447 4013 2328 
Q 4013 3213 3611 3725 
Q 3209 4238 2522 4238 
z
M 3406 84 
L 4238 -825 
L 3475 -825 
L 2784 -78 
Q 2681 -84 2626 -87 
Q 2572 -91 2522 -91 
Q 1538 -91 948 567 
Q 359 1225 359 2328 
Q 359 3434 948 4092 
Q 1538 4750 2522 4750 
Q 3503 4750 4090 4092 
Q 4678 3434 4678 2328 
Q 4678 1516 4351 937 
Q 4025 359 3406 84 
z
" transform="scale(0.015625)"/>
      <path id="DejaVuSans-3a" d="M 750 794 
L 1409 794 
L 1409 0 
L 750 0 
L 750 794 
z
M 750 3309 
L 1409 3309 
L 1409 2516 
L 750 2516 
L 750 3309 
z
" transform="scale(0.015625)"/>
      <path id="DejaVuSans-50" d="M 1259 4147 
L 1259 2394 
L 2053 2394 
Q 2494 2394 2734 2622 
Q 2975 2850 2975 3272 
Q 2975 3691 2734 3919 
Q 2494 4147 2053 4147 
L 1259 4147 
z
M 628 4666 
L 2053 4666 
Q 2838 4666 3239 4311 
Q 3641 3956 3641 3272 
Q 3641 2581 3239 2228 
Q 2838 1875 2053 1875 
L 1259 1875 
L 1259 0 
L 628 0 
L 628 4666 
z
" transform="scale(0.015625)"/>
      <path id="DejaVuSans-72" d="M 2631 2963 
Q 2534 3019 2420 3045 
Q 2306 3072 2169 3072 
Q 1681 3072 1420 2755 
Q 1159 2438 1159 1844 
L 1159 0 
L 581 0 
L 581 3500 
L 1159 3500 
L 1159 2956 
Q 1341 3275 1631 3429 
Q 1922 3584 2338 3584 
Q 2397 3584 2469 3576 
Q 2541 3569 2628 3553 
L 2631 2963 
z
" transform="scale(0.015625)"/>
      <path id="DejaVuSans-53" d="M 3425 4513 
L 3425 3897 
Q 3066 4069 2747 4153 
Q 2428 4238 2131 4238 
Q 1616 4238 1336 4038 
Q 1056 3838 1056 3469 
Q 1056 3159 1242 3001 
Q 1428 2844 1947 2747 
L 2328 2669 
Q 3034 2534 3370 2195 
Q 3706 1856 3706 1288 
Q 3706 609 3251 259 
Q 2797 -91 1919 -91 
Q 1588 -91 1214 -16 
Q 841 59 441 206 
L 441 856 
Q 825 641 1194 531 
Q 1563 422 1919 422 
Q 2459 422 2753 634 
Q 3047 847 3047 1241 
Q 3047 1584 2836 1778 
Q 2625 1972 2144 2069 
L 1759 2144 
Q 1053 2284 737 2584 
Q 422 2884 422 3419 
Q 422 4038 858 4394 
Q 1294 4750 2059 4750 
Q 2388 4750 2728 4690 
Q 3069 4631 3425 4513 
z
" transform="scale(0.015625)"/>
      <path id="DejaVuSans-71" d="M 947 1747 
Q 947 1113 1208 752 
Q 1469 391 1925 391 
Q 2381 391 2643 752 
Q 2906 1113 2906 1747 
Q 2906 2381 2643 2742 
Q 2381 3103 1925 3103 
Q 1469 3103 1208 2742 
Q 947 2381 947 1747 
z
M 2906 525 
Q 2725 213 2448 61 
Q 2172 -91 1784 -91 
Q 1150 -91 751 415 
Q 353 922 353 1747 
Q 353 2572 751 3078 
Q 1150 3584 1784 3584 
Q 2172 3584 2448 3432 
Q 2725 3281 2906 2969 
L 2906 3500 
L 3481 3500 
L 3481 -1331 
L 2906 -1331 
L 2906 525 
z
" transform="scale(0.015625)"/>
      <path id="DejaVuSans-63" d="M 3122 3366 
L 3122 2828 
Q 2878 2963 2633 3030 
Q 2388 3097 2138 3097 
Q 1578 3097 1268 2742 
Q 959 2388 959 1747 
Q 959 1106 1268 751 
Q 1578 397 2138 397 
Q 2388 397 2633 464 
Q 2878 531 3122 666 
L 3122 134 
Q 2881 22 2623 -34 
Q 2366 -91 2075 -91 
Q 1284 -91 818 406 
Q 353 903 353 1747 
Q 353 2603 823 3093 
Q 1294 3584 2113 3584 
Q 2378 3584 2631 3529 
Q 2884 3475 3122 3366 
z
" transform="scale(0.015625)"/>
     </defs>
     <use xlink:href="#DejaVuSans-46"/>
     <use xlink:href="#DejaVuSans-61" x="48.394531"/>
     <use xlink:href="#DejaVuSans-73" x="109.673828"/>
     <use xlink:href="#DejaVuSans-74" x="161.773438"/>
     <use xlink:href="#DejaVuSans-51" x="200.982422"/>
     <use xlink:href="#DejaVuSans-43" x="279.693359"/>
     <use xlink:href="#DejaVuSans-3a" x="349.517578"/>
     <use xlink:href="#DejaVuSans-20" x="383.208984"/>
     <use xlink:href="#DejaVuSans-50" x="414.996094"/>
     <use xlink:href="#DejaVuSans-65" x="471.673828"/>
     <use xlink:href="#DejaVuSans-72" x="533.197266"/>
     <use xlink:href="#DejaVuSans-20" x="574.310547"/>
     <use xlink:href="#DejaVuSans-53" x="606.097656"/>
     <use xlink:href="#DejaVuSans-65" x="669.574219"/>
     <use xlink:href="#DejaVuSans-71" x="731.097656"/>
     <use xlink:href="#DejaVuSans-75" x="794.574219"/>
     <use xlink:href="#DejaVuSans-65" x="857.953125"/>
     <use xlink:href="#DejaVuSans-6e" x="919.476562"/>
     <use xlink:href="#DejaVuSans-63" x="982.855469"/>
     <use xlink:href="#DejaVuSans-65" x="1037.835938"/>
     <use xlink:href="#DejaVuSans-20" x="1099.359375"/>
     <use xlink:href="#DejaVuSans-47" x="1131.146484"/>
     <use xlink:href="#DejaVuSans-43" x="1208.636719"/>
     <use xlink:href="#DejaVuSans-20" x="1278.460938"/>
     <use xlink:href="#DejaVuSans-43" x="1310.248047"/>
     <use xlink:href="#DejaVuSans-6f" x="1380.072266"/>
     <use xlink:href="#DejaVuSans-6e" x="1441.253906"/>
     <use xlink:href="#DejaVuSans-74" x="1504.632812"/>
     <use xlink:href="#DejaVuSans-65" x="1543.841797"/>
     <use xlink:href="#DejaVuSans-6e" x="1605.365234"/>
     <use xlink:href="#DejaVuSans-74" x="1668.744141"/>
    </g>
   </g>
  </g>
 </g>
 <defs>
  <clipPath id="pdb4c7f298e">
   <rect x="40.600625" y="35.2559" width="944.845" height="317.968"/>
  </clipPath>
 </defs>
</svg>
