<?xml version="1.0" encoding="utf-8" standalone="no"?>
<!DOCTYPE svg PUBLIC "-//W3C//DTD SVG 1.1//EN"
  "http://www.w3.org/Graphics/SVG/1.1/DTD/svg11.dtd">
<svg xmlns:xlink="http://www.w3.org/1999/xlink" width="1000.318125pt" height="388.844525pt" viewBox="0 0 1000.318125 388.844525" xmlns="http://www.w3.org/2000/svg" version="1.1">
 <metadata>
  <rdf:RDF xmlns:dc="http://purl.org/dc/elements/1.1/" xmlns:cc="http://creativecommons.org/ns#" xmlns:rdf="http://www.w3.org/1999/02/22-rdf-syntax-ns#">
   <cc:Work>
    <dc:type rdf:resource="http://purl.org/dc/dcmitype/StillImage"/>
    <dc:date>2025-04-01T05:20:41.061127</dc:date>
    <dc:format>image/svg+xml</dc:format>
    <dc:creator>
     <cc:Agent>
      <dc:title>Matplotlib v3.8.2, https://matplotlib.org/</dc:title>
     </cc:Agent>
    </dc:creator>
   </cc:Work>
  </rdf:RDF>
 </metadata>
 <defs>
  <style type="text/css">*{stroke-linejoin: round; stroke-linecap: butt}</style>
 </defs>
 <g id="figure_1">
  <g id="axes_1">
   <g id="patch_1">
    <path d="M 38.058125 353.2239 
L 993.118125 353.2239 
L 993.118125 35.2559 
L 38.058125 35.2559 
z
" style="fill: #ffffff"/>
   </g>
   <g id="patch_2">
    <path d="M 38.058125 128.535693 
L 958.476371 128.535693 
L 958.476371 -449.233981 
L 38.058125 -449.233981 
z
" clip-path="url(#p883fc00996)" style="fill: #c3e6c3"/>
   </g>
   <g id="patch_3">
    <path d="M 38.058125 192.732324 
L 958.476371 192.732324 
L 958.476371 128.535693 
L 38.058125 128.535693 
z
" clip-path="url(#p883fc00996)" style="fill: #e6dcc3"/>
   </g>
   <g id="patch_4">
    <path d="M 38.058125 353.2239 
L 958.476371 353.2239 
L 958.476371 192.732324 
L 38.058125 192.732324 
z
" clip-path="url(#p883fc00996)" style="fill: #e6c3c3"/>
   </g>
   <g id="matplotlib.axis_1">
    <g id="xtick_1">
     <g id="text_1">
      <!-- 0 -->
      <g transform="translate(70.154879 366.30265) scale(0.08 -0.08)">
       <defs>
        <path id="DejaVuSans-30" d="M 2034 4250 
Q 1547 4250 1301 3770 
Q 1056 3291 1056 2328 
Q 1056 1369 1301 889 
Q 1547 409 2034 409 
Q 2525 409 2770 889 
Q 3016 1369 3016 2328 
Q 3016 3291 2770 3770 
Q 2525 4250 2034 4250 
z
M 2034 4750 
Q 2819 4750 3233 4129 
Q 3647 3509 3647 2328 
Q 3647 1150 3233 529 
Q 2819 -91 2034 -91 
Q 1250 -91 836 529 
Q 422 1150 422 2328 
Q 422 3509 836 4129 
Q 1250 4750 2034 4750 
z
" transform="scale(0.015625)"/>
       </defs>
       <use xlink:href="#DejaVuSans-30"/>
      </g>
     </g>
    </g>
    <g id="xtick_2">
     <g id="text_2">
      <!-- 20 -->
      <g transform="translate(243.011164 366.30265) scale(0.08 -0.08)">
       <defs>
        <path id="DejaVuSans-32" d="M 1228 531 
L 3431 531 
L 3431 0 
L 469 0 
L 469 531 
Q 828 903 1448 1529 
Q 2069 2156 2228 2338 
Q 2531 2678 2651 2914 
Q 2772 3150 2772 3378 
Q 2772 3750 2511 3984 
Q 2250 4219 1831 4219 
Q 1534 4219 1204 4116 
Q 875 4013 500 3803 
L 500 4441 
Q 881 4594 1212 4672 
Q 1544 4750 1819 4750 
Q 2544 4750 2975 4387 
Q 3406 4025 3406 3419 
Q 3406 3131 3298 2873 
Q 3191 2616 2906 2266 
Q 2828 2175 2409 1742 
Q 1991 1309 1228 531 
z
" transform="scale(0.015625)"/>
       </defs>
       <use xlink:href="#DejaVuSans-32"/>
       <use xlink:href="#DejaVuSans-30" x="63.623047"/>
      </g>
     </g>
    </g>
    <g id="xtick_3">
     <g id="text_3">
      <!-- 40 -->
      <g transform="translate(418.41245 366.30265) scale(0.08 -0.08)">
       <defs>
        <path id="DejaVuSans-34" d="M 2419 4116 
L 825 1625 
L 2419 1625 
L 2419 4116 
z
M 2253 4666 
L 3047 4666 
L 3047 1625 
L 3713 1625 
L 3713 1100 
L 3047 1100 
L 3047 0 
L 2419 0 
L 2419 1100 
L 313 1100 
L 313 1709 
L 2253 4666 
z
" transform="scale(0.015625)"/>
       </defs>
       <use xlink:href="#DejaVuSans-34"/>
       <use xlink:href="#DejaVuSans-30" x="63.623047"/>
      </g>
     </g>
    </g>
    <g id="xtick_4">
     <g id="text_4">
      <!-- 60 -->
      <g transform="translate(593.813736 366.30265) scale(0.08 -0.08)">
       <defs>
        <path id="DejaVuSans-36" d="M 2113 2584 
Q 1688 2584 1439 2293 
Q 1191 2003 1191 1497 
Q 1191 994 1439 701 
Q 1688 409 2113 409 
Q 2538 409 2786 701 
Q 3034 994 3034 1497 
Q 3034 2003 2786 2293 
Q 2538 2584 2113 2584 
z
M 3366 4563 
L 3366 3988 
Q 3128 4100 2886 4159 
Q 2644 4219 2406 4219 
Q 1781 4219 1451 3797 
Q 1122 3375 1075 2522 
Q 1259 2794 1537 2939 
Q 1816 3084 2150 3084 
Q 2853 3084 3261 2657 
Q 3669 2231 3669 1497 
Q 3669 778 3244 343 
Q 2819 -91 2113 -91 
Q 1303 -91 875 529 
Q 447 1150 447 2328 
Q 447 3434 972 4092 
Q 1497 4750 2381 4750 
Q 2619 4750 2861 4703 
Q 3103 4656 3366 4563 
z
" transform="scale(0.015625)"/>
       </defs>
       <use xlink:href="#DejaVuSans-36"/>
       <use xlink:href="#DejaVuSans-30" x="63.623047"/>
      </g>
     </g>
    </g>
    <g id="xtick_5">
     <g id="text_5">
      <!-- 80 -->
      <g transform="translate(769.215021 366.30265) scale(0.08 -0.08)">
       <defs>
        <path id="DejaVuSans-38" d="M 2034 2216 
Q 1584 2216 1326 1975 
Q 1069 1734 1069 1313 
Q 1069 891 1326 650 
Q 1584 409 2034 409 
Q 2484 409 2743 651 
Q 3003 894 3003 1313 
Q 3003 1734 2745 1975 
Q 2488 2216 2034 2216 
z
M 1403 2484 
Q 997 2584 770 2862 
Q 544 3141 544 3541 
Q 544 4100 942 4425 
Q 1341 4750 2034 4750 
Q 2731 4750 3128 4425 
Q 3525 4100 3525 3541 
Q 3525 3141 3298 2862 
Q 3072 2584 2669 2484 
Q 3125 2378 3379 2068 
Q 3634 1759 3634 1313 
Q 3634 634 3220 271 
Q 2806 -91 2034 -91 
Q 1263 -91 848 271 
Q 434 634 434 1313 
Q 434 1759 690 2068 
Q 947 2378 1403 2484 
z
M 1172 3481 
Q 1172 3119 1398 2916 
Q 1625 2713 2034 2713 
Q 2441 2713 2670 2916 
Q 2900 3119 2900 3481 
Q 2900 3844 2670 4047 
Q 2441 4250 2034 4250 
Q 1625 4250 1398 4047 
Q 1172 3844 1172 3481 
z
" transform="scale(0.015625)"/>
       </defs>
       <use xlink:href="#DejaVuSans-38"/>
       <use xlink:href="#DejaVuSans-30" x="63.623047"/>
      </g>
     </g>
    </g>
    <g id="xtick_6">
     <g id="text_6">
      <!-- 100 -->
      <g transform="translate(942.071307 366.30265) scale(0.08 -0.08)">
       <defs>
        <path id="DejaVuSans-31" d="M 794 531 
L 1825 531 
L 1825 4091 
L 703 3866 
L 703 4441 
L 1819 4666 
L 2450 4666 
L 2450 531 
L 3481 531 
L 3481 0 
L 794 0 
L 794 531 
z
" transform="scale(0.015625)"/>
       </defs>
       <use xlink:href="#DejaVuSans-31"/>
       <use xlink:href="#DejaVuSans-30" x="63.623047"/>
       <use xlink:href="#DejaVuSans-30" x="127.246094"/>
      </g>
     </g>
    </g>
    <g id="text_7">
     <!-- Position (bp) -->
     <g transform="translate(484.285 379.564837) scale(0.1 -0.1)">
      <defs>
       <path id="DejaVuSans-50" d="M 1259 4147 
L 1259 2394 
L 2053 2394 
Q 2494 2394 2734 2622 
Q 2975 2850 2975 3272 
Q 2975 3691 2734 3919 
Q 2494 4147 2053 4147 
L 1259 4147 
z
M 628 4666 
L 2053 4666 
Q 2838 4666 3239 4311 
Q 3641 3956 3641 3272 
Q 3641 2581 3239 2228 
Q 2838 1875 2053 1875 
L 1259 1875 
L 1259 0 
L 628 0 
L 628 4666 
z
" transform="scale(0.015625)"/>
       <path id="DejaVuSans-6f" d="M 1959 3097 
Q 1497 3097 1228 2736 
Q 959 2375 959 1747 
Q 959 1119 1226 758 
Q 1494 397 1959 397 
Q 2419 397 2687 759 
Q 2956 1122 2956 1747 
Q 2956 2369 2687 2733 
Q 2419 3097 1959 3097 
z
M 1959 3584 
Q 2709 3584 3137 3096 
Q 3566 2609 3566 1747 
Q 3566 888 3137 398 
Q 2709 -91 1959 -91 
Q 1206 -91 779 398 
Q 353 888 353 1747 
Q 353 2609 779 3096 
Q 1206 3584 1959 3584 
z
" transform="scale(0.015625)"/>
       <path id="DejaVuSans-73" d="M 2834 3397 
L 2834 2853 
Q 2591 2978 2328 3040 
Q 2066 3103 1784 3103 
Q 1356 3103 1142 2972 
Q 928 2841 928 2578 
Q 928 2378 1081 2264 
Q 1234 2150 1697 2047 
L 1894 2003 
Q 2506 1872 2764 1633 
Q 3022 1394 3022 966 
Q 3022 478 2636 193 
Q 2250 -91 1575 -91 
Q 1294 -91 989 -36 
Q 684 19 347 128 
L 347 722 
Q 666 556 975 473 
Q 1284 391 1588 391 
Q 1994 391 2212 530 
Q 2431 669 2431 922 
Q 2431 1156 2273 1281 
Q 2116 1406 1581 1522 
L 1381 1569 
Q 847 1681 609 1914 
Q 372 2147 372 2553 
Q 372 3047 722 3315 
Q 1072 3584 1716 3584 
Q 2034 3584 2315 3537 
Q 2597 3491 2834 3397 
z
" transform="scale(0.015625)"/>
       <path id="DejaVuSans-69" d="M 603 3500 
L 1178 3500 
L 1178 0 
L 603 0 
L 603 3500 
z
M 603 4863 
L 1178 4863 
L 1178 4134 
L 603 4134 
L 603 4863 
z
" transform="scale(0.015625)"/>
       <path id="DejaVuSans-74" d="M 1172 4494 
L 1172 3500 
L 2356 3500 
L 2356 3053 
L 1172 3053 
L 1172 1153 
Q 1172 725 1289 603 
Q 1406 481 1766 481 
L 2356 481 
L 2356 0 
L 1766 0 
Q 1100 0 847 248 
Q 594 497 594 1153 
L 594 3053 
L 172 3053 
L 172 3500 
L 594 3500 
L 594 4494 
L 1172 4494 
z
" transform="scale(0.015625)"/>
       <path id="DejaVuSans-6e" d="M 3513 2113 
L 3513 0 
L 2938 0 
L 2938 2094 
Q 2938 2591 2744 2837 
Q 2550 3084 2163 3084 
Q 1697 3084 1428 2787 
Q 1159 2491 1159 1978 
L 1159 0 
L 581 0 
L 581 3500 
L 1159 3500 
L 1159 2956 
Q 1366 3272 1645 3428 
Q 1925 3584 2291 3584 
Q 2894 3584 3203 3211 
Q 3513 2838 3513 2113 
z
" transform="scale(0.015625)"/>
       <path id="DejaVuSans-20" transform="scale(0.015625)"/>
       <path id="DejaVuSans-28" d="M 1984 4856 
Q 1566 4138 1362 3434 
Q 1159 2731 1159 2009 
Q 1159 1288 1364 580 
Q 1569 -128 1984 -844 
L 1484 -844 
Q 1016 -109 783 600 
Q 550 1309 550 2009 
Q 550 2706 781 3412 
Q 1013 4119 1484 4856 
L 1984 4856 
z
" transform="scale(0.015625)"/>
       <path id="DejaVuSans-62" d="M 3116 1747 
Q 3116 2381 2855 2742 
Q 2594 3103 2138 3103 
Q 1681 3103 1420 2742 
Q 1159 2381 1159 1747 
Q 1159 1113 1420 752 
Q 1681 391 2138 391 
Q 2594 391 2855 752 
Q 3116 1113 3116 1747 
z
M 1159 2969 
Q 1341 3281 1617 3432 
Q 1894 3584 2278 3584 
Q 2916 3584 3314 3078 
Q 3713 2572 3713 1747 
Q 3713 922 3314 415 
Q 2916 -91 2278 -91 
Q 1894 -91 1617 61 
Q 1341 213 1159 525 
L 1159 0 
L 581 0 
L 581 4863 
L 1159 4863 
L 1159 2969 
z
" transform="scale(0.015625)"/>
       <path id="DejaVuSans-70" d="M 1159 525 
L 1159 -1331 
L 581 -1331 
L 581 3500 
L 1159 3500 
L 1159 2969 
Q 1341 3281 1617 3432 
Q 1894 3584 2278 3584 
Q 2916 3584 3314 3078 
Q 3713 2572 3713 1747 
Q 3713 922 3314 415 
Q 2916 -91 2278 -91 
Q 1894 -91 1617 61 
Q 1341 213 1159 525 
z
M 3116 1747 
Q 3116 2381 2855 2742 
Q 2594 3103 2138 3103 
Q 1681 3103 1420 2742 
Q 1159 2381 1159 1747 
Q 1159 1113 1420 752 
Q 1681 391 2138 391 
Q 2594 391 2855 752 
Q 3116 1113 3116 1747 
z
" transform="scale(0.015625)"/>
       <path id="DejaVuSans-29" d="M 513 4856 
L 1013 4856 
Q 1481 4119 1714 3412 
Q 1947 2706 1947 2009 
Q 1947 1309 1714 600 
Q 1481 -109 1013 -844 
L 513 -844 
Q 928 -128 1133 580 
Q 1338 1288 1338 2009 
Q 1338 2731 1133 3434 
Q 928 4138 513 4856 
z
" transform="scale(0.015625)"/>
      </defs>
      <use xlink:href="#DejaVuSans-50"/>
      <use xlink:href="#DejaVuSans-6f" x="56.677734"/>
      <use xlink:href="#DejaVuSans-73" x="117.859375"/>
      <use xlink:href="#DejaVuSans-69" x="169.958984"/>
      <use xlink:href="#DejaVuSans-74" x="197.742188"/>
      <use xlink:href="#DejaVuSans-69" x="236.951172"/>
      <use xlink:href="#DejaVuSans-6f" x="264.734375"/>
      <use xlink:href="#DejaVuSans-6e" x="325.916016"/>
      <use xlink:href="#DejaVuSans-20" x="389.294922"/>
      <use xlink:href="#DejaVuSans-28" x="421.082031"/>
      <use xlink:href="#DejaVuSans-62" x="460.095703"/>
      <use xlink:href="#DejaVuSans-70" x="523.572266"/>
      <use xlink:href="#DejaVuSans-29" x="587.048828"/>
     </g>
    </g>
   </g>
   <g id="matplotlib.axis_2">
    <g id="ytick_1">
     <g id="line2d_1">
      <path d="M 38.058125 353.2239 
L 993.118125 353.2239 
" clip-path="url(#p883fc00996)" style="fill: none; stroke: #dedede; stroke-linecap: square"/>
     </g>
     <g id="text_8">
      <!-- 0 -->
      <g transform="translate(25.968125 356.263275) scale(0.08 -0.08)">
       <use xlink:href="#DejaVuSans-30"/>
      </g>
     </g>
    </g>
    <g id="ytick_2">
     <g id="line2d_2">
      <path d="M 38.058125 313.101006 
L 993.118125 313.101006 
" clip-path="url(#p883fc00996)" style="fill: none; stroke: #dedede; stroke-linecap: square"/>
     </g>
     <g id="text_9">
      <!-- 5 -->
      <g transform="translate(25.968125 316.140381) scale(0.08 -0.08)">
       <defs>
        <path id="DejaVuSans-35" d="M 691 4666 
L 3169 4666 
L 3169 4134 
L 1269 4134 
L 1269 2991 
Q 1406 3038 1543 3061 
Q 1681 3084 1819 3084 
Q 2600 3084 3056 2656 
Q 3513 2228 3513 1497 
Q 3513 744 3044 326 
Q 2575 -91 1722 -91 
Q 1428 -91 1123 -41 
Q 819 9 494 109 
L 494 744 
Q 775 591 1075 516 
Q 1375 441 1709 441 
Q 2250 441 2565 725 
Q 2881 1009 2881 1497 
Q 2881 1984 2565 2268 
Q 2250 2553 1709 2553 
Q 1456 2553 1204 2497 
Q 953 2441 691 2322 
L 691 4666 
z
" transform="scale(0.015625)"/>
       </defs>
       <use xlink:href="#DejaVuSans-35"/>
      </g>
     </g>
    </g>
    <g id="ytick_3">
     <g id="line2d_3">
      <path d="M 38.058125 272.978112 
L 993.118125 272.978112 
" clip-path="url(#p883fc00996)" style="fill: none; stroke: #dedede; stroke-linecap: square"/>
     </g>
     <g id="text_10">
      <!-- 10 -->
      <g transform="translate(20.878125 276.017487) scale(0.08 -0.08)">
       <use xlink:href="#DejaVuSans-31"/>
       <use xlink:href="#DejaVuSans-30" x="63.623047"/>
      </g>
     </g>
    </g>
    <g id="ytick_4">
     <g id="line2d_4">
      <path d="M 38.058125 232.855218 
L 993.118125 232.855218 
" clip-path="url(#p883fc00996)" style="fill: none; stroke: #dedede; stroke-linecap: square"/>
     </g>
     <g id="text_11">
      <!-- 15 -->
      <g transform="translate(20.878125 235.894593) scale(0.08 -0.08)">
       <use xlink:href="#DejaVuSans-31"/>
       <use xlink:href="#DejaVuSans-35" x="63.623047"/>
      </g>
     </g>
    </g>
    <g id="ytick_5">
     <g id="line2d_5">
      <path d="M 38.058125 192.732324 
L 993.118125 192.732324 
" clip-path="url(#p883fc00996)" style="fill: none; stroke: #dedede; stroke-linecap: square"/>
     </g>
     <g id="text_12">
      <!-- 20 -->
      <g transform="translate(20.878125 195.771699) scale(0.08 -0.08)">
       <use xlink:href="#DejaVuSans-32"/>
       <use xlink:href="#DejaVuSans-30" x="63.623047"/>
      </g>
     </g>
    </g>
    <g id="ytick_6">
     <g id="line2d_6">
      <path d="M 38.058125 152.60943 
L 993.118125 152.60943 
" clip-path="url(#p883fc00996)" style="fill: none; stroke: #dedede; stroke-linecap: square"/>
     </g>
     <g id="text_13">
      <!-- 25 -->
      <g transform="translate(20.878125 155.648805) scale(0.08 -0.08)">
       <use xlink:href="#DejaVuSans-32"/>
       <use xlink:href="#DejaVuSans-35" x="63.623047"/>
      </g>
     </g>
    </g>
    <g id="ytick_7">
     <g id="line2d_7">
      <path d="M 38.058125 112.486536 
L 993.118125 112.486536 
" clip-path="url(#p883fc00996)" style="fill: none; stroke: #dedede; stroke-linecap: square"/>
     </g>
     <g id="text_14">
      <!-- 30 -->
      <g transform="translate(20.878125 115.525911) scale(0.08 -0.08)">
       <defs>
        <path id="DejaVuSans-33" d="M 2597 2516 
Q 3050 2419 3304 2112 
Q 3559 1806 3559 1356 
Q 3559 666 3084 287 
Q 2609 -91 1734 -91 
Q 1441 -91 1130 -33 
Q 819 25 488 141 
L 488 750 
Q 750 597 1062 519 
Q 1375 441 1716 441 
Q 2309 441 2620 675 
Q 2931 909 2931 1356 
Q 2931 1769 2642 2001 
Q 2353 2234 1838 2234 
L 1294 2234 
L 1294 2753 
L 1863 2753 
Q 2328 2753 2575 2939 
Q 2822 3125 2822 3475 
Q 2822 3834 2567 4026 
Q 2313 4219 1838 4219 
Q 1578 4219 1281 4162 
Q 984 4106 628 3988 
L 628 4550 
Q 988 4650 1302 4700 
Q 1616 4750 1894 4750 
Q 2613 4750 3031 4423 
Q 3450 4097 3450 3541 
Q 3450 3153 3228 2886 
Q 3006 2619 2597 2516 
z
" transform="scale(0.015625)"/>
       </defs>
       <use xlink:href="#DejaVuSans-33"/>
       <use xlink:href="#DejaVuSans-30" x="63.623047"/>
      </g>
     </g>
    </g>
    <g id="ytick_8">
     <g id="line2d_8">
      <path d="M 38.058125 72.363642 
L 993.118125 72.363642 
" clip-path="url(#p883fc00996)" style="fill: none; stroke: #dedede; stroke-linecap: square"/>
     </g>
     <g id="text_15">
      <!-- 35 -->
      <g transform="translate(20.878125 75.403017) scale(0.08 -0.08)">
       <use xlink:href="#DejaVuSans-33"/>
       <use xlink:href="#DejaVuSans-35" x="63.623047"/>
      </g>
     </g>
    </g>
    <g id="text_16">
     <!-- Phred Score -->
     <g transform="translate(14.798438 224.20865) rotate(-90) scale(0.1 -0.1)">
      <defs>
       <path id="DejaVuSans-68" d="M 3513 2113 
L 3513 0 
L 2938 0 
L 2938 2094 
Q 2938 2591 2744 2837 
Q 2550 3084 2163 3084 
Q 1697 3084 1428 2787 
Q 1159 2491 1159 1978 
L 1159 0 
L 581 0 
L 581 4863 
L 1159 4863 
L 1159 2956 
Q 1366 3272 1645 3428 
Q 1925 3584 2291 3584 
Q 2894 3584 3203 3211 
Q 3513 2838 3513 2113 
z
" transform="scale(0.015625)"/>
       <path id="DejaVuSans-72" d="M 2631 2963 
Q 2534 3019 2420 3045 
Q 2306 3072 2169 3072 
Q 1681 3072 1420 2755 
Q 1159 2438 1159 1844 
L 1159 0 
L 581 0 
L 581 3500 
L 1159 3500 
L 1159 2956 
Q 1341 3275 1631 3429 
Q 1922 3584 2338 3584 
Q 2397 3584 2469 3576 
Q 2541 3569 2628 3553 
L 2631 2963 
z
" transform="scale(0.015625)"/>
       <path id="DejaVuSans-65" d="M 3597 1894 
L 3597 1613 
L 953 1613 
Q 991 1019 1311 708 
Q 1631 397 2203 397 
Q 2534 397 2845 478 
Q 3156 559 3463 722 
L 3463 178 
Q 3153 47 2828 -22 
Q 2503 -91 2169 -91 
Q 1331 -91 842 396 
Q 353 884 353 1716 
Q 353 2575 817 3079 
Q 1281 3584 2069 3584 
Q 2775 3584 3186 3129 
Q 3597 2675 3597 1894 
z
M 3022 2063 
Q 3016 2534 2758 2815 
Q 2500 3097 2075 3097 
Q 1594 3097 1305 2825 
Q 1016 2553 972 2059 
L 3022 2063 
z
" transform="scale(0.015625)"/>
       <path id="DejaVuSans-64" d="M 2906 2969 
L 2906 4863 
L 3481 4863 
L 3481 0 
L 2906 0 
L 2906 525 
Q 2725 213 2448 61 
Q 2172 -91 1784 -91 
Q 1150 -91 751 415 
Q 353 922 353 1747 
Q 353 2572 751 3078 
Q 1150 3584 1784 3584 
Q 2172 3584 2448 3432 
Q 2725 3281 2906 2969 
z
M 947 1747 
Q 947 1113 1208 752 
Q 1469 391 1925 391 
Q 2381 391 2643 752 
Q 2906 1113 2906 1747 
Q 2906 2381 2643 2742 
Q 2381 3103 1925 3103 
Q 1469 3103 1208 2742 
Q 947 2381 947 1747 
z
" transform="scale(0.015625)"/>
       <path id="DejaVuSans-53" d="M 3425 4513 
L 3425 3897 
Q 3066 4069 2747 4153 
Q 2428 4238 2131 4238 
Q 1616 4238 1336 4038 
Q 1056 3838 1056 3469 
Q 1056 3159 1242 3001 
Q 1428 2844 1947 2747 
L 2328 2669 
Q 3034 2534 3370 2195 
Q 3706 1856 3706 1288 
Q 3706 609 3251 259 
Q 2797 -91 1919 -91 
Q 1588 -91 1214 -16 
Q 841 59 441 206 
L 441 856 
Q 825 641 1194 531 
Q 1563 422 1919 422 
Q 2459 422 2753 634 
Q 3047 847 3047 1241 
Q 3047 1584 2836 1778 
Q 2625 1972 2144 2069 
L 1759 2144 
Q 1053 2284 737 2584 
Q 422 2884 422 3419 
Q 422 4038 858 4394 
Q 1294 4750 2059 4750 
Q 2388 4750 2728 4690 
Q 3069 4631 3425 4513 
z
" transform="scale(0.015625)"/>
       <path id="DejaVuSans-63" d="M 3122 3366 
L 3122 2828 
Q 2878 2963 2633 3030 
Q 2388 3097 2138 3097 
Q 1578 3097 1268 2742 
Q 959 2388 959 1747 
Q 959 1106 1268 751 
Q 1578 397 2138 397 
Q 2388 397 2633 464 
Q 2878 531 3122 666 
L 3122 134 
Q 2881 22 2623 -34 
Q 2366 -91 2075 -91 
Q 1284 -91 818 406 
Q 353 903 353 1747 
Q 353 2603 823 3093 
Q 1294 3584 2113 3584 
Q 2378 3584 2631 3529 
Q 2884 3475 3122 3366 
z
" transform="scale(0.015625)"/>
      </defs>
      <use xlink:href="#DejaVuSans-50"/>
      <use xlink:href="#DejaVuSans-68" x="60.302734"/>
      <use xlink:href="#DejaVuSans-72" x="123.681641"/>
      <use xlink:href="#DejaVuSans-65" x="162.544922"/>
      <use xlink:href="#DejaVuSans-64" x="224.068359"/>
      <use xlink:href="#DejaVuSans-20" x="287.544922"/>
      <use xlink:href="#DejaVuSans-53" x="319.332031"/>
      <use xlink:href="#DejaVuSans-63" x="382.808594"/>
      <use xlink:href="#DejaVuSans-6f" x="437.789062"/>
      <use xlink:href="#DejaVuSans-72" x="498.970703"/>
      <use xlink:href="#DejaVuSans-65" x="537.833984"/>
     </g>
    </g>
   </g>
   <g id="line2d_9">
    <path d="M 81.469943 63.787586 
L 90.240007 64.08598 
L 99.010072 61.467625 
L 107.780136 60.887461 
L 116.5502 60.791956 
L 125.320265 60.688519 
L 134.090329 61.732364 
L 142.860393 60.787035 
L 151.630457 60.768006 
L 160.400522 60.923442 
L 169.170586 60.326118 
L 177.94065 60.78476 
L 186.710715 61.062769 
L 195.480779 60.993646 
L 204.250843 60.881698 
L 213.020907 60.760208 
L 221.790972 60.788967 
L 230.561036 60.922597 
L 239.3311 60.934904 
L 248.101164 61.184062 
L 256.871229 61.056154 
L 265.641293 61.438126 
L 274.411357 61.484919 
L 283.181422 61.572554 
L 291.951486 61.643714 
L 300.72155 61.910838 
L 309.491614 61.901229 
L 318.261679 62.011802 
L 327.031743 61.924583 
L 335.801807 62.105262 
L 344.571872 62.251508 
L 353.341936 62.402319 
L 362.112 62.428388 
L 370.882064 62.64087 
L 379.652129 62.438851 
L 388.422193 62.436576 
L 397.192257 62.693215 
L 405.962322 62.688702 
L 414.732386 62.650219 
L 423.50245 62.820532 
L 432.272514 62.85473 
L 441.042579 63.261459 
L 449.812643 63.582047 
L 458.582707 63.26935 
L 467.352771 64.316556 
L 476.122836 63.549957 
L 484.8929 63.493853 
L 493.662964 64.185612 
L 502.433029 64.482943 
L 511.203093 64.54576 
L 519.973157 65.076495 
" clip-path="url(#p883fc00996)" style="fill: none; stroke: #5cb85c; stroke-linecap: square"/>
   </g>
   <g id="line2d_10">
    <path d="M 81.469943 62.960661 
L 90.240007 62.186524 
L 99.010072 62.245591 
L 107.780136 61.847069 
L 116.5502 61.941516 
L 125.320265 62.443137 
L 134.090329 62.993772 
L 142.860393 62.180914 
L 151.630457 62.340296 
L 160.400522 62.541669 
L 169.170586 62.357738 
L 177.94065 62.619803 
L 186.710715 63.060615 
L 195.480779 62.860184 
L 204.250843 63.059937 
L 213.020907 63.293047 
L 221.790972 63.370222 
L 230.561036 63.372296 
L 239.3311 63.618943 
L 248.101164 63.537696 
L 256.871229 63.597158 
L 265.641293 63.555058 
L 274.411357 63.571455 
L 283.181422 63.923651 
L 291.951486 64.232209 
L 300.72155 64.500138 
L 309.491614 64.552533 
L 318.261679 64.640738 
L 327.031743 64.876297 
L 335.801807 64.71487 
L 344.571872 64.867257 
L 353.341936 64.651438 
L 362.112 65.096461 
L 370.882064 65.227084 
L 379.652129 65.389929 
L 388.422193 65.239795 
L 397.192257 65.592196 
L 405.962322 65.524027 
L 414.732386 66.092783 
L 423.50245 65.717449 
L 432.272514 65.629003 
L 441.042579 65.646635 
L 449.812643 65.684019 
L 458.582707 65.827848 
L 467.352771 66.223158 
L 476.122836 66.136282 
L 484.8929 66.554722 
L 493.662964 66.574662 
L 502.433029 66.742557 
L 511.203093 67.364572 
L 519.973157 69.736831 
" clip-path="url(#p883fc00996)" style="fill: none; stroke: #5cb85c; stroke-linecap: square"/>
   </g>
   <g id="line2d_11">
    <path d="M 81.469943 62.360903 
L 90.240007 62.918173 
L 99.010072 60.916976 
L 107.780136 60.445119 
L 116.5502 60.431967 
L 125.320265 60.340941 
L 134.090329 61.207434 
L 142.860393 60.404046 
L 151.630457 60.368145 
L 160.400522 60.502074 
L 169.170586 59.991146 
L 177.94065 60.424575 
L 186.710715 60.641083 
L 195.480779 60.600641 
L 204.250843 60.506434 
L 213.020907 60.387686 
L 221.790972 60.453128 
L 230.561036 60.576867 
L 239.3311 60.528657 
L 248.101164 60.789964 
L 256.871229 60.626067 
L 265.641293 60.93682 
L 274.411357 60.950467 
L 283.181422 61.049026 
L 291.951486 61.161571 
L 300.72155 61.349772 
L 309.491614 61.303816 
L 318.261679 61.415989 
L 327.031743 61.341793 
L 335.801807 61.495583 
L 344.571872 61.552605 
L 353.341936 61.654624 
L 362.112 61.695197 
L 370.882064 61.914204 
L 379.652129 61.727928 
L 388.422193 61.680806 
L 397.192257 61.924301 
L 405.962322 61.937032 
L 414.732386 62.639266 
L 423.50245 62.047652 
L 432.272514 62.425884 
L 441.042579 62.426035 
L 449.812643 62.605042 
L 458.582707 62.57027 
L 467.352771 65.375313 
L 476.122836 63.26466 
L 484.8929 62.409842 
L 493.662964 63.275203 
L 502.433029 63.210578 
L 511.203093 63.099882 
L 519.973157 63.715794 
" clip-path="url(#p883fc00996)" style="fill: none; stroke: #5cb85c; stroke-linecap: square"/>
   </g>
   <g id="line2d_12">
    <path d="M 81.469943 63.344321 
L 90.240007 63.464816 
L 99.010072 63.514653 
L 107.780136 63.106219 
L 116.5502 63.133418 
L 125.320265 63.632562 
L 134.090329 64.142536 
L 142.860393 63.634426 
L 151.630457 63.801607 
L 160.400522 64.130903 
L 169.170586 64.145225 
L 177.94065 64.506492 
L 186.710715 64.882329 
L 195.480779 64.812343 
L 204.250843 65.077709 
L 213.020907 65.250938 
L 221.790972 65.300883 
L 230.561036 65.283732 
L 239.3311 65.504933 
L 248.101164 65.675159 
L 256.871229 65.77552 
L 265.641293 65.684341 
L 274.411357 65.705241 
L 283.181422 66.23009 
L 291.951486 66.751658 
L 300.72155 67.159886 
L 309.491614 67.176191 
L 318.261679 67.444706 
L 327.031743 67.61994 
L 335.801807 67.579992 
L 344.571872 67.676686 
L 353.341936 67.749131 
L 362.112 68.29383 
L 370.882064 68.393632 
L 379.652129 68.667478 
L 388.422193 68.72053 
L 397.192257 69.131306 
L 405.962322 69.125519 
L 414.732386 69.655279 
L 423.50245 69.400044 
L 432.272514 69.291044 
L 441.042579 69.371185 
L 449.812643 69.419096 
L 458.582707 69.499761 
L 467.352771 69.809116 
L 476.122836 69.754584 
L 484.8929 70.127871 
L 493.662964 70.093202 
L 502.433029 70.39791 
L 511.203093 71.227388 
L 519.973157 74.754516 
" clip-path="url(#p883fc00996)" style="fill: none; stroke: #5cb85c; stroke-linecap: square"/>
   </g>
   <g id="line2d_13">
    <path d="M 81.469943 40.268112 
L 90.240007 45.160195 
L 99.010072 42.863124 
L 107.780136 41.793261 
L 116.5502 41.316829 
L 125.320265 39.87797 
L 134.090329 40.18815 
L 142.860393 38.714524 
L 151.630457 39.132404 
L 160.400522 39.011148 
L 177.94065 38.572452 
L 195.480779 38.375046 
L 213.020907 37.588781 
L 230.561036 37.46901 
L 248.101164 37.362456 
L 265.641293 37.332026 
L 283.181422 37.390954 
L 300.72155 37.695751 
L 318.261679 37.614473 
L 335.801807 37.776073 
L 353.341936 37.826665 
L 370.882064 37.93478 
L 388.422193 37.904139 
L 405.962322 38.004279 
L 423.50245 38.097066 
L 441.042579 38.157334 
L 458.582707 38.155551 
L 476.122836 38.242312 
L 493.662964 38.350587 
L 511.203093 38.499429 
L 528.743221 39.437789 
L 546.28335 38.604001 
L 563.823479 38.702733 
L 581.363607 38.699309 
L 598.903736 38.829536 
L 616.443864 38.895064 
L 633.983993 39.043293 
L 651.524121 39.1314 
L 669.06425 39.215578 
L 686.604378 39.312017 
L 704.144507 39.43583 
L 721.684636 39.488351 
L 739.224764 39.648136 
L 756.764893 39.676611 
L 774.305021 39.779734 
L 791.84515 40.037358 
L 809.385278 39.986755 
L 826.925407 40.115174 
L 844.465535 40.087381 
L 862.005664 40.291274 
L 879.545793 40.24854 
L 897.085921 40.324122 
L 914.62605 40.514539 
L 932.166178 40.624637 
L 949.706307 41.671361 
" clip-path="url(#p883fc00996)" style="fill: none; stroke: #5cb85c; stroke-linecap: square"/>
   </g>
   <g id="line2d_14">
    <path d="M 81.469943 43.695477 
L 90.240007 45.718253 
L 99.010072 43.561391 
L 107.780136 42.459481 
L 116.5502 40.621104 
L 125.320265 40.760766 
L 134.090329 41.108401 
L 142.860393 40.570296 
L 151.630457 40.227444 
L 160.400522 39.322229 
L 177.94065 39.435691 
L 195.480779 39.538543 
L 213.020907 38.417901 
L 230.561036 38.293937 
L 248.101164 38.252395 
L 265.641293 38.102729 
L 283.181422 38.26816 
L 300.72155 38.573093 
L 318.261679 38.541468 
L 335.801807 38.735081 
L 353.341936 38.886494 
L 370.882064 39.093985 
L 388.422193 39.076671 
L 405.962322 39.177904 
L 423.50245 39.330444 
L 441.042579 39.487548 
L 458.582707 39.559113 
L 476.122836 39.725051 
L 493.662964 39.935237 
L 511.203093 40.076138 
L 528.743221 41.000026 
L 546.28335 40.24523 
L 563.823479 40.391518 
L 581.363607 40.431307 
L 598.903736 40.658191 
L 616.443864 40.731767 
L 633.983993 40.952801 
L 651.524121 41.168975 
L 669.06425 41.195126 
L 686.604378 41.404618 
L 704.144507 41.487684 
L 721.684636 41.638209 
L 739.224764 41.913296 
L 756.764893 41.902123 
L 774.305021 42.088923 
L 791.84515 42.338791 
L 809.385278 42.471108 
L 826.925407 42.561193 
L 844.465535 42.555489 
L 862.005664 42.768816 
L 879.545793 42.765182 
L 897.085921 42.902293 
L 914.62605 43.24654 
L 932.166178 43.424591 
L 949.706307 44.695303 
" clip-path="url(#p883fc00996)" style="fill: none; stroke: #5cb85c; stroke-linecap: square"/>
   </g>
   <g id="line2d_15">
    <path d="M 81.469943 41.461027 
L 90.240007 44.94118 
L 99.010072 42.732339 
L 107.780136 40.854801 
L 116.5502 39.955304 
L 125.320265 39.282345 
L 134.090329 38.597737 
L 142.860393 38.939457 
L 151.630457 38.119566 
L 160.400522 38.791905 
L 177.94065 38.28969 
L 195.480779 38.042294 
L 213.020907 37.350497 
L 230.561036 37.282353 
L 248.101164 37.159212 
L 265.641293 37.136786 
L 283.181422 37.203167 
L 300.72155 37.46181 
L 318.261679 37.443827 
L 335.801807 37.5578 
L 353.341936 37.511307 
L 370.882064 37.635594 
L 388.422193 37.624879 
L 405.962322 37.682447 
L 423.50245 37.763396 
L 441.042579 37.78986 
L 458.582707 37.784182 
L 476.122836 37.860953 
L 493.662964 37.950708 
L 511.203093 38.091085 
L 528.743221 39.023092 
L 546.28335 38.178605 
L 563.823479 38.255811 
L 581.363607 38.22932 
L 598.903736 38.341673 
L 616.443864 38.40181 
L 633.983993 38.513624 
L 651.524121 38.574457 
L 669.06425 38.683401 
L 686.604378 38.750533 
L 704.144507 38.852543 
L 721.684636 38.880816 
L 739.224764 39.026831 
L 756.764893 39.059313 
L 774.305021 39.143433 
L 791.84515 39.392655 
L 809.385278 39.31745 
L 826.925407 39.444868 
L 844.465535 39.409774 
L 862.005664 39.577082 
L 879.545793 39.519889 
L 897.085921 39.574039 
L 914.62605 39.729702 
L 932.166178 39.838784 
L 949.706307 40.796203 
" clip-path="url(#p883fc00996)" style="fill: none; stroke: #5cb85c; stroke-linecap: square"/>
   </g>
   <g id="line2d_16">
    <path d="M 81.469943 41.00459 
L 90.240007 44.501598 
L 99.010072 41.747492 
L 107.780136 40.108065 
L 116.5502 40.555974 
L 125.320265 40.499531 
L 134.090329 39.425623 
L 142.860393 39.362167 
L 151.630457 39.026038 
L 160.400522 38.752712 
L 177.94065 38.514893 
L 195.480779 38.398428 
L 213.020907 37.596138 
L 230.561036 37.486721 
L 248.101164 37.390212 
L 265.641293 37.273383 
L 283.181422 37.309525 
L 300.72155 37.575026 
L 318.261679 37.531713 
L 335.801807 37.681841 
L 353.341936 37.685763 
L 370.882064 37.809005 
L 388.422193 37.783667 
L 405.962322 37.868047 
L 423.50245 37.954558 
L 441.042579 38.008886 
L 458.582707 38.00883 
L 476.122836 38.093895 
L 493.662964 38.197235 
L 511.203093 38.348352 
L 528.743221 39.274199 
L 546.28335 38.452696 
L 563.823479 38.536151 
L 581.363607 38.528593 
L 598.903736 38.64587 
L 616.443864 38.704515 
L 633.983993 38.830957 
L 651.524121 38.907052 
L 669.06425 39.011211 
L 686.604378 39.091458 
L 704.144507 39.207582 
L 721.684636 39.255899 
L 739.224764 39.404157 
L 756.764893 39.424116 
L 774.305021 39.508643 
L 791.84515 39.7269 
L 809.385278 39.688256 
L 826.925407 39.801138 
L 844.465535 39.764913 
L 862.005664 39.946136 
L 879.545793 39.923482 
L 897.085921 40.000221 
L 914.62605 40.187903 
L 932.166178 40.292935 
L 949.706307 41.292781 
" clip-path="url(#p883fc00996)" style="fill: none; stroke: #5cb85c; stroke-linecap: square"/>
   </g>
   <g id="line2d_17">
    <path d="M 81.469943 61.887343 
L 90.240007 62.638045 
L 99.010072 60.815719 
L 107.780136 60.441535 
L 116.5502 60.412229 
L 125.320265 60.366724 
L 134.090329 61.226007 
L 142.860393 60.36758 
L 151.630457 60.414256 
L 160.400522 60.402774 
L 169.170586 59.993269 
L 177.94065 60.431974 
L 186.710715 60.615188 
L 195.480779 60.628264 
L 204.250843 60.495796 
L 213.020907 60.364838 
L 221.790972 60.455484 
L 230.561036 60.507876 
L 239.3311 60.519088 
L 248.101164 60.723751 
L 256.871229 60.602115 
L 265.641293 60.9713 
L 274.411357 60.907935 
L 283.181422 61.009681 
L 291.951486 61.090733 
L 300.72155 61.299046 
L 309.491614 61.35749 
L 318.261679 61.300353 
L 327.031743 61.283353 
L 335.801807 61.427686 
L 344.571872 61.580753 
L 353.341936 61.661305 
L 362.112 61.662544 
L 370.882064 61.926403 
L 379.652129 61.718183 
L 388.422193 61.735693 
L 397.192257 61.956152 
L 405.962322 61.89587 
L 414.732386 61.856356 
L 423.50245 62.023002 
L 432.272514 62.026692 
L 441.042579 62.297337 
L 449.812643 62.568554 
L 458.582707 62.210663 
L 467.352771 63.021423 
L 476.122836 62.443452 
L 484.8929 62.446257 
L 493.662964 62.952511 
L 502.433029 63.360063 
L 511.203093 63.535863 
L 519.973157 63.592662 
" clip-path="url(#p883fc00996)" style="fill: none; stroke: #5cb85c; stroke-linecap: square"/>
   </g>
   <g id="line2d_18">
    <path d="M 81.469943 61.863534 
L 90.240007 62.07959 
L 99.010072 61.933713 
L 107.780136 61.768758 
L 116.5502 61.853336 
L 125.320265 62.321757 
L 134.090329 62.460888 
L 142.860393 62.008975 
L 151.630457 62.202721 
L 160.400522 62.303398 
L 169.170586 62.180247 
L 177.94065 62.516256 
L 186.710715 62.785891 
L 195.480779 62.686522 
L 204.250843 62.849015 
L 213.020907 62.953351 
L 221.790972 63.121824 
L 230.561036 63.176943 
L 239.3311 63.241634 
L 248.101164 63.249816 
L 256.871229 63.174221 
L 265.641293 63.236192 
L 274.411357 63.256508 
L 283.181422 63.675238 
L 291.951486 63.872675 
L 300.72155 63.956243 
L 309.491614 63.894356 
L 318.261679 64.14687 
L 327.031743 64.328976 
L 335.801807 64.103628 
L 344.571872 64.309923 
L 353.341936 64.228036 
L 362.112 64.535415 
L 370.882064 64.718364 
L 379.652129 64.859903 
L 388.422193 64.569421 
L 397.192257 64.942863 
L 405.962322 64.86031 
L 414.732386 65.385001 
L 423.50245 64.953243 
L 432.272514 64.884223 
L 441.042579 64.882519 
L 449.812643 64.848623 
L 458.582707 64.963538 
L 467.352771 65.306437 
L 476.122836 65.119576 
L 484.8929 65.585448 
L 493.662964 65.457887 
L 502.433029 65.742748 
L 511.203093 66.408705 
L 519.973157 68.891574 
" clip-path="url(#p883fc00996)" style="fill: none; stroke: #5cb85c; stroke-linecap: square"/>
   </g>
   <g id="line2d_19">
    <path d="M 81.469943 42.186033 
L 90.240007 45.198058 
L 99.010072 42.79344 
L 107.780136 41.137272 
L 116.5502 40.226774 
L 125.320265 39.450855 
L 134.090329 39.454029 
L 142.860393 38.641435 
L 151.630457 38.575167 
L 160.400522 38.274507 
L 177.94065 38.359077 
L 195.480779 38.28869 
L 213.020907 37.44239 
L 230.561036 37.3789 
L 248.101164 37.276488 
L 265.641293 37.219206 
L 283.181422 37.278685 
L 300.72155 37.562257 
L 318.261679 37.54632 
L 335.801807 37.694811 
L 353.341936 37.690675 
L 370.882064 37.827418 
L 388.422193 37.825868 
L 405.962322 37.933113 
L 423.50245 38.027569 
L 441.042579 38.100427 
L 458.582707 38.111928 
L 476.122836 38.21797 
L 493.662964 38.334209 
L 511.203093 38.494072 
L 528.743221 39.433602 
L 546.28335 38.653235 
L 563.823479 38.798259 
L 581.363607 38.779966 
L 598.903736 38.940902 
L 616.443864 39.024692 
L 633.983993 39.218822 
L 651.524121 39.33822 
L 669.06425 39.482367 
L 686.604378 39.592508 
L 704.144507 39.724069 
L 721.684636 39.767841 
L 739.224764 39.953348 
L 756.764893 39.989912 
L 774.305021 40.106281 
L 791.84515 40.332156 
L 809.385278 40.217072 
L 826.925407 40.370074 
L 844.465535 40.351387 
L 862.005664 40.555995 
L 879.545793 40.512806 
L 897.085921 40.580056 
L 914.62605 40.782682 
L 932.166178 40.896377 
L 949.706307 41.971972 
" clip-path="url(#p883fc00996)" style="fill: none; stroke: #5cb85c; stroke-linecap: square"/>
   </g>
   <g id="line2d_20">
    <path d="M 81.469943 43.446941 
L 90.240007 46.991981 
L 99.010072 42.991285 
L 107.780136 41.286728 
L 116.5502 40.478618 
L 125.320265 40.211351 
L 134.090329 39.980002 
L 142.860393 39.030837 
L 151.630457 39.186163 
L 160.400522 38.982068 
L 177.94065 38.73056 
L 195.480779 38.605404 
L 213.020907 37.896918 
L 230.561036 37.732627 
L 248.101164 37.671077 
L 265.641293 37.676805 
L 283.181422 37.804192 
L 300.72155 38.118074 
L 318.261679 38.007882 
L 335.801807 38.122204 
L 353.341936 38.03363 
L 370.882064 38.268272 
L 388.422193 38.292581 
L 405.962322 38.367875 
L 423.50245 38.487165 
L 441.042579 38.505011 
L 458.582707 38.452703 
L 476.122836 38.476603 
L 493.662964 38.57644 
L 511.203093 38.778085 
L 528.743221 39.705433 
L 546.28335 38.87781 
L 563.823479 38.955607 
L 581.363607 39.015315 
L 598.903736 39.158597 
L 616.443864 39.242658 
L 633.983993 39.385701 
L 651.524121 39.452861 
L 669.06425 39.57596 
L 686.604378 39.675677 
L 704.144507 39.832838 
L 721.684636 39.861613 
L 739.224764 40.016229 
L 756.764893 40.088665 
L 774.305021 40.163476 
L 791.84515 40.58685 
L 809.385278 40.442231 
L 826.925407 40.652504 
L 844.465535 40.50982 
L 862.005664 40.74821 
L 879.545793 40.622366 
L 897.085921 40.64367 
L 914.62605 40.760213 
L 932.166178 40.92686 
L 949.706307 42.042921 
" clip-path="url(#p883fc00996)" style="fill: none; stroke: #5cb85c; stroke-linecap: square"/>
   </g>
   <g id="line2d_21">
    <path d="M 81.469943 43.200321 
L 90.240007 46.511708 
L 99.010072 44.394054 
L 107.780136 42.731798 
L 116.5502 41.701425 
L 125.320265 41.211414 
L 134.090329 40.599441 
L 142.860393 40.33283 
L 151.630457 40.432231 
L 160.400522 39.710089 
L 177.94065 39.743098 
L 195.480779 39.824975 
L 213.020907 38.501598 
L 230.561036 38.427099 
L 248.101164 38.326267 
L 265.641293 38.249854 
L 283.181422 38.433475 
L 300.72155 38.755624 
L 318.261679 38.776013 
L 335.801807 38.953625 
L 353.341936 39.077339 
L 370.882064 39.34916 
L 388.422193 39.326847 
L 405.962322 39.439967 
L 423.50245 39.65461 
L 441.042579 39.851927 
L 458.582707 39.969691 
L 476.122836 40.179651 
L 493.662964 40.416607 
L 511.203093 40.549435 
L 528.743221 41.514247 
L 546.28335 40.770756 
L 563.823479 40.929945 
L 581.363607 41.01929 
L 598.903736 41.291611 
L 616.443864 41.338317 
L 633.983993 41.599982 
L 651.524121 41.839617 
L 669.06425 41.889074 
L 686.604378 42.11316 
L 704.144507 42.206465 
L 721.684636 42.395663 
L 739.224764 42.758236 
L 756.764893 42.75127 
L 774.305021 42.931535 
L 791.84515 43.181723 
L 809.385278 43.392529 
L 826.925407 43.518918 
L 844.465535 43.499398 
L 862.005664 43.739255 
L 879.545793 43.710124 
L 897.085921 43.891399 
L 914.62605 44.303547 
L 932.166178 44.508713 
L 949.706307 45.885442 
" clip-path="url(#p883fc00996)" style="fill: none; stroke: #5cb85c; stroke-linecap: square"/>
   </g>
   <g id="line2d_22">
    <path d="M 81.469943 42.467792 
L 90.240007 44.718899 
L 99.010072 43.294239 
L 107.780136 41.667223 
L 116.5502 40.802172 
L 125.320265 40.552218 
L 134.090329 39.085074 
L 142.860393 39.157071 
L 151.630457 38.689277 
L 160.400522 39.218106 
L 177.94065 38.680008 
L 195.480779 38.658692 
L 213.020907 37.80908 
L 230.561036 37.799045 
L 248.101164 37.597263 
L 265.641293 37.690455 
L 283.181422 37.818102 
L 300.72155 38.176115 
L 318.261679 38.224391 
L 335.801807 38.28811 
L 353.341936 38.230103 
L 370.882064 38.438674 
L 388.422193 38.481458 
L 405.962322 38.611729 
L 423.50245 38.733298 
L 441.042579 38.799444 
L 458.582707 38.806699 
L 476.122836 38.901973 
L 493.662964 39.034164 
L 511.203093 39.215309 
L 528.743221 40.170986 
L 546.28335 39.394027 
L 563.823479 39.466677 
L 581.363607 39.548477 
L 598.903736 39.718975 
L 616.443864 39.830243 
L 633.983993 39.978796 
L 651.524121 40.093336 
L 669.06425 40.199216 
L 686.604378 40.327729 
L 704.144507 40.502915 
L 721.684636 40.583045 
L 739.224764 40.794027 
L 756.764893 40.844895 
L 774.305021 40.981472 
L 791.84515 41.356547 
L 809.385278 41.23708 
L 826.925407 41.496178 
L 844.465535 41.406269 
L 862.005664 41.661862 
L 879.545793 41.600308 
L 897.085921 41.65766 
L 914.62605 41.874172 
L 932.166178 42.024251 
L 949.706307 43.271705 
" clip-path="url(#p883fc00996)" style="fill: none; stroke: #5cb85c; stroke-linecap: square"/>
   </g>
   <g id="line2d_23">
    <path d="M 81.469943 62.944706 
L 90.240007 63.669738 
L 99.010072 61.330104 
L 107.780136 60.795686 
L 116.5502 60.763791 
L 125.320265 60.673803 
L 134.090329 61.625939 
L 142.860393 60.680182 
L 151.630457 60.671476 
L 160.400522 60.766973 
L 169.170586 60.251981 
L 177.94065 60.727791 
L 186.710715 60.969865 
L 195.480779 60.953289 
L 204.250843 60.84365 
L 213.020907 60.70204 
L 221.790972 60.743987 
L 230.561036 60.85878 
L 239.3311 60.848969 
L 248.101164 61.092195 
L 256.871229 60.953404 
L 265.641293 61.354051 
L 274.411357 61.315198 
L 283.181422 61.436856 
L 291.951486 61.538142 
L 300.72155 61.777209 
L 309.491614 61.768067 
L 318.261679 61.842023 
L 327.031743 61.767621 
L 335.801807 61.919205 
L 344.571872 62.067492 
L 353.341936 62.161421 
L 362.112 62.198579 
L 370.882064 62.420604 
L 379.652129 62.220139 
L 388.422193 62.269429 
L 397.192257 62.483804 
L 405.962322 62.541214 
L 414.732386 62.468827 
L 423.50245 62.639377 
L 432.272514 62.626695 
L 441.042579 62.913951 
L 449.812643 63.655417 
L 458.582707 62.984291 
L 467.352771 64.562386 
L 476.122836 63.306702 
L 484.8929 63.113355 
L 493.662964 64.224638 
L 502.433029 64.417281 
L 511.203093 64.17345 
L 519.973157 65.072077 
" clip-path="url(#p883fc00996)" style="fill: none; stroke: #5cb85c; stroke-linecap: square"/>
   </g>
   <g id="line2d_24">
    <path d="M 81.469943 61.841271 
L 90.240007 62.24974 
L 99.010072 62.141314 
L 107.780136 61.855266 
L 116.5502 61.924504 
L 125.320265 62.446467 
L 134.090329 62.803675 
L 142.860393 62.19295 
L 151.630457 62.35762 
L 160.400522 62.572235 
L 169.170586 62.437307 
L 177.94065 62.781918 
L 186.710715 63.108979 
L 195.480779 63.005474 
L 204.250843 63.18428 
L 213.020907 63.352394 
L 221.790972 63.501666 
L 230.561036 63.501983 
L 239.3311 63.745364 
L 248.101164 63.733812 
L 256.871229 63.768719 
L 265.641293 63.745201 
L 274.411357 63.757132 
L 283.181422 64.199267 
L 291.951486 64.49896 
L 300.72155 64.769811 
L 309.491614 64.817165 
L 318.261679 64.990699 
L 327.031743 65.238592 
L 335.801807 65.136859 
L 344.571872 65.271801 
L 353.341936 65.176069 
L 362.112 65.672968 
L 370.882064 66.008181 
L 379.652129 66.217676 
L 388.422193 66.047271 
L 397.192257 66.427514 
L 405.962322 66.335389 
L 414.732386 66.921366 
L 423.50245 66.606407 
L 432.272514 66.520751 
L 441.042579 66.532808 
L 449.812643 66.562313 
L 458.582707 66.653369 
L 467.352771 66.99336 
L 476.122836 66.886047 
L 484.8929 67.306785 
L 493.662964 67.239376 
L 502.433029 67.465711 
L 511.203093 68.164457 
L 519.973157 70.871173 
" clip-path="url(#p883fc00996)" style="fill: none; stroke: #5cb85c; stroke-linecap: square"/>
   </g>
   <g id="line2d_25">
    <path d="M 38.058125 353.2239 
L 993.118125 353.2239 
" clip-path="url(#p883fc00996)" style="fill: none; stroke: #dedede; stroke-width: 2; stroke-linecap: square"/>
   </g>
   <g id="text_17">
    <!-- FastQC: Mean Quality Scores -->
    <g transform="translate(400.349375 19.3575) scale(0.16 -0.16)">
     <defs>
      <path id="DejaVuSans-46" d="M 628 4666 
L 3309 4666 
L 3309 4134 
L 1259 4134 
L 1259 2759 
L 3109 2759 
L 3109 2228 
L 1259 2228 
L 1259 0 
L 628 0 
L 628 4666 
z
" transform="scale(0.015625)"/>
      <path id="DejaVuSans-61" d="M 2194 1759 
Q 1497 1759 1228 1600 
Q 959 1441 959 1056 
Q 959 750 1161 570 
Q 1363 391 1709 391 
Q 2188 391 2477 730 
Q 2766 1069 2766 1631 
L 2766 1759 
L 2194 1759 
z
M 3341 1997 
L 3341 0 
L 2766 0 
L 2766 531 
Q 2569 213 2275 61 
Q 1981 -91 1556 -91 
Q 1019 -91 701 211 
Q 384 513 384 1019 
Q 384 1609 779 1909 
Q 1175 2209 1959 2209 
L 2766 2209 
L 2766 2266 
Q 2766 2663 2505 2880 
Q 2244 3097 1772 3097 
Q 1472 3097 1187 3025 
Q 903 2953 641 2809 
L 641 3341 
Q 956 3463 1253 3523 
Q 1550 3584 1831 3584 
Q 2591 3584 2966 3190 
Q 3341 2797 3341 1997 
z
" transform="scale(0.015625)"/>
      <path id="DejaVuSans-51" d="M 2522 4238 
Q 1834 4238 1429 3725 
Q 1025 3213 1025 2328 
Q 1025 1447 1429 934 
Q 1834 422 2522 422 
Q 3209 422 3611 934 
Q 4013 1447 4013 2328 
Q 4013 3213 3611 3725 
Q 3209 4238 2522 4238 
z
M 3406 84 
L 4238 -825 
L 3475 -825 
L 2784 -78 
Q 2681 -84 2626 -87 
Q 2572 -91 2522 -91 
Q 1538 -91 948 567 
Q 359 1225 359 2328 
Q 359 3434 948 4092 
Q 1538 4750 2522 4750 
Q 3503 4750 4090 4092 
Q 4678 3434 4678 2328 
Q 4678 1516 4351 937 
Q 4025 359 3406 84 
z
" transform="scale(0.015625)"/>
      <path id="DejaVuSans-43" d="M 4122 4306 
L 4122 3641 
Q 3803 3938 3442 4084 
Q 3081 4231 2675 4231 
Q 1875 4231 1450 3742 
Q 1025 3253 1025 2328 
Q 1025 1406 1450 917 
Q 1875 428 2675 428 
Q 3081 428 3442 575 
Q 3803 722 4122 1019 
L 4122 359 
Q 3791 134 3420 21 
Q 3050 -91 2638 -91 
Q 1578 -91 968 557 
Q 359 1206 359 2328 
Q 359 3453 968 4101 
Q 1578 4750 2638 4750 
Q 3056 4750 3426 4639 
Q 3797 4528 4122 4306 
z
" transform="scale(0.015625)"/>
      <path id="DejaVuSans-3a" d="M 750 794 
L 1409 794 
L 1409 0 
L 750 0 
L 750 794 
z
M 750 3309 
L 1409 3309 
L 1409 2516 
L 750 2516 
L 750 3309 
z
" transform="scale(0.015625)"/>
      <path id="DejaVuSans-4d" d="M 628 4666 
L 1569 4666 
L 2759 1491 
L 3956 4666 
L 4897 4666 
L 4897 0 
L 4281 0 
L 4281 4097 
L 3078 897 
L 2444 897 
L 1241 4097 
L 1241 0 
L 628 0 
L 628 4666 
z
" transform="scale(0.015625)"/>
      <path id="DejaVuSans-75" d="M 544 1381 
L 544 3500 
L 1119 3500 
L 1119 1403 
Q 1119 906 1312 657 
Q 1506 409 1894 409 
Q 2359 409 2629 706 
Q 2900 1003 2900 1516 
L 2900 3500 
L 3475 3500 
L 3475 0 
L 2900 0 
L 2900 538 
Q 2691 219 2414 64 
Q 2138 -91 1772 -91 
Q 1169 -91 856 284 
Q 544 659 544 1381 
z
M 1991 3584 
L 1991 3584 
z
" transform="scale(0.015625)"/>
      <path id="DejaVuSans-6c" d="M 603 4863 
L 1178 4863 
L 1178 0 
L 603 0 
L 603 4863 
z
" transform="scale(0.015625)"/>
      <path id="DejaVuSans-79" d="M 2059 -325 
Q 1816 -950 1584 -1140 
Q 1353 -1331 966 -1331 
L 506 -1331 
L 506 -850 
L 844 -850 
Q 1081 -850 1212 -737 
Q 1344 -625 1503 -206 
L 1606 56 
L 191 3500 
L 800 3500 
L 1894 763 
L 2988 3500 
L 3597 3500 
L 2059 -325 
z
" transform="scale(0.015625)"/>
     </defs>
     <use xlink:href="#DejaVuSans-46"/>
     <use xlink:href="#DejaVuSans-61" x="48.394531"/>
     <use xlink:href="#DejaVuSans-73" x="109.673828"/>
     <use xlink:href="#DejaVuSans-74" x="161.773438"/>
     <use xlink:href="#DejaVuSans-51" x="200.982422"/>
     <use xlink:href="#DejaVuSans-43" x="279.693359"/>
     <use xlink:href="#DejaVuSans-3a" x="349.517578"/>
     <use xlink:href="#DejaVuSans-20" x="383.208984"/>
     <use xlink:href="#DejaVuSans-4d" x="414.996094"/>
     <use xlink:href="#DejaVuSans-65" x="501.275391"/>
     <use xlink:href="#DejaVuSans-61" x="562.798828"/>
     <use xlink:href="#DejaVuSans-6e" x="624.078125"/>
     <use xlink:href="#DejaVuSans-20" x="687.457031"/>
     <use xlink:href="#DejaVuSans-51" x="719.244141"/>
     <use xlink:href="#DejaVuSans-75" x="797.955078"/>
     <use xlink:href="#DejaVuSans-61" x="861.333984"/>
     <use xlink:href="#DejaVuSans-6c" x="922.613281"/>
     <use xlink:href="#DejaVuSans-69" x="950.396484"/>
     <use xlink:href="#DejaVuSans-74" x="978.179688"/>
     <use xlink:href="#DejaVuSans-79" x="1017.388672"/>
     <use xlink:href="#DejaVuSans-20" x="1076.568359"/>
     <use xlink:href="#DejaVuSans-53" x="1108.355469"/>
     <use xlink:href="#DejaVuSans-63" x="1171.832031"/>
     <use xlink:href="#DejaVuSans-6f" x="1226.8125"/>
     <use xlink:href="#DejaVuSans-72" x="1287.994141"/>
     <use xlink:href="#DejaVuSans-65" x="1326.857422"/>
     <use xlink:href="#DejaVuSans-73" x="1388.380859"/>
    </g>
   </g>
  </g>
 </g>
 <defs>
  <clipPath id="p883fc00996">
   <rect x="38.058125" y="35.2559" width="955.06" height="317.968"/>
  </clipPath>
 </defs>
</svg>
