<?xml version="1.0" encoding="utf-8" standalone="no"?>
<!DOCTYPE svg PUBLIC "-//W3C//DTD SVG 1.1//EN"
  "http://www.w3.org/Graphics/SVG/1.1/DTD/svg11.dtd">
<svg xmlns:xlink="http://www.w3.org/1999/xlink" width="1000.298125pt" height="388.844525pt" viewBox="0 0 1000.298125 388.844525" xmlns="http://www.w3.org/2000/svg" version="1.1">
 <metadata>
  <rdf:RDF xmlns:dc="http://purl.org/dc/elements/1.1/" xmlns:cc="http://creativecommons.org/ns#" xmlns:rdf="http://www.w3.org/1999/02/22-rdf-syntax-ns#">
   <cc:Work>
    <dc:type rdf:resource="http://purl.org/dc/dcmitype/StillImage"/>
    <dc:date>2025-04-01T05:20:41.493110</dc:date>
    <dc:format>image/svg+xml</dc:format>
    <dc:creator>
     <cc:Agent>
      <dc:title>Matplotlib v3.8.2, https://matplotlib.org/</dc:title>
     </cc:Agent>
    </dc:creator>
   </cc:Work>
  </rdf:RDF>
 </metadata>
 <defs>
  <style type="text/css">*{stroke-linejoin: round; stroke-linecap: butt}</style>
 </defs>
 <g id="figure_1">
  <g id="axes_1">
   <g id="patch_1">
    <path d="M 32.968125 353.2239 
L 985.463125 353.2239 
L 985.463125 35.2559 
L 32.968125 35.2559 
z
" style="fill: #ffffff"/>
   </g>
   <g id="matplotlib.axis_1">
    <g id="xtick_1">
     <g id="text_1">
      <!-- 0 -->
      <g transform="translate(30.423125 366.30265) scale(0.08 -0.08)">
       <defs>
        <path id="DejaVuSans-30" d="M 2034 4250 
Q 1547 4250 1301 3770 
Q 1056 3291 1056 2328 
Q 1056 1369 1301 889 
Q 1547 409 2034 409 
Q 2525 409 2770 889 
Q 3016 1369 3016 2328 
Q 3016 3291 2770 3770 
Q 2525 4250 2034 4250 
z
M 2034 4750 
Q 2819 4750 3233 4129 
Q 3647 3509 3647 2328 
Q 3647 1150 3233 529 
Q 2819 -91 2034 -91 
Q 1250 -91 836 529 
Q 422 1150 422 2328 
Q 422 3509 836 4129 
Q 1250 4750 2034 4750 
z
" transform="scale(0.015625)"/>
       </defs>
       <use xlink:href="#DejaVuSans-30"/>
      </g>
     </g>
    </g>
    <g id="xtick_2">
     <g id="text_2">
      <!-- 20 -->
      <g transform="translate(218.377125 366.30265) scale(0.08 -0.08)">
       <defs>
        <path id="DejaVuSans-32" d="M 1228 531 
L 3431 531 
L 3431 0 
L 469 0 
L 469 531 
Q 828 903 1448 1529 
Q 2069 2156 2228 2338 
Q 2531 2678 2651 2914 
Q 2772 3150 2772 3378 
Q 2772 3750 2511 3984 
Q 2250 4219 1831 4219 
Q 1534 4219 1204 4116 
Q 875 4013 500 3803 
L 500 4441 
Q 881 4594 1212 4672 
Q 1544 4750 1819 4750 
Q 2544 4750 2975 4387 
Q 3406 4025 3406 3419 
Q 3406 3131 3298 2873 
Q 3191 2616 2906 2266 
Q 2828 2175 2409 1742 
Q 1991 1309 1228 531 
z
" transform="scale(0.015625)"/>
       </defs>
       <use xlink:href="#DejaVuSans-32"/>
       <use xlink:href="#DejaVuSans-30" x="63.623047"/>
      </g>
     </g>
    </g>
    <g id="xtick_3">
     <g id="text_3">
      <!-- 40 -->
      <g transform="translate(408.876125 366.30265) scale(0.08 -0.08)">
       <defs>
        <path id="DejaVuSans-34" d="M 2419 4116 
L 825 1625 
L 2419 1625 
L 2419 4116 
z
M 2253 4666 
L 3047 4666 
L 3047 1625 
L 3713 1625 
L 3713 1100 
L 3047 1100 
L 3047 0 
L 2419 0 
L 2419 1100 
L 313 1100 
L 313 1709 
L 2253 4666 
z
" transform="scale(0.015625)"/>
       </defs>
       <use xlink:href="#DejaVuSans-34"/>
       <use xlink:href="#DejaVuSans-30" x="63.623047"/>
      </g>
     </g>
    </g>
    <g id="xtick_4">
     <g id="text_4">
      <!-- 60 -->
      <g transform="translate(599.375125 366.30265) scale(0.08 -0.08)">
       <defs>
        <path id="DejaVuSans-36" d="M 2113 2584 
Q 1688 2584 1439 2293 
Q 1191 2003 1191 1497 
Q 1191 994 1439 701 
Q 1688 409 2113 409 
Q 2538 409 2786 701 
Q 3034 994 3034 1497 
Q 3034 2003 2786 2293 
Q 2538 2584 2113 2584 
z
M 3366 4563 
L 3366 3988 
Q 3128 4100 2886 4159 
Q 2644 4219 2406 4219 
Q 1781 4219 1451 3797 
Q 1122 3375 1075 2522 
Q 1259 2794 1537 2939 
Q 1816 3084 2150 3084 
Q 2853 3084 3261 2657 
Q 3669 2231 3669 1497 
Q 3669 778 3244 343 
Q 2819 -91 2113 -91 
Q 1303 -91 875 529 
Q 447 1150 447 2328 
Q 447 3434 972 4092 
Q 1497 4750 2381 4750 
Q 2619 4750 2861 4703 
Q 3103 4656 3366 4563 
z
" transform="scale(0.015625)"/>
       </defs>
       <use xlink:href="#DejaVuSans-36"/>
       <use xlink:href="#DejaVuSans-30" x="63.623047"/>
      </g>
     </g>
    </g>
    <g id="xtick_5">
     <g id="text_5">
      <!-- 80 -->
      <g transform="translate(789.874125 366.30265) scale(0.08 -0.08)">
       <defs>
        <path id="DejaVuSans-38" d="M 2034 2216 
Q 1584 2216 1326 1975 
Q 1069 1734 1069 1313 
Q 1069 891 1326 650 
Q 1584 409 2034 409 
Q 2484 409 2743 651 
Q 3003 894 3003 1313 
Q 3003 1734 2745 1975 
Q 2488 2216 2034 2216 
z
M 1403 2484 
Q 997 2584 770 2862 
Q 544 3141 544 3541 
Q 544 4100 942 4425 
Q 1341 4750 2034 4750 
Q 2731 4750 3128 4425 
Q 3525 4100 3525 3541 
Q 3525 3141 3298 2862 
Q 3072 2584 2669 2484 
Q 3125 2378 3379 2068 
Q 3634 1759 3634 1313 
Q 3634 634 3220 271 
Q 2806 -91 2034 -91 
Q 1263 -91 848 271 
Q 434 634 434 1313 
Q 434 1759 690 2068 
Q 947 2378 1403 2484 
z
M 1172 3481 
Q 1172 3119 1398 2916 
Q 1625 2713 2034 2713 
Q 2441 2713 2670 2916 
Q 2900 3119 2900 3481 
Q 2900 3844 2670 4047 
Q 2441 4250 2034 4250 
Q 1625 4250 1398 4047 
Q 1172 3844 1172 3481 
z
" transform="scale(0.015625)"/>
       </defs>
       <use xlink:href="#DejaVuSans-38"/>
       <use xlink:href="#DejaVuSans-30" x="63.623047"/>
      </g>
     </g>
    </g>
    <g id="xtick_6">
     <g id="text_6">
      <!-- 100 -->
      <g transform="translate(977.828125 366.30265) scale(0.08 -0.08)">
       <defs>
        <path id="DejaVuSans-31" d="M 794 531 
L 1825 531 
L 1825 4091 
L 703 3866 
L 703 4441 
L 1819 4666 
L 2450 4666 
L 2450 531 
L 3481 531 
L 3481 0 
L 794 0 
L 794 531 
z
" transform="scale(0.015625)"/>
       </defs>
       <use xlink:href="#DejaVuSans-31"/>
       <use xlink:href="#DejaVuSans-30" x="63.623047"/>
       <use xlink:href="#DejaVuSans-30" x="127.246094"/>
      </g>
     </g>
    </g>
    <g id="text_7">
     <!-- % GC -->
     <g transform="translate(495.510156 379.564837) scale(0.1 -0.1)">
      <defs>
       <path id="DejaVuSans-25" d="M 4653 2053 
Q 4381 2053 4226 1822 
Q 4072 1591 4072 1178 
Q 4072 772 4226 539 
Q 4381 306 4653 306 
Q 4919 306 5073 539 
Q 5228 772 5228 1178 
Q 5228 1588 5073 1820 
Q 4919 2053 4653 2053 
z
M 4653 2450 
Q 5147 2450 5437 2106 
Q 5728 1763 5728 1178 
Q 5728 594 5436 251 
Q 5144 -91 4653 -91 
Q 4153 -91 3862 251 
Q 3572 594 3572 1178 
Q 3572 1766 3864 2108 
Q 4156 2450 4653 2450 
z
M 1428 4353 
Q 1159 4353 1004 4120 
Q 850 3888 850 3481 
Q 850 3069 1003 2837 
Q 1156 2606 1428 2606 
Q 1700 2606 1854 2837 
Q 2009 3069 2009 3481 
Q 2009 3884 1853 4118 
Q 1697 4353 1428 4353 
z
M 4250 4750 
L 4750 4750 
L 1831 -91 
L 1331 -91 
L 4250 4750 
z
M 1428 4750 
Q 1922 4750 2215 4408 
Q 2509 4066 2509 3481 
Q 2509 2891 2217 2550 
Q 1925 2209 1428 2209 
Q 931 2209 642 2551 
Q 353 2894 353 3481 
Q 353 4063 643 4406 
Q 934 4750 1428 4750 
z
" transform="scale(0.015625)"/>
       <path id="DejaVuSans-20" transform="scale(0.015625)"/>
       <path id="DejaVuSans-47" d="M 3809 666 
L 3809 1919 
L 2778 1919 
L 2778 2438 
L 4434 2438 
L 4434 434 
Q 4069 175 3628 42 
Q 3188 -91 2688 -91 
Q 1594 -91 976 548 
Q 359 1188 359 2328 
Q 359 3472 976 4111 
Q 1594 4750 2688 4750 
Q 3144 4750 3555 4637 
Q 3966 4525 4313 4306 
L 4313 3634 
Q 3963 3931 3569 4081 
Q 3175 4231 2741 4231 
Q 1884 4231 1454 3753 
Q 1025 3275 1025 2328 
Q 1025 1384 1454 906 
Q 1884 428 2741 428 
Q 3075 428 3337 486 
Q 3600 544 3809 666 
z
" transform="scale(0.015625)"/>
       <path id="DejaVuSans-43" d="M 4122 4306 
L 4122 3641 
Q 3803 3938 3442 4084 
Q 3081 4231 2675 4231 
Q 1875 4231 1450 3742 
Q 1025 3253 1025 2328 
Q 1025 1406 1450 917 
Q 1875 428 2675 428 
Q 3081 428 3442 575 
Q 3803 722 4122 1019 
L 4122 359 
Q 3791 134 3420 21 
Q 3050 -91 2638 -91 
Q 1578 -91 968 557 
Q 359 1206 359 2328 
Q 359 3453 968 4101 
Q 1578 4750 2638 4750 
Q 3056 4750 3426 4639 
Q 3797 4528 4122 4306 
z
" transform="scale(0.015625)"/>
      </defs>
      <use xlink:href="#DejaVuSans-25"/>
      <use xlink:href="#DejaVuSans-20" x="95.019531"/>
      <use xlink:href="#DejaVuSans-47" x="126.806641"/>
      <use xlink:href="#DejaVuSans-43" x="204.296875"/>
     </g>
    </g>
   </g>
   <g id="matplotlib.axis_2">
    <g id="ytick_1">
     <g id="line2d_1">
      <path d="M 32.968125 353.2239 
L 985.463125 353.2239 
" clip-path="url(#p633fe9d40a)" style="fill: none; stroke: #dedede; stroke-linecap: square"/>
     </g>
     <g id="text_8">
      <!-- 0 -->
      <g transform="translate(20.878125 356.263275) scale(0.08 -0.08)">
       <use xlink:href="#DejaVuSans-30"/>
      </g>
     </g>
    </g>
    <g id="ytick_2">
     <g id="line2d_2">
      <path d="M 32.968125 283.57408 
L 985.463125 283.57408 
" clip-path="url(#p633fe9d40a)" style="fill: none; stroke: #dedede; stroke-linecap: square"/>
     </g>
     <g id="text_9">
      <!-- 2 -->
      <g transform="translate(20.878125 286.613455) scale(0.08 -0.08)">
       <use xlink:href="#DejaVuSans-32"/>
      </g>
     </g>
    </g>
    <g id="ytick_3">
     <g id="line2d_3">
      <path d="M 32.968125 213.924259 
L 985.463125 213.924259 
" clip-path="url(#p633fe9d40a)" style="fill: none; stroke: #dedede; stroke-linecap: square"/>
     </g>
     <g id="text_10">
      <!-- 4 -->
      <g transform="translate(20.878125 216.963634) scale(0.08 -0.08)">
       <use xlink:href="#DejaVuSans-34"/>
      </g>
     </g>
    </g>
    <g id="ytick_4">
     <g id="line2d_4">
      <path d="M 32.968125 144.274439 
L 985.463125 144.274439 
" clip-path="url(#p633fe9d40a)" style="fill: none; stroke: #dedede; stroke-linecap: square"/>
     </g>
     <g id="text_11">
      <!-- 6 -->
      <g transform="translate(20.878125 147.313814) scale(0.08 -0.08)">
       <use xlink:href="#DejaVuSans-36"/>
      </g>
     </g>
    </g>
    <g id="ytick_5">
     <g id="line2d_5">
      <path d="M 32.968125 74.624618 
L 985.463125 74.624618 
" clip-path="url(#p633fe9d40a)" style="fill: none; stroke: #dedede; stroke-linecap: square"/>
     </g>
     <g id="text_12">
      <!-- 8 -->
      <g transform="translate(20.878125 77.663993) scale(0.08 -0.08)">
       <use xlink:href="#DejaVuSans-38"/>
      </g>
     </g>
    </g>
    <g id="text_13">
     <!-- Percentage -->
     <g transform="translate(14.798437 222.362556) rotate(-90) scale(0.1 -0.1)">
      <defs>
       <path id="DejaVuSans-50" d="M 1259 4147 
L 1259 2394 
L 2053 2394 
Q 2494 2394 2734 2622 
Q 2975 2850 2975 3272 
Q 2975 3691 2734 3919 
Q 2494 4147 2053 4147 
L 1259 4147 
z
M 628 4666 
L 2053 4666 
Q 2838 4666 3239 4311 
Q 3641 3956 3641 3272 
Q 3641 2581 3239 2228 
Q 2838 1875 2053 1875 
L 1259 1875 
L 1259 0 
L 628 0 
L 628 4666 
z
" transform="scale(0.015625)"/>
       <path id="DejaVuSans-65" d="M 3597 1894 
L 3597 1613 
L 953 1613 
Q 991 1019 1311 708 
Q 1631 397 2203 397 
Q 2534 397 2845 478 
Q 3156 559 3463 722 
L 3463 178 
Q 3153 47 2828 -22 
Q 2503 -91 2169 -91 
Q 1331 -91 842 396 
Q 353 884 353 1716 
Q 353 2575 817 3079 
Q 1281 3584 2069 3584 
Q 2775 3584 3186 3129 
Q 3597 2675 3597 1894 
z
M 3022 2063 
Q 3016 2534 2758 2815 
Q 2500 3097 2075 3097 
Q 1594 3097 1305 2825 
Q 1016 2553 972 2059 
L 3022 2063 
z
" transform="scale(0.015625)"/>
       <path id="DejaVuSans-72" d="M 2631 2963 
Q 2534 3019 2420 3045 
Q 2306 3072 2169 3072 
Q 1681 3072 1420 2755 
Q 1159 2438 1159 1844 
L 1159 0 
L 581 0 
L 581 3500 
L 1159 3500 
L 1159 2956 
Q 1341 3275 1631 3429 
Q 1922 3584 2338 3584 
Q 2397 3584 2469 3576 
Q 2541 3569 2628 3553 
L 2631 2963 
z
" transform="scale(0.015625)"/>
       <path id="DejaVuSans-63" d="M 3122 3366 
L 3122 2828 
Q 2878 2963 2633 3030 
Q 2388 3097 2138 3097 
Q 1578 3097 1268 2742 
Q 959 2388 959 1747 
Q 959 1106 1268 751 
Q 1578 397 2138 397 
Q 2388 397 2633 464 
Q 2878 531 3122 666 
L 3122 134 
Q 2881 22 2623 -34 
Q 2366 -91 2075 -91 
Q 1284 -91 818 406 
Q 353 903 353 1747 
Q 353 2603 823 3093 
Q 1294 3584 2113 3584 
Q 2378 3584 2631 3529 
Q 2884 3475 3122 3366 
z
" transform="scale(0.015625)"/>
       <path id="DejaVuSans-6e" d="M 3513 2113 
L 3513 0 
L 2938 0 
L 2938 2094 
Q 2938 2591 2744 2837 
Q 2550 3084 2163 3084 
Q 1697 3084 1428 2787 
Q 1159 2491 1159 1978 
L 1159 0 
L 581 0 
L 581 3500 
L 1159 3500 
L 1159 2956 
Q 1366 3272 1645 3428 
Q 1925 3584 2291 3584 
Q 2894 3584 3203 3211 
Q 3513 2838 3513 2113 
z
" transform="scale(0.015625)"/>
       <path id="DejaVuSans-74" d="M 1172 4494 
L 1172 3500 
L 2356 3500 
L 2356 3053 
L 1172 3053 
L 1172 1153 
Q 1172 725 1289 603 
Q 1406 481 1766 481 
L 2356 481 
L 2356 0 
L 1766 0 
Q 1100 0 847 248 
Q 594 497 594 1153 
L 594 3053 
L 172 3053 
L 172 3500 
L 594 3500 
L 594 4494 
L 1172 4494 
z
" transform="scale(0.015625)"/>
       <path id="DejaVuSans-61" d="M 2194 1759 
Q 1497 1759 1228 1600 
Q 959 1441 959 1056 
Q 959 750 1161 570 
Q 1363 391 1709 391 
Q 2188 391 2477 730 
Q 2766 1069 2766 1631 
L 2766 1759 
L 2194 1759 
z
M 3341 1997 
L 3341 0 
L 2766 0 
L 2766 531 
Q 2569 213 2275 61 
Q 1981 -91 1556 -91 
Q 1019 -91 701 211 
Q 384 513 384 1019 
Q 384 1609 779 1909 
Q 1175 2209 1959 2209 
L 2766 2209 
L 2766 2266 
Q 2766 2663 2505 2880 
Q 2244 3097 1772 3097 
Q 1472 3097 1187 3025 
Q 903 2953 641 2809 
L 641 3341 
Q 956 3463 1253 3523 
Q 1550 3584 1831 3584 
Q 2591 3584 2966 3190 
Q 3341 2797 3341 1997 
z
" transform="scale(0.015625)"/>
       <path id="DejaVuSans-67" d="M 2906 1791 
Q 2906 2416 2648 2759 
Q 2391 3103 1925 3103 
Q 1463 3103 1205 2759 
Q 947 2416 947 1791 
Q 947 1169 1205 825 
Q 1463 481 1925 481 
Q 2391 481 2648 825 
Q 2906 1169 2906 1791 
z
M 3481 434 
Q 3481 -459 3084 -895 
Q 2688 -1331 1869 -1331 
Q 1566 -1331 1297 -1286 
Q 1028 -1241 775 -1147 
L 775 -588 
Q 1028 -725 1275 -790 
Q 1522 -856 1778 -856 
Q 2344 -856 2625 -561 
Q 2906 -266 2906 331 
L 2906 616 
Q 2728 306 2450 153 
Q 2172 0 1784 0 
Q 1141 0 747 490 
Q 353 981 353 1791 
Q 353 2603 747 3093 
Q 1141 3584 1784 3584 
Q 2172 3584 2450 3431 
Q 2728 3278 2906 2969 
L 2906 3500 
L 3481 3500 
L 3481 434 
z
" transform="scale(0.015625)"/>
      </defs>
      <use xlink:href="#DejaVuSans-50"/>
      <use xlink:href="#DejaVuSans-65" x="56.677734"/>
      <use xlink:href="#DejaVuSans-72" x="118.201172"/>
      <use xlink:href="#DejaVuSans-63" x="157.064453"/>
      <use xlink:href="#DejaVuSans-65" x="212.044922"/>
      <use xlink:href="#DejaVuSans-6e" x="273.568359"/>
      <use xlink:href="#DejaVuSans-74" x="336.947266"/>
      <use xlink:href="#DejaVuSans-61" x="376.15625"/>
      <use xlink:href="#DejaVuSans-67" x="437.435547"/>
      <use xlink:href="#DejaVuSans-65" x="500.912109"/>
     </g>
    </g>
   </g>
   <g id="line2d_6">
    <path d="M 32.968125 353.216731 
L 42.493075 353.203006 
L 52.018025 353.189282 
L 61.542975 353.190955 
L 71.067925 353.192629 
L 80.592875 353.182015 
L 90.117825 353.171401 
L 99.642775 353.150451 
L 109.167725 353.129474 
L 118.692675 353.085803 
L 128.217625 353.042063 
L 137.742575 352.946605 
L 147.267525 352.851007 
L 156.792475 352.678208 
L 166.317425 352.501532 
L 175.842375 352.173356 
L 185.367325 351.837271 
L 194.892275 351.245649 
L 204.417225 350.653037 
L 213.942175 349.675063 
L 223.467125 348.687451 
L 232.992075 347.305591 
L 242.517025 345.911877 
L 252.041975 344.018107 
L 261.566925 342.109525 
L 271.091875 339.949884 
L 280.616825 335.577543 
L 290.141775 332.67743 
L 299.666725 329.57983 
L 309.191675 326.428615 
L 318.716625 322.867588 
L 328.241575 319.15354 
L 337.766525 315.41327 
L 347.291475 311.635982 
L 356.816425 308.050644 
L 366.341375 304.377267 
L 375.866325 300.030716 
L 385.391275 295.378068 
L 394.916225 291.348271 
L 404.441175 287.449875 
L 413.966125 285.181204 
L 423.491075 283.271102 
L 433.016025 281.879647 
L 442.540975 281.008024 
L 452.065925 279.183365 
L 461.590875 276.063408 
L 471.115825 270.402672 
L 480.640775 263.332196 
L 490.165725 252.587687 
L 499.690675 247.018295 
L 509.215625 259.630979 
L 518.740575 268.372229 
L 528.265525 268.348434 
L 537.790475 263.525344 
L 547.315425 253.417243 
L 556.840375 255.89527 
L 566.365325 258.858316 
L 575.890275 247.558854 
L 585.415225 230.214732 
L 594.940175 223.842131 
L 604.465125 243.797286 
L 613.990075 267.284025 
L 623.515025 279.452013 
L 633.039975 285.288393 
L 642.564925 287.292266 
L 652.089875 292.467089 
L 661.614825 302.612737 
L 671.139775 311.856147 
L 680.664725 317.287791 
L 690.189675 322.206827 
L 699.714625 325.047105 
L 709.239575 326.728492 
L 718.764525 329.036105 
L 728.289475 329.980786 
L 737.814425 329.510398 
L 747.339375 331.040439 
L 756.864325 332.312557 
L 766.389275 331.774188 
L 775.914225 331.257591 
L 785.439175 332.391766 
L 794.964125 333.578524 
L 804.489075 334.618162 
L 814.014025 335.446267 
L 823.538975 337.489096 
L 833.063925 339.821355 
L 842.588875 339.933648 
L 852.113825 339.9168 
L 861.638775 340.915528 
L 871.163725 341.882456 
L 880.688675 343.968858 
L 890.213625 346.055497 
L 899.738575 346.452589 
L 909.263525 346.849193 
L 918.788475 348.007498 
L 928.313425 349.165719 
L 937.838375 349.855658 
L 947.363325 350.545598 
L 956.888275 351.787672 
L 966.413225 353.029747 
L 975.938175 353.117004 
L 985.463125 353.204262 
" clip-path="url(#p633fe9d40a)" style="fill: none; stroke: #d9534f; stroke-linecap: square"/>
   </g>
   <g id="line2d_7">
    <path d="M 32.968125 353.215182 
L 42.493075 353.207806 
L 52.018025 353.200429 
L 61.542975 353.179682 
L 71.067925 353.158936 
L 80.592875 353.127278 
L 90.117825 353.095606 
L 99.642775 353.056697 
L 109.167725 353.017788 
L 118.692675 352.964364 
L 128.217625 352.910688 
L 137.742575 352.828455 
L 147.267525 352.745678 
L 156.792475 352.577385 
L 166.317425 352.405656 
L 175.842375 352.081015 
L 185.367325 351.749068 
L 194.892275 351.184632 
L 204.417225 350.61764 
L 213.942175 349.710834 
L 223.467125 348.794179 
L 232.992075 347.538327 
L 242.517025 346.271255 
L 252.041975 344.561112 
L 261.566925 342.835616 
L 271.091875 340.789698 
L 280.616825 336.689214 
L 290.141775 334.090973 
L 299.666725 331.215299 
L 309.191675 328.249639 
L 318.716625 325.028941 
L 328.241575 321.708267 
L 337.766525 318.361259 
L 347.291475 314.968007 
L 356.816425 311.675583 
L 366.341375 308.327275 
L 375.866325 304.903595 
L 385.391275 301.29033 
L 394.916225 297.985737 
L 404.441175 294.597012 
L 413.966125 291.495192 
L 423.491075 288.837938 
L 433.016025 285.852621 
L 442.540975 282.91683 
L 452.065925 283.639863 
L 461.590875 284.371083 
L 471.115825 282.916257 
L 480.640775 281.077625 
L 490.165725 280.482774 
L 499.690675 280.78963 
L 509.215625 280.729415 
L 518.740575 280.355556 
L 528.265525 280.12051 
L 537.790475 279.911031 
L 547.315425 279.351779 
L 556.840375 276.820067 
L 566.365325 269.135909 
L 575.890275 259.990456 
L 585.415225 257.568541 
L 594.940175 261.153333 
L 604.465125 266.316677 
L 613.990075 267.288768 
L 623.515025 267.495606 
L 633.039975 274.18979 
L 642.564925 281.742301 
L 652.089875 273.502509 
L 661.614825 251.482801 
L 671.139775 247.352573 
L 680.664725 269.518542 
L 690.189675 293.706022 
L 699.714625 307.06202 
L 709.239575 312.894036 
L 718.764525 318.834298 
L 728.289475 323.601484 
L 737.814425 323.514068 
L 747.339375 324.650037 
L 756.864325 325.874973 
L 766.389275 326.198747 
L 775.914225 326.502906 
L 785.439175 327.166842 
L 794.964125 327.897937 
L 804.489075 329.13831 
L 814.014025 330.330973 
L 823.538975 331.074487 
L 833.063925 331.839432 
L 842.588875 335.223757 
L 852.113825 338.581788 
L 861.638775 339.875697 
L 871.163725 341.140883 
L 880.688675 342.152875 
L 890.213625 343.156889 
L 899.738575 343.927535 
L 909.263525 344.705948 
L 918.788475 346.611305 
L 928.313425 348.512918 
L 937.838375 348.378966 
L 947.363325 348.245 
L 956.888275 349.082663 
L 966.413225 349.920327 
L 975.938175 348.972657 
L 985.463125 348.024987 
" clip-path="url(#p633fe9d40a)" style="fill: none; stroke: #d9534f; stroke-linecap: square"/>
   </g>
   <g id="line2d_8">
    <path d="M 32.968125 352.985998 
L 42.493075 353.043038 
L 52.018025 353.100079 
L 61.542975 353.129565 
L 71.067925 353.159052 
L 80.592875 353.153938 
L 90.117825 353.148825 
L 99.642775 353.12962 
L 109.167725 353.110559 
L 118.692675 353.068129 
L 128.217625 353.025468 
L 137.742575 352.934821 
L 147.267525 352.843722 
L 156.792475 352.681856 
L 166.317425 352.515041 
L 175.842375 352.242009 
L 185.367325 351.964814 
L 194.892275 351.44203 
L 204.417225 350.914552 
L 213.942175 350.035919 
L 223.467125 349.15499 
L 232.992075 347.942176 
L 242.517025 346.714487 
L 252.041975 345.134505 
L 261.566925 343.535595 
L 271.091875 341.633824 
L 280.616825 337.971331 
L 290.141775 335.589702 
L 299.666725 332.813826 
L 309.191675 329.943008 
L 318.716625 326.551095 
L 328.241575 323.018121 
L 337.766525 319.572702 
L 347.291475 316.070497 
L 356.816425 312.503674 
L 366.341375 308.912844 
L 375.866325 304.986816 
L 385.391275 300.761483 
L 394.916225 296.760226 
L 404.441175 292.77877 
L 413.966125 289.461479 
L 423.491075 286.274261 
L 433.016025 283.717634 
L 442.540975 281.40875 
L 452.065925 279.067806 
L 461.590875 276.093343 
L 471.115825 270.948052 
L 480.640775 265.058 
L 490.165725 258.712596 
L 499.690675 255.265211 
L 509.215625 260.374864 
L 518.740575 263.250133 
L 528.265525 252.287457 
L 537.790475 237.83785 
L 547.315425 236.726284 
L 556.840375 244.034794 
L 566.365325 248.613799 
L 575.890275 245.078341 
L 585.415225 234.625573 
L 594.940175 231.111363 
L 604.465125 244.80775 
L 613.990075 259.827254 
L 623.515025 268.631007 
L 633.039975 274.108943 
L 642.564925 277.783308 
L 652.089875 283.921367 
L 661.614825 292.913392 
L 671.139775 302.352122 
L 680.664725 309.412458 
L 690.189675 314.966518 
L 699.714625 319.224651 
L 709.239575 323.156719 
L 718.764525 326.614684 
L 728.289475 329.212415 
L 737.814425 331.426048 
L 747.339375 334.615564 
L 756.864325 336.106754 
L 766.389275 336.646745 
L 775.914225 337.203068 
L 785.439175 338.174534 
L 794.964125 339.15013 
L 804.489075 339.880755 
L 814.014025 340.485119 
L 823.538975 342.029054 
L 833.063925 343.730162 
L 842.588875 344.121074 
L 852.113825 344.438281 
L 861.638775 345.035919 
L 871.163725 345.609681 
L 880.688675 346.835978 
L 890.213625 348.062486 
L 899.738575 348.071431 
L 909.263525 348.079935 
L 918.788475 349.091036 
L 928.313425 350.102038 
L 937.838375 350.647848 
L 947.363325 351.193658 
L 956.888275 352.127133 
L 966.413225 353.060609 
L 975.938175 353.133187 
L 985.463125 353.205766 
" clip-path="url(#p633fe9d40a)" style="fill: none; stroke: #d9534f; stroke-linecap: square"/>
   </g>
   <g id="line2d_9">
    <path d="M 32.968125 353.206772 
L 42.493075 353.193372 
L 52.018025 353.179973 
L 61.542975 353.135713 
L 71.067925 353.091454 
L 80.592875 353.022818 
L 90.117825 352.954183 
L 99.642775 352.880192 
L 109.167725 352.806157 
L 118.692675 352.730319 
L 128.217625 352.654303 
L 137.742575 352.572357 
L 147.267525 352.490311 
L 156.792475 352.365898 
L 166.317425 352.23936 
L 175.842375 352.017001 
L 185.367325 351.78891 
L 194.892275 351.405856 
L 204.417225 351.021441 
L 213.942175 350.420885 
L 223.467125 349.813911 
L 232.992075 348.934388 
L 242.517025 348.044597 
L 252.041975 346.898289 
L 261.566925 345.744789 
L 271.091875 344.254275 
L 280.616825 341.205985 
L 290.141775 339.216347 
L 299.666725 336.898758 
L 309.191675 334.492916 
L 318.716625 331.743886 
L 328.241575 328.874183 
L 337.766525 325.75874 
L 347.291475 322.536234 
L 356.816425 319.095607 
L 366.341375 315.557807 
L 375.866325 311.783021 
L 385.391275 307.89835 
L 394.916225 304.213233 
L 404.441175 300.281536 
L 413.966125 296.690438 
L 423.491075 293.397593 
L 433.016025 290.496498 
L 442.540975 287.601091 
L 452.065925 285.879854 
L 461.590875 284.208264 
L 471.115825 282.011879 
L 480.640775 279.492899 
L 490.165725 277.486741 
L 499.690675 275.884406 
L 509.215625 274.556856 
L 518.740575 272.946842 
L 528.265525 271.039483 
L 537.790475 269.27029 
L 547.315425 267.031748 
L 556.840375 264.14246 
L 566.365325 260.015845 
L 575.890275 255.365607 
L 585.415225 253.551049 
L 594.940175 253.700303 
L 604.465125 255.581051 
L 613.990075 256.90828 
L 623.515025 258.507473 
L 633.039975 264.138433 
L 642.564925 271.070907 
L 652.089875 269.011339 
L 661.614825 260.140999 
L 671.139775 260.489199 
L 680.664725 276.373108 
L 690.189675 295.511356 
L 699.714625 305.337212 
L 709.239575 309.521166 
L 718.764525 315.075391 
L 728.289475 320.007362 
L 737.814425 321.275184 
L 747.339375 323.939247 
L 756.864325 326.025459 
L 766.389275 327.467464 
L 775.914225 328.910254 
L 785.439175 329.741767 
L 794.964125 330.537352 
L 804.489075 331.554577 
L 814.014025 332.581429 
L 823.538975 333.891132 
L 833.063925 335.199949 
L 842.588875 336.898526 
L 852.113825 338.578403 
L 861.638775 339.669232 
L 871.163725 340.726335 
L 880.688675 341.737873 
L 890.213625 342.742794 
L 899.738575 343.49391 
L 909.263525 344.250037 
L 918.788475 345.484278 
L 928.313425 346.715796 
L 937.838375 347.103121 
L 947.363325 347.490446 
L 956.888275 348.383978 
L 966.413225 349.277509 
L 975.938175 347.95226 
L 985.463125 346.627012 
" clip-path="url(#p633fe9d40a)" style="fill: none; stroke: #f0ad4e; stroke-linecap: square"/>
   </g>
   <g id="line2d_10">
    <path d="M 32.968125 353.217459 
L 42.493075 353.219442 
L 52.018025 353.221416 
L 61.542975 353.221378 
L 71.067925 353.221643 
L 80.592875 353.22152 
L 90.117825 353.220736 
L 99.642775 353.219423 
L 109.167725 353.217308 
L 118.692675 353.214966 
L 128.217625 353.211717 
L 137.742575 353.206125 
L 147.267525 353.196256 
L 156.792475 353.181674 
L 166.317425 353.156126 
L 175.842375 353.104663 
L 185.367325 353.02549 
L 194.892275 352.897933 
L 204.417225 352.681069 
L 213.942175 352.33322 
L 223.467125 351.795234 
L 232.992075 351.030524 
L 242.517025 349.95136 
L 252.041975 348.485247 
L 261.566925 346.601716 
L 271.091875 344.151772 
L 280.616825 341.117337 
L 290.141775 337.411929 
L 299.666725 333.065968 
L 309.191675 328.461086 
L 318.716625 323.70958 
L 328.241575 318.460358 
L 337.766525 313.159825 
L 347.291475 308.120233 
L 356.816425 303.112007 
L 366.341375 298.334754 
L 375.866325 293.855938 
L 385.391275 289.61907 
L 394.916225 285.85623 
L 404.441175 282.986781 
L 413.966125 280.511487 
L 423.491075 278.436753 
L 433.016025 277.000248 
L 442.540975 274.671826 
L 452.065925 270.635511 
L 461.590875 264.705853 
L 471.115825 261.26489 
L 480.640775 261.139496 
L 490.165725 257.537306 
L 499.690675 255.511173 
L 509.215625 259.255814 
L 518.740575 263.209518 
L 528.265525 265.450163 
L 537.790475 267.293366 
L 547.315425 267.439812 
L 556.840375 267.212635 
L 566.365325 269.449578 
L 575.890275 274.278879 
L 585.415225 274.235472 
L 594.940175 269.329019 
L 604.465125 269.893393 
L 613.990075 267.779445 
L 623.515025 262.37014 
L 633.039975 242.949585 
L 642.564925 218.414289 
L 652.089875 239.861052 
L 661.614825 282.197024 
L 671.139775 302.143447 
L 680.664725 310.224321 
L 690.189675 317.749888 
L 699.714625 323.918218 
L 709.239575 326.357764 
L 718.764525 327.834681 
L 728.289475 329.957715 
L 737.814425 330.879411 
L 747.339375 332.509518 
L 756.864325 333.987503 
L 766.389275 332.787516 
L 775.914225 333.653764 
L 785.439175 336.386202 
L 794.964125 338.636197 
L 804.489075 339.555778 
L 814.014025 340.626045 
L 823.538975 341.563891 
L 833.063925 342.697766 
L 842.588875 343.608554 
L 852.113825 344.244186 
L 861.638775 345.111756 
L 871.163725 345.997865 
L 880.688675 347.155266 
L 890.213625 348.242316 
L 899.738575 349.822651 
L 909.263525 351.454279 
L 918.788475 352.340558 
L 928.313425 352.654379 
L 937.838375 352.782871 
L 947.363325 352.856708 
L 956.888275 352.929582 
L 966.413225 352.928864 
L 975.938175 352.94883 
L 985.463125 353.064345 
" clip-path="url(#p633fe9d40a)" style="fill: none; stroke: #d9534f; stroke-linecap: square"/>
   </g>
   <g id="line2d_11">
    <path d="M 32.968125 353.222017 
L 42.493075 353.22264 
L 52.018025 353.223302 
L 61.542975 353.223461 
L 71.067925 353.223517 
L 80.592875 353.223421 
L 90.117825 353.223222 
L 99.642775 353.222815 
L 109.167725 353.222257 
L 118.692675 353.221379 
L 128.217625 353.220295 
L 137.742575 353.218332 
L 147.267525 353.213698 
L 156.792475 353.205912 
L 166.317425 353.193054 
L 175.842375 353.166499 
L 185.367325 353.121989 
L 194.892275 353.053788 
L 204.417225 352.935429 
L 213.942175 352.742407 
L 223.467125 352.444715 
L 232.992075 352.003098 
L 242.517025 351.371778 
L 252.041975 350.512858 
L 261.566925 349.409218 
L 271.091875 347.973531 
L 280.616825 346.183931 
L 290.141775 344.070985 
L 299.666725 341.653471 
L 309.191675 338.994772 
L 318.716625 336.167485 
L 328.241575 333.219948 
L 337.766525 330.272985 
L 347.291475 327.407904 
L 356.816425 324.680653 
L 366.341375 322.112067 
L 375.866325 319.644459 
L 385.391275 317.226036 
L 394.916225 315.119328 
L 404.441175 313.595474 
L 413.966125 312.110809 
L 423.491075 310.813319 
L 433.016025 309.751023 
L 442.540975 304.200361 
L 452.065925 291.433747 
L 461.590875 270.170561 
L 471.115825 259.665044 
L 480.640775 261.63377 
L 490.165725 250.974366 
L 499.690675 247.179523 
L 509.215625 260.077554 
L 518.740575 265.744692 
L 528.265525 262.591874 
L 537.790475 259.949623 
L 547.315425 255.215294 
L 556.840375 247.585452 
L 566.365325 246.433178 
L 575.890275 261.530312 
L 585.415225 263.696869 
L 594.940175 254.867707 
L 604.465125 263.30005 
L 613.990075 264.826616 
L 623.515025 259.208 
L 633.039975 254.315524 
L 642.564925 246.296106 
L 652.089875 257.575622 
L 661.614825 282.380996 
L 671.139775 296.403494 
L 680.664725 305.779319 
L 690.189675 313.104832 
L 699.714625 315.501718 
L 709.239575 315.263508 
L 718.764525 311.954664 
L 728.289475 313.775812 
L 737.814425 313.005497 
L 747.339375 317.833705 
L 756.864325 319.888293 
L 766.389275 313.097732 
L 775.914225 315.726503 
L 785.439175 320.500716 
L 794.964125 323.041598 
L 804.489075 322.031957 
L 814.014025 324.121179 
L 823.538975 326.223787 
L 833.063925 327.442499 
L 842.588875 327.422509 
L 852.113825 327.916828 
L 861.638775 331.722736 
L 871.163725 332.483367 
L 880.688675 332.367313 
L 890.213625 335.766956 
L 899.738575 341.787608 
L 909.263525 347.901038 
L 918.788475 351.210528 
L 928.313425 352.088521 
L 937.838375 352.411316 
L 947.363325 352.685262 
L 956.888275 352.838431 
L 966.413225 352.893024 
L 975.938175 352.967647 
L 985.463125 353.070858 
" clip-path="url(#p633fe9d40a)" style="fill: none; stroke: #d9534f; stroke-linecap: square"/>
   </g>
   <g id="line2d_12">
    <path d="M 32.968125 353.215613 
L 42.493075 353.218142 
L 52.018025 353.221017 
L 61.542975 353.221499 
L 71.067925 353.221761 
L 80.592875 353.221685 
L 90.117825 353.221169 
L 99.642775 353.219976 
L 109.167725 353.217389 
L 118.692675 353.214878 
L 128.217625 353.212315 
L 137.742575 353.205974 
L 147.267525 353.194271 
L 156.792475 353.175228 
L 166.317425 353.144728 
L 175.842375 353.087389 
L 185.367325 352.9864 
L 194.892275 352.817587 
L 204.417225 352.54946 
L 213.942175 352.117543 
L 223.467125 351.459812 
L 232.992075 350.525329 
L 242.517025 349.188533 
L 252.041975 347.393708 
L 261.566925 345.113153 
L 271.091875 342.152214 
L 280.616825 338.460967 
L 290.141775 334.202112 
L 299.666725 329.449984 
L 309.191675 324.242169 
L 318.716625 318.706631 
L 328.241575 312.980193 
L 337.766525 307.212338 
L 347.291475 301.63923 
L 356.816425 296.383631 
L 366.341375 291.430253 
L 375.866325 286.643845 
L 385.391275 282.085466 
L 394.916225 278.094045 
L 404.441175 275.028371 
L 413.966125 272.301634 
L 423.491075 269.760537 
L 433.016025 268.348424 
L 442.540975 265.84159 
L 452.065925 261.913816 
L 461.590875 257.552408 
L 471.115825 254.585211 
L 480.640775 253.935353 
L 490.165725 248.3695 
L 499.690675 243.394974 
L 509.215625 245.883966 
L 518.740575 252.41558 
L 528.265525 258.941444 
L 537.790475 262.950133 
L 547.315425 265.729685 
L 556.840375 269.233846 
L 566.365325 273.917482 
L 575.890275 278.174071 
L 585.415225 278.903482 
L 594.940175 276.022823 
L 604.465125 276.16226 
L 613.990075 274.838351 
L 623.515025 271.802772 
L 633.039975 255.849338 
L 642.564925 234.769494 
L 652.089875 253.042227 
L 661.614825 290.774839 
L 671.139775 309.825834 
L 680.664725 316.593434 
L 690.189675 323.21041 
L 699.714625 329.299207 
L 709.239575 331.86809 
L 718.764525 333.625591 
L 728.289475 335.42565 
L 737.814425 336.659978 
L 747.339375 337.477271 
L 756.864325 338.377212 
L 766.389275 337.989012 
L 775.914225 338.31956 
L 785.439175 340.647045 
L 794.964125 342.720837 
L 804.489075 343.792914 
L 814.014025 344.7184 
L 823.538975 345.495976 
L 833.063925 346.402546 
L 842.588875 347.209937 
L 852.113825 347.882736 
L 861.638775 348.418069 
L 871.163725 349.236284 
L 880.688675 350.357929 
L 890.213625 351.002029 
L 899.738575 351.586557 
L 909.263525 352.244982 
L 918.788475 352.659285 
L 928.313425 352.828132 
L 937.838375 352.902408 
L 947.363325 352.932705 
L 956.888275 352.966537 
L 966.413225 352.937255 
L 975.938175 352.949871 
L 985.463125 353.067948 
" clip-path="url(#p633fe9d40a)" style="fill: none; stroke: #d9534f; stroke-linecap: square"/>
   </g>
   <g id="line2d_13">
    <path d="M 32.968125 353.220219 
L 42.493075 353.221214 
L 52.018025 353.222315 
L 61.542975 353.222614 
L 71.067925 353.222667 
L 80.592875 353.222297 
L 90.117825 353.221751 
L 99.642775 353.220827 
L 109.167725 353.218617 
L 118.692675 353.216125 
L 128.217625 353.213122 
L 137.742575 353.207425 
L 147.267525 353.198567 
L 156.792475 353.18336 
L 166.317425 353.156476 
L 175.842375 353.105449 
L 185.367325 353.018909 
L 194.892275 352.877607 
L 204.417225 352.65673 
L 213.942175 352.295486 
L 223.467125 351.761231 
L 232.992075 350.988339 
L 242.517025 349.884309 
L 252.041975 348.410131 
L 261.566925 346.495336 
L 271.091875 344.038274 
L 280.616825 340.966281 
L 290.141775 337.338319 
L 299.666725 333.294915 
L 309.191675 328.922785 
L 318.716625 324.289414 
L 328.241575 319.437412 
L 337.766525 314.553745 
L 347.291475 309.969456 
L 356.816425 305.646601 
L 366.341375 301.278583 
L 375.866325 296.940345 
L 385.391275 292.762798 
L 394.916225 288.915598 
L 404.441175 285.86399 
L 413.966125 282.872232 
L 423.491075 279.810806 
L 433.016025 277.724472 
L 442.540975 274.105183 
L 452.065925 268.264767 
L 461.590875 261.386492 
L 471.115825 256.0664 
L 480.640775 253.813034 
L 490.165725 244.983167 
L 499.690675 236.728729 
L 509.215625 238.630844 
L 518.740575 245.949172 
L 528.265525 252.813067 
L 537.790475 256.325633 
L 547.315425 258.520037 
L 556.840375 261.723258 
L 566.365325 266.573252 
L 575.890275 271.064397 
L 585.415225 271.964141 
L 594.940175 269.02954 
L 604.465125 269.434988 
L 613.990075 268.482676 
L 623.515025 266.497525 
L 633.039975 257.173134 
L 642.564925 241.899357 
L 652.089875 256.025419 
L 661.614825 287.88224 
L 671.139775 304.57361 
L 680.664725 310.992916 
L 690.189675 317.924842 
L 699.714625 324.171156 
L 709.239575 327.271609 
L 718.764525 329.527589 
L 728.289475 331.729117 
L 737.814425 333.329301 
L 747.339375 334.688056 
L 756.864325 335.92335 
L 766.389275 335.062747 
L 775.914225 335.148538 
L 785.439175 338.021034 
L 794.964125 340.727776 
L 804.489075 342.002043 
L 814.014025 342.844868 
L 823.538975 343.677443 
L 833.063925 344.695911 
L 842.588875 345.474262 
L 852.113825 346.256699 
L 861.638775 346.765198 
L 871.163725 347.631974 
L 880.688675 349.096351 
L 890.213625 350.016162 
L 899.738575 350.834288 
L 909.263525 351.814134 
L 918.788475 352.502987 
L 928.313425 352.766059 
L 937.838375 352.887839 
L 947.363325 352.961285 
L 956.888275 353.022404 
L 966.413225 352.993619 
L 975.938175 353.02664 
L 985.463125 353.137465 
" clip-path="url(#p633fe9d40a)" style="fill: none; stroke: #f0ad4e; stroke-linecap: square"/>
   </g>
   <g id="line2d_14">
    <path d="M 32.968125 353.214725 
L 42.493075 353.203856 
L 52.018025 353.192986 
L 61.542975 353.190093 
L 71.067925 353.187199 
L 80.592875 353.174906 
L 90.117825 353.162614 
L 99.642775 353.14871 
L 109.167725 353.134806 
L 118.692675 353.098858 
L 128.217625 353.062698 
L 137.742575 352.97765 
L 147.267525 352.892379 
L 156.792475 352.738552 
L 166.317425 352.581573 
L 175.842375 352.288223 
L 185.367325 351.989051 
L 194.892275 351.429384 
L 204.417225 350.863141 
L 213.942175 349.975399 
L 223.467125 349.084352 
L 232.992075 347.847138 
L 242.517025 346.603655 
L 252.041975 344.940698 
L 261.566925 343.249803 
L 271.091875 341.320916 
L 280.616825 337.517476 
L 290.141775 335.031051 
L 299.666725 332.288801 
L 309.191675 329.476101 
L 318.716625 326.370393 
L 328.241575 323.168238 
L 337.766525 320.018407 
L 347.291475 316.859929 
L 356.816425 313.759373 
L 366.341375 310.517647 
L 375.866325 306.732252 
L 385.391275 302.786549 
L 394.916225 299.600533 
L 404.441175 296.461394 
L 413.966125 294.390126 
L 423.491075 292.650649 
L 433.016025 291.191948 
L 442.540975 290.047628 
L 452.065925 288.559859 
L 461.590875 285.310241 
L 471.115825 274.188754 
L 480.640775 261.493215 
L 490.165725 242.487803 
L 499.690675 230.254674 
L 509.215625 255.06518 
L 518.740575 272.536501 
L 528.265525 269.313526 
L 537.790475 259.894732 
L 547.315425 243.251632 
L 556.840375 248.041412 
L 566.365325 255.335133 
L 575.890275 241.610977 
L 585.415225 219.255007 
L 594.940175 211.913151 
L 604.465125 234.853033 
L 613.990075 252.761755 
L 623.515025 255.947688 
L 633.039975 256.49918 
L 642.564925 254.411349 
L 652.089875 261.588497 
L 661.614825 280.375915 
L 671.139775 300.538374 
L 680.664725 313.707038 
L 690.189675 320.377877 
L 699.714625 323.73701 
L 709.239575 328.027892 
L 718.764525 331.107992 
L 728.289475 331.274429 
L 737.814425 332.783794 
L 747.339375 336.497905 
L 756.864325 338.203515 
L 766.389275 338.429709 
L 775.914225 338.676676 
L 785.439175 340.341222 
L 794.964125 342.016236 
L 804.489075 342.593701 
L 814.014025 343.073991 
L 823.538975 344.230709 
L 833.063925 345.476239 
L 842.588875 345.494037 
L 852.113825 345.524574 
L 861.638775 346.355205 
L 871.163725 347.132632 
L 880.688675 348.46868 
L 890.213625 349.80468 
L 899.738575 349.82396 
L 909.263525 349.842946 
L 918.788475 350.898101 
L 928.313425 351.95315 
L 937.838375 352.273766 
L 947.363325 352.594383 
L 956.888275 352.891356 
L 966.413225 353.188328 
L 975.938175 353.200009 
L 985.463125 353.21169 
" clip-path="url(#p633fe9d40a)" style="fill: none; stroke: #d9534f; stroke-linecap: square"/>
   </g>
   <g id="line2d_15">
    <path d="M 32.968125 353.214297 
L 42.493075 353.204376 
L 52.018025 353.194455 
L 61.542975 353.167176 
L 71.067925 353.139897 
L 80.592875 353.103933 
L 90.117825 353.067957 
L 99.642775 353.024672 
L 109.167725 352.981412 
L 118.692675 352.936562 
L 128.217625 352.891524 
L 137.742575 352.826457 
L 147.267525 352.760989 
L 156.792475 352.630618 
L 166.317425 352.498671 
L 175.842375 352.245685 
L 185.367325 351.984732 
L 194.892275 351.513277 
L 204.417225 351.039491 
L 213.942175 350.328808 
L 223.467125 349.613546 
L 232.992075 348.581632 
L 242.517025 347.534818 
L 252.041975 346.139259 
L 261.566925 344.735239 
L 271.091875 342.970704 
L 280.616825 339.497147 
L 290.141775 337.323683 
L 299.666725 334.781338 
L 309.191675 332.167523 
L 318.716625 329.390315 
L 328.241575 326.464978 
L 337.766525 323.433961 
L 347.291475 320.417513 
L 356.816425 317.362335 
L 366.341375 314.185271 
L 375.866325 310.903398 
L 385.391275 307.5986 
L 394.916225 304.502373 
L 404.441175 300.993499 
L 413.966125 298.074093 
L 423.491075 295.990187 
L 433.016025 293.945858 
L 442.540975 291.626501 
L 452.065925 291.514713 
L 461.590875 291.401806 
L 471.115825 290.130404 
L 480.640775 288.647147 
L 490.165725 287.600334 
L 499.690675 287.324199 
L 509.215625 287.254601 
L 518.740575 286.875469 
L 528.265525 285.748736 
L 537.790475 284.14843 
L 547.315425 280.136773 
L 556.840375 273.835769 
L 566.365325 262.251787 
L 575.890275 247.76244 
L 585.415225 241.170332 
L 594.940175 240.910826 
L 604.465125 245.256954 
L 613.990075 246.796688 
L 623.515025 245.027269 
L 633.039975 251.791644 
L 642.564925 258.223549 
L 652.089875 243.793585 
L 661.614825 213.772172 
L 671.139775 199.784407 
L 680.664725 229.582537 
L 690.189675 278.773613 
L 699.714625 305.38803 
L 709.239575 314.319325 
L 718.764525 323.787484 
L 728.289475 330.468127 
L 737.814425 331.304932 
L 747.339375 332.954289 
L 756.864325 333.927727 
L 766.389275 334.798214 
L 775.914225 335.576731 
L 785.439175 336.117843 
L 794.964125 336.812345 
L 804.489075 337.735437 
L 814.014025 338.57176 
L 823.538975 338.85492 
L 833.063925 339.153332 
L 842.588875 341.527542 
L 852.113825 343.880745 
L 861.638775 345.530114 
L 871.163725 347.159994 
L 880.688675 347.774577 
L 890.213625 348.38231 
L 899.738575 348.543455 
L 909.263525 348.712956 
L 918.788475 349.836464 
L 928.313425 350.956077 
L 937.838375 351.154445 
L 947.363325 351.352814 
L 956.888275 351.150915 
L 966.413225 350.949016 
L 975.938175 349.29501 
L 985.463125 347.641005 
" clip-path="url(#p633fe9d40a)" style="fill: none; stroke: #d9534f; stroke-linecap: square"/>
   </g>
   <g id="line2d_16">
    <path d="M 32.968125 353.219491 
L 42.493075 353.221327 
L 52.018025 353.22317 
L 61.542975 353.223236 
L 71.067925 353.223229 
L 80.592875 353.222846 
L 90.117825 353.222322 
L 99.642775 353.22188 
L 109.167725 353.221238 
L 118.692675 353.220412 
L 128.217625 353.218739 
L 137.742575 353.215568 
L 147.267525 353.210134 
L 156.792475 353.202517 
L 166.317425 353.186156 
L 175.842375 353.154708 
L 185.367325 353.096997 
L 194.892275 352.997176 
L 204.417225 352.835662 
L 213.942175 352.571039 
L 223.467125 352.143677 
L 232.992075 351.527963 
L 242.517025 350.652057 
L 252.041975 349.417089 
L 261.566925 347.814175 
L 271.091875 345.691991 
L 280.616825 343.034764 
L 290.141775 339.916708 
L 299.666725 336.331741 
L 309.191675 332.372721 
L 318.716625 328.134627 
L 328.241575 323.660717 
L 337.766525 319.160654 
L 347.291475 314.613408 
L 356.816425 309.915414 
L 366.341375 305.26542 
L 375.866325 300.744114 
L 385.391275 296.296402 
L 394.916225 292.177269 
L 404.441175 288.503607 
L 413.966125 285.069705 
L 423.491075 282.366049 
L 433.016025 280.300204 
L 442.540975 277.973637 
L 452.065925 274.932743 
L 461.590875 270.809747 
L 471.115825 268.162578 
L 480.640775 267.303417 
L 490.165725 265.225841 
L 499.690675 264.044825 
L 509.215625 265.018981 
L 518.740575 265.309957 
L 528.265525 264.994627 
L 537.790475 265.202246 
L 547.315425 264.539225 
L 556.840375 264.055044 
L 566.365325 265.192005 
L 575.890275 267.960488 
L 585.415225 267.236695 
L 594.940175 262.358871 
L 604.465125 261.337857 
L 613.990075 258.904833 
L 623.515025 254.350243 
L 633.039975 236.2418 
L 642.564925 211.392324 
L 652.089875 232.872342 
L 661.614825 278.093572 
L 671.139775 299.147511 
L 680.664725 306.966879 
L 690.189675 314.295659 
L 699.714625 320.659618 
L 709.239575 323.754012 
L 718.764525 325.579374 
L 728.289475 327.909348 
L 737.814425 329.16078 
L 747.339375 329.323157 
L 756.864325 329.841749 
L 766.389275 328.579139 
L 775.914225 328.714691 
L 785.439175 332.384843 
L 794.964125 335.877703 
L 804.489075 337.620696 
L 814.014025 338.679691 
L 823.538975 339.542915 
L 833.063925 340.708757 
L 842.588875 341.785344 
L 852.113825 342.856188 
L 861.638775 343.660823 
L 871.163725 345.199618 
L 880.688675 347.310662 
L 890.213625 348.350611 
L 899.738575 349.709016 
L 909.263525 351.350139 
L 918.788475 352.227786 
L 928.313425 352.59846 
L 937.838375 352.787993 
L 947.363325 352.910701 
L 956.888275 353.003908 
L 966.413225 352.991417 
L 975.938175 353.003878 
L 985.463125 353.097587 
" clip-path="url(#p633fe9d40a)" style="fill: none; stroke: #d9534f; stroke-linecap: square"/>
   </g>
   <g id="line2d_17">
    <path d="M 32.968125 353.222001 
L 42.493075 353.222589 
L 52.018025 353.223292 
L 61.542975 353.223231 
L 71.067925 353.223149 
L 80.592875 353.223087 
L 90.117825 353.222875 
L 99.642775 353.2225 
L 109.167725 353.221318 
L 118.692675 353.21985 
L 128.217625 353.219119 
L 137.742575 353.217104 
L 147.267525 353.212882 
L 156.792475 353.206339 
L 166.317425 353.195963 
L 175.842375 353.17722 
L 185.367325 353.147207 
L 194.892275 353.097311 
L 204.417225 353.013569 
L 213.942175 352.882389 
L 223.467125 352.679496 
L 232.992075 352.392104 
L 242.517025 351.985239 
L 252.041975 351.408909 
L 261.566925 350.660855 
L 271.091875 349.614909 
L 280.616825 348.298161 
L 290.141775 346.698386 
L 299.666725 344.696602 
L 309.191675 342.590455 
L 318.716625 340.361352 
L 328.241575 337.799017 
L 337.766525 335.15292 
L 347.291475 332.496905 
L 356.816425 329.642191 
L 366.341375 326.695723 
L 375.866325 323.720369 
L 385.391275 320.832876 
L 394.916225 318.269031 
L 404.441175 315.881229 
L 413.966125 313.311012 
L 423.491075 310.923196 
L 433.016025 308.980742 
L 442.540975 306.769733 
L 452.065925 303.476051 
L 461.590875 298.00263 
L 471.115825 293.76341 
L 480.640775 291.079848 
L 490.165725 287.954694 
L 499.690675 287.994161 
L 509.215625 289.761331 
L 518.740575 289.402457 
L 528.265525 287.886792 
L 537.790475 286.489459 
L 547.315425 284.19268 
L 556.840375 282.651435 
L 566.365325 282.225103 
L 575.890275 283.092718 
L 585.415225 272.930051 
L 594.940175 248.196797 
L 604.465125 231.512857 
L 613.990075 200.109276 
L 623.515025 165.704159 
L 633.039975 119.816075 
L 642.564925 50.397218 
L 652.089875 92.462147 
L 661.614825 214.888486 
L 671.139775 277.68375 
L 680.664725 293.663999 
L 690.189675 309.78941 
L 699.714625 324.500657 
L 709.239575 327.574199 
L 718.764525 328.501889 
L 728.289475 330.728212 
L 737.814425 332.793464 
L 747.339375 333.327875 
L 756.864325 333.397553 
L 766.389275 331.403938 
L 775.914225 330.869206 
L 785.439175 334.025575 
L 794.964125 337.380793 
L 804.489075 338.75853 
L 814.014025 339.380801 
L 823.538975 340.171779 
L 833.063925 341.143812 
L 842.588875 341.53968 
L 852.113825 342.082198 
L 861.638775 342.607702 
L 871.163725 344.137683 
L 880.688675 346.676877 
L 890.213625 348.086915 
L 899.738575 349.460588 
L 909.263525 351.156256 
L 918.788475 352.215262 
L 928.313425 352.611991 
L 937.838375 352.802329 
L 947.363325 352.921077 
L 956.888275 353.047878 
L 966.413225 353.052222 
L 975.938175 353.059606 
L 985.463125 353.124926 
" clip-path="url(#p633fe9d40a)" style="fill: none; stroke: #d9534f; stroke-linecap: square"/>
   </g>
   <g id="line2d_18">
    <path d="M 32.968125 353.222791 
L 42.493075 353.223188 
L 52.018025 353.223577 
L 61.542975 353.223569 
L 71.067925 353.223486 
L 80.592875 353.223287 
L 90.117825 353.22313 
L 99.642775 353.222766 
L 109.167725 353.222459 
L 118.692675 353.222029 
L 128.217625 353.22111 
L 137.742575 353.219471 
L 147.267525 353.216738 
L 156.792475 353.212963 
L 166.317425 353.206083 
L 175.842375 353.19282 
L 185.367325 353.168711 
L 194.892275 353.126818 
L 204.417225 353.063077 
L 213.942175 352.956929 
L 223.467125 352.782362 
L 232.992075 352.537629 
L 242.517025 352.195094 
L 252.041975 351.716789 
L 261.566925 351.097563 
L 271.091875 350.275944 
L 280.616825 349.24925 
L 290.141775 348.014541 
L 299.666725 346.596373 
L 309.191675 345.107046 
L 318.716625 343.517391 
L 328.241575 341.815586 
L 337.766525 340.130646 
L 347.291475 338.474021 
L 356.816425 336.775785 
L 366.341375 335.08245 
L 375.866325 333.44394 
L 385.391275 331.756673 
L 394.916225 330.192005 
L 404.441175 328.918235 
L 413.966125 327.589267 
L 423.491075 326.461575 
L 433.016025 325.338618 
L 442.540975 319.387824 
L 452.065925 304.83552 
L 461.590875 279.205515 
L 471.115825 266.691697 
L 480.640775 268.526582 
L 490.165725 254.409929 
L 499.690675 249.659916 
L 509.215625 263.548667 
L 518.740575 267.477177 
L 528.265525 260.196919 
L 537.790475 254.542636 
L 547.315425 248.397107 
L 556.840375 237.960141 
L 566.365325 233.140989 
L 575.890275 249.51084 
L 585.415225 252.40417 
L 594.940175 242.264974 
L 604.465125 253.863361 
L 613.990075 258.028772 
L 623.515025 254.613415 
L 633.039975 257.028588 
L 642.564925 252.347267 
L 652.089875 258.759005 
L 661.614825 279.810517 
L 671.139775 290.937504 
L 680.664725 299.959878 
L 690.189675 306.935918 
L 699.714625 307.805051 
L 709.239575 306.928276 
L 718.764525 302.119051 
L 728.289475 303.15159 
L 737.814425 302.661156 
L 747.339375 309.315068 
L 756.864325 311.462145 
L 766.389275 303.598667 
L 775.914225 307.206606 
L 785.439175 313.007969 
L 794.964125 316.170124 
L 804.489075 315.239866 
L 814.014025 317.479255 
L 823.538975 320.02533 
L 833.063925 321.616972 
L 842.588875 321.807989 
L 852.113825 322.731749 
L 861.638775 327.380209 
L 871.163725 328.683677 
L 880.688675 328.268525 
L 890.213625 331.489123 
L 899.738575 339.237512 
L 909.263525 347.331946 
L 918.788475 351.04528 
L 928.313425 352.144533 
L 937.838375 352.546008 
L 947.363325 352.86022 
L 956.888275 353.064434 
L 966.413225 353.116494 
L 975.938175 353.132374 
L 985.463125 353.167063 
" clip-path="url(#p633fe9d40a)" style="fill: none; stroke: #f0ad4e; stroke-linecap: square"/>
   </g>
   <g id="line2d_19">
    <path d="M 32.968125 353.222486 
L 42.493075 353.222927 
L 52.018025 353.223391 
L 61.542975 353.223383 
L 71.067925 353.223482 
L 80.592875 353.223429 
L 90.117825 353.222958 
L 99.642775 353.222524 
L 109.167725 353.22216 
L 118.692675 353.221164 
L 128.217625 353.219636 
L 137.742575 353.218291 
L 147.267525 353.214643 
L 156.792475 353.208594 
L 166.317425 353.198608 
L 175.842375 353.181219 
L 185.367325 353.149436 
L 194.892275 353.094413 
L 204.417225 353.00323 
L 213.942175 352.864312 
L 223.467125 352.66515 
L 232.992075 352.371134 
L 242.517025 351.944325 
L 252.041975 351.369197 
L 261.566925 350.608078 
L 271.091875 349.607585 
L 280.616825 348.368791 
L 290.141775 346.841612 
L 299.666725 345.045603 
L 309.191675 343.143774 
L 318.716625 341.11622 
L 328.241575 338.861581 
L 337.766525 336.6219 
L 347.291475 334.401134 
L 356.816425 331.920871 
L 366.341375 329.289735 
L 375.866325 326.639918 
L 385.391275 324.006221 
L 394.916225 321.522485 
L 404.441175 319.071367 
L 413.966125 316.369104 
L 423.491075 313.950232 
L 433.016025 311.878416 
L 442.540975 308.896995 
L 452.065925 303.841288 
L 461.590875 296.094831 
L 471.115825 290.870574 
L 480.640775 289.013652 
L 490.165725 284.688459 
L 499.690675 282.27699 
L 509.215625 283.527374 
L 518.740575 282.397273 
L 528.265525 279.537768 
L 537.790475 277.143551 
L 547.315425 273.039856 
L 556.840375 269.485876 
L 566.365325 268.784263 
L 575.890275 271.171398 
L 585.415225 263.467546 
L 594.940175 244.613712 
L 604.465125 235.727586 
L 613.990075 221.421377 
L 623.515025 203.943765 
L 633.039975 161.41537 
L 642.564925 99.076225 
L 652.089875 140.56891 
L 661.614825 238.54178 
L 671.139775 281.427833 
L 680.664725 294.741324 
L 690.189675 307.373821 
L 699.714625 318.347981 
L 709.239575 321.128036 
L 718.764525 321.809813 
L 728.289475 324.28538 
L 737.814425 325.233494 
L 747.339375 324.756959 
L 756.864325 324.603039 
L 766.389275 321.697951 
L 775.914225 321.108847 
L 785.439175 325.611359 
L 794.964125 329.84581 
L 804.489075 331.123682 
L 814.014025 331.969571 
L 823.538975 333.127981 
L 833.063925 334.536579 
L 842.588875 335.019224 
L 852.113825 335.754542 
L 861.638775 336.945745 
L 871.163725 338.948873 
L 880.688675 341.529303 
L 890.213625 343.404693 
L 899.738575 346.328332 
L 909.263525 349.677534 
L 918.788475 351.60474 
L 928.313425 352.340119 
L 937.838375 352.670151 
L 947.363325 352.903292 
L 956.888275 353.106915 
L 966.413225 353.124258 
L 975.938175 353.127184 
L 985.463125 353.167372 
" clip-path="url(#p633fe9d40a)" style="fill: none; stroke: #d9534f; stroke-linecap: square"/>
   </g>
   <g id="line2d_20">
    <path d="M 32.968125 353.214909 
L 42.493075 353.199343 
L 52.018025 353.183777 
L 61.542975 353.180402 
L 71.067925 353.177027 
L 80.592875 353.163933 
L 90.117825 353.15084 
L 99.642775 353.124669 
L 109.167725 353.09854 
L 118.692675 353.041498 
L 128.217625 352.984368 
L 137.742575 352.865119 
L 147.267525 352.745375 
L 156.792475 352.528218 
L 166.317425 352.304572 
L 175.842375 351.89419 
L 185.367325 351.480417 
L 194.892275 350.734792 
L 204.417225 349.980176 
L 213.942175 348.809111 
L 223.467125 347.630161 
L 232.992075 345.952319 
L 242.517025 344.26214 
L 252.041975 342.038474 
L 261.566925 339.798209 
L 271.091875 337.280063 
L 280.616825 332.266904 
L 290.141775 329.022933 
L 299.666725 325.586944 
L 309.191675 322.085707 
L 318.716625 318.306969 
L 328.241575 314.427995 
L 337.766525 310.730362 
L 347.291475 306.989026 
L 356.816425 303.506978 
L 366.341375 299.985404 
L 375.866325 295.942489 
L 385.391275 291.698668 
L 394.916225 288.326108 
L 404.441175 285.100759 
L 413.966125 283.459621 
L 423.491075 282.245974 
L 433.016025 281.627134 
L 442.540975 281.345966 
L 452.065925 280.172355 
L 461.590875 277.362349 
L 471.115825 270.132448 
L 480.640775 261.669799 
L 490.165725 249.981539 
L 499.690675 244.2404 
L 509.215625 256.292316 
L 518.740575 263.172979 
L 528.265525 266.081183 
L 537.790475 265.225634 
L 547.315425 256.465305 
L 556.840375 260.19106 
L 566.365325 263.612472 
L 575.890275 252.515294 
L 585.415225 235.712504 
L 594.940175 230.910115 
L 604.465125 249.935232 
L 613.990075 267.964632 
L 623.515025 275.043132 
L 633.039975 278.383076 
L 642.564925 278.785806 
L 652.089875 284.532705 
L 661.614825 297.968929 
L 671.139775 311.47171 
L 680.664725 319.877549 
L 690.189675 325.21472 
L 699.714625 327.772102 
L 709.239575 329.875966 
L 718.764525 332.118835 
L 728.289475 332.556888 
L 737.814425 332.544886 
L 747.339375 334.918221 
L 756.864325 336.548011 
L 766.389275 336.418462 
L 775.914225 336.300551 
L 785.439175 337.569509 
L 794.964125 338.866632 
L 804.489075 339.436504 
L 814.014025 339.890908 
L 823.538975 341.18307 
L 833.063925 342.615823 
L 842.588875 342.470388 
L 852.113825 342.279737 
L 861.638775 343.137891 
L 871.163725 343.963006 
L 880.688675 345.725808 
L 890.213625 347.488494 
L 899.738575 347.718046 
L 909.263525 347.946972 
L 918.788475 349.084998 
L 928.313425 350.222981 
L 937.838375 350.839363 
L 947.363325 351.455744 
L 956.888275 352.287406 
L 966.413225 353.119068 
L 975.938175 353.163948 
L 985.463125 353.208828 
" clip-path="url(#p633fe9d40a)" style="fill: none; stroke: #d9534f; stroke-linecap: square"/>
   </g>
   <g id="line2d_21">
    <path d="M 32.968125 353.20977 
L 42.493075 353.198568 
L 52.018025 353.187366 
L 61.542975 353.157969 
L 71.067925 353.128559 
L 80.592875 353.089504 
L 90.117825 353.050464 
L 99.642775 352.998693 
L 109.167725 352.946922 
L 118.692675 352.88153 
L 128.217625 352.815731 
L 137.742575 352.705691 
L 147.267525 352.59504 
L 156.792475 352.381953 
L 166.317425 352.164321 
L 175.842375 351.766902 
L 185.367325 351.361704 
L 194.892275 350.662529 
L 204.417225 349.96092 
L 213.942175 348.858033 
L 223.467125 347.742764 
L 232.992075 346.250193 
L 242.517025 344.741525 
L 252.041975 342.667495 
L 261.566925 340.584011 
L 271.091875 338.253208 
L 280.616825 333.575926 
L 290.141775 330.610697 
L 299.666725 327.333078 
L 309.191675 323.992121 
L 318.716625 320.626924 
L 328.241575 317.174092 
L 337.766525 313.889713 
L 347.291475 310.610768 
L 356.816425 307.470283 
L 366.341375 304.254137 
L 375.866325 301.054597 
L 385.391275 297.852828 
L 394.916225 294.974871 
L 404.441175 291.779861 
L 413.966125 289.279934 
L 423.491075 287.481818 
L 433.016025 285.594655 
L 442.540975 283.723005 
L 452.065925 284.622463 
L 461.590875 285.431416 
L 471.115825 284.635661 
L 480.640775 283.51592 
L 490.165725 283.181809 
L 499.690675 283.718722 
L 509.215625 284.153957 
L 518.740575 284.298914 
L 528.265525 284.383724 
L 537.790475 284.156769 
L 547.315425 281.69304 
L 556.840375 277.088099 
L 566.365325 268.223965 
L 575.890275 257.777789 
L 585.415225 254.895491 
L 594.940175 258.016005 
L 604.465125 262.909986 
L 613.990075 264.837544 
L 623.515025 265.095571 
L 633.039975 271.00275 
L 642.564925 278.843445 
L 652.089875 270.314019 
L 661.614825 246.507598 
L 671.139775 240.101526 
L 680.664725 265.282699 
L 690.189675 296.162597 
L 699.714625 311.549761 
L 709.239575 317.542202 
L 718.764525 324.223067 
L 728.289475 329.143692 
L 737.814425 329.169388 
L 747.339375 330.086283 
L 756.864325 331.007868 
L 766.389275 331.870982 
L 775.914225 332.718552 
L 785.439175 332.994889 
L 794.964125 333.342168 
L 804.489075 334.033944 
L 814.014025 334.671413 
L 823.538975 335.223811 
L 833.063925 335.794592 
L 842.588875 338.031934 
L 852.113825 340.246041 
L 861.638775 341.195566 
L 871.163725 342.122978 
L 880.688675 343.008569 
L 890.213625 343.888565 
L 899.738575 344.234693 
L 909.263525 344.588076 
L 918.788475 346.128893 
L 928.313425 347.666141 
L 937.838375 347.865754 
L 947.363325 348.065322 
L 956.888275 349.001504 
L 966.413225 349.937686 
L 975.938175 348.404691 
L 985.463125 346.871697 
" clip-path="url(#p633fe9d40a)" style="fill: none; stroke: #d9534f; stroke-linecap: square"/>
   </g>
   <g id="line2d_22">
    <path d="M 32.968125 353.2239 
L 985.463125 353.2239 
" clip-path="url(#p633fe9d40a)" style="fill: none; stroke: #dedede; stroke-width: 2; stroke-linecap: square"/>
   </g>
   <g id="text_14">
    <!-- FastQC: Per Sequence GC Content -->
    <g transform="translate(372.579375 19.3575) scale(0.16 -0.16)">
     <defs>
      <path id="DejaVuSans-46" d="M 628 4666 
L 3309 4666 
L 3309 4134 
L 1259 4134 
L 1259 2759 
L 3109 2759 
L 3109 2228 
L 1259 2228 
L 1259 0 
L 628 0 
L 628 4666 
z
" transform="scale(0.015625)"/>
      <path id="DejaVuSans-73" d="M 2834 3397 
L 2834 2853 
Q 2591 2978 2328 3040 
Q 2066 3103 1784 3103 
Q 1356 3103 1142 2972 
Q 928 2841 928 2578 
Q 928 2378 1081 2264 
Q 1234 2150 1697 2047 
L 1894 2003 
Q 2506 1872 2764 1633 
Q 3022 1394 3022 966 
Q 3022 478 2636 193 
Q 2250 -91 1575 -91 
Q 1294 -91 989 -36 
Q 684 19 347 128 
L 347 722 
Q 666 556 975 473 
Q 1284 391 1588 391 
Q 1994 391 2212 530 
Q 2431 669 2431 922 
Q 2431 1156 2273 1281 
Q 2116 1406 1581 1522 
L 1381 1569 
Q 847 1681 609 1914 
Q 372 2147 372 2553 
Q 372 3047 722 3315 
Q 1072 3584 1716 3584 
Q 2034 3584 2315 3537 
Q 2597 3491 2834 3397 
z
" transform="scale(0.015625)"/>
      <path id="DejaVuSans-51" d="M 2522 4238 
Q 1834 4238 1429 3725 
Q 1025 3213 1025 2328 
Q 1025 1447 1429 934 
Q 1834 422 2522 422 
Q 3209 422 3611 934 
Q 4013 1447 4013 2328 
Q 4013 3213 3611 3725 
Q 3209 4238 2522 4238 
z
M 3406 84 
L 4238 -825 
L 3475 -825 
L 2784 -78 
Q 2681 -84 2626 -87 
Q 2572 -91 2522 -91 
Q 1538 -91 948 567 
Q 359 1225 359 2328 
Q 359 3434 948 4092 
Q 1538 4750 2522 4750 
Q 3503 4750 4090 4092 
Q 4678 3434 4678 2328 
Q 4678 1516 4351 937 
Q 4025 359 3406 84 
z
" transform="scale(0.015625)"/>
      <path id="DejaVuSans-3a" d="M 750 794 
L 1409 794 
L 1409 0 
L 750 0 
L 750 794 
z
M 750 3309 
L 1409 3309 
L 1409 2516 
L 750 2516 
L 750 3309 
z
" transform="scale(0.015625)"/>
      <path id="DejaVuSans-53" d="M 3425 4513 
L 3425 3897 
Q 3066 4069 2747 4153 
Q 2428 4238 2131 4238 
Q 1616 4238 1336 4038 
Q 1056 3838 1056 3469 
Q 1056 3159 1242 3001 
Q 1428 2844 1947 2747 
L 2328 2669 
Q 3034 2534 3370 2195 
Q 3706 1856 3706 1288 
Q 3706 609 3251 259 
Q 2797 -91 1919 -91 
Q 1588 -91 1214 -16 
Q 841 59 441 206 
L 441 856 
Q 825 641 1194 531 
Q 1563 422 1919 422 
Q 2459 422 2753 634 
Q 3047 847 3047 1241 
Q 3047 1584 2836 1778 
Q 2625 1972 2144 2069 
L 1759 2144 
Q 1053 2284 737 2584 
Q 422 2884 422 3419 
Q 422 4038 858 4394 
Q 1294 4750 2059 4750 
Q 2388 4750 2728 4690 
Q 3069 4631 3425 4513 
z
" transform="scale(0.015625)"/>
      <path id="DejaVuSans-71" d="M 947 1747 
Q 947 1113 1208 752 
Q 1469 391 1925 391 
Q 2381 391 2643 752 
Q 2906 1113 2906 1747 
Q 2906 2381 2643 2742 
Q 2381 3103 1925 3103 
Q 1469 3103 1208 2742 
Q 947 2381 947 1747 
z
M 2906 525 
Q 2725 213 2448 61 
Q 2172 -91 1784 -91 
Q 1150 -91 751 415 
Q 353 922 353 1747 
Q 353 2572 751 3078 
Q 1150 3584 1784 3584 
Q 2172 3584 2448 3432 
Q 2725 3281 2906 2969 
L 2906 3500 
L 3481 3500 
L 3481 -1331 
L 2906 -1331 
L 2906 525 
z
" transform="scale(0.015625)"/>
      <path id="DejaVuSans-75" d="M 544 1381 
L 544 3500 
L 1119 3500 
L 1119 1403 
Q 1119 906 1312 657 
Q 1506 409 1894 409 
Q 2359 409 2629 706 
Q 2900 1003 2900 1516 
L 2900 3500 
L 3475 3500 
L 3475 0 
L 2900 0 
L 2900 538 
Q 2691 219 2414 64 
Q 2138 -91 1772 -91 
Q 1169 -91 856 284 
Q 544 659 544 1381 
z
M 1991 3584 
L 1991 3584 
z
" transform="scale(0.015625)"/>
      <path id="DejaVuSans-6f" d="M 1959 3097 
Q 1497 3097 1228 2736 
Q 959 2375 959 1747 
Q 959 1119 1226 758 
Q 1494 397 1959 397 
Q 2419 397 2687 759 
Q 2956 1122 2956 1747 
Q 2956 2369 2687 2733 
Q 2419 3097 1959 3097 
z
M 1959 3584 
Q 2709 3584 3137 3096 
Q 3566 2609 3566 1747 
Q 3566 888 3137 398 
Q 2709 -91 1959 -91 
Q 1206 -91 779 398 
Q 353 888 353 1747 
Q 353 2609 779 3096 
Q 1206 3584 1959 3584 
z
" transform="scale(0.015625)"/>
     </defs>
     <use xlink:href="#DejaVuSans-46"/>
     <use xlink:href="#DejaVuSans-61" x="48.394531"/>
     <use xlink:href="#DejaVuSans-73" x="109.673828"/>
     <use xlink:href="#DejaVuSans-74" x="161.773438"/>
     <use xlink:href="#DejaVuSans-51" x="200.982422"/>
     <use xlink:href="#DejaVuSans-43" x="279.693359"/>
     <use xlink:href="#DejaVuSans-3a" x="349.517578"/>
     <use xlink:href="#DejaVuSans-20" x="383.208984"/>
     <use xlink:href="#DejaVuSans-50" x="414.996094"/>
     <use xlink:href="#DejaVuSans-65" x="471.673828"/>
     <use xlink:href="#DejaVuSans-72" x="533.197266"/>
     <use xlink:href="#DejaVuSans-20" x="574.310547"/>
     <use xlink:href="#DejaVuSans-53" x="606.097656"/>
     <use xlink:href="#DejaVuSans-65" x="669.574219"/>
     <use xlink:href="#DejaVuSans-71" x="731.097656"/>
     <use xlink:href="#DejaVuSans-75" x="794.574219"/>
     <use xlink:href="#DejaVuSans-65" x="857.953125"/>
     <use xlink:href="#DejaVuSans-6e" x="919.476562"/>
     <use xlink:href="#DejaVuSans-63" x="982.855469"/>
     <use xlink:href="#DejaVuSans-65" x="1037.835938"/>
     <use xlink:href="#DejaVuSans-20" x="1099.359375"/>
     <use xlink:href="#DejaVuSans-47" x="1131.146484"/>
     <use xlink:href="#DejaVuSans-43" x="1208.636719"/>
     <use xlink:href="#DejaVuSans-20" x="1278.460938"/>
     <use xlink:href="#DejaVuSans-43" x="1310.248047"/>
     <use xlink:href="#DejaVuSans-6f" x="1380.072266"/>
     <use xlink:href="#DejaVuSans-6e" x="1441.253906"/>
     <use xlink:href="#DejaVuSans-74" x="1504.632812"/>
     <use xlink:href="#DejaVuSans-65" x="1543.841797"/>
     <use xlink:href="#DejaVuSans-6e" x="1605.365234"/>
     <use xlink:href="#DejaVuSans-74" x="1668.744141"/>
    </g>
   </g>
  </g>
 </g>
 <defs>
  <clipPath id="p633fe9d40a">
   <rect x="32.968125" y="35.2559" width="952.495" height="317.968"/>
  </clipPath>
 </defs>
</svg>
