<?xml version="1.0" encoding="utf-8" standalone="no"?>
<!DOCTYPE svg PUBLIC "-//W3C//DTD SVG 1.1//EN"
  "http://www.w3.org/Graphics/SVG/1.1/DTD/svg11.dtd">
<svg xmlns:xlink="http://www.w3.org/1999/xlink" width="1000.240625pt" height="330.541644pt" viewBox="0 0 1000.240625 330.541644" xmlns="http://www.w3.org/2000/svg" version="1.1">
 <metadata>
  <rdf:RDF xmlns:dc="http://purl.org/dc/elements/1.1/" xmlns:cc="http://creativecommons.org/ns#" xmlns:rdf="http://www.w3.org/1999/02/22-rdf-syntax-ns#">
   <cc:Work>
    <dc:type rdf:resource="http://purl.org/dc/dcmitype/StillImage"/>
    <dc:date>2025-04-01T05:20:30.565135</dc:date>
    <dc:format>image/svg+xml</dc:format>
    <dc:creator>
     <cc:Agent>
      <dc:title>Matplotlib v3.8.2, https://matplotlib.org/</dc:title>
     </cc:Agent>
    </dc:creator>
   </cc:Work>
  </rdf:RDF>
 </metadata>
 <defs>
  <style type="text/css">*{stroke-linejoin: round; stroke-linecap: butt}</style>
 </defs>
 <g id="figure_1">
  <g id="axes_1">
   <g id="patch_1">
    <path d="M 45.690625 273.99006 
L 985.405625 273.99006 
L 985.405625 31.48286 
L 45.690625 31.48286 
z
" style="fill: #ffffff"/>
   </g>
   <g id="matplotlib.axis_1">
    <g id="xtick_1">
     <g id="text_1">
      <!-- 0 -->
      <g transform="translate(43.145625 287.06881) scale(0.08 -0.08)">
       <defs>
        <path id="DejaVuSans-30" d="M 2034 4250 
Q 1547 4250 1301 3770 
Q 1056 3291 1056 2328 
Q 1056 1369 1301 889 
Q 1547 409 2034 409 
Q 2525 409 2770 889 
Q 3016 1369 3016 2328 
Q 3016 3291 2770 3770 
Q 2525 4250 2034 4250 
z
M 2034 4750 
Q 2819 4750 3233 4129 
Q 3647 3509 3647 2328 
Q 3647 1150 3233 529 
Q 2819 -91 2034 -91 
Q 1250 -91 836 529 
Q 422 1150 422 2328 
Q 422 3509 836 4129 
Q 1250 4750 2034 4750 
z
" transform="scale(0.015625)"/>
       </defs>
       <use xlink:href="#DejaVuSans-30"/>
      </g>
     </g>
    </g>
    <g id="xtick_2">
     <g id="text_2">
      <!-- 20 -->
      <g transform="translate(228.543625 287.06881) scale(0.08 -0.08)">
       <defs>
        <path id="DejaVuSans-32" d="M 1228 531 
L 3431 531 
L 3431 0 
L 469 0 
L 469 531 
Q 828 903 1448 1529 
Q 2069 2156 2228 2338 
Q 2531 2678 2651 2914 
Q 2772 3150 2772 3378 
Q 2772 3750 2511 3984 
Q 2250 4219 1831 4219 
Q 1534 4219 1204 4116 
Q 875 4013 500 3803 
L 500 4441 
Q 881 4594 1212 4672 
Q 1544 4750 1819 4750 
Q 2544 4750 2975 4387 
Q 3406 4025 3406 3419 
Q 3406 3131 3298 2873 
Q 3191 2616 2906 2266 
Q 2828 2175 2409 1742 
Q 1991 1309 1228 531 
z
" transform="scale(0.015625)"/>
       </defs>
       <use xlink:href="#DejaVuSans-32"/>
       <use xlink:href="#DejaVuSans-30" x="63.623047"/>
      </g>
     </g>
    </g>
    <g id="xtick_3">
     <g id="text_3">
      <!-- 40 -->
      <g transform="translate(416.486625 287.06881) scale(0.08 -0.08)">
       <defs>
        <path id="DejaVuSans-34" d="M 2419 4116 
L 825 1625 
L 2419 1625 
L 2419 4116 
z
M 2253 4666 
L 3047 4666 
L 3047 1625 
L 3713 1625 
L 3713 1100 
L 3047 1100 
L 3047 0 
L 2419 0 
L 2419 1100 
L 313 1100 
L 313 1709 
L 2253 4666 
z
" transform="scale(0.015625)"/>
       </defs>
       <use xlink:href="#DejaVuSans-34"/>
       <use xlink:href="#DejaVuSans-30" x="63.623047"/>
      </g>
     </g>
    </g>
    <g id="xtick_4">
     <g id="text_4">
      <!-- 60 -->
      <g transform="translate(604.429625 287.06881) scale(0.08 -0.08)">
       <defs>
        <path id="DejaVuSans-36" d="M 2113 2584 
Q 1688 2584 1439 2293 
Q 1191 2003 1191 1497 
Q 1191 994 1439 701 
Q 1688 409 2113 409 
Q 2538 409 2786 701 
Q 3034 994 3034 1497 
Q 3034 2003 2786 2293 
Q 2538 2584 2113 2584 
z
M 3366 4563 
L 3366 3988 
Q 3128 4100 2886 4159 
Q 2644 4219 2406 4219 
Q 1781 4219 1451 3797 
Q 1122 3375 1075 2522 
Q 1259 2794 1537 2939 
Q 1816 3084 2150 3084 
Q 2853 3084 3261 2657 
Q 3669 2231 3669 1497 
Q 3669 778 3244 343 
Q 2819 -91 2113 -91 
Q 1303 -91 875 529 
Q 447 1150 447 2328 
Q 447 3434 972 4092 
Q 1497 4750 2381 4750 
Q 2619 4750 2861 4703 
Q 3103 4656 3366 4563 
z
" transform="scale(0.015625)"/>
       </defs>
       <use xlink:href="#DejaVuSans-36"/>
       <use xlink:href="#DejaVuSans-30" x="63.623047"/>
      </g>
     </g>
    </g>
    <g id="xtick_5">
     <g id="text_5">
      <!-- 80 -->
      <g transform="translate(792.372625 287.06881) scale(0.08 -0.08)">
       <defs>
        <path id="DejaVuSans-38" d="M 2034 2216 
Q 1584 2216 1326 1975 
Q 1069 1734 1069 1313 
Q 1069 891 1326 650 
Q 1584 409 2034 409 
Q 2484 409 2743 651 
Q 3003 894 3003 1313 
Q 3003 1734 2745 1975 
Q 2488 2216 2034 2216 
z
M 1403 2484 
Q 997 2584 770 2862 
Q 544 3141 544 3541 
Q 544 4100 942 4425 
Q 1341 4750 2034 4750 
Q 2731 4750 3128 4425 
Q 3525 4100 3525 3541 
Q 3525 3141 3298 2862 
Q 3072 2584 2669 2484 
Q 3125 2378 3379 2068 
Q 3634 1759 3634 1313 
Q 3634 634 3220 271 
Q 2806 -91 2034 -91 
Q 1263 -91 848 271 
Q 434 634 434 1313 
Q 434 1759 690 2068 
Q 947 2378 1403 2484 
z
M 1172 3481 
Q 1172 3119 1398 2916 
Q 1625 2713 2034 2713 
Q 2441 2713 2670 2916 
Q 2900 3119 2900 3481 
Q 2900 3844 2670 4047 
Q 2441 4250 2034 4250 
Q 1625 4250 1398 4047 
Q 1172 3844 1172 3481 
z
" transform="scale(0.015625)"/>
       </defs>
       <use xlink:href="#DejaVuSans-38"/>
       <use xlink:href="#DejaVuSans-30" x="63.623047"/>
      </g>
     </g>
    </g>
    <g id="xtick_6">
     <g id="text_6">
      <!-- 100 -->
      <g transform="translate(977.770625 287.06881) scale(0.08 -0.08)">
       <defs>
        <path id="DejaVuSans-31" d="M 794 531 
L 1825 531 
L 1825 4091 
L 703 3866 
L 703 4441 
L 1819 4666 
L 2450 4666 
L 2450 531 
L 3481 531 
L 3481 0 
L 794 0 
L 794 531 
z
" transform="scale(0.015625)"/>
       </defs>
       <use xlink:href="#DejaVuSans-31"/>
       <use xlink:href="#DejaVuSans-30" x="63.623047"/>
       <use xlink:href="#DejaVuSans-30" x="127.246094"/>
      </g>
     </g>
    </g>
    <g id="text_7">
     <!-- Transcript Position (%) -->
     <g transform="translate(459.716094 300.330997) scale(0.1 -0.1)">
      <defs>
       <path id="DejaVuSans-54" d="M -19 4666 
L 3928 4666 
L 3928 4134 
L 2272 4134 
L 2272 0 
L 1638 0 
L 1638 4134 
L -19 4134 
L -19 4666 
z
" transform="scale(0.015625)"/>
       <path id="DejaVuSans-72" d="M 2631 2963 
Q 2534 3019 2420 3045 
Q 2306 3072 2169 3072 
Q 1681 3072 1420 2755 
Q 1159 2438 1159 1844 
L 1159 0 
L 581 0 
L 581 3500 
L 1159 3500 
L 1159 2956 
Q 1341 3275 1631 3429 
Q 1922 3584 2338 3584 
Q 2397 3584 2469 3576 
Q 2541 3569 2628 3553 
L 2631 2963 
z
" transform="scale(0.015625)"/>
       <path id="DejaVuSans-61" d="M 2194 1759 
Q 1497 1759 1228 1600 
Q 959 1441 959 1056 
Q 959 750 1161 570 
Q 1363 391 1709 391 
Q 2188 391 2477 730 
Q 2766 1069 2766 1631 
L 2766 1759 
L 2194 1759 
z
M 3341 1997 
L 3341 0 
L 2766 0 
L 2766 531 
Q 2569 213 2275 61 
Q 1981 -91 1556 -91 
Q 1019 -91 701 211 
Q 384 513 384 1019 
Q 384 1609 779 1909 
Q 1175 2209 1959 2209 
L 2766 2209 
L 2766 2266 
Q 2766 2663 2505 2880 
Q 2244 3097 1772 3097 
Q 1472 3097 1187 3025 
Q 903 2953 641 2809 
L 641 3341 
Q 956 3463 1253 3523 
Q 1550 3584 1831 3584 
Q 2591 3584 2966 3190 
Q 3341 2797 3341 1997 
z
" transform="scale(0.015625)"/>
       <path id="DejaVuSans-6e" d="M 3513 2113 
L 3513 0 
L 2938 0 
L 2938 2094 
Q 2938 2591 2744 2837 
Q 2550 3084 2163 3084 
Q 1697 3084 1428 2787 
Q 1159 2491 1159 1978 
L 1159 0 
L 581 0 
L 581 3500 
L 1159 3500 
L 1159 2956 
Q 1366 3272 1645 3428 
Q 1925 3584 2291 3584 
Q 2894 3584 3203 3211 
Q 3513 2838 3513 2113 
z
" transform="scale(0.015625)"/>
       <path id="DejaVuSans-73" d="M 2834 3397 
L 2834 2853 
Q 2591 2978 2328 3040 
Q 2066 3103 1784 3103 
Q 1356 3103 1142 2972 
Q 928 2841 928 2578 
Q 928 2378 1081 2264 
Q 1234 2150 1697 2047 
L 1894 2003 
Q 2506 1872 2764 1633 
Q 3022 1394 3022 966 
Q 3022 478 2636 193 
Q 2250 -91 1575 -91 
Q 1294 -91 989 -36 
Q 684 19 347 128 
L 347 722 
Q 666 556 975 473 
Q 1284 391 1588 391 
Q 1994 391 2212 530 
Q 2431 669 2431 922 
Q 2431 1156 2273 1281 
Q 2116 1406 1581 1522 
L 1381 1569 
Q 847 1681 609 1914 
Q 372 2147 372 2553 
Q 372 3047 722 3315 
Q 1072 3584 1716 3584 
Q 2034 3584 2315 3537 
Q 2597 3491 2834 3397 
z
" transform="scale(0.015625)"/>
       <path id="DejaVuSans-63" d="M 3122 3366 
L 3122 2828 
Q 2878 2963 2633 3030 
Q 2388 3097 2138 3097 
Q 1578 3097 1268 2742 
Q 959 2388 959 1747 
Q 959 1106 1268 751 
Q 1578 397 2138 397 
Q 2388 397 2633 464 
Q 2878 531 3122 666 
L 3122 134 
Q 2881 22 2623 -34 
Q 2366 -91 2075 -91 
Q 1284 -91 818 406 
Q 353 903 353 1747 
Q 353 2603 823 3093 
Q 1294 3584 2113 3584 
Q 2378 3584 2631 3529 
Q 2884 3475 3122 3366 
z
" transform="scale(0.015625)"/>
       <path id="DejaVuSans-69" d="M 603 3500 
L 1178 3500 
L 1178 0 
L 603 0 
L 603 3500 
z
M 603 4863 
L 1178 4863 
L 1178 4134 
L 603 4134 
L 603 4863 
z
" transform="scale(0.015625)"/>
       <path id="DejaVuSans-70" d="M 1159 525 
L 1159 -1331 
L 581 -1331 
L 581 3500 
L 1159 3500 
L 1159 2969 
Q 1341 3281 1617 3432 
Q 1894 3584 2278 3584 
Q 2916 3584 3314 3078 
Q 3713 2572 3713 1747 
Q 3713 922 3314 415 
Q 2916 -91 2278 -91 
Q 1894 -91 1617 61 
Q 1341 213 1159 525 
z
M 3116 1747 
Q 3116 2381 2855 2742 
Q 2594 3103 2138 3103 
Q 1681 3103 1420 2742 
Q 1159 2381 1159 1747 
Q 1159 1113 1420 752 
Q 1681 391 2138 391 
Q 2594 391 2855 752 
Q 3116 1113 3116 1747 
z
" transform="scale(0.015625)"/>
       <path id="DejaVuSans-74" d="M 1172 4494 
L 1172 3500 
L 2356 3500 
L 2356 3053 
L 1172 3053 
L 1172 1153 
Q 1172 725 1289 603 
Q 1406 481 1766 481 
L 2356 481 
L 2356 0 
L 1766 0 
Q 1100 0 847 248 
Q 594 497 594 1153 
L 594 3053 
L 172 3053 
L 172 3500 
L 594 3500 
L 594 4494 
L 1172 4494 
z
" transform="scale(0.015625)"/>
       <path id="DejaVuSans-20" transform="scale(0.015625)"/>
       <path id="DejaVuSans-50" d="M 1259 4147 
L 1259 2394 
L 2053 2394 
Q 2494 2394 2734 2622 
Q 2975 2850 2975 3272 
Q 2975 3691 2734 3919 
Q 2494 4147 2053 4147 
L 1259 4147 
z
M 628 4666 
L 2053 4666 
Q 2838 4666 3239 4311 
Q 3641 3956 3641 3272 
Q 3641 2581 3239 2228 
Q 2838 1875 2053 1875 
L 1259 1875 
L 1259 0 
L 628 0 
L 628 4666 
z
" transform="scale(0.015625)"/>
       <path id="DejaVuSans-6f" d="M 1959 3097 
Q 1497 3097 1228 2736 
Q 959 2375 959 1747 
Q 959 1119 1226 758 
Q 1494 397 1959 397 
Q 2419 397 2687 759 
Q 2956 1122 2956 1747 
Q 2956 2369 2687 2733 
Q 2419 3097 1959 3097 
z
M 1959 3584 
Q 2709 3584 3137 3096 
Q 3566 2609 3566 1747 
Q 3566 888 3137 398 
Q 2709 -91 1959 -91 
Q 1206 -91 779 398 
Q 353 888 353 1747 
Q 353 2609 779 3096 
Q 1206 3584 1959 3584 
z
" transform="scale(0.015625)"/>
       <path id="DejaVuSans-28" d="M 1984 4856 
Q 1566 4138 1362 3434 
Q 1159 2731 1159 2009 
Q 1159 1288 1364 580 
Q 1569 -128 1984 -844 
L 1484 -844 
Q 1016 -109 783 600 
Q 550 1309 550 2009 
Q 550 2706 781 3412 
Q 1013 4119 1484 4856 
L 1984 4856 
z
" transform="scale(0.015625)"/>
       <path id="DejaVuSans-25" d="M 4653 2053 
Q 4381 2053 4226 1822 
Q 4072 1591 4072 1178 
Q 4072 772 4226 539 
Q 4381 306 4653 306 
Q 4919 306 5073 539 
Q 5228 772 5228 1178 
Q 5228 1588 5073 1820 
Q 4919 2053 4653 2053 
z
M 4653 2450 
Q 5147 2450 5437 2106 
Q 5728 1763 5728 1178 
Q 5728 594 5436 251 
Q 5144 -91 4653 -91 
Q 4153 -91 3862 251 
Q 3572 594 3572 1178 
Q 3572 1766 3864 2108 
Q 4156 2450 4653 2450 
z
M 1428 4353 
Q 1159 4353 1004 4120 
Q 850 3888 850 3481 
Q 850 3069 1003 2837 
Q 1156 2606 1428 2606 
Q 1700 2606 1854 2837 
Q 2009 3069 2009 3481 
Q 2009 3884 1853 4118 
Q 1697 4353 1428 4353 
z
M 4250 4750 
L 4750 4750 
L 1831 -91 
L 1331 -91 
L 4250 4750 
z
M 1428 4750 
Q 1922 4750 2215 4408 
Q 2509 4066 2509 3481 
Q 2509 2891 2217 2550 
Q 1925 2209 1428 2209 
Q 931 2209 642 2551 
Q 353 2894 353 3481 
Q 353 4063 643 4406 
Q 934 4750 1428 4750 
z
" transform="scale(0.015625)"/>
       <path id="DejaVuSans-29" d="M 513 4856 
L 1013 4856 
Q 1481 4119 1714 3412 
Q 1947 2706 1947 2009 
Q 1947 1309 1714 600 
Q 1481 -109 1013 -844 
L 513 -844 
Q 928 -128 1133 580 
Q 1338 1288 1338 2009 
Q 1338 2731 1133 3434 
Q 928 4138 513 4856 
z
" transform="scale(0.015625)"/>
      </defs>
      <use xlink:href="#DejaVuSans-54"/>
      <use xlink:href="#DejaVuSans-72" x="46.333984"/>
      <use xlink:href="#DejaVuSans-61" x="87.447266"/>
      <use xlink:href="#DejaVuSans-6e" x="148.726562"/>
      <use xlink:href="#DejaVuSans-73" x="212.105469"/>
      <use xlink:href="#DejaVuSans-63" x="264.205078"/>
      <use xlink:href="#DejaVuSans-72" x="319.185547"/>
      <use xlink:href="#DejaVuSans-69" x="360.298828"/>
      <use xlink:href="#DejaVuSans-70" x="388.082031"/>
      <use xlink:href="#DejaVuSans-74" x="451.558594"/>
      <use xlink:href="#DejaVuSans-20" x="490.767578"/>
      <use xlink:href="#DejaVuSans-50" x="522.554688"/>
      <use xlink:href="#DejaVuSans-6f" x="579.232422"/>
      <use xlink:href="#DejaVuSans-73" x="640.414062"/>
      <use xlink:href="#DejaVuSans-69" x="692.513672"/>
      <use xlink:href="#DejaVuSans-74" x="720.296875"/>
      <use xlink:href="#DejaVuSans-69" x="759.505859"/>
      <use xlink:href="#DejaVuSans-6f" x="787.289062"/>
      <use xlink:href="#DejaVuSans-6e" x="848.470703"/>
      <use xlink:href="#DejaVuSans-20" x="911.849609"/>
      <use xlink:href="#DejaVuSans-28" x="943.636719"/>
      <use xlink:href="#DejaVuSans-25" x="982.650391"/>
      <use xlink:href="#DejaVuSans-29" x="1077.669922"/>
     </g>
    </g>
   </g>
   <g id="matplotlib.axis_2">
    <g id="ytick_1">
     <g id="line2d_1">
      <path d="M 45.690625 273.99006 
L 985.405625 273.99006 
" clip-path="url(#pf0a511621b)" style="fill: none; stroke: #dedede; stroke-linecap: square"/>
     </g>
     <g id="text_8">
      <!-- 0.00 -->
      <g transform="translate(20.878125 277.029435) scale(0.08 -0.08)">
       <defs>
        <path id="DejaVuSans-2e" d="M 684 794 
L 1344 794 
L 1344 0 
L 684 0 
L 684 794 
z
" transform="scale(0.015625)"/>
       </defs>
       <use xlink:href="#DejaVuSans-30"/>
       <use xlink:href="#DejaVuSans-2e" x="63.623047"/>
       <use xlink:href="#DejaVuSans-30" x="95.410156"/>
       <use xlink:href="#DejaVuSans-30" x="159.033203"/>
      </g>
     </g>
    </g>
    <g id="ytick_2">
     <g id="line2d_2">
      <path d="M 45.690625 245.496858 
L 985.405625 245.496858 
" clip-path="url(#pf0a511621b)" style="fill: none; stroke: #dedede; stroke-linecap: square"/>
     </g>
     <g id="text_9">
      <!-- 0.25 -->
      <g transform="translate(20.878125 248.536233) scale(0.08 -0.08)">
       <defs>
        <path id="DejaVuSans-35" d="M 691 4666 
L 3169 4666 
L 3169 4134 
L 1269 4134 
L 1269 2991 
Q 1406 3038 1543 3061 
Q 1681 3084 1819 3084 
Q 2600 3084 3056 2656 
Q 3513 2228 3513 1497 
Q 3513 744 3044 326 
Q 2575 -91 1722 -91 
Q 1428 -91 1123 -41 
Q 819 9 494 109 
L 494 744 
Q 775 591 1075 516 
Q 1375 441 1709 441 
Q 2250 441 2565 725 
Q 2881 1009 2881 1497 
Q 2881 1984 2565 2268 
Q 2250 2553 1709 2553 
Q 1456 2553 1204 2497 
Q 953 2441 691 2322 
L 691 4666 
z
" transform="scale(0.015625)"/>
       </defs>
       <use xlink:href="#DejaVuSans-30"/>
       <use xlink:href="#DejaVuSans-2e" x="63.623047"/>
       <use xlink:href="#DejaVuSans-32" x="95.410156"/>
       <use xlink:href="#DejaVuSans-35" x="159.033203"/>
      </g>
     </g>
    </g>
    <g id="ytick_3">
     <g id="line2d_3">
      <path d="M 45.690625 217.003656 
L 985.405625 217.003656 
" clip-path="url(#pf0a511621b)" style="fill: none; stroke: #dedede; stroke-linecap: square"/>
     </g>
     <g id="text_10">
      <!-- 0.50 -->
      <g transform="translate(20.878125 220.043031) scale(0.08 -0.08)">
       <use xlink:href="#DejaVuSans-30"/>
       <use xlink:href="#DejaVuSans-2e" x="63.623047"/>
       <use xlink:href="#DejaVuSans-35" x="95.410156"/>
       <use xlink:href="#DejaVuSans-30" x="159.033203"/>
      </g>
     </g>
    </g>
    <g id="ytick_4">
     <g id="line2d_4">
      <path d="M 45.690625 188.510455 
L 985.405625 188.510455 
" clip-path="url(#pf0a511621b)" style="fill: none; stroke: #dedede; stroke-linecap: square"/>
     </g>
     <g id="text_11">
      <!-- 0.75 -->
      <g transform="translate(20.878125 191.54983) scale(0.08 -0.08)">
       <defs>
        <path id="DejaVuSans-37" d="M 525 4666 
L 3525 4666 
L 3525 4397 
L 1831 0 
L 1172 0 
L 2766 4134 
L 525 4134 
L 525 4666 
z
" transform="scale(0.015625)"/>
       </defs>
       <use xlink:href="#DejaVuSans-30"/>
       <use xlink:href="#DejaVuSans-2e" x="63.623047"/>
       <use xlink:href="#DejaVuSans-37" x="95.410156"/>
       <use xlink:href="#DejaVuSans-35" x="159.033203"/>
      </g>
     </g>
    </g>
    <g id="ytick_5">
     <g id="line2d_5">
      <path d="M 45.690625 160.017253 
L 985.405625 160.017253 
" clip-path="url(#pf0a511621b)" style="fill: none; stroke: #dedede; stroke-linecap: square"/>
     </g>
     <g id="text_12">
      <!-- 1.00 -->
      <g transform="translate(20.878125 163.056628) scale(0.08 -0.08)">
       <use xlink:href="#DejaVuSans-31"/>
       <use xlink:href="#DejaVuSans-2e" x="63.623047"/>
       <use xlink:href="#DejaVuSans-30" x="95.410156"/>
       <use xlink:href="#DejaVuSans-30" x="159.033203"/>
      </g>
     </g>
    </g>
    <g id="ytick_6">
     <g id="line2d_6">
      <path d="M 45.690625 131.524051 
L 985.405625 131.524051 
" clip-path="url(#pf0a511621b)" style="fill: none; stroke: #dedede; stroke-linecap: square"/>
     </g>
     <g id="text_13">
      <!-- 1.25 -->
      <g transform="translate(20.878125 134.563426) scale(0.08 -0.08)">
       <use xlink:href="#DejaVuSans-31"/>
       <use xlink:href="#DejaVuSans-2e" x="63.623047"/>
       <use xlink:href="#DejaVuSans-32" x="95.410156"/>
       <use xlink:href="#DejaVuSans-35" x="159.033203"/>
      </g>
     </g>
    </g>
    <g id="ytick_7">
     <g id="line2d_7">
      <path d="M 45.690625 103.030849 
L 985.405625 103.030849 
" clip-path="url(#pf0a511621b)" style="fill: none; stroke: #dedede; stroke-linecap: square"/>
     </g>
     <g id="text_14">
      <!-- 1.50 -->
      <g transform="translate(20.878125 106.070224) scale(0.08 -0.08)">
       <use xlink:href="#DejaVuSans-31"/>
       <use xlink:href="#DejaVuSans-2e" x="63.623047"/>
       <use xlink:href="#DejaVuSans-35" x="95.410156"/>
       <use xlink:href="#DejaVuSans-30" x="159.033203"/>
      </g>
     </g>
    </g>
    <g id="ytick_8">
     <g id="line2d_8">
      <path d="M 45.690625 74.537648 
L 985.405625 74.537648 
" clip-path="url(#pf0a511621b)" style="fill: none; stroke: #dedede; stroke-linecap: square"/>
     </g>
     <g id="text_15">
      <!-- 1.75 -->
      <g transform="translate(20.878125 77.577023) scale(0.08 -0.08)">
       <use xlink:href="#DejaVuSans-31"/>
       <use xlink:href="#DejaVuSans-2e" x="63.623047"/>
       <use xlink:href="#DejaVuSans-37" x="95.410156"/>
       <use xlink:href="#DejaVuSans-35" x="159.033203"/>
      </g>
     </g>
    </g>
    <g id="ytick_9">
     <g id="line2d_9">
      <path d="M 45.690625 46.044446 
L 985.405625 46.044446 
" clip-path="url(#pf0a511621b)" style="fill: none; stroke: #dedede; stroke-linecap: square"/>
     </g>
     <g id="text_16">
      <!-- 2.00 -->
      <g transform="translate(20.878125 49.083821) scale(0.08 -0.08)">
       <use xlink:href="#DejaVuSans-32"/>
       <use xlink:href="#DejaVuSans-2e" x="63.623047"/>
       <use xlink:href="#DejaVuSans-30" x="95.410156"/>
       <use xlink:href="#DejaVuSans-30" x="159.033203"/>
      </g>
     </g>
    </g>
    <g id="text_17">
     <!-- Percentage total cumulative mapped-read depth -->
     <g transform="translate(14.798438 274.59271) rotate(-90) scale(0.1 -0.1)">
      <defs>
       <path id="DejaVuSans-65" d="M 3597 1894 
L 3597 1613 
L 953 1613 
Q 991 1019 1311 708 
Q 1631 397 2203 397 
Q 2534 397 2845 478 
Q 3156 559 3463 722 
L 3463 178 
Q 3153 47 2828 -22 
Q 2503 -91 2169 -91 
Q 1331 -91 842 396 
Q 353 884 353 1716 
Q 353 2575 817 3079 
Q 1281 3584 2069 3584 
Q 2775 3584 3186 3129 
Q 3597 2675 3597 1894 
z
M 3022 2063 
Q 3016 2534 2758 2815 
Q 2500 3097 2075 3097 
Q 1594 3097 1305 2825 
Q 1016 2553 972 2059 
L 3022 2063 
z
" transform="scale(0.015625)"/>
       <path id="DejaVuSans-67" d="M 2906 1791 
Q 2906 2416 2648 2759 
Q 2391 3103 1925 3103 
Q 1463 3103 1205 2759 
Q 947 2416 947 1791 
Q 947 1169 1205 825 
Q 1463 481 1925 481 
Q 2391 481 2648 825 
Q 2906 1169 2906 1791 
z
M 3481 434 
Q 3481 -459 3084 -895 
Q 2688 -1331 1869 -1331 
Q 1566 -1331 1297 -1286 
Q 1028 -1241 775 -1147 
L 775 -588 
Q 1028 -725 1275 -790 
Q 1522 -856 1778 -856 
Q 2344 -856 2625 -561 
Q 2906 -266 2906 331 
L 2906 616 
Q 2728 306 2450 153 
Q 2172 0 1784 0 
Q 1141 0 747 490 
Q 353 981 353 1791 
Q 353 2603 747 3093 
Q 1141 3584 1784 3584 
Q 2172 3584 2450 3431 
Q 2728 3278 2906 2969 
L 2906 3500 
L 3481 3500 
L 3481 434 
z
" transform="scale(0.015625)"/>
       <path id="DejaVuSans-6c" d="M 603 4863 
L 1178 4863 
L 1178 0 
L 603 0 
L 603 4863 
z
" transform="scale(0.015625)"/>
       <path id="DejaVuSans-75" d="M 544 1381 
L 544 3500 
L 1119 3500 
L 1119 1403 
Q 1119 906 1312 657 
Q 1506 409 1894 409 
Q 2359 409 2629 706 
Q 2900 1003 2900 1516 
L 2900 3500 
L 3475 3500 
L 3475 0 
L 2900 0 
L 2900 538 
Q 2691 219 2414 64 
Q 2138 -91 1772 -91 
Q 1169 -91 856 284 
Q 544 659 544 1381 
z
M 1991 3584 
L 1991 3584 
z
" transform="scale(0.015625)"/>
       <path id="DejaVuSans-6d" d="M 3328 2828 
Q 3544 3216 3844 3400 
Q 4144 3584 4550 3584 
Q 5097 3584 5394 3201 
Q 5691 2819 5691 2113 
L 5691 0 
L 5113 0 
L 5113 2094 
Q 5113 2597 4934 2840 
Q 4756 3084 4391 3084 
Q 3944 3084 3684 2787 
Q 3425 2491 3425 1978 
L 3425 0 
L 2847 0 
L 2847 2094 
Q 2847 2600 2669 2842 
Q 2491 3084 2119 3084 
Q 1678 3084 1418 2786 
Q 1159 2488 1159 1978 
L 1159 0 
L 581 0 
L 581 3500 
L 1159 3500 
L 1159 2956 
Q 1356 3278 1631 3431 
Q 1906 3584 2284 3584 
Q 2666 3584 2933 3390 
Q 3200 3197 3328 2828 
z
" transform="scale(0.015625)"/>
       <path id="DejaVuSans-76" d="M 191 3500 
L 800 3500 
L 1894 563 
L 2988 3500 
L 3597 3500 
L 2284 0 
L 1503 0 
L 191 3500 
z
" transform="scale(0.015625)"/>
       <path id="DejaVuSans-64" d="M 2906 2969 
L 2906 4863 
L 3481 4863 
L 3481 0 
L 2906 0 
L 2906 525 
Q 2725 213 2448 61 
Q 2172 -91 1784 -91 
Q 1150 -91 751 415 
Q 353 922 353 1747 
Q 353 2572 751 3078 
Q 1150 3584 1784 3584 
Q 2172 3584 2448 3432 
Q 2725 3281 2906 2969 
z
M 947 1747 
Q 947 1113 1208 752 
Q 1469 391 1925 391 
Q 2381 391 2643 752 
Q 2906 1113 2906 1747 
Q 2906 2381 2643 2742 
Q 2381 3103 1925 3103 
Q 1469 3103 1208 2742 
Q 947 2381 947 1747 
z
" transform="scale(0.015625)"/>
       <path id="DejaVuSans-2d" d="M 313 2009 
L 1997 2009 
L 1997 1497 
L 313 1497 
L 313 2009 
z
" transform="scale(0.015625)"/>
       <path id="DejaVuSans-68" d="M 3513 2113 
L 3513 0 
L 2938 0 
L 2938 2094 
Q 2938 2591 2744 2837 
Q 2550 3084 2163 3084 
Q 1697 3084 1428 2787 
Q 1159 2491 1159 1978 
L 1159 0 
L 581 0 
L 581 4863 
L 1159 4863 
L 1159 2956 
Q 1366 3272 1645 3428 
Q 1925 3584 2291 3584 
Q 2894 3584 3203 3211 
Q 3513 2838 3513 2113 
z
" transform="scale(0.015625)"/>
      </defs>
      <use xlink:href="#DejaVuSans-50"/>
      <use xlink:href="#DejaVuSans-65" x="56.677734"/>
      <use xlink:href="#DejaVuSans-72" x="118.201172"/>
      <use xlink:href="#DejaVuSans-63" x="157.064453"/>
      <use xlink:href="#DejaVuSans-65" x="212.044922"/>
      <use xlink:href="#DejaVuSans-6e" x="273.568359"/>
      <use xlink:href="#DejaVuSans-74" x="336.947266"/>
      <use xlink:href="#DejaVuSans-61" x="376.15625"/>
      <use xlink:href="#DejaVuSans-67" x="437.435547"/>
      <use xlink:href="#DejaVuSans-65" x="500.912109"/>
      <use xlink:href="#DejaVuSans-20" x="562.435547"/>
      <use xlink:href="#DejaVuSans-74" x="594.222656"/>
      <use xlink:href="#DejaVuSans-6f" x="633.431641"/>
      <use xlink:href="#DejaVuSans-74" x="694.613281"/>
      <use xlink:href="#DejaVuSans-61" x="733.822266"/>
      <use xlink:href="#DejaVuSans-6c" x="795.101562"/>
      <use xlink:href="#DejaVuSans-20" x="822.884766"/>
      <use xlink:href="#DejaVuSans-63" x="854.671875"/>
      <use xlink:href="#DejaVuSans-75" x="909.652344"/>
      <use xlink:href="#DejaVuSans-6d" x="973.03125"/>
      <use xlink:href="#DejaVuSans-75" x="1070.443359"/>
      <use xlink:href="#DejaVuSans-6c" x="1133.822266"/>
      <use xlink:href="#DejaVuSans-61" x="1161.605469"/>
      <use xlink:href="#DejaVuSans-74" x="1222.884766"/>
      <use xlink:href="#DejaVuSans-69" x="1262.09375"/>
      <use xlink:href="#DejaVuSans-76" x="1289.876953"/>
      <use xlink:href="#DejaVuSans-65" x="1349.056641"/>
      <use xlink:href="#DejaVuSans-20" x="1410.580078"/>
      <use xlink:href="#DejaVuSans-6d" x="1442.367188"/>
      <use xlink:href="#DejaVuSans-61" x="1539.779297"/>
      <use xlink:href="#DejaVuSans-70" x="1601.058594"/>
      <use xlink:href="#DejaVuSans-70" x="1664.535156"/>
      <use xlink:href="#DejaVuSans-65" x="1728.011719"/>
      <use xlink:href="#DejaVuSans-64" x="1789.535156"/>
      <use xlink:href="#DejaVuSans-2d" x="1853.011719"/>
      <use xlink:href="#DejaVuSans-72" x="1889.095703"/>
      <use xlink:href="#DejaVuSans-65" x="1927.958984"/>
      <use xlink:href="#DejaVuSans-61" x="1989.482422"/>
      <use xlink:href="#DejaVuSans-64" x="2050.761719"/>
      <use xlink:href="#DejaVuSans-20" x="2114.238281"/>
      <use xlink:href="#DejaVuSans-64" x="2146.025391"/>
      <use xlink:href="#DejaVuSans-65" x="2209.501953"/>
      <use xlink:href="#DejaVuSans-70" x="2271.025391"/>
      <use xlink:href="#DejaVuSans-74" x="2334.501953"/>
      <use xlink:href="#DejaVuSans-68" x="2373.710938"/>
     </g>
    </g>
   </g>
   <g id="line2d_10">
    <path d="M 45.690625 228.483142 
L 55.087775 215.199961 
L 64.484925 194.238218 
L 73.882075 163.545799 
L 83.279225 129.707384 
L 92.676375 117.398288 
L 102.073525 108.034176 
L 111.470675 93.473634 
L 120.867825 81.677548 
L 130.264975 74.542958 
L 139.662125 69.188177 
L 149.059275 65.168034 
L 158.456425 61.900721 
L 167.853575 60.005166 
L 177.250725 63.603132 
L 186.647875 70.848418 
L 196.045025 77.326439 
L 205.442175 79.303794 
L 214.839325 81.131591 
L 224.236475 97.409051 
L 233.633625 126.381271 
L 243.030775 137.036682 
L 252.427925 144.23674 
L 261.825075 147.793347 
L 271.222225 158.901879 
L 280.619375 162.858009 
L 290.016525 166.131535 
L 299.413675 167.625247 
L 308.810825 168.779786 
L 318.207975 172.155579 
L 327.605125 174.492615 
L 337.002275 177.095107 
L 346.399425 179.24893 
L 355.796575 181.088819 
L 365.193725 183.065766 
L 374.590875 183.121283 
L 383.988025 185.320136 
L 393.385175 186.45398 
L 402.782325 187.389261 
L 412.179475 187.911117 
L 421.576625 188.21375 
L 430.973775 188.165797 
L 440.370925 188.782558 
L 449.768075 188.728006 
L 459.165225 189.212159 
L 468.562375 189.638495 
L 477.959525 189.951566 
L 487.356675 189.086192 
L 496.753825 187.583856 
L 506.150975 188.537615 
L 515.548125 189.503348 
L 524.945275 188.992154 
L 534.342425 187.21828 
L 543.739575 187.357335 
L 553.136725 185.473774 
L 562.533875 188.121801 
L 571.931025 189.211615 
L 581.328175 188.751751 
L 590.725325 189.198151 
L 600.122475 176.096551 
L 609.519625 168.83555 
L 618.916775 167.244531 
L 628.313925 166.386571 
L 637.711075 164.019803 
L 647.108225 161.75592 
L 656.505375 158.837194 
L 665.902525 158.359867 
L 675.299675 158.405124 
L 684.696825 158.331869 
L 694.093975 157.047223 
L 703.491125 149.891096 
L 712.888275 155.017847 
L 722.285425 170.733945 
L 731.682575 171.351253 
L 741.079725 171.023377 
L 750.476875 157.8741 
L 759.874025 150.827876 
L 769.271175 150.914789 
L 778.668325 147.767306 
L 788.065475 135.703162 
L 797.462625 127.967804 
L 806.859775 128.821238 
L 816.256925 133.749079 
L 825.654075 137.342118 
L 835.051225 140.062235 
L 844.448375 143.594954 
L 853.845525 149.237329 
L 863.242675 153.382668 
L 872.639825 155.054589 
L 882.036975 156.929862 
L 891.434125 163.551487 
L 900.831275 179.989683 
L 910.228425 192.639325 
L 919.625575 195.07283 
L 929.022725 199.102511 
L 938.419875 211.384225 
L 947.817025 229.238233 
L 957.214175 239.699363 
L 966.611325 250.861671 
L 976.008475 266.618218 
" clip-path="url(#pf0a511621b)" style="fill: none; stroke: #7cb5ec; stroke-linecap: square"/>
   </g>
   <g id="line2d_11">
    <path d="M 45.690625 242.815199 
L 55.087775 233.766068 
L 64.484925 214.081971 
L 73.882075 189.564088 
L 83.279225 146.951202 
L 92.676375 127.533673 
L 102.073525 117.264858 
L 111.470675 97.744882 
L 120.867825 82.025464 
L 130.264975 72.369609 
L 139.662125 64.839236 
L 149.059275 59.076085 
L 158.456425 54.321121 
L 167.853575 50.144829 
L 177.250725 51.551042 
L 186.647875 58.122886 
L 196.045025 65.561189 
L 205.442175 67.827776 
L 214.839325 69.60886 
L 224.236475 81.520345 
L 233.633625 113.717301 
L 243.030775 129.805326 
L 252.427925 140.055969 
L 261.825075 145.229558 
L 271.222225 160.473866 
L 280.619375 166.238674 
L 290.016525 170.675204 
L 299.413675 173.994076 
L 308.810825 174.752713 
L 318.207975 178.228308 
L 327.605125 179.793987 
L 337.002275 184.156424 
L 346.399425 185.907529 
L 355.796575 187.952511 
L 365.193725 189.433611 
L 374.590875 189.36714 
L 383.988025 190.318912 
L 393.385175 189.116354 
L 402.782325 188.950685 
L 412.179475 188.994452 
L 421.576625 188.86449 
L 430.973775 186.925957 
L 440.370925 186.11077 
L 449.768075 185.068895 
L 459.165225 184.786186 
L 468.562375 184.161244 
L 477.959525 183.531482 
L 487.356675 180.276895 
L 496.753825 176.177696 
L 506.150975 177.994374 
L 515.548125 178.2181 
L 524.945275 175.58459 
L 534.342425 170.953943 
L 543.739575 171.304815 
L 553.136725 172.545126 
L 562.533875 173.257409 
L 571.931025 176.339186 
L 581.328175 175.430759 
L 590.725325 178.554343 
L 600.122475 154.087714 
L 609.519625 149.898026 
L 618.916775 148.611783 
L 628.313925 146.867671 
L 637.711075 142.363414 
L 647.108225 139.811514 
L 656.505375 139.218769 
L 665.902525 139.460409 
L 675.299675 140.830619 
L 684.696825 141.888677 
L 694.093975 141.783448 
L 703.491125 135.612567 
L 712.888275 150.434445 
L 722.285425 170.999044 
L 731.682575 171.598867 
L 741.079725 172.340409 
L 750.476875 164.670803 
L 759.874025 160.787169 
L 769.271175 161.603984 
L 778.668325 158.447449 
L 788.065475 147.521218 
L 797.462625 143.167716 
L 806.859775 144.623024 
L 816.256925 149.050838 
L 825.654075 152.187094 
L 835.051225 156.543247 
L 844.448375 160.889056 
L 853.845525 167.840163 
L 863.242675 172.46449 
L 872.639825 174.25401 
L 882.036975 176.674694 
L 891.434125 183.295483 
L 900.831275 196.699275 
L 910.228425 206.301759 
L 919.625575 208.509548 
L 929.022725 212.842321 
L 938.419875 225.549458 
L 947.817025 239.184722 
L 957.214175 247.622328 
L 966.611325 256.712349 
L 976.008475 268.536481 
" clip-path="url(#pf0a511621b)" style="fill: none; stroke: #434348; stroke-linecap: square"/>
   </g>
   <g id="line2d_12">
    <path d="M 45.690625 222.020881 
L 55.087775 210.65776 
L 64.484925 199.601317 
L 73.882075 188.109827 
L 83.279225 166.401644 
L 92.676375 159.834806 
L 102.073525 152.082842 
L 111.470675 141.421954 
L 120.867825 134.2374 
L 130.264975 129.456725 
L 139.662125 125.01972 
L 149.059275 121.351795 
L 158.456425 118.048895 
L 167.853575 115.848476 
L 177.250725 115.073073 
L 186.647875 115.711681 
L 196.045025 117.849068 
L 205.442175 118.156747 
L 214.839325 117.350475 
L 224.236475 122.520674 
L 233.633625 135.456992 
L 243.030775 140.552288 
L 252.427925 143.455643 
L 261.825075 144.71132 
L 271.222225 149.308862 
L 280.619375 150.589593 
L 290.016525 150.840547 
L 299.413675 150.847233 
L 308.810825 150.776327 
L 318.207975 151.688675 
L 327.605125 152.42262 
L 337.002275 154.002632 
L 346.399425 155.544084 
L 355.796575 156.466138 
L 365.193725 157.670084 
L 374.590875 156.876946 
L 383.988025 158.416372 
L 393.385175 159.478735 
L 402.782325 160.325967 
L 412.179475 160.412321 
L 421.576625 160.251393 
L 430.973775 159.902499 
L 440.370925 160.139555 
L 449.768075 160.098489 
L 459.165225 160.521661 
L 468.562375 160.667119 
L 477.959525 160.760186 
L 487.356675 160.112211 
L 496.753825 159.905363 
L 506.150975 161.149395 
L 515.548125 162.199638 
L 524.945275 162.014741 
L 534.342425 160.491639 
L 543.739575 160.958269 
L 553.136725 161.37424 
L 562.533875 161.982939 
L 571.931025 163.392529 
L 581.328175 163.397756 
L 590.725325 164.285503 
L 600.122475 159.688908 
L 609.519625 157.931166 
L 618.916775 157.700778 
L 628.313925 157.855433 
L 637.711075 156.961342 
L 647.108225 155.764308 
L 656.505375 155.955344 
L 665.902525 156.206141 
L 675.299675 156.167472 
L 684.696825 157.436162 
L 694.093975 157.915341 
L 703.491125 155.382983 
L 712.888275 158.566426 
L 722.285425 164.64673 
L 731.682575 165.228969 
L 741.079725 165.5539 
L 750.476875 160.743514 
L 759.874025 158.676668 
L 769.271175 158.546818 
L 778.668325 157.145714 
L 788.065475 152.19998 
L 797.462625 150.20353 
L 806.859775 149.870075 
L 816.256925 152.786348 
L 825.654075 156.044958 
L 835.051225 157.613977 
L 844.448375 159.598009 
L 853.845525 162.152434 
L 863.242675 165.106455 
L 872.639825 166.952598 
L 882.036975 168.211606 
L 891.434125 173.778362 
L 900.831275 182.388718 
L 910.228425 188.793328 
L 919.625575 191.140231 
L 929.022725 195.096741 
L 938.419875 204.683594 
L 947.817025 218.321927 
L 957.214175 230.403173 
L 966.611325 243.957836 
L 976.008475 264.143035 
" clip-path="url(#pf0a511621b)" style="fill: none; stroke: #90ed7d; stroke-linecap: square"/>
   </g>
   <g id="line2d_13">
    <path d="M 45.690625 216.029493 
L 55.087775 203.804998 
L 64.484925 181.807793 
L 73.882075 140.832604 
L 83.279225 107.811427 
L 92.676375 99.153284 
L 102.073525 90.425486 
L 111.470675 78.802459 
L 120.867825 75.405151 
L 130.264975 73.755998 
L 139.662125 71.958816 
L 149.059275 70.29828 
L 158.456425 68.872682 
L 167.853575 68.794345 
L 177.250725 68.702702 
L 186.647875 67.750311 
L 196.045025 67.867512 
L 205.442175 68.910368 
L 214.839325 69.473865 
L 224.236475 69.181752 
L 233.633625 69.001557 
L 243.030775 68.811677 
L 252.427925 68.633827 
L 261.825075 69.008033 
L 271.222225 69.383606 
L 280.619375 69.799901 
L 290.016525 71.361026 
L 299.413675 80.399558 
L 308.810825 88.404989 
L 318.207975 96.772755 
L 327.605125 99.451012 
L 337.002275 106.288702 
L 346.399425 111.919746 
L 355.796575 113.978048 
L 365.193725 115.246889 
L 374.590875 116.956896 
L 383.988025 137.755128 
L 393.385175 162.519487 
L 402.782325 174.754886 
L 412.179475 177.317235 
L 421.576625 178.391547 
L 430.973775 180.116692 
L 440.370925 180.456431 
L 449.768075 180.356481 
L 459.165225 181.881288 
L 468.562375 183.359519 
L 477.959525 184.180745 
L 487.356675 184.019032 
L 496.753825 184.429983 
L 506.150975 185.151259 
L 515.548125 185.888947 
L 524.945275 185.562194 
L 534.342425 185.317893 
L 543.739575 185.209107 
L 553.136725 185.774964 
L 562.533875 186.573377 
L 571.931025 187.6838 
L 581.328175 187.69401 
L 590.725325 186.39366 
L 600.122475 186.939935 
L 609.519625 187.680077 
L 618.916775 188.639842 
L 628.313925 189.3172 
L 637.711075 188.07368 
L 647.108225 186.777733 
L 656.505375 187.102112 
L 665.902525 187.833751 
L 675.299675 188.696135 
L 684.696825 189.56951 
L 694.093975 190.443435 
L 703.491125 191.277087 
L 712.888275 192.118578 
L 722.285425 193.252678 
L 731.682575 194.542509 
L 741.079725 195.484949 
L 750.476875 196.060525 
L 759.874025 197.141378 
L 769.271175 198.684521 
L 778.668325 199.550276 
L 788.065475 200.537739 
L 797.462625 201.876842 
L 806.859775 203.937065 
L 816.256925 207.49354 
L 825.654075 209.801408 
L 835.051225 211.373277 
L 844.448375 212.611724 
L 853.845525 213.632301 
L 863.242675 215.473038 
L 872.639825 216.771418 
L 882.036975 218.026211 
L 891.434125 219.561156 
L 900.831275 220.428881 
L 910.228425 221.63381 
L 919.625575 223.521564 
L 929.022725 225.485147 
L 938.419875 228.774618 
L 947.817025 234.41376 
L 957.214175 243.068034 
L 966.611325 251.889618 
L 976.008475 266.383022 
" clip-path="url(#pf0a511621b)" style="fill: none; stroke: #f7a35c; stroke-linecap: square"/>
   </g>
   <g id="line2d_14">
    <path d="M 45.690625 220.519944 
L 55.087775 208.894841 
L 64.484925 187.024776 
L 73.882075 145.337425 
L 83.279225 106.565961 
L 92.676375 95.911366 
L 102.073525 86.848198 
L 111.470675 73.982388 
L 120.867825 70.145986 
L 130.264975 68.525068 
L 139.662125 66.512797 
L 149.059275 65.121882 
L 158.456425 64.136844 
L 167.853575 64.140385 
L 177.250725 64.012123 
L 186.647875 63.155063 
L 196.045025 63.242767 
L 205.442175 63.968585 
L 214.839325 64.341644 
L 224.236475 63.532332 
L 233.633625 62.925221 
L 243.030775 62.516828 
L 252.427925 62.300668 
L 261.825075 62.580884 
L 271.222225 62.975209 
L 280.619375 63.208437 
L 290.016525 64.7389 
L 299.413675 74.574365 
L 308.810825 83.405529 
L 318.207975 92.98465 
L 327.605125 95.864828 
L 337.002275 102.668413 
L 346.399425 108.948207 
L 355.796575 111.15117 
L 365.193725 112.12183 
L 374.590875 113.762437 
L 383.988025 132.95285 
L 393.385175 161.220978 
L 402.782325 178.802685 
L 412.179475 179.449947 
L 421.576625 180.411019 
L 430.973775 181.917365 
L 440.370925 182.249862 
L 449.768075 181.860176 
L 459.165225 183.793613 
L 468.562375 185.832412 
L 477.959525 186.841303 
L 487.356675 186.52706 
L 496.753825 186.643754 
L 506.150975 187.08802 
L 515.548125 187.559438 
L 524.945275 186.918721 
L 534.342425 186.509316 
L 543.739575 186.217674 
L 553.136725 186.504203 
L 562.533875 187.076569 
L 571.931025 186.165752 
L 581.328175 187.135225 
L 590.725325 185.706645 
L 600.122475 186.071653 
L 609.519625 186.74208 
L 618.916775 187.375743 
L 628.313925 187.795111 
L 637.711075 188.163168 
L 647.108225 187.59125 
L 656.505375 187.88946 
L 665.902525 188.901719 
L 675.299675 190.154237 
L 684.696825 191.212334 
L 694.093975 192.254676 
L 703.491125 193.167483 
L 712.888275 194.030597 
L 722.285425 195.180356 
L 731.682575 196.467088 
L 741.079725 197.532845 
L 750.476875 198.368087 
L 759.874025 199.85125 
L 769.271175 201.718144 
L 778.668325 202.691055 
L 788.065475 203.768964 
L 797.462625 205.218549 
L 806.859775 207.542238 
L 816.256925 211.49258 
L 825.654075 213.814146 
L 835.051225 215.670703 
L 844.448375 217.072199 
L 853.845525 218.513241 
L 863.242675 220.495823 
L 872.639825 221.837359 
L 882.036975 223.135446 
L 891.434125 224.523463 
L 900.831275 225.412522 
L 910.228425 226.646341 
L 919.625575 228.565618 
L 929.022725 230.458575 
L 938.419875 233.512594 
L 947.817025 237.943736 
L 957.214175 244.755872 
L 966.611325 253.297301 
L 976.008475 266.857157 
" clip-path="url(#pf0a511621b)" style="fill: none; stroke: #8085e9; stroke-linecap: square"/>
   </g>
   <g id="line2d_15">
    <path d="M 45.690625 209.685328 
L 55.087775 196.813797 
L 64.484925 178.418986 
L 73.882075 146.188924 
L 83.279225 116.176144 
L 92.676375 110.269295 
L 102.073525 102.413189 
L 111.470675 91.18819 
L 120.867825 87.732028 
L 130.264975 86.097419 
L 139.662125 83.804296 
L 149.059275 81.842856 
L 158.456425 80.054506 
L 167.853575 79.749734 
L 177.250725 79.631334 
L 186.647875 78.86326 
L 196.045025 79.246051 
L 205.442175 80.368664 
L 214.839325 80.967497 
L 224.236475 81.262904 
L 233.633625 81.257057 
L 243.030775 81.284334 
L 252.427925 80.900528 
L 261.825075 81.181093 
L 271.222225 81.777733 
L 280.619375 82.260266 
L 290.016525 83.335646 
L 299.413675 90.395795 
L 308.810825 95.573136 
L 318.207975 101.63685 
L 327.605125 104.404841 
L 337.002275 109.390207 
L 346.399425 114.465837 
L 355.796575 116.487975 
L 365.193725 118.086583 
L 374.590875 119.657488 
L 383.988025 134.652985 
L 393.385175 155.703347 
L 402.782325 168.542886 
L 412.179475 169.136996 
L 421.576625 170.265345 
L 430.973775 171.901042 
L 440.370925 172.399524 
L 449.768075 172.321117 
L 459.165225 173.706854 
L 468.562375 175.269735 
L 477.959525 176.216257 
L 487.356675 175.798482 
L 496.753825 176.532574 
L 506.150975 177.432078 
L 515.548125 178.561141 
L 524.945275 178.492752 
L 534.342425 178.510855 
L 543.739575 178.799136 
L 553.136725 179.54132 
L 562.533875 180.468695 
L 571.931025 180.983339 
L 581.328175 182.321733 
L 590.725325 181.965669 
L 600.122475 182.370449 
L 609.519625 183.095909 
L 618.916775 184.033337 
L 628.313925 184.729388 
L 637.711075 184.421266 
L 647.108225 183.989119 
L 656.505375 184.365518 
L 665.902525 185.167787 
L 675.299675 185.985955 
L 684.696825 186.795196 
L 694.093975 187.567822 
L 703.491125 188.300093 
L 712.888275 188.824666 
L 722.285425 190.024034 
L 731.682575 191.205795 
L 741.079725 192.295092 
L 750.476875 192.972488 
L 759.874025 194.216628 
L 769.271175 195.765656 
L 778.668325 196.743571 
L 788.065475 197.826434 
L 797.462625 199.129942 
L 806.859775 201.006141 
L 816.256925 203.985984 
L 825.654075 205.852658 
L 835.051225 207.426529 
L 844.448375 208.666097 
L 853.845525 209.629768 
L 863.242675 211.371652 
L 872.639825 212.868599 
L 882.036975 214.424013 
L 891.434125 216.009559 
L 900.831275 216.879991 
L 910.228425 218.244387 
L 919.625575 220.235379 
L 929.022725 222.407189 
L 938.419875 225.909425 
L 947.817025 231.514339 
L 957.214175 239.099664 
L 966.611325 248.732349 
L 976.008475 265.241798 
" clip-path="url(#pf0a511621b)" style="fill: none; stroke: #f15c80; stroke-linecap: square"/>
   </g>
   <g id="line2d_16">
    <path d="M 45.690625 207.57227 
L 55.087775 194.534457 
L 64.484925 179.077107 
L 73.882075 152.543282 
L 83.279225 125.110001 
L 92.676375 118.946215 
L 102.073525 111.414659 
L 111.470675 100.225826 
L 120.867825 96.722532 
L 130.264975 94.817045 
L 139.662125 92.540215 
L 149.059275 90.259767 
L 158.456425 88.353122 
L 167.853575 88.198329 
L 177.250725 87.853183 
L 186.647875 86.699205 
L 196.045025 87.039896 
L 205.442175 88.011201 
L 214.839325 88.417321 
L 224.236475 88.563719 
L 233.633625 88.700278 
L 243.030775 88.589123 
L 252.427925 88.197529 
L 261.825075 88.529437 
L 271.222225 89.023618 
L 280.619375 89.600651 
L 290.016525 90.591622 
L 299.413675 96.003687 
L 308.810825 101.044243 
L 318.207975 107.391091 
L 327.605125 109.94433 
L 337.002275 113.650492 
L 346.399425 118.176654 
L 355.796575 120.160939 
L 365.193725 121.703142 
L 374.590875 122.817885 
L 383.988025 133.694068 
L 393.385175 150.089208 
L 402.782325 162.336613 
L 412.179475 163.064711 
L 421.576625 164.273573 
L 430.973775 165.962883 
L 440.370925 166.529669 
L 449.768075 166.533805 
L 459.165225 167.933066 
L 468.562375 169.537701 
L 477.959525 170.546232 
L 487.356675 170.10437 
L 496.753825 171.24828 
L 506.150975 172.495748 
L 515.548125 173.689792 
L 524.945275 173.708213 
L 534.342425 173.978346 
L 543.739575 174.516472 
L 553.136725 175.45797 
L 562.533875 176.427187 
L 571.931025 177.426666 
L 581.328175 179.178335 
L 590.725325 179.363427 
L 600.122475 179.756799 
L 609.519625 180.477603 
L 618.916775 181.324751 
L 628.313925 181.946702 
L 637.711075 181.696083 
L 647.108225 180.935617 
L 656.505375 181.401003 
L 665.902525 182.441583 
L 675.299675 183.362283 
L 684.696825 184.174648 
L 694.093975 184.920421 
L 703.491125 185.712123 
L 712.888275 186.261851 
L 722.285425 187.459398 
L 731.682575 188.710318 
L 741.079725 189.772892 
L 750.476875 190.36633 
L 759.874025 191.446731 
L 769.271175 192.885002 
L 778.668325 193.829282 
L 788.065475 194.778356 
L 797.462625 196.195789 
L 806.859775 198.278959 
L 816.256925 200.783497 
L 825.654075 202.33714 
L 835.051225 203.624988 
L 844.448375 204.884122 
L 853.845525 205.860557 
L 863.242675 207.50026 
L 872.639825 209.142186 
L 882.036975 210.713928 
L 891.434125 212.330263 
L 900.831275 213.212982 
L 910.228425 214.548243 
L 919.625575 216.788702 
L 929.022725 219.222713 
L 938.419875 223.226707 
L 947.817025 229.511656 
L 957.214175 237.815602 
L 966.611325 247.967088 
L 976.008475 264.99973 
" clip-path="url(#pf0a511621b)" style="fill: none; stroke: #e4d354; stroke-linecap: square"/>
   </g>
   <g id="line2d_17">
    <path d="M 45.690625 210.691385 
L 55.087775 197.798334 
L 64.484925 180.373414 
L 73.882075 148.360868 
L 83.279225 116.884914 
L 92.676375 109.89802 
L 102.073525 102.570348 
L 111.470675 92.041882 
L 120.867825 88.954119 
L 130.264975 86.801627 
L 139.662125 84.334658 
L 149.059275 82.322594 
L 158.456425 80.705657 
L 167.853575 80.690368 
L 177.250725 80.575041 
L 186.647875 79.938605 
L 196.045025 80.364432 
L 205.442175 81.32436 
L 214.839325 81.80374 
L 224.236475 82.168223 
L 233.633625 82.132566 
L 243.030775 82.045978 
L 252.427925 82.010286 
L 261.825075 82.529054 
L 271.222225 83.105752 
L 280.619375 83.592692 
L 290.016525 84.46238 
L 299.413675 90.119823 
L 308.810825 95.39719 
L 318.207975 101.638963 
L 327.605125 103.977317 
L 337.002275 108.26665 
L 346.399425 113.061347 
L 355.796575 115.151211 
L 365.193725 116.409182 
L 374.590875 117.89061 
L 383.988025 132.92172 
L 393.385175 155.072017 
L 402.782325 167.009175 
L 412.179475 170.518357 
L 421.576625 171.336199 
L 430.973775 172.834396 
L 440.370925 173.11234 
L 449.768075 172.80741 
L 459.165225 173.991243 
L 468.562375 175.172527 
L 477.959525 176.034642 
L 487.356675 175.921881 
L 496.753825 176.68661 
L 506.150975 177.561858 
L 515.548125 178.511559 
L 524.945275 178.415931 
L 534.342425 178.324161 
L 543.739575 178.469841 
L 553.136725 179.272248 
L 562.533875 180.095421 
L 571.931025 181.315852 
L 581.328175 181.114446 
L 590.725325 179.899049 
L 600.122475 180.425052 
L 609.519625 181.287041 
L 618.916775 181.55278 
L 628.313925 181.761889 
L 637.711075 181.501335 
L 647.108225 180.715851 
L 656.505375 181.250119 
L 665.902525 182.236255 
L 675.299675 183.283818 
L 684.696825 184.355455 
L 694.093975 185.262722 
L 703.491125 186.260861 
L 712.888275 187.106714 
L 722.285425 188.417324 
L 731.682575 189.731121 
L 741.079725 190.497208 
L 750.476875 191.593532 
L 759.874025 192.919456 
L 769.271175 194.734783 
L 778.668325 195.934805 
L 788.065475 197.186284 
L 797.462625 198.821212 
L 806.859775 201.226504 
L 816.256925 205.131814 
L 825.654075 207.276696 
L 835.051225 208.841156 
L 844.448375 210.270497 
L 853.845525 211.400097 
L 863.242675 213.133134 
L 872.639825 214.426863 
L 882.036975 215.875854 
L 891.434125 217.574173 
L 900.831275 218.134175 
L 910.228425 219.244465 
L 919.625575 221.155729 
L 929.022725 224.17663 
L 938.419875 228.174828 
L 947.817025 233.844558 
L 957.214175 241.733879 
L 966.611325 250.623982 
L 976.008475 265.852178 
" clip-path="url(#pf0a511621b)" style="fill: none; stroke: #2b908f; stroke-linecap: square"/>
   </g>
   <g id="line2d_18">
    <path d="M 45.690625 237.867755 
L 55.087775 230.791783 
L 64.484925 205.622396 
L 73.882075 153.118567 
L 83.279225 105.871019 
L 92.676375 87.528373 
L 102.073525 78.089633 
L 111.470675 59.23193 
L 120.867825 54.208807 
L 130.264975 52.851003 
L 139.662125 51.105148 
L 149.059275 49.734657 
L 158.456425 48.693634 
L 167.853575 48.520441 
L 177.250725 48.255912 
L 186.647875 47.705728 
L 196.045025 47.85223 
L 205.442175 48.108008 
L 214.839325 48.075407 
L 224.236475 46.402384 
L 233.633625 44.071049 
L 243.030775 43.324817 
L 252.427925 42.916236 
L 261.825075 42.966832 
L 271.222225 42.824025 
L 280.619375 42.822218 
L 290.016525 44.197676 
L 299.413675 57.789988 
L 308.810825 66.233684 
L 318.207975 77.331365 
L 327.605125 80.7576 
L 337.002275 90.089107 
L 346.399425 100.87997 
L 355.796575 102.937379 
L 365.193725 102.325691 
L 374.590875 103.800092 
L 383.988025 133.377021 
L 393.385175 169.845235 
L 402.782325 194.373099 
L 412.179475 194.806087 
L 421.576625 195.643986 
L 430.973775 197.447798 
L 440.370925 196.690588 
L 449.768075 194.25213 
L 459.165225 195.551593 
L 468.562375 197.610316 
L 477.959525 197.949702 
L 487.356675 197.326976 
L 496.753825 196.653257 
L 506.150975 196.391875 
L 515.548125 196.232981 
L 524.945275 194.773655 
L 534.342425 192.872171 
L 543.739575 190.20244 
L 553.136725 189.26494 
L 562.533875 189.508628 
L 571.931025 188.611882 
L 581.328175 185.140098 
L 590.725325 179.958477 
L 600.122475 180.626402 
L 609.519625 181.671188 
L 618.916775 182.930865 
L 628.313925 183.450516 
L 637.711075 183.92001 
L 647.108225 182.927591 
L 656.505375 183.848955 
L 665.902525 185.762895 
L 675.299675 188.252174 
L 684.696825 190.197098 
L 694.093975 191.394927 
L 703.491125 192.3013 
L 712.888275 193.332556 
L 722.285425 194.550904 
L 731.682575 196.194191 
L 741.079725 197.554706 
L 750.476875 199.138688 
L 759.874025 200.817067 
L 769.271175 204.529669 
L 778.668325 206.277178 
L 788.065475 207.643861 
L 797.462625 209.624615 
L 806.859775 213.915171 
L 816.256925 222.505919 
L 825.654075 227.299207 
L 835.051225 229.960022 
L 844.448375 231.453308 
L 853.845525 234.226659 
L 863.242675 237.220999 
L 872.639825 238.252759 
L 882.036975 239.083023 
L 891.434125 239.96619 
L 900.831275 240.348091 
L 910.228425 241.170973 
L 919.625575 242.56175 
L 929.022725 244.150088 
L 938.419875 246.627588 
L 947.817025 250.075278 
L 957.214175 255.704545 
L 966.611325 261.259524 
L 976.008475 269.609373 
" clip-path="url(#pf0a511621b)" style="fill: none; stroke: #f45b5b; stroke-linecap: square"/>
   </g>
   <g id="line2d_19">
    <path d="M 45.690625 219.703154 
L 55.087775 208.242127 
L 64.484925 189.607772 
L 73.882075 149.389447 
L 83.279225 109.089344 
L 92.676375 98.204639 
L 102.073525 89.374737 
L 111.470675 76.127627 
L 120.867825 72.382289 
L 130.264975 70.720129 
L 139.662125 68.30512 
L 149.059275 66.85667 
L 158.456425 65.844376 
L 167.853575 66.229276 
L 177.250725 66.483128 
L 186.647875 65.886439 
L 196.045025 66.388676 
L 205.442175 67.415024 
L 214.839325 67.843173 
L 224.236475 67.533245 
L 233.633625 67.613255 
L 243.030775 67.713046 
L 252.427925 67.396882 
L 261.825075 67.529532 
L 271.222225 67.921889 
L 280.619375 68.242374 
L 290.016525 69.142341 
L 299.413675 76.334947 
L 308.810825 82.676996 
L 318.207975 90.39278 
L 327.605125 92.995108 
L 337.002275 98.079424 
L 346.399425 104.186674 
L 355.796575 106.257835 
L 365.193725 107.310288 
L 374.590875 108.932108 
L 383.988025 128.899406 
L 393.385175 158.333222 
L 402.782325 179.999622 
L 412.179475 180.61872 
L 421.576625 181.537032 
L 430.973775 183.389108 
L 440.370925 183.845736 
L 449.768075 183.378211 
L 459.165225 184.632146 
L 468.562375 186.213005 
L 477.959525 187.186833 
L 487.356675 186.897356 
L 496.753825 187.448368 
L 506.150975 187.992516 
L 515.548125 188.751752 
L 524.945275 187.822479 
L 534.342425 187.175464 
L 543.739575 186.664735 
L 553.136725 186.960495 
L 562.533875 187.280552 
L 571.931025 186.088879 
L 581.328175 186.475977 
L 590.725325 184.243857 
L 600.122475 184.27552 
L 609.519625 184.799204 
L 618.916775 185.446217 
L 628.313925 185.759495 
L 637.711075 184.959321 
L 647.108225 183.639703 
L 656.505375 184.078018 
L 665.902525 185.105558 
L 675.299675 186.368502 
L 684.696825 187.590236 
L 694.093975 188.518587 
L 703.491125 189.455325 
L 712.888275 190.396717 
L 722.285425 191.738903 
L 731.682575 193.149775 
L 741.079725 194.091404 
L 750.476875 194.933019 
L 759.874025 196.717595 
L 769.271175 199.136546 
L 778.668325 200.519234 
L 788.065475 201.813694 
L 797.462625 203.497377 
L 806.859775 206.294067 
L 816.256925 211.27058 
L 825.654075 214.024744 
L 835.051225 215.734626 
L 844.448375 217.173648 
L 853.845525 218.772284 
L 863.242675 220.762139 
L 872.639825 222.12835 
L 882.036975 223.605647 
L 891.434125 225.25498 
L 900.831275 225.966622 
L 910.228425 226.978989 
L 919.625575 228.798355 
L 929.022725 230.816635 
L 938.419875 234.043658 
L 947.817025 239.356646 
L 957.214175 246.86457 
L 966.611325 254.468497 
L 976.008475 267.232968 
" clip-path="url(#pf0a511621b)" style="fill: none; stroke: #91e8e1; stroke-linecap: square"/>
   </g>
   <g id="line2d_20">
    <path d="M 45.690625 232.352451 
L 55.087775 224.178467 
L 64.484925 202.146782 
L 73.882075 150.965082 
L 83.279225 102.375714 
L 92.676375 84.431726 
L 102.073525 74.013874 
L 111.470675 58.1079 
L 120.867825 53.383797 
L 130.264975 52.071752 
L 139.662125 50.110499 
L 149.059275 48.473791 
L 158.456425 47.231769 
L 167.853575 47.337141 
L 177.250725 47.121216 
L 186.647875 46.391009 
L 196.045025 46.683969 
L 205.442175 47.330602 
L 214.839325 47.445226 
L 224.236475 46.058569 
L 233.633625 45.142165 
L 243.030775 44.677428 
L 252.427925 44.209937 
L 261.825075 44.566379 
L 271.222225 44.687867 
L 280.619375 44.794161 
L 290.016525 45.991411 
L 299.413675 56.055594 
L 308.810825 65.069094 
L 318.207975 75.182079 
L 327.605125 78.257153 
L 337.002275 85.116905 
L 346.399425 93.546152 
L 355.796575 95.903439 
L 365.193725 96.330159 
L 374.590875 98.235234 
L 383.988025 125.714592 
L 393.385175 163.9326 
L 402.782325 186.119849 
L 412.179475 192.466739 
L 421.576625 193.250736 
L 430.973775 195.275843 
L 440.370925 195.18302 
L 449.768075 193.742263 
L 459.165225 195.002871 
L 468.562375 196.676742 
L 477.959525 197.037981 
L 487.356675 196.539776 
L 496.753825 196.597308 
L 506.150975 196.854348 
L 515.548125 197.069961 
L 524.945275 196.19831 
L 534.342425 194.994361 
L 543.739575 193.39037 
L 553.136725 193.035265 
L 562.533875 193.350796 
L 571.931025 193.499505 
L 581.328175 191.467364 
L 590.725325 188.124103 
L 600.122475 188.631031 
L 609.519625 189.43886 
L 618.916775 190.424 
L 628.313925 190.989852 
L 637.711075 191.454198 
L 647.108225 190.562325 
L 656.505375 191.270451 
L 665.902525 192.56988 
L 675.299675 194.142722 
L 684.696825 195.443776 
L 694.093975 196.318211 
L 703.491125 197.102207 
L 712.888275 198.026969 
L 722.285425 199.175412 
L 731.682575 200.664486 
L 741.079725 201.812441 
L 750.476875 202.960639 
L 759.874025 204.337418 
L 769.271175 206.958079 
L 778.668325 208.354618 
L 788.065475 209.758318 
L 797.462625 211.69201 
L 806.859775 215.163369 
L 816.256925 221.556405 
L 825.654075 225.201648 
L 835.051225 227.295915 
L 844.448375 228.716088 
L 853.845525 230.798216 
L 863.242675 233.035715 
L 872.639825 234.211974 
L 882.036975 235.376252 
L 891.434125 236.516035 
L 900.831275 236.983691 
L 910.228425 237.874067 
L 919.625575 239.407447 
L 929.022725 241.278417 
L 938.419875 244.058436 
L 947.817025 247.954641 
L 957.214175 253.714052 
L 966.611325 259.846094 
L 976.008475 269.147737 
" clip-path="url(#pf0a511621b)" style="fill: none; stroke: #7cb5ec; stroke-linecap: square"/>
   </g>
   <g id="line2d_21">
    <path d="M 45.690625 235.004859 
L 55.087775 223.733214 
L 64.484925 202.999903 
L 73.882075 175.854634 
L 83.279225 138.96457 
L 92.676375 124.362965 
L 102.073525 113.531504 
L 111.470675 95.957344 
L 120.867825 81.795194 
L 130.264975 73.232656 
L 139.662125 66.595834 
L 149.059275 61.549262 
L 158.456425 57.529363 
L 167.853575 54.224556 
L 177.250725 57.143664 
L 186.647875 64.720933 
L 196.045025 72.747757 
L 205.442175 74.38684 
L 214.839325 76.61754 
L 224.236475 89.739048 
L 233.633625 118.136473 
L 243.030775 130.625032 
L 252.427925 139.678267 
L 261.825075 144.386832 
L 271.222225 158.220014 
L 280.619375 163.176346 
L 290.016525 167.196085 
L 299.413675 169.624757 
L 308.810825 170.511776 
L 318.207975 174.00136 
L 327.605125 175.943778 
L 337.002275 179.696148 
L 346.399425 181.596464 
L 355.796575 183.665421 
L 365.193725 185.736359 
L 374.590875 185.6343 
L 383.988025 187.430116 
L 393.385175 187.437863 
L 402.782325 187.442177 
L 412.179475 187.705611 
L 421.576625 187.890064 
L 430.973775 187.083565 
L 440.370925 186.93239 
L 449.768075 186.344123 
L 459.165225 186.554742 
L 468.562375 186.533422 
L 477.959525 186.498007 
L 487.356675 184.628166 
L 496.753825 181.276322 
L 506.150975 183.117977 
L 515.548125 183.454119 
L 524.945275 181.897269 
L 534.342425 178.591156 
L 543.739575 178.281728 
L 553.136725 178.717941 
L 562.533875 179.43499 
L 571.931025 181.466128 
L 581.328175 180.918751 
L 590.725325 182.751416 
L 600.122475 166.269802 
L 609.519625 160.408887 
L 618.916775 158.575626 
L 628.313925 156.894706 
L 637.711075 151.41886 
L 647.108225 148.27816 
L 656.505375 147.156616 
L 665.902525 146.854074 
L 675.299675 147.927726 
L 684.696825 148.864857 
L 694.093975 148.515726 
L 703.491125 142.810984 
L 712.888275 151.825084 
L 722.285425 169.91647 
L 731.682575 171.251077 
L 741.079725 172.005127 
L 750.476875 163.69947 
L 759.874025 159.330895 
L 769.271175 159.770412 
L 778.668325 156.722211 
L 788.065475 145.522415 
L 797.462625 139.167971 
L 806.859775 140.449378 
L 816.256925 145.286983 
L 825.654075 148.441288 
L 835.051225 151.342504 
L 844.448375 154.784708 
L 853.845525 160.40246 
L 863.242675 164.500691 
L 872.639825 165.936319 
L 882.036975 168.045757 
L 891.434125 174.19497 
L 900.831275 188.601031 
L 910.228425 199.423133 
L 919.625575 201.858928 
L 929.022725 206.220386 
L 938.419875 218.417671 
L 947.817025 234.207412 
L 957.214175 243.813711 
L 966.611325 253.987914 
L 976.008475 267.713806 
" clip-path="url(#pf0a511621b)" style="fill: none; stroke: #434348; stroke-linecap: square"/>
   </g>
   <g id="line2d_22">
    <path d="M 45.690625 273.99006 
L 985.405625 273.99006 
" clip-path="url(#pf0a511621b)" style="fill: none; stroke: #dedede; stroke-width: 2; stroke-linecap: square"/>
   </g>
   <g id="text_18">
    <!-- Qualimap RNAseq: Coverage Profile Along Genes (total) -->
    <g transform="translate(292.166875 19.3575) scale(0.16 -0.16)">
     <defs>
      <path id="DejaVuSans-51" d="M 2522 4238 
Q 1834 4238 1429 3725 
Q 1025 3213 1025 2328 
Q 1025 1447 1429 934 
Q 1834 422 2522 422 
Q 3209 422 3611 934 
Q 4013 1447 4013 2328 
Q 4013 3213 3611 3725 
Q 3209 4238 2522 4238 
z
M 3406 84 
L 4238 -825 
L 3475 -825 
L 2784 -78 
Q 2681 -84 2626 -87 
Q 2572 -91 2522 -91 
Q 1538 -91 948 567 
Q 359 1225 359 2328 
Q 359 3434 948 4092 
Q 1538 4750 2522 4750 
Q 3503 4750 4090 4092 
Q 4678 3434 4678 2328 
Q 4678 1516 4351 937 
Q 4025 359 3406 84 
z
" transform="scale(0.015625)"/>
      <path id="DejaVuSans-52" d="M 2841 2188 
Q 3044 2119 3236 1894 
Q 3428 1669 3622 1275 
L 4263 0 
L 3584 0 
L 2988 1197 
Q 2756 1666 2539 1819 
Q 2322 1972 1947 1972 
L 1259 1972 
L 1259 0 
L 628 0 
L 628 4666 
L 2053 4666 
Q 2853 4666 3247 4331 
Q 3641 3997 3641 3322 
Q 3641 2881 3436 2590 
Q 3231 2300 2841 2188 
z
M 1259 4147 
L 1259 2491 
L 2053 2491 
Q 2509 2491 2742 2702 
Q 2975 2913 2975 3322 
Q 2975 3731 2742 3939 
Q 2509 4147 2053 4147 
L 1259 4147 
z
" transform="scale(0.015625)"/>
      <path id="DejaVuSans-4e" d="M 628 4666 
L 1478 4666 
L 3547 763 
L 3547 4666 
L 4159 4666 
L 4159 0 
L 3309 0 
L 1241 3903 
L 1241 0 
L 628 0 
L 628 4666 
z
" transform="scale(0.015625)"/>
      <path id="DejaVuSans-41" d="M 2188 4044 
L 1331 1722 
L 3047 1722 
L 2188 4044 
z
M 1831 4666 
L 2547 4666 
L 4325 0 
L 3669 0 
L 3244 1197 
L 1141 1197 
L 716 0 
L 50 0 
L 1831 4666 
z
" transform="scale(0.015625)"/>
      <path id="DejaVuSans-71" d="M 947 1747 
Q 947 1113 1208 752 
Q 1469 391 1925 391 
Q 2381 391 2643 752 
Q 2906 1113 2906 1747 
Q 2906 2381 2643 2742 
Q 2381 3103 1925 3103 
Q 1469 3103 1208 2742 
Q 947 2381 947 1747 
z
M 2906 525 
Q 2725 213 2448 61 
Q 2172 -91 1784 -91 
Q 1150 -91 751 415 
Q 353 922 353 1747 
Q 353 2572 751 3078 
Q 1150 3584 1784 3584 
Q 2172 3584 2448 3432 
Q 2725 3281 2906 2969 
L 2906 3500 
L 3481 3500 
L 3481 -1331 
L 2906 -1331 
L 2906 525 
z
" transform="scale(0.015625)"/>
      <path id="DejaVuSans-3a" d="M 750 794 
L 1409 794 
L 1409 0 
L 750 0 
L 750 794 
z
M 750 3309 
L 1409 3309 
L 1409 2516 
L 750 2516 
L 750 3309 
z
" transform="scale(0.015625)"/>
      <path id="DejaVuSans-43" d="M 4122 4306 
L 4122 3641 
Q 3803 3938 3442 4084 
Q 3081 4231 2675 4231 
Q 1875 4231 1450 3742 
Q 1025 3253 1025 2328 
Q 1025 1406 1450 917 
Q 1875 428 2675 428 
Q 3081 428 3442 575 
Q 3803 722 4122 1019 
L 4122 359 
Q 3791 134 3420 21 
Q 3050 -91 2638 -91 
Q 1578 -91 968 557 
Q 359 1206 359 2328 
Q 359 3453 968 4101 
Q 1578 4750 2638 4750 
Q 3056 4750 3426 4639 
Q 3797 4528 4122 4306 
z
" transform="scale(0.015625)"/>
      <path id="DejaVuSans-66" d="M 2375 4863 
L 2375 4384 
L 1825 4384 
Q 1516 4384 1395 4259 
Q 1275 4134 1275 3809 
L 1275 3500 
L 2222 3500 
L 2222 3053 
L 1275 3053 
L 1275 0 
L 697 0 
L 697 3053 
L 147 3053 
L 147 3500 
L 697 3500 
L 697 3744 
Q 697 4328 969 4595 
Q 1241 4863 1831 4863 
L 2375 4863 
z
" transform="scale(0.015625)"/>
      <path id="DejaVuSans-47" d="M 3809 666 
L 3809 1919 
L 2778 1919 
L 2778 2438 
L 4434 2438 
L 4434 434 
Q 4069 175 3628 42 
Q 3188 -91 2688 -91 
Q 1594 -91 976 548 
Q 359 1188 359 2328 
Q 359 3472 976 4111 
Q 1594 4750 2688 4750 
Q 3144 4750 3555 4637 
Q 3966 4525 4313 4306 
L 4313 3634 
Q 3963 3931 3569 4081 
Q 3175 4231 2741 4231 
Q 1884 4231 1454 3753 
Q 1025 3275 1025 2328 
Q 1025 1384 1454 906 
Q 1884 428 2741 428 
Q 3075 428 3337 486 
Q 3600 544 3809 666 
z
" transform="scale(0.015625)"/>
     </defs>
     <use xlink:href="#DejaVuSans-51"/>
     <use xlink:href="#DejaVuSans-75" x="78.710938"/>
     <use xlink:href="#DejaVuSans-61" x="142.089844"/>
     <use xlink:href="#DejaVuSans-6c" x="203.369141"/>
     <use xlink:href="#DejaVuSans-69" x="231.152344"/>
     <use xlink:href="#DejaVuSans-6d" x="258.935547"/>
     <use xlink:href="#DejaVuSans-61" x="356.347656"/>
     <use xlink:href="#DejaVuSans-70" x="417.626953"/>
     <use xlink:href="#DejaVuSans-20" x="481.103516"/>
     <use xlink:href="#DejaVuSans-52" x="512.890625"/>
     <use xlink:href="#DejaVuSans-4e" x="582.373047"/>
     <use xlink:href="#DejaVuSans-41" x="657.177734"/>
     <use xlink:href="#DejaVuSans-73" x="725.585938"/>
     <use xlink:href="#DejaVuSans-65" x="777.685547"/>
     <use xlink:href="#DejaVuSans-71" x="839.208984"/>
     <use xlink:href="#DejaVuSans-3a" x="902.685547"/>
     <use xlink:href="#DejaVuSans-20" x="936.376953"/>
     <use xlink:href="#DejaVuSans-43" x="968.164062"/>
     <use xlink:href="#DejaVuSans-6f" x="1037.988281"/>
     <use xlink:href="#DejaVuSans-76" x="1099.169922"/>
     <use xlink:href="#DejaVuSans-65" x="1158.349609"/>
     <use xlink:href="#DejaVuSans-72" x="1219.873047"/>
     <use xlink:href="#DejaVuSans-61" x="1260.986328"/>
     <use xlink:href="#DejaVuSans-67" x="1322.265625"/>
     <use xlink:href="#DejaVuSans-65" x="1385.742188"/>
     <use xlink:href="#DejaVuSans-20" x="1447.265625"/>
     <use xlink:href="#DejaVuSans-50" x="1479.052734"/>
     <use xlink:href="#DejaVuSans-72" x="1537.605469"/>
     <use xlink:href="#DejaVuSans-6f" x="1576.46875"/>
     <use xlink:href="#DejaVuSans-66" x="1637.650391"/>
     <use xlink:href="#DejaVuSans-69" x="1672.855469"/>
     <use xlink:href="#DejaVuSans-6c" x="1700.638672"/>
     <use xlink:href="#DejaVuSans-65" x="1728.421875"/>
     <use xlink:href="#DejaVuSans-20" x="1789.945312"/>
     <use xlink:href="#DejaVuSans-41" x="1821.732422"/>
     <use xlink:href="#DejaVuSans-6c" x="1890.140625"/>
     <use xlink:href="#DejaVuSans-6f" x="1917.923828"/>
     <use xlink:href="#DejaVuSans-6e" x="1979.105469"/>
     <use xlink:href="#DejaVuSans-67" x="2042.484375"/>
     <use xlink:href="#DejaVuSans-20" x="2105.960938"/>
     <use xlink:href="#DejaVuSans-47" x="2137.748047"/>
     <use xlink:href="#DejaVuSans-65" x="2215.238281"/>
     <use xlink:href="#DejaVuSans-6e" x="2276.761719"/>
     <use xlink:href="#DejaVuSans-65" x="2340.140625"/>
     <use xlink:href="#DejaVuSans-73" x="2401.664062"/>
     <use xlink:href="#DejaVuSans-20" x="2453.763672"/>
     <use xlink:href="#DejaVuSans-28" x="2485.550781"/>
     <use xlink:href="#DejaVuSans-74" x="2524.564453"/>
     <use xlink:href="#DejaVuSans-6f" x="2563.773438"/>
     <use xlink:href="#DejaVuSans-74" x="2624.955078"/>
     <use xlink:href="#DejaVuSans-61" x="2664.164062"/>
     <use xlink:href="#DejaVuSans-6c" x="2725.443359"/>
     <use xlink:href="#DejaVuSans-29" x="2753.226562"/>
    </g>
   </g>
   <g id="legend_1">
    <g id="line2d_23">
     <path d="M 52.890625 292.192894 
L 60.890625 292.192894 
L 68.890625 292.192894 
" style="fill: none; stroke: #7cb5ec; stroke-linecap: square"/>
    </g>
    <g id="text_19">
     <!-- 17 -->
     <g transform="translate(75.290625 294.992894) scale(0.08 -0.08)">
      <use xlink:href="#DejaVuSans-31"/>
      <use xlink:href="#DejaVuSans-37" x="63.623047"/>
     </g>
    </g>
    <g id="line2d_24">
     <path d="M 52.890625 303.935394 
L 60.890625 303.935394 
L 68.890625 303.935394 
" style="fill: none; stroke: #434348; stroke-linecap: square"/>
    </g>
    <g id="text_20">
     <!-- 2 -->
     <g transform="translate(75.290625 306.735394) scale(0.08 -0.08)">
      <use xlink:href="#DejaVuSans-32"/>
     </g>
    </g>
    <g id="line2d_25">
     <path d="M 52.890625 315.677894 
L 60.890625 315.677894 
L 68.890625 315.677894 
" style="fill: none; stroke: #90ed7d; stroke-linecap: square"/>
    </g>
    <g id="text_21">
     <!-- 20 -->
     <g transform="translate(75.290625 318.477894) scale(0.08 -0.08)">
      <use xlink:href="#DejaVuSans-32"/>
      <use xlink:href="#DejaVuSans-30" x="63.623047"/>
     </g>
    </g>
    <g id="line2d_26">
     <path d="M 276.074375 292.192894 
L 284.074375 292.192894 
L 292.074375 292.192894 
" style="fill: none; stroke: #f7a35c; stroke-linecap: square"/>
    </g>
    <g id="text_22">
     <!-- 26 -->
     <g transform="translate(298.474375 294.992894) scale(0.08 -0.08)">
      <use xlink:href="#DejaVuSans-32"/>
      <use xlink:href="#DejaVuSans-36" x="63.623047"/>
     </g>
    </g>
    <g id="line2d_27">
     <path d="M 276.074375 303.935394 
L 284.074375 303.935394 
L 292.074375 303.935394 
" style="fill: none; stroke: #8085e9; stroke-linecap: square"/>
    </g>
    <g id="text_23">
     <!-- 27 -->
     <g transform="translate(298.474375 306.735394) scale(0.08 -0.08)">
      <use xlink:href="#DejaVuSans-32"/>
      <use xlink:href="#DejaVuSans-37" x="63.623047"/>
     </g>
    </g>
    <g id="line2d_28">
     <path d="M 276.074375 315.677894 
L 284.074375 315.677894 
L 292.074375 315.677894 
" style="fill: none; stroke: #f15c80; stroke-linecap: square"/>
    </g>
    <g id="text_24">
     <!-- 28 -->
     <g transform="translate(298.474375 318.477894) scale(0.08 -0.08)">
      <use xlink:href="#DejaVuSans-32"/>
      <use xlink:href="#DejaVuSans-38" x="63.623047"/>
     </g>
    </g>
    <g id="line2d_29">
     <path d="M 499.258125 292.192894 
L 507.258125 292.192894 
L 515.258125 292.192894 
" style="fill: none; stroke: #e4d354; stroke-linecap: square"/>
    </g>
    <g id="text_25">
     <!-- 29 -->
     <g transform="translate(521.658125 294.992894) scale(0.08 -0.08)">
      <defs>
       <path id="DejaVuSans-39" d="M 703 97 
L 703 672 
Q 941 559 1184 500 
Q 1428 441 1663 441 
Q 2288 441 2617 861 
Q 2947 1281 2994 2138 
Q 2813 1869 2534 1725 
Q 2256 1581 1919 1581 
Q 1219 1581 811 2004 
Q 403 2428 403 3163 
Q 403 3881 828 4315 
Q 1253 4750 1959 4750 
Q 2769 4750 3195 4129 
Q 3622 3509 3622 2328 
Q 3622 1225 3098 567 
Q 2575 -91 1691 -91 
Q 1453 -91 1209 -44 
Q 966 3 703 97 
z
M 1959 2075 
Q 2384 2075 2632 2365 
Q 2881 2656 2881 3163 
Q 2881 3666 2632 3958 
Q 2384 4250 1959 4250 
Q 1534 4250 1286 3958 
Q 1038 3666 1038 3163 
Q 1038 2656 1286 2365 
Q 1534 2075 1959 2075 
z
" transform="scale(0.015625)"/>
      </defs>
      <use xlink:href="#DejaVuSans-32"/>
      <use xlink:href="#DejaVuSans-39" x="63.623047"/>
     </g>
    </g>
    <g id="line2d_30">
     <path d="M 499.258125 303.935394 
L 507.258125 303.935394 
L 515.258125 303.935394 
" style="fill: none; stroke: #2b908f; stroke-linecap: square"/>
    </g>
    <g id="text_26">
     <!-- 30 -->
     <g transform="translate(521.658125 306.735394) scale(0.08 -0.08)">
      <defs>
       <path id="DejaVuSans-33" d="M 2597 2516 
Q 3050 2419 3304 2112 
Q 3559 1806 3559 1356 
Q 3559 666 3084 287 
Q 2609 -91 1734 -91 
Q 1441 -91 1130 -33 
Q 819 25 488 141 
L 488 750 
Q 750 597 1062 519 
Q 1375 441 1716 441 
Q 2309 441 2620 675 
Q 2931 909 2931 1356 
Q 2931 1769 2642 2001 
Q 2353 2234 1838 2234 
L 1294 2234 
L 1294 2753 
L 1863 2753 
Q 2328 2753 2575 2939 
Q 2822 3125 2822 3475 
Q 2822 3834 2567 4026 
Q 2313 4219 1838 4219 
Q 1578 4219 1281 4162 
Q 984 4106 628 3988 
L 628 4550 
Q 988 4650 1302 4700 
Q 1616 4750 1894 4750 
Q 2613 4750 3031 4423 
Q 3450 4097 3450 3541 
Q 3450 3153 3228 2886 
Q 3006 2619 2597 2516 
z
" transform="scale(0.015625)"/>
      </defs>
      <use xlink:href="#DejaVuSans-33"/>
      <use xlink:href="#DejaVuSans-30" x="63.623047"/>
     </g>
    </g>
    <g id="line2d_31">
     <path d="M 722.441875 292.192894 
L 730.441875 292.192894 
L 738.441875 292.192894 
" style="fill: none; stroke: #f45b5b; stroke-linecap: square"/>
    </g>
    <g id="text_27">
     <!-- 31 -->
     <g transform="translate(744.841875 294.992894) scale(0.08 -0.08)">
      <use xlink:href="#DejaVuSans-33"/>
      <use xlink:href="#DejaVuSans-31" x="63.623047"/>
     </g>
    </g>
    <g id="line2d_32">
     <path d="M 722.441875 303.935394 
L 730.441875 303.935394 
L 738.441875 303.935394 
" style="fill: none; stroke: #91e8e1; stroke-linecap: square"/>
    </g>
    <g id="text_28">
     <!-- 32 -->
     <g transform="translate(744.841875 306.735394) scale(0.08 -0.08)">
      <use xlink:href="#DejaVuSans-33"/>
      <use xlink:href="#DejaVuSans-32" x="63.623047"/>
     </g>
    </g>
    <g id="line2d_33">
     <path d="M 945.625625 292.192894 
L 953.625625 292.192894 
L 961.625625 292.192894 
" style="fill: none; stroke: #7cb5ec; stroke-linecap: square"/>
    </g>
    <g id="text_29">
     <!-- 33 -->
     <g transform="translate(968.025625 294.992894) scale(0.08 -0.08)">
      <use xlink:href="#DejaVuSans-33"/>
      <use xlink:href="#DejaVuSans-33" x="63.623047"/>
     </g>
    </g>
    <g id="line2d_34">
     <path d="M 945.625625 303.935394 
L 953.625625 303.935394 
L 961.625625 303.935394 
" style="fill: none; stroke: #434348; stroke-linecap: square"/>
    </g>
    <g id="text_30">
     <!-- 5 -->
     <g transform="translate(968.025625 306.735394) scale(0.08 -0.08)">
      <use xlink:href="#DejaVuSans-35"/>
     </g>
    </g>
   </g>
  </g>
 </g>
 <defs>
  <clipPath id="pf0a511621b">
   <rect x="45.690625" y="31.48286" width="939.715" height="242.5072"/>
  </clipPath>
 </defs>
</svg>
