<?xml version="1.0" encoding="utf-8" standalone="no"?>
<!DOCTYPE svg PUBLIC "-//W3C//DTD SVG 1.1//EN"
  "http://www.w3.org/Graphics/SVG/1.1/DTD/svg11.dtd">
<svg xmlns:xlink="http://www.w3.org/1999/xlink" width="1000.358125pt" height="388.844525pt" viewBox="0 0 1000.358125 388.844525" xmlns="http://www.w3.org/2000/svg" version="1.1">
 <metadata>
  <rdf:RDF xmlns:dc="http://purl.org/dc/elements/1.1/" xmlns:cc="http://creativecommons.org/ns#" xmlns:rdf="http://www.w3.org/1999/02/22-rdf-syntax-ns#">
   <cc:Work>
    <dc:type rdf:resource="http://purl.org/dc/dcmitype/StillImage"/>
    <dc:date>2025-04-01T05:20:43.412583</dc:date>
    <dc:format>image/svg+xml</dc:format>
    <dc:creator>
     <cc:Agent>
      <dc:title>Matplotlib v3.8.2, https://matplotlib.org/</dc:title>
     </cc:Agent>
    </dc:creator>
   </cc:Work>
  </rdf:RDF>
 </metadata>
 <defs>
  <style type="text/css">*{stroke-linejoin: round; stroke-linecap: butt}</style>
 </defs>
 <g id="figure_1">
  <g id="axes_1">
   <g id="patch_1">
    <path d="M 32.968125 353.2239 
L 993.158125 353.2239 
L 993.158125 35.2559 
L 32.968125 35.2559 
z
" style="fill: #ffffff"/>
   </g>
   <g id="matplotlib.axis_1">
    <g id="xtick_1">
     <g id="text_1">
      <!-- 0 -->
      <g transform="translate(65.339125 366.30265) scale(0.08 -0.08)">
       <defs>
        <path id="DejaVuSans-30" d="M 2034 4250 
Q 1547 4250 1301 3770 
Q 1056 3291 1056 2328 
Q 1056 1369 1301 889 
Q 1547 409 2034 409 
Q 2525 409 2770 889 
Q 3016 1369 3016 2328 
Q 3016 3291 2770 3770 
Q 2525 4250 2034 4250 
z
M 2034 4750 
Q 2819 4750 3233 4129 
Q 3647 3509 3647 2328 
Q 3647 1150 3233 529 
Q 2819 -91 2034 -91 
Q 1250 -91 836 529 
Q 422 1150 422 2328 
Q 422 3509 836 4129 
Q 1250 4750 2034 4750 
z
" transform="scale(0.015625)"/>
       </defs>
       <use xlink:href="#DejaVuSans-30"/>
      </g>
     </g>
    </g>
    <g id="xtick_2">
     <g id="text_2">
      <!-- 20 -->
      <g transform="translate(237.374125 366.30265) scale(0.08 -0.08)">
       <defs>
        <path id="DejaVuSans-32" d="M 1228 531 
L 3431 531 
L 3431 0 
L 469 0 
L 469 531 
Q 828 903 1448 1529 
Q 2069 2156 2228 2338 
Q 2531 2678 2651 2914 
Q 2772 3150 2772 3378 
Q 2772 3750 2511 3984 
Q 2250 4219 1831 4219 
Q 1534 4219 1204 4116 
Q 875 4013 500 3803 
L 500 4441 
Q 881 4594 1212 4672 
Q 1544 4750 1819 4750 
Q 2544 4750 2975 4387 
Q 3406 4025 3406 3419 
Q 3406 3131 3298 2873 
Q 3191 2616 2906 2266 
Q 2828 2175 2409 1742 
Q 1991 1309 1228 531 
z
" transform="scale(0.015625)"/>
       </defs>
       <use xlink:href="#DejaVuSans-32"/>
       <use xlink:href="#DejaVuSans-30" x="63.623047"/>
      </g>
     </g>
    </g>
    <g id="xtick_3">
     <g id="text_3">
      <!-- 40 -->
      <g transform="translate(411.954125 366.30265) scale(0.08 -0.08)">
       <defs>
        <path id="DejaVuSans-34" d="M 2419 4116 
L 825 1625 
L 2419 1625 
L 2419 4116 
z
M 2253 4666 
L 3047 4666 
L 3047 1625 
L 3713 1625 
L 3713 1100 
L 3047 1100 
L 3047 0 
L 2419 0 
L 2419 1100 
L 313 1100 
L 313 1709 
L 2253 4666 
z
" transform="scale(0.015625)"/>
       </defs>
       <use xlink:href="#DejaVuSans-34"/>
       <use xlink:href="#DejaVuSans-30" x="63.623047"/>
      </g>
     </g>
    </g>
    <g id="xtick_4">
     <g id="text_4">
      <!-- 60 -->
      <g transform="translate(586.534125 366.30265) scale(0.08 -0.08)">
       <defs>
        <path id="DejaVuSans-36" d="M 2113 2584 
Q 1688 2584 1439 2293 
Q 1191 2003 1191 1497 
Q 1191 994 1439 701 
Q 1688 409 2113 409 
Q 2538 409 2786 701 
Q 3034 994 3034 1497 
Q 3034 2003 2786 2293 
Q 2538 2584 2113 2584 
z
M 3366 4563 
L 3366 3988 
Q 3128 4100 2886 4159 
Q 2644 4219 2406 4219 
Q 1781 4219 1451 3797 
Q 1122 3375 1075 2522 
Q 1259 2794 1537 2939 
Q 1816 3084 2150 3084 
Q 2853 3084 3261 2657 
Q 3669 2231 3669 1497 
Q 3669 778 3244 343 
Q 2819 -91 2113 -91 
Q 1303 -91 875 529 
Q 447 1150 447 2328 
Q 447 3434 972 4092 
Q 1497 4750 2381 4750 
Q 2619 4750 2861 4703 
Q 3103 4656 3366 4563 
z
" transform="scale(0.015625)"/>
       </defs>
       <use xlink:href="#DejaVuSans-36"/>
       <use xlink:href="#DejaVuSans-30" x="63.623047"/>
      </g>
     </g>
    </g>
    <g id="xtick_5">
     <g id="text_5">
      <!-- 80 -->
      <g transform="translate(761.114125 366.30265) scale(0.08 -0.08)">
       <defs>
        <path id="DejaVuSans-38" d="M 2034 2216 
Q 1584 2216 1326 1975 
Q 1069 1734 1069 1313 
Q 1069 891 1326 650 
Q 1584 409 2034 409 
Q 2484 409 2743 651 
Q 3003 894 3003 1313 
Q 3003 1734 2745 1975 
Q 2488 2216 2034 2216 
z
M 1403 2484 
Q 997 2584 770 2862 
Q 544 3141 544 3541 
Q 544 4100 942 4425 
Q 1341 4750 2034 4750 
Q 2731 4750 3128 4425 
Q 3525 4100 3525 3541 
Q 3525 3141 3298 2862 
Q 3072 2584 2669 2484 
Q 3125 2378 3379 2068 
Q 3634 1759 3634 1313 
Q 3634 634 3220 271 
Q 2806 -91 2034 -91 
Q 1263 -91 848 271 
Q 434 634 434 1313 
Q 434 1759 690 2068 
Q 947 2378 1403 2484 
z
M 1172 3481 
Q 1172 3119 1398 2916 
Q 1625 2713 2034 2713 
Q 2441 2713 2670 2916 
Q 2900 3119 2900 3481 
Q 2900 3844 2670 4047 
Q 2441 4250 2034 4250 
Q 1625 4250 1398 4047 
Q 1172 3844 1172 3481 
z
" transform="scale(0.015625)"/>
       </defs>
       <use xlink:href="#DejaVuSans-38"/>
       <use xlink:href="#DejaVuSans-30" x="63.623047"/>
      </g>
     </g>
    </g>
    <g id="xtick_6">
     <g id="text_6">
      <!-- 100 -->
      <g transform="translate(933.149125 366.30265) scale(0.08 -0.08)">
       <defs>
        <path id="DejaVuSans-31" d="M 794 531 
L 1825 531 
L 1825 4091 
L 703 3866 
L 703 4441 
L 1819 4666 
L 2450 4666 
L 2450 531 
L 3481 531 
L 3481 0 
L 794 0 
L 794 531 
z
" transform="scale(0.015625)"/>
       </defs>
       <use xlink:href="#DejaVuSans-31"/>
       <use xlink:href="#DejaVuSans-30" x="63.623047"/>
       <use xlink:href="#DejaVuSans-30" x="127.246094"/>
      </g>
     </g>
    </g>
    <g id="text_7">
     <!-- Length Trimmed (bp) -->
     <g transform="translate(460.635781 379.564837) scale(0.1 -0.1)">
      <defs>
       <path id="DejaVuSans-4c" d="M 628 4666 
L 1259 4666 
L 1259 531 
L 3531 531 
L 3531 0 
L 628 0 
L 628 4666 
z
" transform="scale(0.015625)"/>
       <path id="DejaVuSans-65" d="M 3597 1894 
L 3597 1613 
L 953 1613 
Q 991 1019 1311 708 
Q 1631 397 2203 397 
Q 2534 397 2845 478 
Q 3156 559 3463 722 
L 3463 178 
Q 3153 47 2828 -22 
Q 2503 -91 2169 -91 
Q 1331 -91 842 396 
Q 353 884 353 1716 
Q 353 2575 817 3079 
Q 1281 3584 2069 3584 
Q 2775 3584 3186 3129 
Q 3597 2675 3597 1894 
z
M 3022 2063 
Q 3016 2534 2758 2815 
Q 2500 3097 2075 3097 
Q 1594 3097 1305 2825 
Q 1016 2553 972 2059 
L 3022 2063 
z
" transform="scale(0.015625)"/>
       <path id="DejaVuSans-6e" d="M 3513 2113 
L 3513 0 
L 2938 0 
L 2938 2094 
Q 2938 2591 2744 2837 
Q 2550 3084 2163 3084 
Q 1697 3084 1428 2787 
Q 1159 2491 1159 1978 
L 1159 0 
L 581 0 
L 581 3500 
L 1159 3500 
L 1159 2956 
Q 1366 3272 1645 3428 
Q 1925 3584 2291 3584 
Q 2894 3584 3203 3211 
Q 3513 2838 3513 2113 
z
" transform="scale(0.015625)"/>
       <path id="DejaVuSans-67" d="M 2906 1791 
Q 2906 2416 2648 2759 
Q 2391 3103 1925 3103 
Q 1463 3103 1205 2759 
Q 947 2416 947 1791 
Q 947 1169 1205 825 
Q 1463 481 1925 481 
Q 2391 481 2648 825 
Q 2906 1169 2906 1791 
z
M 3481 434 
Q 3481 -459 3084 -895 
Q 2688 -1331 1869 -1331 
Q 1566 -1331 1297 -1286 
Q 1028 -1241 775 -1147 
L 775 -588 
Q 1028 -725 1275 -790 
Q 1522 -856 1778 -856 
Q 2344 -856 2625 -561 
Q 2906 -266 2906 331 
L 2906 616 
Q 2728 306 2450 153 
Q 2172 0 1784 0 
Q 1141 0 747 490 
Q 353 981 353 1791 
Q 353 2603 747 3093 
Q 1141 3584 1784 3584 
Q 2172 3584 2450 3431 
Q 2728 3278 2906 2969 
L 2906 3500 
L 3481 3500 
L 3481 434 
z
" transform="scale(0.015625)"/>
       <path id="DejaVuSans-74" d="M 1172 4494 
L 1172 3500 
L 2356 3500 
L 2356 3053 
L 1172 3053 
L 1172 1153 
Q 1172 725 1289 603 
Q 1406 481 1766 481 
L 2356 481 
L 2356 0 
L 1766 0 
Q 1100 0 847 248 
Q 594 497 594 1153 
L 594 3053 
L 172 3053 
L 172 3500 
L 594 3500 
L 594 4494 
L 1172 4494 
z
" transform="scale(0.015625)"/>
       <path id="DejaVuSans-68" d="M 3513 2113 
L 3513 0 
L 2938 0 
L 2938 2094 
Q 2938 2591 2744 2837 
Q 2550 3084 2163 3084 
Q 1697 3084 1428 2787 
Q 1159 2491 1159 1978 
L 1159 0 
L 581 0 
L 581 4863 
L 1159 4863 
L 1159 2956 
Q 1366 3272 1645 3428 
Q 1925 3584 2291 3584 
Q 2894 3584 3203 3211 
Q 3513 2838 3513 2113 
z
" transform="scale(0.015625)"/>
       <path id="DejaVuSans-20" transform="scale(0.015625)"/>
       <path id="DejaVuSans-54" d="M -19 4666 
L 3928 4666 
L 3928 4134 
L 2272 4134 
L 2272 0 
L 1638 0 
L 1638 4134 
L -19 4134 
L -19 4666 
z
" transform="scale(0.015625)"/>
       <path id="DejaVuSans-72" d="M 2631 2963 
Q 2534 3019 2420 3045 
Q 2306 3072 2169 3072 
Q 1681 3072 1420 2755 
Q 1159 2438 1159 1844 
L 1159 0 
L 581 0 
L 581 3500 
L 1159 3500 
L 1159 2956 
Q 1341 3275 1631 3429 
Q 1922 3584 2338 3584 
Q 2397 3584 2469 3576 
Q 2541 3569 2628 3553 
L 2631 2963 
z
" transform="scale(0.015625)"/>
       <path id="DejaVuSans-69" d="M 603 3500 
L 1178 3500 
L 1178 0 
L 603 0 
L 603 3500 
z
M 603 4863 
L 1178 4863 
L 1178 4134 
L 603 4134 
L 603 4863 
z
" transform="scale(0.015625)"/>
       <path id="DejaVuSans-6d" d="M 3328 2828 
Q 3544 3216 3844 3400 
Q 4144 3584 4550 3584 
Q 5097 3584 5394 3201 
Q 5691 2819 5691 2113 
L 5691 0 
L 5113 0 
L 5113 2094 
Q 5113 2597 4934 2840 
Q 4756 3084 4391 3084 
Q 3944 3084 3684 2787 
Q 3425 2491 3425 1978 
L 3425 0 
L 2847 0 
L 2847 2094 
Q 2847 2600 2669 2842 
Q 2491 3084 2119 3084 
Q 1678 3084 1418 2786 
Q 1159 2488 1159 1978 
L 1159 0 
L 581 0 
L 581 3500 
L 1159 3500 
L 1159 2956 
Q 1356 3278 1631 3431 
Q 1906 3584 2284 3584 
Q 2666 3584 2933 3390 
Q 3200 3197 3328 2828 
z
" transform="scale(0.015625)"/>
       <path id="DejaVuSans-64" d="M 2906 2969 
L 2906 4863 
L 3481 4863 
L 3481 0 
L 2906 0 
L 2906 525 
Q 2725 213 2448 61 
Q 2172 -91 1784 -91 
Q 1150 -91 751 415 
Q 353 922 353 1747 
Q 353 2572 751 3078 
Q 1150 3584 1784 3584 
Q 2172 3584 2448 3432 
Q 2725 3281 2906 2969 
z
M 947 1747 
Q 947 1113 1208 752 
Q 1469 391 1925 391 
Q 2381 391 2643 752 
Q 2906 1113 2906 1747 
Q 2906 2381 2643 2742 
Q 2381 3103 1925 3103 
Q 1469 3103 1208 2742 
Q 947 2381 947 1747 
z
" transform="scale(0.015625)"/>
       <path id="DejaVuSans-28" d="M 1984 4856 
Q 1566 4138 1362 3434 
Q 1159 2731 1159 2009 
Q 1159 1288 1364 580 
Q 1569 -128 1984 -844 
L 1484 -844 
Q 1016 -109 783 600 
Q 550 1309 550 2009 
Q 550 2706 781 3412 
Q 1013 4119 1484 4856 
L 1984 4856 
z
" transform="scale(0.015625)"/>
       <path id="DejaVuSans-62" d="M 3116 1747 
Q 3116 2381 2855 2742 
Q 2594 3103 2138 3103 
Q 1681 3103 1420 2742 
Q 1159 2381 1159 1747 
Q 1159 1113 1420 752 
Q 1681 391 2138 391 
Q 2594 391 2855 752 
Q 3116 1113 3116 1747 
z
M 1159 2969 
Q 1341 3281 1617 3432 
Q 1894 3584 2278 3584 
Q 2916 3584 3314 3078 
Q 3713 2572 3713 1747 
Q 3713 922 3314 415 
Q 2916 -91 2278 -91 
Q 1894 -91 1617 61 
Q 1341 213 1159 525 
L 1159 0 
L 581 0 
L 581 4863 
L 1159 4863 
L 1159 2969 
z
" transform="scale(0.015625)"/>
       <path id="DejaVuSans-70" d="M 1159 525 
L 1159 -1331 
L 581 -1331 
L 581 3500 
L 1159 3500 
L 1159 2969 
Q 1341 3281 1617 3432 
Q 1894 3584 2278 3584 
Q 2916 3584 3314 3078 
Q 3713 2572 3713 1747 
Q 3713 922 3314 415 
Q 2916 -91 2278 -91 
Q 1894 -91 1617 61 
Q 1341 213 1159 525 
z
M 3116 1747 
Q 3116 2381 2855 2742 
Q 2594 3103 2138 3103 
Q 1681 3103 1420 2742 
Q 1159 2381 1159 1747 
Q 1159 1113 1420 752 
Q 1681 391 2138 391 
Q 2594 391 2855 752 
Q 3116 1113 3116 1747 
z
" transform="scale(0.015625)"/>
       <path id="DejaVuSans-29" d="M 513 4856 
L 1013 4856 
Q 1481 4119 1714 3412 
Q 1947 2706 1947 2009 
Q 1947 1309 1714 600 
Q 1481 -109 1013 -844 
L 513 -844 
Q 928 -128 1133 580 
Q 1338 1288 1338 2009 
Q 1338 2731 1133 3434 
Q 928 4138 513 4856 
z
" transform="scale(0.015625)"/>
      </defs>
      <use xlink:href="#DejaVuSans-4c"/>
      <use xlink:href="#DejaVuSans-65" x="53.962891"/>
      <use xlink:href="#DejaVuSans-6e" x="115.486328"/>
      <use xlink:href="#DejaVuSans-67" x="178.865234"/>
      <use xlink:href="#DejaVuSans-74" x="242.341797"/>
      <use xlink:href="#DejaVuSans-68" x="281.550781"/>
      <use xlink:href="#DejaVuSans-20" x="344.929688"/>
      <use xlink:href="#DejaVuSans-54" x="376.716797"/>
      <use xlink:href="#DejaVuSans-72" x="423.050781"/>
      <use xlink:href="#DejaVuSans-69" x="464.164062"/>
      <use xlink:href="#DejaVuSans-6d" x="491.947266"/>
      <use xlink:href="#DejaVuSans-6d" x="589.359375"/>
      <use xlink:href="#DejaVuSans-65" x="686.771484"/>
      <use xlink:href="#DejaVuSans-64" x="748.294922"/>
      <use xlink:href="#DejaVuSans-20" x="811.771484"/>
      <use xlink:href="#DejaVuSans-28" x="843.558594"/>
      <use xlink:href="#DejaVuSans-62" x="882.572266"/>
      <use xlink:href="#DejaVuSans-70" x="946.048828"/>
      <use xlink:href="#DejaVuSans-29" x="1009.525391"/>
     </g>
    </g>
   </g>
   <g id="matplotlib.axis_2">
    <g id="ytick_1">
     <g id="line2d_1">
      <path d="M 32.968125 353.2239 
L 993.158125 353.2239 
" clip-path="url(#pab1a17ff1d)" style="fill: none; stroke: #dedede; stroke-linecap: square"/>
     </g>
     <g id="text_8">
      <!-- 0 -->
      <g transform="translate(20.878125 356.263275) scale(0.08 -0.08)">
       <use xlink:href="#DejaVuSans-30"/>
      </g>
     </g>
    </g>
    <g id="ytick_2">
     <g id="line2d_2">
      <path d="M 32.968125 291.958405 
L 993.158125 291.958405 
" clip-path="url(#pab1a17ff1d)" style="fill: none; stroke: #dedede; stroke-linecap: square"/>
     </g>
     <g id="text_9">
      <!-- 1 -->
      <g transform="translate(20.878125 294.99778) scale(0.08 -0.08)">
       <use xlink:href="#DejaVuSans-31"/>
      </g>
     </g>
    </g>
    <g id="ytick_3">
     <g id="line2d_3">
      <path d="M 32.968125 230.69291 
L 993.158125 230.69291 
" clip-path="url(#pab1a17ff1d)" style="fill: none; stroke: #dedede; stroke-linecap: square"/>
     </g>
     <g id="text_10">
      <!-- 2 -->
      <g transform="translate(20.878125 233.732285) scale(0.08 -0.08)">
       <use xlink:href="#DejaVuSans-32"/>
      </g>
     </g>
    </g>
    <g id="ytick_4">
     <g id="line2d_4">
      <path d="M 32.968125 169.427415 
L 993.158125 169.427415 
" clip-path="url(#pab1a17ff1d)" style="fill: none; stroke: #dedede; stroke-linecap: square"/>
     </g>
     <g id="text_11">
      <!-- 3 -->
      <g transform="translate(20.878125 172.46679) scale(0.08 -0.08)">
       <defs>
        <path id="DejaVuSans-33" d="M 2597 2516 
Q 3050 2419 3304 2112 
Q 3559 1806 3559 1356 
Q 3559 666 3084 287 
Q 2609 -91 1734 -91 
Q 1441 -91 1130 -33 
Q 819 25 488 141 
L 488 750 
Q 750 597 1062 519 
Q 1375 441 1716 441 
Q 2309 441 2620 675 
Q 2931 909 2931 1356 
Q 2931 1769 2642 2001 
Q 2353 2234 1838 2234 
L 1294 2234 
L 1294 2753 
L 1863 2753 
Q 2328 2753 2575 2939 
Q 2822 3125 2822 3475 
Q 2822 3834 2567 4026 
Q 2313 4219 1838 4219 
Q 1578 4219 1281 4162 
Q 984 4106 628 3988 
L 628 4550 
Q 988 4650 1302 4700 
Q 1616 4750 1894 4750 
Q 2613 4750 3031 4423 
Q 3450 4097 3450 3541 
Q 3450 3153 3228 2886 
Q 3006 2619 2597 2516 
z
" transform="scale(0.015625)"/>
       </defs>
       <use xlink:href="#DejaVuSans-33"/>
      </g>
     </g>
    </g>
    <g id="ytick_5">
     <g id="line2d_5">
      <path d="M 32.968125 108.16192 
L 993.158125 108.16192 
" clip-path="url(#pab1a17ff1d)" style="fill: none; stroke: #dedede; stroke-linecap: square"/>
     </g>
     <g id="text_12">
      <!-- 4 -->
      <g transform="translate(20.878125 111.201295) scale(0.08 -0.08)">
       <use xlink:href="#DejaVuSans-34"/>
      </g>
     </g>
    </g>
    <g id="ytick_6">
     <g id="line2d_6">
      <path d="M 32.968125 46.896426 
L 993.158125 46.896426 
" clip-path="url(#pab1a17ff1d)" style="fill: none; stroke: #dedede; stroke-linecap: square"/>
     </g>
     <g id="text_13">
      <!-- 5 -->
      <g transform="translate(20.878125 49.935801) scale(0.08 -0.08)">
       <defs>
        <path id="DejaVuSans-35" d="M 691 4666 
L 3169 4666 
L 3169 4134 
L 1269 4134 
L 1269 2991 
Q 1406 3038 1543 3061 
Q 1681 3084 1819 3084 
Q 2600 3084 3056 2656 
Q 3513 2228 3513 1497 
Q 3513 744 3044 326 
Q 2575 -91 1722 -91 
Q 1428 -91 1123 -41 
Q 819 9 494 109 
L 494 744 
Q 775 591 1075 516 
Q 1375 441 1709 441 
Q 2250 441 2565 725 
Q 2881 1009 2881 1497 
Q 2881 1984 2565 2268 
Q 2250 2553 1709 2553 
Q 1456 2553 1204 2497 
Q 953 2441 691 2322 
L 691 4666 
z
" transform="scale(0.015625)"/>
       </defs>
       <use xlink:href="#DejaVuSans-35"/>
      </g>
     </g>
    </g>
    <g id="text_14">
     <!-- Count -->
     <g transform="translate(14.798437 209.088338) rotate(-90) scale(0.1 -0.1)">
      <defs>
       <path id="DejaVuSans-43" d="M 4122 4306 
L 4122 3641 
Q 3803 3938 3442 4084 
Q 3081 4231 2675 4231 
Q 1875 4231 1450 3742 
Q 1025 3253 1025 2328 
Q 1025 1406 1450 917 
Q 1875 428 2675 428 
Q 3081 428 3442 575 
Q 3803 722 4122 1019 
L 4122 359 
Q 3791 134 3420 21 
Q 3050 -91 2638 -91 
Q 1578 -91 968 557 
Q 359 1206 359 2328 
Q 359 3453 968 4101 
Q 1578 4750 2638 4750 
Q 3056 4750 3426 4639 
Q 3797 4528 4122 4306 
z
" transform="scale(0.015625)"/>
       <path id="DejaVuSans-6f" d="M 1959 3097 
Q 1497 3097 1228 2736 
Q 959 2375 959 1747 
Q 959 1119 1226 758 
Q 1494 397 1959 397 
Q 2419 397 2687 759 
Q 2956 1122 2956 1747 
Q 2956 2369 2687 2733 
Q 2419 3097 1959 3097 
z
M 1959 3584 
Q 2709 3584 3137 3096 
Q 3566 2609 3566 1747 
Q 3566 888 3137 398 
Q 2709 -91 1959 -91 
Q 1206 -91 779 398 
Q 353 888 353 1747 
Q 353 2609 779 3096 
Q 1206 3584 1959 3584 
z
" transform="scale(0.015625)"/>
       <path id="DejaVuSans-75" d="M 544 1381 
L 544 3500 
L 1119 3500 
L 1119 1403 
Q 1119 906 1312 657 
Q 1506 409 1894 409 
Q 2359 409 2629 706 
Q 2900 1003 2900 1516 
L 2900 3500 
L 3475 3500 
L 3475 0 
L 2900 0 
L 2900 538 
Q 2691 219 2414 64 
Q 2138 -91 1772 -91 
Q 1169 -91 856 284 
Q 544 659 544 1381 
z
M 1991 3584 
L 1991 3584 
z
" transform="scale(0.015625)"/>
      </defs>
      <use xlink:href="#DejaVuSans-43"/>
      <use xlink:href="#DejaVuSans-6f" x="69.824219"/>
      <use xlink:href="#DejaVuSans-75" x="131.005859"/>
      <use xlink:href="#DejaVuSans-6e" x="194.384766"/>
      <use xlink:href="#DejaVuSans-74" x="257.763672"/>
     </g>
    </g>
    <g id="text_15">
     <!-- 1e7 -->
     <g transform="translate(32.968125 32.2559) scale(0.1 -0.1)">
      <defs>
       <path id="DejaVuSans-37" d="M 525 4666 
L 3525 4666 
L 3525 4397 
L 1831 0 
L 1172 0 
L 2766 4134 
L 525 4134 
L 525 4666 
z
" transform="scale(0.015625)"/>
      </defs>
      <use xlink:href="#DejaVuSans-31"/>
      <use xlink:href="#DejaVuSans-65" x="63.623047"/>
      <use xlink:href="#DejaVuSans-37" x="125.146484"/>
     </g>
    </g>
   </g>
   <g id="line2d_7">
    <path d="M 76.613125 247.080376 
L 85.342125 313.880768 
L 94.071125 345.918198 
L 102.800125 351.81673 
L 111.529125 353.127977 
L 120.258125 353.191184 
L 128.987125 353.217792 
L 137.716125 353.221057 
L 146.445125 353.218466 
L 155.174125 353.216064 
L 163.903125 353.219575 
L 172.632125 353.220481 
L 181.361125 353.223097 
L 190.090125 353.221382 
L 198.819125 353.223391 
L 207.548125 353.220855 
L 216.277125 353.223189 
L 225.006125 353.22156 
L 233.735125 353.219875 
L 242.464125 353.223612 
L 251.193125 353.223698 
L 259.922125 353.223545 
L 268.651125 353.222319 
L 277.380125 353.220831 
L 286.109125 353.22349 
L 294.838125 353.222791 
L 303.567125 353.223159 
L 312.296125 353.223539 
L 321.025125 353.222865 
L 329.754125 353.223036 
L 338.483125 353.222914 
L 347.212125 353.2233 
L 355.941125 353.222865 
L 364.670125 353.223637 
L 373.399125 353.222552 
L 382.128125 353.223722 
L 390.857125 353.223508 
L 399.586125 353.223569 
L 408.315125 353.223324 
L 417.044125 353.22349 
L 425.773125 353.22186 
L 434.502125 353.219826 
L 443.231125 353.217976 
L 451.960125 353.190621 
L 460.689125 353.220861 
L 469.418125 353.219544 
L 478.147125 352.871973 
L 486.876125 352.996562 
L 495.605125 353.215592 
L 504.334125 353.02366 
L 513.063125 353.021264 
" clip-path="url(#pab1a17ff1d)" style="fill: none; stroke: #7cb5ec; stroke-linecap: square"/>
   </g>
   <g id="line2d_8">
    <path d="M 76.613125 255.213824 
L 85.342125 320.529979 
L 94.071125 344.970727 
L 102.800125 351.482422 
L 111.529125 353.090733 
L 120.258125 353.173399 
L 128.987125 353.213607 
L 137.716125 353.220892 
L 146.445125 353.216315 
L 155.174125 353.212474 
L 163.903125 353.216579 
L 172.632125 353.219366 
L 181.361125 353.22314 
L 190.090125 353.221394 
L 198.819125 353.221688 
L 207.548125 353.223471 
L 216.277125 353.221425 
L 225.006125 353.222742 
L 233.735125 353.221376 
L 242.464125 353.22246 
L 251.193125 353.22311 
L 259.922125 353.222154 
L 268.651125 353.222381 
L 277.380125 353.222044 
L 286.109125 353.22265 
L 294.838125 353.222479 
L 303.567125 353.222791 
L 312.296125 353.222675 
L 321.025125 353.22295 
L 329.754125 353.222338 
L 338.483125 353.223226 
L 347.212125 353.222773 
L 355.941125 353.223146 
L 364.670125 353.222436 
L 373.399125 353.22363 
L 382.128125 353.223165 
L 390.857125 353.223673 
L 399.586125 353.223637 
L 408.315125 353.22349 
L 417.044125 353.223545 
L 425.773125 353.223514 
L 434.502125 353.223471 
L 443.231125 353.223385 
L 451.960125 353.223483 
L 460.689125 353.223667 
L 469.418125 353.223428 
L 478.147125 353.223441 
L 486.876125 353.223324 
L 495.605125 353.216658 
L 504.334125 353.223447 
L 513.063125 353.223698 
" clip-path="url(#pab1a17ff1d)" style="fill: none; stroke: #434348; stroke-linecap: square"/>
   </g>
   <g id="line2d_9">
    <path d="M 76.613125 222.84488 
L 85.342125 304.333392 
L 94.071125 343.626587 
L 102.800125 351.296929 
L 111.529125 353.07788 
L 120.258125 353.186081 
L 128.987125 353.21585 
L 137.716125 353.221204 
L 146.445125 353.215194 
L 155.174125 353.213381 
L 163.903125 353.218251 
L 172.632125 353.219899 
L 181.361125 353.223116 
L 190.090125 353.220518 
L 198.819125 353.223398 
L 207.548125 353.220978 
L 216.277125 353.223342 
L 225.006125 353.221437 
L 233.735125 353.219562 
L 242.464125 353.223606 
L 251.193125 353.223557 
L 259.922125 353.223465 
L 268.651125 353.221995 
L 277.380125 353.220206 
L 286.109125 353.223202 
L 294.838125 353.222779 
L 303.567125 353.22295 
L 312.296125 353.223483 
L 321.025125 353.222883 
L 329.754125 353.222938 
L 338.483125 353.222693 
L 347.212125 353.223379 
L 355.941125 353.222105 
L 364.670125 353.223342 
L 373.399125 353.222368 
L 382.128125 353.222736 
L 390.857125 353.223183 
L 399.586125 353.221449 
L 408.315125 353.223012 
L 417.044125 353.222662 
L 425.773125 353.222711 
L 434.502125 353.21982 
L 443.231125 353.218839 
L 451.960125 353.217436 
L 460.689125 353.221743 
L 469.418125 353.22091 
L 478.147125 353.217694 
L 486.876125 353.210403 
L 495.605125 353.174293 
L 504.334125 352.857195 
L 513.063125 346.512357 
" clip-path="url(#pab1a17ff1d)" style="fill: none; stroke: #90ed7d; stroke-linecap: square"/>
   </g>
   <g id="line2d_10">
    <path d="M 76.613125 227.117076 
L 85.342125 309.623532 
L 94.071125 342.165147 
L 102.800125 350.787788 
L 111.529125 353.019929 
L 120.258125 353.144292 
L 128.987125 353.204424 
L 137.716125 353.219452 
L 146.445125 353.211555 
L 155.174125 353.207358 
L 163.903125 353.210256 
L 172.632125 353.218006 
L 181.361125 353.222987 
L 190.090125 353.220426 
L 198.819125 353.220984 
L 207.548125 353.22352 
L 216.277125 353.22129 
L 225.006125 353.222191 
L 233.735125 353.220916 
L 242.464125 353.22235 
L 251.193125 353.222711 
L 259.922125 353.221731 
L 268.651125 353.221982 
L 277.380125 353.221388 
L 286.109125 353.222172 
L 294.838125 353.22227 
L 303.567125 353.222583 
L 312.296125 353.222185 
L 321.025125 353.222577 
L 329.754125 353.222001 
L 338.483125 353.222969 
L 347.212125 353.222448 
L 355.941125 353.222791 
L 364.670125 353.222877 
L 373.399125 353.222656 
L 382.128125 353.223061 
L 390.857125 353.223379 
L 399.586125 353.223055 
L 408.315125 353.22333 
L 417.044125 353.223459 
L 425.773125 353.223428 
L 434.502125 353.223416 
L 443.231125 353.223251 
L 451.960125 353.223545 
L 460.689125 353.223747 
L 469.418125 353.223563 
L 478.147125 353.223502 
L 486.876125 353.223275 
L 495.605125 353.218601 
L 504.334125 353.223526 
L 513.063125 353.223569 
" clip-path="url(#pab1a17ff1d)" style="fill: none; stroke: #f7a35c; stroke-linecap: square"/>
   </g>
   <g id="line2d_11">
    <path d="M 76.613125 111.829328 
L 85.342125 277.889887 
L 94.071125 332.688012 
L 102.800125 348.870282 
L 111.529125 352.297308 
L 120.258125 353.113898 
L 128.987125 353.201201 
L 137.716125 353.214171 
L 146.445125 353.200546 
L 155.174125 353.19641 
L 163.903125 353.209104 
L 172.632125 353.21623 
L 181.361125 353.218227 
L 190.090125 353.219342 
L 198.819125 353.218441 
L 207.548125 353.219091 
L 216.277125 353.218993 
L 225.006125 353.218839 
L 233.735125 353.217731 
L 242.464125 353.216867 
L 251.193125 353.217829 
L 259.922125 353.219899 
L 268.651125 353.219875 
L 277.380125 353.219942 
L 286.109125 353.220065 
L 294.838125 353.22034 
L 303.567125 353.218778 
L 312.296125 353.219225 
L 321.025125 353.219899 
L 329.754125 353.220592 
L 338.483125 353.220285 
L 347.212125 353.220242 
L 355.941125 353.220782 
L 364.670125 353.219752 
L 373.399125 353.219783 
L 382.128125 353.220102 
L 390.857125 353.220089 
L 399.586125 353.2205 
L 408.315125 353.220089 
L 417.044125 353.21955 
L 425.773125 353.219918 
L 434.502125 353.22034 
L 443.231125 353.220475 
L 451.960125 353.220457 
L 460.689125 353.220279 
L 469.418125 353.220696 
L 478.147125 353.220751 
L 486.876125 353.220622 
L 495.605125 353.220739 
L 504.334125 353.221094 
L 513.063125 353.220824 
L 521.792125 353.220702 
L 530.521125 353.220604 
L 539.250125 353.22012 
L 547.979125 353.21838 
L 556.708125 353.22034 
L 565.437125 353.220745 
L 574.166125 353.221584 
L 582.895125 353.219581 
L 591.624125 353.22042 
L 600.353125 353.220261 
L 609.082125 353.220408 
L 617.811125 353.21887 
L 626.540125 353.21936 
L 635.269125 353.221841 
L 643.998125 353.221731 
L 652.727125 353.22156 
L 661.456125 353.221596 
L 670.185125 353.222185 
L 678.914125 353.22265 
L 687.643125 353.22284 
L 696.372125 353.222148 
L 705.101125 353.222975 
L 713.830125 353.222503 
L 722.559125 353.222644 
L 731.288125 353.222325 
L 740.017125 353.222711 
L 748.746125 353.22265 
L 757.475125 353.22273 
L 766.204125 353.222417 
L 774.933125 353.222178 
L 783.662125 353.222681 
L 792.391125 353.222656 
L 801.120125 353.222399 
L 809.849125 353.222117 
L 818.578125 353.22273 
L 827.307125 353.222846 
L 836.036125 353.222319 
L 844.765125 353.222675 
L 853.494125 353.222626 
L 862.223125 353.222852 
L 870.952125 353.222601 
L 879.681125 353.222558 
L 888.410125 353.222742 
L 897.139125 353.222687 
L 905.868125 353.222442 
L 914.597125 353.222191 
L 923.326125 353.220904 
L 932.055125 353.221768 
L 940.784125 353.207842 
L 949.513125 353.120784 
" clip-path="url(#pab1a17ff1d)" style="fill: none; stroke: #8085e9; stroke-linecap: square"/>
   </g>
   <g id="line2d_12">
    <path d="M 76.613125 96.350883 
L 85.342125 271.75283 
L 94.071125 331.80147 
L 102.800125 348.390138 
L 111.529125 352.322556 
L 120.258125 353.134967 
L 128.987125 353.193041 
L 137.716125 353.202512 
L 146.445125 353.194113 
L 155.174125 353.191932 
L 163.903125 353.202678 
L 172.632125 353.209 
L 181.361125 353.211083 
L 190.090125 353.212339 
L 198.819125 353.212192 
L 207.548125 353.21343 
L 216.277125 353.213693 
L 225.006125 353.215225 
L 233.735125 353.214882 
L 242.464125 353.21449 
L 251.193125 353.215727 
L 259.922125 353.217051 
L 268.651125 353.217443 
L 277.380125 353.217173 
L 286.109125 353.217822 
L 294.838125 353.218564 
L 303.567125 353.217547 
L 312.296125 353.217682 
L 321.025125 353.218245 
L 329.754125 353.218846 
L 338.483125 353.219225 
L 347.212125 353.218404 
L 355.941125 353.219544 
L 364.670125 353.218521 
L 373.399125 353.218944 
L 382.128125 353.219434 
L 390.857125 353.219195 
L 399.586125 353.219489 
L 408.315125 353.218558 
L 417.044125 353.21933 
L 425.773125 353.219415 
L 434.502125 353.219722 
L 443.231125 353.219538 
L 451.960125 353.21952 
L 460.689125 353.21963 
L 469.418125 353.219624 
L 478.147125 353.219942 
L 486.876125 353.220157 
L 495.605125 353.219991 
L 504.334125 353.21982 
L 513.063125 353.219869 
L 521.792125 353.220071 
L 530.521125 353.219458 
L 539.250125 353.219164 
L 547.979125 353.218196 
L 556.708125 353.220065 
L 565.437125 353.219991 
L 574.166125 353.220653 
L 582.895125 353.217118 
L 591.624125 353.219244 
L 600.353125 353.217933 
L 609.082125 353.21944 
L 617.811125 353.216272 
L 626.540125 353.216891 
L 635.269125 353.220794 
L 643.998125 353.220684 
L 652.727125 353.219697 
L 661.456125 353.220586 
L 670.185125 353.221774 
L 678.914125 353.222387 
L 687.643125 353.222834 
L 696.372125 353.222166 
L 705.101125 353.223067 
L 713.830125 353.222681 
L 722.559125 353.222779 
L 731.288125 353.222344 
L 740.017125 353.222791 
L 748.746125 353.222754 
L 757.475125 353.222871 
L 766.204125 353.222779 
L 774.933125 353.222491 
L 783.662125 353.222718 
L 792.391125 353.222785 
L 801.120125 353.222264 
L 809.849125 353.222289 
L 818.578125 353.22254 
L 827.307125 353.222454 
L 836.036125 353.222381 
L 844.765125 353.222136 
L 853.494125 353.22235 
L 862.223125 353.22254 
L 870.952125 353.221952 
L 879.681125 353.222068 
L 888.410125 353.220929 
L 897.139125 353.221933 
L 905.868125 353.221498 
L 914.597125 353.221357 
L 923.326125 353.220132 
L 932.055125 353.221364 
L 940.784125 353.205961 
L 949.513125 353.108476 
" clip-path="url(#pab1a17ff1d)" style="fill: none; stroke: #f15c80; stroke-linecap: square"/>
   </g>
   <g id="line2d_13">
    <path d="M 76.613125 71.096964 
L 85.342125 266.457213 
L 94.071125 328.393099 
L 102.800125 347.668369 
L 111.529125 352.099451 
L 120.258125 353.090335 
L 128.987125 353.192281 
L 137.716125 353.208155 
L 146.445125 353.190774 
L 155.174125 353.187361 
L 163.903125 353.201844 
L 172.632125 353.212186 
L 181.361125 353.214336 
L 190.090125 353.215776 
L 198.819125 353.215476 
L 207.548125 353.216769 
L 216.277125 353.216089 
L 225.006125 353.216879 
L 233.735125 353.216162 
L 242.464125 353.21569 
L 251.193125 353.217191 
L 259.922125 353.21849 
L 268.651125 353.218784 
L 277.380125 353.218974 
L 286.109125 353.219048 
L 294.838125 353.219379 
L 303.567125 353.218754 
L 312.296125 353.218582 
L 321.025125 353.219054 
L 329.754125 353.219801 
L 338.483125 353.219673 
L 347.212125 353.219955 
L 355.941125 353.220279 
L 364.670125 353.219734 
L 373.399125 353.218827 
L 382.128125 353.220347 
L 390.857125 353.219997 
L 399.586125 353.220016 
L 408.315125 353.218931 
L 417.044125 353.219526 
L 425.773125 353.219176 
L 434.502125 353.219887 
L 443.231125 353.220322 
L 451.960125 353.220494 
L 460.689125 353.219618 
L 469.418125 353.220249 
L 478.147125 353.22072 
L 486.876125 353.220512 
L 495.605125 353.220053 
L 504.334125 353.220353 
L 513.063125 353.220549 
L 521.792125 353.220696 
L 530.521125 353.220249 
L 539.250125 353.219489 
L 547.979125 353.218582 
L 556.708125 353.220445 
L 565.437125 353.220959 
L 574.166125 353.22088 
L 582.895125 353.21895 
L 591.624125 353.220206 
L 600.353125 353.220065 
L 609.082125 353.220592 
L 617.811125 353.218576 
L 626.540125 353.218496 
L 635.269125 353.221615 
L 643.998125 353.221406 
L 652.727125 353.220972 
L 661.456125 353.22121 
L 670.185125 353.221829 
L 678.914125 353.222411 
L 687.643125 353.22262 
L 696.372125 353.22197 
L 705.101125 353.222613 
L 713.830125 353.222001 
L 722.559125 353.222479 
L 731.288125 353.222558 
L 740.017125 353.222522 
L 748.746125 353.222393 
L 757.475125 353.222185 
L 766.204125 353.222087 
L 774.933125 353.221964 
L 783.662125 353.222368 
L 792.391125 353.222393 
L 801.120125 353.221652 
L 809.849125 353.22175 
L 818.578125 353.222203 
L 827.307125 353.222289 
L 836.036125 353.221952 
L 844.765125 353.222234 
L 853.494125 353.222191 
L 862.223125 353.222699 
L 870.952125 353.222001 
L 879.681125 353.221774 
L 888.410125 353.221376 
L 897.139125 353.222203 
L 905.868125 353.221554 
L 914.597125 353.221296 
L 923.326125 353.219109 
L 932.055125 353.220806 
L 940.784125 353.202635 
L 949.513125 353.088044 
" clip-path="url(#pab1a17ff1d)" style="fill: none; stroke: #e4d354; stroke-linecap: square"/>
   </g>
   <g id="line2d_14">
    <path d="M 76.613125 86.802147 
L 85.342125 270.072998 
L 94.071125 329.782411 
L 102.800125 347.822734 
L 111.529125 352.133772 
L 120.258125 353.07247 
L 128.987125 353.17637 
L 137.716125 353.196857 
L 146.445125 353.181676 
L 155.174125 353.180941 
L 163.903125 353.19486 
L 172.632125 353.206574 
L 181.361125 353.20938 
L 190.090125 353.211365 
L 198.819125 353.211537 
L 207.548125 353.213283 
L 216.277125 353.21335 
L 225.006125 353.214465 
L 233.735125 353.21441 
L 242.464125 353.214778 
L 251.193125 353.215543 
L 259.922125 353.217093 
L 268.651125 353.217755 
L 277.380125 353.217412 
L 286.109125 353.217559 
L 294.838125 353.218453 
L 303.567125 353.217884 
L 312.296125 353.218662 
L 321.025125 353.218895 
L 329.754125 353.21898 
L 338.483125 353.219305 
L 347.212125 353.219403 
L 355.941125 353.220083 
L 364.670125 353.219691 
L 373.399125 353.219569 
L 382.128125 353.219997 
L 390.857125 353.220242 
L 399.586125 353.219758 
L 408.315125 353.218895 
L 417.044125 353.219838 
L 425.773125 353.219667 
L 434.502125 353.219569 
L 443.231125 353.220102 
L 451.960125 353.219826 
L 460.689125 353.219814 
L 469.418125 353.22012 
L 478.147125 353.220353 
L 486.876125 353.220671 
L 495.605125 353.21993 
L 504.334125 353.220138 
L 513.063125 353.220622 
L 521.792125 353.220677 
L 530.521125 353.220261 
L 539.250125 353.219758 
L 547.979125 353.218699 
L 556.708125 353.220285 
L 565.437125 353.220641 
L 574.166125 353.220855 
L 582.895125 353.218411 
L 591.624125 353.220144 
L 600.353125 353.21952 
L 609.082125 353.220102 
L 617.811125 353.217706 
L 626.540125 353.217822 
L 635.269125 353.221272 
L 643.998125 353.221119 
L 652.727125 353.220677 
L 661.456125 353.2208 
L 670.185125 353.221486 
L 678.914125 353.222295 
L 687.643125 353.222785 
L 696.372125 353.221805 
L 705.101125 353.222718 
L 713.830125 353.222221 
L 722.559125 353.222246 
L 731.288125 353.222332 
L 740.017125 353.222497 
L 748.746125 353.222319 
L 757.475125 353.22243 
L 766.204125 353.222215 
L 774.933125 353.221425 
L 783.662125 353.222344 
L 792.391125 353.222197 
L 801.120125 353.221603 
L 809.849125 353.221596 
L 818.578125 353.221725 
L 827.307125 353.222123 
L 836.036125 353.221694 
L 844.765125 353.221946 
L 853.494125 353.221596 
L 862.223125 353.222111 
L 870.952125 353.221357 
L 879.681125 353.220739 
L 888.410125 353.220053 
L 897.139125 353.220524 
L 905.868125 353.220077 
L 914.597125 353.21936 
L 923.326125 353.21819 
L 932.055125 353.218968 
L 940.784125 353.200362 
L 949.513125 353.06513 
" clip-path="url(#pab1a17ff1d)" style="fill: none; stroke: #2b908f; stroke-linecap: square"/>
   </g>
   <g id="line2d_15">
    <path d="M 76.613125 229.782756 
L 85.342125 305.943302 
L 94.071125 345.187962 
L 102.800125 351.725315 
L 111.529125 353.122922 
L 120.258125 353.182141 
L 128.987125 353.218386 
L 137.716125 353.222332 
L 146.445125 353.218601 
L 155.174125 353.21656 
L 163.903125 353.220696 
L 172.632125 353.221664 
L 181.361125 353.22333 
L 190.090125 353.222417 
L 198.819125 353.223661 
L 207.548125 353.222528 
L 216.277125 353.22371 
L 225.006125 353.223024 
L 233.735125 353.221848 
L 242.464125 353.223777 
L 251.193125 353.223704 
L 259.922125 353.223716 
L 268.651125 353.222969 
L 277.380125 353.222332 
L 286.109125 353.223679 
L 294.838125 353.223367 
L 303.567125 353.223391 
L 312.296125 353.223698 
L 321.025125 353.223257 
L 329.754125 353.223183 
L 338.483125 353.223042 
L 347.212125 353.223661 
L 355.941125 353.222975 
L 364.670125 353.223281 
L 373.399125 353.223251 
L 382.128125 353.223453 
L 390.857125 353.223575 
L 399.586125 353.223526 
L 408.315125 353.223784 
L 417.044125 353.223649 
L 425.773125 353.223514 
L 434.502125 353.22276 
L 443.231125 353.222497 
L 451.960125 353.215396 
L 460.689125 353.222136 
L 469.418125 353.221437 
L 478.147125 353.172131 
L 486.876125 353.199241 
L 495.605125 353.21414 
L 504.334125 352.974494 
L 513.063125 352.952469 
" clip-path="url(#pab1a17ff1d)" style="fill: none; stroke: #f45b5b; stroke-linecap: square"/>
   </g>
   <g id="line2d_16">
    <path d="M 76.613125 243.037803 
L 85.342125 316.311341 
L 94.071125 344.197452 
L 102.800125 351.383442 
L 111.529125 353.079301 
L 120.258125 353.170042 
L 128.987125 353.212915 
L 137.716125 353.221603 
L 146.445125 353.215298 
L 155.174125 353.213074 
L 163.903125 353.217026 
L 172.632125 353.22069 
L 181.361125 353.223477 
L 190.090125 353.22235 
L 198.819125 353.22227 
L 207.548125 353.223624 
L 216.277125 353.222748 
L 225.006125 353.223104 
L 233.735125 353.22246 
L 242.464125 353.22292 
L 251.193125 353.223165 
L 259.922125 353.222932 
L 268.651125 353.222846 
L 277.380125 353.222816 
L 286.109125 353.222907 
L 294.838125 353.222999 
L 303.567125 353.223257 
L 312.296125 353.22295 
L 321.025125 353.223104 
L 329.754125 353.222754 
L 338.483125 353.22314 
L 347.212125 353.223134 
L 355.941125 353.223257 
L 364.670125 353.222797 
L 373.399125 353.223594 
L 382.128125 353.223336 
L 390.857125 353.223575 
L 399.586125 353.223453 
L 408.315125 353.223557 
L 417.044125 353.223428 
L 425.773125 353.223459 
L 434.502125 353.223526 
L 443.231125 353.223391 
L 451.960125 353.223637 
L 460.689125 353.223784 
L 469.418125 353.223673 
L 478.147125 353.223588 
L 486.876125 353.223232 
L 495.605125 353.220561 
L 504.334125 353.223471 
L 513.063125 353.223398 
" clip-path="url(#pab1a17ff1d)" style="fill: none; stroke: #91e8e1; stroke-linecap: square"/>
   </g>
   <g id="line2d_17">
    <path d="M 76.613125 51.237 
L 85.342125 256.158777 
L 94.071125 326.997067 
L 102.800125 347.849329 
L 111.529125 351.933477 
L 120.258125 353.022238 
L 128.987125 353.14083 
L 137.716125 353.169858 
L 146.445125 353.154627 
L 155.174125 353.152085 
L 163.903125 353.171922 
L 172.632125 353.186877 
L 181.361125 353.191521 
L 190.090125 353.195234 
L 198.819125 353.194805 
L 207.548125 353.199578 
L 216.277125 353.200074 
L 225.006125 353.201661 
L 233.735125 353.201924 
L 242.464125 353.200325 
L 251.193125 353.204375 
L 259.922125 353.207995 
L 268.651125 353.209215 
L 277.380125 353.20639 
L 286.109125 353.209178 
L 294.838125 353.211757 
L 303.567125 353.210728 
L 312.296125 353.211273 
L 321.025125 353.210955 
L 329.754125 353.213687 
L 338.483125 353.213368 
L 347.212125 353.213209 
L 355.941125 353.214961 
L 364.670125 353.213656 
L 373.399125 353.213258 
L 382.128125 353.213742 
L 390.857125 353.215225 
L 399.586125 353.214575 
L 408.315125 353.213387 
L 417.044125 353.213999 
L 425.773125 353.213736 
L 434.502125 353.214716 
L 443.231125 353.214533 
L 451.960125 353.214698 
L 460.689125 353.213779 
L 469.418125 353.21422 
L 478.147125 353.215402 
L 486.876125 353.216756 
L 495.605125 353.216616 
L 504.334125 353.216665 
L 513.063125 353.216064 
L 521.792125 353.216248 
L 530.521125 353.21637 
L 539.250125 353.212615 
L 547.979125 353.209803 
L 556.708125 353.214637 
L 565.437125 353.216665 
L 574.166125 353.215635 
L 582.895125 353.207481 
L 591.624125 353.211273 
L 600.353125 353.208351 
L 609.082125 353.212223 
L 617.811125 353.201869 
L 626.540125 353.201232 
L 635.269125 353.215727 
L 643.998125 353.214404 
L 652.727125 353.211077 
L 661.456125 353.212505 
L 670.185125 353.218251 
L 678.914125 353.220291 
L 687.643125 353.22156 
L 696.372125 353.220677 
L 705.101125 353.221713 
L 713.830125 353.220708 
L 722.559125 353.221149 
L 731.288125 353.22012 
L 740.017125 353.221737 
L 748.746125 353.22118 
L 757.475125 353.220763 
L 766.204125 353.220598 
L 774.933125 353.220353 
L 783.662125 353.220733 
L 792.391125 353.220206 
L 801.120125 353.218141 
L 809.849125 353.216763 
L 818.578125 353.217198 
L 827.307125 353.217057 
L 836.036125 353.217106 
L 844.765125 353.217161 
L 853.494125 353.217994 
L 862.223125 353.21865 
L 870.952125 353.216125 
L 879.681125 353.217816 
L 888.410125 353.215421 
L 897.139125 353.216346 
L 905.868125 353.216389 
L 914.597125 353.211224 
L 923.326125 353.209349 
L 932.055125 353.211157 
L 940.784125 353.08688 
L 949.513125 352.2816 
" clip-path="url(#pab1a17ff1d)" style="fill: none; stroke: #7cb5ec; stroke-linecap: square"/>
   </g>
   <g id="line2d_18">
    <path d="M 76.613125 50.397228 
L 85.342125 250.008604 
L 94.071125 330.29111 
L 102.800125 349.110847 
L 111.529125 352.092994 
L 120.258125 352.935928 
L 128.987125 353.037996 
L 137.716125 353.060425 
L 146.445125 353.05947 
L 155.174125 353.067697 
L 163.903125 353.108715 
L 172.632125 353.132608 
L 181.361125 353.142104 
L 190.090125 353.145848 
L 198.819125 353.145639 
L 207.548125 353.160766 
L 216.277125 353.166384 
L 225.006125 353.167376 
L 233.735125 353.165159 
L 242.464125 353.166261 
L 251.193125 353.172284 
L 259.922125 353.180941 
L 268.651125 353.182583 
L 277.380125 353.181878 
L 286.109125 353.185756 
L 294.838125 353.191515 
L 303.567125 353.186877 
L 312.296125 353.190014 
L 321.025125 353.189144 
L 329.754125 353.195467 
L 338.483125 353.192753 
L 347.212125 353.196226 
L 355.941125 353.201072 
L 364.670125 353.196802 
L 373.399125 353.200864 
L 382.128125 353.198732 
L 390.857125 353.200864 
L 399.586125 353.20337 
L 408.315125 353.203774 
L 417.044125 353.205067 
L 425.773125 353.2025 
L 434.502125 353.204932 
L 443.231125 353.20715 
L 451.960125 353.206831 
L 460.689125 353.2056 
L 469.418125 353.206115 
L 478.147125 353.207487 
L 486.876125 353.20881 
L 495.605125 353.210158 
L 504.334125 353.21036 
L 513.063125 353.209968 
L 521.792125 353.2112 
L 530.521125 353.211132 
L 539.250125 353.210121 
L 547.979125 353.204761 
L 556.708125 353.21074 
L 565.437125 353.214036 
L 574.166125 353.214049 
L 582.895125 353.207518 
L 591.624125 353.212266 
L 600.353125 353.210121 
L 609.082125 353.212688 
L 617.811125 353.205533 
L 626.540125 353.206225 
L 635.269125 353.217081 
L 643.998125 353.216707 
L 652.727125 353.214876 
L 661.456125 353.216095 
L 670.185125 353.219225 
L 678.914125 353.220929 
L 687.643125 353.22189 
L 696.372125 353.221505 
L 705.101125 353.222178 
L 713.830125 353.221823 
L 722.559125 353.221921 
L 731.288125 353.2211 
L 740.017125 353.222074 
L 748.746125 353.222258 
L 757.475125 353.221903 
L 766.204125 353.22069 
L 774.933125 353.218674 
L 783.662125 353.221492 
L 792.391125 353.221235 
L 801.120125 353.220714 
L 809.849125 353.218913 
L 818.578125 353.219795 
L 827.307125 353.219771 
L 836.036125 353.220114 
L 844.765125 353.219274 
L 853.494125 353.22012 
L 862.223125 353.220414 
L 870.952125 353.218999 
L 879.681125 353.21732 
L 888.410125 353.205661 
L 897.139125 353.214937 
L 905.868125 353.211396 
L 914.597125 353.211635 
L 923.326125 353.210948 
L 932.055125 353.210293 
L 940.784125 353.11402 
L 949.513125 352.508399 
" clip-path="url(#pab1a17ff1d)" style="fill: none; stroke: #434348; stroke-linecap: square"/>
   </g>
   <g id="line2d_19">
    <path d="M 76.613125 120.751692 
L 85.342125 277.398538 
L 94.071125 333.975838 
L 102.800125 348.991484 
L 111.529125 352.460587 
L 120.258125 353.141443 
L 128.987125 353.187962 
L 137.716125 353.200993 
L 146.445125 353.195326 
L 155.174125 353.194633 
L 163.903125 353.202629 
L 172.632125 353.207916 
L 181.361125 353.209889 
L 190.090125 353.211359 
L 198.819125 353.211481 
L 207.548125 353.212737 
L 216.277125 353.211867 
L 225.006125 353.21422 
L 233.735125 353.21449 
L 242.464125 353.212927 
L 251.193125 353.214232 
L 259.922125 353.215917 
L 268.651125 353.21683 
L 277.380125 353.216493 
L 286.109125 353.216946 
L 294.838125 353.218061 
L 303.567125 353.216867 
L 312.296125 353.216499 
L 321.025125 353.216952 
L 329.754125 353.218404 
L 338.483125 353.217914 
L 347.212125 353.218643 
L 355.941125 353.218741 
L 364.670125 353.21857 
L 373.399125 353.218374 
L 382.128125 353.219164 
L 390.857125 353.218987 
L 399.586125 353.219618 
L 408.315125 353.218288 
L 417.044125 353.218839 
L 425.773125 353.219201 
L 434.502125 353.218797 
L 443.231125 353.219599 
L 451.960125 353.219299 
L 460.689125 353.219097 
L 469.418125 353.219281 
L 478.147125 353.219048 
L 486.876125 353.219575 
L 495.605125 353.219532 
L 504.334125 353.219403 
L 513.063125 353.219526 
L 521.792125 353.219342 
L 530.521125 353.219091 
L 539.250125 353.21944 
L 547.979125 353.217234 
L 556.708125 353.219912 
L 565.437125 353.219293 
L 574.166125 353.220873 
L 582.895125 353.216738 
L 591.624125 353.21887 
L 600.353125 353.217577 
L 609.082125 353.219642 
L 617.811125 353.216046 
L 626.540125 353.216162 
L 635.269125 353.220972 
L 643.998125 353.220592 
L 652.727125 353.220083 
L 661.456125 353.220653 
L 670.185125 353.221823 
L 678.914125 353.222534 
L 687.643125 353.222901 
L 696.372125 353.222571 
L 705.101125 353.222858 
L 713.830125 353.222809 
L 722.559125 353.222583 
L 731.288125 353.222295 
L 740.017125 353.222987 
L 748.746125 353.222754 
L 757.475125 353.222754 
L 766.204125 353.222374 
L 774.933125 353.220665 
L 783.662125 353.222687 
L 792.391125 353.221995 
L 801.120125 353.222534 
L 809.849125 353.222368 
L 818.578125 353.22254 
L 827.307125 353.222246 
L 836.036125 353.222258 
L 844.765125 353.222264 
L 853.494125 353.222203 
L 862.223125 353.222344 
L 870.952125 353.22178 
L 879.681125 353.222068 
L 888.410125 353.219085 
L 897.139125 353.221082 
L 905.868125 353.221014 
L 914.597125 353.221639 
L 923.326125 353.22121 
L 932.055125 353.22175 
L 940.784125 353.220224 
L 949.513125 353.202286 
" clip-path="url(#pab1a17ff1d)" style="fill: none; stroke: #90ed7d; stroke-linecap: square"/>
   </g>
   <g id="line2d_20">
    <path d="M 76.613125 91.916609 
L 85.342125 265.128787 
L 94.071125 332.41184 
L 102.800125 349.289326 
L 111.529125 352.201373 
L 120.258125 353.042738 
L 128.987125 353.138655 
L 137.716125 353.164558 
L 146.445125 353.155234 
L 155.174125 353.153959 
L 163.903125 353.173962 
L 172.632125 353.187349 
L 181.361125 353.19328 
L 190.090125 353.193855 
L 198.819125 353.19426 
L 207.548125 353.198953 
L 216.277125 353.200074 
L 225.006125 353.201477 
L 233.735125 353.199375 
L 242.464125 353.197262 
L 251.193125 353.202267 
L 259.922125 353.206648 
L 268.651125 353.207708 
L 277.380125 353.207726 
L 286.109125 353.20878 
L 294.838125 353.210924 
L 303.567125 353.20742 
L 312.296125 353.208002 
L 321.025125 353.20862 
L 329.754125 353.211549 
L 338.483125 353.210771 
L 347.212125 353.2118 
L 355.941125 353.213221 
L 364.670125 353.21158 
L 373.399125 353.212198 
L 382.128125 353.21305 
L 390.857125 353.213356 
L 399.586125 353.215764 
L 408.315125 353.213307 
L 417.044125 353.213816 
L 425.773125 353.213093 
L 434.502125 353.213816 
L 443.231125 353.215543 
L 451.960125 353.215709 
L 460.689125 353.215225 
L 469.418125 353.214606 
L 478.147125 353.21536 
L 486.876125 353.21645 
L 495.605125 353.216616 
L 504.334125 353.216769 
L 513.063125 353.216775 
L 521.792125 353.217338 
L 530.521125 353.216714 
L 539.250125 353.217063 
L 547.979125 353.212652 
L 556.708125 353.217277 
L 565.437125 353.218049 
L 574.166125 353.218944 
L 582.895125 353.213534 
L 591.624125 353.21623 
L 600.353125 353.214753 
L 609.082125 353.217669 
L 617.811125 353.212021 
L 626.540125 353.211708 
L 635.269125 353.218766 
L 643.998125 353.217957 
L 652.727125 353.216946 
L 661.456125 353.217645 
L 670.185125 353.220004 
L 678.914125 353.221505 
L 687.643125 353.222558 
L 696.372125 353.221927 
L 705.101125 353.222246 
L 713.830125 353.222105 
L 722.559125 353.221958 
L 731.288125 353.221547 
L 740.017125 353.222522 
L 748.746125 353.222295 
L 757.475125 353.222185 
L 766.204125 353.221633 
L 774.933125 353.221192 
L 783.662125 353.222074 
L 792.391125 353.221743 
L 801.120125 353.22099 
L 809.849125 353.220132 
L 818.578125 353.221076 
L 827.307125 353.220494 
L 836.036125 353.22072 
L 844.765125 353.22061 
L 853.494125 353.220935 
L 862.223125 353.220886 
L 870.952125 353.219887 
L 879.681125 353.21868 
L 888.410125 353.206243 
L 897.139125 353.217994 
L 905.868125 353.212253 
L 914.597125 353.217363 
L 923.326125 353.216101 
L 932.055125 353.218999 
L 940.784125 353.210697 
L 949.513125 353.14597 
" clip-path="url(#pab1a17ff1d)" style="fill: none; stroke: #f7a35c; stroke-linecap: square"/>
   </g>
   <g id="line2d_21">
    <path d="M 76.613125 249.310324 
L 85.342125 316.172771 
L 94.071125 346.189825 
L 102.800125 351.871274 
L 111.529125 353.135868 
L 120.258125 353.187698 
L 128.987125 353.218092 
L 137.716125 353.221829 
L 146.445125 353.218674 
L 155.174125 353.216321 
L 163.903125 353.220083 
L 172.632125 353.220641 
L 181.361125 353.223569 
L 190.090125 353.221425 
L 198.819125 353.223379 
L 207.548125 353.221198 
L 216.277125 353.223355 
L 225.006125 353.22197 
L 233.735125 353.22061 
L 242.464125 353.223606 
L 251.193125 353.223698 
L 259.922125 353.223679 
L 268.651125 353.22262 
L 277.380125 353.221051 
L 286.109125 353.223532 
L 294.838125 353.222993 
L 303.567125 353.223122 
L 312.296125 353.223588 
L 321.025125 353.223097 
L 329.754125 353.222883 
L 338.483125 353.222791 
L 347.212125 353.223594 
L 355.941125 353.222895 
L 364.670125 353.223735 
L 373.399125 353.222858 
L 382.128125 353.223428 
L 390.857125 353.223428 
L 399.586125 353.22322 
L 408.315125 353.223398 
L 417.044125 353.223416 
L 425.773125 353.223502 
L 434.502125 353.221345 
L 443.231125 353.220647 
L 451.960125 353.213166 
L 460.689125 353.220818 
L 469.418125 353.218245 
L 478.147125 353.139519 
L 486.876125 353.159731 
L 495.605125 353.183581 
L 504.334125 352.41987 
L 513.063125 351.893232 
" clip-path="url(#pab1a17ff1d)" style="fill: none; stroke: #8085e9; stroke-linecap: square"/>
   </g>
   <g id="line2d_22">
    <path d="M 76.613125 259.476242 
L 85.342125 322.518038 
L 94.071125 345.56189 
L 102.800125 351.603311 
L 111.529125 353.104193 
L 120.258125 353.17887 
L 128.987125 353.214974 
L 137.716125 353.220929 
L 146.445125 353.216597 
L 155.174125 353.214012 
L 163.903125 353.217914 
L 172.632125 353.219728 
L 181.361125 353.223287 
L 190.090125 353.221707 
L 198.819125 353.221627 
L 207.548125 353.223581 
L 216.277125 353.222074 
L 225.006125 353.222675 
L 233.735125 353.221799 
L 242.464125 353.222767 
L 251.193125 353.222871 
L 259.922125 353.222497 
L 268.651125 353.22265 
L 277.380125 353.222062 
L 286.109125 353.222767 
L 294.838125 353.222797 
L 303.567125 353.22303 
L 312.296125 353.222822 
L 321.025125 353.223122 
L 329.754125 353.222632 
L 338.483125 353.222975 
L 347.212125 353.222834 
L 355.941125 353.223006 
L 364.670125 353.222993 
L 373.399125 353.223146 
L 382.128125 353.223251 
L 390.857125 353.223055 
L 399.586125 353.223679 
L 408.315125 353.223686 
L 417.044125 353.223588 
L 425.773125 353.223753 
L 434.502125 353.223588 
L 443.231125 353.223545 
L 451.960125 353.223502 
L 460.689125 353.22371 
L 469.418125 353.223637 
L 478.147125 353.22371 
L 486.876125 353.22341 
L 495.605125 353.213295 
L 504.334125 353.223557 
L 513.063125 353.223649 
" clip-path="url(#pab1a17ff1d)" style="fill: none; stroke: #f15c80; stroke-linecap: square"/>
   </g>
   <g id="line2d_23">
    <path d="M 32.968125 353.2239 
L 993.158125 353.2239 
" clip-path="url(#pab1a17ff1d)" style="fill: none; stroke: #dedede; stroke-width: 2; stroke-linecap: square"/>
   </g>
   <g id="text_16">
    <!-- Cutadapt: Lengths of Trimmed Sequences (3' end) -->
    <g transform="translate(311.710625 19.3575) scale(0.16 -0.16)">
     <defs>
      <path id="DejaVuSans-61" d="M 2194 1759 
Q 1497 1759 1228 1600 
Q 959 1441 959 1056 
Q 959 750 1161 570 
Q 1363 391 1709 391 
Q 2188 391 2477 730 
Q 2766 1069 2766 1631 
L 2766 1759 
L 2194 1759 
z
M 3341 1997 
L 3341 0 
L 2766 0 
L 2766 531 
Q 2569 213 2275 61 
Q 1981 -91 1556 -91 
Q 1019 -91 701 211 
Q 384 513 384 1019 
Q 384 1609 779 1909 
Q 1175 2209 1959 2209 
L 2766 2209 
L 2766 2266 
Q 2766 2663 2505 2880 
Q 2244 3097 1772 3097 
Q 1472 3097 1187 3025 
Q 903 2953 641 2809 
L 641 3341 
Q 956 3463 1253 3523 
Q 1550 3584 1831 3584 
Q 2591 3584 2966 3190 
Q 3341 2797 3341 1997 
z
" transform="scale(0.015625)"/>
      <path id="DejaVuSans-3a" d="M 750 794 
L 1409 794 
L 1409 0 
L 750 0 
L 750 794 
z
M 750 3309 
L 1409 3309 
L 1409 2516 
L 750 2516 
L 750 3309 
z
" transform="scale(0.015625)"/>
      <path id="DejaVuSans-73" d="M 2834 3397 
L 2834 2853 
Q 2591 2978 2328 3040 
Q 2066 3103 1784 3103 
Q 1356 3103 1142 2972 
Q 928 2841 928 2578 
Q 928 2378 1081 2264 
Q 1234 2150 1697 2047 
L 1894 2003 
Q 2506 1872 2764 1633 
Q 3022 1394 3022 966 
Q 3022 478 2636 193 
Q 2250 -91 1575 -91 
Q 1294 -91 989 -36 
Q 684 19 347 128 
L 347 722 
Q 666 556 975 473 
Q 1284 391 1588 391 
Q 1994 391 2212 530 
Q 2431 669 2431 922 
Q 2431 1156 2273 1281 
Q 2116 1406 1581 1522 
L 1381 1569 
Q 847 1681 609 1914 
Q 372 2147 372 2553 
Q 372 3047 722 3315 
Q 1072 3584 1716 3584 
Q 2034 3584 2315 3537 
Q 2597 3491 2834 3397 
z
" transform="scale(0.015625)"/>
      <path id="DejaVuSans-66" d="M 2375 4863 
L 2375 4384 
L 1825 4384 
Q 1516 4384 1395 4259 
Q 1275 4134 1275 3809 
L 1275 3500 
L 2222 3500 
L 2222 3053 
L 1275 3053 
L 1275 0 
L 697 0 
L 697 3053 
L 147 3053 
L 147 3500 
L 697 3500 
L 697 3744 
Q 697 4328 969 4595 
Q 1241 4863 1831 4863 
L 2375 4863 
z
" transform="scale(0.015625)"/>
      <path id="DejaVuSans-53" d="M 3425 4513 
L 3425 3897 
Q 3066 4069 2747 4153 
Q 2428 4238 2131 4238 
Q 1616 4238 1336 4038 
Q 1056 3838 1056 3469 
Q 1056 3159 1242 3001 
Q 1428 2844 1947 2747 
L 2328 2669 
Q 3034 2534 3370 2195 
Q 3706 1856 3706 1288 
Q 3706 609 3251 259 
Q 2797 -91 1919 -91 
Q 1588 -91 1214 -16 
Q 841 59 441 206 
L 441 856 
Q 825 641 1194 531 
Q 1563 422 1919 422 
Q 2459 422 2753 634 
Q 3047 847 3047 1241 
Q 3047 1584 2836 1778 
Q 2625 1972 2144 2069 
L 1759 2144 
Q 1053 2284 737 2584 
Q 422 2884 422 3419 
Q 422 4038 858 4394 
Q 1294 4750 2059 4750 
Q 2388 4750 2728 4690 
Q 3069 4631 3425 4513 
z
" transform="scale(0.015625)"/>
      <path id="DejaVuSans-71" d="M 947 1747 
Q 947 1113 1208 752 
Q 1469 391 1925 391 
Q 2381 391 2643 752 
Q 2906 1113 2906 1747 
Q 2906 2381 2643 2742 
Q 2381 3103 1925 3103 
Q 1469 3103 1208 2742 
Q 947 2381 947 1747 
z
M 2906 525 
Q 2725 213 2448 61 
Q 2172 -91 1784 -91 
Q 1150 -91 751 415 
Q 353 922 353 1747 
Q 353 2572 751 3078 
Q 1150 3584 1784 3584 
Q 2172 3584 2448 3432 
Q 2725 3281 2906 2969 
L 2906 3500 
L 3481 3500 
L 3481 -1331 
L 2906 -1331 
L 2906 525 
z
" transform="scale(0.015625)"/>
      <path id="DejaVuSans-63" d="M 3122 3366 
L 3122 2828 
Q 2878 2963 2633 3030 
Q 2388 3097 2138 3097 
Q 1578 3097 1268 2742 
Q 959 2388 959 1747 
Q 959 1106 1268 751 
Q 1578 397 2138 397 
Q 2388 397 2633 464 
Q 2878 531 3122 666 
L 3122 134 
Q 2881 22 2623 -34 
Q 2366 -91 2075 -91 
Q 1284 -91 818 406 
Q 353 903 353 1747 
Q 353 2603 823 3093 
Q 1294 3584 2113 3584 
Q 2378 3584 2631 3529 
Q 2884 3475 3122 3366 
z
" transform="scale(0.015625)"/>
      <path id="DejaVuSans-27" d="M 1147 4666 
L 1147 2931 
L 616 2931 
L 616 4666 
L 1147 4666 
z
" transform="scale(0.015625)"/>
     </defs>
     <use xlink:href="#DejaVuSans-43"/>
     <use xlink:href="#DejaVuSans-75" x="69.824219"/>
     <use xlink:href="#DejaVuSans-74" x="133.203125"/>
     <use xlink:href="#DejaVuSans-61" x="172.412109"/>
     <use xlink:href="#DejaVuSans-64" x="233.691406"/>
     <use xlink:href="#DejaVuSans-61" x="297.167969"/>
     <use xlink:href="#DejaVuSans-70" x="358.447266"/>
     <use xlink:href="#DejaVuSans-74" x="421.923828"/>
     <use xlink:href="#DejaVuSans-3a" x="461.132812"/>
     <use xlink:href="#DejaVuSans-20" x="494.824219"/>
     <use xlink:href="#DejaVuSans-4c" x="526.611328"/>
     <use xlink:href="#DejaVuSans-65" x="580.574219"/>
     <use xlink:href="#DejaVuSans-6e" x="642.097656"/>
     <use xlink:href="#DejaVuSans-67" x="705.476562"/>
     <use xlink:href="#DejaVuSans-74" x="768.953125"/>
     <use xlink:href="#DejaVuSans-68" x="808.162109"/>
     <use xlink:href="#DejaVuSans-73" x="871.541016"/>
     <use xlink:href="#DejaVuSans-20" x="923.640625"/>
     <use xlink:href="#DejaVuSans-6f" x="955.427734"/>
     <use xlink:href="#DejaVuSans-66" x="1016.609375"/>
     <use xlink:href="#DejaVuSans-20" x="1051.814453"/>
     <use xlink:href="#DejaVuSans-54" x="1083.601562"/>
     <use xlink:href="#DejaVuSans-72" x="1129.935547"/>
     <use xlink:href="#DejaVuSans-69" x="1171.048828"/>
     <use xlink:href="#DejaVuSans-6d" x="1198.832031"/>
     <use xlink:href="#DejaVuSans-6d" x="1296.244141"/>
     <use xlink:href="#DejaVuSans-65" x="1393.65625"/>
     <use xlink:href="#DejaVuSans-64" x="1455.179688"/>
     <use xlink:href="#DejaVuSans-20" x="1518.65625"/>
     <use xlink:href="#DejaVuSans-53" x="1550.443359"/>
     <use xlink:href="#DejaVuSans-65" x="1613.919922"/>
     <use xlink:href="#DejaVuSans-71" x="1675.443359"/>
     <use xlink:href="#DejaVuSans-75" x="1738.919922"/>
     <use xlink:href="#DejaVuSans-65" x="1802.298828"/>
     <use xlink:href="#DejaVuSans-6e" x="1863.822266"/>
     <use xlink:href="#DejaVuSans-63" x="1927.201172"/>
     <use xlink:href="#DejaVuSans-65" x="1982.181641"/>
     <use xlink:href="#DejaVuSans-73" x="2043.705078"/>
     <use xlink:href="#DejaVuSans-20" x="2095.804688"/>
     <use xlink:href="#DejaVuSans-28" x="2127.591797"/>
     <use xlink:href="#DejaVuSans-33" x="2166.605469"/>
     <use xlink:href="#DejaVuSans-27" x="2230.228516"/>
     <use xlink:href="#DejaVuSans-20" x="2257.71875"/>
     <use xlink:href="#DejaVuSans-65" x="2289.505859"/>
     <use xlink:href="#DejaVuSans-6e" x="2351.029297"/>
     <use xlink:href="#DejaVuSans-64" x="2414.408203"/>
     <use xlink:href="#DejaVuSans-29" x="2477.884766"/>
    </g>
   </g>
  </g>
 </g>
 <defs>
  <clipPath id="pab1a17ff1d">
   <rect x="32.968125" y="35.2559" width="960.19" height="317.968"/>
  </clipPath>
 </defs>
</svg>
