<?xml version="1.0" encoding="utf-8" standalone="no"?>
<!DOCTYPE svg PUBLIC "-//W3C//DTD SVG 1.1//EN"
  "http://www.w3.org/Graphics/SVG/1.1/DTD/svg11.dtd">
<svg xmlns:xlink="http://www.w3.org/1999/xlink" width="1000.298125pt" height="388.844525pt" viewBox="0 0 1000.298125 388.844525" xmlns="http://www.w3.org/2000/svg" version="1.1">
 <metadata>
  <rdf:RDF xmlns:dc="http://purl.org/dc/elements/1.1/" xmlns:cc="http://creativecommons.org/ns#" xmlns:rdf="http://www.w3.org/1999/02/22-rdf-syntax-ns#">
   <cc:Work>
    <dc:type rdf:resource="http://purl.org/dc/dcmitype/StillImage"/>
    <dc:date>2025-04-01T05:20:45.342460</dc:date>
    <dc:format>image/svg+xml</dc:format>
    <dc:creator>
     <cc:Agent>
      <dc:title>Matplotlib v3.8.2, https://matplotlib.org/</dc:title>
     </cc:Agent>
    </dc:creator>
   </cc:Work>
  </rdf:RDF>
 </metadata>
 <defs>
  <style type="text/css">*{stroke-linejoin: round; stroke-linecap: butt}</style>
 </defs>
 <g id="figure_1">
  <g id="axes_1">
   <g id="patch_1">
    <path d="M 32.968125 353.2239 
L 985.463125 353.2239 
L 985.463125 35.2559 
L 32.968125 35.2559 
z
" style="fill: #ffffff"/>
   </g>
   <g id="matplotlib.axis_1">
    <g id="xtick_1">
     <g id="text_1">
      <!-- 0 -->
      <g transform="translate(30.423125 366.30265) scale(0.08 -0.08)">
       <defs>
        <path id="DejaVuSans-30" d="M 2034 4250 
Q 1547 4250 1301 3770 
Q 1056 3291 1056 2328 
Q 1056 1369 1301 889 
Q 1547 409 2034 409 
Q 2525 409 2770 889 
Q 3016 1369 3016 2328 
Q 3016 3291 2770 3770 
Q 2525 4250 2034 4250 
z
M 2034 4750 
Q 2819 4750 3233 4129 
Q 3647 3509 3647 2328 
Q 3647 1150 3233 529 
Q 2819 -91 2034 -91 
Q 1250 -91 836 529 
Q 422 1150 422 2328 
Q 422 3509 836 4129 
Q 1250 4750 2034 4750 
z
" transform="scale(0.015625)"/>
       </defs>
       <use xlink:href="#DejaVuSans-30"/>
      </g>
     </g>
    </g>
    <g id="xtick_2">
     <g id="text_2">
      <!-- 20 -->
      <g transform="translate(218.377125 366.30265) scale(0.08 -0.08)">
       <defs>
        <path id="DejaVuSans-32" d="M 1228 531 
L 3431 531 
L 3431 0 
L 469 0 
L 469 531 
Q 828 903 1448 1529 
Q 2069 2156 2228 2338 
Q 2531 2678 2651 2914 
Q 2772 3150 2772 3378 
Q 2772 3750 2511 3984 
Q 2250 4219 1831 4219 
Q 1534 4219 1204 4116 
Q 875 4013 500 3803 
L 500 4441 
Q 881 4594 1212 4672 
Q 1544 4750 1819 4750 
Q 2544 4750 2975 4387 
Q 3406 4025 3406 3419 
Q 3406 3131 3298 2873 
Q 3191 2616 2906 2266 
Q 2828 2175 2409 1742 
Q 1991 1309 1228 531 
z
" transform="scale(0.015625)"/>
       </defs>
       <use xlink:href="#DejaVuSans-32"/>
       <use xlink:href="#DejaVuSans-30" x="63.623047"/>
      </g>
     </g>
    </g>
    <g id="xtick_3">
     <g id="text_3">
      <!-- 40 -->
      <g transform="translate(408.876125 366.30265) scale(0.08 -0.08)">
       <defs>
        <path id="DejaVuSans-34" d="M 2419 4116 
L 825 1625 
L 2419 1625 
L 2419 4116 
z
M 2253 4666 
L 3047 4666 
L 3047 1625 
L 3713 1625 
L 3713 1100 
L 3047 1100 
L 3047 0 
L 2419 0 
L 2419 1100 
L 313 1100 
L 313 1709 
L 2253 4666 
z
" transform="scale(0.015625)"/>
       </defs>
       <use xlink:href="#DejaVuSans-34"/>
       <use xlink:href="#DejaVuSans-30" x="63.623047"/>
      </g>
     </g>
    </g>
    <g id="xtick_4">
     <g id="text_4">
      <!-- 60 -->
      <g transform="translate(599.375125 366.30265) scale(0.08 -0.08)">
       <defs>
        <path id="DejaVuSans-36" d="M 2113 2584 
Q 1688 2584 1439 2293 
Q 1191 2003 1191 1497 
Q 1191 994 1439 701 
Q 1688 409 2113 409 
Q 2538 409 2786 701 
Q 3034 994 3034 1497 
Q 3034 2003 2786 2293 
Q 2538 2584 2113 2584 
z
M 3366 4563 
L 3366 3988 
Q 3128 4100 2886 4159 
Q 2644 4219 2406 4219 
Q 1781 4219 1451 3797 
Q 1122 3375 1075 2522 
Q 1259 2794 1537 2939 
Q 1816 3084 2150 3084 
Q 2853 3084 3261 2657 
Q 3669 2231 3669 1497 
Q 3669 778 3244 343 
Q 2819 -91 2113 -91 
Q 1303 -91 875 529 
Q 447 1150 447 2328 
Q 447 3434 972 4092 
Q 1497 4750 2381 4750 
Q 2619 4750 2861 4703 
Q 3103 4656 3366 4563 
z
" transform="scale(0.015625)"/>
       </defs>
       <use xlink:href="#DejaVuSans-36"/>
       <use xlink:href="#DejaVuSans-30" x="63.623047"/>
      </g>
     </g>
    </g>
    <g id="xtick_5">
     <g id="text_5">
      <!-- 80 -->
      <g transform="translate(789.874125 366.30265) scale(0.08 -0.08)">
       <defs>
        <path id="DejaVuSans-38" d="M 2034 2216 
Q 1584 2216 1326 1975 
Q 1069 1734 1069 1313 
Q 1069 891 1326 650 
Q 1584 409 2034 409 
Q 2484 409 2743 651 
Q 3003 894 3003 1313 
Q 3003 1734 2745 1975 
Q 2488 2216 2034 2216 
z
M 1403 2484 
Q 997 2584 770 2862 
Q 544 3141 544 3541 
Q 544 4100 942 4425 
Q 1341 4750 2034 4750 
Q 2731 4750 3128 4425 
Q 3525 4100 3525 3541 
Q 3525 3141 3298 2862 
Q 3072 2584 2669 2484 
Q 3125 2378 3379 2068 
Q 3634 1759 3634 1313 
Q 3634 634 3220 271 
Q 2806 -91 2034 -91 
Q 1263 -91 848 271 
Q 434 634 434 1313 
Q 434 1759 690 2068 
Q 947 2378 1403 2484 
z
M 1172 3481 
Q 1172 3119 1398 2916 
Q 1625 2713 2034 2713 
Q 2441 2713 2670 2916 
Q 2900 3119 2900 3481 
Q 2900 3844 2670 4047 
Q 2441 4250 2034 4250 
Q 1625 4250 1398 4047 
Q 1172 3844 1172 3481 
z
" transform="scale(0.015625)"/>
       </defs>
       <use xlink:href="#DejaVuSans-38"/>
       <use xlink:href="#DejaVuSans-30" x="63.623047"/>
      </g>
     </g>
    </g>
    <g id="xtick_6">
     <g id="text_6">
      <!-- 100 -->
      <g transform="translate(977.828125 366.30265) scale(0.08 -0.08)">
       <defs>
        <path id="DejaVuSans-31" d="M 794 531 
L 1825 531 
L 1825 4091 
L 703 3866 
L 703 4441 
L 1819 4666 
L 2450 4666 
L 2450 531 
L 3481 531 
L 3481 0 
L 794 0 
L 794 531 
z
" transform="scale(0.015625)"/>
       </defs>
       <use xlink:href="#DejaVuSans-31"/>
       <use xlink:href="#DejaVuSans-30" x="63.623047"/>
       <use xlink:href="#DejaVuSans-30" x="127.246094"/>
      </g>
     </g>
    </g>
    <g id="text_7">
     <!-- % GC -->
     <g transform="translate(495.510156 379.564837) scale(0.1 -0.1)">
      <defs>
       <path id="DejaVuSans-25" d="M 4653 2053 
Q 4381 2053 4226 1822 
Q 4072 1591 4072 1178 
Q 4072 772 4226 539 
Q 4381 306 4653 306 
Q 4919 306 5073 539 
Q 5228 772 5228 1178 
Q 5228 1588 5073 1820 
Q 4919 2053 4653 2053 
z
M 4653 2450 
Q 5147 2450 5437 2106 
Q 5728 1763 5728 1178 
Q 5728 594 5436 251 
Q 5144 -91 4653 -91 
Q 4153 -91 3862 251 
Q 3572 594 3572 1178 
Q 3572 1766 3864 2108 
Q 4156 2450 4653 2450 
z
M 1428 4353 
Q 1159 4353 1004 4120 
Q 850 3888 850 3481 
Q 850 3069 1003 2837 
Q 1156 2606 1428 2606 
Q 1700 2606 1854 2837 
Q 2009 3069 2009 3481 
Q 2009 3884 1853 4118 
Q 1697 4353 1428 4353 
z
M 4250 4750 
L 4750 4750 
L 1831 -91 
L 1331 -91 
L 4250 4750 
z
M 1428 4750 
Q 1922 4750 2215 4408 
Q 2509 4066 2509 3481 
Q 2509 2891 2217 2550 
Q 1925 2209 1428 2209 
Q 931 2209 642 2551 
Q 353 2894 353 3481 
Q 353 4063 643 4406 
Q 934 4750 1428 4750 
z
" transform="scale(0.015625)"/>
       <path id="DejaVuSans-20" transform="scale(0.015625)"/>
       <path id="DejaVuSans-47" d="M 3809 666 
L 3809 1919 
L 2778 1919 
L 2778 2438 
L 4434 2438 
L 4434 434 
Q 4069 175 3628 42 
Q 3188 -91 2688 -91 
Q 1594 -91 976 548 
Q 359 1188 359 2328 
Q 359 3472 976 4111 
Q 1594 4750 2688 4750 
Q 3144 4750 3555 4637 
Q 3966 4525 4313 4306 
L 4313 3634 
Q 3963 3931 3569 4081 
Q 3175 4231 2741 4231 
Q 1884 4231 1454 3753 
Q 1025 3275 1025 2328 
Q 1025 1384 1454 906 
Q 1884 428 2741 428 
Q 3075 428 3337 486 
Q 3600 544 3809 666 
z
" transform="scale(0.015625)"/>
       <path id="DejaVuSans-43" d="M 4122 4306 
L 4122 3641 
Q 3803 3938 3442 4084 
Q 3081 4231 2675 4231 
Q 1875 4231 1450 3742 
Q 1025 3253 1025 2328 
Q 1025 1406 1450 917 
Q 1875 428 2675 428 
Q 3081 428 3442 575 
Q 3803 722 4122 1019 
L 4122 359 
Q 3791 134 3420 21 
Q 3050 -91 2638 -91 
Q 1578 -91 968 557 
Q 359 1206 359 2328 
Q 359 3453 968 4101 
Q 1578 4750 2638 4750 
Q 3056 4750 3426 4639 
Q 3797 4528 4122 4306 
z
" transform="scale(0.015625)"/>
      </defs>
      <use xlink:href="#DejaVuSans-25"/>
      <use xlink:href="#DejaVuSans-20" x="95.019531"/>
      <use xlink:href="#DejaVuSans-47" x="126.806641"/>
      <use xlink:href="#DejaVuSans-43" x="204.296875"/>
     </g>
    </g>
   </g>
   <g id="matplotlib.axis_2">
    <g id="ytick_1">
     <g id="line2d_1">
      <path d="M 32.968125 353.2239 
L 985.463125 353.2239 
" clip-path="url(#p5ffbc0cf5e)" style="fill: none; stroke: #dedede; stroke-linecap: square"/>
     </g>
     <g id="text_8">
      <!-- 0 -->
      <g transform="translate(20.878125 356.263275) scale(0.08 -0.08)">
       <use xlink:href="#DejaVuSans-30"/>
      </g>
     </g>
    </g>
    <g id="ytick_2">
     <g id="line2d_2">
      <path d="M 32.968125 283.372424 
L 985.463125 283.372424 
" clip-path="url(#p5ffbc0cf5e)" style="fill: none; stroke: #dedede; stroke-linecap: square"/>
     </g>
     <g id="text_9">
      <!-- 2 -->
      <g transform="translate(20.878125 286.411799) scale(0.08 -0.08)">
       <use xlink:href="#DejaVuSans-32"/>
      </g>
     </g>
    </g>
    <g id="ytick_3">
     <g id="line2d_3">
      <path d="M 32.968125 213.520949 
L 985.463125 213.520949 
" clip-path="url(#p5ffbc0cf5e)" style="fill: none; stroke: #dedede; stroke-linecap: square"/>
     </g>
     <g id="text_10">
      <!-- 4 -->
      <g transform="translate(20.878125 216.560324) scale(0.08 -0.08)">
       <use xlink:href="#DejaVuSans-34"/>
      </g>
     </g>
    </g>
    <g id="ytick_4">
     <g id="line2d_4">
      <path d="M 32.968125 143.669473 
L 985.463125 143.669473 
" clip-path="url(#p5ffbc0cf5e)" style="fill: none; stroke: #dedede; stroke-linecap: square"/>
     </g>
     <g id="text_11">
      <!-- 6 -->
      <g transform="translate(20.878125 146.708848) scale(0.08 -0.08)">
       <use xlink:href="#DejaVuSans-36"/>
      </g>
     </g>
    </g>
    <g id="ytick_5">
     <g id="line2d_5">
      <path d="M 32.968125 73.817998 
L 985.463125 73.817998 
" clip-path="url(#p5ffbc0cf5e)" style="fill: none; stroke: #dedede; stroke-linecap: square"/>
     </g>
     <g id="text_12">
      <!-- 8 -->
      <g transform="translate(20.878125 76.857373) scale(0.08 -0.08)">
       <use xlink:href="#DejaVuSans-38"/>
      </g>
     </g>
    </g>
    <g id="text_13">
     <!-- Percentage -->
     <g transform="translate(14.798437 222.362556) rotate(-90) scale(0.1 -0.1)">
      <defs>
       <path id="DejaVuSans-50" d="M 1259 4147 
L 1259 2394 
L 2053 2394 
Q 2494 2394 2734 2622 
Q 2975 2850 2975 3272 
Q 2975 3691 2734 3919 
Q 2494 4147 2053 4147 
L 1259 4147 
z
M 628 4666 
L 2053 4666 
Q 2838 4666 3239 4311 
Q 3641 3956 3641 3272 
Q 3641 2581 3239 2228 
Q 2838 1875 2053 1875 
L 1259 1875 
L 1259 0 
L 628 0 
L 628 4666 
z
" transform="scale(0.015625)"/>
       <path id="DejaVuSans-65" d="M 3597 1894 
L 3597 1613 
L 953 1613 
Q 991 1019 1311 708 
Q 1631 397 2203 397 
Q 2534 397 2845 478 
Q 3156 559 3463 722 
L 3463 178 
Q 3153 47 2828 -22 
Q 2503 -91 2169 -91 
Q 1331 -91 842 396 
Q 353 884 353 1716 
Q 353 2575 817 3079 
Q 1281 3584 2069 3584 
Q 2775 3584 3186 3129 
Q 3597 2675 3597 1894 
z
M 3022 2063 
Q 3016 2534 2758 2815 
Q 2500 3097 2075 3097 
Q 1594 3097 1305 2825 
Q 1016 2553 972 2059 
L 3022 2063 
z
" transform="scale(0.015625)"/>
       <path id="DejaVuSans-72" d="M 2631 2963 
Q 2534 3019 2420 3045 
Q 2306 3072 2169 3072 
Q 1681 3072 1420 2755 
Q 1159 2438 1159 1844 
L 1159 0 
L 581 0 
L 581 3500 
L 1159 3500 
L 1159 2956 
Q 1341 3275 1631 3429 
Q 1922 3584 2338 3584 
Q 2397 3584 2469 3576 
Q 2541 3569 2628 3553 
L 2631 2963 
z
" transform="scale(0.015625)"/>
       <path id="DejaVuSans-63" d="M 3122 3366 
L 3122 2828 
Q 2878 2963 2633 3030 
Q 2388 3097 2138 3097 
Q 1578 3097 1268 2742 
Q 959 2388 959 1747 
Q 959 1106 1268 751 
Q 1578 397 2138 397 
Q 2388 397 2633 464 
Q 2878 531 3122 666 
L 3122 134 
Q 2881 22 2623 -34 
Q 2366 -91 2075 -91 
Q 1284 -91 818 406 
Q 353 903 353 1747 
Q 353 2603 823 3093 
Q 1294 3584 2113 3584 
Q 2378 3584 2631 3529 
Q 2884 3475 3122 3366 
z
" transform="scale(0.015625)"/>
       <path id="DejaVuSans-6e" d="M 3513 2113 
L 3513 0 
L 2938 0 
L 2938 2094 
Q 2938 2591 2744 2837 
Q 2550 3084 2163 3084 
Q 1697 3084 1428 2787 
Q 1159 2491 1159 1978 
L 1159 0 
L 581 0 
L 581 3500 
L 1159 3500 
L 1159 2956 
Q 1366 3272 1645 3428 
Q 1925 3584 2291 3584 
Q 2894 3584 3203 3211 
Q 3513 2838 3513 2113 
z
" transform="scale(0.015625)"/>
       <path id="DejaVuSans-74" d="M 1172 4494 
L 1172 3500 
L 2356 3500 
L 2356 3053 
L 1172 3053 
L 1172 1153 
Q 1172 725 1289 603 
Q 1406 481 1766 481 
L 2356 481 
L 2356 0 
L 1766 0 
Q 1100 0 847 248 
Q 594 497 594 1153 
L 594 3053 
L 172 3053 
L 172 3500 
L 594 3500 
L 594 4494 
L 1172 4494 
z
" transform="scale(0.015625)"/>
       <path id="DejaVuSans-61" d="M 2194 1759 
Q 1497 1759 1228 1600 
Q 959 1441 959 1056 
Q 959 750 1161 570 
Q 1363 391 1709 391 
Q 2188 391 2477 730 
Q 2766 1069 2766 1631 
L 2766 1759 
L 2194 1759 
z
M 3341 1997 
L 3341 0 
L 2766 0 
L 2766 531 
Q 2569 213 2275 61 
Q 1981 -91 1556 -91 
Q 1019 -91 701 211 
Q 384 513 384 1019 
Q 384 1609 779 1909 
Q 1175 2209 1959 2209 
L 2766 2209 
L 2766 2266 
Q 2766 2663 2505 2880 
Q 2244 3097 1772 3097 
Q 1472 3097 1187 3025 
Q 903 2953 641 2809 
L 641 3341 
Q 956 3463 1253 3523 
Q 1550 3584 1831 3584 
Q 2591 3584 2966 3190 
Q 3341 2797 3341 1997 
z
" transform="scale(0.015625)"/>
       <path id="DejaVuSans-67" d="M 2906 1791 
Q 2906 2416 2648 2759 
Q 2391 3103 1925 3103 
Q 1463 3103 1205 2759 
Q 947 2416 947 1791 
Q 947 1169 1205 825 
Q 1463 481 1925 481 
Q 2391 481 2648 825 
Q 2906 1169 2906 1791 
z
M 3481 434 
Q 3481 -459 3084 -895 
Q 2688 -1331 1869 -1331 
Q 1566 -1331 1297 -1286 
Q 1028 -1241 775 -1147 
L 775 -588 
Q 1028 -725 1275 -790 
Q 1522 -856 1778 -856 
Q 2344 -856 2625 -561 
Q 2906 -266 2906 331 
L 2906 616 
Q 2728 306 2450 153 
Q 2172 0 1784 0 
Q 1141 0 747 490 
Q 353 981 353 1791 
Q 353 2603 747 3093 
Q 1141 3584 1784 3584 
Q 2172 3584 2450 3431 
Q 2728 3278 2906 2969 
L 2906 3500 
L 3481 3500 
L 3481 434 
z
" transform="scale(0.015625)"/>
      </defs>
      <use xlink:href="#DejaVuSans-50"/>
      <use xlink:href="#DejaVuSans-65" x="56.677734"/>
      <use xlink:href="#DejaVuSans-72" x="118.201172"/>
      <use xlink:href="#DejaVuSans-63" x="157.064453"/>
      <use xlink:href="#DejaVuSans-65" x="212.044922"/>
      <use xlink:href="#DejaVuSans-6e" x="273.568359"/>
      <use xlink:href="#DejaVuSans-74" x="336.947266"/>
      <use xlink:href="#DejaVuSans-61" x="376.15625"/>
      <use xlink:href="#DejaVuSans-67" x="437.435547"/>
      <use xlink:href="#DejaVuSans-65" x="500.912109"/>
     </g>
    </g>
   </g>
   <g id="line2d_6">
    <path d="M 32.968125 353.214232 
L 42.493075 353.196776 
L 52.018025 353.176492 
L 61.542975 353.176144 
L 71.067925 353.178846 
L 80.592875 353.168635 
L 90.117825 353.156361 
L 99.642775 353.131564 
L 109.167725 353.106585 
L 118.692675 353.060905 
L 128.217625 353.014082 
L 137.742575 352.915616 
L 147.267525 352.814503 
L 156.792475 352.64443 
L 166.317425 352.458197 
L 175.842375 352.128807 
L 185.367325 351.775692 
L 194.892275 351.158928 
L 204.417225 350.517311 
L 213.942175 349.547976 
L 223.467125 348.551321 
L 232.992075 347.132578 
L 242.517025 345.679564 
L 252.041975 343.77189 
L 261.566925 341.80994 
L 271.091875 339.854245 
L 280.616825 336.637885 
L 290.141775 333.790688 
L 299.666725 330.640265 
L 309.191675 327.515474 
L 318.716625 324.160596 
L 328.241575 320.488851 
L 337.766525 316.648915 
L 347.291475 312.851427 
L 356.816425 309.13421 
L 366.341375 305.506057 
L 375.866325 301.113761 
L 385.391275 296.328743 
L 394.916225 292.436606 
L 404.441175 288.847056 
L 413.966125 286.618796 
L 423.491075 284.580043 
L 433.016025 282.113699 
L 442.540975 280.903353 
L 452.065925 279.526027 
L 461.590875 277.037546 
L 471.115825 273.017549 
L 480.640775 265.799566 
L 490.165725 251.495181 
L 499.690675 244.769096 
L 509.215625 258.737418 
L 518.740575 269.479669 
L 528.265525 269.526311 
L 537.790475 265.752381 
L 547.315425 257.182009 
L 556.840375 255.850921 
L 566.365325 259.966153 
L 575.890275 253.250057 
L 585.415225 233.696703 
L 594.940175 222.524478 
L 604.465125 239.08022 
L 613.990075 263.361168 
L 623.515025 276.075873 
L 633.039975 282.830085 
L 642.564925 285.261741 
L 652.089875 288.778347 
L 661.614825 299.578789 
L 671.139775 310.041329 
L 680.664725 315.928642 
L 690.189675 320.531578 
L 699.714625 323.491896 
L 709.239575 325.22412 
L 718.764525 327.421355 
L 728.289475 329.518884 
L 737.814425 330.156377 
L 747.339375 330.49655 
L 756.864325 330.961533 
L 766.389275 331.083891 
L 775.914225 331.249157 
L 785.439175 332.6595 
L 794.964125 333.944252 
L 804.489075 333.673582 
L 814.014025 333.360784 
L 823.538975 336.159222 
L 833.063925 338.935745 
L 842.588875 338.810322 
L 852.113825 339.251859 
L 861.638775 340.540749 
L 871.163725 341.262805 
L 880.688675 343.024939 
L 890.213625 345.060711 
L 899.738575 346.024195 
L 909.263525 346.822385 
L 918.788475 347.849354 
L 928.313425 348.875055 
L 937.838375 349.522175 
L 947.363325 350.158053 
L 956.888275 351.552193 
L 966.413225 352.944105 
L 975.938175 353.071395 
L 985.463125 353.196093 
" clip-path="url(#p5ffbc0cf5e)" style="fill: none; stroke: #d9534f; stroke-linecap: square"/>
   </g>
   <g id="line2d_7">
    <path d="M 32.968125 353.210538 
L 42.493075 353.201835 
L 52.018025 353.192741 
L 61.542975 353.171443 
L 71.067925 353.149378 
L 80.592875 353.114733 
L 90.117825 353.077241 
L 99.642775 353.03505 
L 109.167725 352.993779 
L 118.692675 352.937975 
L 128.217625 352.87881 
L 137.742575 352.78875 
L 147.267525 352.697924 
L 156.792475 352.527764 
L 166.317425 352.339904 
L 175.842375 352.008873 
L 185.367325 351.658162 
L 194.892275 351.08104 
L 204.417225 350.478394 
L 213.942175 349.564676 
L 223.467125 348.627945 
L 232.992075 347.337503 
L 242.517025 346.000352 
L 252.041975 344.265402 
L 261.566925 342.493449 
L 271.091875 340.660462 
L 280.616825 337.545541 
L 290.141775 334.957559 
L 299.666725 332.187296 
L 309.191675 329.274015 
L 318.716625 326.117685 
L 328.241575 322.805824 
L 337.766525 319.530521 
L 347.291475 316.15248 
L 356.816425 312.67562 
L 366.341375 309.204842 
L 375.866325 305.745138 
L 385.391275 302.36626 
L 394.916225 299.219985 
L 404.441175 295.891667 
L 413.966125 293.020535 
L 423.491075 289.986455 
L 433.016025 285.875944 
L 442.540975 283.187902 
L 452.065925 283.875698 
L 461.590875 284.679565 
L 471.115825 283.503117 
L 480.640775 281.340256 
L 490.165725 280.345224 
L 499.690675 280.562694 
L 509.215625 280.290912 
L 518.740575 280.222123 
L 528.265525 280.231217 
L 537.790475 279.864117 
L 547.315425 279.96963 
L 556.840375 277.482057 
L 566.365325 269.366604 
L 575.890275 260.170453 
L 585.415225 256.710833 
L 594.940175 260.097898 
L 604.465125 265.086742 
L 613.990075 266.660486 
L 623.515025 267.612992 
L 633.039975 272.167244 
L 642.564925 276.575856 
L 652.089875 269.788015 
L 661.614825 250.447992 
L 671.139775 246.434291 
L 680.664725 275.075462 
L 690.189675 298.923934 
L 699.714625 299.890193 
L 709.239575 305.769016 
L 718.764525 317.678342 
L 728.289475 322.873889 
L 737.814425 323.026391 
L 747.339375 323.484275 
L 756.864325 324.691352 
L 766.389275 325.097672 
L 775.914225 325.234986 
L 785.439175 326.04121 
L 794.964125 327.26865 
L 804.489075 328.64678 
L 814.014025 329.883816 
L 823.538975 330.657613 
L 833.063925 331.342953 
L 842.588875 334.322053 
L 852.113825 337.298572 
L 861.638775 339.388891 
L 871.163725 341.343194 
L 880.688675 342.161358 
L 890.213625 343.008546 
L 899.738575 343.882904 
L 909.263525 344.740302 
L 918.788475 346.901266 
L 928.313425 349.041908 
L 937.838375 348.972463 
L 947.363325 348.907886 
L 956.888275 350.133973 
L 966.413225 350.902344 
L 975.938175 349.717053 
L 985.463125 349.005463 
" clip-path="url(#p5ffbc0cf5e)" style="fill: none; stroke: #d9534f; stroke-linecap: square"/>
   </g>
   <g id="line2d_8">
    <path d="M 32.968125 352.960972 
L 42.493075 353.023281 
L 52.018025 353.084973 
L 61.542975 353.115219 
L 71.067925 353.147214 
L 80.592875 353.142249 
L 90.117825 353.134999 
L 99.642775 353.11421 
L 109.167725 353.092985 
L 118.692675 353.044091 
L 128.217625 352.993998 
L 137.742575 352.903348 
L 147.267525 352.810827 
L 156.792475 352.646595 
L 166.317425 352.46394 
L 175.842375 352.187833 
L 185.367325 351.896788 
L 194.892275 351.349259 
L 204.417225 350.767786 
L 213.942175 349.868551 
L 223.467125 348.963388 
L 232.992075 347.723149 
L 242.517025 346.447767 
L 252.041975 344.792976 
L 261.566925 343.084887 
L 271.091875 341.351853 
L 280.616825 338.59992 
L 290.141775 336.244149 
L 299.666725 333.44758 
L 309.191675 330.570571 
L 318.716625 327.402663 
L 328.241575 323.881053 
L 337.766525 320.321734 
L 347.291475 316.744384 
L 356.816425 313.004001 
L 366.341375 309.36107 
L 375.866325 305.334472 
L 385.391275 301.116556 
L 394.916225 297.391716 
L 404.441175 293.374218 
L 413.966125 289.905324 
L 423.491075 286.602153 
L 433.016025 283.47916 
L 442.540975 281.287397 
L 452.065925 278.804029 
L 461.590875 275.908517 
L 471.115825 271.995968 
L 480.640775 265.713539 
L 490.165725 256.889446 
L 499.690675 253.110826 
L 509.215625 258.982849 
L 518.740575 263.101867 
L 528.265525 261.893411 
L 537.790475 257.095332 
L 547.315425 249.848334 
L 556.840375 248.259472 
L 566.365325 250.02923 
L 575.890275 246.133917 
L 585.415225 234.299187 
L 594.940175 227.796135 
L 604.465125 240.031678 
L 613.990075 255.766932 
L 623.515025 264.560891 
L 633.039975 270.83162 
L 642.564925 274.450054 
L 652.089875 279.438352 
L 661.614825 289.366144 
L 671.139775 299.685604 
L 680.664725 307.041675 
L 690.189675 312.725642 
L 699.714625 317.424923 
L 709.239575 321.495742 
L 718.764525 324.998681 
L 728.289475 328.099989 
L 737.814425 330.843215 
L 747.339375 333.148343 
L 756.864325 334.304163 
L 766.389275 335.45931 
L 775.914225 336.513397 
L 785.439175 337.657035 
L 794.964125 338.738511 
L 804.489075 339.099429 
L 814.014025 339.339372 
L 823.538975 341.08396 
L 833.063925 342.941914 
L 842.588875 343.227782 
L 852.113825 343.67425 
L 861.638775 344.510404 
L 871.163725 345.086027 
L 880.688675 346.170764 
L 890.213625 347.388993 
L 899.738575 347.692455 
L 909.263525 347.917616 
L 918.788475 348.918853 
L 928.313425 349.91981 
L 937.838375 350.382281 
L 947.363325 350.838006 
L 956.888275 351.920266 
L 966.413225 353.002134 
L 975.938175 353.101513 
L 985.463125 353.199066 
" clip-path="url(#p5ffbc0cf5e)" style="fill: none; stroke: #d9534f; stroke-linecap: square"/>
   </g>
   <g id="line2d_9">
    <path d="M 32.968125 353.202232 
L 42.493075 353.18677 
L 52.018025 353.170345 
L 61.542975 353.124443 
L 71.067925 353.075896 
L 80.592875 353.004437 
L 90.117825 352.929371 
L 99.642775 352.851078 
L 109.167725 352.771496 
L 118.692675 352.68796 
L 128.217625 352.600972 
L 137.742575 352.507408 
L 147.267525 352.415693 
L 156.792475 352.289671 
L 166.317425 352.15147 
L 175.842375 351.920568 
L 185.367325 351.675437 
L 194.892275 351.271087 
L 204.417225 350.857124 
L 213.942175 350.252795 
L 223.467125 349.621498 
L 232.992075 348.707839 
L 242.517025 347.767695 
L 252.041975 346.573052 
L 261.566925 345.345515 
L 271.091875 344.002701 
L 280.616825 341.676584 
L 290.141775 339.671965 
L 299.666725 337.449529 
L 309.191675 335.058284 
L 318.716625 332.385495 
L 328.241575 329.508515 
L 337.766525 326.471194 
L 347.291475 323.241346 
L 356.816425 319.754064 
L 366.341375 316.125143 
L 375.866325 312.342503 
L 385.391275 308.498286 
L 394.916225 304.952946 
L 404.441175 301.034223 
L 413.966125 297.304007 
L 423.491075 293.742141 
L 433.016025 290.189787 
L 442.540975 287.435411 
L 452.065925 285.790919 
L 461.590875 284.144725 
L 471.115825 281.704518 
L 480.640775 278.990477 
L 490.165725 276.918477 
L 499.690675 275.303978 
L 509.215625 273.727438 
L 518.740575 272.114822 
L 528.265525 270.302585 
L 537.790475 268.467414 
L 547.315425 266.925259 
L 556.840375 264.023753 
L 566.365325 258.60759 
L 575.890275 253.756174 
L 585.415225 251.85035 
L 594.940175 251.760786 
L 604.465125 252.784792 
L 613.990075 254.722311 
L 623.515025 257.050075 
L 633.039975 261.137888 
L 642.564925 265.68821 
L 652.089875 264.332041 
L 661.614825 257.123797 
L 671.139775 257.514008 
L 680.664725 276.290944 
L 690.189675 295.77039 
L 699.714625 301.135092 
L 709.239575 305.313623 
L 718.764525 313.17844 
L 728.289475 318.560442 
L 737.814425 320.46361 
L 747.339375 322.570936 
L 756.864325 324.523592 
L 766.389275 326.308121 
L 775.914225 327.895372 
L 785.439175 329.072861 
L 794.964125 330.510135 
L 804.489075 332.000461 
L 814.014025 333.396102 
L 823.538975 335.108792 
L 833.063925 336.724679 
L 842.588875 338.57715 
L 852.113825 340.4017 
L 861.638775 342.204637 
L 871.163725 343.900331 
L 880.688675 345.034685 
L 890.213625 346.167324 
L 899.738575 346.989245 
L 909.263525 347.805015 
L 918.788475 348.942506 
L 928.313425 350.047841 
L 937.838375 350.017445 
L 947.363325 349.985111 
L 956.888275 350.544075 
L 966.413225 349.932497 
L 975.938175 346.947981 
L 985.463125 345.170622 
" clip-path="url(#p5ffbc0cf5e)" style="fill: none; stroke: #f0ad4e; stroke-linecap: square"/>
   </g>
   <g id="line2d_10">
    <path d="M 32.968125 353.213219 
L 42.493075 353.215681 
L 52.018025 353.217597 
L 61.542975 353.216795 
L 71.067925 353.216276 
L 80.592875 353.215153 
L 90.117825 353.21319 
L 99.642775 353.21019 
L 109.167725 353.206066 
L 118.692675 353.201952 
L 128.217625 353.196413 
L 137.742575 353.188091 
L 147.267525 353.175315 
L 156.792475 353.15615 
L 166.317425 353.125304 
L 175.842375 353.069246 
L 185.367325 352.984087 
L 194.892275 352.849125 
L 204.417225 352.623626 
L 213.942175 352.263921 
L 223.467125 351.715931 
L 232.992075 350.930186 
L 242.517025 349.838189 
L 252.041975 348.353603 
L 261.566925 346.452573 
L 271.091875 343.986135 
L 280.616825 340.919839 
L 290.141775 337.194181 
L 299.666725 332.84132 
L 309.191675 328.237729 
L 318.716625 323.485682 
L 328.241575 318.20282 
L 337.766525 312.902633 
L 347.291475 307.924134 
L 356.816425 302.922065 
L 366.341375 298.15427 
L 375.866325 293.697529 
L 385.391275 289.447859 
L 394.916225 285.703415 
L 404.441175 282.865127 
L 413.966125 280.409975 
L 423.491075 278.362981 
L 433.016025 276.94437 
L 442.540975 274.687909 
L 452.065925 270.635968 
L 461.590875 264.605462 
L 471.115825 261.198247 
L 480.640775 260.945592 
L 490.165725 257.374032 
L 499.690675 255.761363 
L 509.215625 259.507921 
L 518.740575 263.273143 
L 528.265525 265.542531 
L 537.790475 267.40343 
L 547.315425 267.57505 
L 556.840375 267.348089 
L 566.365325 269.582838 
L 575.890275 274.434612 
L 585.415225 274.392056 
L 594.940175 269.48947 
L 604.465125 270.054915 
L 613.990075 267.93101 
L 623.515025 262.47882 
L 633.039975 243.028025 
L 642.564925 218.551967 
L 652.089875 240.074978 
L 661.614825 282.32697 
L 671.139775 302.124195 
L 680.664725 310.242608 
L 690.189675 317.828762 
L 699.714625 323.87078 
L 709.239575 326.254682 
L 718.764525 327.743354 
L 728.289475 329.800718 
L 737.814425 330.668197 
L 747.339375 332.300153 
L 756.864325 333.846365 
L 766.389275 332.601063 
L 775.914225 333.405143 
L 785.439175 336.155497 
L 794.964125 338.380018 
L 804.489075 339.255716 
L 814.014025 340.306789 
L 823.538975 341.247151 
L 833.063925 342.38344 
L 842.588875 343.285313 
L 852.113825 343.924736 
L 861.638775 344.788431 
L 871.163725 345.633075 
L 880.688675 346.76324 
L 890.213625 347.881006 
L 899.738575 349.497006 
L 909.263525 351.147249 
L 918.788475 352.042753 
L 928.313425 352.336521 
L 937.838375 352.444958 
L 947.363325 352.519388 
L 956.888275 352.589931 
L 966.413225 352.634157 
L 975.938175 352.762249 
L 985.463125 352.921131 
" clip-path="url(#p5ffbc0cf5e)" style="fill: none; stroke: #d9534f; stroke-linecap: square"/>
   </g>
   <g id="line2d_11">
    <path d="M 32.968125 353.219893 
L 42.493075 353.220657 
L 52.018025 353.221142 
L 61.542975 353.220903 
L 71.067925 353.220665 
L 80.592875 353.219965 
L 90.117825 353.218995 
L 99.642775 353.217691 
L 109.167725 353.215958 
L 118.692675 353.213725 
L 128.217625 353.210855 
L 137.742575 353.207246 
L 147.267525 353.20122 
L 156.792475 353.191681 
L 166.317425 353.17664 
L 175.842375 353.147235 
L 185.367325 353.098903 
L 194.892275 353.026292 
L 204.417225 352.902726 
L 213.942175 352.70422 
L 223.467125 352.399558 
L 232.992075 351.945731 
L 242.517025 351.309926 
L 252.041975 350.443602 
L 261.566925 349.330766 
L 271.091875 347.890365 
L 280.616825 346.087111 
L 290.141775 343.962373 
L 299.666725 341.549809 
L 309.191675 338.895009 
L 318.716625 336.072858 
L 328.241575 333.116122 
L 337.766525 330.183743 
L 347.291475 327.34171 
L 356.816425 324.639953 
L 366.341375 322.109888 
L 375.866325 319.635923 
L 385.391275 317.216451 
L 394.916225 315.115982 
L 404.441175 313.611723 
L 413.966125 312.149389 
L 423.491075 310.864479 
L 433.016025 309.803648 
L 442.540975 304.265264 
L 452.065925 291.545629 
L 461.590875 269.902819 
L 471.115825 259.491554 
L 480.640775 261.363007 
L 490.165725 250.977951 
L 499.690675 248.052536 
L 509.215625 260.63843 
L 518.740575 266.007284 
L 528.265525 262.889556 
L 537.790475 260.278296 
L 547.315425 255.649742 
L 556.840375 247.99685 
L 566.365325 246.789909 
L 575.890275 261.920693 
L 585.415225 264.095512 
L 594.940175 255.30848 
L 604.465125 263.722643 
L 613.990075 265.249431 
L 623.515025 259.649247 
L 633.039975 254.769618 
L 642.564925 246.808343 
L 652.089875 258.329407 
L 661.614825 282.923023 
L 671.139775 296.443232 
L 680.664725 306.246665 
L 690.189675 313.936371 
L 699.714625 315.721834 
L 709.239575 315.292897 
L 718.764525 312.062772 
L 728.289475 313.555441 
L 737.814425 312.519611 
L 747.339375 317.26557 
L 756.864325 319.679661 
L 766.389275 312.780997 
L 775.914225 315.087452 
L 785.439175 319.869533 
L 794.964125 322.206832 
L 804.489075 320.995144 
L 814.014025 322.995425 
L 823.538975 325.16883 
L 833.063925 326.525222 
L 842.588875 326.596536 
L 852.113825 327.192499 
L 861.638775 331.049001 
L 871.163725 331.762226 
L 880.688675 331.586758 
L 890.213625 334.956675 
L 899.738575 340.948409 
L 909.263525 347.065522 
L 918.788475 350.460829 
L 928.313425 351.42257 
L 937.838375 351.82323 
L 947.363325 352.141216 
L 956.888275 352.308663 
L 966.413225 352.457016 
L 975.938175 352.695237 
L 985.463125 352.862287 
" clip-path="url(#p5ffbc0cf5e)" style="fill: none; stroke: #f0ad4e; stroke-linecap: square"/>
   </g>
   <g id="line2d_12">
    <path d="M 32.968125 353.211356 
L 42.493075 353.214205 
L 52.018025 353.216707 
L 61.542975 353.216428 
L 71.067925 353.216208 
L 80.592875 353.215168 
L 90.117825 353.213596 
L 99.642775 353.211305 
L 109.167725 353.20691 
L 118.692675 353.201906 
L 128.217625 353.196462 
L 137.742575 353.186868 
L 147.267525 353.171299 
L 156.792475 353.147403 
L 166.317425 353.11098 
L 175.842375 353.049275 
L 185.367325 352.942423 
L 194.892275 352.762532 
L 204.417225 352.48108 
L 213.942175 352.040168 
L 223.467125 351.37049 
L 232.992075 350.408862 
L 242.517025 349.05211 
L 252.041975 347.238723 
L 261.566925 344.937985 
L 271.091875 341.944991 
L 280.616825 338.218771 
L 290.141775 333.950163 
L 299.666725 329.18182 
L 309.191675 323.967594 
L 318.716625 318.434513 
L 328.241575 312.672768 
L 337.766525 306.905098 
L 347.291475 301.390867 
L 356.816425 296.132627 
L 366.341375 291.192583 
L 375.866325 286.435355 
L 385.391275 281.863513 
L 394.916225 277.872409 
L 404.441175 274.856272 
L 413.966125 272.161618 
L 423.491075 269.641116 
L 433.016025 268.223741 
L 442.540975 265.829168 
L 452.065925 261.862848 
L 461.590875 257.474211 
L 471.115825 254.544317 
L 480.640775 253.464055 
L 490.165725 247.828518 
L 499.690675 243.599968 
L 509.215625 246.247946 
L 518.740575 252.448946 
L 528.265525 259.02093 
L 537.790475 263.047738 
L 547.315425 265.816244 
L 556.840375 269.326369 
L 566.365325 274.03048 
L 575.890275 278.291286 
L 585.415225 279.019051 
L 594.940175 276.146365 
L 604.465125 276.288769 
L 613.990075 274.952118 
L 623.515025 271.880268 
L 633.039975 255.891948 
L 642.564925 234.834781 
L 652.089875 253.145369 
L 661.614825 290.843577 
L 671.139775 309.826683 
L 680.664725 316.573208 
L 690.189675 323.18699 
L 699.714625 329.244396 
L 709.239575 331.792969 
L 718.764525 333.550035 
L 728.289475 335.337167 
L 737.814425 336.535481 
L 747.339375 337.354595 
L 756.864325 338.272835 
L 766.389275 337.838524 
L 775.914225 338.145198 
L 785.439175 340.483349 
L 794.964125 342.549033 
L 804.489075 343.608028 
L 814.014025 344.529125 
L 823.538975 345.301783 
L 833.063925 346.200429 
L 842.588875 346.997845 
L 852.113825 347.670144 
L 861.638775 348.201611 
L 871.163725 348.997928 
L 880.688675 350.10862 
L 890.213625 350.768087 
L 899.738575 351.363803 
L 909.263525 352.022611 
L 918.788475 352.430803 
L 928.313425 352.577611 
L 937.838375 352.630711 
L 947.363325 352.658909 
L 956.888275 352.692695 
L 966.413225 352.706667 
L 975.938175 352.813367 
L 985.463125 352.967342 
" clip-path="url(#p5ffbc0cf5e)" style="fill: none; stroke: #d9534f; stroke-linecap: square"/>
   </g>
   <g id="line2d_13">
    <path d="M 32.968125 353.217265 
L 42.493075 353.218207 
L 52.018025 353.218638 
L 61.542975 353.21826 
L 71.067925 353.218119 
L 80.592875 353.216975 
L 90.117825 353.214828 
L 99.642775 353.212003 
L 109.167725 353.20844 
L 118.692675 353.203759 
L 128.217625 353.197564 
L 137.742575 353.188624 
L 147.267525 353.176815 
L 156.792475 353.158355 
L 166.317425 353.126642 
L 175.842375 353.070767 
L 185.367325 352.978129 
L 194.892275 352.828014 
L 204.417225 352.596409 
L 213.942175 352.225979 
L 223.467125 351.681175 
L 232.992075 350.886103 
L 242.517025 349.763356 
L 252.041975 348.276066 
L 261.566925 346.342329 
L 271.091875 343.858447 
L 280.616825 340.750339 
L 290.141775 337.10934 
L 299.666725 333.070484 
L 309.191675 328.688511 
L 318.716625 324.059033 
L 328.241575 319.186978 
L 337.766525 314.305428 
L 347.291475 309.75546 
L 356.816425 305.433885 
L 366.341375 301.083149 
L 375.866325 296.760993 
L 385.391275 292.578261 
L 394.916225 288.731422 
L 404.441175 285.715415 
L 413.966125 282.745067 
L 423.491075 279.679415 
L 433.016025 277.582796 
L 442.540975 274.106114 
L 452.065925 268.213454 
L 461.590875 261.262862 
L 471.115825 255.930501 
L 480.640775 253.19526 
L 490.165725 244.359653 
L 499.690675 236.981665 
L 509.215625 239.053215 
L 518.740575 246.011313 
L 528.265525 252.915568 
L 537.790475 256.4497 
L 547.315425 258.635051 
L 556.840375 261.828309 
L 566.365325 266.690254 
L 575.890275 271.189891 
L 585.415225 272.089392 
L 594.940175 269.160709 
L 604.465125 269.56601 
L 613.990075 268.612077 
L 623.515025 266.612258 
L 633.039975 257.271478 
L 642.564925 242.00929 
L 652.089875 256.153254 
L 661.614825 287.971775 
L 671.139775 304.580518 
L 680.664725 310.985795 
L 690.189675 317.926858 
L 699.714625 324.114556 
L 709.239575 327.178651 
L 718.764525 329.425314 
L 728.289475 331.608386 
L 737.814425 333.167795 
L 747.339375 334.515063 
L 756.864325 335.768047 
L 766.389275 334.841646 
L 775.914225 334.883082 
L 785.439175 337.772626 
L 794.964125 340.473832 
L 804.489075 341.736521 
L 814.014025 342.586342 
L 823.538975 343.420958 
L 833.063925 344.431277 
L 842.588875 345.19359 
L 852.113825 345.969902 
L 861.638775 346.476738 
L 871.163725 347.320601 
L 880.688675 348.775246 
L 890.213625 349.728986 
L 899.738575 350.577575 
L 909.263525 351.57144 
L 918.788475 352.27434 
L 928.313425 352.541599 
L 937.838375 352.669161 
L 947.363325 352.761923 
L 956.888275 352.846334 
L 966.413225 352.863519 
L 975.938175 352.958304 
L 985.463125 353.087301 
" clip-path="url(#p5ffbc0cf5e)" style="fill: none; stroke: #f0ad4e; stroke-linecap: square"/>
   </g>
   <g id="line2d_14">
    <path d="M 32.968125 353.211432 
L 42.493075 353.197587 
L 52.018025 353.181567 
L 61.542975 353.17752 
L 71.067925 353.17485 
L 80.592875 353.162452 
L 90.117825 353.149537 
L 99.642775 353.132246 
L 109.167725 353.114544 
L 118.692675 353.076009 
L 128.217625 353.035699 
L 137.742575 352.947398 
L 147.267525 352.858732 
L 156.792475 352.708818 
L 166.317425 352.539073 
L 175.842375 352.239551 
L 185.367325 351.925291 
L 194.892275 351.352831 
L 204.417225 350.746872 
L 213.942175 349.851366 
L 223.467125 348.941403 
L 232.992075 347.684034 
L 242.517025 346.406562 
L 252.041975 344.727153 
L 261.566925 342.969146 
L 271.091875 341.203011 
L 280.616825 338.40196 
L 290.141775 335.974499 
L 299.666725 333.162956 
L 309.191675 330.374667 
L 318.716625 327.462154 
L 328.241575 324.281538 
L 337.766525 321.03725 
L 347.291475 317.876042 
L 356.816425 314.725961 
L 366.341375 311.52009 
L 375.866325 307.619594 
L 385.391275 303.553951 
L 394.916225 300.525048 
L 404.441175 297.593985 
L 413.966125 295.362136 
L 423.491075 293.5065 
L 433.016025 291.608083 
L 442.540975 290.306569 
L 452.065925 288.711767 
L 461.590875 286.516347 
L 471.115825 279.148451 
L 480.640775 265.616227 
L 490.165725 240.766538 
L 499.690675 228.365835 
L 509.215625 254.825394 
L 518.740575 275.254447 
L 528.265525 272.552002 
L 537.790475 262.024192 
L 547.315425 246.425982 
L 556.840375 245.733685 
L 566.365325 253.84555 
L 575.890275 247.209215 
L 585.415225 222.426936 
L 594.940175 208.738612 
L 604.465125 230.847286 
L 613.990075 251.371651 
L 623.515025 254.601435 
L 633.039975 258.059648 
L 642.564925 252.567632 
L 652.089875 251.805866 
L 661.614825 273.812441 
L 671.139775 298.662684 
L 680.664725 311.610473 
L 690.189675 318.359106 
L 699.714625 322.343258 
L 709.239575 326.34096 
L 718.764525 329.509414 
L 728.289475 330.614164 
L 737.814425 332.879667 
L 747.339375 336.029383 
L 756.864325 337.505206 
L 766.389275 337.781697 
L 775.914225 338.109213 
L 785.439175 339.889193 
L 794.964125 341.659762 
L 804.489075 342.002782 
L 814.014025 342.167469 
L 823.538975 343.431649 
L 833.063925 344.84853 
L 842.588875 344.998797 
L 852.113825 345.266936 
L 861.638775 346.220879 
L 871.163725 346.928619 
L 880.688675 348.068375 
L 890.213625 349.330579 
L 899.738575 349.544363 
L 909.263525 349.689489 
L 918.788475 350.729734 
L 928.313425 351.773107 
L 937.838375 352.106599 
L 947.363325 352.434304 
L 956.888275 352.80213 
L 966.413225 353.169945 
L 975.938175 353.189271 
L 985.463125 353.207574 
" clip-path="url(#p5ffbc0cf5e)" style="fill: none; stroke: #d9534f; stroke-linecap: square"/>
   </g>
   <g id="line2d_15">
    <path d="M 32.968125 353.210639 
L 42.493075 353.199236 
L 52.018025 353.186904 
L 61.542975 353.158043 
L 71.067925 353.127841 
L 80.592875 353.091339 
L 90.117825 353.052579 
L 99.642775 353.005966 
L 109.167725 352.959765 
L 118.692675 352.911542 
L 128.217625 352.861473 
L 137.742575 352.791019 
L 147.267525 352.718907 
L 156.792475 352.585323 
L 166.317425 352.437408 
L 175.842375 352.177129 
L 185.367325 351.900133 
L 194.892275 351.413433 
L 204.417225 350.912484 
L 213.942175 350.200102 
L 223.467125 349.465443 
L 232.992075 348.41216 
L 242.517025 347.318812 
L 252.041975 345.89158 
L 261.566925 344.425389 
L 271.091875 342.848362 
L 280.616825 340.22313 
L 290.141775 338.045462 
L 299.666725 335.598064 
L 309.191675 333.026639 
L 318.716625 330.312672 
L 328.241575 327.426573 
L 337.766525 324.445051 
L 347.291475 321.408557 
L 356.816425 318.291369 
L 366.341375 315.057773 
L 375.866325 311.740015 
L 385.391275 308.59379 
L 394.916225 305.788585 
L 404.441175 302.512984 
L 413.966125 299.563532 
L 423.491075 296.803634 
L 433.016025 293.485313 
L 442.540975 291.568512 
L 452.065925 291.908191 
L 461.590875 291.915022 
L 471.115825 290.659322 
L 480.640775 288.806169 
L 490.165725 287.456645 
L 499.690675 287.138162 
L 509.215625 286.985944 
L 518.740575 286.826379 
L 528.265525 285.830806 
L 537.790475 284.288236 
L 547.315425 283.583284 
L 556.840375 277.062849 
L 566.365325 260.859154 
L 575.890275 246.500231 
L 585.415225 240.845111 
L 594.940175 240.33437 
L 604.465125 244.046801 
L 613.990075 247.833073 
L 623.515025 248.528044 
L 633.039975 250.510232 
L 642.564925 250.143654 
L 652.089875 238.124009 
L 661.614825 212.300854 
L 671.139775 198.389472 
L 680.664725 235.312173 
L 690.189675 284.685015 
L 699.714625 297.613356 
L 709.239575 305.153452 
L 718.764525 321.430599 
L 728.289475 329.477616 
L 737.814425 330.790426 
L 747.339375 332.057764 
L 756.864325 333.300238 
L 766.389275 334.146544 
L 775.914225 334.629918 
L 785.439175 335.386749 
L 794.964125 336.480344 
L 804.489075 337.342027 
L 814.014025 338.139499 
L 823.538975 338.542908 
L 833.063925 338.875428 
L 842.588875 341.009727 
L 852.113825 343.126757 
L 861.638775 345.183055 
L 871.163725 347.155473 
L 880.688675 347.832363 
L 890.213625 348.513485 
L 899.738575 348.730208 
L 909.263525 348.93963 
L 918.788475 350.141851 
L 928.313425 351.331622 
L 937.838375 351.65469 
L 947.363325 351.969565 
L 956.888275 352.018811 
L 966.413225 351.306453 
L 975.938175 349.085782 
L 985.463125 347.645912 
" clip-path="url(#p5ffbc0cf5e)" style="fill: none; stroke: #d9534f; stroke-linecap: square"/>
   </g>
   <g id="line2d_16">
    <path d="M 32.968125 353.215411 
L 42.493075 353.217504 
L 52.018025 353.218801 
L 61.542975 353.217968 
L 71.067925 353.217437 
L 80.592875 353.215868 
L 90.117825 353.214099 
L 99.642775 353.212058 
L 109.167725 353.208926 
L 118.692675 353.205904 
L 128.217625 353.201763 
L 137.742575 353.195809 
L 147.267525 353.18726 
L 156.792475 353.175086 
L 166.317425 353.153708 
L 175.842375 353.116501 
L 185.367325 353.052691 
L 194.892275 352.947326 
L 204.417225 352.776721 
L 213.942175 352.501481 
L 223.467125 352.063352 
L 232.992075 351.427139 
L 242.517025 350.539532 
L 252.041975 349.28611 
L 261.566925 347.66181 
L 271.091875 345.5279 
L 280.616825 342.843082 
L 290.141775 339.701078 
L 299.666725 336.109412 
L 309.191675 332.139337 
L 318.716625 327.884582 
L 328.241575 323.400284 
L 337.766525 318.907334 
L 347.291475 314.382394 
L 356.816425 309.699518 
L 366.341375 305.056147 
L 375.866325 300.531642 
L 385.391275 296.08772 
L 394.916225 291.978138 
L 404.441175 288.307268 
L 413.966125 284.912169 
L 423.491075 282.248339 
L 433.016025 280.194259 
L 442.540975 277.907858 
L 452.065925 274.85225 
L 461.590875 270.732713 
L 471.115825 268.122862 
L 480.640775 267.240517 
L 490.165725 265.209739 
L 499.690675 264.111247 
L 509.215625 265.065995 
L 518.740575 265.326666 
L 528.265525 265.046327 
L 537.790475 265.291913 
L 547.315425 264.657225 
L 556.840375 264.160393 
L 566.365325 265.297565 
L 575.890275 268.094373 
L 585.415225 267.394069 
L 594.940175 262.560544 
L 604.465125 261.572797 
L 613.990075 259.142556 
L 623.515025 254.563644 
L 633.039975 236.454467 
L 642.564925 211.67095 
L 652.089875 233.210267 
L 661.614825 278.382015 
L 671.139775 299.331588 
L 680.664725 307.105149 
L 690.189675 314.413706 
L 699.714625 320.68652 
L 709.239575 323.718796 
L 718.764525 325.515749 
L 728.289475 327.787825 
L 737.814425 328.973863 
L 747.339375 329.139132 
L 756.864325 329.682818 
L 766.389275 328.33689 
L 775.914225 328.430811 
L 785.439175 332.144592 
L 794.964125 335.612528 
L 804.489075 337.309076 
L 814.014025 338.378916 
L 823.538975 339.232146 
L 833.063925 340.361212 
L 842.588875 341.38655 
L 852.113825 342.428969 
L 861.638775 343.202869 
L 871.163725 344.667154 
L 880.688675 346.746826 
L 890.213625 347.909939 
L 899.738575 349.395557 
L 909.263525 351.071066 
L 918.788475 351.953035 
L 928.313425 352.296691 
L 937.838375 352.468276 
L 947.363325 352.598961 
L 956.888275 352.704135 
L 966.413225 352.748836 
L 975.938175 352.875233 
L 985.463125 353.014887 
" clip-path="url(#p5ffbc0cf5e)" style="fill: none; stroke: #d9534f; stroke-linecap: square"/>
   </g>
   <g id="line2d_17">
    <path d="M 32.968125 353.22009 
L 42.493075 353.220739 
L 52.018025 353.220944 
L 61.542975 353.220199 
L 71.067925 353.219755 
L 80.592875 353.219045 
L 90.117825 353.21813 
L 99.642775 353.216813 
L 109.167725 353.214491 
L 118.692675 353.211856 
L 128.217625 353.209145 
L 137.742575 353.204939 
L 147.267525 353.198275 
L 156.792475 353.188832 
L 166.317425 353.175517 
L 175.842375 353.153204 
L 185.367325 353.119365 
L 194.892275 353.065247 
L 204.417225 352.976675 
L 213.942175 352.839735 
L 223.467125 352.630453 
L 232.992075 352.333084 
L 242.517025 351.916801 
L 252.041975 351.330653 
L 261.566925 350.575002 
L 271.091875 349.518835 
L 280.616825 348.183427 
L 290.141775 346.573018 
L 299.666725 344.567438 
L 309.191675 342.455411 
L 318.716625 340.220652 
L 328.241575 337.647892 
L 337.766525 334.986888 
L 347.291475 332.337928 
L 356.816425 329.500389 
L 366.341375 326.54134 
L 375.866325 323.569229 
L 385.391275 320.694676 
L 394.916225 318.1368 
L 404.441175 315.738732 
L 413.966125 313.181553 
L 423.491075 310.808639 
L 433.016025 308.872819 
L 442.540975 306.689727 
L 452.065925 303.390744 
L 461.590875 297.851076 
L 471.115825 293.664897 
L 480.640775 290.996792 
L 490.165725 287.877069 
L 499.690675 288.037449 
L 509.215625 289.789741 
L 518.740575 289.407072 
L 528.265525 287.900953 
L 537.790475 286.551363 
L 547.315425 284.302757 
L 556.840375 282.75014 
L 566.365325 282.343737 
L 575.890275 283.262185 
L 585.415225 273.209213 
L 594.940175 248.582664 
L 604.465125 231.886648 
L 613.990075 200.339918 
L 623.515025 165.729337 
L 633.039975 119.688043 
L 642.564925 50.397156 
L 652.089875 92.717742 
L 661.614825 215.142734 
L 671.139775 277.818838 
L 680.664725 293.679201 
L 690.189675 309.739505 
L 699.714625 324.399673 
L 709.239575 327.455282 
L 718.764525 328.39362 
L 728.289475 330.57777 
L 737.814425 332.579663 
L 747.339375 333.098051 
L 756.864325 333.175295 
L 766.389275 331.079341 
L 775.914225 330.469657 
L 785.439175 333.66532 
L 794.964125 337.008807 
L 804.489075 338.366399 
L 814.014025 339.035213 
L 823.538975 339.832998 
L 833.063925 340.770462 
L 842.588875 341.12397 
L 852.113825 341.653064 
L 861.638775 342.160466 
L 871.163725 343.629127 
L 880.688675 346.142485 
L 890.213625 347.658661 
L 899.738575 349.141088 
L 909.263525 350.873948 
L 918.788475 351.95826 
L 928.313425 352.355445 
L 937.838375 352.552635 
L 947.363325 352.70231 
L 956.888275 352.854681 
L 966.413225 352.8967 
L 975.938175 352.976559 
L 985.463125 353.071808 
" clip-path="url(#p5ffbc0cf5e)" style="fill: none; stroke: #d9534f; stroke-linecap: square"/>
   </g>
   <g id="line2d_18">
    <path d="M 32.968125 353.221525 
L 42.493075 353.222102 
L 52.018025 353.222283 
L 61.542975 353.221855 
L 71.067925 353.221483 
L 80.592875 353.220873 
L 90.117825 353.220188 
L 99.642775 353.219298 
L 109.167725 353.218572 
L 118.692675 353.217574 
L 128.217625 353.216114 
L 137.742575 353.213599 
L 147.267525 353.209541 
L 156.792475 353.204072 
L 166.317425 353.194934 
L 175.842375 353.179783 
L 185.367325 353.154025 
L 194.892275 353.109619 
L 204.417225 353.042828 
L 213.942175 352.933842 
L 223.467125 352.755549 
L 232.992075 352.503859 
L 242.517025 352.158904 
L 252.041975 351.674783 
L 261.566925 351.050409 
L 271.091875 350.226215 
L 280.616825 349.189195 
L 290.141775 347.951548 
L 299.666725 346.535361 
L 309.191675 345.047748 
L 318.716625 343.463512 
L 328.241575 341.763098 
L 337.766525 340.080903 
L 347.291475 338.425323 
L 356.816425 336.752927 
L 366.341375 335.072827 
L 375.866325 333.427194 
L 385.391275 331.749387 
L 394.916225 330.184863 
L 404.441175 328.913177 
L 413.966125 327.587839 
L 423.491075 326.483881 
L 433.016025 325.37099 
L 442.540975 319.380709 
L 452.065925 304.89483 
L 461.590875 278.767638 
L 471.115825 266.484787 
L 480.640775 268.209747 
L 490.165725 254.32778 
L 499.690675 250.640514 
L 509.215625 264.114149 
L 518.740575 267.748076 
L 528.265525 260.509179 
L 537.790475 254.896795 
L 547.315425 248.888757 
L 556.840375 238.414135 
L 566.365325 233.532943 
L 575.890275 249.947971 
L 585.415225 252.845726 
L 594.940175 242.758527 
L 604.465125 254.316481 
L 613.990075 258.465673 
L 623.515025 255.062526 
L 633.039975 257.462725 
L 642.564925 252.842493 
L 652.089875 259.505249 
L 661.614825 280.340047 
L 671.139775 290.947937 
L 680.664725 300.476208 
L 690.189675 307.805757 
L 699.714625 307.973657 
L 709.239575 306.979864 
L 718.764525 302.259644 
L 728.289475 302.89192 
L 737.814425 302.106095 
L 747.339375 308.678332 
L 756.864325 311.331993 
L 766.389275 303.292425 
L 775.914225 306.469227 
L 785.439175 312.328293 
L 794.964125 315.197453 
L 804.489075 313.972763 
L 814.014025 316.083588 
L 823.538975 318.736168 
L 833.063925 320.505996 
L 842.588875 320.817169 
L 852.113825 321.865867 
L 861.638775 326.573287 
L 871.163725 327.802925 
L 880.688675 327.322186 
L 890.213625 330.59684 
L 899.738575 338.412094 
L 909.263525 346.545423 
L 918.788475 350.389274 
L 928.313425 351.624513 
L 937.838375 352.154401 
L 947.363325 352.568431 
L 956.888275 352.830348 
L 966.413225 352.954692 
L 975.938175 353.048948 
L 985.463125 353.105346 
" clip-path="url(#p5ffbc0cf5e)" style="fill: none; stroke: #f0ad4e; stroke-linecap: square"/>
   </g>
   <g id="line2d_19">
    <path d="M 32.968125 353.220091 
L 42.493075 353.220683 
L 52.018025 353.221002 
L 61.542975 353.220577 
L 71.067925 353.220471 
L 80.592875 353.220069 
L 90.117825 353.218817 
L 99.642775 353.217314 
L 109.167725 353.215812 
L 118.692675 353.213536 
L 128.217625 353.21019 
L 137.742575 353.206981 
L 147.267525 353.201784 
L 156.792475 353.193461 
L 166.317425 353.180775 
L 175.842375 353.160601 
L 185.367325 353.125891 
L 194.892275 353.066575 
L 204.417225 352.969825 
L 213.942175 352.826119 
L 223.467125 352.62114 
L 232.992075 352.316103 
L 242.517025 351.884438 
L 252.041975 351.298567 
L 261.566925 350.529233 
L 271.091875 349.528123 
L 280.616825 348.273151 
L 290.141775 346.732268 
L 299.666725 344.941802 
L 309.191675 343.035384 
L 318.716625 341.008991 
L 328.241575 338.759183 
L 337.766525 336.500718 
L 347.291475 334.288246 
L 356.816425 331.828861 
L 366.341375 329.192258 
L 375.866325 326.545541 
L 385.391275 323.917557 
L 394.916225 321.436451 
L 404.441175 318.978098 
L 413.966125 316.289834 
L 423.491075 313.906851 
L 433.016025 311.838282 
L 442.540975 308.864921 
L 452.065925 303.812323 
L 461.590875 295.942202 
L 471.115825 290.785472 
L 480.640775 288.977396 
L 490.165725 284.688472 
L 499.690675 282.444552 
L 509.215625 283.64797 
L 518.740575 282.48886 
L 528.265525 279.648477 
L 537.790475 277.282519 
L 547.315425 273.232806 
L 556.840375 269.660547 
L 566.365325 268.953571 
L 575.890275 271.370127 
L 585.415225 263.706335 
L 594.940175 244.935457 
L 604.465125 236.063634 
L 613.990075 221.704968 
L 623.515025 204.1248 
L 633.039975 161.550794 
L 642.564925 99.39581 
L 652.089875 141.024827 
L 661.614825 238.83021 
L 671.139775 281.507757 
L 680.664725 294.799517 
L 690.189675 307.449642 
L 699.714625 318.271979 
L 709.239575 320.981539 
L 718.764525 321.657651 
L 728.289475 324.044488 
L 737.814425 324.889055 
L 747.339375 324.393834 
L 756.864325 324.294034 
L 766.389275 321.275818 
L 775.914225 320.608917 
L 785.439175 325.164366 
L 794.964125 329.371441 
L 804.489075 330.604123 
L 814.014025 331.4712 
L 823.538975 332.637116 
L 833.063925 334.014058 
L 842.588875 334.443887 
L 852.113825 335.156166 
L 861.638775 336.30712 
L 871.163725 338.187818 
L 880.688675 340.725251 
L 890.213625 342.801202 
L 899.738575 345.908687 
L 909.263525 349.314434 
L 918.788475 351.296974 
L 928.313425 352.05108 
L 937.838375 352.409681 
L 947.363325 352.706593 
L 956.888275 352.964886 
L 966.413225 353.019922 
L 975.938175 353.067979 
L 985.463125 353.123197 
" clip-path="url(#p5ffbc0cf5e)" style="fill: none; stroke: #d9534f; stroke-linecap: square"/>
   </g>
   <g id="line2d_20">
    <path d="M 32.968125 353.211901 
L 42.493075 353.191639 
L 52.018025 353.167582 
L 61.542975 353.161189 
L 71.067925 353.158094 
L 80.592875 353.145482 
L 90.117825 353.132052 
L 99.642775 353.101981 
L 109.167725 353.070756 
L 118.692675 353.009928 
L 128.217625 352.94618 
L 137.742575 352.823137 
L 147.267525 352.700503 
L 156.792475 352.483947 
L 166.317425 352.240342 
L 175.842375 351.828237 
L 185.367325 351.395359 
L 194.892275 350.622985 
L 204.417225 349.813081 
L 213.942175 348.632309 
L 223.467125 347.4264 
L 232.992075 345.725399 
L 242.517025 343.985992 
L 252.041975 341.723085 
L 261.566925 339.388679 
L 271.091875 337.101904 
L 280.616825 333.379353 
L 290.141775 330.16277 
L 299.666725 326.681123 
L 309.191675 323.217387 
L 318.716625 319.524031 
L 328.241575 315.621389 
L 337.766525 311.794698 
L 347.291475 308.046426 
L 356.816425 304.338443 
L 366.341375 300.834783 
L 375.866325 296.720679 
L 385.391275 292.284553 
L 394.916225 288.964035 
L 404.441175 286.035374 
L 413.966125 284.236613 
L 423.491075 282.835578 
L 433.016025 281.324667 
L 442.540975 280.799795 
L 452.065925 279.90718 
L 461.590875 278.023373 
L 471.115825 273.161493 
L 480.640775 263.946167 
L 490.165725 247.991723 
L 499.690675 241.511245 
L 509.215625 259.114446 
L 518.740575 272.85579 
L 528.265525 272.54962 
L 537.790475 267.254643 
L 547.315425 258.720135 
L 556.840375 258.65014 
L 566.365325 262.992272 
L 575.890275 256.399494 
L 585.415225 237.62231 
L 594.940175 228.073852 
L 604.465125 244.953347 
L 613.990075 264.488045 
L 623.515025 272.625848 
L 633.039975 277.567767 
L 642.564925 276.335233 
L 652.089875 278.418326 
L 661.614825 293.576704 
L 671.139775 309.453796 
L 680.664725 318.131141 
L 690.189675 323.382924 
L 699.714625 326.334838 
L 709.239575 328.401831 
L 718.764525 330.587998 
L 728.289475 332.004419 
L 737.814425 332.911602 
L 747.339375 334.373027 
L 756.864325 335.423748 
L 766.389275 335.720854 
L 775.914225 336.035505 
L 785.439175 337.372792 
L 794.964125 338.682957 
L 804.489075 338.738632 
L 814.014025 338.667834 
L 823.538975 340.15409 
L 833.063925 341.78292 
L 842.588875 341.73904 
L 852.113825 341.874404 
L 861.638775 342.879595 
L 871.163725 343.582455 
L 880.688675 345.125744 
L 890.213625 346.841109 
L 899.738575 347.339238 
L 909.263525 347.734702 
L 918.788475 348.849565 
L 928.313425 349.96602 
L 937.838375 350.562829 
L 947.363325 351.152032 
L 956.888275 352.107124 
L 966.413225 353.060888 
L 975.938175 353.132796 
L 985.463125 353.202675 
" clip-path="url(#p5ffbc0cf5e)" style="fill: none; stroke: #d9534f; stroke-linecap: square"/>
   </g>
   <g id="line2d_21">
    <path d="M 32.968125 353.204445 
L 42.493075 353.191519 
L 52.018025 353.1776 
L 61.542975 353.146125 
L 71.067925 353.112883 
L 80.592875 353.07136 
L 90.117825 353.027893 
L 99.642775 352.973692 
L 109.167725 352.918936 
L 118.692675 352.845718 
L 128.217625 352.770032 
L 137.742575 352.652458 
L 147.267525 352.532108 
L 156.792475 352.314952 
L 166.317425 352.076809 
L 175.842375 351.671753 
L 185.367325 351.24381 
L 194.892275 350.523844 
L 204.417225 349.78232 
L 213.942175 348.672385 
L 223.467125 347.522651 
L 232.992075 345.974944 
L 242.517025 344.374263 
L 252.041975 342.268784 
L 261.566925 340.130721 
L 271.091875 338.038694 
L 280.616825 334.487222 
L 290.141775 331.508536 
L 299.666725 328.304135 
L 309.191675 325.00271 
L 318.716625 321.595979 
L 328.241575 318.146804 
L 337.766525 314.823763 
L 347.291475 311.515604 
L 356.816425 308.209579 
L 366.341375 304.863782 
L 375.866325 301.556193 
L 385.391275 298.557395 
L 394.916225 295.93748 
L 404.441175 292.846784 
L 413.966125 290.266055 
L 423.491075 287.981425 
L 433.016025 284.886143 
L 442.540975 283.263714 
L 452.065925 284.420036 
L 461.590875 285.384835 
L 471.115825 284.819001 
L 480.640775 283.322165 
L 490.165725 282.618762 
L 499.690675 283.093793 
L 509.215625 283.343767 
L 518.740575 283.730113 
L 528.265525 283.91017 
L 537.790475 283.673969 
L 547.315425 283.558658 
L 556.840375 278.866127 
L 566.365325 267.336867 
L 575.890275 256.828477 
L 585.415225 253.433883 
L 594.940175 256.418236 
L 604.465125 261.359573 
L 613.990075 264.506734 
L 623.515025 266.333757 
L 633.039975 269.080201 
L 642.564925 272.166778 
L 652.089875 265.477799 
L 661.614825 244.985898 
L 671.139775 238.611931 
L 680.664725 269.503075 
L 690.189675 300.465859 
L 699.714625 305.206268 
L 709.239575 310.658799 
L 718.764525 322.657686 
L 728.289475 328.394339 
L 737.814425 328.702327 
L 747.339375 329.132606 
L 756.864325 330.199995 
L 766.389275 331.147209 
L 775.914225 331.752536 
L 785.439175 332.211954 
L 794.964125 333.091325 
L 804.489075 333.831681 
L 814.014025 334.447071 
L 823.538975 335.249281 
L 833.063925 335.980026 
L 842.588875 338.011338 
L 852.113825 340.016943 
L 861.638775 341.712941 
L 871.163725 343.311592 
L 880.688675 344.207584 
L 890.213625 345.122461 
L 899.738575 345.630545 
L 909.263525 346.127178 
L 918.788475 347.851115 
L 928.313425 349.556737 
L 937.838375 349.594157 
L 947.363325 349.626669 
L 956.888275 350.513299 
L 966.413225 350.60229 
L 975.938175 348.015939 
L 985.463125 346.251763 
" clip-path="url(#p5ffbc0cf5e)" style="fill: none; stroke: #d9534f; stroke-linecap: square"/>
   </g>
   <g id="line2d_22">
    <path d="M 32.968125 353.2239 
L 985.463125 353.2239 
" clip-path="url(#p5ffbc0cf5e)" style="fill: none; stroke: #dedede; stroke-width: 2; stroke-linecap: square"/>
   </g>
   <g id="text_14">
    <!-- FastQC: Per Sequence GC Content -->
    <g transform="translate(372.579375 19.3575) scale(0.16 -0.16)">
     <defs>
      <path id="DejaVuSans-46" d="M 628 4666 
L 3309 4666 
L 3309 4134 
L 1259 4134 
L 1259 2759 
L 3109 2759 
L 3109 2228 
L 1259 2228 
L 1259 0 
L 628 0 
L 628 4666 
z
" transform="scale(0.015625)"/>
      <path id="DejaVuSans-73" d="M 2834 3397 
L 2834 2853 
Q 2591 2978 2328 3040 
Q 2066 3103 1784 3103 
Q 1356 3103 1142 2972 
Q 928 2841 928 2578 
Q 928 2378 1081 2264 
Q 1234 2150 1697 2047 
L 1894 2003 
Q 2506 1872 2764 1633 
Q 3022 1394 3022 966 
Q 3022 478 2636 193 
Q 2250 -91 1575 -91 
Q 1294 -91 989 -36 
Q 684 19 347 128 
L 347 722 
Q 666 556 975 473 
Q 1284 391 1588 391 
Q 1994 391 2212 530 
Q 2431 669 2431 922 
Q 2431 1156 2273 1281 
Q 2116 1406 1581 1522 
L 1381 1569 
Q 847 1681 609 1914 
Q 372 2147 372 2553 
Q 372 3047 722 3315 
Q 1072 3584 1716 3584 
Q 2034 3584 2315 3537 
Q 2597 3491 2834 3397 
z
" transform="scale(0.015625)"/>
      <path id="DejaVuSans-51" d="M 2522 4238 
Q 1834 4238 1429 3725 
Q 1025 3213 1025 2328 
Q 1025 1447 1429 934 
Q 1834 422 2522 422 
Q 3209 422 3611 934 
Q 4013 1447 4013 2328 
Q 4013 3213 3611 3725 
Q 3209 4238 2522 4238 
z
M 3406 84 
L 4238 -825 
L 3475 -825 
L 2784 -78 
Q 2681 -84 2626 -87 
Q 2572 -91 2522 -91 
Q 1538 -91 948 567 
Q 359 1225 359 2328 
Q 359 3434 948 4092 
Q 1538 4750 2522 4750 
Q 3503 4750 4090 4092 
Q 4678 3434 4678 2328 
Q 4678 1516 4351 937 
Q 4025 359 3406 84 
z
" transform="scale(0.015625)"/>
      <path id="DejaVuSans-3a" d="M 750 794 
L 1409 794 
L 1409 0 
L 750 0 
L 750 794 
z
M 750 3309 
L 1409 3309 
L 1409 2516 
L 750 2516 
L 750 3309 
z
" transform="scale(0.015625)"/>
      <path id="DejaVuSans-53" d="M 3425 4513 
L 3425 3897 
Q 3066 4069 2747 4153 
Q 2428 4238 2131 4238 
Q 1616 4238 1336 4038 
Q 1056 3838 1056 3469 
Q 1056 3159 1242 3001 
Q 1428 2844 1947 2747 
L 2328 2669 
Q 3034 2534 3370 2195 
Q 3706 1856 3706 1288 
Q 3706 609 3251 259 
Q 2797 -91 1919 -91 
Q 1588 -91 1214 -16 
Q 841 59 441 206 
L 441 856 
Q 825 641 1194 531 
Q 1563 422 1919 422 
Q 2459 422 2753 634 
Q 3047 847 3047 1241 
Q 3047 1584 2836 1778 
Q 2625 1972 2144 2069 
L 1759 2144 
Q 1053 2284 737 2584 
Q 422 2884 422 3419 
Q 422 4038 858 4394 
Q 1294 4750 2059 4750 
Q 2388 4750 2728 4690 
Q 3069 4631 3425 4513 
z
" transform="scale(0.015625)"/>
      <path id="DejaVuSans-71" d="M 947 1747 
Q 947 1113 1208 752 
Q 1469 391 1925 391 
Q 2381 391 2643 752 
Q 2906 1113 2906 1747 
Q 2906 2381 2643 2742 
Q 2381 3103 1925 3103 
Q 1469 3103 1208 2742 
Q 947 2381 947 1747 
z
M 2906 525 
Q 2725 213 2448 61 
Q 2172 -91 1784 -91 
Q 1150 -91 751 415 
Q 353 922 353 1747 
Q 353 2572 751 3078 
Q 1150 3584 1784 3584 
Q 2172 3584 2448 3432 
Q 2725 3281 2906 2969 
L 2906 3500 
L 3481 3500 
L 3481 -1331 
L 2906 -1331 
L 2906 525 
z
" transform="scale(0.015625)"/>
      <path id="DejaVuSans-75" d="M 544 1381 
L 544 3500 
L 1119 3500 
L 1119 1403 
Q 1119 906 1312 657 
Q 1506 409 1894 409 
Q 2359 409 2629 706 
Q 2900 1003 2900 1516 
L 2900 3500 
L 3475 3500 
L 3475 0 
L 2900 0 
L 2900 538 
Q 2691 219 2414 64 
Q 2138 -91 1772 -91 
Q 1169 -91 856 284 
Q 544 659 544 1381 
z
M 1991 3584 
L 1991 3584 
z
" transform="scale(0.015625)"/>
      <path id="DejaVuSans-6f" d="M 1959 3097 
Q 1497 3097 1228 2736 
Q 959 2375 959 1747 
Q 959 1119 1226 758 
Q 1494 397 1959 397 
Q 2419 397 2687 759 
Q 2956 1122 2956 1747 
Q 2956 2369 2687 2733 
Q 2419 3097 1959 3097 
z
M 1959 3584 
Q 2709 3584 3137 3096 
Q 3566 2609 3566 1747 
Q 3566 888 3137 398 
Q 2709 -91 1959 -91 
Q 1206 -91 779 398 
Q 353 888 353 1747 
Q 353 2609 779 3096 
Q 1206 3584 1959 3584 
z
" transform="scale(0.015625)"/>
     </defs>
     <use xlink:href="#DejaVuSans-46"/>
     <use xlink:href="#DejaVuSans-61" x="48.394531"/>
     <use xlink:href="#DejaVuSans-73" x="109.673828"/>
     <use xlink:href="#DejaVuSans-74" x="161.773438"/>
     <use xlink:href="#DejaVuSans-51" x="200.982422"/>
     <use xlink:href="#DejaVuSans-43" x="279.693359"/>
     <use xlink:href="#DejaVuSans-3a" x="349.517578"/>
     <use xlink:href="#DejaVuSans-20" x="383.208984"/>
     <use xlink:href="#DejaVuSans-50" x="414.996094"/>
     <use xlink:href="#DejaVuSans-65" x="471.673828"/>
     <use xlink:href="#DejaVuSans-72" x="533.197266"/>
     <use xlink:href="#DejaVuSans-20" x="574.310547"/>
     <use xlink:href="#DejaVuSans-53" x="606.097656"/>
     <use xlink:href="#DejaVuSans-65" x="669.574219"/>
     <use xlink:href="#DejaVuSans-71" x="731.097656"/>
     <use xlink:href="#DejaVuSans-75" x="794.574219"/>
     <use xlink:href="#DejaVuSans-65" x="857.953125"/>
     <use xlink:href="#DejaVuSans-6e" x="919.476562"/>
     <use xlink:href="#DejaVuSans-63" x="982.855469"/>
     <use xlink:href="#DejaVuSans-65" x="1037.835938"/>
     <use xlink:href="#DejaVuSans-20" x="1099.359375"/>
     <use xlink:href="#DejaVuSans-47" x="1131.146484"/>
     <use xlink:href="#DejaVuSans-43" x="1208.636719"/>
     <use xlink:href="#DejaVuSans-20" x="1278.460938"/>
     <use xlink:href="#DejaVuSans-43" x="1310.248047"/>
     <use xlink:href="#DejaVuSans-6f" x="1380.072266"/>
     <use xlink:href="#DejaVuSans-6e" x="1441.253906"/>
     <use xlink:href="#DejaVuSans-74" x="1504.632812"/>
     <use xlink:href="#DejaVuSans-65" x="1543.841797"/>
     <use xlink:href="#DejaVuSans-6e" x="1605.365234"/>
     <use xlink:href="#DejaVuSans-74" x="1668.744141"/>
    </g>
   </g>
  </g>
 </g>
 <defs>
  <clipPath id="p5ffbc0cf5e">
   <rect x="32.968125" y="35.2559" width="952.495" height="317.968"/>
  </clipPath>
 </defs>
</svg>
