<?xml version="1.0" encoding="utf-8" standalone="no"?>
<!DOCTYPE svg PUBLIC "-//W3C//DTD SVG 1.1//EN"
  "http://www.w3.org/Graphics/SVG/1.1/DTD/svg11.dtd">
<svg xmlns:xlink="http://www.w3.org/1999/xlink" width="1000.358125pt" height="388.844525pt" viewBox="0 0 1000.358125 388.844525" xmlns="http://www.w3.org/2000/svg" version="1.1">
 <metadata>
  <rdf:RDF xmlns:dc="http://purl.org/dc/elements/1.1/" xmlns:cc="http://creativecommons.org/ns#" xmlns:rdf="http://www.w3.org/1999/02/22-rdf-syntax-ns#">
   <cc:Work>
    <dc:type rdf:resource="http://purl.org/dc/dcmitype/StillImage"/>
    <dc:date>2025-04-01T05:20:42.720491</dc:date>
    <dc:format>image/svg+xml</dc:format>
    <dc:creator>
     <cc:Agent>
      <dc:title>Matplotlib v3.8.2, https://matplotlib.org/</dc:title>
     </cc:Agent>
    </dc:creator>
   </cc:Work>
  </rdf:RDF>
 </metadata>
 <defs>
  <style type="text/css">*{stroke-linejoin: round; stroke-linecap: butt}</style>
 </defs>
 <g id="figure_1">
  <g id="axes_1">
   <g id="patch_1">
    <path d="M 32.968125 353.2239 
L 993.158125 353.2239 
L 993.158125 35.2559 
L 32.968125 35.2559 
z
" style="fill: #ffffff"/>
   </g>
   <g id="patch_2">
    <path d="M 32.968125 -918.6481 
L 959.32099 -918.6481 
L 959.32099 -6006.1361 
L 32.968125 -6006.1361 
z
" clip-path="url(#p69ff105ac0)" style="fill: #e6c3c3"/>
   </g>
   <g id="patch_3">
    <path d="M 32.968125 35.2559 
L 959.32099 35.2559 
L 959.32099 -918.6481 
L 32.968125 -918.6481 
z
" clip-path="url(#p69ff105ac0)" style="fill: #e6dcc3"/>
   </g>
   <g id="patch_4">
    <path d="M 32.968125 353.2239 
L 959.32099 353.2239 
L 959.32099 35.2559 
L 32.968125 35.2559 
z
" clip-path="url(#p69ff105ac0)" style="fill: #c3e6c3"/>
   </g>
   <g id="matplotlib.axis_1">
    <g id="xtick_1">
     <g id="text_1">
      <!-- 0 -->
      <g transform="translate(64.26026 366.30265) scale(0.08 -0.08)">
       <defs>
        <path id="DejaVuSans-30" d="M 2034 4250 
Q 1547 4250 1301 3770 
Q 1056 3291 1056 2328 
Q 1056 1369 1301 889 
Q 1547 409 2034 409 
Q 2525 409 2770 889 
Q 3016 1369 3016 2328 
Q 3016 3291 2770 3770 
Q 2525 4250 2034 4250 
z
M 2034 4750 
Q 2819 4750 3233 4129 
Q 3647 3509 3647 2328 
Q 3647 1150 3233 529 
Q 2819 -91 2034 -91 
Q 1250 -91 836 529 
Q 422 1150 422 2328 
Q 422 3509 836 4129 
Q 1250 4750 2034 4750 
z
" transform="scale(0.015625)"/>
       </defs>
       <use xlink:href="#DejaVuSans-30"/>
      </g>
     </g>
    </g>
    <g id="xtick_2">
     <g id="text_2">
      <!-- 20 -->
      <g transform="translate(257.872563 366.30265) scale(0.08 -0.08)">
       <defs>
        <path id="DejaVuSans-32" d="M 1228 531 
L 3431 531 
L 3431 0 
L 469 0 
L 469 531 
Q 828 903 1448 1529 
Q 2069 2156 2228 2338 
Q 2531 2678 2651 2914 
Q 2772 3150 2772 3378 
Q 2772 3750 2511 3984 
Q 2250 4219 1831 4219 
Q 1534 4219 1204 4116 
Q 875 4013 500 3803 
L 500 4441 
Q 881 4594 1212 4672 
Q 1544 4750 1819 4750 
Q 2544 4750 2975 4387 
Q 3406 4025 3406 3419 
Q 3406 3131 3298 2873 
Q 3191 2616 2906 2266 
Q 2828 2175 2409 1742 
Q 1991 1309 1228 531 
z
" transform="scale(0.015625)"/>
       </defs>
       <use xlink:href="#DejaVuSans-32"/>
       <use xlink:href="#DejaVuSans-30" x="63.623047"/>
      </g>
     </g>
    </g>
    <g id="xtick_3">
     <g id="text_3">
      <!-- 40 -->
      <g transform="translate(454.029867 366.30265) scale(0.08 -0.08)">
       <defs>
        <path id="DejaVuSans-34" d="M 2419 4116 
L 825 1625 
L 2419 1625 
L 2419 4116 
z
M 2253 4666 
L 3047 4666 
L 3047 1625 
L 3713 1625 
L 3713 1100 
L 3047 1100 
L 3047 0 
L 2419 0 
L 2419 1100 
L 313 1100 
L 313 1709 
L 2253 4666 
z
" transform="scale(0.015625)"/>
       </defs>
       <use xlink:href="#DejaVuSans-34"/>
       <use xlink:href="#DejaVuSans-30" x="63.623047"/>
      </g>
     </g>
    </g>
    <g id="xtick_4">
     <g id="text_4">
      <!-- 60 -->
      <g transform="translate(650.18717 366.30265) scale(0.08 -0.08)">
       <defs>
        <path id="DejaVuSans-36" d="M 2113 2584 
Q 1688 2584 1439 2293 
Q 1191 2003 1191 1497 
Q 1191 994 1439 701 
Q 1688 409 2113 409 
Q 2538 409 2786 701 
Q 3034 994 3034 1497 
Q 3034 2003 2786 2293 
Q 2538 2584 2113 2584 
z
M 3366 4563 
L 3366 3988 
Q 3128 4100 2886 4159 
Q 2644 4219 2406 4219 
Q 1781 4219 1451 3797 
Q 1122 3375 1075 2522 
Q 1259 2794 1537 2939 
Q 1816 3084 2150 3084 
Q 2853 3084 3261 2657 
Q 3669 2231 3669 1497 
Q 3669 778 3244 343 
Q 2819 -91 2113 -91 
Q 1303 -91 875 529 
Q 447 1150 447 2328 
Q 447 3434 972 4092 
Q 1497 4750 2381 4750 
Q 2619 4750 2861 4703 
Q 3103 4656 3366 4563 
z
" transform="scale(0.015625)"/>
       </defs>
       <use xlink:href="#DejaVuSans-36"/>
       <use xlink:href="#DejaVuSans-30" x="63.623047"/>
      </g>
     </g>
    </g>
    <g id="xtick_5">
     <g id="text_5">
      <!-- 80 -->
      <g transform="translate(846.344473 366.30265) scale(0.08 -0.08)">
       <defs>
        <path id="DejaVuSans-38" d="M 2034 2216 
Q 1584 2216 1326 1975 
Q 1069 1734 1069 1313 
Q 1069 891 1326 650 
Q 1584 409 2034 409 
Q 2484 409 2743 651 
Q 3003 894 3003 1313 
Q 3003 1734 2745 1975 
Q 2488 2216 2034 2216 
z
M 1403 2484 
Q 997 2584 770 2862 
Q 544 3141 544 3541 
Q 544 4100 942 4425 
Q 1341 4750 2034 4750 
Q 2731 4750 3128 4425 
Q 3525 4100 3525 3541 
Q 3525 3141 3298 2862 
Q 3072 2584 2669 2484 
Q 3125 2378 3379 2068 
Q 3634 1759 3634 1313 
Q 3634 634 3220 271 
Q 2806 -91 2034 -91 
Q 1263 -91 848 271 
Q 434 634 434 1313 
Q 434 1759 690 2068 
Q 947 2378 1403 2484 
z
M 1172 3481 
Q 1172 3119 1398 2916 
Q 1625 2713 2034 2713 
Q 2441 2713 2670 2916 
Q 2900 3119 2900 3481 
Q 2900 3844 2670 4047 
Q 2441 4250 2034 4250 
Q 1625 4250 1398 4047 
Q 1172 3844 1172 3481 
z
" transform="scale(0.015625)"/>
       </defs>
       <use xlink:href="#DejaVuSans-38"/>
       <use xlink:href="#DejaVuSans-30" x="63.623047"/>
      </g>
     </g>
    </g>
    <g id="text_6">
     <!-- Position (bp) -->
     <g transform="translate(481.76 379.564837) scale(0.1 -0.1)">
      <defs>
       <path id="DejaVuSans-50" d="M 1259 4147 
L 1259 2394 
L 2053 2394 
Q 2494 2394 2734 2622 
Q 2975 2850 2975 3272 
Q 2975 3691 2734 3919 
Q 2494 4147 2053 4147 
L 1259 4147 
z
M 628 4666 
L 2053 4666 
Q 2838 4666 3239 4311 
Q 3641 3956 3641 3272 
Q 3641 2581 3239 2228 
Q 2838 1875 2053 1875 
L 1259 1875 
L 1259 0 
L 628 0 
L 628 4666 
z
" transform="scale(0.015625)"/>
       <path id="DejaVuSans-6f" d="M 1959 3097 
Q 1497 3097 1228 2736 
Q 959 2375 959 1747 
Q 959 1119 1226 758 
Q 1494 397 1959 397 
Q 2419 397 2687 759 
Q 2956 1122 2956 1747 
Q 2956 2369 2687 2733 
Q 2419 3097 1959 3097 
z
M 1959 3584 
Q 2709 3584 3137 3096 
Q 3566 2609 3566 1747 
Q 3566 888 3137 398 
Q 2709 -91 1959 -91 
Q 1206 -91 779 398 
Q 353 888 353 1747 
Q 353 2609 779 3096 
Q 1206 3584 1959 3584 
z
" transform="scale(0.015625)"/>
       <path id="DejaVuSans-73" d="M 2834 3397 
L 2834 2853 
Q 2591 2978 2328 3040 
Q 2066 3103 1784 3103 
Q 1356 3103 1142 2972 
Q 928 2841 928 2578 
Q 928 2378 1081 2264 
Q 1234 2150 1697 2047 
L 1894 2003 
Q 2506 1872 2764 1633 
Q 3022 1394 3022 966 
Q 3022 478 2636 193 
Q 2250 -91 1575 -91 
Q 1294 -91 989 -36 
Q 684 19 347 128 
L 347 722 
Q 666 556 975 473 
Q 1284 391 1588 391 
Q 1994 391 2212 530 
Q 2431 669 2431 922 
Q 2431 1156 2273 1281 
Q 2116 1406 1581 1522 
L 1381 1569 
Q 847 1681 609 1914 
Q 372 2147 372 2553 
Q 372 3047 722 3315 
Q 1072 3584 1716 3584 
Q 2034 3584 2315 3537 
Q 2597 3491 2834 3397 
z
" transform="scale(0.015625)"/>
       <path id="DejaVuSans-69" d="M 603 3500 
L 1178 3500 
L 1178 0 
L 603 0 
L 603 3500 
z
M 603 4863 
L 1178 4863 
L 1178 4134 
L 603 4134 
L 603 4863 
z
" transform="scale(0.015625)"/>
       <path id="DejaVuSans-74" d="M 1172 4494 
L 1172 3500 
L 2356 3500 
L 2356 3053 
L 1172 3053 
L 1172 1153 
Q 1172 725 1289 603 
Q 1406 481 1766 481 
L 2356 481 
L 2356 0 
L 1766 0 
Q 1100 0 847 248 
Q 594 497 594 1153 
L 594 3053 
L 172 3053 
L 172 3500 
L 594 3500 
L 594 4494 
L 1172 4494 
z
" transform="scale(0.015625)"/>
       <path id="DejaVuSans-6e" d="M 3513 2113 
L 3513 0 
L 2938 0 
L 2938 2094 
Q 2938 2591 2744 2837 
Q 2550 3084 2163 3084 
Q 1697 3084 1428 2787 
Q 1159 2491 1159 1978 
L 1159 0 
L 581 0 
L 581 3500 
L 1159 3500 
L 1159 2956 
Q 1366 3272 1645 3428 
Q 1925 3584 2291 3584 
Q 2894 3584 3203 3211 
Q 3513 2838 3513 2113 
z
" transform="scale(0.015625)"/>
       <path id="DejaVuSans-20" transform="scale(0.015625)"/>
       <path id="DejaVuSans-28" d="M 1984 4856 
Q 1566 4138 1362 3434 
Q 1159 2731 1159 2009 
Q 1159 1288 1364 580 
Q 1569 -128 1984 -844 
L 1484 -844 
Q 1016 -109 783 600 
Q 550 1309 550 2009 
Q 550 2706 781 3412 
Q 1013 4119 1484 4856 
L 1984 4856 
z
" transform="scale(0.015625)"/>
       <path id="DejaVuSans-62" d="M 3116 1747 
Q 3116 2381 2855 2742 
Q 2594 3103 2138 3103 
Q 1681 3103 1420 2742 
Q 1159 2381 1159 1747 
Q 1159 1113 1420 752 
Q 1681 391 2138 391 
Q 2594 391 2855 752 
Q 3116 1113 3116 1747 
z
M 1159 2969 
Q 1341 3281 1617 3432 
Q 1894 3584 2278 3584 
Q 2916 3584 3314 3078 
Q 3713 2572 3713 1747 
Q 3713 922 3314 415 
Q 2916 -91 2278 -91 
Q 1894 -91 1617 61 
Q 1341 213 1159 525 
L 1159 0 
L 581 0 
L 581 4863 
L 1159 4863 
L 1159 2969 
z
" transform="scale(0.015625)"/>
       <path id="DejaVuSans-70" d="M 1159 525 
L 1159 -1331 
L 581 -1331 
L 581 3500 
L 1159 3500 
L 1159 2969 
Q 1341 3281 1617 3432 
Q 1894 3584 2278 3584 
Q 2916 3584 3314 3078 
Q 3713 2572 3713 1747 
Q 3713 922 3314 415 
Q 2916 -91 2278 -91 
Q 1894 -91 1617 61 
Q 1341 213 1159 525 
z
M 3116 1747 
Q 3116 2381 2855 2742 
Q 2594 3103 2138 3103 
Q 1681 3103 1420 2742 
Q 1159 2381 1159 1747 
Q 1159 1113 1420 752 
Q 1681 391 2138 391 
Q 2594 391 2855 752 
Q 3116 1113 3116 1747 
z
" transform="scale(0.015625)"/>
       <path id="DejaVuSans-29" d="M 513 4856 
L 1013 4856 
Q 1481 4119 1714 3412 
Q 1947 2706 1947 2009 
Q 1947 1309 1714 600 
Q 1481 -109 1013 -844 
L 513 -844 
Q 928 -128 1133 580 
Q 1338 1288 1338 2009 
Q 1338 2731 1133 3434 
Q 928 4138 513 4856 
z
" transform="scale(0.015625)"/>
      </defs>
      <use xlink:href="#DejaVuSans-50"/>
      <use xlink:href="#DejaVuSans-6f" x="56.677734"/>
      <use xlink:href="#DejaVuSans-73" x="117.859375"/>
      <use xlink:href="#DejaVuSans-69" x="169.958984"/>
      <use xlink:href="#DejaVuSans-74" x="197.742188"/>
      <use xlink:href="#DejaVuSans-69" x="236.951172"/>
      <use xlink:href="#DejaVuSans-6f" x="264.734375"/>
      <use xlink:href="#DejaVuSans-6e" x="325.916016"/>
      <use xlink:href="#DejaVuSans-20" x="389.294922"/>
      <use xlink:href="#DejaVuSans-28" x="421.082031"/>
      <use xlink:href="#DejaVuSans-62" x="460.095703"/>
      <use xlink:href="#DejaVuSans-70" x="523.572266"/>
      <use xlink:href="#DejaVuSans-29" x="587.048828"/>
     </g>
    </g>
   </g>
   <g id="matplotlib.axis_2">
    <g id="ytick_1">
     <g id="line2d_1">
      <path d="M 32.968125 353.2239 
L 993.158125 353.2239 
" clip-path="url(#p69ff105ac0)" style="fill: none; stroke: #dedede; stroke-linecap: square"/>
     </g>
     <g id="text_7">
      <!-- 0 -->
      <g transform="translate(20.878125 356.263275) scale(0.08 -0.08)">
       <use xlink:href="#DejaVuSans-30"/>
      </g>
     </g>
    </g>
    <g id="ytick_2">
     <g id="line2d_2">
      <path d="M 32.968125 289.6303 
L 993.158125 289.6303 
" clip-path="url(#p69ff105ac0)" style="fill: none; stroke: #dedede; stroke-linecap: square"/>
     </g>
     <g id="text_8">
      <!-- 1 -->
      <g transform="translate(20.878125 292.669675) scale(0.08 -0.08)">
       <defs>
        <path id="DejaVuSans-31" d="M 794 531 
L 1825 531 
L 1825 4091 
L 703 3866 
L 703 4441 
L 1819 4666 
L 2450 4666 
L 2450 531 
L 3481 531 
L 3481 0 
L 794 0 
L 794 531 
z
" transform="scale(0.015625)"/>
       </defs>
       <use xlink:href="#DejaVuSans-31"/>
      </g>
     </g>
    </g>
    <g id="ytick_3">
     <g id="line2d_3">
      <path d="M 32.968125 226.0367 
L 993.158125 226.0367 
" clip-path="url(#p69ff105ac0)" style="fill: none; stroke: #dedede; stroke-linecap: square"/>
     </g>
     <g id="text_9">
      <!-- 2 -->
      <g transform="translate(20.878125 229.076075) scale(0.08 -0.08)">
       <use xlink:href="#DejaVuSans-32"/>
      </g>
     </g>
    </g>
    <g id="ytick_4">
     <g id="line2d_4">
      <path d="M 32.968125 162.4431 
L 993.158125 162.4431 
" clip-path="url(#p69ff105ac0)" style="fill: none; stroke: #dedede; stroke-linecap: square"/>
     </g>
     <g id="text_10">
      <!-- 3 -->
      <g transform="translate(20.878125 165.482475) scale(0.08 -0.08)">
       <defs>
        <path id="DejaVuSans-33" d="M 2597 2516 
Q 3050 2419 3304 2112 
Q 3559 1806 3559 1356 
Q 3559 666 3084 287 
Q 2609 -91 1734 -91 
Q 1441 -91 1130 -33 
Q 819 25 488 141 
L 488 750 
Q 750 597 1062 519 
Q 1375 441 1716 441 
Q 2309 441 2620 675 
Q 2931 909 2931 1356 
Q 2931 1769 2642 2001 
Q 2353 2234 1838 2234 
L 1294 2234 
L 1294 2753 
L 1863 2753 
Q 2328 2753 2575 2939 
Q 2822 3125 2822 3475 
Q 2822 3834 2567 4026 
Q 2313 4219 1838 4219 
Q 1578 4219 1281 4162 
Q 984 4106 628 3988 
L 628 4550 
Q 988 4650 1302 4700 
Q 1616 4750 1894 4750 
Q 2613 4750 3031 4423 
Q 3450 4097 3450 3541 
Q 3450 3153 3228 2886 
Q 3006 2619 2597 2516 
z
" transform="scale(0.015625)"/>
       </defs>
       <use xlink:href="#DejaVuSans-33"/>
      </g>
     </g>
    </g>
    <g id="ytick_5">
     <g id="line2d_5">
      <path d="M 32.968125 98.8495 
L 993.158125 98.8495 
" clip-path="url(#p69ff105ac0)" style="fill: none; stroke: #dedede; stroke-linecap: square"/>
     </g>
     <g id="text_11">
      <!-- 4 -->
      <g transform="translate(20.878125 101.888875) scale(0.08 -0.08)">
       <use xlink:href="#DejaVuSans-34"/>
      </g>
     </g>
    </g>
    <g id="ytick_6">
     <g id="line2d_6">
      <path d="M 32.968125 35.2559 
L 993.158125 35.2559 
" clip-path="url(#p69ff105ac0)" style="fill: none; stroke: #dedede; stroke-linecap: square"/>
     </g>
     <g id="text_12">
      <!-- 5 -->
      <g transform="translate(20.878125 38.295275) scale(0.08 -0.08)">
       <defs>
        <path id="DejaVuSans-35" d="M 691 4666 
L 3169 4666 
L 3169 4134 
L 1269 4134 
L 1269 2991 
Q 1406 3038 1543 3061 
Q 1681 3084 1819 3084 
Q 2600 3084 3056 2656 
Q 3513 2228 3513 1497 
Q 3513 744 3044 326 
Q 2575 -91 1722 -91 
Q 1428 -91 1123 -41 
Q 819 9 494 109 
L 494 744 
Q 775 591 1075 516 
Q 1375 441 1709 441 
Q 2250 441 2565 725 
Q 2881 1009 2881 1497 
Q 2881 1984 2565 2268 
Q 2250 2553 1709 2553 
Q 1456 2553 1204 2497 
Q 953 2441 691 2322 
L 691 4666 
z
" transform="scale(0.015625)"/>
       </defs>
       <use xlink:href="#DejaVuSans-35"/>
      </g>
     </g>
    </g>
    <g id="text_13">
     <!-- % of Sequences -->
     <g transform="translate(14.798437 234.257869) rotate(-90) scale(0.1 -0.1)">
      <defs>
       <path id="DejaVuSans-25" d="M 4653 2053 
Q 4381 2053 4226 1822 
Q 4072 1591 4072 1178 
Q 4072 772 4226 539 
Q 4381 306 4653 306 
Q 4919 306 5073 539 
Q 5228 772 5228 1178 
Q 5228 1588 5073 1820 
Q 4919 2053 4653 2053 
z
M 4653 2450 
Q 5147 2450 5437 2106 
Q 5728 1763 5728 1178 
Q 5728 594 5436 251 
Q 5144 -91 4653 -91 
Q 4153 -91 3862 251 
Q 3572 594 3572 1178 
Q 3572 1766 3864 2108 
Q 4156 2450 4653 2450 
z
M 1428 4353 
Q 1159 4353 1004 4120 
Q 850 3888 850 3481 
Q 850 3069 1003 2837 
Q 1156 2606 1428 2606 
Q 1700 2606 1854 2837 
Q 2009 3069 2009 3481 
Q 2009 3884 1853 4118 
Q 1697 4353 1428 4353 
z
M 4250 4750 
L 4750 4750 
L 1831 -91 
L 1331 -91 
L 4250 4750 
z
M 1428 4750 
Q 1922 4750 2215 4408 
Q 2509 4066 2509 3481 
Q 2509 2891 2217 2550 
Q 1925 2209 1428 2209 
Q 931 2209 642 2551 
Q 353 2894 353 3481 
Q 353 4063 643 4406 
Q 934 4750 1428 4750 
z
" transform="scale(0.015625)"/>
       <path id="DejaVuSans-66" d="M 2375 4863 
L 2375 4384 
L 1825 4384 
Q 1516 4384 1395 4259 
Q 1275 4134 1275 3809 
L 1275 3500 
L 2222 3500 
L 2222 3053 
L 1275 3053 
L 1275 0 
L 697 0 
L 697 3053 
L 147 3053 
L 147 3500 
L 697 3500 
L 697 3744 
Q 697 4328 969 4595 
Q 1241 4863 1831 4863 
L 2375 4863 
z
" transform="scale(0.015625)"/>
       <path id="DejaVuSans-53" d="M 3425 4513 
L 3425 3897 
Q 3066 4069 2747 4153 
Q 2428 4238 2131 4238 
Q 1616 4238 1336 4038 
Q 1056 3838 1056 3469 
Q 1056 3159 1242 3001 
Q 1428 2844 1947 2747 
L 2328 2669 
Q 3034 2534 3370 2195 
Q 3706 1856 3706 1288 
Q 3706 609 3251 259 
Q 2797 -91 1919 -91 
Q 1588 -91 1214 -16 
Q 841 59 441 206 
L 441 856 
Q 825 641 1194 531 
Q 1563 422 1919 422 
Q 2459 422 2753 634 
Q 3047 847 3047 1241 
Q 3047 1584 2836 1778 
Q 2625 1972 2144 2069 
L 1759 2144 
Q 1053 2284 737 2584 
Q 422 2884 422 3419 
Q 422 4038 858 4394 
Q 1294 4750 2059 4750 
Q 2388 4750 2728 4690 
Q 3069 4631 3425 4513 
z
" transform="scale(0.015625)"/>
       <path id="DejaVuSans-65" d="M 3597 1894 
L 3597 1613 
L 953 1613 
Q 991 1019 1311 708 
Q 1631 397 2203 397 
Q 2534 397 2845 478 
Q 3156 559 3463 722 
L 3463 178 
Q 3153 47 2828 -22 
Q 2503 -91 2169 -91 
Q 1331 -91 842 396 
Q 353 884 353 1716 
Q 353 2575 817 3079 
Q 1281 3584 2069 3584 
Q 2775 3584 3186 3129 
Q 3597 2675 3597 1894 
z
M 3022 2063 
Q 3016 2534 2758 2815 
Q 2500 3097 2075 3097 
Q 1594 3097 1305 2825 
Q 1016 2553 972 2059 
L 3022 2063 
z
" transform="scale(0.015625)"/>
       <path id="DejaVuSans-71" d="M 947 1747 
Q 947 1113 1208 752 
Q 1469 391 1925 391 
Q 2381 391 2643 752 
Q 2906 1113 2906 1747 
Q 2906 2381 2643 2742 
Q 2381 3103 1925 3103 
Q 1469 3103 1208 2742 
Q 947 2381 947 1747 
z
M 2906 525 
Q 2725 213 2448 61 
Q 2172 -91 1784 -91 
Q 1150 -91 751 415 
Q 353 922 353 1747 
Q 353 2572 751 3078 
Q 1150 3584 1784 3584 
Q 2172 3584 2448 3432 
Q 2725 3281 2906 2969 
L 2906 3500 
L 3481 3500 
L 3481 -1331 
L 2906 -1331 
L 2906 525 
z
" transform="scale(0.015625)"/>
       <path id="DejaVuSans-75" d="M 544 1381 
L 544 3500 
L 1119 3500 
L 1119 1403 
Q 1119 906 1312 657 
Q 1506 409 1894 409 
Q 2359 409 2629 706 
Q 2900 1003 2900 1516 
L 2900 3500 
L 3475 3500 
L 3475 0 
L 2900 0 
L 2900 538 
Q 2691 219 2414 64 
Q 2138 -91 1772 -91 
Q 1169 -91 856 284 
Q 544 659 544 1381 
z
M 1991 3584 
L 1991 3584 
z
" transform="scale(0.015625)"/>
       <path id="DejaVuSans-63" d="M 3122 3366 
L 3122 2828 
Q 2878 2963 2633 3030 
Q 2388 3097 2138 3097 
Q 1578 3097 1268 2742 
Q 959 2388 959 1747 
Q 959 1106 1268 751 
Q 1578 397 2138 397 
Q 2388 397 2633 464 
Q 2878 531 3122 666 
L 3122 134 
Q 2881 22 2623 -34 
Q 2366 -91 2075 -91 
Q 1284 -91 818 406 
Q 353 903 353 1747 
Q 353 2603 823 3093 
Q 1294 3584 2113 3584 
Q 2378 3584 2631 3529 
Q 2884 3475 3122 3366 
z
" transform="scale(0.015625)"/>
      </defs>
      <use xlink:href="#DejaVuSans-25"/>
      <use xlink:href="#DejaVuSans-20" x="95.019531"/>
      <use xlink:href="#DejaVuSans-6f" x="126.806641"/>
      <use xlink:href="#DejaVuSans-66" x="187.988281"/>
      <use xlink:href="#DejaVuSans-20" x="223.193359"/>
      <use xlink:href="#DejaVuSans-53" x="254.980469"/>
      <use xlink:href="#DejaVuSans-65" x="318.457031"/>
      <use xlink:href="#DejaVuSans-71" x="379.980469"/>
      <use xlink:href="#DejaVuSans-75" x="443.457031"/>
      <use xlink:href="#DejaVuSans-65" x="506.835938"/>
      <use xlink:href="#DejaVuSans-6e" x="568.359375"/>
      <use xlink:href="#DejaVuSans-63" x="631.738281"/>
      <use xlink:href="#DejaVuSans-65" x="686.71875"/>
      <use xlink:href="#DejaVuSans-73" x="748.242188"/>
     </g>
    </g>
   </g>
   <g id="line2d_7">
    <path d="M 76.613125 353.079365 
L 86.42099 352.78979 
L 96.228855 352.535182 
L 106.036721 352.044312 
L 115.844586 351.701118 
L 125.652451 351.347991 
L 135.460316 350.963951 
L 145.268181 350.539064 
L 155.076046 349.769463 
L 164.883912 348.956989 
L 174.691777 348.597071 
L 184.499642 348.311347 
L 194.307507 347.955686 
L 204.115372 347.605094 
L 213.923237 347.310653 
L 223.731103 346.981852 
L 233.538968 346.686904 
L 243.346833 346.422667 
L 253.154698 346.18975 
L 262.962563 345.938994 
L 272.770428 345.603402 
L 282.578294 345.267709 
L 292.386159 344.901102 
L 302.194024 344.581321 
L 312.001889 344.219884 
L 321.809754 343.726176 
L 331.617619 343.300072 
L 341.425485 342.717069 
L 351.23335 342.250322 
L 361.041215 341.743437 
L 370.84908 341.34693 
L 380.656945 341.012757 
L 390.46481 340.62 
L 400.272676 340.247616 
L 410.080541 339.844825 
L 419.888406 339.560215 
L 429.696271 339.251787 
L 439.504136 338.99201 
L 449.312001 338.727469 
L 459.119867 338.400391 
" clip-path="url(#p69ff105ac0)" style="fill: none; stroke: #7cb5ec; stroke-linecap: square"/>
   </g>
   <g id="line2d_8">
    <path d="M 76.613125 353.2239 
L 86.42099 353.2239 
L 96.228855 353.177073 
L 106.036721 353.150619 
L 115.844586 353.134503 
L 125.652451 353.108455 
L 135.460316 353.066088 
L 145.268181 353.034769 
L 155.076046 352.997571 
L 164.883912 352.971522 
L 174.691777 352.915979 
L 184.499642 352.896011 
L 194.307507 352.717218 
L 204.115372 352.64039 
L 213.923237 352.327603 
L 223.731103 351.655305 
L 233.538968 350.639813 
L 243.346833 349.720001 
L 253.154698 349.297141 
L 262.962563 348.845496 
L 272.770428 348.437333 
L 282.578294 347.930854 
L 292.386159 347.821389 
L 302.194024 347.716992 
L 312.001889 347.615331 
L 321.809754 347.576511 
L 331.617619 347.454681 
L 341.425485 347.35525 
L 351.23335 346.928538 
L 361.041215 346.393173 
L 370.84908 345.828008 
L 380.656945 345.587387 
L 390.46481 345.538229 
L 400.272676 345.396127 
L 410.080541 345.245106 
L 419.888406 345.03469 
L 429.696271 344.986241 
L 439.504136 344.946813 
L 449.312001 344.835828 
L 459.119867 344.769946 
" clip-path="url(#p69ff105ac0)" style="fill: none; stroke: #434348; stroke-linecap: square"/>
   </g>
   <g id="line2d_9">
    <path d="M 76.613125 352.824251 
L 86.42099 352.593969 
L 96.228855 352.334293 
L 106.036721 351.882141 
L 115.844586 351.467998 
L 125.652451 351.12602 
L 135.460316 350.78678 
L 145.268181 350.308072 
L 155.076046 349.698108 
L 164.883912 349.082468 
L 174.691777 348.710895 
L 184.499642 348.327665 
L 194.307507 347.91636 
L 204.115372 347.47556 
L 213.923237 346.935025 
L 223.731103 346.121638 
L 233.538968 345.582624 
L 243.346833 345.005904 
L 253.154698 344.578281 
L 262.962563 344.05376 
L 272.770428 343.572316 
L 282.578294 343.008773 
L 292.386159 342.529458 
L 302.194024 342.083793 
L 312.001889 341.693063 
L 321.809754 341.172495 
L 331.617619 340.76271 
L 341.425485 340.379886 
L 351.23335 340.004056 
L 361.041215 339.620117 
L 370.84908 339.268004 
L 380.656945 338.943764 
L 390.46481 338.557393 
L 400.272676 338.197475 
L 410.080541 337.815361 
L 419.888406 337.490716 
L 429.696271 337.184517 
L 439.504136 336.851155 
L 449.312001 336.541916 
L 459.119867 336.165984 
" clip-path="url(#p69ff105ac0)" style="fill: none; stroke: #90ed7d; stroke-linecap: square"/>
   </g>
   <g id="line2d_10">
    <path d="M 76.613125 310.348221 
L 86.42099 309.486385 
L 96.228855 309.464898 
L 106.036721 309.443714 
L 115.844586 309.429322 
L 125.652451 309.409557 
L 135.460316 309.380974 
L 145.268181 309.327762 
L 155.076046 309.27009 
L 164.883912 309.20056 
L 174.691777 309.132549 
L 184.499642 309.05937 
L 194.307507 308.959128 
L 204.115372 308.920714 
L 213.923237 308.889293 
L 223.731103 308.855947 
L 233.538968 308.820979 
L 243.346833 308.793005 
L 253.154698 308.760875 
L 262.962563 308.732799 
L 272.770428 308.704216 
L 282.578294 308.674823 
L 292.386159 308.645632 
L 302.194024 308.614718 
L 312.001889 308.580358 
L 321.809754 308.54539 
L 331.617619 308.515693 
L 341.425485 308.486299 
L 351.23335 308.452041 
L 361.041215 308.417276 
L 370.84908 308.34592 
L 380.656945 308.28085 
L 390.46481 308.240408 
L 400.272676 308.203616 
L 410.080541 308.156992 
L 419.888406 308.119186 
L 429.696271 308.083711 
L 439.504136 307.978807 
L 449.312001 307.936845 
L 459.119867 307.900559 
" clip-path="url(#p69ff105ac0)" style="fill: none; stroke: #f7a35c; stroke-linecap: square"/>
   </g>
   <g id="line2d_11">
    <path d="M 76.613125 353.014306 
L 86.42099 352.683646 
L 96.228855 352.420951 
L 106.036721 351.994452 
L 115.844586 351.681145 
L 125.652451 351.429535 
L 135.460316 351.131331 
L 145.268181 350.74508 
L 155.076046 350.087778 
L 164.883912 349.441964 
L 174.691777 349.173726 
L 184.499642 348.954009 
L 194.307507 348.660143 
L 204.115372 348.384755 
L 213.923237 348.169376 
L 223.731103 347.899932 
L 233.538968 347.665113 
L 243.346833 347.430133 
L 253.154698 347.240783 
L 262.962563 347.02187 
L 272.770428 346.740616 
L 282.578294 346.4682 
L 292.386159 346.147101 
L 302.194024 345.870427 
L 312.001889 345.57166 
L 321.809754 345.111742 
L 331.617619 344.756098 
L 341.425485 344.217371 
L 351.23335 343.827023 
L 361.041215 343.438844 
L 370.84908 343.102561 
L 380.656945 342.779775 
L 390.46481 342.424452 
L 400.272676 342.101023 
L 410.080541 341.775987 
L 419.888406 341.535143 
L 429.696271 341.25148 
L 439.504136 341.025658 
L 449.312001 340.794534 
L 459.119867 340.499463 
" clip-path="url(#p69ff105ac0)" style="fill: none; stroke: #8085e9; stroke-linecap: square"/>
   </g>
   <g id="line2d_12">
    <path d="M 76.613125 352.838051 
L 86.42099 352.467947 
L 96.228855 351.978465 
L 106.036721 351.057423 
L 115.844586 350.089867 
L 125.652451 349.271413 
L 135.460316 348.470633 
L 145.268181 347.485323 
L 155.076046 346.361917 
L 164.883912 345.278678 
L 174.691777 344.479505 
L 184.499642 343.686276 
L 194.307507 342.866777 
L 204.115372 342.009361 
L 213.923237 341.029112 
L 223.731103 339.855979 
L 233.538968 338.970686 
L 243.346833 338.058079 
L 253.154698 337.255612 
L 262.962563 336.382369 
L 272.770428 335.576206 
L 282.578294 334.710676 
L 292.386159 333.948055 
L 302.194024 333.225521 
L 312.001889 332.55151 
L 321.809754 331.764306 
L 331.617619 331.076718 
L 341.425485 330.394432 
L 351.23335 329.704996 
L 361.041215 329.019014 
L 370.84908 328.38983 
L 380.656945 327.782979 
L 390.46481 327.156606 
L 400.272676 326.518825 
L 410.080541 325.880322 
L 419.888406 325.285923 
L 429.696271 324.683329 
L 439.504136 324.082824 
L 449.312001 323.502001 
L 459.119867 322.829436 
" clip-path="url(#p69ff105ac0)" style="fill: none; stroke: #f15c80; stroke-linecap: square"/>
   </g>
   <g id="line2d_13">
    <path d="M 76.613125 204.025149 
L 86.42099 202.166677 
L 96.228855 202.114298 
L 106.036721 202.077344 
L 115.844586 202.049227 
L 125.652451 202.012514 
L 135.460316 201.950495 
L 145.268181 201.831117 
L 155.076046 201.688763 
L 164.883912 201.518935 
L 174.691777 201.339627 
L 184.499642 201.132603 
L 194.307507 200.879628 
L 204.115372 200.800016 
L 213.923237 200.737435 
L 223.731103 200.673328 
L 233.538968 200.614362 
L 243.346833 200.563751 
L 253.154698 200.513059 
L 262.962563 200.463814 
L 272.770428 200.413203 
L 282.578294 200.358976 
L 292.386159 200.306116 
L 302.194024 200.247793 
L 312.001889 200.190915 
L 321.809754 200.137975 
L 331.617619 200.093389 
L 341.425485 200.042938 
L 351.23335 199.993853 
L 361.041215 199.942118 
L 370.84908 199.8515 
L 380.656945 199.76779 
L 390.46481 199.709387 
L 400.272676 199.657008 
L 410.080541 199.594186 
L 419.888406 199.541808 
L 429.696271 199.498266 
L 439.504136 199.384512 
L 449.312001 199.335347 
L 459.119867 199.282486 
" clip-path="url(#p69ff105ac0)" style="fill: none; stroke: #e4d354; stroke-linecap: square"/>
   </g>
   <g id="line2d_14">
    <path d="M 76.613125 352.660428 
L 86.42099 352.372035 
L 96.228855 352.243757 
L 106.036721 352.029075 
L 115.844586 351.888138 
L 125.652451 351.745684 
L 135.460316 351.611783 
L 145.268181 351.25682 
L 155.076046 350.775095 
L 164.883912 350.218505 
L 184.499642 349.849279 
L 204.115372 349.234775 
L 223.731103 347.951218 
L 243.346833 347.0705 
L 262.962563 346.242694 
L 282.578294 345.299424 
L 302.194024 344.585996 
L 321.809754 343.824433 
L 341.425485 343.257374 
L 361.041215 342.727239 
L 380.656945 342.266607 
L 400.272676 341.741147 
L 419.888406 341.299451 
L 439.504136 340.874657 
L 459.119867 340.319878 
L 478.735597 339.85264 
L 498.351327 339.351359 
L 517.967058 338.728077 
L 537.582788 338.132355 
L 557.198518 337.433413 
L 576.814249 336.82674 
L 596.429979 336.064642 
L 616.045709 335.42489 
L 635.66144 334.846293 
L 655.27717 334.255538 
L 674.8929 333.714435 
L 694.508631 332.926088 
L 714.124361 332.048854 
L 733.740091 331.290258 
L 753.355822 330.297111 
L 772.971552 329.474634 
L 792.587282 328.91218 
L 812.203013 328.285639 
L 831.818743 327.748744 
L 851.434473 327.327037 
L 871.050204 326.889032 
L 890.665934 326.250142 
L 910.281664 325.436599 
L 929.897395 324.830977 
L 949.513125 324.245396 
" clip-path="url(#p69ff105ac0)" style="fill: none; stroke: #2b908f; stroke-linecap: square"/>
   </g>
   <g id="line2d_15">
    <path d="M 76.613125 352.939482 
L 86.42099 352.807601 
L 96.228855 352.739198 
L 106.036721 352.627913 
L 115.844586 352.55887 
L 125.652451 352.482922 
L 135.460316 352.407091 
L 145.268181 352.202524 
L 155.076046 351.927487 
L 164.883912 351.629843 
L 184.499642 351.428423 
L 204.115372 351.07588 
L 223.731103 350.333591 
L 243.346833 349.857294 
L 262.962563 349.429108 
L 282.578294 348.9537 
L 302.194024 348.584376 
L 321.809754 348.186139 
L 341.425485 347.885188 
L 361.041215 347.609743 
L 380.656945 347.354224 
L 400.272676 347.072763 
L 419.888406 346.838453 
L 439.504136 346.601972 
L 459.119867 346.280571 
L 478.735597 346.027922 
L 498.351327 345.747379 
L 517.967058 345.385323 
L 537.582788 345.048876 
L 557.198518 344.679304 
L 576.814249 344.349557 
L 596.429979 343.921342 
L 616.045709 343.570736 
L 635.66144 343.259531 
L 655.27717 342.936644 
L 674.8929 342.634252 
L 694.508631 342.184305 
L 714.124361 341.691446 
L 733.740091 341.285343 
L 753.355822 340.760934 
L 772.971552 340.320353 
L 792.587282 340.012993 
L 812.203013 339.671636 
L 831.818743 339.390656 
L 851.434473 339.15837 
L 871.050204 338.913762 
L 890.665934 338.54556 
L 910.281664 338.07235 
L 929.897395 337.731635 
L 949.513125 337.403271 
" clip-path="url(#p69ff105ac0)" style="fill: none; stroke: #f45b5b; stroke-linecap: square"/>
   </g>
   <g id="line2d_16">
    <path d="M 76.613125 353.2239 
L 86.42099 353.2239 
L 96.228855 352.859281 
L 106.036721 352.829158 
L 115.844586 352.814796 
L 125.652451 352.799939 
L 135.460316 352.778148 
L 145.268181 352.748054 
L 155.076046 352.673592 
L 164.883912 352.625757 
L 184.499642 352.545513 
L 204.115372 352.483184 
L 223.731103 352.438102 
L 243.346833 352.340101 
L 262.962563 352.287226 
L 282.578294 352.227913 
L 302.194024 352.162511 
L 321.809754 352.066346 
L 341.425485 351.979692 
L 361.041215 351.864955 
L 380.656945 351.765803 
L 400.272676 351.680854 
L 419.888406 351.577755 
L 439.504136 351.421694 
L 459.119867 351.310554 
L 478.735597 351.22039 
L 498.351327 351.127618 
L 517.967058 351.045684 
L 537.582788 350.934384 
L 557.198518 350.827047 
L 576.814249 350.736679 
L 596.429979 350.644708 
L 616.045709 350.427498 
L 635.66144 350.182598 
L 655.27717 350.067992 
L 674.8929 349.963845 
L 694.508631 349.820135 
L 714.124361 349.657942 
L 733.740091 349.478094 
L 753.355822 349.320882 
L 772.971552 349.154013 
L 792.587282 348.976991 
L 812.203013 348.697365 
L 831.818743 348.383131 
L 851.434473 348.077373 
L 871.050204 347.705268 
L 890.665934 347.345499 
L 910.281664 347.061824 
L 929.897395 346.819415 
L 949.513125 346.55708 
" clip-path="url(#p69ff105ac0)" style="fill: none; stroke: #91e8e1; stroke-linecap: square"/>
   </g>
   <g id="line2d_17">
    <path d="M 76.613125 352.607895 
L 86.42099 352.314608 
L 96.228855 352.18268 
L 106.036721 351.956777 
L 115.844586 351.819321 
L 125.652451 351.680043 
L 135.460316 351.545922 
L 145.268181 351.14183 
L 155.076046 350.601085 
L 164.883912 349.985172 
L 184.499642 349.584323 
L 204.115372 348.874143 
L 223.731103 347.390753 
L 243.346833 346.424345 
L 262.962563 345.539357 
L 282.578294 344.543796 
L 302.194024 343.794164 
L 321.809754 342.987663 
L 341.425485 342.373743 
L 361.041215 341.798518 
L 380.656945 341.272889 
L 400.272676 340.703362 
L 419.888406 340.21893 
L 439.504136 339.771495 
L 459.119867 339.128422 
L 478.735597 338.607611 
L 498.351327 338.042114 
L 517.967058 337.326607 
L 537.582788 336.651571 
L 557.198518 335.906124 
L 576.814249 335.249771 
L 596.429979 334.376951 
L 616.045709 333.667821 
L 635.66144 333.054009 
L 655.27717 332.413978 
L 674.8929 331.830507 
L 694.508631 330.931746 
L 714.124361 329.942145 
L 733.740091 329.129514 
L 753.355822 328.071432 
L 772.971552 327.175913 
L 792.587282 326.564803 
L 812.203013 325.884378 
L 831.818743 325.321861 
L 851.434473 324.864822 
L 871.050204 324.372005 
L 890.665934 323.625694 
L 910.281664 322.703385 
L 929.897395 322.024458 
L 949.513125 321.386542 
" clip-path="url(#p69ff105ac0)" style="fill: none; stroke: #7cb5ec; stroke-linecap: square"/>
   </g>
   <g id="line2d_18">
    <path d="M 76.613125 352.691184 
L 86.42099 352.431853 
L 96.228855 352.31518 
L 106.036721 352.117948 
L 115.844586 352.001307 
L 125.652451 351.880196 
L 135.460316 351.762204 
L 145.268181 351.408937 
L 155.076046 350.921115 
L 164.883912 350.375938 
L 184.499642 350.031916 
L 204.115372 349.393815 
L 223.731103 348.052008 
L 243.346833 347.222496 
L 262.962563 346.450919 
L 282.578294 345.571609 
L 302.194024 344.920515 
L 321.809754 344.243791 
L 341.425485 343.710995 
L 361.041215 343.20703 
L 380.656945 342.747508 
L 400.272676 342.251454 
L 419.888406 341.830733 
L 439.504136 341.430818 
L 459.119867 340.88712 
L 478.735597 340.431956 
L 498.351327 339.941433 
L 517.967058 339.322178 
L 537.582788 338.730981 
L 557.198518 338.087461 
L 576.814249 337.495106 
L 596.429979 336.698831 
L 616.045709 336.072452 
L 635.66144 335.536086 
L 655.27717 334.983159 
L 674.8929 334.46633 
L 694.508631 333.674653 
L 714.124361 332.811438 
L 733.740091 332.10233 
L 753.355822 331.175938 
L 772.971552 330.404811 
L 792.587282 329.86211 
L 812.203013 329.266299 
L 831.818743 328.761368 
L 851.434473 328.350857 
L 871.050204 327.901064 
L 890.665934 327.217072 
L 910.281664 326.374713 
L 929.897395 325.78239 
L 949.513125 325.210135 
" clip-path="url(#p69ff105ac0)" style="fill: none; stroke: #434348; stroke-linecap: square"/>
   </g>
   <g id="line2d_19">
    <path d="M 76.613125 353.027627 
L 86.42099 352.640129 
L 96.228855 352.320137 
L 106.036721 351.861882 
L 115.844586 351.520585 
L 125.652451 351.23978 
L 135.460316 350.942205 
L 145.268181 350.57507 
L 155.076046 349.898552 
L 164.883912 349.178229 
L 174.691777 348.889295 
L 184.499642 348.625259 
L 194.307507 348.27515 
L 204.115372 347.917769 
L 213.923237 347.664684 
L 223.731103 347.33357 
L 233.538968 347.030262 
L 243.346833 346.770504 
L 253.154698 346.546681 
L 262.962563 346.274431 
L 272.770428 345.939723 
L 282.578294 345.588503 
L 292.386159 345.171658 
L 302.194024 344.836436 
L 312.001889 344.465023 
L 321.809754 343.983153 
L 331.617619 343.54124 
L 341.425485 343.026686 
L 351.23335 342.594783 
L 361.041215 342.204718 
L 370.84908 341.847508 
L 380.656945 341.517848 
L 390.46481 341.160809 
L 400.272676 340.776562 
L 410.080541 340.453661 
L 419.888406 340.19108 
L 429.696271 339.903344 
L 439.504136 339.660869 
L 449.312001 339.420789 
L 459.119867 339.114059 
" clip-path="url(#p69ff105ac0)" style="fill: none; stroke: #90ed7d; stroke-linecap: square"/>
   </g>
   <g id="line2d_20">
    <path d="M 76.613125 352.867888 
L 86.42099 352.628921 
L 96.228855 352.341527 
L 106.036721 351.750398 
L 115.844586 351.25809 
L 125.652451 350.893521 
L 135.460316 350.50782 
L 145.268181 349.963235 
L 155.076046 349.230249 
L 164.883912 348.581709 
L 174.691777 348.178211 
L 184.499642 347.769495 
L 194.307507 347.312437 
L 204.115372 346.824235 
L 213.923237 346.204872 
L 223.731103 345.35407 
L 233.538968 344.772181 
L 243.346833 344.185929 
L 253.154698 343.715952 
L 262.962563 343.160586 
L 272.770428 342.627637 
L 282.578294 342.064743 
L 292.386159 341.593824 
L 302.194024 341.145408 
L 312.001889 340.731301 
L 321.809754 340.199208 
L 331.617619 339.784673 
L 341.425485 339.366887 
L 351.23335 338.949614 
L 361.041215 338.527978 
L 370.84908 338.144416 
L 380.656945 337.776767 
L 390.46481 337.353933 
L 400.272676 336.958735 
L 410.080541 336.55036 
L 419.888406 336.179546 
L 429.696271 335.816775 
L 439.504136 335.457084 
L 449.312001 335.090291 
L 459.119867 334.619544 
" clip-path="url(#p69ff105ac0)" style="fill: none; stroke: #f7a35c; stroke-linecap: square"/>
   </g>
   <g id="line2d_21">
    <path d="M 76.613125 307.601457 
L 86.42099 306.661075 
L 96.228855 306.64054 
L 106.036721 306.620092 
L 115.844586 306.604777 
L 125.652451 306.583387 
L 135.460316 306.554125 
L 145.268181 306.50664 
L 155.076046 306.442984 
L 164.883912 306.371713 
L 174.691777 306.30472 
L 184.499642 306.223952 
L 194.307507 306.121623 
L 204.115372 306.079785 
L 213.923237 306.04385 
L 223.731103 306.00877 
L 233.538968 305.97352 
L 243.346833 305.940836 
L 253.154698 305.908837 
L 262.962563 305.87718 
L 272.770428 305.84886 
L 282.578294 305.817203 
L 292.386159 305.785974 
L 302.194024 305.749526 
L 312.001889 305.698618 
L 321.809754 305.659689 
L 331.617619 305.630171 
L 341.425485 305.590557 
L 351.23335 305.552825 
L 361.041215 305.5192 
L 370.84908 305.401385 
L 380.656945 305.292468 
L 390.46481 305.235058 
L 400.272676 305.189711 
L 410.080541 305.129221 
L 419.888406 305.093799 
L 429.696271 305.063682 
L 439.504136 304.897098 
L 449.312001 304.857998 
L 459.119867 304.809315 
" clip-path="url(#p69ff105ac0)" style="fill: none; stroke: #8085e9; stroke-linecap: square"/>
   </g>
   <g id="line2d_22">
    <path d="M 76.613125 352.672803 
L 86.42099 352.41224 
L 96.228855 352.298035 
L 106.036721 352.104202 
L 115.844586 351.984935 
L 125.652451 351.858531 
L 135.460316 351.734659 
L 145.268181 351.391129 
L 155.076046 350.900567 
L 164.883912 350.366718 
L 184.499642 350.007421 
L 204.115372 349.364928 
L 223.731103 348.026797 
L 243.346833 347.180669 
L 262.962563 346.384951 
L 282.578294 345.505013 
L 302.194024 344.842889 
L 321.809754 344.12999 
L 341.425485 343.599036 
L 361.041215 343.091698 
L 380.656945 342.642405 
L 400.272676 342.146498 
L 419.888406 341.719354 
L 439.504136 341.320674 
L 459.119867 340.764662 
L 478.735597 340.317281 
L 498.351327 339.814764 
L 517.967058 339.181938 
L 537.582788 338.584456 
L 557.198518 337.921914 
L 576.814249 337.322466 
L 596.429979 336.53173 
L 616.045709 335.897948 
L 635.66144 335.3491 
L 655.27717 334.770885 
L 674.8929 334.232795 
L 694.508631 333.402325 
L 714.124361 332.501949 
L 733.740091 331.770442 
L 753.355822 330.813946 
L 772.971552 330.012762 
L 792.587282 329.463819 
L 812.203013 328.84435 
L 831.818743 328.335033 
L 851.434473 327.917973 
L 871.050204 327.476221 
L 890.665934 326.805991 
L 910.281664 325.964615 
L 929.897395 325.362044 
L 949.513125 324.767955 
" clip-path="url(#p69ff105ac0)" style="fill: none; stroke: #f15c80; stroke-linecap: square"/>
   </g>
   <g id="line2d_23">
    <path d="M 76.613125 353.2239 
L 86.42099 353.2239 
L 96.228855 352.738805 
L 106.036721 352.673611 
L 115.844586 352.641162 
L 125.652451 352.618541 
L 135.460316 352.595975 
L 145.268181 352.563445 
L 155.076046 352.506733 
L 164.883912 352.458921 
L 184.499642 352.346413 
L 204.115372 352.245417 
L 223.731103 352.187439 
L 243.346833 352.073719 
L 262.962563 352.016711 
L 282.578294 351.953576 
L 302.194024 351.890455 
L 321.809754 351.779697 
L 341.425485 351.679239 
L 361.041215 351.568252 
L 380.656945 351.482754 
L 400.272676 351.386833 
L 419.888406 351.295787 
L 439.504136 351.175496 
L 459.119867 351.076089 
L 478.735597 350.978916 
L 498.351327 350.871794 
L 517.967058 350.788409 
L 537.582788 350.694818 
L 557.198518 350.593014 
L 576.814249 350.490335 
L 596.429979 350.357374 
L 616.045709 349.307206 
L 635.66144 348.106627 
L 655.27717 347.988491 
L 674.8929 347.881234 
L 694.508631 347.723862 
L 714.124361 347.573573 
L 733.740091 347.395452 
L 753.355822 347.265965 
L 772.971552 347.128373 
L 792.587282 346.957739 
L 812.203013 346.291481 
L 831.818743 345.480885 
L 851.434473 344.85541 
L 871.050204 343.743576 
L 890.665934 343.211908 
L 910.281664 342.981599 
L 929.897395 342.800059 
L 949.513125 342.66831 
" clip-path="url(#p69ff105ac0)" style="fill: none; stroke: #e4d354; stroke-linecap: square"/>
   </g>
   <g id="line2d_24">
    <path d="M 76.613125 352.444237 
L 86.42099 352.394769 
L 96.228855 352.368401 
L 106.036721 352.341933 
L 115.844586 352.312272 
L 125.652451 352.270537 
L 135.460316 352.241475 
L 145.268181 352.168683 
L 155.076046 352.158954 
L 164.883912 352.140731 
L 184.499642 352.121161 
L 204.115372 352.099532 
L 223.731103 352.076407 
L 243.346833 352.045262 
L 262.962563 352.005486 
L 282.578294 351.964238 
L 302.194024 351.936897 
L 321.809754 351.906837 
L 341.425485 351.874419 
L 361.041215 351.843087 
L 380.656945 351.813264 
L 400.272676 351.78268 
L 419.888406 351.747332 
L 439.504136 351.708728 
L 459.119867 351.665434 
L 478.735597 351.614607 
L 498.351327 351.561197 
L 517.967058 351.493157 
L 537.582788 351.419341 
L 557.198518 351.333926 
L 576.814249 351.241938 
L 596.429979 351.13447 
L 616.045709 351.006771 
L 635.66144 350.881817 
L 655.27717 350.745399 
L 674.8929 350.597968 
L 694.508631 350.443565 
L 714.124361 350.267209 
L 733.740091 350.081199 
L 753.355822 349.874945 
L 772.971552 349.642585 
L 792.587282 349.383471 
L 812.203013 349.118706 
L 831.818743 348.809388 
L 851.434473 348.46759 
L 871.050204 348.038967 
L 890.665934 347.598071 
L 910.281664 347.098477 
L 929.897395 346.489332 
L 949.513125 345.982616 
" clip-path="url(#p69ff105ac0)" style="fill: none; stroke: #2b908f; stroke-linecap: square"/>
   </g>
   <g id="line2d_25">
    <path d="M 76.613125 352.872959 
L 86.42099 352.707816 
L 96.228855 352.631681 
L 106.036721 352.505804 
L 115.844586 352.430691 
L 125.652451 352.353433 
L 135.460316 352.272458 
L 145.268181 352.063535 
L 155.076046 351.746945 
L 164.883912 351.40955 
L 184.499642 351.187169 
L 204.115372 350.795753 
L 223.731103 349.967507 
L 243.346833 349.449191 
L 262.962563 348.94951 
L 282.578294 348.395483 
L 302.194024 347.990123 
L 321.809754 347.562361 
L 341.425485 347.2262 
L 361.041215 346.911319 
L 380.656945 346.632634 
L 400.272676 346.318788 
L 419.888406 346.061707 
L 439.504136 345.820928 
L 459.119867 345.487649 
L 478.735597 345.209476 
L 498.351327 344.899821 
L 517.967058 344.533027 
L 537.582788 344.179866 
L 557.198518 343.771449 
L 576.814249 343.39434 
L 596.429979 342.880552 
L 616.045709 342.477162 
L 635.66144 342.139517 
L 655.27717 341.790959 
L 674.8929 341.474456 
L 694.508631 340.994332 
L 714.124361 340.445295 
L 733.740091 339.990654 
L 753.355822 339.391051 
L 772.971552 338.892454 
L 792.587282 338.547151 
L 812.203013 338.148863 
L 831.818743 337.811742 
L 851.434473 337.549372 
L 871.050204 337.268156 
L 890.665934 336.837213 
L 910.281664 336.285307 
L 929.897395 335.908185 
L 949.513125 335.53846 
" clip-path="url(#p69ff105ac0)" style="fill: none; stroke: #f45b5b; stroke-linecap: square"/>
   </g>
   <g id="line2d_26">
    <path d="M 76.613125 353.2239 
L 86.42099 353.2239 
L 96.228855 352.540503 
L 106.036721 352.470181 
L 115.844586 352.440844 
L 125.652451 352.419914 
L 135.460316 352.39644 
L 145.268181 352.370945 
L 155.076046 352.314692 
L 164.883912 352.256979 
L 184.499642 352.125127 
L 204.115372 352.013269 
L 223.731103 351.940464 
L 243.346833 351.794667 
L 262.962563 351.7331 
L 282.578294 351.662478 
L 302.194024 351.588114 
L 321.809754 351.439548 
L 341.425485 351.319071 
L 361.041215 351.180109 
L 380.656945 351.076807 
L 400.272676 350.96243 
L 419.888406 350.847204 
L 439.504136 350.690643 
L 459.119867 350.567883 
L 478.735597 350.448492 
L 498.351327 350.319059 
L 517.967058 350.23191 
L 537.582788 350.136205 
L 557.198518 350.043655 
L 576.814249 349.961495 
L 596.429979 349.871128 
L 616.045709 349.296122 
L 635.66144 348.461453 
L 655.27717 348.364089 
L 674.8929 348.281717 
L 694.508631 348.146123 
L 714.124361 348.014582 
L 733.740091 347.877017 
L 753.355822 347.78095 
L 772.971552 347.689872 
L 792.587282 347.577066 
L 812.203013 347.209299 
L 831.818743 346.733828 
L 851.434473 346.369454 
L 871.050204 345.677875 
L 890.665934 345.250824 
L 910.281664 345.067321 
L 929.897395 344.92574 
L 949.513125 344.816239 
" clip-path="url(#p69ff105ac0)" style="fill: none; stroke: #91e8e1; stroke-linecap: square"/>
   </g>
   <g id="line2d_27">
    <path d="M 76.613125 353.026694 
L 86.42099 352.935802 
L 96.228855 352.894982 
L 106.036721 352.822231 
L 115.844586 352.781411 
L 125.652451 352.733455 
L 135.460316 352.688644 
L 145.268181 352.555752 
L 155.076046 352.375479 
L 164.883912 352.177154 
L 184.499642 352.046621 
L 204.115372 351.801429 
L 223.731103 351.304438 
L 243.346833 350.996156 
L 262.962563 350.701149 
L 282.578294 350.381059 
L 302.194024 350.13555 
L 321.809754 349.878066 
L 341.425485 349.674631 
L 361.041215 349.484062 
L 380.656945 349.315536 
L 400.272676 349.127326 
L 419.888406 348.971197 
L 439.504136 348.820979 
L 459.119867 348.61121 
L 478.735597 348.442654 
L 498.351327 348.250739 
L 517.967058 348.012592 
L 537.582788 347.792119 
L 557.198518 347.551931 
L 576.814249 347.330309 
L 596.429979 347.029057 
L 616.045709 346.790109 
L 635.66144 346.585873 
L 655.27717 346.371538 
L 674.8929 346.175345 
L 694.508631 345.872233 
L 714.124361 345.536466 
L 733.740091 345.256864 
L 753.355822 344.90034 
L 772.971552 344.595399 
L 792.587282 344.388215 
L 812.203013 344.159154 
L 831.818743 343.964292 
L 851.434473 343.805729 
L 871.050204 343.640619 
L 890.665934 343.383862 
L 910.281664 343.068943 
L 929.897395 342.842634 
L 949.513125 342.626605 
" clip-path="url(#p69ff105ac0)" style="fill: none; stroke: #7cb5ec; stroke-linecap: square"/>
   </g>
   <g id="line2d_28">
    <path d="M 76.613125 353.2239 
L 86.42099 353.2239 
L 96.228855 353.027269 
L 106.036721 352.996185 
L 115.844586 352.977771 
L 125.652451 352.954669 
L 135.460316 352.929754 
L 145.268181 352.912156 
L 155.076046 352.845695 
L 164.883912 352.811149 
L 184.499642 352.739261 
L 204.115372 352.675204 
L 223.731103 352.627837 
L 243.346833 352.546243 
L 262.962563 352.490954 
L 282.578294 352.428333 
L 302.194024 352.357246 
L 321.809754 352.257857 
L 341.425485 352.165921 
L 361.041215 352.039198 
L 380.656945 351.926308 
L 400.272676 351.838288 
L 419.888406 351.720938 
L 439.504136 351.551973 
L 459.119867 351.4233 
L 478.735597 351.337003 
L 498.351327 351.244296 
L 517.967058 351.154901 
L 537.582788 351.028842 
L 557.198518 350.91116 
L 576.814249 350.823745 
L 596.429979 350.737856 
L 616.045709 350.627627 
L 635.66144 350.492891 
L 655.27717 350.371943 
L 674.8929 350.267943 
L 694.508631 350.124619 
L 714.124361 349.949184 
L 733.740091 349.737676 
L 753.355822 349.570193 
L 772.971552 349.406021 
L 792.587282 349.220834 
L 812.203013 348.953932 
L 831.818743 348.682569 
L 851.434473 348.408758 
L 871.050204 348.127735 
L 890.665934 347.777363 
L 910.281664 347.455414 
L 929.897395 347.166318 
L 949.513125 346.85214 
" clip-path="url(#p69ff105ac0)" style="fill: none; stroke: #434348; stroke-linecap: square"/>
   </g>
   <g id="line2d_29">
    <path d="M 76.613125 352.934654 
L 86.42099 352.793098 
L 96.228855 352.72876 
L 106.036721 352.609853 
L 115.844586 352.541074 
L 125.652451 352.468908 
L 135.460316 352.396187 
L 145.268181 352.184325 
L 155.076046 351.901241 
L 164.883912 351.590804 
L 184.499642 351.381787 
L 204.115372 350.993105 
L 223.731103 350.208539 
L 243.346833 349.728457 
L 262.962563 349.268581 
L 282.578294 348.759452 
L 302.194024 348.376959 
L 321.809754 347.957857 
L 341.425485 347.637067 
L 361.041215 347.341576 
L 380.656945 347.083569 
L 400.272676 346.789564 
L 419.888406 346.548697 
L 439.504136 346.31871 
L 459.119867 345.993812 
L 478.735597 345.725258 
L 498.351327 345.424688 
L 517.967058 345.054034 
L 537.582788 344.693011 
L 557.198518 344.306674 
L 576.814249 343.945763 
L 596.429979 343.46525 
L 616.045709 343.08502 
L 635.66144 342.762481 
L 655.27717 342.434987 
L 674.8929 342.131586 
L 694.508631 341.656 
L 714.124361 341.125332 
L 733.740091 340.704634 
L 753.355822 340.122465 
L 772.971552 339.648433 
L 792.587282 339.333513 
L 812.203013 338.967661 
L 831.818743 338.664926 
L 851.434473 338.422546 
L 871.050204 338.154117 
L 890.665934 337.742787 
L 910.281664 337.23814 
L 929.897395 336.891093 
L 949.513125 336.555231 
" clip-path="url(#p69ff105ac0)" style="fill: none; stroke: #90ed7d; stroke-linecap: square"/>
   </g>
   <g id="line2d_30">
    <path d="M 76.613125 353.049493 
L 86.42099 352.665165 
L 96.228855 352.344785 
L 106.036721 351.799368 
L 115.844586 351.395802 
L 125.652451 351.020035 
L 135.460316 350.604842 
L 145.268181 350.122105 
L 155.076046 349.287174 
L 164.883912 348.388398 
L 174.691777 348.014534 
L 184.499642 347.711172 
L 194.307507 347.283929 
L 204.115372 346.895795 
L 213.923237 346.57235 
L 223.731103 346.204617 
L 233.538968 345.875992 
L 243.346833 345.581932 
L 253.154698 345.325079 
L 262.962563 345.039581 
L 272.770428 344.646373 
L 282.578294 344.244604 
L 292.386159 343.81123 
L 302.194024 343.416331 
L 312.001889 343.008537 
L 321.809754 342.492505 
L 331.617619 342.010509 
L 341.425485 341.393532 
L 351.23335 340.866296 
L 361.041215 340.346247 
L 370.84908 339.928305 
L 380.656945 339.559303 
L 390.46481 339.143264 
L 400.272676 338.713062 
L 410.080541 338.291103 
L 419.888406 337.967024 
L 429.696271 337.638189 
L 439.504136 337.363366 
L 449.312001 337.074802 
L 459.119867 336.720493 
" clip-path="url(#p69ff105ac0)" style="fill: none; stroke: #f7a35c; stroke-linecap: square"/>
   </g>
   <g id="line2d_31">
    <path d="M 76.613125 352.776785 
L 86.42099 352.509784 
L 96.228855 352.205048 
L 106.036721 351.639126 
L 115.844586 351.123411 
L 125.652451 350.720373 
L 135.460316 350.305285 
L 145.268181 349.699407 
L 155.076046 348.907707 
L 164.883912 348.170972 
L 174.691777 347.716352 
L 184.499642 347.268603 
L 194.307507 346.776565 
L 204.115372 346.235164 
L 213.923237 345.573159 
L 223.731103 344.558324 
L 233.538968 343.909743 
L 243.346833 343.208312 
L 253.154698 342.680547 
L 262.962563 342.046341 
L 272.770428 341.436975 
L 282.578294 340.744634 
L 292.386159 340.186321 
L 302.194024 339.636465 
L 312.001889 339.154574 
L 321.809754 338.531044 
L 331.617619 338.034884 
L 341.425485 337.567369 
L 351.23335 337.114863 
L 361.041215 336.640266 
L 370.84908 336.229829 
L 380.656945 335.835459 
L 390.46481 335.380099 
L 400.272676 334.951693 
L 410.080541 334.504261 
L 419.888406 334.124266 
L 429.696271 333.744482 
L 439.504136 333.341022 
L 449.312001 332.955002 
L 459.119867 332.458313 
" clip-path="url(#p69ff105ac0)" style="fill: none; stroke: #8085e9; stroke-linecap: square"/>
   </g>
   <g id="line2d_32">
    <path d="M 76.613125 273.024569 
L 86.42099 271.912701 
L 96.228855 271.886593 
L 106.036721 271.863867 
L 115.844586 271.846955 
L 125.652451 271.821375 
L 135.460316 271.781632 
L 145.268181 271.71578 
L 155.076046 271.635553 
L 164.883912 271.54761 
L 174.691777 271.461675 
L 184.499642 271.356502 
L 194.307507 271.227019 
L 204.115372 271.172477 
L 213.923237 271.129562 
L 223.731103 271.082525 
L 233.538968 271.035911 
L 243.346833 270.997436 
L 253.154698 270.958855 
L 262.962563 270.919006 
L 272.770428 270.87884 
L 282.578294 270.837088 
L 292.386159 270.795336 
L 302.194024 270.753161 
L 312.001889 270.703059 
L 321.809754 270.655176 
L 331.617619 270.618921 
L 341.425485 270.574315 
L 351.23335 270.526538 
L 361.041215 270.484047 
L 370.84908 270.362702 
L 380.656945 270.259009 
L 390.46481 270.19654 
L 400.272676 270.149397 
L 410.080541 270.089359 
L 419.888406 270.043802 
L 429.696271 270.003953 
L 439.504136 269.85502 
L 449.312001 269.813374 
L 459.119867 269.752067 
" clip-path="url(#p69ff105ac0)" style="fill: none; stroke: #f15c80; stroke-linecap: square"/>
   </g>
   <g id="line2d_33">
    <path d="M 32.968125 353.2239 
L 993.158125 353.2239 
" clip-path="url(#p69ff105ac0)" style="fill: none; stroke: #dedede; stroke-width: 2; stroke-linecap: square"/>
   </g>
   <g id="text_14">
    <!-- FastQC: Adapter Content -->
    <g transform="translate(413.765625 19.3575) scale(0.16 -0.16)">
     <defs>
      <path id="DejaVuSans-46" d="M 628 4666 
L 3309 4666 
L 3309 4134 
L 1259 4134 
L 1259 2759 
L 3109 2759 
L 3109 2228 
L 1259 2228 
L 1259 0 
L 628 0 
L 628 4666 
z
" transform="scale(0.015625)"/>
      <path id="DejaVuSans-61" d="M 2194 1759 
Q 1497 1759 1228 1600 
Q 959 1441 959 1056 
Q 959 750 1161 570 
Q 1363 391 1709 391 
Q 2188 391 2477 730 
Q 2766 1069 2766 1631 
L 2766 1759 
L 2194 1759 
z
M 3341 1997 
L 3341 0 
L 2766 0 
L 2766 531 
Q 2569 213 2275 61 
Q 1981 -91 1556 -91 
Q 1019 -91 701 211 
Q 384 513 384 1019 
Q 384 1609 779 1909 
Q 1175 2209 1959 2209 
L 2766 2209 
L 2766 2266 
Q 2766 2663 2505 2880 
Q 2244 3097 1772 3097 
Q 1472 3097 1187 3025 
Q 903 2953 641 2809 
L 641 3341 
Q 956 3463 1253 3523 
Q 1550 3584 1831 3584 
Q 2591 3584 2966 3190 
Q 3341 2797 3341 1997 
z
" transform="scale(0.015625)"/>
      <path id="DejaVuSans-51" d="M 2522 4238 
Q 1834 4238 1429 3725 
Q 1025 3213 1025 2328 
Q 1025 1447 1429 934 
Q 1834 422 2522 422 
Q 3209 422 3611 934 
Q 4013 1447 4013 2328 
Q 4013 3213 3611 3725 
Q 3209 4238 2522 4238 
z
M 3406 84 
L 4238 -825 
L 3475 -825 
L 2784 -78 
Q 2681 -84 2626 -87 
Q 2572 -91 2522 -91 
Q 1538 -91 948 567 
Q 359 1225 359 2328 
Q 359 3434 948 4092 
Q 1538 4750 2522 4750 
Q 3503 4750 4090 4092 
Q 4678 3434 4678 2328 
Q 4678 1516 4351 937 
Q 4025 359 3406 84 
z
" transform="scale(0.015625)"/>
      <path id="DejaVuSans-43" d="M 4122 4306 
L 4122 3641 
Q 3803 3938 3442 4084 
Q 3081 4231 2675 4231 
Q 1875 4231 1450 3742 
Q 1025 3253 1025 2328 
Q 1025 1406 1450 917 
Q 1875 428 2675 428 
Q 3081 428 3442 575 
Q 3803 722 4122 1019 
L 4122 359 
Q 3791 134 3420 21 
Q 3050 -91 2638 -91 
Q 1578 -91 968 557 
Q 359 1206 359 2328 
Q 359 3453 968 4101 
Q 1578 4750 2638 4750 
Q 3056 4750 3426 4639 
Q 3797 4528 4122 4306 
z
" transform="scale(0.015625)"/>
      <path id="DejaVuSans-3a" d="M 750 794 
L 1409 794 
L 1409 0 
L 750 0 
L 750 794 
z
M 750 3309 
L 1409 3309 
L 1409 2516 
L 750 2516 
L 750 3309 
z
" transform="scale(0.015625)"/>
      <path id="DejaVuSans-41" d="M 2188 4044 
L 1331 1722 
L 3047 1722 
L 2188 4044 
z
M 1831 4666 
L 2547 4666 
L 4325 0 
L 3669 0 
L 3244 1197 
L 1141 1197 
L 716 0 
L 50 0 
L 1831 4666 
z
" transform="scale(0.015625)"/>
      <path id="DejaVuSans-64" d="M 2906 2969 
L 2906 4863 
L 3481 4863 
L 3481 0 
L 2906 0 
L 2906 525 
Q 2725 213 2448 61 
Q 2172 -91 1784 -91 
Q 1150 -91 751 415 
Q 353 922 353 1747 
Q 353 2572 751 3078 
Q 1150 3584 1784 3584 
Q 2172 3584 2448 3432 
Q 2725 3281 2906 2969 
z
M 947 1747 
Q 947 1113 1208 752 
Q 1469 391 1925 391 
Q 2381 391 2643 752 
Q 2906 1113 2906 1747 
Q 2906 2381 2643 2742 
Q 2381 3103 1925 3103 
Q 1469 3103 1208 2742 
Q 947 2381 947 1747 
z
" transform="scale(0.015625)"/>
      <path id="DejaVuSans-72" d="M 2631 2963 
Q 2534 3019 2420 3045 
Q 2306 3072 2169 3072 
Q 1681 3072 1420 2755 
Q 1159 2438 1159 1844 
L 1159 0 
L 581 0 
L 581 3500 
L 1159 3500 
L 1159 2956 
Q 1341 3275 1631 3429 
Q 1922 3584 2338 3584 
Q 2397 3584 2469 3576 
Q 2541 3569 2628 3553 
L 2631 2963 
z
" transform="scale(0.015625)"/>
     </defs>
     <use xlink:href="#DejaVuSans-46"/>
     <use xlink:href="#DejaVuSans-61" x="48.394531"/>
     <use xlink:href="#DejaVuSans-73" x="109.673828"/>
     <use xlink:href="#DejaVuSans-74" x="161.773438"/>
     <use xlink:href="#DejaVuSans-51" x="200.982422"/>
     <use xlink:href="#DejaVuSans-43" x="279.693359"/>
     <use xlink:href="#DejaVuSans-3a" x="349.517578"/>
     <use xlink:href="#DejaVuSans-20" x="383.208984"/>
     <use xlink:href="#DejaVuSans-41" x="414.996094"/>
     <use xlink:href="#DejaVuSans-64" x="481.654297"/>
     <use xlink:href="#DejaVuSans-61" x="545.130859"/>
     <use xlink:href="#DejaVuSans-70" x="606.410156"/>
     <use xlink:href="#DejaVuSans-74" x="669.886719"/>
     <use xlink:href="#DejaVuSans-65" x="709.095703"/>
     <use xlink:href="#DejaVuSans-72" x="770.619141"/>
     <use xlink:href="#DejaVuSans-20" x="811.732422"/>
     <use xlink:href="#DejaVuSans-43" x="843.519531"/>
     <use xlink:href="#DejaVuSans-6f" x="913.34375"/>
     <use xlink:href="#DejaVuSans-6e" x="974.525391"/>
     <use xlink:href="#DejaVuSans-74" x="1037.904297"/>
     <use xlink:href="#DejaVuSans-65" x="1077.113281"/>
     <use xlink:href="#DejaVuSans-6e" x="1138.636719"/>
     <use xlink:href="#DejaVuSans-74" x="1202.015625"/>
    </g>
   </g>
  </g>
 </g>
 <defs>
  <clipPath id="p69ff105ac0">
   <rect x="32.968125" y="35.2559" width="960.19" height="317.968"/>
  </clipPath>
 </defs>
</svg>
