<?xml version="1.0" encoding="utf-8" standalone="no"?>
<!DOCTYPE svg PUBLIC "-//W3C//DTD SVG 1.1//EN"
  "http://www.w3.org/Graphics/SVG/1.1/DTD/svg11.dtd">
<svg xmlns:xlink="http://www.w3.org/1999/xlink" width="1000.098125pt" height="330.541644pt" viewBox="0 0 1000.098125 330.541644" xmlns="http://www.w3.org/2000/svg" version="1.1">
 <metadata>
  <rdf:RDF xmlns:dc="http://purl.org/dc/elements/1.1/" xmlns:cc="http://creativecommons.org/ns#" xmlns:rdf="http://www.w3.org/1999/02/22-rdf-syntax-ns#">
   <cc:Work>
    <dc:type rdf:resource="http://purl.org/dc/dcmitype/StillImage"/>
    <dc:date>2025-04-01T05:20:30.285944</dc:date>
    <dc:format>image/svg+xml</dc:format>
    <dc:creator>
     <cc:Agent>
      <dc:title>Matplotlib v3.8.2, https://matplotlib.org/</dc:title>
     </cc:Agent>
    </dc:creator>
   </cc:Work>
  </rdf:RDF>
 </metadata>
 <defs>
  <style type="text/css">*{stroke-linejoin: round; stroke-linecap: butt}</style>
 </defs>
 <g id="figure_1">
  <g id="axes_1">
   <g id="patch_1">
    <path d="M 58.418125 273.99006 
L 985.263125 273.99006 
L 985.263125 31.48286 
L 58.418125 31.48286 
z
" style="fill: #ffffff"/>
   </g>
   <g id="matplotlib.axis_1">
    <g id="xtick_1">
     <g id="text_1">
      <!-- 0 -->
      <g transform="translate(55.873125 287.06881) scale(0.08 -0.08)">
       <defs>
        <path id="DejaVuSans-30" d="M 2034 4250 
Q 1547 4250 1301 3770 
Q 1056 3291 1056 2328 
Q 1056 1369 1301 889 
Q 1547 409 2034 409 
Q 2525 409 2770 889 
Q 3016 1369 3016 2328 
Q 3016 3291 2770 3770 
Q 2525 4250 2034 4250 
z
M 2034 4750 
Q 2819 4750 3233 4129 
Q 3647 3509 3647 2328 
Q 3647 1150 3233 529 
Q 2819 -91 2034 -91 
Q 1250 -91 836 529 
Q 422 1150 422 2328 
Q 422 3509 836 4129 
Q 1250 4750 2034 4750 
z
" transform="scale(0.015625)"/>
       </defs>
       <use xlink:href="#DejaVuSans-30"/>
      </g>
     </g>
    </g>
    <g id="xtick_2">
     <g id="text_2">
      <!-- 20 -->
      <g transform="translate(238.697125 287.06881) scale(0.08 -0.08)">
       <defs>
        <path id="DejaVuSans-32" d="M 1228 531 
L 3431 531 
L 3431 0 
L 469 0 
L 469 531 
Q 828 903 1448 1529 
Q 2069 2156 2228 2338 
Q 2531 2678 2651 2914 
Q 2772 3150 2772 3378 
Q 2772 3750 2511 3984 
Q 2250 4219 1831 4219 
Q 1534 4219 1204 4116 
Q 875 4013 500 3803 
L 500 4441 
Q 881 4594 1212 4672 
Q 1544 4750 1819 4750 
Q 2544 4750 2975 4387 
Q 3406 4025 3406 3419 
Q 3406 3131 3298 2873 
Q 3191 2616 2906 2266 
Q 2828 2175 2409 1742 
Q 1991 1309 1228 531 
z
" transform="scale(0.015625)"/>
       </defs>
       <use xlink:href="#DejaVuSans-32"/>
       <use xlink:href="#DejaVuSans-30" x="63.623047"/>
      </g>
     </g>
    </g>
    <g id="xtick_3">
     <g id="text_3">
      <!-- 40 -->
      <g transform="translate(424.066125 287.06881) scale(0.08 -0.08)">
       <defs>
        <path id="DejaVuSans-34" d="M 2419 4116 
L 825 1625 
L 2419 1625 
L 2419 4116 
z
M 2253 4666 
L 3047 4666 
L 3047 1625 
L 3713 1625 
L 3713 1100 
L 3047 1100 
L 3047 0 
L 2419 0 
L 2419 1100 
L 313 1100 
L 313 1709 
L 2253 4666 
z
" transform="scale(0.015625)"/>
       </defs>
       <use xlink:href="#DejaVuSans-34"/>
       <use xlink:href="#DejaVuSans-30" x="63.623047"/>
      </g>
     </g>
    </g>
    <g id="xtick_4">
     <g id="text_4">
      <!-- 60 -->
      <g transform="translate(609.435125 287.06881) scale(0.08 -0.08)">
       <defs>
        <path id="DejaVuSans-36" d="M 2113 2584 
Q 1688 2584 1439 2293 
Q 1191 2003 1191 1497 
Q 1191 994 1439 701 
Q 1688 409 2113 409 
Q 2538 409 2786 701 
Q 3034 994 3034 1497 
Q 3034 2003 2786 2293 
Q 2538 2584 2113 2584 
z
M 3366 4563 
L 3366 3988 
Q 3128 4100 2886 4159 
Q 2644 4219 2406 4219 
Q 1781 4219 1451 3797 
Q 1122 3375 1075 2522 
Q 1259 2794 1537 2939 
Q 1816 3084 2150 3084 
Q 2853 3084 3261 2657 
Q 3669 2231 3669 1497 
Q 3669 778 3244 343 
Q 2819 -91 2113 -91 
Q 1303 -91 875 529 
Q 447 1150 447 2328 
Q 447 3434 972 4092 
Q 1497 4750 2381 4750 
Q 2619 4750 2861 4703 
Q 3103 4656 3366 4563 
z
" transform="scale(0.015625)"/>
       </defs>
       <use xlink:href="#DejaVuSans-36"/>
       <use xlink:href="#DejaVuSans-30" x="63.623047"/>
      </g>
     </g>
    </g>
    <g id="xtick_5">
     <g id="text_5">
      <!-- 80 -->
      <g transform="translate(794.804125 287.06881) scale(0.08 -0.08)">
       <defs>
        <path id="DejaVuSans-38" d="M 2034 2216 
Q 1584 2216 1326 1975 
Q 1069 1734 1069 1313 
Q 1069 891 1326 650 
Q 1584 409 2034 409 
Q 2484 409 2743 651 
Q 3003 894 3003 1313 
Q 3003 1734 2745 1975 
Q 2488 2216 2034 2216 
z
M 1403 2484 
Q 997 2584 770 2862 
Q 544 3141 544 3541 
Q 544 4100 942 4425 
Q 1341 4750 2034 4750 
Q 2731 4750 3128 4425 
Q 3525 4100 3525 3541 
Q 3525 3141 3298 2862 
Q 3072 2584 2669 2484 
Q 3125 2378 3379 2068 
Q 3634 1759 3634 1313 
Q 3634 634 3220 271 
Q 2806 -91 2034 -91 
Q 1263 -91 848 271 
Q 434 634 434 1313 
Q 434 1759 690 2068 
Q 947 2378 1403 2484 
z
M 1172 3481 
Q 1172 3119 1398 2916 
Q 1625 2713 2034 2713 
Q 2441 2713 2670 2916 
Q 2900 3119 2900 3481 
Q 2900 3844 2670 4047 
Q 2441 4250 2034 4250 
Q 1625 4250 1398 4047 
Q 1172 3844 1172 3481 
z
" transform="scale(0.015625)"/>
       </defs>
       <use xlink:href="#DejaVuSans-38"/>
       <use xlink:href="#DejaVuSans-30" x="63.623047"/>
      </g>
     </g>
    </g>
    <g id="xtick_6">
     <g id="text_6">
      <!-- 100 -->
      <g transform="translate(977.628125 287.06881) scale(0.08 -0.08)">
       <defs>
        <path id="DejaVuSans-31" d="M 794 531 
L 1825 531 
L 1825 4091 
L 703 3866 
L 703 4441 
L 1819 4666 
L 2450 4666 
L 2450 531 
L 3481 531 
L 3481 0 
L 794 0 
L 794 531 
z
" transform="scale(0.015625)"/>
       </defs>
       <use xlink:href="#DejaVuSans-31"/>
       <use xlink:href="#DejaVuSans-30" x="63.623047"/>
       <use xlink:href="#DejaVuSans-30" x="127.246094"/>
      </g>
     </g>
    </g>
    <g id="text_7">
     <!-- Transcript Position (%) -->
     <g transform="translate(466.008594 300.330997) scale(0.1 -0.1)">
      <defs>
       <path id="DejaVuSans-54" d="M -19 4666 
L 3928 4666 
L 3928 4134 
L 2272 4134 
L 2272 0 
L 1638 0 
L 1638 4134 
L -19 4134 
L -19 4666 
z
" transform="scale(0.015625)"/>
       <path id="DejaVuSans-72" d="M 2631 2963 
Q 2534 3019 2420 3045 
Q 2306 3072 2169 3072 
Q 1681 3072 1420 2755 
Q 1159 2438 1159 1844 
L 1159 0 
L 581 0 
L 581 3500 
L 1159 3500 
L 1159 2956 
Q 1341 3275 1631 3429 
Q 1922 3584 2338 3584 
Q 2397 3584 2469 3576 
Q 2541 3569 2628 3553 
L 2631 2963 
z
" transform="scale(0.015625)"/>
       <path id="DejaVuSans-61" d="M 2194 1759 
Q 1497 1759 1228 1600 
Q 959 1441 959 1056 
Q 959 750 1161 570 
Q 1363 391 1709 391 
Q 2188 391 2477 730 
Q 2766 1069 2766 1631 
L 2766 1759 
L 2194 1759 
z
M 3341 1997 
L 3341 0 
L 2766 0 
L 2766 531 
Q 2569 213 2275 61 
Q 1981 -91 1556 -91 
Q 1019 -91 701 211 
Q 384 513 384 1019 
Q 384 1609 779 1909 
Q 1175 2209 1959 2209 
L 2766 2209 
L 2766 2266 
Q 2766 2663 2505 2880 
Q 2244 3097 1772 3097 
Q 1472 3097 1187 3025 
Q 903 2953 641 2809 
L 641 3341 
Q 956 3463 1253 3523 
Q 1550 3584 1831 3584 
Q 2591 3584 2966 3190 
Q 3341 2797 3341 1997 
z
" transform="scale(0.015625)"/>
       <path id="DejaVuSans-6e" d="M 3513 2113 
L 3513 0 
L 2938 0 
L 2938 2094 
Q 2938 2591 2744 2837 
Q 2550 3084 2163 3084 
Q 1697 3084 1428 2787 
Q 1159 2491 1159 1978 
L 1159 0 
L 581 0 
L 581 3500 
L 1159 3500 
L 1159 2956 
Q 1366 3272 1645 3428 
Q 1925 3584 2291 3584 
Q 2894 3584 3203 3211 
Q 3513 2838 3513 2113 
z
" transform="scale(0.015625)"/>
       <path id="DejaVuSans-73" d="M 2834 3397 
L 2834 2853 
Q 2591 2978 2328 3040 
Q 2066 3103 1784 3103 
Q 1356 3103 1142 2972 
Q 928 2841 928 2578 
Q 928 2378 1081 2264 
Q 1234 2150 1697 2047 
L 1894 2003 
Q 2506 1872 2764 1633 
Q 3022 1394 3022 966 
Q 3022 478 2636 193 
Q 2250 -91 1575 -91 
Q 1294 -91 989 -36 
Q 684 19 347 128 
L 347 722 
Q 666 556 975 473 
Q 1284 391 1588 391 
Q 1994 391 2212 530 
Q 2431 669 2431 922 
Q 2431 1156 2273 1281 
Q 2116 1406 1581 1522 
L 1381 1569 
Q 847 1681 609 1914 
Q 372 2147 372 2553 
Q 372 3047 722 3315 
Q 1072 3584 1716 3584 
Q 2034 3584 2315 3537 
Q 2597 3491 2834 3397 
z
" transform="scale(0.015625)"/>
       <path id="DejaVuSans-63" d="M 3122 3366 
L 3122 2828 
Q 2878 2963 2633 3030 
Q 2388 3097 2138 3097 
Q 1578 3097 1268 2742 
Q 959 2388 959 1747 
Q 959 1106 1268 751 
Q 1578 397 2138 397 
Q 2388 397 2633 464 
Q 2878 531 3122 666 
L 3122 134 
Q 2881 22 2623 -34 
Q 2366 -91 2075 -91 
Q 1284 -91 818 406 
Q 353 903 353 1747 
Q 353 2603 823 3093 
Q 1294 3584 2113 3584 
Q 2378 3584 2631 3529 
Q 2884 3475 3122 3366 
z
" transform="scale(0.015625)"/>
       <path id="DejaVuSans-69" d="M 603 3500 
L 1178 3500 
L 1178 0 
L 603 0 
L 603 3500 
z
M 603 4863 
L 1178 4863 
L 1178 4134 
L 603 4134 
L 603 4863 
z
" transform="scale(0.015625)"/>
       <path id="DejaVuSans-70" d="M 1159 525 
L 1159 -1331 
L 581 -1331 
L 581 3500 
L 1159 3500 
L 1159 2969 
Q 1341 3281 1617 3432 
Q 1894 3584 2278 3584 
Q 2916 3584 3314 3078 
Q 3713 2572 3713 1747 
Q 3713 922 3314 415 
Q 2916 -91 2278 -91 
Q 1894 -91 1617 61 
Q 1341 213 1159 525 
z
M 3116 1747 
Q 3116 2381 2855 2742 
Q 2594 3103 2138 3103 
Q 1681 3103 1420 2742 
Q 1159 2381 1159 1747 
Q 1159 1113 1420 752 
Q 1681 391 2138 391 
Q 2594 391 2855 752 
Q 3116 1113 3116 1747 
z
" transform="scale(0.015625)"/>
       <path id="DejaVuSans-74" d="M 1172 4494 
L 1172 3500 
L 2356 3500 
L 2356 3053 
L 1172 3053 
L 1172 1153 
Q 1172 725 1289 603 
Q 1406 481 1766 481 
L 2356 481 
L 2356 0 
L 1766 0 
Q 1100 0 847 248 
Q 594 497 594 1153 
L 594 3053 
L 172 3053 
L 172 3500 
L 594 3500 
L 594 4494 
L 1172 4494 
z
" transform="scale(0.015625)"/>
       <path id="DejaVuSans-20" transform="scale(0.015625)"/>
       <path id="DejaVuSans-50" d="M 1259 4147 
L 1259 2394 
L 2053 2394 
Q 2494 2394 2734 2622 
Q 2975 2850 2975 3272 
Q 2975 3691 2734 3919 
Q 2494 4147 2053 4147 
L 1259 4147 
z
M 628 4666 
L 2053 4666 
Q 2838 4666 3239 4311 
Q 3641 3956 3641 3272 
Q 3641 2581 3239 2228 
Q 2838 1875 2053 1875 
L 1259 1875 
L 1259 0 
L 628 0 
L 628 4666 
z
" transform="scale(0.015625)"/>
       <path id="DejaVuSans-6f" d="M 1959 3097 
Q 1497 3097 1228 2736 
Q 959 2375 959 1747 
Q 959 1119 1226 758 
Q 1494 397 1959 397 
Q 2419 397 2687 759 
Q 2956 1122 2956 1747 
Q 2956 2369 2687 2733 
Q 2419 3097 1959 3097 
z
M 1959 3584 
Q 2709 3584 3137 3096 
Q 3566 2609 3566 1747 
Q 3566 888 3137 398 
Q 2709 -91 1959 -91 
Q 1206 -91 779 398 
Q 353 888 353 1747 
Q 353 2609 779 3096 
Q 1206 3584 1959 3584 
z
" transform="scale(0.015625)"/>
       <path id="DejaVuSans-28" d="M 1984 4856 
Q 1566 4138 1362 3434 
Q 1159 2731 1159 2009 
Q 1159 1288 1364 580 
Q 1569 -128 1984 -844 
L 1484 -844 
Q 1016 -109 783 600 
Q 550 1309 550 2009 
Q 550 2706 781 3412 
Q 1013 4119 1484 4856 
L 1984 4856 
z
" transform="scale(0.015625)"/>
       <path id="DejaVuSans-25" d="M 4653 2053 
Q 4381 2053 4226 1822 
Q 4072 1591 4072 1178 
Q 4072 772 4226 539 
Q 4381 306 4653 306 
Q 4919 306 5073 539 
Q 5228 772 5228 1178 
Q 5228 1588 5073 1820 
Q 4919 2053 4653 2053 
z
M 4653 2450 
Q 5147 2450 5437 2106 
Q 5728 1763 5728 1178 
Q 5728 594 5436 251 
Q 5144 -91 4653 -91 
Q 4153 -91 3862 251 
Q 3572 594 3572 1178 
Q 3572 1766 3864 2108 
Q 4156 2450 4653 2450 
z
M 1428 4353 
Q 1159 4353 1004 4120 
Q 850 3888 850 3481 
Q 850 3069 1003 2837 
Q 1156 2606 1428 2606 
Q 1700 2606 1854 2837 
Q 2009 3069 2009 3481 
Q 2009 3884 1853 4118 
Q 1697 4353 1428 4353 
z
M 4250 4750 
L 4750 4750 
L 1831 -91 
L 1331 -91 
L 4250 4750 
z
M 1428 4750 
Q 1922 4750 2215 4408 
Q 2509 4066 2509 3481 
Q 2509 2891 2217 2550 
Q 1925 2209 1428 2209 
Q 931 2209 642 2551 
Q 353 2894 353 3481 
Q 353 4063 643 4406 
Q 934 4750 1428 4750 
z
" transform="scale(0.015625)"/>
       <path id="DejaVuSans-29" d="M 513 4856 
L 1013 4856 
Q 1481 4119 1714 3412 
Q 1947 2706 1947 2009 
Q 1947 1309 1714 600 
Q 1481 -109 1013 -844 
L 513 -844 
Q 928 -128 1133 580 
Q 1338 1288 1338 2009 
Q 1338 2731 1133 3434 
Q 928 4138 513 4856 
z
" transform="scale(0.015625)"/>
      </defs>
      <use xlink:href="#DejaVuSans-54"/>
      <use xlink:href="#DejaVuSans-72" x="46.333984"/>
      <use xlink:href="#DejaVuSans-61" x="87.447266"/>
      <use xlink:href="#DejaVuSans-6e" x="148.726562"/>
      <use xlink:href="#DejaVuSans-73" x="212.105469"/>
      <use xlink:href="#DejaVuSans-63" x="264.205078"/>
      <use xlink:href="#DejaVuSans-72" x="319.185547"/>
      <use xlink:href="#DejaVuSans-69" x="360.298828"/>
      <use xlink:href="#DejaVuSans-70" x="388.082031"/>
      <use xlink:href="#DejaVuSans-74" x="451.558594"/>
      <use xlink:href="#DejaVuSans-20" x="490.767578"/>
      <use xlink:href="#DejaVuSans-50" x="522.554688"/>
      <use xlink:href="#DejaVuSans-6f" x="579.232422"/>
      <use xlink:href="#DejaVuSans-73" x="640.414062"/>
      <use xlink:href="#DejaVuSans-69" x="692.513672"/>
      <use xlink:href="#DejaVuSans-74" x="720.296875"/>
      <use xlink:href="#DejaVuSans-69" x="759.505859"/>
      <use xlink:href="#DejaVuSans-6f" x="787.289062"/>
      <use xlink:href="#DejaVuSans-6e" x="848.470703"/>
      <use xlink:href="#DejaVuSans-20" x="911.849609"/>
      <use xlink:href="#DejaVuSans-28" x="943.636719"/>
      <use xlink:href="#DejaVuSans-25" x="982.650391"/>
      <use xlink:href="#DejaVuSans-29" x="1077.669922"/>
     </g>
    </g>
   </g>
   <g id="matplotlib.axis_2">
    <g id="ytick_1">
     <g id="line2d_1">
      <path d="M 58.418125 273.99006 
L 985.263125 273.99006 
" clip-path="url(#p75dd13b057)" style="fill: none; stroke: #dedede; stroke-linecap: square"/>
     </g>
     <g id="text_8">
      <!-- 0 -->
      <g transform="translate(46.328125 277.029435) scale(0.08 -0.08)">
       <use xlink:href="#DejaVuSans-30"/>
      </g>
     </g>
    </g>
    <g id="ytick_2">
     <g id="line2d_2">
      <path d="M 58.418125 222.491809 
L 985.263125 222.491809 
" clip-path="url(#p75dd13b057)" style="fill: none; stroke: #dedede; stroke-linecap: square"/>
     </g>
     <g id="text_9">
      <!-- 100000 -->
      <g transform="translate(20.878125 225.531184) scale(0.08 -0.08)">
       <use xlink:href="#DejaVuSans-31"/>
       <use xlink:href="#DejaVuSans-30" x="63.623047"/>
       <use xlink:href="#DejaVuSans-30" x="127.246094"/>
       <use xlink:href="#DejaVuSans-30" x="190.869141"/>
       <use xlink:href="#DejaVuSans-30" x="254.492188"/>
       <use xlink:href="#DejaVuSans-30" x="318.115234"/>
      </g>
     </g>
    </g>
    <g id="ytick_3">
     <g id="line2d_3">
      <path d="M 58.418125 170.993558 
L 985.263125 170.993558 
" clip-path="url(#p75dd13b057)" style="fill: none; stroke: #dedede; stroke-linecap: square"/>
     </g>
     <g id="text_10">
      <!-- 200000 -->
      <g transform="translate(20.878125 174.032933) scale(0.08 -0.08)">
       <use xlink:href="#DejaVuSans-32"/>
       <use xlink:href="#DejaVuSans-30" x="63.623047"/>
       <use xlink:href="#DejaVuSans-30" x="127.246094"/>
       <use xlink:href="#DejaVuSans-30" x="190.869141"/>
       <use xlink:href="#DejaVuSans-30" x="254.492188"/>
       <use xlink:href="#DejaVuSans-30" x="318.115234"/>
      </g>
     </g>
    </g>
    <g id="ytick_4">
     <g id="line2d_4">
      <path d="M 58.418125 119.495307 
L 985.263125 119.495307 
" clip-path="url(#p75dd13b057)" style="fill: none; stroke: #dedede; stroke-linecap: square"/>
     </g>
     <g id="text_11">
      <!-- 300000 -->
      <g transform="translate(20.878125 122.534682) scale(0.08 -0.08)">
       <defs>
        <path id="DejaVuSans-33" d="M 2597 2516 
Q 3050 2419 3304 2112 
Q 3559 1806 3559 1356 
Q 3559 666 3084 287 
Q 2609 -91 1734 -91 
Q 1441 -91 1130 -33 
Q 819 25 488 141 
L 488 750 
Q 750 597 1062 519 
Q 1375 441 1716 441 
Q 2309 441 2620 675 
Q 2931 909 2931 1356 
Q 2931 1769 2642 2001 
Q 2353 2234 1838 2234 
L 1294 2234 
L 1294 2753 
L 1863 2753 
Q 2328 2753 2575 2939 
Q 2822 3125 2822 3475 
Q 2822 3834 2567 4026 
Q 2313 4219 1838 4219 
Q 1578 4219 1281 4162 
Q 984 4106 628 3988 
L 628 4550 
Q 988 4650 1302 4700 
Q 1616 4750 1894 4750 
Q 2613 4750 3031 4423 
Q 3450 4097 3450 3541 
Q 3450 3153 3228 2886 
Q 3006 2619 2597 2516 
z
" transform="scale(0.015625)"/>
       </defs>
       <use xlink:href="#DejaVuSans-33"/>
       <use xlink:href="#DejaVuSans-30" x="63.623047"/>
       <use xlink:href="#DejaVuSans-30" x="127.246094"/>
       <use xlink:href="#DejaVuSans-30" x="190.869141"/>
       <use xlink:href="#DejaVuSans-30" x="254.492188"/>
       <use xlink:href="#DejaVuSans-30" x="318.115234"/>
      </g>
     </g>
    </g>
    <g id="ytick_5">
     <g id="line2d_5">
      <path d="M 58.418125 67.997057 
L 985.263125 67.997057 
" clip-path="url(#p75dd13b057)" style="fill: none; stroke: #dedede; stroke-linecap: square"/>
     </g>
     <g id="text_12">
      <!-- 400000 -->
      <g transform="translate(20.878125 71.036432) scale(0.08 -0.08)">
       <use xlink:href="#DejaVuSans-34"/>
       <use xlink:href="#DejaVuSans-30" x="63.623047"/>
       <use xlink:href="#DejaVuSans-30" x="127.246094"/>
       <use xlink:href="#DejaVuSans-30" x="190.869141"/>
       <use xlink:href="#DejaVuSans-30" x="254.492188"/>
       <use xlink:href="#DejaVuSans-30" x="318.115234"/>
      </g>
     </g>
    </g>
    <g id="text_13">
     <!-- Cumulative mapped-read depth -->
     <g transform="translate(14.798437 232.601304) rotate(-90) scale(0.1 -0.1)">
      <defs>
       <path id="DejaVuSans-43" d="M 4122 4306 
L 4122 3641 
Q 3803 3938 3442 4084 
Q 3081 4231 2675 4231 
Q 1875 4231 1450 3742 
Q 1025 3253 1025 2328 
Q 1025 1406 1450 917 
Q 1875 428 2675 428 
Q 3081 428 3442 575 
Q 3803 722 4122 1019 
L 4122 359 
Q 3791 134 3420 21 
Q 3050 -91 2638 -91 
Q 1578 -91 968 557 
Q 359 1206 359 2328 
Q 359 3453 968 4101 
Q 1578 4750 2638 4750 
Q 3056 4750 3426 4639 
Q 3797 4528 4122 4306 
z
" transform="scale(0.015625)"/>
       <path id="DejaVuSans-75" d="M 544 1381 
L 544 3500 
L 1119 3500 
L 1119 1403 
Q 1119 906 1312 657 
Q 1506 409 1894 409 
Q 2359 409 2629 706 
Q 2900 1003 2900 1516 
L 2900 3500 
L 3475 3500 
L 3475 0 
L 2900 0 
L 2900 538 
Q 2691 219 2414 64 
Q 2138 -91 1772 -91 
Q 1169 -91 856 284 
Q 544 659 544 1381 
z
M 1991 3584 
L 1991 3584 
z
" transform="scale(0.015625)"/>
       <path id="DejaVuSans-6d" d="M 3328 2828 
Q 3544 3216 3844 3400 
Q 4144 3584 4550 3584 
Q 5097 3584 5394 3201 
Q 5691 2819 5691 2113 
L 5691 0 
L 5113 0 
L 5113 2094 
Q 5113 2597 4934 2840 
Q 4756 3084 4391 3084 
Q 3944 3084 3684 2787 
Q 3425 2491 3425 1978 
L 3425 0 
L 2847 0 
L 2847 2094 
Q 2847 2600 2669 2842 
Q 2491 3084 2119 3084 
Q 1678 3084 1418 2786 
Q 1159 2488 1159 1978 
L 1159 0 
L 581 0 
L 581 3500 
L 1159 3500 
L 1159 2956 
Q 1356 3278 1631 3431 
Q 1906 3584 2284 3584 
Q 2666 3584 2933 3390 
Q 3200 3197 3328 2828 
z
" transform="scale(0.015625)"/>
       <path id="DejaVuSans-6c" d="M 603 4863 
L 1178 4863 
L 1178 0 
L 603 0 
L 603 4863 
z
" transform="scale(0.015625)"/>
       <path id="DejaVuSans-76" d="M 191 3500 
L 800 3500 
L 1894 563 
L 2988 3500 
L 3597 3500 
L 2284 0 
L 1503 0 
L 191 3500 
z
" transform="scale(0.015625)"/>
       <path id="DejaVuSans-65" d="M 3597 1894 
L 3597 1613 
L 953 1613 
Q 991 1019 1311 708 
Q 1631 397 2203 397 
Q 2534 397 2845 478 
Q 3156 559 3463 722 
L 3463 178 
Q 3153 47 2828 -22 
Q 2503 -91 2169 -91 
Q 1331 -91 842 396 
Q 353 884 353 1716 
Q 353 2575 817 3079 
Q 1281 3584 2069 3584 
Q 2775 3584 3186 3129 
Q 3597 2675 3597 1894 
z
M 3022 2063 
Q 3016 2534 2758 2815 
Q 2500 3097 2075 3097 
Q 1594 3097 1305 2825 
Q 1016 2553 972 2059 
L 3022 2063 
z
" transform="scale(0.015625)"/>
       <path id="DejaVuSans-64" d="M 2906 2969 
L 2906 4863 
L 3481 4863 
L 3481 0 
L 2906 0 
L 2906 525 
Q 2725 213 2448 61 
Q 2172 -91 1784 -91 
Q 1150 -91 751 415 
Q 353 922 353 1747 
Q 353 2572 751 3078 
Q 1150 3584 1784 3584 
Q 2172 3584 2448 3432 
Q 2725 3281 2906 2969 
z
M 947 1747 
Q 947 1113 1208 752 
Q 1469 391 1925 391 
Q 2381 391 2643 752 
Q 2906 1113 2906 1747 
Q 2906 2381 2643 2742 
Q 2381 3103 1925 3103 
Q 1469 3103 1208 2742 
Q 947 2381 947 1747 
z
" transform="scale(0.015625)"/>
       <path id="DejaVuSans-2d" d="M 313 2009 
L 1997 2009 
L 1997 1497 
L 313 1497 
L 313 2009 
z
" transform="scale(0.015625)"/>
       <path id="DejaVuSans-68" d="M 3513 2113 
L 3513 0 
L 2938 0 
L 2938 2094 
Q 2938 2591 2744 2837 
Q 2550 3084 2163 3084 
Q 1697 3084 1428 2787 
Q 1159 2491 1159 1978 
L 1159 0 
L 581 0 
L 581 4863 
L 1159 4863 
L 1159 2956 
Q 1366 3272 1645 3428 
Q 1925 3584 2291 3584 
Q 2894 3584 3203 3211 
Q 3513 2838 3513 2113 
z
" transform="scale(0.015625)"/>
      </defs>
      <use xlink:href="#DejaVuSans-43"/>
      <use xlink:href="#DejaVuSans-75" x="69.824219"/>
      <use xlink:href="#DejaVuSans-6d" x="133.203125"/>
      <use xlink:href="#DejaVuSans-75" x="230.615234"/>
      <use xlink:href="#DejaVuSans-6c" x="293.994141"/>
      <use xlink:href="#DejaVuSans-61" x="321.777344"/>
      <use xlink:href="#DejaVuSans-74" x="383.056641"/>
      <use xlink:href="#DejaVuSans-69" x="422.265625"/>
      <use xlink:href="#DejaVuSans-76" x="450.048828"/>
      <use xlink:href="#DejaVuSans-65" x="509.228516"/>
      <use xlink:href="#DejaVuSans-20" x="570.751953"/>
      <use xlink:href="#DejaVuSans-6d" x="602.539062"/>
      <use xlink:href="#DejaVuSans-61" x="699.951172"/>
      <use xlink:href="#DejaVuSans-70" x="761.230469"/>
      <use xlink:href="#DejaVuSans-70" x="824.707031"/>
      <use xlink:href="#DejaVuSans-65" x="888.183594"/>
      <use xlink:href="#DejaVuSans-64" x="949.707031"/>
      <use xlink:href="#DejaVuSans-2d" x="1013.183594"/>
      <use xlink:href="#DejaVuSans-72" x="1049.267578"/>
      <use xlink:href="#DejaVuSans-65" x="1088.130859"/>
      <use xlink:href="#DejaVuSans-61" x="1149.654297"/>
      <use xlink:href="#DejaVuSans-64" x="1210.933594"/>
      <use xlink:href="#DejaVuSans-20" x="1274.410156"/>
      <use xlink:href="#DejaVuSans-64" x="1306.197266"/>
      <use xlink:href="#DejaVuSans-65" x="1369.673828"/>
      <use xlink:href="#DejaVuSans-70" x="1431.197266"/>
      <use xlink:href="#DejaVuSans-74" x="1494.673828"/>
      <use xlink:href="#DejaVuSans-68" x="1533.882812"/>
     </g>
    </g>
   </g>
   <g id="line2d_6">
    <path d="M 58.418125 262.632425 
L 67.686575 259.317203 
L 76.955025 254.085563 
L 86.223475 246.425337 
L 95.491925 237.979931 
L 104.760375 234.907822 
L 114.028825 232.570723 
L 123.297275 228.936697 
L 132.565725 225.992625 
L 141.834175 224.211971 
L 151.102625 222.875523 
L 160.371075 221.872174 
L 169.639525 221.056717 
L 178.907975 220.583623 
L 188.176425 221.481605 
L 197.444875 223.289887 
L 206.713325 224.906674 
L 215.981775 225.400183 
L 225.250225 225.856365 
L 234.518675 229.9189 
L 243.787125 237.149799 
L 253.055575 239.80918 
L 262.324025 241.606174 
L 271.592475 242.493833 
L 280.860925 245.266305 
L 290.129375 246.253678 
L 299.397825 247.070686 
L 308.666275 247.443487 
L 317.934725 247.731637 
L 327.203175 248.574169 
L 336.471625 249.157447 
L 345.740075 249.806978 
L 355.008525 250.34453 
L 364.276975 250.803731 
L 373.545425 251.297138 
L 382.813875 251.310994 
L 392.082325 251.859784 
L 401.350775 252.14277 
L 410.619225 252.376197 
L 419.887675 252.506443 
L 429.156125 252.581974 
L 438.424575 252.570006 
L 447.693025 252.723937 
L 456.961475 252.710322 
L 466.229925 252.831157 
L 475.498375 252.937562 
L 484.766825 253.015699 
L 494.035275 252.799718 
L 503.303725 252.424765 
L 512.572175 252.662804 
L 521.840625 252.903832 
L 531.109075 252.776248 
L 540.377525 252.333524 
L 549.645975 252.368229 
L 558.914425 251.898129 
L 568.182875 252.559025 
L 577.451325 252.831021 
L 586.719775 252.716248 
L 595.988225 252.827661 
L 605.256675 249.557758 
L 614.525125 247.745555 
L 623.793575 247.348467 
L 633.062025 247.134338 
L 642.330475 246.543639 
L 651.598925 245.978618 
L 660.867375 245.250161 
L 670.135825 245.13103 
L 679.404275 245.142325 
L 688.672725 245.124042 
L 697.941175 244.803419 
L 707.209625 243.01739 
L 716.478075 244.296927 
L 725.746525 248.219357 
L 735.014975 248.373425 
L 744.283425 248.291594 
L 753.551875 245.009791 
L 762.820325 243.251192 
L 772.088775 243.272884 
L 781.357225 242.487334 
L 790.625675 239.47636 
L 799.894125 237.545766 
L 809.162575 237.758766 
L 818.431025 238.988659 
L 827.699475 239.885411 
L 836.967925 240.564299 
L 846.236375 241.445997 
L 855.504825 242.854223 
L 864.773275 243.888818 
L 874.041725 244.306097 
L 883.310175 244.774128 
L 892.578625 246.426756 
L 901.847075 250.529408 
L 911.115525 253.686511 
L 920.383975 254.293866 
L 929.652425 255.299595 
L 938.920875 258.36487 
L 948.189325 262.820881 
L 957.457775 265.431774 
L 966.726225 268.217667 
L 975.994675 272.150193 
" clip-path="url(#p75dd13b057)" style="fill: none; stroke: #7cb5ec; stroke-linecap: square"/>
   </g>
   <g id="line2d_7">
    <path d="M 58.418125 262.935041 
L 67.686575 259.726099 
L 76.955025 252.745858 
L 86.223475 244.051491 
L 95.491925 228.940397 
L 104.760375 222.054684 
L 114.028825 218.413226 
L 123.297275 211.491184 
L 132.565725 205.91687 
L 141.834175 202.492775 
L 151.102625 199.822405 
L 160.371075 197.778716 
L 169.639525 196.092542 
L 178.907975 194.611574 
L 188.176425 195.110236 
L 197.444875 197.440699 
L 206.713325 200.078419 
L 215.981775 200.882181 
L 225.250225 201.513777 
L 234.518675 205.737748 
L 243.787125 217.155215 
L 253.055575 222.860242 
L 262.324025 226.495256 
L 271.592475 228.329879 
L 280.860925 233.735713 
L 290.129375 235.77999 
L 299.397825 237.353242 
L 308.666275 238.530159 
L 317.934725 238.799181 
L 327.203175 240.031673 
L 336.471625 240.586884 
L 345.740075 242.133862 
L 355.008525 242.754827 
L 364.276975 243.480005 
L 373.545425 244.005222 
L 382.813875 243.981651 
L 392.082325 244.319162 
L 401.350775 243.892719 
L 410.619225 243.83397 
L 419.887675 243.849491 
L 429.156125 243.803405 
L 438.424575 243.115975 
L 447.693025 242.826899 
L 456.961475 242.457436 
L 466.229925 242.357184 
L 475.498375 242.135571 
L 484.766825 241.912249 
L 494.035275 240.75813 
L 503.303725 239.304499 
L 512.572175 239.948717 
L 521.840625 240.028053 
L 531.109075 239.094176 
L 540.377525 237.452087 
L 549.645975 237.576511 
L 558.914425 238.016342 
L 568.182875 238.268927 
L 577.451325 239.361766 
L 586.719775 239.039625 
L 595.988225 240.14729 
L 605.256675 231.471099 
L 614.525125 229.98538 
L 623.793575 229.529261 
L 633.062025 228.910776 
L 642.330475 227.313506 
L 651.598925 226.408569 
L 660.867375 226.198374 
L 670.135825 226.284062 
L 679.404275 226.769957 
L 688.672725 227.145159 
L 697.941175 227.107843 
L 707.209625 224.919567 
L 716.478075 230.175601 
L 725.746525 237.468081 
L 735.014975 237.680786 
L 744.283425 237.943746 
L 753.551875 235.224002 
L 762.820325 233.846814 
L 772.088775 234.136468 
L 781.357225 233.017119 
L 790.625675 229.142532 
L 799.894125 227.598723 
L 809.162575 228.114794 
L 818.431025 229.684956 
L 827.699475 230.797114 
L 836.967925 232.341863 
L 846.236375 233.882945 
L 855.504825 236.347899 
L 864.773275 237.987747 
L 874.041725 238.622335 
L 883.310175 239.480741 
L 892.578625 241.828561 
L 901.847075 246.581723 
L 911.115525 249.986891 
L 920.383975 250.769802 
L 929.652425 252.306261 
L 938.920875 256.81238 
L 948.189325 261.647626 
L 957.457775 264.639713 
L 966.726225 267.863155 
L 975.994675 272.056149 
" clip-path="url(#p75dd13b057)" style="fill: none; stroke: #434348; stroke-linecap: square"/>
   </g>
   <g id="line2d_8">
    <path d="M 58.418125 254.470798 
L 67.686575 250.202888 
L 76.955025 246.050165 
L 86.223475 241.734042 
L 95.491925 233.580599 
L 104.760375 231.11414 
L 114.028825 228.202556 
L 123.297275 224.198401 
L 132.565725 221.499932 
L 141.834175 219.704344 
L 151.102625 218.037836 
L 160.371075 216.660189 
L 169.639525 215.419642 
L 178.907975 214.59318 
L 188.176425 214.301944 
L 197.444875 214.541801 
L 206.713325 215.344589 
L 215.981775 215.460151 
L 225.250225 215.157321 
L 234.518675 217.099211 
L 243.787125 221.958002 
L 253.055575 223.87176 
L 262.324025 224.96224 
L 271.592475 225.433864 
L 280.860925 227.160668 
L 290.129375 227.641702 
L 299.397825 227.735959 
L 308.666275 227.73847 
L 317.934725 227.711838 
L 327.203175 228.05451 
L 336.471625 228.330174 
L 345.740075 228.923616 
L 355.008525 229.502575 
L 364.276975 229.848892 
L 373.545425 230.301085 
L 382.813875 230.003188 
L 392.082325 230.581386 
L 401.350775 230.980402 
L 410.619225 231.298617 
L 419.887675 231.331051 
L 429.156125 231.270607 
L 438.424575 231.139565 
L 447.693025 231.228602 
L 456.961475 231.213178 
L 466.229925 231.372118 
L 475.498375 231.426751 
L 484.766825 231.461707 
L 494.035275 231.218332 
L 503.303725 231.140641 
L 512.572175 231.607891 
L 521.840625 232.002355 
L 531.109075 231.932908 
L 540.377525 231.360842 
L 549.645975 231.536105 
L 558.914425 231.692341 
L 568.182875 231.920964 
L 577.451325 232.450396 
L 586.719775 232.452359 
L 595.988225 232.785791 
L 605.256675 231.059342 
L 614.525125 230.399146 
L 623.793575 230.312614 
L 633.062025 230.370701 
L 642.330475 230.034887 
L 651.598925 229.585289 
L 660.867375 229.657041 
L 670.135825 229.751239 
L 679.404275 229.736715 
L 688.672725 230.213226 
L 697.941175 230.393202 
L 707.209625 229.442066 
L 716.478075 230.637745 
L 725.746525 232.921465 
L 735.014975 233.14015 
L 744.283425 233.262192 
L 753.551875 231.455445 
L 762.820325 230.679151 
L 772.088775 230.630381 
L 781.357225 230.104136 
L 790.625675 228.246553 
L 799.894125 227.4967 
L 809.162575 227.371456 
L 818.431025 228.466788 
L 827.699475 229.6907 
L 836.967925 230.280012 
L 846.236375 231.025201 
L 855.504825 231.984625 
L 864.773275 233.094135 
L 874.041725 233.787533 
L 883.310175 234.260408 
L 892.578625 236.351243 
L 901.847075 239.585233 
L 911.115525 241.99076 
L 920.383975 242.87224 
L 929.652425 244.358278 
L 938.920875 247.959033 
L 948.189325 253.081496 
L 957.457775 257.619128 
L 966.726225 262.710166 
L 975.994675 270.291586 
" clip-path="url(#p75dd13b057)" style="fill: none; stroke: #90ed7d; stroke-linecap: square"/>
   </g>
   <g id="line2d_9">
    <path d="M 58.418125 245.205598 
L 67.686575 239.134652 
L 76.955025 228.210367 
L 86.223475 207.861209 
L 95.491925 191.462183 
L 104.760375 187.162363 
L 114.028825 182.827951 
L 123.297275 177.055707 
L 132.565725 175.36853 
L 141.834175 174.549526 
L 151.102625 173.657007 
L 160.371075 172.832349 
L 169.639525 172.124366 
L 178.907975 172.085462 
L 188.176425 172.03995 
L 197.444875 171.566973 
L 206.713325 171.625177 
L 215.981775 172.143082 
L 225.250225 172.422926 
L 234.518675 172.277857 
L 243.787125 172.188368 
L 253.055575 172.09407 
L 262.324025 172.005745 
L 271.592475 172.191584 
L 280.860925 172.378102 
L 290.129375 172.584843 
L 299.397825 173.360131 
L 308.666275 177.84886 
L 317.934725 181.824529 
L 327.203175 185.980142 
L 336.471625 187.310222 
L 345.740075 190.705965 
L 355.008525 193.502462 
L 364.276975 194.524659 
L 373.545425 195.154793 
L 382.813875 196.004019 
L 392.082325 206.332868 
L 401.350775 218.63138 
L 410.619225 224.707742 
L 419.887675 225.980259 
L 429.156125 226.513786 
L 438.424575 227.37053 
L 447.693025 227.539252 
L 456.961475 227.489615 
L 466.229925 228.246866 
L 475.498375 228.980988 
L 484.766825 229.388826 
L 494.035275 229.308516 
L 503.303725 229.512603 
L 512.572175 229.870804 
L 521.840625 230.237156 
L 531.109075 230.074883 
L 540.377525 229.953558 
L 549.645975 229.899532 
L 558.914425 230.180549 
L 568.182875 230.577059 
L 577.451325 231.128518 
L 586.719775 231.133589 
L 595.988225 230.487807 
L 605.256675 230.759099 
L 614.525125 231.126669 
L 623.793575 231.603309 
L 633.062025 231.9397 
L 642.330475 231.322141 
L 651.598925 230.678546 
L 660.867375 230.839639 
L 670.135825 231.202987 
L 679.404275 231.631266 
L 688.672725 232.065002 
L 697.941175 232.499012 
L 707.209625 232.913022 
L 716.478075 233.330924 
L 725.746525 233.894143 
L 735.014975 234.5347 
L 744.283425 235.002737 
L 753.551875 235.28858 
L 762.820325 235.825354 
L 772.088775 236.591713 
L 781.357225 237.021665 
L 790.625675 237.51206 
L 799.894125 238.177088 
L 809.162575 239.200239 
L 818.431025 240.966461 
L 827.699475 242.112597 
L 836.967925 242.893221 
L 846.236375 243.50826 
L 855.504825 244.015101 
L 864.773275 244.92925 
L 874.041725 245.574054 
L 883.310175 246.197211 
L 892.578625 246.959498 
L 901.847075 247.390428 
L 911.115525 247.988822 
L 920.383975 248.926321 
L 929.652425 249.901479 
L 938.920875 251.535101 
L 948.189325 254.33562 
L 957.457775 258.633518 
L 966.726225 263.014506 
L 975.994675 270.212241 
" clip-path="url(#p75dd13b057)" style="fill: none; stroke: #f7a35c; stroke-linecap: square"/>
   </g>
   <g id="line2d_10">
    <path d="M 58.418125 254.485284 
L 67.686575 250.24469 
L 76.955025 242.266949 
L 86.223475 227.060278 
L 95.491925 212.917261 
L 104.760375 209.030688 
L 114.028825 205.724635 
L 123.297275 201.031457 
L 132.565725 199.632018 
L 141.834175 199.040741 
L 151.102625 198.306707 
L 160.371075 197.799331 
L 169.639525 197.440009 
L 178.907975 197.441301 
L 188.176425 197.394514 
L 197.444875 197.081876 
L 206.713325 197.113869 
L 215.981775 197.378632 
L 225.250225 197.514716 
L 234.518675 197.219496 
L 243.787125 196.998035 
L 253.055575 196.849062 
L 262.324025 196.770211 
L 271.592475 196.872428 
L 280.860925 197.016269 
L 290.129375 197.101346 
L 299.397825 197.659627 
L 308.666275 201.247398 
L 317.934725 204.468821 
L 327.203175 207.963084 
L 336.471625 209.013712 
L 345.740075 211.495517 
L 355.008525 213.786254 
L 364.276975 214.589849 
L 373.545425 214.943926 
L 382.813875 215.542385 
L 392.082325 222.542645 
L 401.350775 232.854264 
L 410.619225 239.267703 
L 419.887675 239.50381 
L 429.156125 239.854389 
L 438.424575 240.403873 
L 447.693025 240.52516 
L 456.961475 240.383011 
L 466.229925 241.088288 
L 475.498375 241.832 
L 484.766825 242.200022 
L 494.035275 242.085393 
L 503.303725 242.12796 
L 512.572175 242.290019 
L 521.840625 242.461982 
L 531.109075 242.228262 
L 540.377525 242.07892 
L 549.645975 241.972535 
L 558.914425 242.077055 
L 568.182875 242.285842 
L 577.451325 241.953595 
L 586.719775 242.307238 
L 595.988225 241.786122 
L 605.256675 241.91927 
L 614.525125 242.163827 
L 623.793575 242.394974 
L 633.062025 242.547951 
L 642.330475 242.68221 
L 651.598925 242.473587 
L 660.867375 242.582367 
L 670.135825 242.951618 
L 679.404275 243.408511 
L 688.672725 243.794482 
L 697.941175 244.174707 
L 707.209625 244.507679 
L 716.478075 244.822525 
L 725.746525 245.241933 
L 735.014975 245.711306 
L 744.283425 246.100072 
L 753.551875 246.404751 
L 762.820325 246.945777 
L 772.088775 247.626781 
L 781.357225 247.981679 
L 790.625675 248.374877 
L 799.894125 248.903656 
L 809.162575 249.751289 
L 818.431025 251.19229 
L 827.699475 252.039149 
L 836.967925 252.716382 
L 846.236375 253.227618 
L 855.504825 253.75328 
L 864.773275 254.476484 
L 874.041725 254.965849 
L 883.310175 255.439364 
L 892.578625 255.945683 
L 901.847075 256.269993 
L 911.115525 256.720064 
L 920.383975 257.420177 
L 929.652425 258.110688 
L 938.920875 259.22473 
L 948.189325 260.841117 
L 957.457775 263.326041 
L 966.726225 266.441776 
L 975.994675 271.388127 
" clip-path="url(#p75dd13b057)" style="fill: none; stroke: #8085e9; stroke-linecap: square"/>
   </g>
   <g id="line2d_11">
    <path d="M 58.418125 237.787886 
L 67.686575 230.541492 
L 76.955025 220.185611 
L 86.223475 202.040783 
L 95.491925 185.144236 
L 104.760375 181.818808 
L 114.028825 177.39599 
L 123.297275 171.076558 
L 132.565725 169.130814 
L 141.834175 168.210564 
L 151.102625 166.919585 
L 160.371075 165.815337 
L 169.639525 164.808535 
L 178.907975 164.636955 
L 188.176425 164.570298 
L 197.444875 164.137889 
L 206.713325 164.353392 
L 215.981775 164.985399 
L 225.250225 165.322529 
L 234.518675 165.488837 
L 243.787125 165.485545 
L 253.055575 165.500902 
L 262.324025 165.284827 
L 271.592475 165.442779 
L 280.860925 165.778674 
L 290.129375 166.05033 
L 299.397825 166.655746 
L 308.666275 170.630457 
L 317.934725 173.545188 
L 327.203175 176.958928 
L 336.471625 178.517247 
L 345.740075 181.323901 
L 355.008525 184.181371 
L 364.276975 185.31979 
L 373.545425 186.219773 
L 382.813875 187.104158 
L 392.082325 195.546298 
L 401.350775 207.397197 
L 410.619225 214.62558 
L 419.887675 214.960051 
L 429.156125 215.595288 
L 438.424575 216.516149 
L 447.693025 216.796784 
L 456.961475 216.752642 
L 466.229925 217.532782 
L 475.498375 218.412651 
L 484.766825 218.945522 
L 494.035275 218.710324 
L 503.303725 219.123602 
L 512.572175 219.630003 
L 521.840625 220.265641 
L 531.109075 220.22714 
L 540.377525 220.237331 
L 549.645975 220.399627 
L 558.914425 220.817461 
L 568.182875 221.339553 
L 577.451325 221.629286 
L 586.719775 222.382773 
L 595.988225 222.182317 
L 605.256675 222.410199 
L 614.525125 222.818618 
L 623.793575 223.346369 
L 633.062025 223.738231 
L 642.330475 223.564765 
L 651.598925 223.321475 
L 660.867375 223.53338 
L 670.135825 223.98504 
L 679.404275 224.445651 
L 688.672725 224.901236 
L 697.941175 225.336208 
L 707.209625 225.748461 
L 716.478075 226.043784 
L 725.746525 226.719002 
L 735.014975 227.384308 
L 744.283425 227.997559 
L 753.551875 228.378918 
L 762.820325 229.079342 
L 772.088775 229.951411 
L 781.357225 230.501957 
L 790.625675 231.111585 
L 799.894125 231.845432 
L 809.162575 232.901691 
L 818.431025 234.579278 
L 827.699475 235.630176 
L 836.967925 236.516231 
L 846.236375 237.214081 
L 855.504825 237.756607 
L 864.773275 238.73725 
L 874.041725 239.579998 
L 883.310175 240.455663 
L 892.578625 241.348291 
L 901.847075 241.838325 
L 911.115525 242.606451 
L 920.383975 243.727336 
L 929.652425 244.950019 
L 938.920875 246.921702 
L 948.189325 250.077147 
L 957.457775 254.347521 
L 966.726225 259.770515 
L 975.994675 269.064978 
" clip-path="url(#p75dd13b057)" style="fill: none; stroke: #f15c80; stroke-linecap: square"/>
   </g>
   <g id="line2d_12">
    <path d="M 58.418125 238.8149 
L 67.686575 231.910015 
L 76.955025 223.723733 
L 86.223475 209.6713 
L 95.491925 195.142511 
L 104.760375 191.878143 
L 114.028825 187.889397 
L 123.297275 181.96374 
L 132.565725 180.10838 
L 141.834175 179.099225 
L 151.102625 177.893406 
L 160.371075 176.685671 
L 169.639525 175.675903 
L 178.907975 175.593924 
L 188.176425 175.411133 
L 197.444875 174.799981 
L 206.713325 174.980413 
L 215.981775 175.49482 
L 225.250225 175.709903 
L 234.518675 175.787436 
L 243.787125 175.859758 
L 253.055575 175.80089 
L 262.324025 175.5935 
L 271.592475 175.76928 
L 280.860925 176.031001 
L 290.129375 176.3366 
L 299.397825 176.861422 
L 308.666275 179.727677 
L 317.934725 182.397177 
L 327.203175 185.758497 
L 336.471625 187.110704 
L 345.740075 189.073504 
L 355.008525 191.470579 
L 364.276975 192.521466 
L 373.545425 193.338223 
L 382.813875 193.928597 
L 392.082325 199.688672 
L 401.350775 208.371612 
L 410.619225 214.857893 
L 419.887675 215.243496 
L 429.156125 215.883715 
L 438.424575 216.778381 
L 447.693025 217.078554 
L 456.961475 217.080744 
L 466.229925 217.821799 
L 475.498375 218.671621 
L 484.766825 219.205744 
L 494.035275 218.971731 
L 503.303725 219.577551 
L 512.572175 220.238216 
L 521.840625 220.870587 
L 531.109075 220.880343 
L 540.377525 221.023407 
L 549.645975 221.3084 
L 558.914425 221.807022 
L 568.182875 222.320324 
L 577.451325 222.849652 
L 586.719775 223.777344 
L 595.988225 223.87537 
L 605.256675 224.083701 
L 614.525125 224.465442 
L 623.793575 224.914096 
L 633.062025 225.243484 
L 642.330475 225.110755 
L 651.598925 224.708009 
L 660.867375 224.954479 
L 670.135825 225.505575 
L 679.404275 225.993182 
L 688.672725 226.423414 
L 697.941175 226.818379 
L 707.209625 227.237667 
L 716.478075 227.528806 
L 725.746525 228.163033 
L 735.014975 228.825525 
L 744.283425 229.388269 
L 753.551875 229.702557 
L 762.820325 230.274742 
L 772.088775 231.036457 
L 781.357225 231.536551 
L 790.625675 232.039185 
L 799.894125 232.789864 
L 809.162575 233.893121 
L 818.431025 235.219535 
L 827.699475 236.042351 
L 836.967925 236.724402 
L 846.236375 237.391245 
L 855.504825 237.908369 
L 864.773275 238.776763 
L 874.041725 239.646334 
L 883.310175 240.478736 
L 892.578625 241.334754 
L 901.847075 241.802246 
L 911.115525 242.509406 
L 920.383975 243.695963 
L 929.652425 244.985027 
L 938.920875 247.10556 
L 948.189325 250.434097 
L 957.457775 254.831905 
L 966.726225 260.208177 
L 975.994675 269.228741 
" clip-path="url(#p75dd13b057)" style="fill: none; stroke: #e4d354; stroke-linecap: square"/>
   </g>
   <g id="line2d_13">
    <path d="M 58.418125 228.164096 
L 67.686575 218.829991 
L 76.955025 206.214975 
L 86.223475 183.039043 
L 95.491925 160.251585 
L 104.760375 155.193325 
L 114.028825 149.888354 
L 123.297275 142.266123 
L 132.565725 140.030694 
L 141.834175 138.472367 
L 151.102625 136.68637 
L 160.371075 135.229708 
L 169.639525 134.059104 
L 178.907975 134.048035 
L 188.176425 133.964543 
L 197.444875 133.503786 
L 206.713325 133.812069 
L 215.981775 134.507023 
L 225.250225 134.854076 
L 234.518675 135.117949 
L 243.787125 135.092135 
L 253.055575 135.029448 
L 262.324025 135.003608 
L 271.592475 135.379178 
L 280.860925 135.796686 
L 290.129375 136.149214 
L 299.397825 136.778836 
L 308.666275 140.874621 
L 317.934725 144.695245 
L 327.203175 149.214065 
L 336.471625 150.906949 
L 345.740075 154.012271 
L 355.008525 157.48346 
L 364.276975 158.996446 
L 373.545425 159.907172 
L 382.813875 160.979672 
L 392.082325 171.861656 
L 401.350775 187.897674 
L 410.619225 196.539747 
L 419.887675 199.080268 
L 429.156125 199.672357 
L 438.424575 200.756997 
L 447.693025 200.958219 
L 456.961475 200.73746 
L 466.229925 201.594513 
L 475.498375 202.44972 
L 484.766825 203.07386 
L 494.035275 202.992226 
L 503.303725 203.545862 
L 512.572175 204.17951 
L 521.840625 204.867059 
L 531.109075 204.797828 
L 540.377525 204.73139 
L 549.645975 204.836857 
L 558.914425 205.41777 
L 568.182875 206.013718 
L 577.451325 206.897267 
L 586.719775 206.751456 
L 595.988225 205.871552 
L 605.256675 206.252359 
L 614.525125 206.876408 
L 623.793575 207.068794 
L 633.062025 207.220181 
L 642.330475 207.031549 
L 651.598925 206.462887 
L 660.867375 206.849678 
L 670.135825 207.563605 
L 679.404275 208.322003 
L 688.672725 209.09783 
L 697.941175 209.754658 
L 707.209625 210.477275 
L 716.478075 211.089643 
L 725.746525 212.038477 
L 735.014975 212.989618 
L 744.283425 213.544238 
L 753.551875 214.337937 
L 762.820325 215.297858 
L 772.088775 216.61209 
L 781.357225 217.480863 
L 790.625675 218.386889 
L 799.894125 219.570517 
L 809.162575 221.311862 
L 818.431025 224.139166 
L 827.699475 225.691984 
L 836.967925 226.824597 
L 846.236375 227.859388 
L 855.504825 228.677178 
L 864.773275 229.931835 
L 874.041725 230.868448 
L 883.310175 231.917465 
L 892.578625 233.146987 
L 901.847075 233.552408 
L 911.115525 234.356218 
L 920.383975 235.739904 
L 929.652425 237.926928 
L 938.920875 240.82148 
L 948.189325 244.926161 
L 957.457775 250.637745 
L 966.726225 257.07386 
L 975.994675 268.098526 
" clip-path="url(#p75dd13b057)" style="fill: none; stroke: #2b908f; stroke-linecap: square"/>
   </g>
   <g id="line2d_14">
    <path d="M 58.418125 237.889637 
L 67.686575 230.817952 
L 76.955025 205.663813 
L 86.223475 153.191789 
L 95.491925 105.972863 
L 104.760375 87.64133 
L 114.028825 78.208307 
L 123.297275 59.362028 
L 132.565725 54.341947 
L 141.834175 52.984966 
L 151.102625 51.240169 
L 160.371075 49.870508 
L 169.639525 48.830116 
L 178.907975 48.657028 
L 188.176425 48.392659 
L 197.444875 47.842808 
L 206.713325 47.989221 
L 215.981775 48.244845 
L 225.250225 48.212263 
L 234.518675 46.540254 
L 243.787125 44.210331 
L 253.055575 43.464551 
L 262.324025 43.056218 
L 271.592475 43.106783 
L 280.860925 42.964063 
L 290.129375 42.962256 
L 299.397825 44.336882 
L 308.666275 57.920959 
L 317.934725 66.35954 
L 327.203175 77.450498 
L 336.471625 80.874657 
L 345.740075 90.200512 
L 355.008525 100.984838 
L 364.276975 103.041 
L 373.545425 102.429683 
L 382.813875 103.903191 
L 392.082325 133.462203 
L 401.350775 169.908325 
L 410.619225 194.42133 
L 419.887675 194.854056 
L 429.156125 195.691447 
L 438.424575 197.494166 
L 447.693025 196.737415 
L 456.961475 194.300434 
L 466.229925 195.59911 
L 475.498375 197.656586 
L 484.766825 197.995766 
L 494.035275 197.373418 
L 503.303725 196.700106 
L 512.572175 196.438883 
L 521.840625 196.280085 
L 531.109075 194.821643 
L 540.377525 192.921311 
L 549.645975 190.253197 
L 558.914425 189.316265 
L 568.182875 189.559806 
L 577.451325 188.663603 
L 586.719775 185.193923 
L 595.988225 180.01544 
L 605.256675 180.682961 
L 614.525125 181.727113 
L 623.793575 182.986028 
L 633.062025 183.505364 
L 642.330475 183.974573 
L 651.598925 182.982756 
L 660.867375 183.903561 
L 670.135825 185.816342 
L 679.404275 188.304112 
L 688.672725 190.247859 
L 697.941175 191.444962 
L 707.209625 192.350786 
L 716.478075 193.381417 
L 725.746525 194.599027 
L 735.014975 196.241319 
L 744.283425 197.60101 
L 753.551875 199.184032 
L 762.820325 200.861394 
L 772.088775 204.571747 
L 781.357225 206.318197 
L 790.625675 207.684053 
L 799.894125 209.663607 
L 809.162575 213.951564 
L 818.431025 222.537107 
L 827.699475 227.327491 
L 836.967925 229.986695 
L 846.236375 231.479077 
L 855.504825 234.250747 
L 864.773275 237.243274 
L 874.041725 238.274408 
L 883.310175 239.104169 
L 892.578625 239.986802 
L 901.847075 240.368471 
L 911.115525 241.190855 
L 920.383975 242.580789 
L 929.652425 244.168165 
L 938.920875 246.644164 
L 948.189325 250.089766 
L 957.457775 255.715622 
L 966.726225 261.267236 
L 975.994675 269.612027 
" clip-path="url(#p75dd13b057)" style="fill: none; stroke: #f45b5b; stroke-linecap: square"/>
   </g>
   <g id="line2d_15">
    <path d="M 58.418125 258.280609 
L 67.686575 254.964036 
L 76.955025 249.571659 
L 86.223475 237.933349 
L 95.491925 226.271375 
L 104.760375 223.121578 
L 114.028825 220.566396 
L 123.297275 216.73297 
L 132.565725 215.64915 
L 141.834175 215.168158 
L 151.102625 214.469306 
L 160.371075 214.050156 
L 169.639525 213.75722 
L 178.907975 213.868602 
L 188.176425 213.942061 
L 197.444875 213.769393 
L 206.713325 213.914729 
L 215.981775 214.211732 
L 225.250225 214.335629 
L 234.518675 214.245943 
L 243.787125 214.269095 
L 253.055575 214.297973 
L 262.324025 214.206482 
L 271.592475 214.244868 
L 280.860925 214.358408 
L 290.129375 214.451149 
L 299.397825 214.71158 
L 308.666275 216.792964 
L 317.934725 218.628215 
L 327.203175 220.860995 
L 336.471625 221.614052 
L 345.740075 223.085343 
L 355.008525 224.852648 
L 364.276975 225.451998 
L 373.545425 225.756555 
L 382.813875 226.225874 
L 392.082325 232.003977 
L 401.350775 240.521483 
L 410.619225 246.791269 
L 419.887675 246.970423 
L 429.156125 247.236162 
L 438.424575 247.772113 
L 447.693025 247.904251 
L 456.961475 247.768959 
L 466.229925 248.131821 
L 475.498375 248.589287 
L 484.766825 248.871092 
L 494.035275 248.787323 
L 503.303725 248.946774 
L 512.572175 249.104239 
L 521.840625 249.323945 
L 531.109075 249.055034 
L 540.377525 248.867802 
L 549.645975 248.720008 
L 558.914425 248.805594 
L 568.182875 248.898212 
L 577.451325 248.553368 
L 586.719775 248.665386 
L 595.988225 248.019458 
L 605.256675 248.028621 
L 614.525125 248.180164 
L 623.793575 248.367395 
L 633.062025 248.458051 
L 642.330475 248.226498 
L 651.598925 247.844629 
L 660.867375 247.971468 
L 670.135825 248.268816 
L 679.404275 248.634284 
L 688.672725 248.987828 
L 697.941175 249.256472 
L 707.209625 249.527544 
L 716.478075 249.799962 
L 725.746525 250.188362 
L 735.014975 250.596637 
L 744.283425 250.869125 
L 753.551875 251.11267 
L 762.820325 251.629087 
L 772.088775 252.329079 
L 781.357225 252.729199 
L 790.625675 253.103787 
L 799.894125 253.591009 
L 809.162575 254.40031 
L 818.431025 255.840405 
L 827.699475 256.6374 
L 836.967925 257.132203 
L 846.236375 257.548625 
L 855.504825 258.011235 
L 864.773275 258.587056 
L 874.041725 258.982408 
L 883.310175 259.409905 
L 892.578625 259.887187 
L 901.847075 260.09312 
L 911.115525 260.386077 
L 920.383975 260.912562 
L 929.652425 261.496609 
L 938.920875 262.430439 
L 948.189325 263.967902 
L 957.457775 266.140532 
L 966.726225 268.340944 
L 975.994675 272.034704 
" clip-path="url(#p75dd13b057)" style="fill: none; stroke: #91e8e1; stroke-linecap: square"/>
   </g>
   <g id="line2d_16">
    <path d="M 58.418125 238.787164 
L 67.686575 231.876396 
L 76.955025 213.249507 
L 86.223475 169.977473 
L 95.491925 128.897149 
L 104.760375 113.726241 
L 114.028825 104.918374 
L 123.297275 91.470523 
L 132.565725 87.476487 
L 141.834175 86.367207 
L 151.102625 84.709048 
L 160.371075 83.325278 
L 169.639525 82.275199 
L 178.907975 82.364286 
L 188.176425 82.181731 
L 197.444875 81.56437 
L 206.713325 81.812056 
L 215.981775 82.358758 
L 225.250225 82.455668 
L 234.518675 81.283306 
L 243.787125 80.508524 
L 253.055575 80.115608 
L 262.324025 79.720363 
L 271.592475 80.02172 
L 280.860925 80.124434 
L 290.129375 80.214301 
L 299.397825 81.226527 
L 308.666275 89.735382 
L 317.934725 97.355928 
L 327.203175 105.906042 
L 336.471625 108.505892 
L 345.740075 114.305532 
L 355.008525 121.432116 
L 364.276975 123.425106 
L 373.545425 123.785879 
L 382.813875 125.396543 
L 392.082325 148.629216 
L 401.350775 180.940979 
L 410.619225 199.699391 
L 419.887675 205.065426 
L 429.156125 205.728264 
L 438.424575 207.440409 
L 447.693025 207.361931 
L 456.961475 206.14383 
L 466.229925 207.209622 
L 475.498375 208.624812 
L 484.766825 208.930224 
L 494.035275 208.509012 
L 503.303725 208.557654 
L 512.572175 208.77497 
L 521.840625 208.957262 
L 531.109075 208.220317 
L 540.377525 207.202427 
L 549.645975 205.846319 
L 558.914425 205.546092 
L 568.182875 205.81286 
L 577.451325 205.938588 
L 586.719775 204.220496 
L 595.988225 201.393905 
L 605.256675 201.822492 
L 614.525125 202.505478 
L 623.793575 203.338374 
L 633.062025 203.816779 
L 642.330475 204.209364 
L 651.598925 203.455322 
L 660.867375 204.054013 
L 670.135825 205.152628 
L 679.404275 206.482402 
L 688.672725 207.582389 
L 697.941175 208.321688 
L 707.209625 208.984525 
L 716.478075 209.766373 
L 725.746525 210.737335 
L 735.014975 211.996286 
L 744.283425 212.966835 
L 753.551875 213.93759 
L 762.820325 215.1016 
L 772.088775 217.317262 
L 781.357225 218.497978 
L 790.625675 219.684749 
L 799.894125 221.319606 
L 809.162575 224.254499 
L 818.431025 229.659549 
L 827.699475 232.741453 
L 836.967925 234.51207 
L 846.236375 235.712768 
L 855.504825 237.473123 
L 864.773275 239.364836 
L 874.041725 240.359315 
L 883.310175 241.343664 
L 892.578625 242.307305 
L 901.847075 242.702688 
L 911.115525 243.455465 
L 920.383975 244.751875 
L 929.652425 246.333704 
L 938.920875 248.684096 
L 948.189325 251.978178 
L 957.457775 256.847525 
L 966.726225 262.031915 
L 975.994675 269.896074 
" clip-path="url(#p75dd13b057)" style="fill: none; stroke: #7cb5ec; stroke-linecap: square"/>
   </g>
   <g id="line2d_17">
    <path d="M 58.418125 265.046198 
L 67.686575 262.460293 
L 76.955025 257.703723 
L 86.223475 251.476141 
L 95.491925 243.012939 
L 104.760375 239.663085 
L 114.028825 237.178165 
L 123.297275 233.146357 
L 132.565725 229.897321 
L 141.834175 227.932931 
L 151.102625 226.410332 
L 160.371075 225.252563 
L 169.639525 224.330331 
L 178.907975 223.572152 
L 188.176425 224.241845 
L 197.444875 225.980198 
L 206.713325 227.821687 
L 215.981775 228.19772 
L 225.250225 228.70948 
L 234.518675 231.719775 
L 243.787125 238.234623 
L 253.055575 241.099708 
L 262.324025 243.176673 
L 271.592475 244.256897 
L 280.860925 247.430462 
L 290.129375 248.567528 
L 299.397825 249.489724 
L 308.666275 250.046902 
L 317.934725 250.250399 
L 327.203175 251.050968 
L 336.471625 251.496592 
L 345.740075 252.357449 
L 355.008525 252.793413 
L 364.276975 253.268067 
L 373.545425 253.743175 
L 382.813875 253.719761 
L 392.082325 254.131751 
L 401.350775 254.133528 
L 410.619225 254.134518 
L 419.887675 254.194954 
L 429.156125 254.237271 
L 438.424575 254.052246 
L 447.693025 254.017564 
L 456.961475 253.882606 
L 466.229925 253.930926 
L 475.498375 253.926034 
L 484.766825 253.91791 
L 494.035275 253.488937 
L 503.303725 252.719967 
L 512.572175 253.142474 
L 521.840625 253.21959 
L 531.109075 252.862423 
L 540.377525 252.103945 
L 549.645975 252.032957 
L 558.914425 252.133031 
L 568.182875 252.297535 
L 577.451325 252.763512 
L 586.719775 252.637934 
L 595.988225 253.058378 
L 605.256675 249.277219 
L 614.525125 247.932626 
L 623.793575 247.512045 
L 633.062025 247.126414 
L 642.330475 245.870162 
L 651.598925 245.149633 
L 660.867375 244.892332 
L 670.135825 244.822924 
L 679.404275 245.069238 
L 688.672725 245.284231 
L 697.941175 245.204135 
L 707.209625 243.895371 
L 716.478075 245.963357 
L 725.746525 250.113826 
L 735.014975 250.420007 
L 744.283425 250.592999 
L 753.551875 248.687541 
L 762.820325 247.685317 
L 772.088775 247.786149 
L 781.357225 247.086841 
L 790.625675 244.517419 
L 799.894125 243.059602 
L 809.162575 243.353579 
L 818.431025 244.463407 
L 827.699475 245.187057 
L 836.967925 245.852645 
L 846.236375 246.642345 
L 855.504825 247.931152 
L 864.773275 248.871355 
L 874.041725 249.200712 
L 883.310175 249.684653 
L 892.578625 251.095386 
L 901.847075 254.400379 
L 911.115525 256.883151 
L 920.383975 257.441964 
L 929.652425 258.442555 
L 938.920875 261.240818 
L 948.189325 264.863251 
L 957.457775 267.067097 
L 966.726225 269.401231 
L 975.994675 272.550182 
" clip-path="url(#p75dd13b057)" style="fill: none; stroke: #434348; stroke-linecap: square"/>
   </g>
   <g id="line2d_18">
    <path d="M 58.418125 273.99006 
L 985.263125 273.99006 
" clip-path="url(#p75dd13b057)" style="fill: none; stroke: #dedede; stroke-width: 2; stroke-linecap: square"/>
   </g>
   <g id="text_14">
    <!-- Qualimap RNAseq: Coverage Profile Along Genes (total) -->
    <g transform="translate(298.459375 19.3575) scale(0.16 -0.16)">
     <defs>
      <path id="DejaVuSans-51" d="M 2522 4238 
Q 1834 4238 1429 3725 
Q 1025 3213 1025 2328 
Q 1025 1447 1429 934 
Q 1834 422 2522 422 
Q 3209 422 3611 934 
Q 4013 1447 4013 2328 
Q 4013 3213 3611 3725 
Q 3209 4238 2522 4238 
z
M 3406 84 
L 4238 -825 
L 3475 -825 
L 2784 -78 
Q 2681 -84 2626 -87 
Q 2572 -91 2522 -91 
Q 1538 -91 948 567 
Q 359 1225 359 2328 
Q 359 3434 948 4092 
Q 1538 4750 2522 4750 
Q 3503 4750 4090 4092 
Q 4678 3434 4678 2328 
Q 4678 1516 4351 937 
Q 4025 359 3406 84 
z
" transform="scale(0.015625)"/>
      <path id="DejaVuSans-52" d="M 2841 2188 
Q 3044 2119 3236 1894 
Q 3428 1669 3622 1275 
L 4263 0 
L 3584 0 
L 2988 1197 
Q 2756 1666 2539 1819 
Q 2322 1972 1947 1972 
L 1259 1972 
L 1259 0 
L 628 0 
L 628 4666 
L 2053 4666 
Q 2853 4666 3247 4331 
Q 3641 3997 3641 3322 
Q 3641 2881 3436 2590 
Q 3231 2300 2841 2188 
z
M 1259 4147 
L 1259 2491 
L 2053 2491 
Q 2509 2491 2742 2702 
Q 2975 2913 2975 3322 
Q 2975 3731 2742 3939 
Q 2509 4147 2053 4147 
L 1259 4147 
z
" transform="scale(0.015625)"/>
      <path id="DejaVuSans-4e" d="M 628 4666 
L 1478 4666 
L 3547 763 
L 3547 4666 
L 4159 4666 
L 4159 0 
L 3309 0 
L 1241 3903 
L 1241 0 
L 628 0 
L 628 4666 
z
" transform="scale(0.015625)"/>
      <path id="DejaVuSans-41" d="M 2188 4044 
L 1331 1722 
L 3047 1722 
L 2188 4044 
z
M 1831 4666 
L 2547 4666 
L 4325 0 
L 3669 0 
L 3244 1197 
L 1141 1197 
L 716 0 
L 50 0 
L 1831 4666 
z
" transform="scale(0.015625)"/>
      <path id="DejaVuSans-71" d="M 947 1747 
Q 947 1113 1208 752 
Q 1469 391 1925 391 
Q 2381 391 2643 752 
Q 2906 1113 2906 1747 
Q 2906 2381 2643 2742 
Q 2381 3103 1925 3103 
Q 1469 3103 1208 2742 
Q 947 2381 947 1747 
z
M 2906 525 
Q 2725 213 2448 61 
Q 2172 -91 1784 -91 
Q 1150 -91 751 415 
Q 353 922 353 1747 
Q 353 2572 751 3078 
Q 1150 3584 1784 3584 
Q 2172 3584 2448 3432 
Q 2725 3281 2906 2969 
L 2906 3500 
L 3481 3500 
L 3481 -1331 
L 2906 -1331 
L 2906 525 
z
" transform="scale(0.015625)"/>
      <path id="DejaVuSans-3a" d="M 750 794 
L 1409 794 
L 1409 0 
L 750 0 
L 750 794 
z
M 750 3309 
L 1409 3309 
L 1409 2516 
L 750 2516 
L 750 3309 
z
" transform="scale(0.015625)"/>
      <path id="DejaVuSans-67" d="M 2906 1791 
Q 2906 2416 2648 2759 
Q 2391 3103 1925 3103 
Q 1463 3103 1205 2759 
Q 947 2416 947 1791 
Q 947 1169 1205 825 
Q 1463 481 1925 481 
Q 2391 481 2648 825 
Q 2906 1169 2906 1791 
z
M 3481 434 
Q 3481 -459 3084 -895 
Q 2688 -1331 1869 -1331 
Q 1566 -1331 1297 -1286 
Q 1028 -1241 775 -1147 
L 775 -588 
Q 1028 -725 1275 -790 
Q 1522 -856 1778 -856 
Q 2344 -856 2625 -561 
Q 2906 -266 2906 331 
L 2906 616 
Q 2728 306 2450 153 
Q 2172 0 1784 0 
Q 1141 0 747 490 
Q 353 981 353 1791 
Q 353 2603 747 3093 
Q 1141 3584 1784 3584 
Q 2172 3584 2450 3431 
Q 2728 3278 2906 2969 
L 2906 3500 
L 3481 3500 
L 3481 434 
z
" transform="scale(0.015625)"/>
      <path id="DejaVuSans-66" d="M 2375 4863 
L 2375 4384 
L 1825 4384 
Q 1516 4384 1395 4259 
Q 1275 4134 1275 3809 
L 1275 3500 
L 2222 3500 
L 2222 3053 
L 1275 3053 
L 1275 0 
L 697 0 
L 697 3053 
L 147 3053 
L 147 3500 
L 697 3500 
L 697 3744 
Q 697 4328 969 4595 
Q 1241 4863 1831 4863 
L 2375 4863 
z
" transform="scale(0.015625)"/>
      <path id="DejaVuSans-47" d="M 3809 666 
L 3809 1919 
L 2778 1919 
L 2778 2438 
L 4434 2438 
L 4434 434 
Q 4069 175 3628 42 
Q 3188 -91 2688 -91 
Q 1594 -91 976 548 
Q 359 1188 359 2328 
Q 359 3472 976 4111 
Q 1594 4750 2688 4750 
Q 3144 4750 3555 4637 
Q 3966 4525 4313 4306 
L 4313 3634 
Q 3963 3931 3569 4081 
Q 3175 4231 2741 4231 
Q 1884 4231 1454 3753 
Q 1025 3275 1025 2328 
Q 1025 1384 1454 906 
Q 1884 428 2741 428 
Q 3075 428 3337 486 
Q 3600 544 3809 666 
z
" transform="scale(0.015625)"/>
     </defs>
     <use xlink:href="#DejaVuSans-51"/>
     <use xlink:href="#DejaVuSans-75" x="78.710938"/>
     <use xlink:href="#DejaVuSans-61" x="142.089844"/>
     <use xlink:href="#DejaVuSans-6c" x="203.369141"/>
     <use xlink:href="#DejaVuSans-69" x="231.152344"/>
     <use xlink:href="#DejaVuSans-6d" x="258.935547"/>
     <use xlink:href="#DejaVuSans-61" x="356.347656"/>
     <use xlink:href="#DejaVuSans-70" x="417.626953"/>
     <use xlink:href="#DejaVuSans-20" x="481.103516"/>
     <use xlink:href="#DejaVuSans-52" x="512.890625"/>
     <use xlink:href="#DejaVuSans-4e" x="582.373047"/>
     <use xlink:href="#DejaVuSans-41" x="657.177734"/>
     <use xlink:href="#DejaVuSans-73" x="725.585938"/>
     <use xlink:href="#DejaVuSans-65" x="777.685547"/>
     <use xlink:href="#DejaVuSans-71" x="839.208984"/>
     <use xlink:href="#DejaVuSans-3a" x="902.685547"/>
     <use xlink:href="#DejaVuSans-20" x="936.376953"/>
     <use xlink:href="#DejaVuSans-43" x="968.164062"/>
     <use xlink:href="#DejaVuSans-6f" x="1037.988281"/>
     <use xlink:href="#DejaVuSans-76" x="1099.169922"/>
     <use xlink:href="#DejaVuSans-65" x="1158.349609"/>
     <use xlink:href="#DejaVuSans-72" x="1219.873047"/>
     <use xlink:href="#DejaVuSans-61" x="1260.986328"/>
     <use xlink:href="#DejaVuSans-67" x="1322.265625"/>
     <use xlink:href="#DejaVuSans-65" x="1385.742188"/>
     <use xlink:href="#DejaVuSans-20" x="1447.265625"/>
     <use xlink:href="#DejaVuSans-50" x="1479.052734"/>
     <use xlink:href="#DejaVuSans-72" x="1537.605469"/>
     <use xlink:href="#DejaVuSans-6f" x="1576.46875"/>
     <use xlink:href="#DejaVuSans-66" x="1637.650391"/>
     <use xlink:href="#DejaVuSans-69" x="1672.855469"/>
     <use xlink:href="#DejaVuSans-6c" x="1700.638672"/>
     <use xlink:href="#DejaVuSans-65" x="1728.421875"/>
     <use xlink:href="#DejaVuSans-20" x="1789.945312"/>
     <use xlink:href="#DejaVuSans-41" x="1821.732422"/>
     <use xlink:href="#DejaVuSans-6c" x="1890.140625"/>
     <use xlink:href="#DejaVuSans-6f" x="1917.923828"/>
     <use xlink:href="#DejaVuSans-6e" x="1979.105469"/>
     <use xlink:href="#DejaVuSans-67" x="2042.484375"/>
     <use xlink:href="#DejaVuSans-20" x="2105.960938"/>
     <use xlink:href="#DejaVuSans-47" x="2137.748047"/>
     <use xlink:href="#DejaVuSans-65" x="2215.238281"/>
     <use xlink:href="#DejaVuSans-6e" x="2276.761719"/>
     <use xlink:href="#DejaVuSans-65" x="2340.140625"/>
     <use xlink:href="#DejaVuSans-73" x="2401.664062"/>
     <use xlink:href="#DejaVuSans-20" x="2453.763672"/>
     <use xlink:href="#DejaVuSans-28" x="2485.550781"/>
     <use xlink:href="#DejaVuSans-74" x="2524.564453"/>
     <use xlink:href="#DejaVuSans-6f" x="2563.773438"/>
     <use xlink:href="#DejaVuSans-74" x="2624.955078"/>
     <use xlink:href="#DejaVuSans-61" x="2664.164062"/>
     <use xlink:href="#DejaVuSans-6c" x="2725.443359"/>
     <use xlink:href="#DejaVuSans-29" x="2753.226562"/>
    </g>
   </g>
   <g id="legend_1">
    <g id="line2d_19">
     <path d="M 65.618125 292.192894 
L 73.618125 292.192894 
L 81.618125 292.192894 
" style="fill: none; stroke: #7cb5ec; stroke-linecap: square"/>
    </g>
    <g id="text_15">
     <!-- 17 -->
     <g transform="translate(88.018125 294.992894) scale(0.08 -0.08)">
      <defs>
       <path id="DejaVuSans-37" d="M 525 4666 
L 3525 4666 
L 3525 4397 
L 1831 0 
L 1172 0 
L 2766 4134 
L 525 4134 
L 525 4666 
z
" transform="scale(0.015625)"/>
      </defs>
      <use xlink:href="#DejaVuSans-31"/>
      <use xlink:href="#DejaVuSans-37" x="63.623047"/>
     </g>
    </g>
    <g id="line2d_20">
     <path d="M 65.618125 303.935394 
L 73.618125 303.935394 
L 81.618125 303.935394 
" style="fill: none; stroke: #434348; stroke-linecap: square"/>
    </g>
    <g id="text_16">
     <!-- 2 -->
     <g transform="translate(88.018125 306.735394) scale(0.08 -0.08)">
      <use xlink:href="#DejaVuSans-32"/>
     </g>
    </g>
    <g id="line2d_21">
     <path d="M 65.618125 315.677894 
L 73.618125 315.677894 
L 81.618125 315.677894 
" style="fill: none; stroke: #90ed7d; stroke-linecap: square"/>
    </g>
    <g id="text_17">
     <!-- 20 -->
     <g transform="translate(88.018125 318.477894) scale(0.08 -0.08)">
      <use xlink:href="#DejaVuSans-32"/>
      <use xlink:href="#DejaVuSans-30" x="63.623047"/>
     </g>
    </g>
    <g id="line2d_22">
     <path d="M 285.584375 292.192894 
L 293.584375 292.192894 
L 301.584375 292.192894 
" style="fill: none; stroke: #f7a35c; stroke-linecap: square"/>
    </g>
    <g id="text_18">
     <!-- 26 -->
     <g transform="translate(307.984375 294.992894) scale(0.08 -0.08)">
      <use xlink:href="#DejaVuSans-32"/>
      <use xlink:href="#DejaVuSans-36" x="63.623047"/>
     </g>
    </g>
    <g id="line2d_23">
     <path d="M 285.584375 303.935394 
L 293.584375 303.935394 
L 301.584375 303.935394 
" style="fill: none; stroke: #8085e9; stroke-linecap: square"/>
    </g>
    <g id="text_19">
     <!-- 27 -->
     <g transform="translate(307.984375 306.735394) scale(0.08 -0.08)">
      <use xlink:href="#DejaVuSans-32"/>
      <use xlink:href="#DejaVuSans-37" x="63.623047"/>
     </g>
    </g>
    <g id="line2d_24">
     <path d="M 285.584375 315.677894 
L 293.584375 315.677894 
L 301.584375 315.677894 
" style="fill: none; stroke: #f15c80; stroke-linecap: square"/>
    </g>
    <g id="text_20">
     <!-- 28 -->
     <g transform="translate(307.984375 318.477894) scale(0.08 -0.08)">
      <use xlink:href="#DejaVuSans-32"/>
      <use xlink:href="#DejaVuSans-38" x="63.623047"/>
     </g>
    </g>
    <g id="line2d_25">
     <path d="M 505.550625 292.192894 
L 513.550625 292.192894 
L 521.550625 292.192894 
" style="fill: none; stroke: #e4d354; stroke-linecap: square"/>
    </g>
    <g id="text_21">
     <!-- 29 -->
     <g transform="translate(527.950625 294.992894) scale(0.08 -0.08)">
      <defs>
       <path id="DejaVuSans-39" d="M 703 97 
L 703 672 
Q 941 559 1184 500 
Q 1428 441 1663 441 
Q 2288 441 2617 861 
Q 2947 1281 2994 2138 
Q 2813 1869 2534 1725 
Q 2256 1581 1919 1581 
Q 1219 1581 811 2004 
Q 403 2428 403 3163 
Q 403 3881 828 4315 
Q 1253 4750 1959 4750 
Q 2769 4750 3195 4129 
Q 3622 3509 3622 2328 
Q 3622 1225 3098 567 
Q 2575 -91 1691 -91 
Q 1453 -91 1209 -44 
Q 966 3 703 97 
z
M 1959 2075 
Q 2384 2075 2632 2365 
Q 2881 2656 2881 3163 
Q 2881 3666 2632 3958 
Q 2384 4250 1959 4250 
Q 1534 4250 1286 3958 
Q 1038 3666 1038 3163 
Q 1038 2656 1286 2365 
Q 1534 2075 1959 2075 
z
" transform="scale(0.015625)"/>
      </defs>
      <use xlink:href="#DejaVuSans-32"/>
      <use xlink:href="#DejaVuSans-39" x="63.623047"/>
     </g>
    </g>
    <g id="line2d_26">
     <path d="M 505.550625 303.935394 
L 513.550625 303.935394 
L 521.550625 303.935394 
" style="fill: none; stroke: #2b908f; stroke-linecap: square"/>
    </g>
    <g id="text_22">
     <!-- 30 -->
     <g transform="translate(527.950625 306.735394) scale(0.08 -0.08)">
      <use xlink:href="#DejaVuSans-33"/>
      <use xlink:href="#DejaVuSans-30" x="63.623047"/>
     </g>
    </g>
    <g id="line2d_27">
     <path d="M 725.516875 292.192894 
L 733.516875 292.192894 
L 741.516875 292.192894 
" style="fill: none; stroke: #f45b5b; stroke-linecap: square"/>
    </g>
    <g id="text_23">
     <!-- 31 -->
     <g transform="translate(747.916875 294.992894) scale(0.08 -0.08)">
      <use xlink:href="#DejaVuSans-33"/>
      <use xlink:href="#DejaVuSans-31" x="63.623047"/>
     </g>
    </g>
    <g id="line2d_28">
     <path d="M 725.516875 303.935394 
L 733.516875 303.935394 
L 741.516875 303.935394 
" style="fill: none; stroke: #91e8e1; stroke-linecap: square"/>
    </g>
    <g id="text_24">
     <!-- 32 -->
     <g transform="translate(747.916875 306.735394) scale(0.08 -0.08)">
      <use xlink:href="#DejaVuSans-33"/>
      <use xlink:href="#DejaVuSans-32" x="63.623047"/>
     </g>
    </g>
    <g id="line2d_29">
     <path d="M 945.483125 292.192894 
L 953.483125 292.192894 
L 961.483125 292.192894 
" style="fill: none; stroke: #7cb5ec; stroke-linecap: square"/>
    </g>
    <g id="text_25">
     <!-- 33 -->
     <g transform="translate(967.883125 294.992894) scale(0.08 -0.08)">
      <use xlink:href="#DejaVuSans-33"/>
      <use xlink:href="#DejaVuSans-33" x="63.623047"/>
     </g>
    </g>
    <g id="line2d_30">
     <path d="M 945.483125 303.935394 
L 953.483125 303.935394 
L 961.483125 303.935394 
" style="fill: none; stroke: #434348; stroke-linecap: square"/>
    </g>
    <g id="text_26">
     <!-- 5 -->
     <g transform="translate(967.883125 306.735394) scale(0.08 -0.08)">
      <defs>
       <path id="DejaVuSans-35" d="M 691 4666 
L 3169 4666 
L 3169 4134 
L 1269 4134 
L 1269 2991 
Q 1406 3038 1543 3061 
Q 1681 3084 1819 3084 
Q 2600 3084 3056 2656 
Q 3513 2228 3513 1497 
Q 3513 744 3044 326 
Q 2575 -91 1722 -91 
Q 1428 -91 1123 -41 
Q 819 9 494 109 
L 494 744 
Q 775 591 1075 516 
Q 1375 441 1709 441 
Q 2250 441 2565 725 
Q 2881 1009 2881 1497 
Q 2881 1984 2565 2268 
Q 2250 2553 1709 2553 
Q 1456 2553 1204 2497 
Q 953 2441 691 2322 
L 691 4666 
z
" transform="scale(0.015625)"/>
      </defs>
      <use xlink:href="#DejaVuSans-35"/>
     </g>
    </g>
   </g>
  </g>
 </g>
 <defs>
  <clipPath id="p75dd13b057">
   <rect x="58.418125" y="31.48286" width="926.845" height="242.5072"/>
  </clipPath>
 </defs>
</svg>
