<?xml version="1.0" encoding="utf-8" standalone="no"?>
<!DOCTYPE svg PUBLIC "-//W3C//DTD SVG 1.1//EN"
  "http://www.w3.org/Graphics/SVG/1.1/DTD/svg11.dtd">
<svg xmlns:xlink="http://www.w3.org/1999/xlink" width="1000.340625pt" height="330.541644pt" viewBox="0 0 1000.340625 330.541644" xmlns="http://www.w3.org/2000/svg" version="1.1">
 <metadata>
  <rdf:RDF xmlns:dc="http://purl.org/dc/elements/1.1/" xmlns:cc="http://creativecommons.org/ns#" xmlns:rdf="http://www.w3.org/1999/02/22-rdf-syntax-ns#">
   <cc:Work>
    <dc:type rdf:resource="http://purl.org/dc/dcmitype/StillImage"/>
    <dc:date>2025-04-01T05:20:33.943034</dc:date>
    <dc:format>image/svg+xml</dc:format>
    <dc:creator>
     <cc:Agent>
      <dc:title>Matplotlib v3.8.2, https://matplotlib.org/</dc:title>
     </cc:Agent>
    </dc:creator>
   </cc:Work>
  </rdf:RDF>
 </metadata>
 <defs>
  <style type="text/css">*{stroke-linejoin: round; stroke-linecap: butt}</style>
 </defs>
 <g id="figure_1">
  <g id="axes_1">
   <g id="patch_1">
    <path d="M 40.600625 273.99006 
L 993.140625 273.99006 
L 993.140625 31.48286 
L 40.600625 31.48286 
z
" style="fill: #ffffff"/>
   </g>
   <g id="matplotlib.axis_1">
    <g id="xtick_1">
     <g id="text_1">
      <!-- −200 -->
      <g transform="translate(156.006799 287.06881) scale(0.08 -0.08)">
       <defs>
        <path id="DejaVuSans-2212" d="M 678 2272 
L 4684 2272 
L 4684 1741 
L 678 1741 
L 678 2272 
z
" transform="scale(0.015625)"/>
        <path id="DejaVuSans-32" d="M 1228 531 
L 3431 531 
L 3431 0 
L 469 0 
L 469 531 
Q 828 903 1448 1529 
Q 2069 2156 2228 2338 
Q 2531 2678 2651 2914 
Q 2772 3150 2772 3378 
Q 2772 3750 2511 3984 
Q 2250 4219 1831 4219 
Q 1534 4219 1204 4116 
Q 875 4013 500 3803 
L 500 4441 
Q 881 4594 1212 4672 
Q 1544 4750 1819 4750 
Q 2544 4750 2975 4387 
Q 3406 4025 3406 3419 
Q 3406 3131 3298 2873 
Q 3191 2616 2906 2266 
Q 2828 2175 2409 1742 
Q 1991 1309 1228 531 
z
" transform="scale(0.015625)"/>
        <path id="DejaVuSans-30" d="M 2034 4250 
Q 1547 4250 1301 3770 
Q 1056 3291 1056 2328 
Q 1056 1369 1301 889 
Q 1547 409 2034 409 
Q 2525 409 2770 889 
Q 3016 1369 3016 2328 
Q 3016 3291 2770 3770 
Q 2525 4250 2034 4250 
z
M 2034 4750 
Q 2819 4750 3233 4129 
Q 3647 3509 3647 2328 
Q 3647 1150 3233 529 
Q 2819 -91 2034 -91 
Q 1250 -91 836 529 
Q 422 1150 422 2328 
Q 422 3509 836 4129 
Q 1250 4750 2034 4750 
z
" transform="scale(0.015625)"/>
       </defs>
       <use xlink:href="#DejaVuSans-2212"/>
       <use xlink:href="#DejaVuSans-32" x="83.789062"/>
       <use xlink:href="#DejaVuSans-30" x="147.412109"/>
       <use xlink:href="#DejaVuSans-30" x="211.035156"/>
      </g>
     </g>
    </g>
    <g id="xtick_2">
     <g id="text_2">
      <!-- −100 -->
      <g transform="translate(330.945274 287.06881) scale(0.08 -0.08)">
       <defs>
        <path id="DejaVuSans-31" d="M 794 531 
L 1825 531 
L 1825 4091 
L 703 3866 
L 703 4441 
L 1819 4666 
L 2450 4666 
L 2450 531 
L 3481 531 
L 3481 0 
L 794 0 
L 794 531 
z
" transform="scale(0.015625)"/>
       </defs>
       <use xlink:href="#DejaVuSans-2212"/>
       <use xlink:href="#DejaVuSans-31" x="83.789062"/>
       <use xlink:href="#DejaVuSans-30" x="147.412109"/>
       <use xlink:href="#DejaVuSans-30" x="211.035156"/>
      </g>
     </g>
    </g>
    <g id="xtick_3">
     <g id="text_3">
      <!-- 0 -->
      <g transform="translate(514.325625 287.06881) scale(0.08 -0.08)">
       <use xlink:href="#DejaVuSans-30"/>
      </g>
     </g>
    </g>
    <g id="xtick_4">
     <g id="text_4">
      <!-- 100 -->
      <g transform="translate(684.174101 287.06881) scale(0.08 -0.08)">
       <use xlink:href="#DejaVuSans-31"/>
       <use xlink:href="#DejaVuSans-30" x="63.623047"/>
       <use xlink:href="#DejaVuSans-30" x="127.246094"/>
      </g>
     </g>
    </g>
    <g id="xtick_5">
     <g id="text_5">
      <!-- 200 -->
      <g transform="translate(859.112576 287.06881) scale(0.08 -0.08)">
       <use xlink:href="#DejaVuSans-32"/>
       <use xlink:href="#DejaVuSans-30" x="63.623047"/>
       <use xlink:href="#DejaVuSans-30" x="127.246094"/>
      </g>
     </g>
    </g>
    <g id="text_6">
     <!-- Inner Distance (bp) -->
     <g transform="translate(468.635469 300.330997) scale(0.1 -0.1)">
      <defs>
       <path id="DejaVuSans-49" d="M 628 4666 
L 1259 4666 
L 1259 0 
L 628 0 
L 628 4666 
z
" transform="scale(0.015625)"/>
       <path id="DejaVuSans-6e" d="M 3513 2113 
L 3513 0 
L 2938 0 
L 2938 2094 
Q 2938 2591 2744 2837 
Q 2550 3084 2163 3084 
Q 1697 3084 1428 2787 
Q 1159 2491 1159 1978 
L 1159 0 
L 581 0 
L 581 3500 
L 1159 3500 
L 1159 2956 
Q 1366 3272 1645 3428 
Q 1925 3584 2291 3584 
Q 2894 3584 3203 3211 
Q 3513 2838 3513 2113 
z
" transform="scale(0.015625)"/>
       <path id="DejaVuSans-65" d="M 3597 1894 
L 3597 1613 
L 953 1613 
Q 991 1019 1311 708 
Q 1631 397 2203 397 
Q 2534 397 2845 478 
Q 3156 559 3463 722 
L 3463 178 
Q 3153 47 2828 -22 
Q 2503 -91 2169 -91 
Q 1331 -91 842 396 
Q 353 884 353 1716 
Q 353 2575 817 3079 
Q 1281 3584 2069 3584 
Q 2775 3584 3186 3129 
Q 3597 2675 3597 1894 
z
M 3022 2063 
Q 3016 2534 2758 2815 
Q 2500 3097 2075 3097 
Q 1594 3097 1305 2825 
Q 1016 2553 972 2059 
L 3022 2063 
z
" transform="scale(0.015625)"/>
       <path id="DejaVuSans-72" d="M 2631 2963 
Q 2534 3019 2420 3045 
Q 2306 3072 2169 3072 
Q 1681 3072 1420 2755 
Q 1159 2438 1159 1844 
L 1159 0 
L 581 0 
L 581 3500 
L 1159 3500 
L 1159 2956 
Q 1341 3275 1631 3429 
Q 1922 3584 2338 3584 
Q 2397 3584 2469 3576 
Q 2541 3569 2628 3553 
L 2631 2963 
z
" transform="scale(0.015625)"/>
       <path id="DejaVuSans-20" transform="scale(0.015625)"/>
       <path id="DejaVuSans-44" d="M 1259 4147 
L 1259 519 
L 2022 519 
Q 2988 519 3436 956 
Q 3884 1394 3884 2338 
Q 3884 3275 3436 3711 
Q 2988 4147 2022 4147 
L 1259 4147 
z
M 628 4666 
L 1925 4666 
Q 3281 4666 3915 4102 
Q 4550 3538 4550 2338 
Q 4550 1131 3912 565 
Q 3275 0 1925 0 
L 628 0 
L 628 4666 
z
" transform="scale(0.015625)"/>
       <path id="DejaVuSans-69" d="M 603 3500 
L 1178 3500 
L 1178 0 
L 603 0 
L 603 3500 
z
M 603 4863 
L 1178 4863 
L 1178 4134 
L 603 4134 
L 603 4863 
z
" transform="scale(0.015625)"/>
       <path id="DejaVuSans-73" d="M 2834 3397 
L 2834 2853 
Q 2591 2978 2328 3040 
Q 2066 3103 1784 3103 
Q 1356 3103 1142 2972 
Q 928 2841 928 2578 
Q 928 2378 1081 2264 
Q 1234 2150 1697 2047 
L 1894 2003 
Q 2506 1872 2764 1633 
Q 3022 1394 3022 966 
Q 3022 478 2636 193 
Q 2250 -91 1575 -91 
Q 1294 -91 989 -36 
Q 684 19 347 128 
L 347 722 
Q 666 556 975 473 
Q 1284 391 1588 391 
Q 1994 391 2212 530 
Q 2431 669 2431 922 
Q 2431 1156 2273 1281 
Q 2116 1406 1581 1522 
L 1381 1569 
Q 847 1681 609 1914 
Q 372 2147 372 2553 
Q 372 3047 722 3315 
Q 1072 3584 1716 3584 
Q 2034 3584 2315 3537 
Q 2597 3491 2834 3397 
z
" transform="scale(0.015625)"/>
       <path id="DejaVuSans-74" d="M 1172 4494 
L 1172 3500 
L 2356 3500 
L 2356 3053 
L 1172 3053 
L 1172 1153 
Q 1172 725 1289 603 
Q 1406 481 1766 481 
L 2356 481 
L 2356 0 
L 1766 0 
Q 1100 0 847 248 
Q 594 497 594 1153 
L 594 3053 
L 172 3053 
L 172 3500 
L 594 3500 
L 594 4494 
L 1172 4494 
z
" transform="scale(0.015625)"/>
       <path id="DejaVuSans-61" d="M 2194 1759 
Q 1497 1759 1228 1600 
Q 959 1441 959 1056 
Q 959 750 1161 570 
Q 1363 391 1709 391 
Q 2188 391 2477 730 
Q 2766 1069 2766 1631 
L 2766 1759 
L 2194 1759 
z
M 3341 1997 
L 3341 0 
L 2766 0 
L 2766 531 
Q 2569 213 2275 61 
Q 1981 -91 1556 -91 
Q 1019 -91 701 211 
Q 384 513 384 1019 
Q 384 1609 779 1909 
Q 1175 2209 1959 2209 
L 2766 2209 
L 2766 2266 
Q 2766 2663 2505 2880 
Q 2244 3097 1772 3097 
Q 1472 3097 1187 3025 
Q 903 2953 641 2809 
L 641 3341 
Q 956 3463 1253 3523 
Q 1550 3584 1831 3584 
Q 2591 3584 2966 3190 
Q 3341 2797 3341 1997 
z
" transform="scale(0.015625)"/>
       <path id="DejaVuSans-63" d="M 3122 3366 
L 3122 2828 
Q 2878 2963 2633 3030 
Q 2388 3097 2138 3097 
Q 1578 3097 1268 2742 
Q 959 2388 959 1747 
Q 959 1106 1268 751 
Q 1578 397 2138 397 
Q 2388 397 2633 464 
Q 2878 531 3122 666 
L 3122 134 
Q 2881 22 2623 -34 
Q 2366 -91 2075 -91 
Q 1284 -91 818 406 
Q 353 903 353 1747 
Q 353 2603 823 3093 
Q 1294 3584 2113 3584 
Q 2378 3584 2631 3529 
Q 2884 3475 3122 3366 
z
" transform="scale(0.015625)"/>
       <path id="DejaVuSans-28" d="M 1984 4856 
Q 1566 4138 1362 3434 
Q 1159 2731 1159 2009 
Q 1159 1288 1364 580 
Q 1569 -128 1984 -844 
L 1484 -844 
Q 1016 -109 783 600 
Q 550 1309 550 2009 
Q 550 2706 781 3412 
Q 1013 4119 1484 4856 
L 1984 4856 
z
" transform="scale(0.015625)"/>
       <path id="DejaVuSans-62" d="M 3116 1747 
Q 3116 2381 2855 2742 
Q 2594 3103 2138 3103 
Q 1681 3103 1420 2742 
Q 1159 2381 1159 1747 
Q 1159 1113 1420 752 
Q 1681 391 2138 391 
Q 2594 391 2855 752 
Q 3116 1113 3116 1747 
z
M 1159 2969 
Q 1341 3281 1617 3432 
Q 1894 3584 2278 3584 
Q 2916 3584 3314 3078 
Q 3713 2572 3713 1747 
Q 3713 922 3314 415 
Q 2916 -91 2278 -91 
Q 1894 -91 1617 61 
Q 1341 213 1159 525 
L 1159 0 
L 581 0 
L 581 4863 
L 1159 4863 
L 1159 2969 
z
" transform="scale(0.015625)"/>
       <path id="DejaVuSans-70" d="M 1159 525 
L 1159 -1331 
L 581 -1331 
L 581 3500 
L 1159 3500 
L 1159 2969 
Q 1341 3281 1617 3432 
Q 1894 3584 2278 3584 
Q 2916 3584 3314 3078 
Q 3713 2572 3713 1747 
Q 3713 922 3314 415 
Q 2916 -91 2278 -91 
Q 1894 -91 1617 61 
Q 1341 213 1159 525 
z
M 3116 1747 
Q 3116 2381 2855 2742 
Q 2594 3103 2138 3103 
Q 1681 3103 1420 2742 
Q 1159 2381 1159 1747 
Q 1159 1113 1420 752 
Q 1681 391 2138 391 
Q 2594 391 2855 752 
Q 3116 1113 3116 1747 
z
" transform="scale(0.015625)"/>
       <path id="DejaVuSans-29" d="M 513 4856 
L 1013 4856 
Q 1481 4119 1714 3412 
Q 1947 2706 1947 2009 
Q 1947 1309 1714 600 
Q 1481 -109 1013 -844 
L 513 -844 
Q 928 -128 1133 580 
Q 1338 1288 1338 2009 
Q 1338 2731 1133 3434 
Q 928 4138 513 4856 
z
" transform="scale(0.015625)"/>
      </defs>
      <use xlink:href="#DejaVuSans-49"/>
      <use xlink:href="#DejaVuSans-6e" x="29.492188"/>
      <use xlink:href="#DejaVuSans-6e" x="92.871094"/>
      <use xlink:href="#DejaVuSans-65" x="156.25"/>
      <use xlink:href="#DejaVuSans-72" x="217.773438"/>
      <use xlink:href="#DejaVuSans-20" x="258.886719"/>
      <use xlink:href="#DejaVuSans-44" x="290.673828"/>
      <use xlink:href="#DejaVuSans-69" x="367.675781"/>
      <use xlink:href="#DejaVuSans-73" x="395.458984"/>
      <use xlink:href="#DejaVuSans-74" x="447.558594"/>
      <use xlink:href="#DejaVuSans-61" x="486.767578"/>
      <use xlink:href="#DejaVuSans-6e" x="548.046875"/>
      <use xlink:href="#DejaVuSans-63" x="611.425781"/>
      <use xlink:href="#DejaVuSans-65" x="666.40625"/>
      <use xlink:href="#DejaVuSans-20" x="727.929688"/>
      <use xlink:href="#DejaVuSans-28" x="759.716797"/>
      <use xlink:href="#DejaVuSans-62" x="798.730469"/>
      <use xlink:href="#DejaVuSans-70" x="862.207031"/>
      <use xlink:href="#DejaVuSans-29" x="925.683594"/>
     </g>
    </g>
   </g>
   <g id="matplotlib.axis_2">
    <g id="ytick_1">
     <g id="line2d_1">
      <path d="M 40.600625 262.967005 
L 993.140625 262.967005 
" clip-path="url(#p3d81662c55)" style="fill: none; stroke: #dedede; stroke-linecap: square"/>
     </g>
     <g id="text_7">
      <!-- 0.0 -->
      <g transform="translate(20.878125 266.00638) scale(0.08 -0.08)">
       <defs>
        <path id="DejaVuSans-2e" d="M 684 794 
L 1344 794 
L 1344 0 
L 684 0 
L 684 794 
z
" transform="scale(0.015625)"/>
       </defs>
       <use xlink:href="#DejaVuSans-30"/>
       <use xlink:href="#DejaVuSans-2e" x="63.623047"/>
       <use xlink:href="#DejaVuSans-30" x="95.410156"/>
      </g>
     </g>
    </g>
    <g id="ytick_2">
     <g id="line2d_2">
      <path d="M 40.600625 232.319166 
L 993.140625 232.319166 
" clip-path="url(#p3d81662c55)" style="fill: none; stroke: #dedede; stroke-linecap: square"/>
     </g>
     <g id="text_8">
      <!-- 0.5 -->
      <g transform="translate(20.878125 235.358541) scale(0.08 -0.08)">
       <defs>
        <path id="DejaVuSans-35" d="M 691 4666 
L 3169 4666 
L 3169 4134 
L 1269 4134 
L 1269 2991 
Q 1406 3038 1543 3061 
Q 1681 3084 1819 3084 
Q 2600 3084 3056 2656 
Q 3513 2228 3513 1497 
Q 3513 744 3044 326 
Q 2575 -91 1722 -91 
Q 1428 -91 1123 -41 
Q 819 9 494 109 
L 494 744 
Q 775 591 1075 516 
Q 1375 441 1709 441 
Q 2250 441 2565 725 
Q 2881 1009 2881 1497 
Q 2881 1984 2565 2268 
Q 2250 2553 1709 2553 
Q 1456 2553 1204 2497 
Q 953 2441 691 2322 
L 691 4666 
z
" transform="scale(0.015625)"/>
       </defs>
       <use xlink:href="#DejaVuSans-30"/>
       <use xlink:href="#DejaVuSans-2e" x="63.623047"/>
       <use xlink:href="#DejaVuSans-35" x="95.410156"/>
      </g>
     </g>
    </g>
    <g id="ytick_3">
     <g id="line2d_3">
      <path d="M 40.600625 201.671328 
L 993.140625 201.671328 
" clip-path="url(#p3d81662c55)" style="fill: none; stroke: #dedede; stroke-linecap: square"/>
     </g>
     <g id="text_9">
      <!-- 1.0 -->
      <g transform="translate(20.878125 204.710703) scale(0.08 -0.08)">
       <use xlink:href="#DejaVuSans-31"/>
       <use xlink:href="#DejaVuSans-2e" x="63.623047"/>
       <use xlink:href="#DejaVuSans-30" x="95.410156"/>
      </g>
     </g>
    </g>
    <g id="ytick_4">
     <g id="line2d_4">
      <path d="M 40.600625 171.023489 
L 993.140625 171.023489 
" clip-path="url(#p3d81662c55)" style="fill: none; stroke: #dedede; stroke-linecap: square"/>
     </g>
     <g id="text_10">
      <!-- 1.5 -->
      <g transform="translate(20.878125 174.062864) scale(0.08 -0.08)">
       <use xlink:href="#DejaVuSans-31"/>
       <use xlink:href="#DejaVuSans-2e" x="63.623047"/>
       <use xlink:href="#DejaVuSans-35" x="95.410156"/>
      </g>
     </g>
    </g>
    <g id="ytick_5">
     <g id="line2d_5">
      <path d="M 40.600625 140.37565 
L 993.140625 140.37565 
" clip-path="url(#p3d81662c55)" style="fill: none; stroke: #dedede; stroke-linecap: square"/>
     </g>
     <g id="text_11">
      <!-- 2.0 -->
      <g transform="translate(20.878125 143.415025) scale(0.08 -0.08)">
       <use xlink:href="#DejaVuSans-32"/>
       <use xlink:href="#DejaVuSans-2e" x="63.623047"/>
       <use xlink:href="#DejaVuSans-30" x="95.410156"/>
      </g>
     </g>
    </g>
    <g id="ytick_6">
     <g id="line2d_6">
      <path d="M 40.600625 109.727811 
L 993.140625 109.727811 
" clip-path="url(#p3d81662c55)" style="fill: none; stroke: #dedede; stroke-linecap: square"/>
     </g>
     <g id="text_12">
      <!-- 2.5 -->
      <g transform="translate(20.878125 112.767186) scale(0.08 -0.08)">
       <use xlink:href="#DejaVuSans-32"/>
       <use xlink:href="#DejaVuSans-2e" x="63.623047"/>
       <use xlink:href="#DejaVuSans-35" x="95.410156"/>
      </g>
     </g>
    </g>
    <g id="ytick_7">
     <g id="line2d_7">
      <path d="M 40.600625 79.079972 
L 993.140625 79.079972 
" clip-path="url(#p3d81662c55)" style="fill: none; stroke: #dedede; stroke-linecap: square"/>
     </g>
     <g id="text_13">
      <!-- 3.0 -->
      <g transform="translate(20.878125 82.119347) scale(0.08 -0.08)">
       <defs>
        <path id="DejaVuSans-33" d="M 2597 2516 
Q 3050 2419 3304 2112 
Q 3559 1806 3559 1356 
Q 3559 666 3084 287 
Q 2609 -91 1734 -91 
Q 1441 -91 1130 -33 
Q 819 25 488 141 
L 488 750 
Q 750 597 1062 519 
Q 1375 441 1716 441 
Q 2309 441 2620 675 
Q 2931 909 2931 1356 
Q 2931 1769 2642 2001 
Q 2353 2234 1838 2234 
L 1294 2234 
L 1294 2753 
L 1863 2753 
Q 2328 2753 2575 2939 
Q 2822 3125 2822 3475 
Q 2822 3834 2567 4026 
Q 2313 4219 1838 4219 
Q 1578 4219 1281 4162 
Q 984 4106 628 3988 
L 628 4550 
Q 988 4650 1302 4700 
Q 1616 4750 1894 4750 
Q 2613 4750 3031 4423 
Q 3450 4097 3450 3541 
Q 3450 3153 3228 2886 
Q 3006 2619 2597 2516 
z
" transform="scale(0.015625)"/>
       </defs>
       <use xlink:href="#DejaVuSans-33"/>
       <use xlink:href="#DejaVuSans-2e" x="63.623047"/>
       <use xlink:href="#DejaVuSans-30" x="95.410156"/>
      </g>
     </g>
    </g>
    <g id="ytick_8">
     <g id="line2d_8">
      <path d="M 40.600625 48.432133 
L 993.140625 48.432133 
" clip-path="url(#p3d81662c55)" style="fill: none; stroke: #dedede; stroke-linecap: square"/>
     </g>
     <g id="text_14">
      <!-- 3.5 -->
      <g transform="translate(20.878125 51.471508) scale(0.08 -0.08)">
       <use xlink:href="#DejaVuSans-33"/>
       <use xlink:href="#DejaVuSans-2e" x="63.623047"/>
       <use xlink:href="#DejaVuSans-35" x="95.410156"/>
      </g>
     </g>
    </g>
    <g id="text_15">
     <!-- Percentage -->
     <g transform="translate(14.798438 180.859116) rotate(-90) scale(0.1 -0.1)">
      <defs>
       <path id="DejaVuSans-50" d="M 1259 4147 
L 1259 2394 
L 2053 2394 
Q 2494 2394 2734 2622 
Q 2975 2850 2975 3272 
Q 2975 3691 2734 3919 
Q 2494 4147 2053 4147 
L 1259 4147 
z
M 628 4666 
L 2053 4666 
Q 2838 4666 3239 4311 
Q 3641 3956 3641 3272 
Q 3641 2581 3239 2228 
Q 2838 1875 2053 1875 
L 1259 1875 
L 1259 0 
L 628 0 
L 628 4666 
z
" transform="scale(0.015625)"/>
       <path id="DejaVuSans-67" d="M 2906 1791 
Q 2906 2416 2648 2759 
Q 2391 3103 1925 3103 
Q 1463 3103 1205 2759 
Q 947 2416 947 1791 
Q 947 1169 1205 825 
Q 1463 481 1925 481 
Q 2391 481 2648 825 
Q 2906 1169 2906 1791 
z
M 3481 434 
Q 3481 -459 3084 -895 
Q 2688 -1331 1869 -1331 
Q 1566 -1331 1297 -1286 
Q 1028 -1241 775 -1147 
L 775 -588 
Q 1028 -725 1275 -790 
Q 1522 -856 1778 -856 
Q 2344 -856 2625 -561 
Q 2906 -266 2906 331 
L 2906 616 
Q 2728 306 2450 153 
Q 2172 0 1784 0 
Q 1141 0 747 490 
Q 353 981 353 1791 
Q 353 2603 747 3093 
Q 1141 3584 1784 3584 
Q 2172 3584 2450 3431 
Q 2728 3278 2906 2969 
L 2906 3500 
L 3481 3500 
L 3481 434 
z
" transform="scale(0.015625)"/>
      </defs>
      <use xlink:href="#DejaVuSans-50"/>
      <use xlink:href="#DejaVuSans-65" x="56.677734"/>
      <use xlink:href="#DejaVuSans-72" x="118.201172"/>
      <use xlink:href="#DejaVuSans-63" x="157.064453"/>
      <use xlink:href="#DejaVuSans-65" x="212.044922"/>
      <use xlink:href="#DejaVuSans-6e" x="273.568359"/>
      <use xlink:href="#DejaVuSans-74" x="336.947266"/>
      <use xlink:href="#DejaVuSans-61" x="376.15625"/>
      <use xlink:href="#DejaVuSans-67" x="437.435547"/>
      <use xlink:href="#DejaVuSans-65" x="500.912109"/>
     </g>
    </g>
   </g>
   <g id="line2d_9">
    <path d="M 83.897898 262.967005 
L 92.644822 262.967005 
L 101.391745 262.967005 
L 110.138669 262.967005 
L 118.885593 262.967005 
L 127.632517 262.967005 
L 136.37944 262.967005 
L 145.126364 262.967005 
L 153.873288 262.967005 
L 162.620212 262.967005 
L 171.367136 262.967005 
L 180.114059 262.967005 
L 188.860983 262.967005 
L 197.607907 262.967005 
L 206.354831 262.967005 
L 215.101754 262.967005 
L 223.848678 262.967005 
L 232.595602 262.967005 
L 241.342526 262.967005 
L 250.08945 262.967005 
L 258.836373 262.967005 
L 267.583297 262.967005 
L 276.330221 262.967005 
L 285.077145 262.967005 
L 293.824069 262.967005 
L 302.570992 262.967005 
L 311.317916 262.967005 
L 320.06484 262.967005 
L 328.811764 262.967005 
L 337.558687 262.967005 
L 346.305611 262.967005 
L 355.052535 262.967005 
L 363.799459 262.967005 
L 372.546383 262.967005 
L 381.293306 262.967005 
L 390.04023 262.967005 
L 398.787154 262.967005 
L 407.534078 262.967005 
L 416.281001 262.967005 
L 425.027925 262.928767 
L 433.774849 262.297841 
L 442.521773 262.326519 
L 451.268697 262.336079 
L 460.01562 261.93458 
L 468.762544 261.915461 
L 477.509468 262.278722 
L 486.256392 262.259603 
L 495.003316 261.93458 
L 503.750239 262.077972 
L 512.497163 261.772068 
L 521.244087 254.898791 
L 529.991011 253.493545 
L 538.737934 253.120725 
L 547.484858 253.331034 
L 556.231782 252.480239 
L 564.978706 251.141909 
L 573.72563 250.224198 
L 582.472553 248.981463 
L 591.219477 246.811458 
L 599.966401 242.882505 
L 608.713325 241.171355 
L 617.460249 237.060772 
L 626.207172 233.1127 
L 634.954096 226.975504 
L 643.70102 219.404383 
L 652.447944 213.620888 
L 661.194867 205.543115 
L 669.941791 197.84772 
L 678.688715 188.488974 
L 687.435639 177.629387 
L 696.182563 166.301384 
L 704.929486 151.206941 
L 713.67641 144.630008 
L 722.423334 131.638653 
L 731.170258 121.094529 
L 739.917181 109.51798 
L 748.664105 100.187912 
L 757.411029 89.892335 
L 766.157953 80.046054 
L 774.904877 71.375592 
L 783.6518 61.835215 
L 792.398724 56.902515 
L 801.145648 51.12858 
L 809.892572 49.943202 
L 818.639496 48.939455 
L 827.386419 44.67592 
L 836.133343 42.505915 
L 844.880267 45.306847 
L 853.627191 45.765703 
L 862.374114 46.415748 
L 871.121038 50.459415 
L 879.867962 52.64854 
L 888.614886 60.41085 
L 897.36181 62.982354 
L 906.108733 68.632016 
L 914.855657 72.771278 
L 923.602581 80.007816 
L 932.349505 83.869853 
L 941.096428 90.695333 
L 949.843352 97.348742 
" clip-path="url(#p3d81662c55)" style="fill: none; stroke: #7cb5ec; stroke-linecap: square"/>
   </g>
   <g id="line2d_10">
    <path d="M 83.897898 262.967005 
L 92.644822 262.967005 
L 101.391745 262.967005 
L 110.138669 262.967005 
L 118.885593 262.967005 
L 127.632517 262.967005 
L 136.37944 262.967005 
L 145.126364 262.967005 
L 153.873288 262.967005 
L 162.620212 262.967005 
L 171.367136 262.967005 
L 180.114059 262.967005 
L 188.860983 262.967005 
L 197.607907 262.967005 
L 206.354831 262.967005 
L 215.101754 262.967005 
L 223.848678 262.967005 
L 232.595602 262.967005 
L 241.342526 262.967005 
L 250.08945 262.967005 
L 258.836373 262.967005 
L 267.583297 262.967005 
L 276.330221 262.967005 
L 285.077145 262.967005 
L 293.824069 262.967005 
L 302.570992 262.967005 
L 311.317916 262.967005 
L 320.06484 262.967005 
L 328.811764 262.967005 
L 337.558687 262.967005 
L 346.305611 262.967005 
L 355.052535 262.967005 
L 363.799459 262.967005 
L 372.546383 262.967005 
L 381.293306 262.967005 
L 390.04023 262.967005 
L 398.787154 262.967005 
L 407.534078 262.967005 
L 416.281001 262.967005 
L 425.027925 262.882428 
L 433.774849 262.513364 
L 442.521773 262.428787 
L 451.268697 262.405721 
L 460.01562 262.41341 
L 468.762544 262.336521 
L 477.509468 262.221189 
L 486.256392 262.113545 
L 495.003316 261.875191 
L 503.750239 261.521505 
L 512.497163 260.537334 
L 521.244087 253.1945 
L 529.991011 251.956598 
L 538.737934 249.296262 
L 547.484858 247.035745 
L 556.231782 243.798747 
L 564.978706 236.578933 
L 573.72563 230.197203 
L 582.472553 220.978293 
L 591.219477 212.658976 
L 599.966401 199.557206 
L 608.713325 188.047024 
L 617.460249 173.269089 
L 626.207172 158.890973 
L 634.954096 142.429183 
L 643.70102 127.858846 
L 652.447944 115.918089 
L 661.194867 106.868334 
L 669.941791 91.006273 
L 678.688715 86.569817 
L 687.435639 75.966917 
L 696.182563 71.122953 
L 704.929486 65.141042 
L 713.67641 66.286678 
L 722.423334 65.225619 
L 731.170258 65.064153 
L 739.917181 66.102146 
L 748.664105 66.286678 
L 757.411029 70.538602 
L 766.157953 71.684238 
L 774.904877 77.350907 
L 783.6518 80.941592 
L 792.398724 88.515091 
L 801.145648 92.651683 
L 809.892572 98.033866 
L 818.639496 106.945222 
L 827.386419 113.103977 
L 836.133343 118.109407 
L 844.880267 125.136999 
L 853.627191 130.92669 
L 862.374114 134.840306 
L 871.121038 140.845283 
L 879.867962 146.619596 
L 888.614886 152.532308 
L 897.36181 157.114852 
L 906.108733 161.651263 
L 914.855657 168.748056 
L 923.602581 170.654886 
L 932.349505 177.34417 
L 941.096428 181.480762 
L 949.843352 185.094513 
" clip-path="url(#p3d81662c55)" style="fill: none; stroke: #434348; stroke-linecap: square"/>
   </g>
   <g id="line2d_11">
    <path d="M 83.897898 262.967005 
L 92.644822 262.967005 
L 101.391745 262.967005 
L 110.138669 262.967005 
L 118.885593 262.967005 
L 127.632517 262.967005 
L 136.37944 262.967005 
L 145.126364 262.967005 
L 153.873288 262.967005 
L 162.620212 262.967005 
L 171.367136 262.967005 
L 180.114059 262.967005 
L 188.860983 262.967005 
L 197.607907 262.967005 
L 206.354831 262.967005 
L 215.101754 262.967005 
L 223.848678 262.967005 
L 232.595602 262.967005 
L 241.342526 262.967005 
L 250.08945 262.967005 
L 258.836373 262.967005 
L 267.583297 262.967005 
L 276.330221 262.967005 
L 285.077145 262.967005 
L 293.824069 262.967005 
L 302.570992 262.967005 
L 311.317916 262.967005 
L 320.06484 262.967005 
L 328.811764 262.967005 
L 337.558687 262.967005 
L 346.305611 262.967005 
L 355.052535 262.967005 
L 363.799459 262.967005 
L 372.546383 262.967005 
L 381.293306 262.967005 
L 390.04023 262.967005 
L 398.787154 262.967005 
L 407.534078 262.967005 
L 416.281001 262.967005 
L 425.027925 262.907081 
L 433.774849 262.39344 
L 442.521773 262.26503 
L 451.268697 262.290712 
L 460.01562 262.27359 
L 468.762544 262.170862 
L 477.509468 262.102377 
L 486.256392 261.982527 
L 495.003316 261.948284 
L 503.750239 261.349037 
L 512.497163 260.715546 
L 521.244087 256.769072 
L 529.991011 254.911404 
L 538.737934 253.267753 
L 547.484858 252.454489 
L 556.231782 250.905005 
L 564.978706 247.900206 
L 573.72563 244.732754 
L 582.472553 239.853165 
L 591.219477 236.240558 
L 599.966401 230.342248 
L 608.713325 224.289847 
L 617.460249 215.720604 
L 626.207172 207.647882 
L 634.954096 195.517396 
L 643.70102 188.0268 
L 652.447944 177.402994 
L 661.194867 167.917759 
L 669.941791 155.838637 
L 678.688715 144.983693 
L 687.435639 134.976257 
L 696.182563 124.540786 
L 704.929486 112.941062 
L 713.67641 108.301173 
L 722.423334 98.233812 
L 731.170258 92.044439 
L 739.917181 85.178772 
L 748.664105 79.049324 
L 757.411029 73.664656 
L 766.157953 74.306707 
L 774.904877 68.785067 
L 783.6518 66.730504 
L 792.398724 68.399837 
L 801.145648 65.55769 
L 809.892572 67.860514 
L 818.639496 71.661456 
L 827.386419 70.754024 
L 836.133343 72.354872 
L 844.880267 78.852429 
L 853.627191 81.275102 
L 862.374114 82.875949 
L 871.121038 86.668331 
L 879.867962 91.068521 
L 888.614886 95.425908 
L 897.36181 103.079157 
L 906.108733 108.575115 
L 914.855657 113.326293 
L 923.602581 119.130435 
L 932.349505 123.975781 
L 941.096428 130.139472 
L 949.843352 134.565344 
" clip-path="url(#p3d81662c55)" style="fill: none; stroke: #90ed7d; stroke-linecap: square"/>
   </g>
   <g id="line2d_12">
    <path d="M 83.897898 262.967005 
L 92.644822 262.967005 
L 101.391745 262.967005 
L 110.138669 262.967005 
L 118.885593 262.967005 
L 127.632517 262.967005 
L 136.37944 262.967005 
L 145.126364 262.967005 
L 153.873288 262.967005 
L 162.620212 262.967005 
L 171.367136 262.967005 
L 180.114059 262.967005 
L 188.860983 262.967005 
L 197.607907 262.967005 
L 206.354831 262.967005 
L 215.101754 262.967005 
L 223.848678 262.967005 
L 232.595602 262.967005 
L 241.342526 262.967005 
L 250.08945 262.967005 
L 258.836373 262.967005 
L 267.583297 262.967005 
L 276.330221 262.967005 
L 285.077145 262.967005 
L 293.824069 262.967005 
L 302.570992 262.967005 
L 311.317916 262.967005 
L 320.06484 262.967005 
L 328.811764 262.967005 
L 337.558687 262.967005 
L 346.305611 262.967005 
L 355.052535 262.967005 
L 363.799459 262.967005 
L 372.546383 262.967005 
L 381.293306 262.967005 
L 390.04023 262.967005 
L 398.787154 262.967005 
L 407.534078 262.967005 
L 416.281001 262.967005 
L 425.027925 262.871144 
L 433.774849 262.426697 
L 442.521773 262.313407 
L 451.268697 262.234975 
L 460.01562 262.008394 
L 468.762544 262.104256 
L 477.509468 262.226261 
L 486.256392 261.895104 
L 495.003316 261.642379 
L 503.750239 261.337367 
L 512.497163 260.492046 
L 521.244087 252.256706 
L 529.991011 249.459305 
L 538.737934 247.550798 
L 547.484858 246.173884 
L 556.231782 242.975609 
L 564.978706 239.855766 
L 573.72563 234.775128 
L 582.472553 229.424336 
L 591.219477 223.498377 
L 599.966401 217.040825 
L 608.713325 209.685664 
L 617.460249 199.201946 
L 626.207172 192.796681 
L 634.954096 181.197488 
L 643.70102 170.757343 
L 652.447944 161.14509 
L 661.194867 152.796459 
L 669.941791 141.040403 
L 678.688715 134.922722 
L 687.435639 122.91394 
L 696.182563 119.74181 
L 704.929486 109.519531 
L 713.67641 107.314725 
L 722.423334 98.608795 
L 731.170258 92.656692 
L 739.917181 87.785205 
L 748.664105 87.366902 
L 757.411029 85.458395 
L 766.157953 83.663178 
L 774.904877 80.186034 
L 783.6518 79.009557 
L 792.398724 82.382125 
L 801.145648 82.077113 
L 809.892572 80.735057 
L 818.639496 81.484517 
L 827.386419 85.170812 
L 836.133343 86.512867 
L 844.880267 88.944253 
L 853.627191 92.064096 
L 862.374114 95.462808 
L 871.121038 97.310313 
L 879.867962 102.817968 
L 888.614886 109.231947 
L 897.36181 111.253745 
L 906.108733 114.086005 
L 914.855657 118.269035 
L 923.602581 122.879082 
L 932.349505 128.238589 
L 941.096428 133.441232 
L 949.843352 136.726653 
" clip-path="url(#p3d81662c55)" style="fill: none; stroke: #f7a35c; stroke-linecap: square"/>
   </g>
   <g id="line2d_13">
    <path d="M 40.600625 262.967005 
L 993.140625 262.967005 
" clip-path="url(#p3d81662c55)" style="fill: none; stroke: #dedede; stroke-width: 2; stroke-linecap: square"/>
   </g>
   <g id="text_16">
    <!-- RSeQC: Inner Distance -->
    <g transform="translate(425.955625 19.3575) scale(0.16 -0.16)">
     <defs>
      <path id="DejaVuSans-52" d="M 2841 2188 
Q 3044 2119 3236 1894 
Q 3428 1669 3622 1275 
L 4263 0 
L 3584 0 
L 2988 1197 
Q 2756 1666 2539 1819 
Q 2322 1972 1947 1972 
L 1259 1972 
L 1259 0 
L 628 0 
L 628 4666 
L 2053 4666 
Q 2853 4666 3247 4331 
Q 3641 3997 3641 3322 
Q 3641 2881 3436 2590 
Q 3231 2300 2841 2188 
z
M 1259 4147 
L 1259 2491 
L 2053 2491 
Q 2509 2491 2742 2702 
Q 2975 2913 2975 3322 
Q 2975 3731 2742 3939 
Q 2509 4147 2053 4147 
L 1259 4147 
z
" transform="scale(0.015625)"/>
      <path id="DejaVuSans-53" d="M 3425 4513 
L 3425 3897 
Q 3066 4069 2747 4153 
Q 2428 4238 2131 4238 
Q 1616 4238 1336 4038 
Q 1056 3838 1056 3469 
Q 1056 3159 1242 3001 
Q 1428 2844 1947 2747 
L 2328 2669 
Q 3034 2534 3370 2195 
Q 3706 1856 3706 1288 
Q 3706 609 3251 259 
Q 2797 -91 1919 -91 
Q 1588 -91 1214 -16 
Q 841 59 441 206 
L 441 856 
Q 825 641 1194 531 
Q 1563 422 1919 422 
Q 2459 422 2753 634 
Q 3047 847 3047 1241 
Q 3047 1584 2836 1778 
Q 2625 1972 2144 2069 
L 1759 2144 
Q 1053 2284 737 2584 
Q 422 2884 422 3419 
Q 422 4038 858 4394 
Q 1294 4750 2059 4750 
Q 2388 4750 2728 4690 
Q 3069 4631 3425 4513 
z
" transform="scale(0.015625)"/>
      <path id="DejaVuSans-51" d="M 2522 4238 
Q 1834 4238 1429 3725 
Q 1025 3213 1025 2328 
Q 1025 1447 1429 934 
Q 1834 422 2522 422 
Q 3209 422 3611 934 
Q 4013 1447 4013 2328 
Q 4013 3213 3611 3725 
Q 3209 4238 2522 4238 
z
M 3406 84 
L 4238 -825 
L 3475 -825 
L 2784 -78 
Q 2681 -84 2626 -87 
Q 2572 -91 2522 -91 
Q 1538 -91 948 567 
Q 359 1225 359 2328 
Q 359 3434 948 4092 
Q 1538 4750 2522 4750 
Q 3503 4750 4090 4092 
Q 4678 3434 4678 2328 
Q 4678 1516 4351 937 
Q 4025 359 3406 84 
z
" transform="scale(0.015625)"/>
      <path id="DejaVuSans-43" d="M 4122 4306 
L 4122 3641 
Q 3803 3938 3442 4084 
Q 3081 4231 2675 4231 
Q 1875 4231 1450 3742 
Q 1025 3253 1025 2328 
Q 1025 1406 1450 917 
Q 1875 428 2675 428 
Q 3081 428 3442 575 
Q 3803 722 4122 1019 
L 4122 359 
Q 3791 134 3420 21 
Q 3050 -91 2638 -91 
Q 1578 -91 968 557 
Q 359 1206 359 2328 
Q 359 3453 968 4101 
Q 1578 4750 2638 4750 
Q 3056 4750 3426 4639 
Q 3797 4528 4122 4306 
z
" transform="scale(0.015625)"/>
      <path id="DejaVuSans-3a" d="M 750 794 
L 1409 794 
L 1409 0 
L 750 0 
L 750 794 
z
M 750 3309 
L 1409 3309 
L 1409 2516 
L 750 2516 
L 750 3309 
z
" transform="scale(0.015625)"/>
     </defs>
     <use xlink:href="#DejaVuSans-52"/>
     <use xlink:href="#DejaVuSans-53" x="69.482422"/>
     <use xlink:href="#DejaVuSans-65" x="132.958984"/>
     <use xlink:href="#DejaVuSans-51" x="194.482422"/>
     <use xlink:href="#DejaVuSans-43" x="273.193359"/>
     <use xlink:href="#DejaVuSans-3a" x="343.017578"/>
     <use xlink:href="#DejaVuSans-20" x="376.708984"/>
     <use xlink:href="#DejaVuSans-49" x="408.496094"/>
     <use xlink:href="#DejaVuSans-6e" x="437.988281"/>
     <use xlink:href="#DejaVuSans-6e" x="501.367188"/>
     <use xlink:href="#DejaVuSans-65" x="564.746094"/>
     <use xlink:href="#DejaVuSans-72" x="626.269531"/>
     <use xlink:href="#DejaVuSans-20" x="667.382812"/>
     <use xlink:href="#DejaVuSans-44" x="699.169922"/>
     <use xlink:href="#DejaVuSans-69" x="776.171875"/>
     <use xlink:href="#DejaVuSans-73" x="803.955078"/>
     <use xlink:href="#DejaVuSans-74" x="856.054688"/>
     <use xlink:href="#DejaVuSans-61" x="895.263672"/>
     <use xlink:href="#DejaVuSans-6e" x="956.542969"/>
     <use xlink:href="#DejaVuSans-63" x="1019.921875"/>
     <use xlink:href="#DejaVuSans-65" x="1074.902344"/>
    </g>
   </g>
   <g id="legend_1">
    <g id="line2d_14">
     <path d="M 47.800625 315.677894 
L 55.800625 315.677894 
L 63.800625 315.677894 
" style="fill: none; stroke: #7cb5ec; stroke-linecap: square"/>
    </g>
    <g id="text_17">
     <!-- 17 -->
     <g transform="translate(70.200625 318.477894) scale(0.08 -0.08)">
      <defs>
       <path id="DejaVuSans-37" d="M 525 4666 
L 3525 4666 
L 3525 4397 
L 1831 0 
L 1172 0 
L 2766 4134 
L 525 4134 
L 525 4666 
z
" transform="scale(0.015625)"/>
      </defs>
      <use xlink:href="#DejaVuSans-31"/>
      <use xlink:href="#DejaVuSans-37" x="63.623047"/>
     </g>
    </g>
    <g id="line2d_15">
     <path d="M 353.047292 315.677894 
L 361.047292 315.677894 
L 369.047292 315.677894 
" style="fill: none; stroke: #434348; stroke-linecap: square"/>
    </g>
    <g id="text_18">
     <!-- 2 -->
     <g transform="translate(375.447292 318.477894) scale(0.08 -0.08)">
      <use xlink:href="#DejaVuSans-32"/>
     </g>
    </g>
    <g id="line2d_16">
     <path d="M 653.203958 315.677894 
L 661.203958 315.677894 
L 669.203958 315.677894 
" style="fill: none; stroke: #90ed7d; stroke-linecap: square"/>
    </g>
    <g id="text_19">
     <!-- 20 -->
     <g transform="translate(675.603958 318.477894) scale(0.08 -0.08)">
      <use xlink:href="#DejaVuSans-32"/>
      <use xlink:href="#DejaVuSans-30" x="63.623047"/>
     </g>
    </g>
    <g id="line2d_17">
     <path d="M 958.450625 315.677894 
L 966.450625 315.677894 
L 974.450625 315.677894 
" style="fill: none; stroke: #f7a35c; stroke-linecap: square"/>
    </g>
    <g id="text_20">
     <!-- 5 -->
     <g transform="translate(980.850625 318.477894) scale(0.08 -0.08)">
      <use xlink:href="#DejaVuSans-35"/>
     </g>
    </g>
   </g>
  </g>
 </g>
 <defs>
  <clipPath id="p3d81662c55">
   <rect x="40.600625" y="31.48286" width="952.54" height="242.5072"/>
  </clipPath>
 </defs>
</svg>
