<?xml version="1.0" encoding="utf-8" standalone="no"?>
<!DOCTYPE svg PUBLIC "-//W3C//DTD SVG 1.1//EN"
  "http://www.w3.org/Graphics/SVG/1.1/DTD/svg11.dtd">
<svg xmlns:xlink="http://www.w3.org/1999/xlink" width="1000.340625pt" height="388.844525pt" viewBox="0 0 1000.340625 388.844525" xmlns="http://www.w3.org/2000/svg" version="1.1">
 <metadata>
  <rdf:RDF xmlns:dc="http://purl.org/dc/elements/1.1/" xmlns:cc="http://creativecommons.org/ns#" xmlns:rdf="http://www.w3.org/1999/02/22-rdf-syntax-ns#">
   <cc:Work>
    <dc:type rdf:resource="http://purl.org/dc/dcmitype/StillImage"/>
    <dc:date>2025-04-01T05:20:45.934447</dc:date>
    <dc:format>image/svg+xml</dc:format>
    <dc:creator>
     <cc:Agent>
      <dc:title>Matplotlib v3.8.2, https://matplotlib.org/</dc:title>
     </cc:Agent>
    </dc:creator>
   </cc:Work>
  </rdf:RDF>
 </metadata>
 <defs>
  <style type="text/css">*{stroke-linejoin: round; stroke-linecap: butt}</style>
 </defs>
 <g id="figure_1">
  <g id="axes_1">
   <g id="patch_1">
    <path d="M 40.600625 353.2239 
L 993.140625 353.2239 
L 993.140625 35.2559 
L 40.600625 35.2559 
z
" style="fill: #ffffff"/>
   </g>
   <g id="matplotlib.axis_1">
    <g id="xtick_1">
     <g id="text_1">
      <!-- 20 -->
      <g transform="translate(78.807898 366.30265) scale(0.08 -0.08)">
       <defs>
        <path id="DejaVuSans-32" d="M 1228 531 
L 3431 531 
L 3431 0 
L 469 0 
L 469 531 
Q 828 903 1448 1529 
Q 2069 2156 2228 2338 
Q 2531 2678 2651 2914 
Q 2772 3150 2772 3378 
Q 2772 3750 2511 3984 
Q 2250 4219 1831 4219 
Q 1534 4219 1204 4116 
Q 875 4013 500 3803 
L 500 4441 
Q 881 4594 1212 4672 
Q 1544 4750 1819 4750 
Q 2544 4750 2975 4387 
Q 3406 4025 3406 3419 
Q 3406 3131 3298 2873 
Q 3191 2616 2906 2266 
Q 2828 2175 2409 1742 
Q 1991 1309 1228 531 
z
" transform="scale(0.015625)"/>
        <path id="DejaVuSans-30" d="M 2034 4250 
Q 1547 4250 1301 3770 
Q 1056 3291 1056 2328 
Q 1056 1369 1301 889 
Q 1547 409 2034 409 
Q 2525 409 2770 889 
Q 3016 1369 3016 2328 
Q 3016 3291 2770 3770 
Q 2525 4250 2034 4250 
z
M 2034 4750 
Q 2819 4750 3233 4129 
Q 3647 3509 3647 2328 
Q 3647 1150 3233 529 
Q 2819 -91 2034 -91 
Q 1250 -91 836 529 
Q 422 1150 422 2328 
Q 422 3509 836 4129 
Q 1250 4750 2034 4750 
z
" transform="scale(0.015625)"/>
       </defs>
       <use xlink:href="#DejaVuSans-32"/>
       <use xlink:href="#DejaVuSans-30" x="63.623047"/>
      </g>
     </g>
    </g>
    <g id="xtick_2">
     <g id="text_2">
      <!-- 30 -->
      <g transform="translate(187.05108 366.30265) scale(0.08 -0.08)">
       <defs>
        <path id="DejaVuSans-33" d="M 2597 2516 
Q 3050 2419 3304 2112 
Q 3559 1806 3559 1356 
Q 3559 666 3084 287 
Q 2609 -91 1734 -91 
Q 1441 -91 1130 -33 
Q 819 25 488 141 
L 488 750 
Q 750 597 1062 519 
Q 1375 441 1716 441 
Q 2309 441 2620 675 
Q 2931 909 2931 1356 
Q 2931 1769 2642 2001 
Q 2353 2234 1838 2234 
L 1294 2234 
L 1294 2753 
L 1863 2753 
Q 2328 2753 2575 2939 
Q 2822 3125 2822 3475 
Q 2822 3834 2567 4026 
Q 2313 4219 1838 4219 
Q 1578 4219 1281 4162 
Q 984 4106 628 3988 
L 628 4550 
Q 988 4650 1302 4700 
Q 1616 4750 1894 4750 
Q 2613 4750 3031 4423 
Q 3450 4097 3450 3541 
Q 3450 3153 3228 2886 
Q 3006 2619 2597 2516 
z
" transform="scale(0.015625)"/>
       </defs>
       <use xlink:href="#DejaVuSans-33"/>
       <use xlink:href="#DejaVuSans-30" x="63.623047"/>
      </g>
     </g>
    </g>
    <g id="xtick_3">
     <g id="text_3">
      <!-- 40 -->
      <g transform="translate(295.294261 366.30265) scale(0.08 -0.08)">
       <defs>
        <path id="DejaVuSans-34" d="M 2419 4116 
L 825 1625 
L 2419 1625 
L 2419 4116 
z
M 2253 4666 
L 3047 4666 
L 3047 1625 
L 3713 1625 
L 3713 1100 
L 3047 1100 
L 3047 0 
L 2419 0 
L 2419 1100 
L 313 1100 
L 313 1709 
L 2253 4666 
z
" transform="scale(0.015625)"/>
       </defs>
       <use xlink:href="#DejaVuSans-34"/>
       <use xlink:href="#DejaVuSans-30" x="63.623047"/>
      </g>
     </g>
    </g>
    <g id="xtick_4">
     <g id="text_4">
      <!-- 50 -->
      <g transform="translate(403.537443 366.30265) scale(0.08 -0.08)">
       <defs>
        <path id="DejaVuSans-35" d="M 691 4666 
L 3169 4666 
L 3169 4134 
L 1269 4134 
L 1269 2991 
Q 1406 3038 1543 3061 
Q 1681 3084 1819 3084 
Q 2600 3084 3056 2656 
Q 3513 2228 3513 1497 
Q 3513 744 3044 326 
Q 2575 -91 1722 -91 
Q 1428 -91 1123 -41 
Q 819 9 494 109 
L 494 744 
Q 775 591 1075 516 
Q 1375 441 1709 441 
Q 2250 441 2565 725 
Q 2881 1009 2881 1497 
Q 2881 1984 2565 2268 
Q 2250 2553 1709 2553 
Q 1456 2553 1204 2497 
Q 953 2441 691 2322 
L 691 4666 
z
" transform="scale(0.015625)"/>
       </defs>
       <use xlink:href="#DejaVuSans-35"/>
       <use xlink:href="#DejaVuSans-30" x="63.623047"/>
      </g>
     </g>
    </g>
    <g id="xtick_5">
     <g id="text_5">
      <!-- 60 -->
      <g transform="translate(511.780625 366.30265) scale(0.08 -0.08)">
       <defs>
        <path id="DejaVuSans-36" d="M 2113 2584 
Q 1688 2584 1439 2293 
Q 1191 2003 1191 1497 
Q 1191 994 1439 701 
Q 1688 409 2113 409 
Q 2538 409 2786 701 
Q 3034 994 3034 1497 
Q 3034 2003 2786 2293 
Q 2538 2584 2113 2584 
z
M 3366 4563 
L 3366 3988 
Q 3128 4100 2886 4159 
Q 2644 4219 2406 4219 
Q 1781 4219 1451 3797 
Q 1122 3375 1075 2522 
Q 1259 2794 1537 2939 
Q 1816 3084 2150 3084 
Q 2853 3084 3261 2657 
Q 3669 2231 3669 1497 
Q 3669 778 3244 343 
Q 2819 -91 2113 -91 
Q 1303 -91 875 529 
Q 447 1150 447 2328 
Q 447 3434 972 4092 
Q 1497 4750 2381 4750 
Q 2619 4750 2861 4703 
Q 3103 4656 3366 4563 
z
" transform="scale(0.015625)"/>
       </defs>
       <use xlink:href="#DejaVuSans-36"/>
       <use xlink:href="#DejaVuSans-30" x="63.623047"/>
      </g>
     </g>
    </g>
    <g id="xtick_6">
     <g id="text_6">
      <!-- 70 -->
      <g transform="translate(620.023807 366.30265) scale(0.08 -0.08)">
       <defs>
        <path id="DejaVuSans-37" d="M 525 4666 
L 3525 4666 
L 3525 4397 
L 1831 0 
L 1172 0 
L 2766 4134 
L 525 4134 
L 525 4666 
z
" transform="scale(0.015625)"/>
       </defs>
       <use xlink:href="#DejaVuSans-37"/>
       <use xlink:href="#DejaVuSans-30" x="63.623047"/>
      </g>
     </g>
    </g>
    <g id="xtick_7">
     <g id="text_7">
      <!-- 80 -->
      <g transform="translate(728.266989 366.30265) scale(0.08 -0.08)">
       <defs>
        <path id="DejaVuSans-38" d="M 2034 2216 
Q 1584 2216 1326 1975 
Q 1069 1734 1069 1313 
Q 1069 891 1326 650 
Q 1584 409 2034 409 
Q 2484 409 2743 651 
Q 3003 894 3003 1313 
Q 3003 1734 2745 1975 
Q 2488 2216 2034 2216 
z
M 1403 2484 
Q 997 2584 770 2862 
Q 544 3141 544 3541 
Q 544 4100 942 4425 
Q 1341 4750 2034 4750 
Q 2731 4750 3128 4425 
Q 3525 4100 3525 3541 
Q 3525 3141 3298 2862 
Q 3072 2584 2669 2484 
Q 3125 2378 3379 2068 
Q 3634 1759 3634 1313 
Q 3634 634 3220 271 
Q 2806 -91 2034 -91 
Q 1263 -91 848 271 
Q 434 634 434 1313 
Q 434 1759 690 2068 
Q 947 2378 1403 2484 
z
M 1172 3481 
Q 1172 3119 1398 2916 
Q 1625 2713 2034 2713 
Q 2441 2713 2670 2916 
Q 2900 3119 2900 3481 
Q 2900 3844 2670 4047 
Q 2441 4250 2034 4250 
Q 1625 4250 1398 4047 
Q 1172 3844 1172 3481 
z
" transform="scale(0.015625)"/>
       </defs>
       <use xlink:href="#DejaVuSans-38"/>
       <use xlink:href="#DejaVuSans-30" x="63.623047"/>
      </g>
     </g>
    </g>
    <g id="xtick_8">
     <g id="text_8">
      <!-- 90 -->
      <g transform="translate(836.51017 366.30265) scale(0.08 -0.08)">
       <defs>
        <path id="DejaVuSans-39" d="M 703 97 
L 703 672 
Q 941 559 1184 500 
Q 1428 441 1663 441 
Q 2288 441 2617 861 
Q 2947 1281 2994 2138 
Q 2813 1869 2534 1725 
Q 2256 1581 1919 1581 
Q 1219 1581 811 2004 
Q 403 2428 403 3163 
Q 403 3881 828 4315 
Q 1253 4750 1959 4750 
Q 2769 4750 3195 4129 
Q 3622 3509 3622 2328 
Q 3622 1225 3098 567 
Q 2575 -91 1691 -91 
Q 1453 -91 1209 -44 
Q 966 3 703 97 
z
M 1959 2075 
Q 2384 2075 2632 2365 
Q 2881 2656 2881 3163 
Q 2881 3666 2632 3958 
Q 2384 4250 1959 4250 
Q 1534 4250 1286 3958 
Q 1038 3666 1038 3163 
Q 1038 2656 1286 2365 
Q 1534 2075 1959 2075 
z
" transform="scale(0.015625)"/>
       </defs>
       <use xlink:href="#DejaVuSans-39"/>
       <use xlink:href="#DejaVuSans-30" x="63.623047"/>
      </g>
     </g>
    </g>
    <g id="xtick_9">
     <g id="text_9">
      <!-- 100 -->
      <g transform="translate(942.208352 366.30265) scale(0.08 -0.08)">
       <defs>
        <path id="DejaVuSans-31" d="M 794 531 
L 1825 531 
L 1825 4091 
L 703 3866 
L 703 4441 
L 1819 4666 
L 2450 4666 
L 2450 531 
L 3481 531 
L 3481 0 
L 794 0 
L 794 531 
z
" transform="scale(0.015625)"/>
       </defs>
       <use xlink:href="#DejaVuSans-31"/>
       <use xlink:href="#DejaVuSans-30" x="63.623047"/>
       <use xlink:href="#DejaVuSans-30" x="127.246094"/>
      </g>
     </g>
    </g>
    <g id="text_10">
     <!-- Sequence Length (bp) -->
     <g transform="translate(461.530781 379.564837) scale(0.1 -0.1)">
      <defs>
       <path id="DejaVuSans-53" d="M 3425 4513 
L 3425 3897 
Q 3066 4069 2747 4153 
Q 2428 4238 2131 4238 
Q 1616 4238 1336 4038 
Q 1056 3838 1056 3469 
Q 1056 3159 1242 3001 
Q 1428 2844 1947 2747 
L 2328 2669 
Q 3034 2534 3370 2195 
Q 3706 1856 3706 1288 
Q 3706 609 3251 259 
Q 2797 -91 1919 -91 
Q 1588 -91 1214 -16 
Q 841 59 441 206 
L 441 856 
Q 825 641 1194 531 
Q 1563 422 1919 422 
Q 2459 422 2753 634 
Q 3047 847 3047 1241 
Q 3047 1584 2836 1778 
Q 2625 1972 2144 2069 
L 1759 2144 
Q 1053 2284 737 2584 
Q 422 2884 422 3419 
Q 422 4038 858 4394 
Q 1294 4750 2059 4750 
Q 2388 4750 2728 4690 
Q 3069 4631 3425 4513 
z
" transform="scale(0.015625)"/>
       <path id="DejaVuSans-65" d="M 3597 1894 
L 3597 1613 
L 953 1613 
Q 991 1019 1311 708 
Q 1631 397 2203 397 
Q 2534 397 2845 478 
Q 3156 559 3463 722 
L 3463 178 
Q 3153 47 2828 -22 
Q 2503 -91 2169 -91 
Q 1331 -91 842 396 
Q 353 884 353 1716 
Q 353 2575 817 3079 
Q 1281 3584 2069 3584 
Q 2775 3584 3186 3129 
Q 3597 2675 3597 1894 
z
M 3022 2063 
Q 3016 2534 2758 2815 
Q 2500 3097 2075 3097 
Q 1594 3097 1305 2825 
Q 1016 2553 972 2059 
L 3022 2063 
z
" transform="scale(0.015625)"/>
       <path id="DejaVuSans-71" d="M 947 1747 
Q 947 1113 1208 752 
Q 1469 391 1925 391 
Q 2381 391 2643 752 
Q 2906 1113 2906 1747 
Q 2906 2381 2643 2742 
Q 2381 3103 1925 3103 
Q 1469 3103 1208 2742 
Q 947 2381 947 1747 
z
M 2906 525 
Q 2725 213 2448 61 
Q 2172 -91 1784 -91 
Q 1150 -91 751 415 
Q 353 922 353 1747 
Q 353 2572 751 3078 
Q 1150 3584 1784 3584 
Q 2172 3584 2448 3432 
Q 2725 3281 2906 2969 
L 2906 3500 
L 3481 3500 
L 3481 -1331 
L 2906 -1331 
L 2906 525 
z
" transform="scale(0.015625)"/>
       <path id="DejaVuSans-75" d="M 544 1381 
L 544 3500 
L 1119 3500 
L 1119 1403 
Q 1119 906 1312 657 
Q 1506 409 1894 409 
Q 2359 409 2629 706 
Q 2900 1003 2900 1516 
L 2900 3500 
L 3475 3500 
L 3475 0 
L 2900 0 
L 2900 538 
Q 2691 219 2414 64 
Q 2138 -91 1772 -91 
Q 1169 -91 856 284 
Q 544 659 544 1381 
z
M 1991 3584 
L 1991 3584 
z
" transform="scale(0.015625)"/>
       <path id="DejaVuSans-6e" d="M 3513 2113 
L 3513 0 
L 2938 0 
L 2938 2094 
Q 2938 2591 2744 2837 
Q 2550 3084 2163 3084 
Q 1697 3084 1428 2787 
Q 1159 2491 1159 1978 
L 1159 0 
L 581 0 
L 581 3500 
L 1159 3500 
L 1159 2956 
Q 1366 3272 1645 3428 
Q 1925 3584 2291 3584 
Q 2894 3584 3203 3211 
Q 3513 2838 3513 2113 
z
" transform="scale(0.015625)"/>
       <path id="DejaVuSans-63" d="M 3122 3366 
L 3122 2828 
Q 2878 2963 2633 3030 
Q 2388 3097 2138 3097 
Q 1578 3097 1268 2742 
Q 959 2388 959 1747 
Q 959 1106 1268 751 
Q 1578 397 2138 397 
Q 2388 397 2633 464 
Q 2878 531 3122 666 
L 3122 134 
Q 2881 22 2623 -34 
Q 2366 -91 2075 -91 
Q 1284 -91 818 406 
Q 353 903 353 1747 
Q 353 2603 823 3093 
Q 1294 3584 2113 3584 
Q 2378 3584 2631 3529 
Q 2884 3475 3122 3366 
z
" transform="scale(0.015625)"/>
       <path id="DejaVuSans-20" transform="scale(0.015625)"/>
       <path id="DejaVuSans-4c" d="M 628 4666 
L 1259 4666 
L 1259 531 
L 3531 531 
L 3531 0 
L 628 0 
L 628 4666 
z
" transform="scale(0.015625)"/>
       <path id="DejaVuSans-67" d="M 2906 1791 
Q 2906 2416 2648 2759 
Q 2391 3103 1925 3103 
Q 1463 3103 1205 2759 
Q 947 2416 947 1791 
Q 947 1169 1205 825 
Q 1463 481 1925 481 
Q 2391 481 2648 825 
Q 2906 1169 2906 1791 
z
M 3481 434 
Q 3481 -459 3084 -895 
Q 2688 -1331 1869 -1331 
Q 1566 -1331 1297 -1286 
Q 1028 -1241 775 -1147 
L 775 -588 
Q 1028 -725 1275 -790 
Q 1522 -856 1778 -856 
Q 2344 -856 2625 -561 
Q 2906 -266 2906 331 
L 2906 616 
Q 2728 306 2450 153 
Q 2172 0 1784 0 
Q 1141 0 747 490 
Q 353 981 353 1791 
Q 353 2603 747 3093 
Q 1141 3584 1784 3584 
Q 2172 3584 2450 3431 
Q 2728 3278 2906 2969 
L 2906 3500 
L 3481 3500 
L 3481 434 
z
" transform="scale(0.015625)"/>
       <path id="DejaVuSans-74" d="M 1172 4494 
L 1172 3500 
L 2356 3500 
L 2356 3053 
L 1172 3053 
L 1172 1153 
Q 1172 725 1289 603 
Q 1406 481 1766 481 
L 2356 481 
L 2356 0 
L 1766 0 
Q 1100 0 847 248 
Q 594 497 594 1153 
L 594 3053 
L 172 3053 
L 172 3500 
L 594 3500 
L 594 4494 
L 1172 4494 
z
" transform="scale(0.015625)"/>
       <path id="DejaVuSans-68" d="M 3513 2113 
L 3513 0 
L 2938 0 
L 2938 2094 
Q 2938 2591 2744 2837 
Q 2550 3084 2163 3084 
Q 1697 3084 1428 2787 
Q 1159 2491 1159 1978 
L 1159 0 
L 581 0 
L 581 4863 
L 1159 4863 
L 1159 2956 
Q 1366 3272 1645 3428 
Q 1925 3584 2291 3584 
Q 2894 3584 3203 3211 
Q 3513 2838 3513 2113 
z
" transform="scale(0.015625)"/>
       <path id="DejaVuSans-28" d="M 1984 4856 
Q 1566 4138 1362 3434 
Q 1159 2731 1159 2009 
Q 1159 1288 1364 580 
Q 1569 -128 1984 -844 
L 1484 -844 
Q 1016 -109 783 600 
Q 550 1309 550 2009 
Q 550 2706 781 3412 
Q 1013 4119 1484 4856 
L 1984 4856 
z
" transform="scale(0.015625)"/>
       <path id="DejaVuSans-62" d="M 3116 1747 
Q 3116 2381 2855 2742 
Q 2594 3103 2138 3103 
Q 1681 3103 1420 2742 
Q 1159 2381 1159 1747 
Q 1159 1113 1420 752 
Q 1681 391 2138 391 
Q 2594 391 2855 752 
Q 3116 1113 3116 1747 
z
M 1159 2969 
Q 1341 3281 1617 3432 
Q 1894 3584 2278 3584 
Q 2916 3584 3314 3078 
Q 3713 2572 3713 1747 
Q 3713 922 3314 415 
Q 2916 -91 2278 -91 
Q 1894 -91 1617 61 
Q 1341 213 1159 525 
L 1159 0 
L 581 0 
L 581 4863 
L 1159 4863 
L 1159 2969 
z
" transform="scale(0.015625)"/>
       <path id="DejaVuSans-70" d="M 1159 525 
L 1159 -1331 
L 581 -1331 
L 581 3500 
L 1159 3500 
L 1159 2969 
Q 1341 3281 1617 3432 
Q 1894 3584 2278 3584 
Q 2916 3584 3314 3078 
Q 3713 2572 3713 1747 
Q 3713 922 3314 415 
Q 2916 -91 2278 -91 
Q 1894 -91 1617 61 
Q 1341 213 1159 525 
z
M 3116 1747 
Q 3116 2381 2855 2742 
Q 2594 3103 2138 3103 
Q 1681 3103 1420 2742 
Q 1159 2381 1159 1747 
Q 1159 1113 1420 752 
Q 1681 391 2138 391 
Q 2594 391 2855 752 
Q 3116 1113 3116 1747 
z
" transform="scale(0.015625)"/>
       <path id="DejaVuSans-29" d="M 513 4856 
L 1013 4856 
Q 1481 4119 1714 3412 
Q 1947 2706 1947 2009 
Q 1947 1309 1714 600 
Q 1481 -109 1013 -844 
L 513 -844 
Q 928 -128 1133 580 
Q 1338 1288 1338 2009 
Q 1338 2731 1133 3434 
Q 928 4138 513 4856 
z
" transform="scale(0.015625)"/>
      </defs>
      <use xlink:href="#DejaVuSans-53"/>
      <use xlink:href="#DejaVuSans-65" x="63.476562"/>
      <use xlink:href="#DejaVuSans-71" x="125"/>
      <use xlink:href="#DejaVuSans-75" x="188.476562"/>
      <use xlink:href="#DejaVuSans-65" x="251.855469"/>
      <use xlink:href="#DejaVuSans-6e" x="313.378906"/>
      <use xlink:href="#DejaVuSans-63" x="376.757812"/>
      <use xlink:href="#DejaVuSans-65" x="431.738281"/>
      <use xlink:href="#DejaVuSans-20" x="493.261719"/>
      <use xlink:href="#DejaVuSans-4c" x="525.048828"/>
      <use xlink:href="#DejaVuSans-65" x="579.011719"/>
      <use xlink:href="#DejaVuSans-6e" x="640.535156"/>
      <use xlink:href="#DejaVuSans-67" x="703.914062"/>
      <use xlink:href="#DejaVuSans-74" x="767.390625"/>
      <use xlink:href="#DejaVuSans-68" x="806.599609"/>
      <use xlink:href="#DejaVuSans-20" x="869.978516"/>
      <use xlink:href="#DejaVuSans-28" x="901.765625"/>
      <use xlink:href="#DejaVuSans-62" x="940.779297"/>
      <use xlink:href="#DejaVuSans-70" x="1004.255859"/>
      <use xlink:href="#DejaVuSans-29" x="1067.732422"/>
     </g>
    </g>
   </g>
   <g id="matplotlib.axis_2">
    <g id="ytick_1">
     <g id="line2d_1">
      <path d="M 40.600625 353.2239 
L 993.140625 353.2239 
" clip-path="url(#pc03176a0d5)" style="fill: none; stroke: #dedede; stroke-linecap: square"/>
     </g>
     <g id="text_11">
      <!-- 0.0 -->
      <g transform="translate(20.878125 356.263275) scale(0.08 -0.08)">
       <defs>
        <path id="DejaVuSans-2e" d="M 684 794 
L 1344 794 
L 1344 0 
L 684 0 
L 684 794 
z
" transform="scale(0.015625)"/>
       </defs>
       <use xlink:href="#DejaVuSans-30"/>
       <use xlink:href="#DejaVuSans-2e" x="63.623047"/>
       <use xlink:href="#DejaVuSans-30" x="95.410156"/>
      </g>
     </g>
    </g>
    <g id="ytick_2">
     <g id="line2d_2">
      <path d="M 40.600625 287.412372 
L 993.140625 287.412372 
" clip-path="url(#pc03176a0d5)" style="fill: none; stroke: #dedede; stroke-linecap: square"/>
     </g>
     <g id="text_12">
      <!-- 0.5 -->
      <g transform="translate(20.878125 290.451747) scale(0.08 -0.08)">
       <use xlink:href="#DejaVuSans-30"/>
       <use xlink:href="#DejaVuSans-2e" x="63.623047"/>
       <use xlink:href="#DejaVuSans-35" x="95.410156"/>
      </g>
     </g>
    </g>
    <g id="ytick_3">
     <g id="line2d_3">
      <path d="M 40.600625 221.600844 
L 993.140625 221.600844 
" clip-path="url(#pc03176a0d5)" style="fill: none; stroke: #dedede; stroke-linecap: square"/>
     </g>
     <g id="text_13">
      <!-- 1.0 -->
      <g transform="translate(20.878125 224.640219) scale(0.08 -0.08)">
       <use xlink:href="#DejaVuSans-31"/>
       <use xlink:href="#DejaVuSans-2e" x="63.623047"/>
       <use xlink:href="#DejaVuSans-30" x="95.410156"/>
      </g>
     </g>
    </g>
    <g id="ytick_4">
     <g id="line2d_4">
      <path d="M 40.600625 155.789316 
L 993.140625 155.789316 
" clip-path="url(#pc03176a0d5)" style="fill: none; stroke: #dedede; stroke-linecap: square"/>
     </g>
     <g id="text_14">
      <!-- 1.5 -->
      <g transform="translate(20.878125 158.828691) scale(0.08 -0.08)">
       <use xlink:href="#DejaVuSans-31"/>
       <use xlink:href="#DejaVuSans-2e" x="63.623047"/>
       <use xlink:href="#DejaVuSans-35" x="95.410156"/>
      </g>
     </g>
    </g>
    <g id="ytick_5">
     <g id="line2d_5">
      <path d="M 40.600625 89.977787 
L 993.140625 89.977787 
" clip-path="url(#pc03176a0d5)" style="fill: none; stroke: #dedede; stroke-linecap: square"/>
     </g>
     <g id="text_15">
      <!-- 2.0 -->
      <g transform="translate(20.878125 93.017162) scale(0.08 -0.08)">
       <use xlink:href="#DejaVuSans-32"/>
       <use xlink:href="#DejaVuSans-2e" x="63.623047"/>
       <use xlink:href="#DejaVuSans-30" x="95.410156"/>
      </g>
     </g>
    </g>
    <g id="text_16">
     <!-- Read Count -->
     <g transform="translate(14.798438 223.241463) rotate(-90) scale(0.1 -0.1)">
      <defs>
       <path id="DejaVuSans-52" d="M 2841 2188 
Q 3044 2119 3236 1894 
Q 3428 1669 3622 1275 
L 4263 0 
L 3584 0 
L 2988 1197 
Q 2756 1666 2539 1819 
Q 2322 1972 1947 1972 
L 1259 1972 
L 1259 0 
L 628 0 
L 628 4666 
L 2053 4666 
Q 2853 4666 3247 4331 
Q 3641 3997 3641 3322 
Q 3641 2881 3436 2590 
Q 3231 2300 2841 2188 
z
M 1259 4147 
L 1259 2491 
L 2053 2491 
Q 2509 2491 2742 2702 
Q 2975 2913 2975 3322 
Q 2975 3731 2742 3939 
Q 2509 4147 2053 4147 
L 1259 4147 
z
" transform="scale(0.015625)"/>
       <path id="DejaVuSans-61" d="M 2194 1759 
Q 1497 1759 1228 1600 
Q 959 1441 959 1056 
Q 959 750 1161 570 
Q 1363 391 1709 391 
Q 2188 391 2477 730 
Q 2766 1069 2766 1631 
L 2766 1759 
L 2194 1759 
z
M 3341 1997 
L 3341 0 
L 2766 0 
L 2766 531 
Q 2569 213 2275 61 
Q 1981 -91 1556 -91 
Q 1019 -91 701 211 
Q 384 513 384 1019 
Q 384 1609 779 1909 
Q 1175 2209 1959 2209 
L 2766 2209 
L 2766 2266 
Q 2766 2663 2505 2880 
Q 2244 3097 1772 3097 
Q 1472 3097 1187 3025 
Q 903 2953 641 2809 
L 641 3341 
Q 956 3463 1253 3523 
Q 1550 3584 1831 3584 
Q 2591 3584 2966 3190 
Q 3341 2797 3341 1997 
z
" transform="scale(0.015625)"/>
       <path id="DejaVuSans-64" d="M 2906 2969 
L 2906 4863 
L 3481 4863 
L 3481 0 
L 2906 0 
L 2906 525 
Q 2725 213 2448 61 
Q 2172 -91 1784 -91 
Q 1150 -91 751 415 
Q 353 922 353 1747 
Q 353 2572 751 3078 
Q 1150 3584 1784 3584 
Q 2172 3584 2448 3432 
Q 2725 3281 2906 2969 
z
M 947 1747 
Q 947 1113 1208 752 
Q 1469 391 1925 391 
Q 2381 391 2643 752 
Q 2906 1113 2906 1747 
Q 2906 2381 2643 2742 
Q 2381 3103 1925 3103 
Q 1469 3103 1208 2742 
Q 947 2381 947 1747 
z
" transform="scale(0.015625)"/>
       <path id="DejaVuSans-43" d="M 4122 4306 
L 4122 3641 
Q 3803 3938 3442 4084 
Q 3081 4231 2675 4231 
Q 1875 4231 1450 3742 
Q 1025 3253 1025 2328 
Q 1025 1406 1450 917 
Q 1875 428 2675 428 
Q 3081 428 3442 575 
Q 3803 722 4122 1019 
L 4122 359 
Q 3791 134 3420 21 
Q 3050 -91 2638 -91 
Q 1578 -91 968 557 
Q 359 1206 359 2328 
Q 359 3453 968 4101 
Q 1578 4750 2638 4750 
Q 3056 4750 3426 4639 
Q 3797 4528 4122 4306 
z
" transform="scale(0.015625)"/>
       <path id="DejaVuSans-6f" d="M 1959 3097 
Q 1497 3097 1228 2736 
Q 959 2375 959 1747 
Q 959 1119 1226 758 
Q 1494 397 1959 397 
Q 2419 397 2687 759 
Q 2956 1122 2956 1747 
Q 2956 2369 2687 2733 
Q 2419 3097 1959 3097 
z
M 1959 3584 
Q 2709 3584 3137 3096 
Q 3566 2609 3566 1747 
Q 3566 888 3137 398 
Q 2709 -91 1959 -91 
Q 1206 -91 779 398 
Q 353 888 353 1747 
Q 353 2609 779 3096 
Q 1206 3584 1959 3584 
z
" transform="scale(0.015625)"/>
      </defs>
      <use xlink:href="#DejaVuSans-52"/>
      <use xlink:href="#DejaVuSans-65" x="64.982422"/>
      <use xlink:href="#DejaVuSans-61" x="126.505859"/>
      <use xlink:href="#DejaVuSans-64" x="187.785156"/>
      <use xlink:href="#DejaVuSans-20" x="251.261719"/>
      <use xlink:href="#DejaVuSans-43" x="283.048828"/>
      <use xlink:href="#DejaVuSans-6f" x="352.873047"/>
      <use xlink:href="#DejaVuSans-75" x="414.054688"/>
      <use xlink:href="#DejaVuSans-6e" x="477.433594"/>
      <use xlink:href="#DejaVuSans-74" x="540.8125"/>
     </g>
    </g>
    <g id="text_17">
     <!-- 1e8 -->
     <g transform="translate(40.600625 32.2559) scale(0.1 -0.1)">
      <use xlink:href="#DejaVuSans-31"/>
      <use xlink:href="#DejaVuSans-65" x="63.623047"/>
      <use xlink:href="#DejaVuSans-38" x="125.146484"/>
     </g>
    </g>
   </g>
   <g id="line2d_6">
    <path d="M 83.897898 353.223243 
L 94.722216 353.222864 
L 105.546534 353.222372 
L 116.370852 353.22163 
L 127.19517 353.220224 
L 138.019489 353.217776 
L 148.843807 353.215695 
L 159.668125 353.2147 
L 170.492443 353.214789 
L 181.316761 353.21605 
L 192.14108 353.216501 
L 202.965398 353.215762 
L 213.789716 353.216133 
L 224.614034 353.216347 
L 235.438352 353.218053 
L 246.26267 353.219348 
L 257.086989 353.21909 
L 267.911307 353.218198 
L 278.735625 353.21438 
L 289.559943 353.208529 
L 300.384261 353.203809 
L 311.20858 353.198291 
L 322.032898 353.199843 
L 332.857216 353.195032 
L 343.681534 353.162916 
L 354.505852 353.069752 
L 365.33017 352.799134 
L 376.154489 351.66635 
L 386.978807 347.987481 
L 397.803125 337.837432 
L 408.627443 319.462261 
L 419.451761 327.822646 
" clip-path="url(#pc03176a0d5)" style="fill: none; stroke: #f0ad4e; stroke-linecap: square"/>
   </g>
   <g id="line2d_7">
    <path d="M 83.897898 353.216612 
L 94.722216 353.216116 
L 105.546534 353.216856 
L 116.370852 353.218163 
L 127.19517 353.218702 
L 138.019489 353.21875 
L 148.843807 353.218135 
L 159.668125 353.217895 
L 170.492443 353.217408 
L 181.316761 353.217229 
L 192.14108 353.217398 
L 202.965398 353.217807 
L 213.789716 353.218754 
L 224.614034 353.218347 
L 235.438352 353.21813 
L 246.26267 353.217653 
L 257.086989 353.217285 
L 267.911307 353.216117 
L 278.735625 353.215417 
L 289.559943 353.213298 
L 300.384261 353.210219 
L 311.20858 353.20593 
L 322.032898 353.203963 
L 332.857216 353.194434 
L 343.681534 353.163969 
L 354.505852 353.059903 
L 365.33017 352.76585 
L 376.154489 351.607302 
L 386.978807 348.012088 
L 397.803125 340.057715 
L 408.627443 318.800377 
L 419.451761 326.328812 
" clip-path="url(#pc03176a0d5)" style="fill: none; stroke: #f0ad4e; stroke-linecap: square"/>
   </g>
   <g id="line2d_8">
    <path d="M 83.897898 353.223308 
L 94.722216 353.223106 
L 105.546534 353.222805 
L 116.370852 353.222243 
L 127.19517 353.221512 
L 138.019489 353.220078 
L 148.843807 353.218886 
L 159.668125 353.218755 
L 170.492443 353.218789 
L 181.316761 353.219739 
L 192.14108 353.220136 
L 202.965398 353.219753 
L 213.789716 353.219937 
L 224.614034 353.220228 
L 235.438352 353.220709 
L 246.26267 353.220836 
L 257.086989 353.220272 
L 267.911307 353.219593 
L 278.735625 353.217181 
L 289.559943 353.214105 
L 300.384261 353.210438 
L 311.20858 353.206534 
L 322.032898 353.207121 
L 332.857216 353.199396 
L 343.681534 353.160608 
L 354.505852 353.035303 
L 365.33017 352.671668 
L 376.154489 351.190946 
L 386.978807 346.432025 
L 397.803125 334.637718 
L 408.627443 311.551273 
L 419.451761 321.070479 
" clip-path="url(#pc03176a0d5)" style="fill: none; stroke: #f0ad4e; stroke-linecap: square"/>
   </g>
   <g id="line2d_9">
    <path d="M 83.897898 353.200603 
L 94.722216 353.200647 
L 105.546534 353.203219 
L 116.370852 353.207077 
L 127.19517 353.209498 
L 138.019489 353.209974 
L 148.843807 353.208357 
L 159.668125 353.208012 
L 170.492443 353.206626 
L 181.316761 353.206085 
L 192.14108 353.206609 
L 202.965398 353.20741 
L 213.789716 353.211108 
L 224.614034 353.210954 
L 235.438352 353.210356 
L 246.26267 353.208563 
L 257.086989 353.209328 
L 267.911307 353.207055 
L 278.735625 353.206567 
L 289.559943 353.20252 
L 300.384261 353.197365 
L 311.20858 353.191207 
L 322.032898 353.188168 
L 332.857216 353.17077 
L 343.681534 353.126316 
L 354.505852 352.978692 
L 365.33017 352.551735 
L 376.154489 350.992197 
L 386.978807 346.212598 
L 397.803125 335.963295 
L 408.627443 310.932002 
L 419.451761 321.330565 
" clip-path="url(#pc03176a0d5)" style="fill: none; stroke: #f0ad4e; stroke-linecap: square"/>
   </g>
   <g id="line2d_10">
    <path d="M 83.897898 353.206212 
L 105.546534 353.204436 
L 127.19517 353.197618 
L 148.843807 353.198414 
L 170.492443 353.201029 
L 192.14108 353.201762 
L 213.789716 353.200612 
L 235.438352 353.199379 
L 257.086989 353.197856 
L 278.735625 353.196557 
L 300.384261 353.196441 
L 322.032898 353.195354 
L 343.681534 353.194111 
L 365.33017 353.193756 
L 386.978807 353.19308 
L 408.627443 353.195669 
L 430.27608 353.193549 
L 451.924716 353.193306 
L 473.573352 353.192584 
L 495.221989 353.19033 
L 516.870625 353.190154 
L 538.519261 353.187567 
L 560.167898 353.188475 
L 581.816534 353.188628 
L 603.46517 353.186697 
L 625.113807 353.188458 
L 646.762443 353.187968 
L 668.41108 353.188449 
L 690.059716 353.188289 
L 711.708352 353.186606 
L 733.356989 353.18308 
L 755.005625 353.182763 
L 776.654261 353.178773 
L 798.302898 353.175284 
L 819.951534 353.17121 
L 841.60017 353.159626 
L 863.248807 353.146889 
L 884.897443 353.082055 
L 906.54608 351.826907 
L 928.194716 331.922327 
L 949.843352 135.035996 
" clip-path="url(#pc03176a0d5)" style="fill: none; stroke: #f0ad4e; stroke-linecap: square"/>
   </g>
   <g id="line2d_11">
    <path d="M 83.897898 353.195426 
L 105.546534 353.193083 
L 127.19517 353.180158 
L 148.843807 353.179851 
L 170.492443 353.185337 
L 192.14108 353.184004 
L 213.789716 353.181725 
L 235.438352 353.178981 
L 257.086989 353.172143 
L 278.735625 353.172836 
L 300.384261 353.168959 
L 322.032898 353.16303 
L 343.681534 353.163901 
L 365.33017 353.154249 
L 386.978807 353.165024 
L 408.627443 353.173091 
L 430.27608 353.159251 
L 451.924716 353.163947 
L 473.573352 353.160489 
L 495.221989 353.160558 
L 516.870625 353.162444 
L 538.519261 353.155339 
L 560.167898 353.160167 
L 581.816534 353.159819 
L 603.46517 353.14751 
L 625.113807 353.151485 
L 646.762443 353.154113 
L 668.41108 353.155356 
L 690.059716 353.155195 
L 711.708352 353.148981 
L 733.356989 353.147951 
L 755.005625 353.150029 
L 776.654261 353.137658 
L 798.302898 353.141705 
L 819.951534 353.128515 
L 841.60017 353.107312 
L 863.248807 353.09027 
L 884.897443 352.996276 
L 906.54608 351.568037 
L 928.194716 330.073393 
L 949.843352 93.788354 
" clip-path="url(#pc03176a0d5)" style="fill: none; stroke: #f0ad4e; stroke-linecap: square"/>
   </g>
   <g id="line2d_12">
    <path d="M 83.897898 353.205249 
L 105.546534 353.203559 
L 127.19517 353.197585 
L 148.843807 353.199279 
L 170.492443 353.201183 
L 192.14108 353.202315 
L 213.789716 353.200737 
L 235.438352 353.200838 
L 257.086989 353.200189 
L 278.735625 353.19946 
L 300.384261 353.198632 
L 322.032898 353.198287 
L 343.681534 353.197494 
L 365.33017 353.197123 
L 386.978807 353.195809 
L 408.627443 353.197246 
L 430.27608 353.196321 
L 451.924716 353.196246 
L 473.573352 353.195417 
L 495.221989 353.193823 
L 516.870625 353.19309 
L 538.519261 353.191276 
L 560.167898 353.192561 
L 581.816534 353.192188 
L 603.46517 353.190956 
L 625.113807 353.192222 
L 646.762443 353.190874 
L 668.41108 353.191081 
L 690.059716 353.190843 
L 711.708352 353.189062 
L 733.356989 353.186977 
L 755.005625 353.185923 
L 776.654261 353.182012 
L 798.302898 353.178075 
L 819.951534 353.173924 
L 841.60017 353.159188 
L 863.248807 353.146625 
L 884.897443 353.080619 
L 906.54608 351.528105 
L 928.194716 328.520036 
L 949.843352 110.333674 
" clip-path="url(#pc03176a0d5)" style="fill: none; stroke: #f0ad4e; stroke-linecap: square"/>
   </g>
   <g id="line2d_13">
    <path d="M 83.897898 353.206415 
L 105.546534 353.204865 
L 127.19517 353.19881 
L 148.843807 353.200085 
L 170.492443 353.201445 
L 192.14108 353.202727 
L 213.789716 353.200844 
L 235.438352 353.199451 
L 257.086989 353.199076 
L 278.735625 353.197753 
L 300.384261 353.197356 
L 322.032898 353.196276 
L 343.681534 353.195114 
L 365.33017 353.194678 
L 386.978807 353.192845 
L 408.627443 353.194689 
L 430.27608 353.193307 
L 451.924716 353.193413 
L 473.573352 353.192433 
L 495.221989 353.190902 
L 516.870625 353.19099 
L 538.519261 353.188085 
L 560.167898 353.189594 
L 581.816534 353.189761 
L 603.46517 353.187675 
L 625.113807 353.188643 
L 646.762443 353.18888 
L 668.41108 353.188339 
L 690.059716 353.188332 
L 711.708352 353.186682 
L 733.356989 353.183683 
L 755.005625 353.182378 
L 776.654261 353.177134 
L 798.302898 353.173291 
L 819.951534 353.169018 
L 841.60017 353.153351 
L 863.248807 353.13952 
L 884.897443 353.068519 
L 906.54608 351.558647 
L 928.194716 329.589356 
L 949.843352 120.082487 
" clip-path="url(#pc03176a0d5)" style="fill: none; stroke: #f0ad4e; stroke-linecap: square"/>
   </g>
   <g id="line2d_14">
    <path d="M 83.897898 353.223499 
L 94.722216 353.223358 
L 105.546534 353.222937 
L 116.370852 353.222526 
L 127.19517 353.221645 
L 138.019489 353.220096 
L 148.843807 353.218993 
L 159.668125 353.218686 
L 170.492443 353.219048 
L 181.316761 353.219248 
L 192.14108 353.219048 
L 202.965398 353.218118 
L 213.789716 353.21798 
L 224.614034 353.218351 
L 235.438352 353.219758 
L 246.26267 353.220533 
L 257.086989 353.220648 
L 267.911307 353.220282 
L 278.735625 353.218113 
L 289.559943 353.213027 
L 300.384261 353.208911 
L 311.20858 353.204147 
L 322.032898 353.205156 
L 332.857216 353.200898 
L 343.681534 353.168909 
L 354.505852 353.071532 
L 365.33017 352.727043 
L 376.154489 351.43499 
L 386.978807 347.077992 
L 397.803125 334.630278 
L 408.627443 313.389802 
L 419.451761 323.003267 
" clip-path="url(#pc03176a0d5)" style="fill: none; stroke: #f0ad4e; stroke-linecap: square"/>
   </g>
   <g id="line2d_15">
    <path d="M 83.897898 353.210818 
L 94.722216 353.210315 
L 105.546534 353.211134 
L 116.370852 353.213852 
L 127.19517 353.215746 
L 138.019489 353.216046 
L 148.843807 353.215184 
L 159.668125 353.213802 
L 170.492443 353.213895 
L 181.316761 353.213711 
L 192.14108 353.213253 
L 202.965398 353.213224 
L 213.789716 353.216759 
L 224.614034 353.215939 
L 235.438352 353.216193 
L 246.26267 353.215131 
L 257.086989 353.214802 
L 267.911307 353.213456 
L 278.735625 353.21402 
L 289.559943 353.211123 
L 300.384261 353.204399 
L 311.20858 353.202851 
L 322.032898 353.199398 
L 332.857216 353.179683 
L 343.681534 353.158128 
L 354.505852 353.043005 
L 365.33017 352.704369 
L 376.154489 351.427236 
L 386.978807 347.382011 
L 397.803125 337.360286 
L 408.627443 312.324018 
L 419.451761 321.255028 
" clip-path="url(#pc03176a0d5)" style="fill: none; stroke: #f0ad4e; stroke-linecap: square"/>
   </g>
   <g id="line2d_16">
    <path d="M 83.897898 353.200351 
L 105.546534 353.197891 
L 127.19517 353.19034 
L 148.843807 353.190384 
L 170.492443 353.193658 
L 192.14108 353.195021 
L 213.789716 353.192779 
L 235.438352 353.189503 
L 257.086989 353.188772 
L 278.735625 353.187231 
L 300.384261 353.185685 
L 322.032898 353.184367 
L 343.681534 353.183072 
L 365.33017 353.181484 
L 386.978807 353.181055 
L 408.627443 353.182468 
L 430.27608 353.181388 
L 451.924716 353.180117 
L 473.573352 353.178462 
L 495.221989 353.174598 
L 516.870625 353.174089 
L 538.519261 353.168866 
L 560.167898 353.170378 
L 581.816534 353.167987 
L 603.46517 353.168239 
L 625.113807 353.171931 
L 646.762443 353.171038 
L 668.41108 353.172625 
L 690.059716 353.170476 
L 711.708352 353.168772 
L 733.356989 353.162744 
L 755.005625 353.160934 
L 776.654261 353.151509 
L 798.302898 353.144156 
L 819.951534 353.140306 
L 841.60017 353.12143 
L 863.248807 353.1028 
L 884.897443 353.008126 
L 906.54608 351.441533 
L 928.194716 325.832847 
L 949.843352 74.336347 
" clip-path="url(#pc03176a0d5)" style="fill: none; stroke: #f0ad4e; stroke-linecap: square"/>
   </g>
   <g id="line2d_17">
    <path d="M 83.897898 353.197435 
L 105.546534 353.19657 
L 127.19517 353.189186 
L 148.843807 353.190176 
L 170.492443 353.19334 
L 192.14108 353.194439 
L 213.789716 353.191533 
L 235.438352 353.187423 
L 257.086989 353.186694 
L 278.735625 353.184483 
L 300.384261 353.183762 
L 322.032898 353.182336 
L 343.681534 353.179156 
L 365.33017 353.177577 
L 386.978807 353.174362 
L 408.627443 353.177511 
L 430.27608 353.175072 
L 451.924716 353.173844 
L 473.573352 353.170551 
L 495.221989 353.167414 
L 516.870625 353.167706 
L 538.519261 353.163044 
L 560.167898 353.164317 
L 581.816534 353.163313 
L 603.46517 353.160163 
L 625.113807 353.162062 
L 646.762443 353.16001 
L 668.41108 353.161665 
L 690.059716 353.15881 
L 711.708352 353.157171 
L 733.356989 353.148876 
L 755.005625 353.14549 
L 776.654261 353.134146 
L 798.302898 353.122021 
L 819.951534 353.116418 
L 841.60017 353.089039 
L 863.248807 353.057525 
L 884.897443 352.963756 
L 906.54608 351.735112 
L 928.194716 325.216289 
L 949.843352 50.397214 
" clip-path="url(#pc03176a0d5)" style="fill: none; stroke: #f0ad4e; stroke-linecap: square"/>
   </g>
   <g id="line2d_18">
    <path d="M 83.897898 353.20047 
L 105.546534 353.198029 
L 127.19517 353.186964 
L 148.843807 353.186374 
L 170.492443 353.190557 
L 192.14108 353.187756 
L 213.789716 353.185244 
L 235.438352 353.181765 
L 257.086989 353.173283 
L 278.735625 353.173975 
L 300.384261 353.168012 
L 322.032898 353.16329 
L 343.681534 353.164001 
L 365.33017 353.152699 
L 386.978807 353.164364 
L 408.627443 353.171557 
L 430.27608 353.157343 
L 451.924716 353.162528 
L 473.573352 353.157141 
L 495.221989 353.156575 
L 516.870625 353.157521 
L 538.519261 353.151855 
L 560.167898 353.156279 
L 581.816534 353.152943 
L 603.46517 353.140602 
L 625.113807 353.145824 
L 646.762443 353.14839 
L 668.41108 353.146918 
L 690.059716 353.147249 
L 711.708352 353.140286 
L 733.356989 353.138719 
L 755.005625 353.137709 
L 776.654261 353.124676 
L 798.302898 353.130375 
L 819.951534 353.117695 
L 841.60017 353.096689 
L 863.248807 353.074714 
L 884.897443 352.970062 
L 906.54608 351.680214 
L 928.194716 331.684429 
L 949.843352 102.610227 
" clip-path="url(#pc03176a0d5)" style="fill: none; stroke: #f0ad4e; stroke-linecap: square"/>
   </g>
   <g id="line2d_19">
    <path d="M 83.897898 353.203766 
L 105.546534 353.201991 
L 127.19517 353.194129 
L 148.843807 353.193059 
L 170.492443 353.195891 
L 192.14108 353.196076 
L 213.789716 353.192059 
L 235.438352 353.187971 
L 257.086989 353.186074 
L 278.735625 353.182011 
L 300.384261 353.180426 
L 322.032898 353.178285 
L 343.681534 353.176779 
L 365.33017 353.173213 
L 386.978807 353.170922 
L 408.627443 353.174728 
L 430.27608 353.171706 
L 451.924716 353.170733 
L 473.573352 353.168721 
L 495.221989 353.16158 
L 516.870625 353.163015 
L 538.519261 353.156134 
L 560.167898 353.159784 
L 581.816534 353.159051 
L 603.46517 353.155797 
L 625.113807 353.161587 
L 646.762443 353.159726 
L 668.41108 353.161875 
L 690.059716 353.16222 
L 711.708352 353.159103 
L 733.356989 353.150932 
L 755.005625 353.149436 
L 776.654261 353.137812 
L 798.302898 353.131253 
L 819.951534 353.128171 
L 841.60017 353.111353 
L 863.248807 353.087334 
L 884.897443 352.986037 
L 906.54608 351.770568 
L 928.194716 328.89201 
L 949.843352 80.259441 
" clip-path="url(#pc03176a0d5)" style="fill: none; stroke: #f0ad4e; stroke-linecap: square"/>
   </g>
   <g id="line2d_20">
    <path d="M 83.897898 353.223446 
L 94.722216 353.223231 
L 105.546534 353.222892 
L 116.370852 353.222376 
L 127.19517 353.221399 
L 138.019489 353.219958 
L 148.843807 353.218615 
L 159.668125 353.218195 
L 170.492443 353.21808 
L 181.316761 353.21868 
L 192.14108 353.218673 
L 202.965398 353.217947 
L 213.789716 353.218026 
L 224.614034 353.217998 
L 235.438352 353.219235 
L 246.26267 353.220245 
L 257.086989 353.220174 
L 267.911307 353.21975 
L 278.735625 353.217215 
L 289.559943 353.212637 
L 300.384261 353.208476 
L 311.20858 353.204274 
L 322.032898 353.2051 
L 332.857216 353.200962 
L 343.681534 353.172196 
L 354.505852 353.087979 
L 365.33017 352.814717 
L 376.154489 351.71823 
L 386.978807 348.256717 
L 397.803125 338.576414 
L 408.627443 320.823499 
L 419.451761 329.0105 
" clip-path="url(#pc03176a0d5)" style="fill: none; stroke: #f0ad4e; stroke-linecap: square"/>
   </g>
   <g id="line2d_21">
    <path d="M 83.897898 353.213465 
L 94.722216 353.212983 
L 105.546534 353.21389 
L 116.370852 353.215367 
L 127.19517 353.216583 
L 138.019489 353.216857 
L 148.843807 353.215767 
L 159.668125 353.215396 
L 170.492443 353.214852 
L 181.316761 353.21456 
L 192.14108 353.214449 
L 202.965398 353.214497 
L 213.789716 353.216683 
L 224.614034 353.21628 
L 235.438352 353.216025 
L 246.26267 353.2153 
L 257.086989 353.215312 
L 267.911307 353.214178 
L 278.735625 353.213935 
L 289.559943 353.211402 
L 300.384261 353.207341 
L 311.20858 353.20393 
L 322.032898 353.201722 
L 332.857216 353.190965 
L 343.681534 353.165525 
L 354.505852 353.068332 
L 365.33017 352.789902 
L 376.154489 351.703871 
L 386.978807 348.377396 
L 397.803125 340.593232 
L 408.627443 320.622975 
L 419.451761 327.244864 
" clip-path="url(#pc03176a0d5)" style="fill: none; stroke: #f0ad4e; stroke-linecap: square"/>
   </g>
   <g id="line2d_22">
    <path d="M 40.600625 353.2239 
L 993.140625 353.2239 
" clip-path="url(#pc03176a0d5)" style="fill: none; stroke: #dedede; stroke-width: 2; stroke-linecap: square"/>
   </g>
   <g id="text_18">
    <!-- FastQC: Sequence Length Distribution -->
    <g transform="translate(364.858125 19.3575) scale(0.16 -0.16)">
     <defs>
      <path id="DejaVuSans-46" d="M 628 4666 
L 3309 4666 
L 3309 4134 
L 1259 4134 
L 1259 2759 
L 3109 2759 
L 3109 2228 
L 1259 2228 
L 1259 0 
L 628 0 
L 628 4666 
z
" transform="scale(0.015625)"/>
      <path id="DejaVuSans-73" d="M 2834 3397 
L 2834 2853 
Q 2591 2978 2328 3040 
Q 2066 3103 1784 3103 
Q 1356 3103 1142 2972 
Q 928 2841 928 2578 
Q 928 2378 1081 2264 
Q 1234 2150 1697 2047 
L 1894 2003 
Q 2506 1872 2764 1633 
Q 3022 1394 3022 966 
Q 3022 478 2636 193 
Q 2250 -91 1575 -91 
Q 1294 -91 989 -36 
Q 684 19 347 128 
L 347 722 
Q 666 556 975 473 
Q 1284 391 1588 391 
Q 1994 391 2212 530 
Q 2431 669 2431 922 
Q 2431 1156 2273 1281 
Q 2116 1406 1581 1522 
L 1381 1569 
Q 847 1681 609 1914 
Q 372 2147 372 2553 
Q 372 3047 722 3315 
Q 1072 3584 1716 3584 
Q 2034 3584 2315 3537 
Q 2597 3491 2834 3397 
z
" transform="scale(0.015625)"/>
      <path id="DejaVuSans-51" d="M 2522 4238 
Q 1834 4238 1429 3725 
Q 1025 3213 1025 2328 
Q 1025 1447 1429 934 
Q 1834 422 2522 422 
Q 3209 422 3611 934 
Q 4013 1447 4013 2328 
Q 4013 3213 3611 3725 
Q 3209 4238 2522 4238 
z
M 3406 84 
L 4238 -825 
L 3475 -825 
L 2784 -78 
Q 2681 -84 2626 -87 
Q 2572 -91 2522 -91 
Q 1538 -91 948 567 
Q 359 1225 359 2328 
Q 359 3434 948 4092 
Q 1538 4750 2522 4750 
Q 3503 4750 4090 4092 
Q 4678 3434 4678 2328 
Q 4678 1516 4351 937 
Q 4025 359 3406 84 
z
" transform="scale(0.015625)"/>
      <path id="DejaVuSans-3a" d="M 750 794 
L 1409 794 
L 1409 0 
L 750 0 
L 750 794 
z
M 750 3309 
L 1409 3309 
L 1409 2516 
L 750 2516 
L 750 3309 
z
" transform="scale(0.015625)"/>
      <path id="DejaVuSans-44" d="M 1259 4147 
L 1259 519 
L 2022 519 
Q 2988 519 3436 956 
Q 3884 1394 3884 2338 
Q 3884 3275 3436 3711 
Q 2988 4147 2022 4147 
L 1259 4147 
z
M 628 4666 
L 1925 4666 
Q 3281 4666 3915 4102 
Q 4550 3538 4550 2338 
Q 4550 1131 3912 565 
Q 3275 0 1925 0 
L 628 0 
L 628 4666 
z
" transform="scale(0.015625)"/>
      <path id="DejaVuSans-69" d="M 603 3500 
L 1178 3500 
L 1178 0 
L 603 0 
L 603 3500 
z
M 603 4863 
L 1178 4863 
L 1178 4134 
L 603 4134 
L 603 4863 
z
" transform="scale(0.015625)"/>
      <path id="DejaVuSans-72" d="M 2631 2963 
Q 2534 3019 2420 3045 
Q 2306 3072 2169 3072 
Q 1681 3072 1420 2755 
Q 1159 2438 1159 1844 
L 1159 0 
L 581 0 
L 581 3500 
L 1159 3500 
L 1159 2956 
Q 1341 3275 1631 3429 
Q 1922 3584 2338 3584 
Q 2397 3584 2469 3576 
Q 2541 3569 2628 3553 
L 2631 2963 
z
" transform="scale(0.015625)"/>
     </defs>
     <use xlink:href="#DejaVuSans-46"/>
     <use xlink:href="#DejaVuSans-61" x="48.394531"/>
     <use xlink:href="#DejaVuSans-73" x="109.673828"/>
     <use xlink:href="#DejaVuSans-74" x="161.773438"/>
     <use xlink:href="#DejaVuSans-51" x="200.982422"/>
     <use xlink:href="#DejaVuSans-43" x="279.693359"/>
     <use xlink:href="#DejaVuSans-3a" x="349.517578"/>
     <use xlink:href="#DejaVuSans-20" x="383.208984"/>
     <use xlink:href="#DejaVuSans-53" x="414.996094"/>
     <use xlink:href="#DejaVuSans-65" x="478.472656"/>
     <use xlink:href="#DejaVuSans-71" x="539.996094"/>
     <use xlink:href="#DejaVuSans-75" x="603.472656"/>
     <use xlink:href="#DejaVuSans-65" x="666.851562"/>
     <use xlink:href="#DejaVuSans-6e" x="728.375"/>
     <use xlink:href="#DejaVuSans-63" x="791.753906"/>
     <use xlink:href="#DejaVuSans-65" x="846.734375"/>
     <use xlink:href="#DejaVuSans-20" x="908.257812"/>
     <use xlink:href="#DejaVuSans-4c" x="940.044922"/>
     <use xlink:href="#DejaVuSans-65" x="994.007812"/>
     <use xlink:href="#DejaVuSans-6e" x="1055.53125"/>
     <use xlink:href="#DejaVuSans-67" x="1118.910156"/>
     <use xlink:href="#DejaVuSans-74" x="1182.386719"/>
     <use xlink:href="#DejaVuSans-68" x="1221.595703"/>
     <use xlink:href="#DejaVuSans-20" x="1284.974609"/>
     <use xlink:href="#DejaVuSans-44" x="1316.761719"/>
     <use xlink:href="#DejaVuSans-69" x="1393.763672"/>
     <use xlink:href="#DejaVuSans-73" x="1421.546875"/>
     <use xlink:href="#DejaVuSans-74" x="1473.646484"/>
     <use xlink:href="#DejaVuSans-72" x="1512.855469"/>
     <use xlink:href="#DejaVuSans-69" x="1553.96875"/>
     <use xlink:href="#DejaVuSans-62" x="1581.751953"/>
     <use xlink:href="#DejaVuSans-75" x="1645.228516"/>
     <use xlink:href="#DejaVuSans-74" x="1708.607422"/>
     <use xlink:href="#DejaVuSans-69" x="1747.816406"/>
     <use xlink:href="#DejaVuSans-6f" x="1775.599609"/>
     <use xlink:href="#DejaVuSans-6e" x="1836.78125"/>
    </g>
   </g>
  </g>
 </g>
 <defs>
  <clipPath id="pc03176a0d5">
   <rect x="40.600625" y="35.2559" width="952.54" height="317.968"/>
  </clipPath>
 </defs>
</svg>
