<?xml version="1.0" encoding="utf-8" standalone="no"?>
<!DOCTYPE svg PUBLIC "-//W3C//DTD SVG 1.1//EN"
  "http://www.w3.org/Graphics/SVG/1.1/DTD/svg11.dtd">
<svg xmlns:xlink="http://www.w3.org/1999/xlink" width="1000.280625pt" height="388.844525pt" viewBox="0 0 1000.280625 388.844525" xmlns="http://www.w3.org/2000/svg" version="1.1">
 <metadata>
  <rdf:RDF xmlns:dc="http://purl.org/dc/elements/1.1/" xmlns:cc="http://creativecommons.org/ns#" xmlns:rdf="http://www.w3.org/1999/02/22-rdf-syntax-ns#">
   <cc:Work>
    <dc:type rdf:resource="http://purl.org/dc/dcmitype/StillImage"/>
    <dc:date>2025-04-01T05:20:45.537000</dc:date>
    <dc:format>image/svg+xml</dc:format>
    <dc:creator>
     <cc:Agent>
      <dc:title>Matplotlib v3.8.2, https://matplotlib.org/</dc:title>
     </cc:Agent>
    </dc:creator>
   </cc:Work>
  </rdf:RDF>
 </metadata>
 <defs>
  <style type="text/css">*{stroke-linejoin: round; stroke-linecap: butt}</style>
 </defs>
 <g id="figure_1">
  <g id="axes_1">
   <g id="patch_1">
    <path d="M 40.600625 353.2239 
L 985.445625 353.2239 
L 985.445625 35.2559 
L 40.600625 35.2559 
z
" style="fill: #ffffff"/>
   </g>
   <g id="matplotlib.axis_1">
    <g id="xtick_1">
     <g id="text_1">
      <!-- 0 -->
      <g transform="translate(38.055625 366.30265) scale(0.08 -0.08)">
       <defs>
        <path id="DejaVuSans-30" d="M 2034 4250 
Q 1547 4250 1301 3770 
Q 1056 3291 1056 2328 
Q 1056 1369 1301 889 
Q 1547 409 2034 409 
Q 2525 409 2770 889 
Q 3016 1369 3016 2328 
Q 3016 3291 2770 3770 
Q 2525 4250 2034 4250 
z
M 2034 4750 
Q 2819 4750 3233 4129 
Q 3647 3509 3647 2328 
Q 3647 1150 3233 529 
Q 2819 -91 2034 -91 
Q 1250 -91 836 529 
Q 422 1150 422 2328 
Q 422 3509 836 4129 
Q 1250 4750 2034 4750 
z
" transform="scale(0.015625)"/>
       </defs>
       <use xlink:href="#DejaVuSans-30"/>
      </g>
     </g>
    </g>
    <g id="xtick_2">
     <g id="text_2">
      <!-- 20 -->
      <g transform="translate(224.479625 366.30265) scale(0.08 -0.08)">
       <defs>
        <path id="DejaVuSans-32" d="M 1228 531 
L 3431 531 
L 3431 0 
L 469 0 
L 469 531 
Q 828 903 1448 1529 
Q 2069 2156 2228 2338 
Q 2531 2678 2651 2914 
Q 2772 3150 2772 3378 
Q 2772 3750 2511 3984 
Q 2250 4219 1831 4219 
Q 1534 4219 1204 4116 
Q 875 4013 500 3803 
L 500 4441 
Q 881 4594 1212 4672 
Q 1544 4750 1819 4750 
Q 2544 4750 2975 4387 
Q 3406 4025 3406 3419 
Q 3406 3131 3298 2873 
Q 3191 2616 2906 2266 
Q 2828 2175 2409 1742 
Q 1991 1309 1228 531 
z
" transform="scale(0.015625)"/>
       </defs>
       <use xlink:href="#DejaVuSans-32"/>
       <use xlink:href="#DejaVuSans-30" x="63.623047"/>
      </g>
     </g>
    </g>
    <g id="xtick_3">
     <g id="text_3">
      <!-- 40 -->
      <g transform="translate(413.448625 366.30265) scale(0.08 -0.08)">
       <defs>
        <path id="DejaVuSans-34" d="M 2419 4116 
L 825 1625 
L 2419 1625 
L 2419 4116 
z
M 2253 4666 
L 3047 4666 
L 3047 1625 
L 3713 1625 
L 3713 1100 
L 3047 1100 
L 3047 0 
L 2419 0 
L 2419 1100 
L 313 1100 
L 313 1709 
L 2253 4666 
z
" transform="scale(0.015625)"/>
       </defs>
       <use xlink:href="#DejaVuSans-34"/>
       <use xlink:href="#DejaVuSans-30" x="63.623047"/>
      </g>
     </g>
    </g>
    <g id="xtick_4">
     <g id="text_4">
      <!-- 60 -->
      <g transform="translate(602.417625 366.30265) scale(0.08 -0.08)">
       <defs>
        <path id="DejaVuSans-36" d="M 2113 2584 
Q 1688 2584 1439 2293 
Q 1191 2003 1191 1497 
Q 1191 994 1439 701 
Q 1688 409 2113 409 
Q 2538 409 2786 701 
Q 3034 994 3034 1497 
Q 3034 2003 2786 2293 
Q 2538 2584 2113 2584 
z
M 3366 4563 
L 3366 3988 
Q 3128 4100 2886 4159 
Q 2644 4219 2406 4219 
Q 1781 4219 1451 3797 
Q 1122 3375 1075 2522 
Q 1259 2794 1537 2939 
Q 1816 3084 2150 3084 
Q 2853 3084 3261 2657 
Q 3669 2231 3669 1497 
Q 3669 778 3244 343 
Q 2819 -91 2113 -91 
Q 1303 -91 875 529 
Q 447 1150 447 2328 
Q 447 3434 972 4092 
Q 1497 4750 2381 4750 
Q 2619 4750 2861 4703 
Q 3103 4656 3366 4563 
z
" transform="scale(0.015625)"/>
       </defs>
       <use xlink:href="#DejaVuSans-36"/>
       <use xlink:href="#DejaVuSans-30" x="63.623047"/>
      </g>
     </g>
    </g>
    <g id="xtick_5">
     <g id="text_5">
      <!-- 80 -->
      <g transform="translate(791.386625 366.30265) scale(0.08 -0.08)">
       <defs>
        <path id="DejaVuSans-38" d="M 2034 2216 
Q 1584 2216 1326 1975 
Q 1069 1734 1069 1313 
Q 1069 891 1326 650 
Q 1584 409 2034 409 
Q 2484 409 2743 651 
Q 3003 894 3003 1313 
Q 3003 1734 2745 1975 
Q 2488 2216 2034 2216 
z
M 1403 2484 
Q 997 2584 770 2862 
Q 544 3141 544 3541 
Q 544 4100 942 4425 
Q 1341 4750 2034 4750 
Q 2731 4750 3128 4425 
Q 3525 4100 3525 3541 
Q 3525 3141 3298 2862 
Q 3072 2584 2669 2484 
Q 3125 2378 3379 2068 
Q 3634 1759 3634 1313 
Q 3634 634 3220 271 
Q 2806 -91 2034 -91 
Q 1263 -91 848 271 
Q 434 634 434 1313 
Q 434 1759 690 2068 
Q 947 2378 1403 2484 
z
M 1172 3481 
Q 1172 3119 1398 2916 
Q 1625 2713 2034 2713 
Q 2441 2713 2670 2916 
Q 2900 3119 2900 3481 
Q 2900 3844 2670 4047 
Q 2441 4250 2034 4250 
Q 1625 4250 1398 4047 
Q 1172 3844 1172 3481 
z
" transform="scale(0.015625)"/>
       </defs>
       <use xlink:href="#DejaVuSans-38"/>
       <use xlink:href="#DejaVuSans-30" x="63.623047"/>
      </g>
     </g>
    </g>
    <g id="xtick_6">
     <g id="text_6">
      <!-- 100 -->
      <g transform="translate(977.810625 366.30265) scale(0.08 -0.08)">
       <defs>
        <path id="DejaVuSans-31" d="M 794 531 
L 1825 531 
L 1825 4091 
L 703 3866 
L 703 4441 
L 1819 4666 
L 2450 4666 
L 2450 531 
L 3481 531 
L 3481 0 
L 794 0 
L 794 531 
z
" transform="scale(0.015625)"/>
       </defs>
       <use xlink:href="#DejaVuSans-31"/>
       <use xlink:href="#DejaVuSans-30" x="63.623047"/>
       <use xlink:href="#DejaVuSans-30" x="127.246094"/>
      </g>
     </g>
    </g>
    <g id="text_7">
     <!-- % GC -->
     <g transform="translate(499.317656 379.564837) scale(0.1 -0.1)">
      <defs>
       <path id="DejaVuSans-25" d="M 4653 2053 
Q 4381 2053 4226 1822 
Q 4072 1591 4072 1178 
Q 4072 772 4226 539 
Q 4381 306 4653 306 
Q 4919 306 5073 539 
Q 5228 772 5228 1178 
Q 5228 1588 5073 1820 
Q 4919 2053 4653 2053 
z
M 4653 2450 
Q 5147 2450 5437 2106 
Q 5728 1763 5728 1178 
Q 5728 594 5436 251 
Q 5144 -91 4653 -91 
Q 4153 -91 3862 251 
Q 3572 594 3572 1178 
Q 3572 1766 3864 2108 
Q 4156 2450 4653 2450 
z
M 1428 4353 
Q 1159 4353 1004 4120 
Q 850 3888 850 3481 
Q 850 3069 1003 2837 
Q 1156 2606 1428 2606 
Q 1700 2606 1854 2837 
Q 2009 3069 2009 3481 
Q 2009 3884 1853 4118 
Q 1697 4353 1428 4353 
z
M 4250 4750 
L 4750 4750 
L 1831 -91 
L 1331 -91 
L 4250 4750 
z
M 1428 4750 
Q 1922 4750 2215 4408 
Q 2509 4066 2509 3481 
Q 2509 2891 2217 2550 
Q 1925 2209 1428 2209 
Q 931 2209 642 2551 
Q 353 2894 353 3481 
Q 353 4063 643 4406 
Q 934 4750 1428 4750 
z
" transform="scale(0.015625)"/>
       <path id="DejaVuSans-20" transform="scale(0.015625)"/>
       <path id="DejaVuSans-47" d="M 3809 666 
L 3809 1919 
L 2778 1919 
L 2778 2438 
L 4434 2438 
L 4434 434 
Q 4069 175 3628 42 
Q 3188 -91 2688 -91 
Q 1594 -91 976 548 
Q 359 1188 359 2328 
Q 359 3472 976 4111 
Q 1594 4750 2688 4750 
Q 3144 4750 3555 4637 
Q 3966 4525 4313 4306 
L 4313 3634 
Q 3963 3931 3569 4081 
Q 3175 4231 2741 4231 
Q 1884 4231 1454 3753 
Q 1025 3275 1025 2328 
Q 1025 1384 1454 906 
Q 1884 428 2741 428 
Q 3075 428 3337 486 
Q 3600 544 3809 666 
z
" transform="scale(0.015625)"/>
       <path id="DejaVuSans-43" d="M 4122 4306 
L 4122 3641 
Q 3803 3938 3442 4084 
Q 3081 4231 2675 4231 
Q 1875 4231 1450 3742 
Q 1025 3253 1025 2328 
Q 1025 1406 1450 917 
Q 1875 428 2675 428 
Q 3081 428 3442 575 
Q 3803 722 4122 1019 
L 4122 359 
Q 3791 134 3420 21 
Q 3050 -91 2638 -91 
Q 1578 -91 968 557 
Q 359 1206 359 2328 
Q 359 3453 968 4101 
Q 1578 4750 2638 4750 
Q 3056 4750 3426 4639 
Q 3797 4528 4122 4306 
z
" transform="scale(0.015625)"/>
      </defs>
      <use xlink:href="#DejaVuSans-25"/>
      <use xlink:href="#DejaVuSans-20" x="95.019531"/>
      <use xlink:href="#DejaVuSans-47" x="126.806641"/>
      <use xlink:href="#DejaVuSans-43" x="204.296875"/>
     </g>
    </g>
   </g>
   <g id="matplotlib.axis_2">
    <g id="ytick_1">
     <g id="line2d_1">
      <path d="M 40.600625 353.2239 
L 985.445625 353.2239 
" clip-path="url(#pd1de2faf87)" style="fill: none; stroke: #dedede; stroke-linecap: square"/>
     </g>
     <g id="text_8">
      <!-- 0.0 -->
      <g transform="translate(20.878125 356.263275) scale(0.08 -0.08)">
       <defs>
        <path id="DejaVuSans-2e" d="M 684 794 
L 1344 794 
L 1344 0 
L 684 0 
L 684 794 
z
" transform="scale(0.015625)"/>
       </defs>
       <use xlink:href="#DejaVuSans-30"/>
       <use xlink:href="#DejaVuSans-2e" x="63.623047"/>
       <use xlink:href="#DejaVuSans-30" x="95.410156"/>
      </g>
     </g>
    </g>
    <g id="ytick_2">
     <g id="line2d_2">
      <path d="M 40.600625 284.944884 
L 985.445625 284.944884 
" clip-path="url(#pd1de2faf87)" style="fill: none; stroke: #dedede; stroke-linecap: square"/>
     </g>
     <g id="text_9">
      <!-- 0.5 -->
      <g transform="translate(20.878125 287.984259) scale(0.08 -0.08)">
       <defs>
        <path id="DejaVuSans-35" d="M 691 4666 
L 3169 4666 
L 3169 4134 
L 1269 4134 
L 1269 2991 
Q 1406 3038 1543 3061 
Q 1681 3084 1819 3084 
Q 2600 3084 3056 2656 
Q 3513 2228 3513 1497 
Q 3513 744 3044 326 
Q 2575 -91 1722 -91 
Q 1428 -91 1123 -41 
Q 819 9 494 109 
L 494 744 
Q 775 591 1075 516 
Q 1375 441 1709 441 
Q 2250 441 2565 725 
Q 2881 1009 2881 1497 
Q 2881 1984 2565 2268 
Q 2250 2553 1709 2553 
Q 1456 2553 1204 2497 
Q 953 2441 691 2322 
L 691 4666 
z
" transform="scale(0.015625)"/>
       </defs>
       <use xlink:href="#DejaVuSans-30"/>
       <use xlink:href="#DejaVuSans-2e" x="63.623047"/>
       <use xlink:href="#DejaVuSans-35" x="95.410156"/>
      </g>
     </g>
    </g>
    <g id="ytick_3">
     <g id="line2d_3">
      <path d="M 40.600625 216.665867 
L 985.445625 216.665867 
" clip-path="url(#pd1de2faf87)" style="fill: none; stroke: #dedede; stroke-linecap: square"/>
     </g>
     <g id="text_10">
      <!-- 1.0 -->
      <g transform="translate(20.878125 219.705242) scale(0.08 -0.08)">
       <use xlink:href="#DejaVuSans-31"/>
       <use xlink:href="#DejaVuSans-2e" x="63.623047"/>
       <use xlink:href="#DejaVuSans-30" x="95.410156"/>
      </g>
     </g>
    </g>
    <g id="ytick_4">
     <g id="line2d_4">
      <path d="M 40.600625 148.386851 
L 985.445625 148.386851 
" clip-path="url(#pd1de2faf87)" style="fill: none; stroke: #dedede; stroke-linecap: square"/>
     </g>
     <g id="text_11">
      <!-- 1.5 -->
      <g transform="translate(20.878125 151.426226) scale(0.08 -0.08)">
       <use xlink:href="#DejaVuSans-31"/>
       <use xlink:href="#DejaVuSans-2e" x="63.623047"/>
       <use xlink:href="#DejaVuSans-35" x="95.410156"/>
      </g>
     </g>
    </g>
    <g id="ytick_5">
     <g id="line2d_5">
      <path d="M 40.600625 80.107835 
L 985.445625 80.107835 
" clip-path="url(#pd1de2faf87)" style="fill: none; stroke: #dedede; stroke-linecap: square"/>
     </g>
     <g id="text_12">
      <!-- 2.0 -->
      <g transform="translate(20.878125 83.14721) scale(0.08 -0.08)">
       <use xlink:href="#DejaVuSans-32"/>
       <use xlink:href="#DejaVuSans-2e" x="63.623047"/>
       <use xlink:href="#DejaVuSans-30" x="95.410156"/>
      </g>
     </g>
    </g>
    <g id="text_13">
     <!-- Count -->
     <g transform="translate(14.798438 209.088338) rotate(-90) scale(0.1 -0.1)">
      <defs>
       <path id="DejaVuSans-6f" d="M 1959 3097 
Q 1497 3097 1228 2736 
Q 959 2375 959 1747 
Q 959 1119 1226 758 
Q 1494 397 1959 397 
Q 2419 397 2687 759 
Q 2956 1122 2956 1747 
Q 2956 2369 2687 2733 
Q 2419 3097 1959 3097 
z
M 1959 3584 
Q 2709 3584 3137 3096 
Q 3566 2609 3566 1747 
Q 3566 888 3137 398 
Q 2709 -91 1959 -91 
Q 1206 -91 779 398 
Q 353 888 353 1747 
Q 353 2609 779 3096 
Q 1206 3584 1959 3584 
z
" transform="scale(0.015625)"/>
       <path id="DejaVuSans-75" d="M 544 1381 
L 544 3500 
L 1119 3500 
L 1119 1403 
Q 1119 906 1312 657 
Q 1506 409 1894 409 
Q 2359 409 2629 706 
Q 2900 1003 2900 1516 
L 2900 3500 
L 3475 3500 
L 3475 0 
L 2900 0 
L 2900 538 
Q 2691 219 2414 64 
Q 2138 -91 1772 -91 
Q 1169 -91 856 284 
Q 544 659 544 1381 
z
M 1991 3584 
L 1991 3584 
z
" transform="scale(0.015625)"/>
       <path id="DejaVuSans-6e" d="M 3513 2113 
L 3513 0 
L 2938 0 
L 2938 2094 
Q 2938 2591 2744 2837 
Q 2550 3084 2163 3084 
Q 1697 3084 1428 2787 
Q 1159 2491 1159 1978 
L 1159 0 
L 581 0 
L 581 3500 
L 1159 3500 
L 1159 2956 
Q 1366 3272 1645 3428 
Q 1925 3584 2291 3584 
Q 2894 3584 3203 3211 
Q 3513 2838 3513 2113 
z
" transform="scale(0.015625)"/>
       <path id="DejaVuSans-74" d="M 1172 4494 
L 1172 3500 
L 2356 3500 
L 2356 3053 
L 1172 3053 
L 1172 1153 
Q 1172 725 1289 603 
Q 1406 481 1766 481 
L 2356 481 
L 2356 0 
L 1766 0 
Q 1100 0 847 248 
Q 594 497 594 1153 
L 594 3053 
L 172 3053 
L 172 3500 
L 594 3500 
L 594 4494 
L 1172 4494 
z
" transform="scale(0.015625)"/>
      </defs>
      <use xlink:href="#DejaVuSans-43"/>
      <use xlink:href="#DejaVuSans-6f" x="69.824219"/>
      <use xlink:href="#DejaVuSans-75" x="131.005859"/>
      <use xlink:href="#DejaVuSans-6e" x="194.384766"/>
      <use xlink:href="#DejaVuSans-74" x="257.763672"/>
     </g>
    </g>
    <g id="text_14">
     <!-- 1e7 -->
     <g transform="translate(40.600625 32.2559) scale(0.1 -0.1)">
      <defs>
       <path id="DejaVuSans-65" d="M 3597 1894 
L 3597 1613 
L 953 1613 
Q 991 1019 1311 708 
Q 1631 397 2203 397 
Q 2534 397 2845 478 
Q 3156 559 3463 722 
L 3463 178 
Q 3153 47 2828 -22 
Q 2503 -91 2169 -91 
Q 1331 -91 842 396 
Q 353 884 353 1716 
Q 353 2575 817 3079 
Q 1281 3584 2069 3584 
Q 2775 3584 3186 3129 
Q 3597 2675 3597 1894 
z
M 3022 2063 
Q 3016 2534 2758 2815 
Q 2500 3097 2075 3097 
Q 1594 3097 1305 2825 
Q 1016 2553 972 2059 
L 3022 2063 
z
" transform="scale(0.015625)"/>
       <path id="DejaVuSans-37" d="M 525 4666 
L 3525 4666 
L 3525 4397 
L 1831 0 
L 1172 0 
L 2766 4134 
L 525 4134 
L 525 4666 
z
" transform="scale(0.015625)"/>
      </defs>
      <use xlink:href="#DejaVuSans-31"/>
      <use xlink:href="#DejaVuSans-65" x="63.623047"/>
      <use xlink:href="#DejaVuSans-37" x="125.146484"/>
     </g>
    </g>
   </g>
   <g id="line2d_6">
    <path d="M 40.600625 353.219161 
L 50.049075 353.210606 
L 59.497525 353.200665 
L 68.945975 353.200494 
L 78.394425 353.201819 
L 87.842875 353.196814 
L 97.291325 353.190798 
L 106.739775 353.178645 
L 116.188225 353.166402 
L 125.636675 353.144014 
L 135.085125 353.121065 
L 144.533575 353.072805 
L 153.982025 353.023248 
L 163.430475 352.939893 
L 172.878925 352.848618 
L 182.327375 352.687179 
L 191.775825 352.514112 
L 201.224275 352.211827 
L 210.672725 351.897362 
L 220.121175 351.422276 
L 229.569625 350.933801 
L 239.018075 350.238455 
L 248.466525 349.526311 
L 257.914975 348.591333 
L 267.363425 347.629752 
L 276.811875 346.671238 
L 286.260325 345.094853 
L 295.708775 343.699401 
L 305.157225 342.155332 
L 314.605675 340.623827 
L 324.054125 338.979552 
L 333.502575 337.179977 
L 342.951025 335.297968 
L 352.399475 333.436764 
L 361.847925 331.614902 
L 371.296375 329.836691 
L 380.744825 327.683963 
L 390.193275 325.338757 
L 399.641725 323.431164 
L 409.090175 321.671873 
L 418.538625 320.579771 
L 427.987075 319.580548 
L 437.435525 318.371757 
L 446.883975 317.778549 
L 456.332425 317.103501 
L 465.780875 315.883861 
L 475.229325 313.913601 
L 484.677775 310.375963 
L 494.126225 303.365176 
L 503.574675 300.068624 
L 513.023125 306.914702 
L 522.471575 312.179635 
L 531.920025 312.202495 
L 541.368475 310.352837 
L 550.816925 306.152373 
L 560.265375 305.499988 
L 569.713825 307.516923 
L 579.162275 304.225266 
L 588.610725 294.641883 
L 598.059175 289.166213 
L 607.507625 297.280423 
L 616.956075 309.180869 
L 626.404525 315.412531 
L 635.852975 318.722868 
L 645.301425 319.914658 
L 654.749875 321.638198 
L 664.198325 326.931651 
L 673.646775 332.059494 
L 683.095225 334.944952 
L 692.543675 337.200918 
L 701.992125 338.651813 
L 711.440575 339.500801 
L 720.889025 340.577698 
L 730.337475 341.605727 
L 739.785925 341.918172 
L 749.234375 342.084895 
L 758.682825 342.31279 
L 768.131275 342.37276 
L 777.579725 342.453759 
L 787.028175 343.144989 
L 796.476625 343.774665 
L 805.925075 343.642005 
L 815.373525 343.488698 
L 824.821975 344.860253 
L 834.270425 346.221068 
L 843.718875 346.159596 
L 853.167325 346.375999 
L 862.615775 347.007703 
L 872.064225 347.361593 
L 881.512675 348.225241 
L 890.961125 349.223002 
L 900.409575 349.69522 
L 909.858025 350.086425 
L 919.306475 350.589757 
L 928.754925 351.092468 
L 938.203375 351.409631 
L 947.651825 351.721284 
L 957.100275 352.404572 
L 966.548725 353.086768 
L 975.997175 353.149155 
L 985.445625 353.210272 
" clip-path="url(#pd1de2faf87)" style="fill: none; stroke: #d9534f; stroke-linecap: square"/>
   </g>
   <g id="line2d_7">
    <path d="M 40.600625 353.217359 
L 50.049075 353.213098 
L 59.497525 353.208646 
L 68.945975 353.19822 
L 78.394425 353.187419 
L 87.842875 353.170458 
L 97.291325 353.152105 
L 106.739775 353.13145 
L 116.188225 353.111246 
L 125.636675 353.083928 
L 135.085125 353.054964 
L 144.533575 353.010876 
L 153.982025 352.966413 
L 163.430475 352.883113 
L 172.878925 352.791148 
L 182.327375 352.629094 
L 191.775825 352.457407 
L 201.224275 352.174882 
L 210.672725 351.879862 
L 220.121175 351.432559 
L 229.569625 350.97399 
L 239.018075 350.342266 
L 248.466525 349.687675 
L 257.914975 348.838346 
L 267.363425 347.970902 
L 276.811875 347.073579 
L 286.260325 345.548697 
L 295.708775 344.281773 
L 305.157225 342.925615 
L 314.605675 341.499444 
L 324.054125 339.95429 
L 333.502575 338.332998 
L 342.951025 336.729601 
L 352.399475 335.075911 
L 361.847925 333.373845 
L 371.296375 331.674756 
L 380.744825 329.981088 
L 390.193275 328.326988 
L 399.641725 326.786756 
L 409.090175 325.157407 
L 418.538625 323.75187 
L 427.987075 322.266563 
L 437.435525 320.254298 
L 446.883975 318.938391 
L 456.332425 319.275095 
L 465.780875 319.668621 
L 475.229325 319.092701 
L 484.677775 318.033892 
L 494.126225 317.546783 
L 503.574675 317.653243 
L 513.023125 317.520195 
L 522.471575 317.486519 
L 531.920025 317.490971 
L 541.368475 317.311261 
L 550.816925 317.362914 
L 560.265375 316.145144 
L 569.713825 312.172295 
L 579.162275 307.6704 
L 588.610725 305.976773 
L 598.059175 307.634882 
L 607.507625 310.077126 
L 616.956075 310.847539 
L 626.404525 311.31383 
L 635.852975 313.543324 
L 645.301425 315.701522 
L 654.749875 312.378594 
L 664.198325 302.910854 
L 673.646775 300.945982 
L 683.095225 314.967017 
L 692.543675 326.641827 
L 701.992125 327.114851 
L 711.440575 329.992777 
L 720.889025 335.822883 
L 730.337475 338.366318 
L 739.785925 338.440974 
L 749.234375 338.665127 
L 758.682825 339.256041 
L 768.131275 339.454952 
L 777.579725 339.522172 
L 787.028175 339.916852 
L 796.476625 340.517735 
L 805.925075 341.192386 
L 815.373525 341.797966 
L 824.821975 342.176772 
L 834.270425 342.512274 
L 843.718875 343.970666 
L 853.167325 345.427795 
L 862.615775 346.451093 
L 872.064225 347.407805 
L 881.512675 347.808329 
L 890.961125 348.223063 
L 900.409575 348.651097 
L 909.858025 349.070829 
L 919.306475 350.12871 
L 928.754925 351.176642 
L 938.203375 351.142646 
L 947.651825 351.111033 
L 957.100275 351.711253 
L 966.548725 352.087403 
L 975.997175 351.507154 
L 985.445625 351.158801 
" clip-path="url(#pd1de2faf87)" style="fill: none; stroke: #d9534f; stroke-linecap: square"/>
   </g>
   <g id="line2d_8">
    <path d="M 40.600625 353.063704 
L 50.049075 353.101667 
L 59.497525 353.139255 
L 68.945975 353.157683 
L 78.394425 353.177177 
L 87.842875 353.174152 
L 97.291325 353.169734 
L 106.739775 353.157068 
L 116.188225 353.144136 
L 125.636675 353.114346 
L 135.085125 353.083826 
L 144.533575 353.028595 
L 153.982025 352.972224 
L 163.430475 352.872161 
L 172.878925 352.760873 
L 182.327375 352.592647 
L 191.775825 352.415319 
L 201.224275 352.081722 
L 210.672725 351.727442 
L 220.121175 351.179558 
L 229.569625 350.628062 
L 239.018075 349.872411 
L 248.466525 349.095348 
L 257.914975 348.087119 
L 267.363425 347.046417 
L 276.811875 345.990517 
L 286.260325 344.313823 
L 295.708775 342.878502 
L 305.157225 341.174613 
L 314.605675 339.421713 
L 324.054125 337.491575 
L 333.502575 335.345934 
L 342.951025 333.177317 
L 352.399475 330.997715 
L 361.847925 328.71878 
L 371.296375 326.49922 
L 380.744825 324.0459 
L 390.193275 321.476015 
L 399.641725 319.20655 
L 409.090175 316.758774 
L 418.538625 314.645252 
L 427.987075 312.632701 
L 437.435525 310.729928 
L 446.883975 309.394534 
L 456.332425 307.881471 
L 465.780875 306.117298 
L 475.229325 303.733466 
L 484.677775 299.905717 
L 494.126225 294.529387 
L 503.574675 292.227155 
L 513.023125 295.804852 
L 522.471575 298.314482 
L 531.920025 297.578195 
L 541.368475 294.654829 
L 550.816925 290.239389 
L 560.265375 289.271329 
L 569.713825 290.349605 
L 579.162275 287.976274 
L 588.610725 280.765627 
L 598.059175 276.803458 
L 607.507625 284.258311 
L 616.956075 293.845463 
L 626.404525 299.203434 
L 635.852975 303.024054 
L 645.301425 305.228688 
L 654.749875 308.267951 
L 664.198325 314.316741 
L 673.646775 320.604167 
L 683.095225 325.086063 
L 692.543675 328.549181 
L 701.992125 331.412353 
L 711.440575 333.892615 
L 720.889025 336.026881 
L 730.337475 337.916441 
L 739.785925 339.587829 
L 749.234375 340.992295 
L 758.682825 341.696511 
L 768.131275 342.400317 
L 777.579725 343.04255 
L 787.028175 343.739344 
L 796.476625 344.398264 
L 805.925075 344.618163 
L 815.373525 344.764355 
L 824.821975 345.827296 
L 834.270425 346.959307 
L 843.718875 347.13348 
L 853.167325 347.405504 
L 862.615775 347.914954 
L 872.064225 348.265669 
L 881.512675 348.926576 
L 890.961125 349.668816 
L 900.409575 349.853709 
L 909.858025 349.990895 
L 919.306475 350.600927 
L 928.754925 351.210789 
L 938.203375 351.492563 
L 947.651825 351.770226 
L 957.100275 352.429624 
L 966.548725 353.088783 
L 975.997175 353.149332 
L 985.445625 353.208769 
" clip-path="url(#pd1de2faf87)" style="fill: none; stroke: #d9534f; stroke-linecap: square"/>
   </g>
   <g id="line2d_9">
    <path d="M 40.600625 353.210695 
L 50.049075 353.201272 
L 59.497525 353.191263 
L 68.945975 353.163289 
L 78.394425 353.133703 
L 87.842875 353.090155 
L 97.291325 353.044408 
L 106.739775 352.996695 
L 116.188225 352.948196 
L 125.636675 352.897287 
L 135.085125 352.844275 
L 144.533575 352.787256 
L 153.982025 352.731362 
L 163.430475 352.654562 
L 172.878925 352.57034 
L 182.327375 352.429624 
L 191.775825 352.280236 
L 201.224275 352.033817 
L 210.672725 351.78154 
L 220.121175 351.41325 
L 229.569625 351.028525 
L 239.018075 350.471723 
L 248.466525 349.89878 
L 257.914975 349.170742 
L 267.363425 348.422656 
L 276.811875 347.604318 
L 286.260325 346.186737 
L 295.708775 344.965082 
L 305.157225 343.610686 
L 314.605675 342.153413 
L 324.054125 340.524563 
L 333.502575 338.771274 
L 342.951025 336.920271 
L 352.399475 334.951937 
L 361.847925 332.826718 
L 371.296375 330.615181 
L 380.744825 328.309966 
L 390.193275 325.967224 
L 399.641725 323.806623 
L 409.090175 321.418476 
L 418.538625 319.145208 
L 427.987075 316.974536 
L 437.435525 314.809661 
L 446.883975 313.13109 
L 456.332425 312.128904 
L 465.780875 311.12568 
L 475.229325 309.63857 
L 484.677775 307.984579 
L 494.126225 306.721861 
L 503.574675 305.737954 
L 513.023125 304.777179 
L 522.471575 303.794419 
L 531.920025 302.690006 
L 541.368475 301.571616 
L 550.816925 300.631796 
L 560.265375 298.863561 
L 569.713825 295.562844 
L 579.162275 292.606295 
L 588.610725 291.444848 
L 598.059175 291.390266 
L 607.507625 292.014315 
L 616.956075 293.195078 
L 626.404525 294.613663 
L 635.852975 297.104858 
L 645.301425 299.877914 
L 654.749875 299.051438 
L 664.198325 294.658591 
L 673.646775 294.896393 
L 683.095225 306.339431 
L 692.543675 318.210591 
L 701.992125 321.479947 
L 711.440575 324.026427 
L 720.889025 328.819402 
L 730.337475 332.099301 
L 739.785925 333.259129 
L 749.234375 334.543376 
L 758.682825 335.733363 
L 768.131275 336.820891 
L 777.579725 337.788192 
L 787.028175 338.505778 
L 796.476625 339.381681 
L 805.925075 340.289915 
L 815.373525 341.140446 
L 824.821975 342.184194 
L 834.270425 343.168948 
L 843.718875 344.29788 
L 853.167325 345.409797 
L 862.615775 346.508543 
L 872.064225 347.541932 
L 881.512675 348.23323 
L 890.961125 348.923483 
L 900.409575 349.424378 
L 909.858025 349.921524 
L 919.306475 350.614733 
L 928.754925 351.288347 
L 938.203375 351.269823 
L 947.651825 351.250118 
L 957.100275 351.590762 
L 966.548725 351.218054 
L 975.997175 349.39923 
L 985.445625 348.316073 
" clip-path="url(#pd1de2faf87)" style="fill: none; stroke: #f0ad4e; stroke-linecap: square"/>
   </g>
   <g id="line2d_10">
    <path d="M 40.600625 353.216171 
L 50.049075 353.217953 
L 59.497525 353.219339 
L 68.945975 353.218759 
L 78.394425 353.218383 
L 87.842875 353.217571 
L 97.291325 353.21615 
L 106.739775 353.213979 
L 116.188225 353.210995 
L 125.636675 353.208018 
L 135.085125 353.20401 
L 144.533575 353.197988 
L 153.982025 353.188743 
L 163.430475 353.174876 
L 172.878925 353.152555 
L 182.327375 353.111991 
L 191.775825 353.050369 
L 201.224275 352.952709 
L 210.672725 352.789536 
L 220.121175 352.52925 
L 229.569625 352.132719 
L 239.018075 351.564146 
L 248.466525 350.773967 
L 257.914975 349.699706 
L 267.363425 348.324102 
L 276.811875 346.539364 
L 286.260325 344.320562 
L 295.708775 341.62464 
L 305.157225 338.474868 
L 314.605675 335.143664 
L 324.054125 331.705037 
L 333.502575 327.882307 
L 342.951025 324.04704 
L 352.399475 320.444551 
L 361.847925 316.825005 
L 371.296375 313.374982 
L 380.744825 310.150042 
L 390.193275 307.074939 
L 399.641725 304.365423 
L 409.090175 302.31161 
L 418.538625 300.535038 
L 427.987075 299.053814 
L 437.435525 298.027293 
L 446.883975 296.394496 
L 456.332425 293.462472 
L 465.780875 289.09874 
L 475.229325 286.633246 
L 484.677775 286.450422 
L 494.126225 283.866007 
L 503.574675 282.699064 
L 513.023125 285.41011 
L 522.471575 288.134661 
L 531.920025 289.776812 
L 541.368475 291.123377 
L 550.816925 291.247563 
L 560.265375 291.083331 
L 569.713825 292.700417 
L 579.162275 296.211208 
L 588.610725 296.180414 
L 598.059175 292.632855 
L 607.507625 293.042017 
L 616.956075 291.505138 
L 626.404525 287.559881 
L 635.852975 273.485097 
L 645.301425 255.773985 
L 654.749875 271.348244 
L 664.198325 301.922195 
L 673.646775 316.247658 
L 683.095225 322.122221 
L 692.543675 327.611635 
L 701.992125 331.983698 
L 711.440575 333.708712 
L 720.889025 334.78593 
L 730.337475 336.274658 
L 739.785925 336.902375 
L 749.234375 338.083274 
L 758.682825 339.202128 
L 768.131275 338.301016 
L 777.579725 338.882855 
L 787.028175 340.873038 
L 796.476625 342.482723 
L 805.925075 343.116387 
L 815.373525 343.876953 
L 824.821975 344.557408 
L 834.270425 345.379638 
L 843.718875 346.032242 
L 853.167325 346.494935 
L 862.615775 347.119913 
L 872.064225 347.731106 
L 881.512675 348.548904 
L 890.961125 349.35773 
L 900.409575 350.527084 
L 909.858025 351.721215 
L 919.306475 352.369211 
L 928.754925 352.581784 
L 938.203375 352.66025 
L 947.651825 352.714108 
L 957.100275 352.765154 
L 966.548725 352.797156 
L 975.997175 352.889845 
L 985.445625 353.004813 
" clip-path="url(#pd1de2faf87)" style="fill: none; stroke: #d9534f; stroke-linecap: square"/>
   </g>
   <g id="line2d_11">
    <path d="M 40.600625 353.220459 
L 50.049075 353.221114 
L 59.497525 353.221531 
L 68.945975 353.221326 
L 78.394425 353.221121 
L 87.842875 353.22052 
L 97.291325 353.219687 
L 106.739775 353.218567 
L 116.188225 353.217079 
L 125.636675 353.21516 
L 135.085125 353.212695 
L 144.533575 353.209596 
L 153.982025 353.20442 
L 163.430475 353.196227 
L 172.878925 353.183308 
L 182.327375 353.158052 
L 191.775825 353.116538 
L 201.224275 353.054172 
L 210.672725 352.948039 
L 220.121175 352.77754 
L 229.569625 352.51586 
L 239.018075 352.126062 
L 248.466525 351.57996 
L 257.914975 350.835862 
L 267.363425 349.880031 
L 276.811875 348.642849 
L 286.260325 347.094008 
L 295.708775 345.26904 
L 305.157225 343.196853 
L 314.605675 340.916607 
L 324.054125 338.49262 
L 333.502575 335.953037 
L 342.951025 333.434374 
L 352.399475 330.993311 
L 361.847925 328.672732 
L 371.296375 326.499623 
L 380.744825 324.374698 
L 390.193275 322.296578 
L 399.641725 320.492455 
L 409.090175 319.200425 
L 418.538625 317.944405 
L 427.987075 316.840777 
L 437.435525 315.929614 
L 446.883975 311.172615 
L 456.332425 300.247536 
L 465.780875 281.658212 
L 475.229325 272.715825 
L 484.677775 274.323243 
L 494.126225 265.403368 
L 503.574675 262.890686 
L 513.023125 273.700893 
L 522.471575 278.31228 
L 531.920025 275.634418 
L 541.368475 273.391569 
L 550.816925 269.416037 
L 560.265375 262.842857 
L 569.713825 261.806197 
L 579.162275 274.802247 
L 588.610725 276.670232 
L 598.059175 269.122922 
L 607.507625 276.349969 
L 616.956075 277.661349 
L 626.404525 272.85127 
L 635.852975 268.660086 
L 645.301425 261.822031 
L 654.749875 271.71764 
L 664.198325 292.841454 
L 673.646775 304.454158 
L 683.095225 312.87447 
L 692.543675 319.47927 
L 701.992125 321.01283 
L 711.440575 320.64441 
L 720.889025 317.870009 
L 730.337475 319.152084 
L 739.785925 318.262394 
L 749.234375 322.338768 
L 758.682825 324.412265 
L 768.131275 318.486903 
L 777.579725 320.46795 
L 787.028175 324.575349 
L 796.476625 326.582889 
L 805.925075 325.542153 
L 815.373525 327.260224 
L 824.821975 329.126992 
L 834.270425 330.292017 
L 843.718875 330.35327 
L 853.167325 330.865151 
L 862.615775 334.177557 
L 872.064225 334.790156 
L 881.512675 334.639444 
L 890.961125 337.533915 
L 900.409575 342.680302 
L 909.858025 347.934379 
L 919.306475 350.850658 
L 928.754925 351.676711 
L 938.203375 352.020844 
L 947.651825 352.293967 
L 957.100275 352.43779 
L 966.548725 352.565212 
L 975.997175 352.769824 
L 985.445625 352.913306 
" clip-path="url(#pd1de2faf87)" style="fill: none; stroke: #f0ad4e; stroke-linecap: square"/>
   </g>
   <g id="line2d_12">
    <path d="M 40.600625 353.213767 
L 50.049075 353.216068 
L 59.497525 353.218089 
L 68.945975 353.217864 
L 78.394425 353.217687 
L 87.842875 353.216847 
L 97.291325 353.215577 
L 106.739775 353.213726 
L 116.188225 353.210176 
L 125.636675 353.206134 
L 135.085125 353.201737 
L 144.533575 353.193987 
L 153.982025 353.18141 
L 163.430475 353.162107 
L 172.878925 353.132686 
L 182.327375 353.082842 
L 191.775825 352.996531 
L 201.224275 352.851219 
L 210.672725 352.623871 
L 220.121175 352.267714 
L 229.569625 351.726766 
L 239.018075 350.94999 
L 248.466525 349.854044 
L 257.914975 348.38924 
L 267.363425 346.530767 
L 276.811875 344.11311 
L 286.260325 341.103173 
L 295.708775 337.65511 
L 305.157225 333.803374 
L 314.605675 329.591467 
L 324.054125 325.121998 
L 333.502575 320.46782 
L 342.951025 315.808856 
L 352.399475 311.354613 
L 361.847925 307.107153 
L 371.296375 303.116722 
L 380.744825 299.273966 
L 390.193275 295.580959 
L 399.641725 292.357056 
L 409.090175 289.920703 
L 418.538625 287.744037 
L 427.987075 285.708045 
L 437.435525 284.563129 
L 446.883975 282.628859 
L 456.332425 279.424976 
L 465.780875 275.879957 
L 475.229325 273.513269 
L 484.677775 272.640663 
L 494.126225 268.088433 
L 503.574675 264.672728 
L 513.023125 266.811691 
L 522.471575 271.820687 
L 531.920025 277.129353 
L 541.368475 280.382097 
L 550.816925 282.61842 
L 560.265375 285.453801 
L 569.713825 289.253651 
L 579.162275 292.695412 
L 588.610725 293.283281 
L 598.059175 290.962805 
L 607.507625 291.077835 
L 616.956075 289.998125 
L 626.404525 287.51677 
L 635.852975 274.601848 
L 645.301425 257.592453 
L 654.749875 272.383238 
L 664.198325 302.834805 
L 673.646775 318.168832 
L 683.095225 323.618487 
L 692.543675 328.960917 
L 701.992125 333.853921 
L 711.440575 335.912588 
L 720.889025 337.331897 
L 730.337475 338.775493 
L 739.785925 339.743458 
L 749.234375 340.405116 
L 758.682825 341.146844 
L 768.131275 340.79602 
L 777.579725 341.043743 
L 787.028175 342.932436 
L 796.476625 344.601039 
L 805.925075 345.456465 
L 815.373525 346.200502 
L 824.821975 346.824634 
L 834.270425 347.550535 
L 843.718875 348.194666 
L 853.167325 348.73773 
L 862.615775 349.167034 
L 872.064225 349.810277 
L 881.512675 350.707463 
L 890.961125 351.240162 
L 900.409575 351.721366 
L 909.858025 352.253532 
L 919.306475 352.583258 
L 928.754925 352.701845 
L 938.203375 352.744738 
L 947.651825 352.767516 
L 957.100275 352.794807 
L 966.548725 352.806094 
L 975.997175 352.892282 
L 985.445625 353.01666 
" clip-path="url(#pd1de2faf87)" style="fill: none; stroke: #d9534f; stroke-linecap: square"/>
   </g>
   <g id="line2d_13">
    <path d="M 40.600625 353.218752 
L 50.049075 353.219482 
L 59.497525 353.219817 
L 68.945975 353.219523 
L 78.394425 353.219414 
L 87.842875 353.218526 
L 97.291325 353.21686 
L 106.739775 353.214669 
L 116.188225 353.211903 
L 125.636675 353.208271 
L 135.085125 353.203464 
L 144.533575 353.196527 
L 153.982025 353.187364 
L 163.430475 353.173039 
L 172.878925 353.148431 
L 182.327375 353.105074 
L 191.775825 353.03319 
L 201.224275 352.916706 
L 210.672725 352.736989 
L 220.121175 352.449548 
L 229.569625 352.026798 
L 239.018075 351.409849 
L 248.466525 350.538636 
L 257.914975 349.38455 
L 267.363425 347.884037 
L 276.811875 345.95663 
L 286.260325 343.544844 
L 295.708775 340.719554 
L 305.157225 337.58554 
L 314.605675 334.18528 
L 324.054125 330.592963 
L 333.502575 326.812416 
L 342.951025 323.024501 
L 352.399475 319.493882 
L 361.847925 316.140487 
L 371.296375 312.764466 
L 380.744825 309.410621 
L 390.193275 306.164964 
L 399.641725 303.179949 
L 409.090175 300.839631 
L 418.538625 298.534743 
L 427.987075 296.155902 
L 437.435525 294.528997 
L 446.883975 291.831212 
L 456.332425 287.258709 
L 465.780875 281.865288 
L 475.229325 277.727559 
L 484.677775 275.605106 
L 494.126225 268.748978 
L 503.574675 263.023912 
L 513.023125 264.631364 
L 522.471575 270.030609 
L 531.920025 275.388075 
L 541.368475 278.13044 
L 550.816925 279.826197 
L 560.265375 282.304056 
L 569.713825 286.076759 
L 579.162275 289.568322 
L 588.610725 290.266304 
L 598.059175 287.993747 
L 607.507625 288.308247 
L 616.956075 287.568027 
L 626.404525 286.016236 
L 635.852975 278.768111 
L 645.301425 266.925177 
L 654.749875 277.900408 
L 664.198325 302.590489 
L 673.646775 315.478304 
L 683.095225 320.448579 
L 692.543675 325.834606 
L 701.992125 330.636047 
L 711.440575 333.01368 
L 720.889025 334.757014 
L 730.337475 336.451003 
L 739.785925 337.66105 
L 749.234375 338.706484 
L 758.682825 339.678757 
L 768.131275 338.959901 
L 777.579725 338.992054 
L 787.028175 341.234241 
L 796.476625 343.330284 
L 805.925075 344.310088 
L 815.373525 344.96952 
L 824.821975 345.617153 
L 834.270425 346.401126 
L 843.718875 346.992655 
L 853.167325 347.595046 
L 862.615775 347.988333 
L 872.064225 348.643143 
L 881.512675 349.771897 
L 890.961125 350.511967 
L 900.409575 351.170443 
L 909.858025 351.941647 
L 919.306475 352.487074 
L 928.754925 352.694458 
L 938.203375 352.793442 
L 947.651825 352.865422 
L 957.100275 352.930922 
L 966.548725 352.944256 
L 975.997175 353.017807 
L 985.445625 353.117904 
" clip-path="url(#pd1de2faf87)" style="fill: none; stroke: #f0ad4e; stroke-linecap: square"/>
   </g>
   <g id="line2d_14">
    <path d="M 40.600625 353.216662 
L 50.049075 353.208626 
L 59.497525 353.199326 
L 68.945975 353.196978 
L 78.394425 353.195428 
L 87.842875 353.188231 
L 97.291325 353.180734 
L 106.739775 353.170697 
L 116.188225 353.160421 
L 125.636675 353.138053 
L 135.085125 353.114654 
L 144.533575 353.063397 
L 153.982025 353.011928 
L 163.430475 352.924906 
L 172.878925 352.826373 
L 182.327375 352.652507 
L 191.775825 352.470086 
L 201.224275 352.137786 
L 210.672725 351.78604 
L 220.121175 351.266218 
L 229.569625 350.738004 
L 239.018075 350.008129 
L 248.466525 349.266585 
L 257.914975 348.291724 
L 267.363425 347.27124 
L 276.811875 346.246037 
L 286.260325 344.620088 
L 295.708775 343.211001 
L 305.157225 341.578962 
L 314.605675 339.960421 
L 324.054125 338.269771 
L 333.502575 336.423493 
L 342.951025 334.540255 
L 352.399475 332.705243 
L 361.847925 330.87669 
L 371.296375 329.015752 
L 380.744825 326.7516 
L 390.193275 324.391583 
L 399.641725 322.633371 
L 409.090175 320.931954 
L 418.538625 319.636414 
L 427.987075 318.559258 
L 437.435525 317.457269 
L 446.883975 316.701768 
L 456.332425 315.776021 
L 465.780875 314.501627 
L 475.229325 310.224725 
L 484.677775 302.369566 
L 494.126225 287.944866 
L 503.574675 280.74653 
L 513.023125 296.105724 
L 522.471575 307.964341 
L 531.920025 306.395631 
L 541.368475 300.284468 
L 550.816925 291.230049 
L 560.265375 290.828186 
L 569.713825 295.536946 
L 579.162275 291.684699 
L 588.610725 277.299129 
L 598.059175 269.353357 
L 607.507625 282.186958 
L 616.956075 294.100902 
L 626.404525 295.975721 
L 635.852975 297.983137 
L 645.301425 294.795142 
L 654.749875 294.352954 
L 664.198325 307.127289 
L 673.646775 321.55231 
L 683.095225 329.068218 
L 692.543675 332.985651 
L 701.992125 335.298364 
L 711.440575 337.618942 
L 720.889025 339.458161 
L 730.337475 340.099444 
L 739.785925 341.414518 
L 749.234375 343.24286 
L 758.682825 344.099543 
L 768.131275 344.26004 
L 777.579725 344.450156 
L 787.028175 345.483395 
L 796.476625 346.511171 
L 805.925075 346.710287 
L 815.373525 346.805884 
L 824.821975 347.539713 
L 834.270425 348.362181 
L 843.718875 348.449408 
L 853.167325 348.605057 
L 862.615775 349.1588 
L 872.064225 349.569628 
L 881.512675 350.231231 
L 890.961125 350.963912 
L 900.409575 351.088009 
L 909.858025 351.172252 
L 919.306475 351.776091 
L 928.754925 352.381747 
L 938.203375 352.575331 
L 947.651825 352.765557 
L 957.100275 352.979072 
L 966.548725 353.19258 
L 975.997175 353.203799 
L 985.445625 353.214423 
" clip-path="url(#pd1de2faf87)" style="fill: none; stroke: #d9534f; stroke-linecap: square"/>
   </g>
   <g id="line2d_15">
    <path d="M 40.600625 353.216198 
L 50.049075 353.209575 
L 59.497525 353.202413 
L 68.945975 353.18565 
L 78.394425 353.168109 
L 87.842875 353.146909 
L 97.291325 353.124397 
L 106.739775 353.097324 
L 116.188225 353.070491 
L 125.636675 353.042483 
L 135.085125 353.013403 
L 144.533575 352.972483 
L 153.982025 352.930601 
L 163.430475 352.853015 
L 172.878925 352.767107 
L 182.327375 352.615937 
L 191.775825 352.455058 
L 201.224275 352.172383 
L 210.672725 351.881432 
L 220.121175 351.467682 
L 229.569625 351.040993 
L 239.018075 350.429247 
L 248.466525 349.794231 
L 257.914975 348.965297 
L 267.363425 348.113735 
L 276.811875 347.197799 
L 286.260325 345.673067 
L 295.708775 344.40828 
L 305.157225 342.986834 
L 314.605675 341.493353 
L 324.054125 339.917084 
L 333.502575 338.240841 
L 342.951025 336.509176 
L 352.399475 334.745584 
L 361.847925 332.935125 
L 371.296375 331.057056 
L 380.744825 329.130106 
L 390.193275 327.302782 
L 399.641725 325.673522 
L 409.090175 323.771057 
L 418.538625 322.058018 
L 427.987075 320.455073 
L 437.435525 318.527795 
L 446.883975 317.414519 
L 456.332425 317.611805 
L 465.780875 317.615772 
L 475.229325 316.886463 
L 484.677775 315.810154 
L 494.126225 315.026351 
L 503.574675 314.841377 
L 513.023125 314.752969 
L 522.471575 314.660294 
L 531.920025 314.082066 
L 541.368475 313.186143 
L 550.816925 312.776708 
L 560.265375 308.989646 
L 569.713825 299.578558 
L 579.162275 291.238912 
L 588.610725 287.954425 
L 598.059175 287.657786 
L 607.507625 289.813963 
L 616.956075 292.013025 
L 626.404525 292.416663 
L 635.852975 293.567916 
L 645.301425 293.355008 
L 654.749875 286.374011 
L 664.198325 271.375952 
L 673.646775 263.296236 
L 683.095225 284.7409 
L 692.543675 313.416592 
L 701.992125 320.925358 
L 711.440575 325.304638 
L 720.889025 334.758386 
L 730.337475 339.432085 
L 739.785925 340.194564 
L 749.234375 340.930632 
L 758.682825 341.652259 
L 768.131275 342.143793 
L 777.579725 342.424536 
L 787.028175 342.864102 
L 796.476625 343.499261 
L 805.925075 343.999726 
L 815.373525 344.462897 
L 824.821975 344.697196 
L 834.270425 344.890323 
L 843.718875 346.129922 
L 853.167325 347.35949 
L 862.615775 348.553786 
L 872.064225 349.699364 
L 881.512675 350.092501 
L 890.961125 350.488096 
L 900.409575 350.613969 
L 909.858025 350.735601 
L 919.306475 351.43385 
L 928.754925 352.124867 
L 938.203375 352.312505 
L 947.651825 352.495383 
L 957.100275 352.523985 
L 966.548725 352.110249 
L 975.997175 350.820485 
L 985.445625 349.984211 
" clip-path="url(#pd1de2faf87)" style="fill: none; stroke: #d9534f; stroke-linecap: square"/>
   </g>
   <g id="line2d_16">
    <path d="M 40.600625 353.216034 
L 50.049075 353.217973 
L 59.497525 353.219175 
L 68.945975 353.218404 
L 78.394425 353.217912 
L 87.842875 353.216458 
L 97.291325 353.214819 
L 106.739775 353.212928 
L 116.188225 353.210026 
L 125.636675 353.207226 
L 135.085125 353.203389 
L 144.533575 353.197872 
L 153.982025 353.189952 
L 163.430475 353.178672 
L 172.878925 353.158864 
L 182.327375 353.12439 
L 191.775825 353.065267 
L 201.224275 352.967642 
L 210.672725 352.809569 
L 220.121175 352.554547 
L 229.569625 352.148601 
L 239.018075 351.559121 
L 248.466525 350.736714 
L 257.914975 349.575363 
L 267.363425 348.070377 
L 276.811875 346.093215 
L 286.260325 343.605612 
L 295.708775 340.694407 
L 305.157225 337.36657 
L 314.605675 333.688119 
L 324.054125 329.745901 
L 333.502575 325.591 
L 342.951025 321.428083 
L 352.399475 317.235526 
L 361.847925 312.896633 
L 371.296375 308.594345 
L 380.744825 304.402191 
L 390.193275 300.2847 
L 399.641725 296.476991 
L 409.090175 293.075767 
L 418.538625 289.930058 
L 427.987075 287.461901 
L 437.435525 285.558705 
L 446.883975 283.440253 
L 456.332425 280.609098 
L 465.780875 276.792164 
L 475.229325 274.374022 
L 484.677775 273.55649 
L 494.126225 271.674884 
L 503.574675 270.657083 
L 513.023125 271.541699 
L 522.471575 271.783222 
L 531.920025 271.523475 
L 541.368475 271.751022 
L 550.816925 271.162955 
L 560.265375 270.702618 
L 569.713825 271.756259 
L 579.162275 274.347625 
L 588.610725 273.698763 
L 598.059175 269.220288 
L 607.507625 268.305096 
L 616.956075 266.05337 
L 626.404525 261.810806 
L 635.852975 245.031852 
L 645.301425 222.068827 
L 654.749875 242.025957 
L 664.198325 283.879581 
L 673.646775 303.290288 
L 683.095225 310.492836 
L 692.543675 317.264538 
L 701.992125 323.076577 
L 711.440575 325.886115 
L 720.889025 327.551072 
L 730.337475 329.65625 
L 739.785925 330.755167 
L 749.234375 330.908296 
L 758.682825 331.412045 
L 768.131275 330.164984 
L 777.579725 330.252005 
L 787.028175 333.692988 
L 796.476625 336.906185 
L 805.925075 338.478111 
L 815.373525 339.469365 
L 824.821975 340.25992 
L 834.270425 341.30605 
L 843.718875 342.256071 
L 853.167325 343.221919 
L 862.615775 343.938971 
L 872.064225 345.295696 
L 881.512675 347.222605 
L 890.961125 348.30028 
L 900.409575 349.676771 
L 909.858025 351.229204 
L 919.306475 352.046387 
L 928.754925 352.3648 
L 938.203375 352.523781 
L 947.651825 352.644867 
L 957.100275 352.742314 
L 966.548725 352.783732 
L 975.997175 352.900845 
L 985.445625 353.03024 
" clip-path="url(#pd1de2faf87)" style="fill: none; stroke: #d9534f; stroke-linecap: square"/>
   </g>
   <g id="line2d_17">
    <path d="M 40.600625 353.22009 
L 50.049075 353.220739 
L 59.497525 353.220944 
L 68.945975 353.220199 
L 78.394425 353.219755 
L 87.842875 353.219045 
L 97.291325 353.21813 
L 106.739775 353.216813 
L 116.188225 353.214491 
L 125.636675 353.211856 
L 135.085125 353.209145 
L 144.533575 353.204939 
L 153.982025 353.198275 
L 163.430475 353.188832 
L 172.878925 353.175517 
L 182.327375 353.153204 
L 191.775825 353.119365 
L 201.224275 353.065247 
L 210.672725 352.976675 
L 220.121175 352.839735 
L 229.569625 352.630453 
L 239.018075 352.333084 
L 248.466525 351.916801 
L 257.914975 351.330653 
L 267.363425 350.575002 
L 276.811875 349.518835 
L 286.260325 348.183427 
L 295.708775 346.573019 
L 305.157225 344.567439 
L 314.605675 342.455411 
L 324.054125 340.220653 
L 333.502575 337.647893 
L 342.951025 334.986889 
L 352.399475 332.337929 
L 361.847925 329.50039 
L 371.296375 326.541341 
L 380.744825 323.569231 
L 390.193275 320.694677 
L 399.641725 318.136802 
L 409.090175 315.738734 
L 418.538625 313.181555 
L 427.987075 310.80864 
L 437.435525 308.872821 
L 446.883975 306.689729 
L 456.332425 303.390747 
L 465.780875 297.851079 
L 475.229325 293.664899 
L 484.677775 290.996794 
L 494.126225 287.877071 
L 503.574675 288.037452 
L 513.023125 289.789744 
L 522.471575 289.407074 
L 531.920025 287.900955 
L 541.368475 286.551366 
L 550.816925 284.30276 
L 560.265375 282.750143 
L 569.713825 282.34374 
L 579.162275 283.262188 
L 588.610725 273.209216 
L 598.059175 248.582668 
L 607.507625 231.886653 
L 616.956075 200.339924 
L 626.404525 165.729346 
L 635.852975 119.688054 
L 645.301425 50.39717 
L 654.749875 92.717753 
L 664.198325 215.14274 
L 673.646775 277.818842 
L 683.095225 293.679204 
L 692.543675 309.739507 
L 701.992125 324.399674 
L 711.440575 327.455283 
L 720.889025 328.393621 
L 730.337475 330.577771 
L 739.785925 332.579664 
L 749.234375 333.098052 
L 758.682825 333.175296 
L 768.131275 331.079342 
L 777.579725 330.469658 
L 787.028175 333.665321 
L 796.476625 337.008808 
L 805.925075 338.3664 
L 815.373525 339.035213 
L 824.821975 339.832999 
L 834.270425 340.770463 
L 843.718875 341.123971 
L 853.167325 341.653065 
L 862.615775 342.160467 
L 872.064225 343.629128 
L 881.512675 346.142485 
L 890.961125 347.658662 
L 900.409575 349.141088 
L 909.858025 350.873948 
L 919.306475 351.95826 
L 928.754925 352.355446 
L 938.203375 352.552635 
L 947.651825 352.70231 
L 957.100275 352.854681 
L 966.548725 352.8967 
L 975.997175 352.976559 
L 985.445625 353.071808 
" clip-path="url(#pd1de2faf87)" style="fill: none; stroke: #d9534f; stroke-linecap: square"/>
   </g>
   <g id="line2d_18">
    <path d="M 40.600625 353.221934 
L 50.049075 353.222412 
L 59.497525 353.222562 
L 68.945975 353.222207 
L 78.394425 353.221899 
L 87.842875 353.221394 
L 97.291325 353.220827 
L 106.739775 353.22009 
L 116.188225 353.219489 
L 125.636675 353.218663 
L 135.085125 353.217454 
L 144.533575 353.215372 
L 153.982025 353.212013 
L 163.430475 353.207486 
L 172.878925 353.19992 
L 182.327375 353.187378 
L 191.775825 353.166054 
L 201.224275 353.129293 
L 210.672725 353.074 
L 220.121175 352.983776 
L 229.569625 352.836178 
L 239.018075 352.627817 
L 248.466525 352.342247 
L 257.914975 351.94147 
L 267.363425 351.424584 
L 276.811875 350.742279 
L 286.260325 349.883786 
L 295.708775 348.859205 
L 305.157225 347.68682 
L 314.605675 346.455306 
L 324.054125 345.143802 
L 333.502575 343.736121 
L 342.951025 342.343523 
L 352.399475 340.972958 
L 361.847925 339.588471 
L 371.296375 338.197607 
L 380.744825 336.835277 
L 390.193275 335.446311 
L 399.641725 334.151126 
L 409.090175 333.098366 
L 418.538625 332.001191 
L 427.987075 331.087283 
L 437.435525 330.165981 
L 446.883975 325.206951 
L 456.332425 313.214875 
L 465.780875 291.585585 
L 475.229325 281.417276 
L 484.677775 282.845277 
L 494.126225 271.353147 
L 503.574675 268.300658 
L 513.023125 279.454752 
L 522.471575 282.463085 
L 531.920025 276.470393 
L 541.368475 271.824203 
L 550.816925 266.850473 
L 560.265375 258.1791 
L 569.713825 254.138224 
L 579.162275 267.72734 
L 588.610725 270.126234 
L 598.059175 261.775587 
L 607.507625 271.343792 
L 616.956075 274.778684 
L 626.404525 271.961403 
L 635.852975 273.948398 
L 645.301425 270.123558 
L 654.749875 275.639294 
L 664.198325 292.887297 
L 673.646775 301.668996 
L 683.095225 309.556936 
L 692.543675 315.624674 
L 701.992125 315.763669 
L 711.440575 314.940962 
L 720.889025 311.033347 
L 730.337475 311.556774 
L 739.785925 310.906232 
L 749.234375 316.347031 
L 758.682825 318.543854 
L 768.131275 311.88833 
L 777.579725 314.518233 
L 787.028175 319.368637 
L 796.476625 321.74386 
L 805.925075 320.730005 
L 815.373525 322.477442 
L 824.821975 324.673371 
L 834.270425 326.138515 
L 843.718875 326.396119 
L 853.167325 327.264279 
L 862.615775 331.161297 
L 872.064225 332.179249 
L 881.512675 331.781271 
L 890.961125 334.49218 
L 900.409575 340.962006 
L 909.858025 347.69515 
L 919.306475 350.877266 
L 928.754925 351.899854 
L 938.203375 352.338519 
L 947.651825 352.681273 
L 957.100275 352.8981 
L 966.548725 353.001037 
L 975.997175 353.079067 
L 985.445625 353.125756 
" clip-path="url(#pd1de2faf87)" style="fill: none; stroke: #f0ad4e; stroke-linecap: square"/>
   </g>
   <g id="line2d_19">
    <path d="M 40.600625 353.220472 
L 50.049075 353.221005 
L 59.497525 353.221292 
L 68.945975 353.220909 
L 78.394425 353.220814 
L 87.842875 353.220452 
L 97.291325 353.219325 
L 106.739775 353.217973 
L 116.188225 353.216621 
L 125.636675 353.214573 
L 135.085125 353.211562 
L 144.533575 353.208674 
L 153.982025 353.203997 
L 163.430475 353.196506 
L 172.878925 353.18509 
L 182.327375 353.166935 
L 191.775825 353.135697 
L 201.224275 353.082317 
L 210.672725 352.995247 
L 220.121175 352.86592 
L 229.569625 352.681451 
L 239.018075 352.406935 
L 248.466525 352.018461 
L 257.914975 351.491211 
L 267.363425 350.798855 
L 276.811875 349.897913 
L 286.260325 348.76851 
L 295.708775 347.381804 
L 305.157225 345.770487 
L 314.605675 344.05482 
L 324.054125 342.231183 
L 333.502575 340.206485 
L 342.951025 338.173996 
L 352.399475 336.182898 
L 361.847925 333.969593 
L 371.296375 331.596802 
L 380.744825 329.214909 
L 390.193275 326.849874 
L 399.641725 324.61702 
L 409.090175 322.404643 
L 418.538625 319.985361 
L 427.987075 317.840812 
L 437.435525 315.979219 
L 446.883975 313.303365 
L 456.332425 308.756317 
L 465.780875 301.673659 
L 475.229325 297.032898 
L 484.677775 295.405734 
L 494.126225 291.545949 
L 503.574675 289.526549 
L 513.023125 290.609557 
L 522.471575 289.566424 
L 531.920025 287.010242 
L 541.368475 284.881015 
L 550.816925 281.236507 
L 560.265375 278.021678 
L 569.713825 277.385441 
L 579.162275 279.560202 
L 588.610725 272.66323 
L 598.059175 255.770516 
L 607.507625 247.786385 
L 616.956075 234.86441 
L 626.404525 219.043267 
L 635.852975 180.729105 
L 645.301425 124.793187 
L 654.749875 162.256914 
L 664.198325 250.276145 
L 673.646775 288.683488 
L 683.095225 300.645309 
L 692.543675 312.029695 
L 701.992125 321.769177 
L 711.440575 324.207626 
L 720.889025 324.816087 
L 730.337475 326.964104 
L 739.785925 327.724166 
L 749.234375 327.278495 
L 758.682825 327.188681 
L 768.131275 324.47246 
L 777.579725 323.872287 
L 787.028175 327.97193 
L 796.476625 331.758056 
L 805.925075 332.867399 
L 815.373525 333.647719 
L 824.821975 334.696976 
L 834.270425 335.936145 
L 843.718875 336.322966 
L 853.167325 336.963976 
L 862.615775 337.999769 
L 872.064225 339.692289 
L 881.512675 341.975833 
L 890.961125 343.84407 
L 900.409575 346.640628 
L 909.858025 349.705605 
L 919.306475 351.489777 
L 928.754925 352.168429 
L 938.203375 352.49115 
L 947.651825 352.758353 
L 957.100275 352.990802 
L 966.548725 353.040332 
L 975.997175 353.08358 
L 985.445625 353.133273 
" clip-path="url(#pd1de2faf87)" style="fill: none; stroke: #d9534f; stroke-linecap: square"/>
   </g>
   <g id="line2d_20">
    <path d="M 40.600625 353.218287 
L 50.049075 353.20881 
L 59.497525 353.197558 
L 68.945975 353.194567 
L 78.394425 353.19312 
L 87.842875 353.187221 
L 97.291325 353.180939 
L 106.739775 353.166873 
L 116.188225 353.152268 
L 125.636675 353.123817 
L 135.085125 353.093999 
L 144.533575 353.036447 
L 153.982025 352.979086 
L 163.430475 352.877794 
L 172.878925 352.76385 
L 182.327375 352.571091 
L 191.775825 352.368617 
L 201.224275 352.007345 
L 210.672725 351.62852 
L 220.121175 351.076225 
L 229.569625 350.512172 
L 239.018075 349.716543 
L 248.466525 348.902951 
L 257.914975 347.844497 
L 267.363425 346.752599 
L 276.811875 345.682981 
L 286.260325 343.941791 
L 295.708775 342.437263 
L 305.157225 340.808754 
L 314.605675 339.188622 
L 324.054125 337.461088 
L 333.502575 335.635662 
L 342.951025 333.845762 
L 352.399475 332.092541 
L 361.847925 330.358166 
L 371.296375 328.71936 
L 380.744825 326.795025 
L 390.193275 324.720067 
L 399.641725 323.166924 
L 409.090175 321.797069 
L 418.538625 320.955715 
L 427.987075 320.300393 
L 437.435525 319.593678 
L 446.883975 319.348174 
L 456.332425 318.930662 
L 465.780875 318.049528 
L 475.229325 315.775427 
L 484.677775 311.465041 
L 494.126225 304.002493 
L 503.574675 300.971307 
L 513.023125 309.205046 
L 522.471575 315.632437 
L 531.920025 315.489228 
L 541.368475 313.012551 
L 550.816925 309.020611 
L 560.265375 308.987871 
L 569.713825 311.018865 
L 579.162275 307.935152 
L 588.610725 299.152293 
L 598.059175 294.686087 
L 607.507625 302.581319 
L 616.956075 311.718499 
L 626.404525 315.524884 
L 635.852975 317.836422 
L 645.301425 317.259915 
L 654.749875 318.234263 
L 664.198325 325.324459 
L 673.646775 332.750826 
L 683.095225 336.809577 
L 692.543675 339.266051 
L 701.992125 340.646782 
L 711.440575 341.613599 
L 720.889025 342.63616 
L 730.337475 343.298678 
L 739.785925 343.723005 
L 749.234375 344.406573 
L 758.682825 344.898039 
L 768.131275 345.037007 
L 777.579725 345.184182 
L 787.028175 345.809686 
L 796.476625 346.422504 
L 805.925075 346.448546 
L 815.373525 346.415431 
L 824.821975 347.110613 
L 834.270425 347.872484 
L 843.718875 347.85196 
L 853.167325 347.915275 
L 862.615775 348.385444 
L 872.064225 348.714201 
L 881.512675 349.43606 
L 890.961125 350.238407 
L 900.409575 350.471402 
L 909.858025 350.656377 
L 919.306475 351.177844 
L 928.754925 351.700056 
L 938.203375 351.979208 
L 947.651825 352.254802 
L 957.100275 352.701538 
L 966.548725 353.147653 
L 975.997175 353.181287 
L 985.445625 353.213972 
" clip-path="url(#pd1de2faf87)" style="fill: none; stroke: #d9534f; stroke-linecap: square"/>
   </g>
   <g id="line2d_21">
    <path d="M 40.600625 353.214805 
L 50.049075 353.208763 
L 59.497525 353.202256 
L 68.945975 353.187541 
L 78.394425 353.172001 
L 87.842875 353.152589 
L 97.291325 353.13227 
L 106.739775 353.106931 
L 116.188225 353.081333 
L 125.636675 353.047105 
L 135.085125 353.011723 
L 144.533575 352.956758 
L 153.982025 352.900496 
L 163.430475 352.798979 
L 172.878925 352.68765 
L 182.327375 352.498292 
L 191.775825 352.298235 
L 201.224275 351.96166 
L 210.672725 351.615007 
L 220.121175 351.096128 
L 229.569625 350.558642 
L 239.018075 349.83511 
L 248.466525 349.086813 
L 257.914975 348.10253 
L 267.363425 347.103014 
L 276.811875 346.125019 
L 286.260325 344.464754 
L 295.708775 343.072258 
L 305.157225 341.574243 
L 314.605675 340.030871 
L 324.054125 338.43827 
L 333.502575 336.825827 
L 342.951025 335.27235 
L 352.399475 333.72583 
L 361.847925 332.180307 
L 371.296375 330.616192 
L 380.744825 329.069938 
L 390.193275 327.668041 
L 399.641725 326.443265 
L 409.090175 324.998406 
L 418.538625 323.79195 
L 427.987075 322.723916 
L 437.435525 321.276913 
L 446.883975 320.518449 
L 456.332425 321.059014 
L 465.780875 321.510045 
L 475.229325 321.245525 
L 484.677775 320.545774 
L 494.126225 320.216943 
L 503.574675 320.439013 
L 513.023125 320.555873 
L 522.471575 320.736485 
L 531.920025 320.820659 
L 541.368475 320.710238 
L 550.816925 320.656332 
L 560.265375 318.462636 
L 569.713825 313.072861 
L 579.162275 308.16033 
L 588.610725 306.573402 
L 598.059175 307.968547 
L 607.507625 310.278556 
L 616.956075 311.749812 
L 626.404525 312.603921 
L 635.852975 313.887847 
L 645.301425 315.33078 
L 654.749875 312.203772 
L 664.198325 302.624083 
L 673.646775 299.644338 
L 683.095225 314.085535 
L 692.543675 328.560222 
L 701.992125 330.776299 
L 711.440575 333.325285 
L 720.889025 338.934604 
L 730.337475 341.616413 
L 739.785925 341.760393 
L 749.234375 341.961543 
L 758.682825 342.460532 
L 768.131275 342.903342 
L 777.579725 343.186325 
L 787.028175 343.401096 
L 796.476625 343.812191 
L 805.925075 344.158297 
L 815.373525 344.445984 
L 824.821975 344.821006 
L 834.270425 345.16262 
L 843.718875 346.112231 
L 853.167325 347.049825 
L 862.615775 347.842681 
L 872.064225 348.590028 
L 881.512675 349.008893 
L 890.961125 349.436586 
L 900.409575 349.674108 
L 909.858025 349.906277 
L 919.306475 350.712195 
L 928.754925 351.50955 
L 938.203375 351.527044 
L 947.651825 351.542242 
L 957.100275 351.95673 
L 966.548725 351.998333 
L 975.997175 350.789248 
L 985.445625 349.964519 
" clip-path="url(#pd1de2faf87)" style="fill: none; stroke: #d9534f; stroke-linecap: square"/>
   </g>
   <g id="line2d_22">
    <path d="M 40.600625 353.2239 
L 985.445625 353.2239 
" clip-path="url(#pd1de2faf87)" style="fill: none; stroke: #dedede; stroke-width: 2; stroke-linecap: square"/>
   </g>
   <g id="text_15">
    <!-- FastQC: Per Sequence GC Content -->
    <g transform="translate(376.386875 19.3575) scale(0.16 -0.16)">
     <defs>
      <path id="DejaVuSans-46" d="M 628 4666 
L 3309 4666 
L 3309 4134 
L 1259 4134 
L 1259 2759 
L 3109 2759 
L 3109 2228 
L 1259 2228 
L 1259 0 
L 628 0 
L 628 4666 
z
" transform="scale(0.015625)"/>
      <path id="DejaVuSans-61" d="M 2194 1759 
Q 1497 1759 1228 1600 
Q 959 1441 959 1056 
Q 959 750 1161 570 
Q 1363 391 1709 391 
Q 2188 391 2477 730 
Q 2766 1069 2766 1631 
L 2766 1759 
L 2194 1759 
z
M 3341 1997 
L 3341 0 
L 2766 0 
L 2766 531 
Q 2569 213 2275 61 
Q 1981 -91 1556 -91 
Q 1019 -91 701 211 
Q 384 513 384 1019 
Q 384 1609 779 1909 
Q 1175 2209 1959 2209 
L 2766 2209 
L 2766 2266 
Q 2766 2663 2505 2880 
Q 2244 3097 1772 3097 
Q 1472 3097 1187 3025 
Q 903 2953 641 2809 
L 641 3341 
Q 956 3463 1253 3523 
Q 1550 3584 1831 3584 
Q 2591 3584 2966 3190 
Q 3341 2797 3341 1997 
z
" transform="scale(0.015625)"/>
      <path id="DejaVuSans-73" d="M 2834 3397 
L 2834 2853 
Q 2591 2978 2328 3040 
Q 2066 3103 1784 3103 
Q 1356 3103 1142 2972 
Q 928 2841 928 2578 
Q 928 2378 1081 2264 
Q 1234 2150 1697 2047 
L 1894 2003 
Q 2506 1872 2764 1633 
Q 3022 1394 3022 966 
Q 3022 478 2636 193 
Q 2250 -91 1575 -91 
Q 1294 -91 989 -36 
Q 684 19 347 128 
L 347 722 
Q 666 556 975 473 
Q 1284 391 1588 391 
Q 1994 391 2212 530 
Q 2431 669 2431 922 
Q 2431 1156 2273 1281 
Q 2116 1406 1581 1522 
L 1381 1569 
Q 847 1681 609 1914 
Q 372 2147 372 2553 
Q 372 3047 722 3315 
Q 1072 3584 1716 3584 
Q 2034 3584 2315 3537 
Q 2597 3491 2834 3397 
z
" transform="scale(0.015625)"/>
      <path id="DejaVuSans-51" d="M 2522 4238 
Q 1834 4238 1429 3725 
Q 1025 3213 1025 2328 
Q 1025 1447 1429 934 
Q 1834 422 2522 422 
Q 3209 422 3611 934 
Q 4013 1447 4013 2328 
Q 4013 3213 3611 3725 
Q 3209 4238 2522 4238 
z
M 3406 84 
L 4238 -825 
L 3475 -825 
L 2784 -78 
Q 2681 -84 2626 -87 
Q 2572 -91 2522 -91 
Q 1538 -91 948 567 
Q 359 1225 359 2328 
Q 359 3434 948 4092 
Q 1538 4750 2522 4750 
Q 3503 4750 4090 4092 
Q 4678 3434 4678 2328 
Q 4678 1516 4351 937 
Q 4025 359 3406 84 
z
" transform="scale(0.015625)"/>
      <path id="DejaVuSans-3a" d="M 750 794 
L 1409 794 
L 1409 0 
L 750 0 
L 750 794 
z
M 750 3309 
L 1409 3309 
L 1409 2516 
L 750 2516 
L 750 3309 
z
" transform="scale(0.015625)"/>
      <path id="DejaVuSans-50" d="M 1259 4147 
L 1259 2394 
L 2053 2394 
Q 2494 2394 2734 2622 
Q 2975 2850 2975 3272 
Q 2975 3691 2734 3919 
Q 2494 4147 2053 4147 
L 1259 4147 
z
M 628 4666 
L 2053 4666 
Q 2838 4666 3239 4311 
Q 3641 3956 3641 3272 
Q 3641 2581 3239 2228 
Q 2838 1875 2053 1875 
L 1259 1875 
L 1259 0 
L 628 0 
L 628 4666 
z
" transform="scale(0.015625)"/>
      <path id="DejaVuSans-72" d="M 2631 2963 
Q 2534 3019 2420 3045 
Q 2306 3072 2169 3072 
Q 1681 3072 1420 2755 
Q 1159 2438 1159 1844 
L 1159 0 
L 581 0 
L 581 3500 
L 1159 3500 
L 1159 2956 
Q 1341 3275 1631 3429 
Q 1922 3584 2338 3584 
Q 2397 3584 2469 3576 
Q 2541 3569 2628 3553 
L 2631 2963 
z
" transform="scale(0.015625)"/>
      <path id="DejaVuSans-53" d="M 3425 4513 
L 3425 3897 
Q 3066 4069 2747 4153 
Q 2428 4238 2131 4238 
Q 1616 4238 1336 4038 
Q 1056 3838 1056 3469 
Q 1056 3159 1242 3001 
Q 1428 2844 1947 2747 
L 2328 2669 
Q 3034 2534 3370 2195 
Q 3706 1856 3706 1288 
Q 3706 609 3251 259 
Q 2797 -91 1919 -91 
Q 1588 -91 1214 -16 
Q 841 59 441 206 
L 441 856 
Q 825 641 1194 531 
Q 1563 422 1919 422 
Q 2459 422 2753 634 
Q 3047 847 3047 1241 
Q 3047 1584 2836 1778 
Q 2625 1972 2144 2069 
L 1759 2144 
Q 1053 2284 737 2584 
Q 422 2884 422 3419 
Q 422 4038 858 4394 
Q 1294 4750 2059 4750 
Q 2388 4750 2728 4690 
Q 3069 4631 3425 4513 
z
" transform="scale(0.015625)"/>
      <path id="DejaVuSans-71" d="M 947 1747 
Q 947 1113 1208 752 
Q 1469 391 1925 391 
Q 2381 391 2643 752 
Q 2906 1113 2906 1747 
Q 2906 2381 2643 2742 
Q 2381 3103 1925 3103 
Q 1469 3103 1208 2742 
Q 947 2381 947 1747 
z
M 2906 525 
Q 2725 213 2448 61 
Q 2172 -91 1784 -91 
Q 1150 -91 751 415 
Q 353 922 353 1747 
Q 353 2572 751 3078 
Q 1150 3584 1784 3584 
Q 2172 3584 2448 3432 
Q 2725 3281 2906 2969 
L 2906 3500 
L 3481 3500 
L 3481 -1331 
L 2906 -1331 
L 2906 525 
z
" transform="scale(0.015625)"/>
      <path id="DejaVuSans-63" d="M 3122 3366 
L 3122 2828 
Q 2878 2963 2633 3030 
Q 2388 3097 2138 3097 
Q 1578 3097 1268 2742 
Q 959 2388 959 1747 
Q 959 1106 1268 751 
Q 1578 397 2138 397 
Q 2388 397 2633 464 
Q 2878 531 3122 666 
L 3122 134 
Q 2881 22 2623 -34 
Q 2366 -91 2075 -91 
Q 1284 -91 818 406 
Q 353 903 353 1747 
Q 353 2603 823 3093 
Q 1294 3584 2113 3584 
Q 2378 3584 2631 3529 
Q 2884 3475 3122 3366 
z
" transform="scale(0.015625)"/>
     </defs>
     <use xlink:href="#DejaVuSans-46"/>
     <use xlink:href="#DejaVuSans-61" x="48.394531"/>
     <use xlink:href="#DejaVuSans-73" x="109.673828"/>
     <use xlink:href="#DejaVuSans-74" x="161.773438"/>
     <use xlink:href="#DejaVuSans-51" x="200.982422"/>
     <use xlink:href="#DejaVuSans-43" x="279.693359"/>
     <use xlink:href="#DejaVuSans-3a" x="349.517578"/>
     <use xlink:href="#DejaVuSans-20" x="383.208984"/>
     <use xlink:href="#DejaVuSans-50" x="414.996094"/>
     <use xlink:href="#DejaVuSans-65" x="471.673828"/>
     <use xlink:href="#DejaVuSans-72" x="533.197266"/>
     <use xlink:href="#DejaVuSans-20" x="574.310547"/>
     <use xlink:href="#DejaVuSans-53" x="606.097656"/>
     <use xlink:href="#DejaVuSans-65" x="669.574219"/>
     <use xlink:href="#DejaVuSans-71" x="731.097656"/>
     <use xlink:href="#DejaVuSans-75" x="794.574219"/>
     <use xlink:href="#DejaVuSans-65" x="857.953125"/>
     <use xlink:href="#DejaVuSans-6e" x="919.476562"/>
     <use xlink:href="#DejaVuSans-63" x="982.855469"/>
     <use xlink:href="#DejaVuSans-65" x="1037.835938"/>
     <use xlink:href="#DejaVuSans-20" x="1099.359375"/>
     <use xlink:href="#DejaVuSans-47" x="1131.146484"/>
     <use xlink:href="#DejaVuSans-43" x="1208.636719"/>
     <use xlink:href="#DejaVuSans-20" x="1278.460938"/>
     <use xlink:href="#DejaVuSans-43" x="1310.248047"/>
     <use xlink:href="#DejaVuSans-6f" x="1380.072266"/>
     <use xlink:href="#DejaVuSans-6e" x="1441.253906"/>
     <use xlink:href="#DejaVuSans-74" x="1504.632812"/>
     <use xlink:href="#DejaVuSans-65" x="1543.841797"/>
     <use xlink:href="#DejaVuSans-6e" x="1605.365234"/>
     <use xlink:href="#DejaVuSans-74" x="1668.744141"/>
    </g>
   </g>
  </g>
 </g>
 <defs>
  <clipPath id="pd1de2faf87">
   <rect x="40.600625" y="35.2559" width="944.845" height="317.968"/>
  </clipPath>
 </defs>
</svg>
