<?xml version="1.0" encoding="utf-8" standalone="no"?>
<!DOCTYPE svg PUBLIC "-//W3C//DTD SVG 1.1//EN"
  "http://www.w3.org/Graphics/SVG/1.1/DTD/svg11.dtd">
<svg xmlns:xlink="http://www.w3.org/1999/xlink" width="1000.158125pt" height="388.844525pt" viewBox="0 0 1000.158125 388.844525" xmlns="http://www.w3.org/2000/svg" version="1.1">
 <metadata>
  <rdf:RDF xmlns:dc="http://purl.org/dc/elements/1.1/" xmlns:cc="http://creativecommons.org/ns#" xmlns:rdf="http://www.w3.org/1999/02/22-rdf-syntax-ns#">
   <cc:Work>
    <dc:type rdf:resource="http://purl.org/dc/dcmitype/StillImage"/>
    <dc:date>2025-04-01T05:20:43.605397</dc:date>
    <dc:format>image/svg+xml</dc:format>
    <dc:creator>
     <cc:Agent>
      <dc:title>Matplotlib v3.8.2, https://matplotlib.org/</dc:title>
     </cc:Agent>
    </dc:creator>
   </cc:Work>
  </rdf:RDF>
 </metadata>
 <defs>
  <style type="text/css">*{stroke-linejoin: round; stroke-linecap: butt}</style>
 </defs>
 <g id="figure_1">
  <g id="axes_1">
   <g id="patch_1">
    <path d="M 58.418125 353.2239 
L 992.958125 353.2239 
L 992.958125 35.2559 
L 58.418125 35.2559 
z
" style="fill: #ffffff"/>
   </g>
   <g id="matplotlib.axis_1">
    <g id="xtick_1">
     <g id="text_1">
      <!-- 0 -->
      <g transform="translate(89.856398 366.30265) scale(0.08 -0.08)">
       <defs>
        <path id="DejaVuSans-30" d="M 2034 4250 
Q 1547 4250 1301 3770 
Q 1056 3291 1056 2328 
Q 1056 1369 1301 889 
Q 1547 409 2034 409 
Q 2525 409 2770 889 
Q 3016 1369 3016 2328 
Q 3016 3291 2770 3770 
Q 2525 4250 2034 4250 
z
M 2034 4750 
Q 2819 4750 3233 4129 
Q 3647 3509 3647 2328 
Q 3647 1150 3233 529 
Q 2819 -91 2034 -91 
Q 1250 -91 836 529 
Q 422 1150 422 2328 
Q 422 3509 836 4129 
Q 1250 4750 2034 4750 
z
" transform="scale(0.015625)"/>
       </defs>
       <use xlink:href="#DejaVuSans-30"/>
      </g>
     </g>
    </g>
    <g id="xtick_2">
     <g id="text_2">
      <!-- 20 -->
      <g transform="translate(257.227761 366.30265) scale(0.08 -0.08)">
       <defs>
        <path id="DejaVuSans-32" d="M 1228 531 
L 3431 531 
L 3431 0 
L 469 0 
L 469 531 
Q 828 903 1448 1529 
Q 2069 2156 2228 2338 
Q 2531 2678 2651 2914 
Q 2772 3150 2772 3378 
Q 2772 3750 2511 3984 
Q 2250 4219 1831 4219 
Q 1534 4219 1204 4116 
Q 875 4013 500 3803 
L 500 4441 
Q 881 4594 1212 4672 
Q 1544 4750 1819 4750 
Q 2544 4750 2975 4387 
Q 3406 4025 3406 3419 
Q 3406 3131 3298 2873 
Q 3191 2616 2906 2266 
Q 2828 2175 2409 1742 
Q 1991 1309 1228 531 
z
" transform="scale(0.015625)"/>
       </defs>
       <use xlink:href="#DejaVuSans-32"/>
       <use xlink:href="#DejaVuSans-30" x="63.623047"/>
      </g>
     </g>
    </g>
    <g id="xtick_3">
     <g id="text_3">
      <!-- 40 -->
      <g transform="translate(427.144125 366.30265) scale(0.08 -0.08)">
       <defs>
        <path id="DejaVuSans-34" d="M 2419 4116 
L 825 1625 
L 2419 1625 
L 2419 4116 
z
M 2253 4666 
L 3047 4666 
L 3047 1625 
L 3713 1625 
L 3713 1100 
L 3047 1100 
L 3047 0 
L 2419 0 
L 2419 1100 
L 313 1100 
L 313 1709 
L 2253 4666 
z
" transform="scale(0.015625)"/>
       </defs>
       <use xlink:href="#DejaVuSans-34"/>
       <use xlink:href="#DejaVuSans-30" x="63.623047"/>
      </g>
     </g>
    </g>
    <g id="xtick_4">
     <g id="text_4">
      <!-- 60 -->
      <g transform="translate(597.060489 366.30265) scale(0.08 -0.08)">
       <defs>
        <path id="DejaVuSans-36" d="M 2113 2584 
Q 1688 2584 1439 2293 
Q 1191 2003 1191 1497 
Q 1191 994 1439 701 
Q 1688 409 2113 409 
Q 2538 409 2786 701 
Q 3034 994 3034 1497 
Q 3034 2003 2786 2293 
Q 2538 2584 2113 2584 
z
M 3366 4563 
L 3366 3988 
Q 3128 4100 2886 4159 
Q 2644 4219 2406 4219 
Q 1781 4219 1451 3797 
Q 1122 3375 1075 2522 
Q 1259 2794 1537 2939 
Q 1816 3084 2150 3084 
Q 2853 3084 3261 2657 
Q 3669 2231 3669 1497 
Q 3669 778 3244 343 
Q 2819 -91 2113 -91 
Q 1303 -91 875 529 
Q 447 1150 447 2328 
Q 447 3434 972 4092 
Q 1497 4750 2381 4750 
Q 2619 4750 2861 4703 
Q 3103 4656 3366 4563 
z
" transform="scale(0.015625)"/>
       </defs>
       <use xlink:href="#DejaVuSans-36"/>
       <use xlink:href="#DejaVuSans-30" x="63.623047"/>
      </g>
     </g>
    </g>
    <g id="xtick_5">
     <g id="text_5">
      <!-- 80 -->
      <g transform="translate(766.976852 366.30265) scale(0.08 -0.08)">
       <defs>
        <path id="DejaVuSans-38" d="M 2034 2216 
Q 1584 2216 1326 1975 
Q 1069 1734 1069 1313 
Q 1069 891 1326 650 
Q 1584 409 2034 409 
Q 2484 409 2743 651 
Q 3003 894 3003 1313 
Q 3003 1734 2745 1975 
Q 2488 2216 2034 2216 
z
M 1403 2484 
Q 997 2584 770 2862 
Q 544 3141 544 3541 
Q 544 4100 942 4425 
Q 1341 4750 2034 4750 
Q 2731 4750 3128 4425 
Q 3525 4100 3525 3541 
Q 3525 3141 3298 2862 
Q 3072 2584 2669 2484 
Q 3125 2378 3379 2068 
Q 3634 1759 3634 1313 
Q 3634 634 3220 271 
Q 2806 -91 2034 -91 
Q 1263 -91 848 271 
Q 434 634 434 1313 
Q 434 1759 690 2068 
Q 947 2378 1403 2484 
z
M 1172 3481 
Q 1172 3119 1398 2916 
Q 1625 2713 2034 2713 
Q 2441 2713 2670 2916 
Q 2900 3119 2900 3481 
Q 2900 3844 2670 4047 
Q 2441 4250 2034 4250 
Q 1625 4250 1398 4047 
Q 1172 3844 1172 3481 
z
" transform="scale(0.015625)"/>
       </defs>
       <use xlink:href="#DejaVuSans-38"/>
       <use xlink:href="#DejaVuSans-30" x="63.623047"/>
      </g>
     </g>
    </g>
    <g id="xtick_6">
     <g id="text_6">
      <!-- 100 -->
      <g transform="translate(934.348216 366.30265) scale(0.08 -0.08)">
       <defs>
        <path id="DejaVuSans-31" d="M 794 531 
L 1825 531 
L 1825 4091 
L 703 3866 
L 703 4441 
L 1819 4666 
L 2450 4666 
L 2450 531 
L 3481 531 
L 3481 0 
L 794 0 
L 794 531 
z
" transform="scale(0.015625)"/>
       </defs>
       <use xlink:href="#DejaVuSans-31"/>
       <use xlink:href="#DejaVuSans-30" x="63.623047"/>
       <use xlink:href="#DejaVuSans-30" x="127.246094"/>
      </g>
     </g>
    </g>
    <g id="text_7">
     <!-- Length Trimmed (bp) -->
     <g transform="translate(473.260781 379.564837) scale(0.1 -0.1)">
      <defs>
       <path id="DejaVuSans-4c" d="M 628 4666 
L 1259 4666 
L 1259 531 
L 3531 531 
L 3531 0 
L 628 0 
L 628 4666 
z
" transform="scale(0.015625)"/>
       <path id="DejaVuSans-65" d="M 3597 1894 
L 3597 1613 
L 953 1613 
Q 991 1019 1311 708 
Q 1631 397 2203 397 
Q 2534 397 2845 478 
Q 3156 559 3463 722 
L 3463 178 
Q 3153 47 2828 -22 
Q 2503 -91 2169 -91 
Q 1331 -91 842 396 
Q 353 884 353 1716 
Q 353 2575 817 3079 
Q 1281 3584 2069 3584 
Q 2775 3584 3186 3129 
Q 3597 2675 3597 1894 
z
M 3022 2063 
Q 3016 2534 2758 2815 
Q 2500 3097 2075 3097 
Q 1594 3097 1305 2825 
Q 1016 2553 972 2059 
L 3022 2063 
z
" transform="scale(0.015625)"/>
       <path id="DejaVuSans-6e" d="M 3513 2113 
L 3513 0 
L 2938 0 
L 2938 2094 
Q 2938 2591 2744 2837 
Q 2550 3084 2163 3084 
Q 1697 3084 1428 2787 
Q 1159 2491 1159 1978 
L 1159 0 
L 581 0 
L 581 3500 
L 1159 3500 
L 1159 2956 
Q 1366 3272 1645 3428 
Q 1925 3584 2291 3584 
Q 2894 3584 3203 3211 
Q 3513 2838 3513 2113 
z
" transform="scale(0.015625)"/>
       <path id="DejaVuSans-67" d="M 2906 1791 
Q 2906 2416 2648 2759 
Q 2391 3103 1925 3103 
Q 1463 3103 1205 2759 
Q 947 2416 947 1791 
Q 947 1169 1205 825 
Q 1463 481 1925 481 
Q 2391 481 2648 825 
Q 2906 1169 2906 1791 
z
M 3481 434 
Q 3481 -459 3084 -895 
Q 2688 -1331 1869 -1331 
Q 1566 -1331 1297 -1286 
Q 1028 -1241 775 -1147 
L 775 -588 
Q 1028 -725 1275 -790 
Q 1522 -856 1778 -856 
Q 2344 -856 2625 -561 
Q 2906 -266 2906 331 
L 2906 616 
Q 2728 306 2450 153 
Q 2172 0 1784 0 
Q 1141 0 747 490 
Q 353 981 353 1791 
Q 353 2603 747 3093 
Q 1141 3584 1784 3584 
Q 2172 3584 2450 3431 
Q 2728 3278 2906 2969 
L 2906 3500 
L 3481 3500 
L 3481 434 
z
" transform="scale(0.015625)"/>
       <path id="DejaVuSans-74" d="M 1172 4494 
L 1172 3500 
L 2356 3500 
L 2356 3053 
L 1172 3053 
L 1172 1153 
Q 1172 725 1289 603 
Q 1406 481 1766 481 
L 2356 481 
L 2356 0 
L 1766 0 
Q 1100 0 847 248 
Q 594 497 594 1153 
L 594 3053 
L 172 3053 
L 172 3500 
L 594 3500 
L 594 4494 
L 1172 4494 
z
" transform="scale(0.015625)"/>
       <path id="DejaVuSans-68" d="M 3513 2113 
L 3513 0 
L 2938 0 
L 2938 2094 
Q 2938 2591 2744 2837 
Q 2550 3084 2163 3084 
Q 1697 3084 1428 2787 
Q 1159 2491 1159 1978 
L 1159 0 
L 581 0 
L 581 4863 
L 1159 4863 
L 1159 2956 
Q 1366 3272 1645 3428 
Q 1925 3584 2291 3584 
Q 2894 3584 3203 3211 
Q 3513 2838 3513 2113 
z
" transform="scale(0.015625)"/>
       <path id="DejaVuSans-20" transform="scale(0.015625)"/>
       <path id="DejaVuSans-54" d="M -19 4666 
L 3928 4666 
L 3928 4134 
L 2272 4134 
L 2272 0 
L 1638 0 
L 1638 4134 
L -19 4134 
L -19 4666 
z
" transform="scale(0.015625)"/>
       <path id="DejaVuSans-72" d="M 2631 2963 
Q 2534 3019 2420 3045 
Q 2306 3072 2169 3072 
Q 1681 3072 1420 2755 
Q 1159 2438 1159 1844 
L 1159 0 
L 581 0 
L 581 3500 
L 1159 3500 
L 1159 2956 
Q 1341 3275 1631 3429 
Q 1922 3584 2338 3584 
Q 2397 3584 2469 3576 
Q 2541 3569 2628 3553 
L 2631 2963 
z
" transform="scale(0.015625)"/>
       <path id="DejaVuSans-69" d="M 603 3500 
L 1178 3500 
L 1178 0 
L 603 0 
L 603 3500 
z
M 603 4863 
L 1178 4863 
L 1178 4134 
L 603 4134 
L 603 4863 
z
" transform="scale(0.015625)"/>
       <path id="DejaVuSans-6d" d="M 3328 2828 
Q 3544 3216 3844 3400 
Q 4144 3584 4550 3584 
Q 5097 3584 5394 3201 
Q 5691 2819 5691 2113 
L 5691 0 
L 5113 0 
L 5113 2094 
Q 5113 2597 4934 2840 
Q 4756 3084 4391 3084 
Q 3944 3084 3684 2787 
Q 3425 2491 3425 1978 
L 3425 0 
L 2847 0 
L 2847 2094 
Q 2847 2600 2669 2842 
Q 2491 3084 2119 3084 
Q 1678 3084 1418 2786 
Q 1159 2488 1159 1978 
L 1159 0 
L 581 0 
L 581 3500 
L 1159 3500 
L 1159 2956 
Q 1356 3278 1631 3431 
Q 1906 3584 2284 3584 
Q 2666 3584 2933 3390 
Q 3200 3197 3328 2828 
z
" transform="scale(0.015625)"/>
       <path id="DejaVuSans-64" d="M 2906 2969 
L 2906 4863 
L 3481 4863 
L 3481 0 
L 2906 0 
L 2906 525 
Q 2725 213 2448 61 
Q 2172 -91 1784 -91 
Q 1150 -91 751 415 
Q 353 922 353 1747 
Q 353 2572 751 3078 
Q 1150 3584 1784 3584 
Q 2172 3584 2448 3432 
Q 2725 3281 2906 2969 
z
M 947 1747 
Q 947 1113 1208 752 
Q 1469 391 1925 391 
Q 2381 391 2643 752 
Q 2906 1113 2906 1747 
Q 2906 2381 2643 2742 
Q 2381 3103 1925 3103 
Q 1469 3103 1208 2742 
Q 947 2381 947 1747 
z
" transform="scale(0.015625)"/>
       <path id="DejaVuSans-28" d="M 1984 4856 
Q 1566 4138 1362 3434 
Q 1159 2731 1159 2009 
Q 1159 1288 1364 580 
Q 1569 -128 1984 -844 
L 1484 -844 
Q 1016 -109 783 600 
Q 550 1309 550 2009 
Q 550 2706 781 3412 
Q 1013 4119 1484 4856 
L 1984 4856 
z
" transform="scale(0.015625)"/>
       <path id="DejaVuSans-62" d="M 3116 1747 
Q 3116 2381 2855 2742 
Q 2594 3103 2138 3103 
Q 1681 3103 1420 2742 
Q 1159 2381 1159 1747 
Q 1159 1113 1420 752 
Q 1681 391 2138 391 
Q 2594 391 2855 752 
Q 3116 1113 3116 1747 
z
M 1159 2969 
Q 1341 3281 1617 3432 
Q 1894 3584 2278 3584 
Q 2916 3584 3314 3078 
Q 3713 2572 3713 1747 
Q 3713 922 3314 415 
Q 2916 -91 2278 -91 
Q 1894 -91 1617 61 
Q 1341 213 1159 525 
L 1159 0 
L 581 0 
L 581 4863 
L 1159 4863 
L 1159 2969 
z
" transform="scale(0.015625)"/>
       <path id="DejaVuSans-70" d="M 1159 525 
L 1159 -1331 
L 581 -1331 
L 581 3500 
L 1159 3500 
L 1159 2969 
Q 1341 3281 1617 3432 
Q 1894 3584 2278 3584 
Q 2916 3584 3314 3078 
Q 3713 2572 3713 1747 
Q 3713 922 3314 415 
Q 2916 -91 2278 -91 
Q 1894 -91 1617 61 
Q 1341 213 1159 525 
z
M 3116 1747 
Q 3116 2381 2855 2742 
Q 2594 3103 2138 3103 
Q 1681 3103 1420 2742 
Q 1159 2381 1159 1747 
Q 1159 1113 1420 752 
Q 1681 391 2138 391 
Q 2594 391 2855 752 
Q 3116 1113 3116 1747 
z
" transform="scale(0.015625)"/>
       <path id="DejaVuSans-29" d="M 513 4856 
L 1013 4856 
Q 1481 4119 1714 3412 
Q 1947 2706 1947 2009 
Q 1947 1309 1714 600 
Q 1481 -109 1013 -844 
L 513 -844 
Q 928 -128 1133 580 
Q 1338 1288 1338 2009 
Q 1338 2731 1133 3434 
Q 928 4138 513 4856 
z
" transform="scale(0.015625)"/>
      </defs>
      <use xlink:href="#DejaVuSans-4c"/>
      <use xlink:href="#DejaVuSans-65" x="53.962891"/>
      <use xlink:href="#DejaVuSans-6e" x="115.486328"/>
      <use xlink:href="#DejaVuSans-67" x="178.865234"/>
      <use xlink:href="#DejaVuSans-74" x="242.341797"/>
      <use xlink:href="#DejaVuSans-68" x="281.550781"/>
      <use xlink:href="#DejaVuSans-20" x="344.929688"/>
      <use xlink:href="#DejaVuSans-54" x="376.716797"/>
      <use xlink:href="#DejaVuSans-72" x="423.050781"/>
      <use xlink:href="#DejaVuSans-69" x="464.164062"/>
      <use xlink:href="#DejaVuSans-6d" x="491.947266"/>
      <use xlink:href="#DejaVuSans-6d" x="589.359375"/>
      <use xlink:href="#DejaVuSans-65" x="686.771484"/>
      <use xlink:href="#DejaVuSans-64" x="748.294922"/>
      <use xlink:href="#DejaVuSans-20" x="811.771484"/>
      <use xlink:href="#DejaVuSans-28" x="843.558594"/>
      <use xlink:href="#DejaVuSans-62" x="882.572266"/>
      <use xlink:href="#DejaVuSans-70" x="946.048828"/>
      <use xlink:href="#DejaVuSans-29" x="1009.525391"/>
     </g>
    </g>
   </g>
   <g id="matplotlib.axis_2">
    <g id="ytick_1">
     <g id="line2d_1">
      <path d="M 58.418125 353.2239 
L 992.958125 353.2239 
" clip-path="url(#p7e23581a4f)" style="fill: none; stroke: #dedede; stroke-linecap: square"/>
     </g>
     <g id="text_8">
      <!-- 0 -->
      <g transform="translate(46.328125 356.263275) scale(0.08 -0.08)">
       <use xlink:href="#DejaVuSans-30"/>
      </g>
     </g>
    </g>
    <g id="ytick_2">
     <g id="line2d_2">
      <path d="M 58.418125 286.880316 
L 992.958125 286.880316 
" clip-path="url(#p7e23581a4f)" style="fill: none; stroke: #dedede; stroke-linecap: square"/>
     </g>
     <g id="text_9">
      <!-- 200000 -->
      <g transform="translate(20.878125 289.919691) scale(0.08 -0.08)">
       <use xlink:href="#DejaVuSans-32"/>
       <use xlink:href="#DejaVuSans-30" x="63.623047"/>
       <use xlink:href="#DejaVuSans-30" x="127.246094"/>
       <use xlink:href="#DejaVuSans-30" x="190.869141"/>
       <use xlink:href="#DejaVuSans-30" x="254.492188"/>
       <use xlink:href="#DejaVuSans-30" x="318.115234"/>
      </g>
     </g>
    </g>
    <g id="ytick_3">
     <g id="line2d_3">
      <path d="M 58.418125 220.536733 
L 992.958125 220.536733 
" clip-path="url(#p7e23581a4f)" style="fill: none; stroke: #dedede; stroke-linecap: square"/>
     </g>
     <g id="text_10">
      <!-- 400000 -->
      <g transform="translate(20.878125 223.576108) scale(0.08 -0.08)">
       <use xlink:href="#DejaVuSans-34"/>
       <use xlink:href="#DejaVuSans-30" x="63.623047"/>
       <use xlink:href="#DejaVuSans-30" x="127.246094"/>
       <use xlink:href="#DejaVuSans-30" x="190.869141"/>
       <use xlink:href="#DejaVuSans-30" x="254.492188"/>
       <use xlink:href="#DejaVuSans-30" x="318.115234"/>
      </g>
     </g>
    </g>
    <g id="ytick_4">
     <g id="line2d_4">
      <path d="M 58.418125 154.193149 
L 992.958125 154.193149 
" clip-path="url(#p7e23581a4f)" style="fill: none; stroke: #dedede; stroke-linecap: square"/>
     </g>
     <g id="text_11">
      <!-- 600000 -->
      <g transform="translate(20.878125 157.232524) scale(0.08 -0.08)">
       <use xlink:href="#DejaVuSans-36"/>
       <use xlink:href="#DejaVuSans-30" x="63.623047"/>
       <use xlink:href="#DejaVuSans-30" x="127.246094"/>
       <use xlink:href="#DejaVuSans-30" x="190.869141"/>
       <use xlink:href="#DejaVuSans-30" x="254.492188"/>
       <use xlink:href="#DejaVuSans-30" x="318.115234"/>
      </g>
     </g>
    </g>
    <g id="ytick_5">
     <g id="line2d_5">
      <path d="M 58.418125 87.849565 
L 992.958125 87.849565 
" clip-path="url(#p7e23581a4f)" style="fill: none; stroke: #dedede; stroke-linecap: square"/>
     </g>
     <g id="text_12">
      <!-- 800000 -->
      <g transform="translate(20.878125 90.88894) scale(0.08 -0.08)">
       <use xlink:href="#DejaVuSans-38"/>
       <use xlink:href="#DejaVuSans-30" x="63.623047"/>
       <use xlink:href="#DejaVuSans-30" x="127.246094"/>
       <use xlink:href="#DejaVuSans-30" x="190.869141"/>
       <use xlink:href="#DejaVuSans-30" x="254.492188"/>
       <use xlink:href="#DejaVuSans-30" x="318.115234"/>
      </g>
     </g>
    </g>
    <g id="text_13">
     <!-- Observed / Expected -->
     <g transform="translate(14.798438 246.489119) rotate(-90) scale(0.1 -0.1)">
      <defs>
       <path id="DejaVuSans-4f" d="M 2522 4238 
Q 1834 4238 1429 3725 
Q 1025 3213 1025 2328 
Q 1025 1447 1429 934 
Q 1834 422 2522 422 
Q 3209 422 3611 934 
Q 4013 1447 4013 2328 
Q 4013 3213 3611 3725 
Q 3209 4238 2522 4238 
z
M 2522 4750 
Q 3503 4750 4090 4092 
Q 4678 3434 4678 2328 
Q 4678 1225 4090 567 
Q 3503 -91 2522 -91 
Q 1538 -91 948 565 
Q 359 1222 359 2328 
Q 359 3434 948 4092 
Q 1538 4750 2522 4750 
z
" transform="scale(0.015625)"/>
       <path id="DejaVuSans-73" d="M 2834 3397 
L 2834 2853 
Q 2591 2978 2328 3040 
Q 2066 3103 1784 3103 
Q 1356 3103 1142 2972 
Q 928 2841 928 2578 
Q 928 2378 1081 2264 
Q 1234 2150 1697 2047 
L 1894 2003 
Q 2506 1872 2764 1633 
Q 3022 1394 3022 966 
Q 3022 478 2636 193 
Q 2250 -91 1575 -91 
Q 1294 -91 989 -36 
Q 684 19 347 128 
L 347 722 
Q 666 556 975 473 
Q 1284 391 1588 391 
Q 1994 391 2212 530 
Q 2431 669 2431 922 
Q 2431 1156 2273 1281 
Q 2116 1406 1581 1522 
L 1381 1569 
Q 847 1681 609 1914 
Q 372 2147 372 2553 
Q 372 3047 722 3315 
Q 1072 3584 1716 3584 
Q 2034 3584 2315 3537 
Q 2597 3491 2834 3397 
z
" transform="scale(0.015625)"/>
       <path id="DejaVuSans-76" d="M 191 3500 
L 800 3500 
L 1894 563 
L 2988 3500 
L 3597 3500 
L 2284 0 
L 1503 0 
L 191 3500 
z
" transform="scale(0.015625)"/>
       <path id="DejaVuSans-2f" d="M 1625 4666 
L 2156 4666 
L 531 -594 
L 0 -594 
L 1625 4666 
z
" transform="scale(0.015625)"/>
       <path id="DejaVuSans-45" d="M 628 4666 
L 3578 4666 
L 3578 4134 
L 1259 4134 
L 1259 2753 
L 3481 2753 
L 3481 2222 
L 1259 2222 
L 1259 531 
L 3634 531 
L 3634 0 
L 628 0 
L 628 4666 
z
" transform="scale(0.015625)"/>
       <path id="DejaVuSans-78" d="M 3513 3500 
L 2247 1797 
L 3578 0 
L 2900 0 
L 1881 1375 
L 863 0 
L 184 0 
L 1544 1831 
L 300 3500 
L 978 3500 
L 1906 2253 
L 2834 3500 
L 3513 3500 
z
" transform="scale(0.015625)"/>
       <path id="DejaVuSans-63" d="M 3122 3366 
L 3122 2828 
Q 2878 2963 2633 3030 
Q 2388 3097 2138 3097 
Q 1578 3097 1268 2742 
Q 959 2388 959 1747 
Q 959 1106 1268 751 
Q 1578 397 2138 397 
Q 2388 397 2633 464 
Q 2878 531 3122 666 
L 3122 134 
Q 2881 22 2623 -34 
Q 2366 -91 2075 -91 
Q 1284 -91 818 406 
Q 353 903 353 1747 
Q 353 2603 823 3093 
Q 1294 3584 2113 3584 
Q 2378 3584 2631 3529 
Q 2884 3475 3122 3366 
z
" transform="scale(0.015625)"/>
      </defs>
      <use xlink:href="#DejaVuSans-4f"/>
      <use xlink:href="#DejaVuSans-62" x="78.710938"/>
      <use xlink:href="#DejaVuSans-73" x="142.1875"/>
      <use xlink:href="#DejaVuSans-65" x="194.287109"/>
      <use xlink:href="#DejaVuSans-72" x="255.810547"/>
      <use xlink:href="#DejaVuSans-76" x="296.923828"/>
      <use xlink:href="#DejaVuSans-65" x="356.103516"/>
      <use xlink:href="#DejaVuSans-64" x="417.626953"/>
      <use xlink:href="#DejaVuSans-20" x="481.103516"/>
      <use xlink:href="#DejaVuSans-2f" x="512.890625"/>
      <use xlink:href="#DejaVuSans-20" x="546.582031"/>
      <use xlink:href="#DejaVuSans-45" x="578.369141"/>
      <use xlink:href="#DejaVuSans-78" x="641.552734"/>
      <use xlink:href="#DejaVuSans-70" x="700.732422"/>
      <use xlink:href="#DejaVuSans-65" x="764.208984"/>
      <use xlink:href="#DejaVuSans-63" x="825.732422"/>
      <use xlink:href="#DejaVuSans-74" x="880.712891"/>
      <use xlink:href="#DejaVuSans-65" x="919.921875"/>
      <use xlink:href="#DejaVuSans-64" x="981.445312"/>
     </g>
    </g>
   </g>
   <g id="line2d_6">
    <path d="M 100.897216 353.223534 
L 109.393034 353.223357 
L 117.888852 353.223497 
L 126.38467 353.223589 
L 134.880489 353.223815 
L 143.376307 353.223784 
L 151.872125 353.223814 
L 160.367943 353.223739 
L 168.863761 353.22267 
L 177.35958 353.216805 
L 185.855398 353.208287 
L 194.351216 353.173873 
L 202.847034 353.175617 
L 211.342852 353.072415 
L 219.83867 353.193308 
L 228.334489 353.040718 
L 236.830307 353.181145 
L 245.326125 353.083104 
L 253.821943 352.981746 
L 262.317761 353.206577 
L 270.81358 353.211737 
L 279.309398 353.202523 
L 287.805216 353.128808 
L 296.301034 353.039244 
L 304.796852 353.199205 
L 313.29267 353.157188 
L 321.788489 353.179302 
L 330.284307 353.202154 
L 338.780125 353.161611 
L 347.275943 353.171931 
L 355.771761 353.164559 
L 364.26758 353.18778 
L 372.763398 353.161611 
L 381.259216 353.208051 
L 389.755034 353.142813 
L 398.250852 353.213211 
L 406.74667 353.200311 
L 415.242489 353.203997 
L 423.738307 353.189254 
L 432.234125 353.199205 
L 440.729943 353.101164 
L 449.225761 352.978797 
L 457.72158 352.867488 
L 466.217398 351.221798 
L 474.713216 353.041087 
L 483.209034 352.961843 
L 491.704852 332.05182 
L 500.20067 339.54717 
L 508.696489 352.724112 
L 517.192307 341.17738 
L 525.688125 341.033267 
" clip-path="url(#p7e23581a4f)" style="fill: none; stroke: #7cb5ec; stroke-linecap: square"/>
   </g>
   <g id="line2d_7">
    <path d="M 100.897216 353.223562 
L 109.393034 353.223449 
L 117.888852 353.223444 
L 126.38467 353.223515 
L 134.880489 353.223782 
L 143.376307 353.223721 
L 151.872125 353.223754 
L 160.367943 353.22373 
L 168.863761 353.222184 
L 177.35958 353.213555 
L 185.855398 353.197473 
L 194.351216 353.157556 
L 202.847034 353.178197 
L 211.342852 353.073153 
L 219.83867 353.090844 
L 228.334489 353.1981 
L 236.830307 353.074996 
L 245.326125 353.154239 
L 253.821943 353.072047 
L 262.317761 353.137285 
L 270.81358 353.176354 
L 279.309398 353.118856 
L 287.805216 353.132493 
L 296.301034 353.112222 
L 304.796852 353.148711 
L 313.29267 353.13839 
L 321.788489 353.157188 
L 330.284307 353.150185 
L 338.780125 353.166771 
L 347.275943 353.129913 
L 355.771761 353.183357 
L 364.26758 353.156082 
L 372.763398 353.178565 
L 381.259216 353.13581 
L 389.755034 353.207683 
L 398.250852 353.179671 
L 406.74667 353.210263 
L 415.242489 353.208051 
L 423.738307 353.199205 
L 432.234125 353.202523 
L 440.729943 353.20068 
L 449.225761 353.1981 
L 457.72158 353.19294 
L 466.217398 353.198837 
L 474.713216 353.209894 
L 483.209034 353.19552 
L 491.704852 353.196257 
L 500.20067 353.189254 
L 508.696489 352.788244 
L 517.192307 353.196625 
L 525.688125 353.211737 
" clip-path="url(#p7e23581a4f)" style="fill: none; stroke: #434348; stroke-linecap: square"/>
   </g>
   <g id="line2d_8">
    <path d="M 100.897216 353.223543 
L 109.393034 353.223365 
L 117.888852 353.22348 
L 126.38467 353.223563 
L 134.880489 353.223798 
L 143.376307 353.223794 
L 151.872125 353.22381 
L 160.367943 353.223779 
L 168.863761 353.222339 
L 177.35958 353.216356 
L 185.855398 353.207718 
L 194.351216 353.177812 
L 202.847034 353.188517 
L 211.342852 353.07131 
L 219.83867 353.201233 
L 228.334489 353.092042 
L 236.830307 353.198745 
L 245.326125 353.112774 
L 253.821943 353.028186 
L 262.317761 353.210631 
L 270.81358 353.20842 
L 279.309398 353.204273 
L 287.805216 353.13793 
L 296.301034 353.057212 
L 304.796852 353.192387 
L 313.29267 353.173313 
L 321.788489 353.181053 
L 330.284307 353.205103 
L 338.780125 353.178012 
L 347.275943 353.1805 
L 355.771761 353.169443 
L 364.26758 353.200403 
L 372.763398 353.142906 
L 381.259216 353.198745 
L 389.755034 353.154792 
L 398.250852 353.171378 
L 406.74667 353.191558 
L 415.242489 353.113327 
L 423.738307 353.183817 
L 432.234125 353.168061 
L 440.729943 353.170272 
L 449.225761 353.039797 
L 457.72158 352.995567 
L 466.217398 352.932265 
L 474.713216 353.126596 
L 483.209034 353.089001 
L 491.704852 352.943875 
L 500.20067 352.614921 
L 508.696489 350.985633 
L 517.192307 336.678087 
L 525.688125 50.39723 
" clip-path="url(#p7e23581a4f)" style="fill: none; stroke: #90ed7d; stroke-linecap: square"/>
   </g>
   <g id="line2d_9">
    <path d="M 100.897216 353.223555 
L 109.393034 353.223423 
L 117.888852 353.223416 
L 126.38467 353.223473 
L 134.880489 353.223757 
L 143.376307 353.223677 
L 151.872125 353.223682 
L 160.367943 353.223701 
L 168.863761 353.221687 
L 177.35958 353.212037 
L 185.855398 353.184813 
L 194.351216 353.156004 
L 202.847034 353.182712 
L 211.342852 353.067163 
L 219.83867 353.092319 
L 228.334489 353.206761 
L 236.830307 353.10614 
L 245.326125 353.146776 
L 253.821943 353.089278 
L 262.317761 353.153963 
L 270.81358 353.170272 
L 279.309398 353.126043 
L 287.805216 353.137377 
L 296.301034 353.110563 
L 304.796852 353.145946 
L 313.29267 353.150369 
L 321.788489 353.164467 
L 330.284307 353.146499 
L 338.780125 353.164191 
L 347.275943 353.138206 
L 355.771761 353.181882 
L 364.26758 353.158386 
L 372.763398 353.173866 
L 381.259216 353.177736 
L 389.755034 353.167784 
L 398.250852 353.186029 
L 406.74667 353.200403 
L 415.242489 353.185752 
L 423.738307 353.198192 
L 432.234125 353.203997 
L 440.729943 353.202615 
L 449.225761 353.202062 
L 457.72158 353.194598 
L 466.217398 353.207867 
L 474.713216 353.216989 
L 483.209034 353.208696 
L 491.704852 353.205932 
L 500.20067 353.195704 
L 508.696489 352.984787 
L 517.192307 353.207038 
L 525.688125 353.208973 
" clip-path="url(#p7e23581a4f)" style="fill: none; stroke: #f7a35c; stroke-linecap: square"/>
   </g>
   <g id="line2d_10">
    <path d="M 100.897216 353.223616 
L 109.393034 353.223546 
L 117.888852 353.223514 
L 126.38467 353.223573 
L 134.880489 353.223621 
L 143.376307 353.223768 
L 151.872125 353.223791 
L 160.367943 353.223713 
L 168.863761 353.222102 
L 177.35958 353.215433 
L 185.855398 353.205693 
L 194.351216 353.186144 
L 202.847034 353.110133 
L 211.342852 353.132493 
L 219.83867 353.114433 
L 228.334489 353.127456 
L 236.830307 353.12549 
L 245.326125 353.122419 
L 253.821943 353.100182 
L 262.317761 353.082858 
L 270.81358 353.102147 
L 279.309398 353.143673 
L 287.805216 353.143182 
L 296.301034 353.144533 
L 304.796852 353.146991 
L 313.29267 353.152519 
L 321.788489 353.12119 
L 330.284307 353.130159 
L 338.780125 353.143673 
L 347.275943 353.157556 
L 355.771761 353.151413 
L 364.26758 353.150553 
L 372.763398 353.161365 
L 381.259216 353.140725 
L 389.755034 353.141339 
L 398.250852 353.147728 
L 406.74667 353.147482 
L 415.242489 353.155714 
L 423.738307 353.147482 
L 432.234125 353.13667 
L 440.729943 353.144042 
L 449.225761 353.152519 
L 457.72158 353.155222 
L 466.217398 353.154854 
L 474.713216 353.151291 
L 483.209034 353.159645 
L 491.704852 353.160751 
L 500.20067 353.158171 
L 508.696489 353.160505 
L 517.192307 353.167631 
L 525.688125 353.162225 
L 534.183943 353.159768 
L 542.679761 353.157802 
L 551.17558 353.148096 
L 559.671398 353.113205 
L 568.167216 353.152519 
L 576.663034 353.160628 
L 585.158852 353.177459 
L 593.65467 353.137285 
L 602.150489 353.154116 
L 610.646307 353.150922 
L 619.142125 353.153871 
L 627.637943 353.123033 
L 636.133761 353.132862 
L 644.62958 353.18262 
L 653.125398 353.180408 
L 661.621216 353.176968 
L 670.117034 353.177705 
L 678.612852 353.1895 
L 687.10867 353.198837 
L 695.604489 353.202645 
L 704.100307 353.188762 
L 712.596125 353.205348 
L 721.091943 353.195888 
L 729.587761 353.198714 
L 738.08358 353.192325 
L 746.579398 353.200065 
L 755.075216 353.198837 
L 763.571034 353.200434 
L 772.066852 353.194168 
L 780.56267 353.189377 
L 789.058489 353.199451 
L 797.554307 353.19896 
L 806.050125 353.1938 
L 814.545943 353.188148 
L 823.041761 353.200434 
L 831.53758 353.202768 
L 840.033398 353.192203 
L 848.529216 353.199328 
L 857.025034 353.198345 
L 865.520852 353.202891 
L 874.01667 353.197854 
L 882.512489 353.196994 
L 891.008307 353.20068 
L 899.504125 353.199574 
L 907.999943 353.19466 
L 916.495761 353.189622 
L 924.99158 353.163822 
L 933.487398 353.181145 
L 941.983216 352.901888 
L 950.479034 351.156069 
" clip-path="url(#p7e23581a4f)" style="fill: none; stroke: #8085e9; stroke-linecap: square"/>
   </g>
   <g id="line2d_11">
    <path d="M 100.897216 353.223645 
L 109.393034 353.223577 
L 117.888852 353.22356 
L 126.38467 353.223593 
L 134.880489 353.223671 
L 143.376307 353.22381 
L 151.872125 353.223775 
L 160.367943 353.223552 
L 168.863761 353.221963 
L 177.35958 353.215586 
L 185.855398 353.201802 
L 194.351216 353.161843 
L 202.847034 353.013611 
L 211.342852 353.034218 
L 219.83867 353.031805 
L 228.334489 353.05211 
L 236.830307 353.056433 
L 245.326125 353.081563 
L 253.821943 353.075934 
L 262.317761 353.0695 
L 270.81358 353.089806 
L 279.309398 353.111518 
L 287.805216 353.117951 
L 296.301034 353.113528 
L 304.796852 353.124184 
L 313.29267 353.136347 
L 321.788489 353.11966 
L 330.284307 353.121872 
L 338.780125 353.13112 
L 347.275943 353.140971 
L 355.771761 353.147203 
L 364.26758 353.133733 
L 372.763398 353.15243 
L 381.259216 353.135643 
L 389.755034 353.142579 
L 398.250852 353.15062 
L 406.74667 353.1467 
L 415.242489 353.151525 
L 423.738307 353.136246 
L 432.234125 353.148912 
L 440.729943 353.150319 
L 449.225761 353.155345 
L 457.72158 353.152329 
L 466.217398 353.152028 
L 474.713216 353.153837 
L 483.209034 353.153737 
L 491.704852 353.158964 
L 500.20067 353.162482 
L 508.696489 353.159768 
L 517.192307 353.156953 
L 525.688125 353.157757 
L 534.183943 353.161075 
L 542.679761 353.151023 
L 551.17558 353.146198 
L 559.671398 353.130315 
L 568.167216 353.160974 
L 576.663034 353.159768 
L 585.158852 353.170624 
L 593.65467 353.112624 
L 602.150489 353.147504 
L 610.646307 353.125993 
L 619.142125 353.150721 
L 627.637943 353.098752 
L 636.133761 353.108904 
L 644.62958 353.172936 
L 653.125398 353.171127 
L 661.621216 353.154943 
L 670.117034 353.169518 
L 678.612852 353.189019 
L 687.10867 353.199071 
L 695.604489 353.206409 
L 704.100307 353.195453 
L 712.596125 353.210229 
L 721.091943 353.203896 
L 729.587761 353.205505 
L 738.08358 353.198368 
L 746.579398 353.205706 
L 755.075216 353.205103 
L 763.571034 353.207013 
L 772.066852 353.205505 
L 780.56267 353.20078 
L 789.058489 353.2045 
L 797.554307 353.205605 
L 806.050125 353.197061 
L 814.545943 353.197463 
L 823.041761 353.201584 
L 831.53758 353.200177 
L 840.033398 353.198971 
L 848.529216 353.19495 
L 857.025034 353.198468 
L 865.520852 353.201584 
L 874.01667 353.191934 
L 882.512489 353.193844 
L 891.008307 353.175148 
L 899.504125 353.191633 
L 907.999943 353.184496 
L 916.495761 353.182184 
L 924.99158 353.16208 
L 933.487398 353.182284 
L 941.983216 352.929576 
L 950.479034 351.330092 
" clip-path="url(#p7e23581a4f)" style="fill: none; stroke: #f15c80; stroke-linecap: square"/>
   </g>
   <g id="line2d_12">
    <path d="M 100.897216 353.223603 
L 109.393034 353.223535 
L 117.888852 353.223482 
L 126.38467 353.223526 
L 134.880489 353.223597 
L 143.376307 353.223756 
L 151.872125 353.223764 
L 160.367943 353.223629 
L 168.863761 353.221617 
L 177.35958 353.213827 
L 185.855398 353.199579 
L 194.351216 353.172335 
L 202.847034 353.056864 
L 211.342852 353.08201 
L 219.83867 353.076767 
L 228.334489 353.099345 
L 236.830307 353.087468 
L 245.326125 353.101271 
L 253.821943 353.088752 
L 262.317761 353.080512 
L 270.81358 353.106729 
L 279.309398 353.129414 
L 287.805216 353.13455 
L 296.301034 353.137867 
L 304.796852 353.139151 
L 313.29267 353.14493 
L 321.788489 353.134015 
L 330.284307 353.131019 
L 338.780125 353.139258 
L 347.275943 353.152313 
L 355.771761 353.150066 
L 364.26758 353.154988 
L 372.763398 353.16066 
L 381.259216 353.151136 
L 389.755034 353.135299 
L 398.250852 353.161837 
L 406.74667 353.155737 
L 415.242489 353.156058 
L 423.738307 353.137118 
L 432.234125 353.147498 
L 440.729943 353.141399 
L 449.225761 353.153811 
L 457.72158 353.161409 
L 466.217398 353.164405 
L 474.713216 353.149103 
L 483.209034 353.160125 
L 491.704852 353.168364 
L 500.20067 353.164726 
L 508.696489 353.1567 
L 517.192307 353.161944 
L 525.688125 353.165368 
L 534.183943 353.167936 
L 542.679761 353.160125 
L 551.17558 353.146856 
L 559.671398 353.131019 
L 568.167216 353.163549 
L 576.663034 353.172537 
L 585.158852 353.171146 
L 593.65467 353.137439 
L 602.150489 353.159376 
L 610.646307 353.156914 
L 619.142125 353.166117 
L 627.637943 353.130912 
L 636.133761 353.129521 
L 644.62958 353.183987 
L 653.125398 353.180349 
L 661.621216 353.172751 
L 670.117034 353.176924 
L 678.612852 353.187732 
L 687.10867 353.197898 
L 695.604489 353.201536 
L 704.100307 353.190193 
L 712.596125 353.201429 
L 721.091943 353.190728 
L 729.587761 353.199075 
L 738.08358 353.200466 
L 746.579398 353.199824 
L 755.075216 353.197577 
L 763.571034 353.193938 
L 772.066852 353.192226 
L 780.56267 353.190086 
L 789.058489 353.197149 
L 797.554307 353.197577 
L 806.050125 353.184629 
L 814.545943 353.186341 
L 823.041761 353.194259 
L 831.53758 353.195757 
L 840.033398 353.189872 
L 848.529216 353.194794 
L 857.025034 353.194045 
L 865.520852 353.202927 
L 874.01667 353.190728 
L 882.512489 353.186769 
L 891.008307 353.179814 
L 899.504125 353.194259 
L 907.999943 353.182917 
L 916.495761 353.178423 
L 924.99158 353.140221 
L 933.487398 353.169862 
L 941.983216 352.852483 
L 950.479034 350.851047 
" clip-path="url(#p7e23581a4f)" style="fill: none; stroke: #e4d354; stroke-linecap: square"/>
   </g>
   <g id="line2d_13">
    <path d="M 100.897216 353.223608 
L 109.393034 353.223536 
L 117.888852 353.223489 
L 126.38467 353.223521 
L 134.880489 353.223594 
L 143.376307 353.22373 
L 151.872125 353.223687 
L 160.367943 353.223415 
L 168.863761 353.220869 
L 177.35958 353.211567 
L 185.855398 353.190517 
L 194.351216 353.1444 
L 202.847034 352.952806 
L 211.342852 352.989867 
L 219.83867 352.99307 
L 228.334489 353.02567 
L 236.830307 353.026928 
L 245.326125 353.047746 
L 253.821943 353.046717 
L 262.317761 353.05358 
L 270.81358 353.067878 
L 279.309398 353.096818 
L 287.805216 353.109171 
L 296.301034 353.102766 
L 304.796852 353.105511 
L 313.29267 353.122211 
L 321.788489 353.111573 
L 330.284307 353.1261 
L 338.780125 353.130447 
L 347.275943 353.132048 
L 355.771761 353.138111 
L 364.26758 353.139941 
L 372.763398 353.152638 
L 381.259216 353.145317 
L 389.755034 353.143029 
L 398.250852 353.151036 
L 406.74667 353.155612 
L 415.242489 353.146575 
L 423.738307 353.130447 
L 432.234125 353.148062 
L 440.729943 353.14486 
L 449.225761 353.143029 
L 457.72158 353.152981 
L 466.217398 353.147834 
L 474.713216 353.147605 
L 483.209034 353.153324 
L 491.704852 353.157671 
L 500.20067 353.163619 
L 508.696489 353.149778 
L 517.192307 353.153667 
L 525.688125 353.162704 
L 534.183943 353.163733 
L 542.679761 353.155955 
L 551.17558 353.146575 
L 559.671398 353.126787 
L 568.167216 353.156413 
L 576.663034 353.163047 
L 585.158852 353.16705 
L 593.65467 353.121411 
L 602.150489 353.153782 
L 610.646307 353.142114 
L 619.142125 353.152981 
L 627.637943 353.108256 
L 636.133761 353.11043 
L 644.62958 353.174829 
L 653.125398 353.171969 
L 661.621216 353.163733 
L 670.117034 353.166021 
L 678.612852 353.178832 
L 687.10867 353.193931 
L 695.604489 353.203082 
L 704.100307 353.18478 
L 712.596125 353.201824 
L 721.091943 353.192558 
L 729.587761 353.193016 
L 738.08358 353.194617 
L 746.579398 353.197706 
L 755.075216 353.194389 
L 763.571034 353.196447 
L 772.066852 353.192444 
L 780.56267 353.177688 
L 789.058489 353.194846 
L 797.554307 353.192101 
L 806.050125 353.181005 
L 814.545943 353.180891 
L 823.041761 353.183293 
L 831.53758 353.190728 
L 840.033398 353.182721 
L 848.529216 353.187411 
L 857.025034 353.180891 
L 865.520852 353.190499 
L 874.01667 353.17643 
L 882.512489 353.164877 
L 891.008307 353.152066 
L 899.504125 353.160874 
L 907.999943 353.152523 
L 916.495761 353.13914 
L 924.99158 353.117293 
L 933.487398 353.13182 
L 941.983216 352.784431 
L 950.479034 350.2596 
" clip-path="url(#p7e23581a4f)" style="fill: none; stroke: #2b908f; stroke-linecap: square"/>
   </g>
   <g id="line2d_14">
    <path d="M 100.897216 353.22354 
L 109.393034 353.223349 
L 117.888852 353.223525 
L 126.38467 353.223621 
L 134.880489 353.223825 
L 143.376307 353.223775 
L 151.872125 353.223834 
L 160.367943 353.223825 
L 168.863761 353.222888 
L 177.35958 353.218295 
L 185.855398 353.214098 
L 194.351216 353.196382 
L 202.847034 353.195855 
L 211.342852 353.150922 
L 219.83867 353.212139 
L 228.334489 353.15635 
L 236.830307 353.214552 
L 245.326125 353.180777 
L 253.821943 353.122877 
L 262.317761 353.217869 
L 270.81358 353.21425 
L 279.309398 353.214853 
L 287.805216 353.178063 
L 296.301034 353.1467 
L 304.796852 353.213044 
L 313.29267 353.197664 
L 321.788489 353.19887 
L 330.284307 353.213948 
L 338.780125 353.192236 
L 347.275943 353.188617 
L 355.771761 353.181681 
L 364.26758 353.212139 
L 372.763398 353.178364 
L 381.259216 353.193442 
L 389.755034 353.191934 
L 398.250852 353.201886 
L 406.74667 353.207917 
L 415.242489 353.205505 
L 423.738307 353.21817 
L 432.234125 353.211536 
L 440.729943 353.204902 
L 449.225761 353.16781 
L 457.72158 353.154842 
L 466.217398 352.805332 
L 474.713216 353.13705 
L 483.209034 353.102672 
L 491.704852 350.675703 
L 500.20067 352.010114 
L 508.696489 352.743512 
L 517.192307 340.947623 
L 525.688125 339.863508 
" clip-path="url(#p7e23581a4f)" style="fill: none; stroke: #f45b5b; stroke-linecap: square"/>
   </g>
   <g id="line2d_15">
    <path d="M 100.897216 353.223579 
L 109.393034 353.22347 
L 117.888852 353.223479 
L 126.38467 353.223557 
L 134.880489 353.223792 
L 143.376307 353.223739 
L 151.872125 353.223769 
L 160.367943 353.22379 
L 168.863761 353.222257 
L 177.35958 353.215633 
L 185.855398 353.202872 
L 194.351216 353.184395 
L 202.847034 353.203092 
L 211.342852 353.147605 
L 219.83867 353.143685 
L 228.334489 353.21033 
L 236.830307 353.167206 
L 245.326125 353.184697 
L 253.821943 353.153033 
L 262.317761 353.17565 
L 270.81358 353.187713 
L 279.309398 353.176253 
L 287.805216 353.172031 
L 296.301034 353.170524 
L 304.796852 353.175047 
L 313.29267 353.17957 
L 321.788489 353.192236 
L 330.284307 353.177158 
L 338.780125 353.184697 
L 347.275943 353.167508 
L 355.771761 353.186506 
L 364.26758 353.186205 
L 372.763398 353.192236 
L 381.259216 353.169619 
L 389.755034 353.208822 
L 398.250852 353.196156 
L 406.74667 353.207917 
L 415.242489 353.201886 
L 423.738307 353.207013 
L 432.234125 353.20068 
L 440.729943 353.202188 
L 449.225761 353.205505 
L 457.72158 353.19887 
L 466.217398 353.210933 
L 474.713216 353.21817 
L 483.209034 353.212742 
L 491.704852 353.20852 
L 500.20067 353.19103 
L 508.696489 353.059549 
L 517.192307 353.202791 
L 525.688125 353.199172 
" clip-path="url(#p7e23581a4f)" style="fill: none; stroke: #91e8e1; stroke-linecap: square"/>
   </g>
   <g id="line2d_16">
    <path d="M 100.897216 353.223623 
L 109.393034 353.223544 
L 117.888852 353.223515 
L 126.38467 353.223585 
L 134.880489 353.223597 
L 143.376307 353.223711 
L 151.872125 353.223588 
L 160.367943 353.223088 
L 168.863761 353.219737 
L 177.35958 353.206634 
L 185.855398 353.173913 
L 194.351216 353.081732 
L 202.847034 352.723006 
L 211.342852 352.780441 
L 219.83867 352.773806 
L 228.334489 352.847637 
L 236.830307 352.855314 
L 245.326125 352.879861 
L 253.821943 352.883937 
L 262.317761 352.8592 
L 270.81358 352.921847 
L 279.309398 352.97786 
L 287.805216 352.996721 
L 296.301034 352.953029 
L 304.796852 352.996152 
L 313.29267 353.036053 
L 321.788489 353.02013 
L 330.284307 353.028566 
L 338.780125 353.023637 
L 347.275943 353.065907 
L 355.771761 353.060979 
L 364.26758 353.058515 
L 372.763398 353.085621 
L 381.259216 353.065434 
L 389.755034 353.059273 
L 398.250852 353.06676 
L 406.74667 353.089696 
L 415.242489 353.07965 
L 423.738307 353.061263 
L 432.234125 353.070741 
L 440.729943 353.066666 
L 449.225761 353.08183 
L 457.72158 353.078987 
L 466.217398 353.081546 
L 474.713216 353.067329 
L 483.209034 353.074153 
L 491.704852 353.092445 
L 500.20067 353.113391 
L 508.696489 353.111211 
L 517.192307 353.111969 
L 525.688125 353.102681 
L 534.183943 353.105524 
L 542.679761 353.10742 
L 551.17558 353.049322 
L 559.671398 353.005819 
L 568.167216 353.080598 
L 576.663034 353.111969 
L 585.158852 353.096046 
L 593.65467 352.969899 
L 602.150489 353.028566 
L 610.646307 352.983357 
L 619.142125 353.043256 
L 627.637943 352.883084 
L 636.133761 352.873227 
L 644.62958 353.097468 
L 653.125398 353.076996 
L 661.621216 353.025533 
L 670.117034 353.047616 
L 678.612852 353.136516 
L 687.10867 353.168077 
L 695.604489 353.187695 
L 704.100307 353.174048 
L 712.596125 353.190065 
L 721.091943 353.174521 
L 729.587761 353.181345 
L 738.08358 353.165423 
L 746.579398 353.190444 
L 755.075216 353.181819 
L 763.571034 353.175374 
L 772.066852 353.172815 
L 780.56267 353.169024 
L 789.058489 353.174901 
L 797.554307 353.16675 
L 806.050125 353.13481 
L 814.545943 353.113485 
L 823.041761 353.120214 
L 831.53758 353.118035 
L 840.033398 353.118793 
L 848.529216 353.119646 
L 857.025034 353.132535 
L 865.520852 353.142676 
L 874.01667 353.103629 
L 882.512489 353.129787 
L 891.008307 353.092729 
L 899.504125 353.107041 
L 907.999943 353.107704 
L 916.495761 353.027807 
L 924.99158 352.998806 
L 933.487398 353.026765 
L 941.983216 351.104223 
L 950.479034 338.646698 
" clip-path="url(#p7e23581a4f)" style="fill: none; stroke: #7cb5ec; stroke-linecap: square"/>
   </g>
   <g id="line2d_17">
    <path d="M 100.897216 353.223643 
L 109.393034 353.223549 
L 117.888852 353.223588 
L 126.38467 353.223676 
L 134.880489 353.223654 
L 143.376307 353.223649 
L 151.872125 353.223253 
L 160.367943 353.221625 
L 168.863761 353.214745 
L 177.35958 353.18911 
L 185.855398 353.121324 
L 194.351216 352.898707 
L 202.847034 352.058435 
L 211.342852 352.111772 
L 219.83867 352.108804 
L 228.334489 352.324333 
L 236.830307 352.404382 
L 245.326125 352.418524 
L 253.821943 352.386923 
L 262.317761 352.402636 
L 270.81358 352.488446 
L 279.309398 352.611793 
L 287.805216 352.635188 
L 296.301034 352.625149 
L 304.796852 352.680406 
L 313.29267 352.762463 
L 321.788489 352.696381 
L 330.284307 352.741076 
L 338.780125 352.72868 
L 347.275943 352.818768 
L 355.771761 352.780096 
L 364.26758 352.829592 
L 372.763398 352.898642 
L 381.259216 352.837798 
L 389.755034 352.895674 
L 398.250852 352.865295 
L 406.74667 352.895674 
L 415.242489 352.931377 
L 423.738307 352.937139 
L 432.234125 352.955558 
L 440.729943 352.918981 
L 449.225761 352.953637 
L 457.72158 352.985238 
L 466.217398 352.980698 
L 474.713216 352.963152 
L 483.209034 352.970485 
L 491.704852 352.990039 
L 500.20067 353.008894 
L 508.696489 353.028099 
L 517.192307 353.03098 
L 525.688125 353.025393 
L 534.183943 353.042939 
L 542.679761 353.041979 
L 551.17558 353.027575 
L 559.671398 352.951193 
L 568.167216 353.036392 
L 576.663034 353.083356 
L 585.158852 353.083531 
L 593.65467 352.990475 
L 602.150489 353.058128 
L 610.646307 353.027575 
L 619.142125 353.064152 
L 627.637943 352.962192 
L 636.133761 352.972056 
L 644.62958 353.126742 
L 653.125398 353.121417 
L 661.621216 353.095316 
L 670.117034 353.112687 
L 678.612852 353.157295 
L 687.10867 353.181562 
L 695.604489 353.195268 
L 704.100307 353.189768 
L 712.596125 353.19937 
L 721.091943 353.194307 
L 729.587761 353.195704 
L 738.08358 353.184007 
L 746.579398 353.197886 
L 755.075216 353.200505 
L 763.571034 353.195442 
L 772.066852 353.178158 
L 780.56267 353.149438 
L 789.058489 353.189593 
L 797.554307 353.185927 
L 806.050125 353.178507 
L 814.545943 353.152843 
L 823.041761 353.165413 
L 831.53758 353.165064 
L 840.033398 353.169952 
L 848.529216 353.157993 
L 857.025034 353.170039 
L 865.520852 353.17423 
L 874.01667 353.154065 
L 882.512489 353.130146 
L 891.008307 352.964025 
L 899.504125 353.096189 
L 907.999943 353.045733 
L 916.495761 353.049137 
L 924.99158 353.03936 
L 933.487398 353.03002 
L 941.983216 351.658279 
L 950.479034 343.029074 
" clip-path="url(#p7e23581a4f)" style="fill: none; stroke: #434348; stroke-linecap: square"/>
   </g>
   <g id="line2d_18">
    <path d="M 100.897216 353.223661 
L 109.393034 353.223588 
L 117.888852 353.223583 
L 126.38467 353.223621 
L 134.880489 353.223699 
L 143.376307 353.223813 
L 151.872125 353.223748 
L 160.367943 353.223514 
L 168.863761 353.221972 
L 177.35958 353.216001 
L 185.855398 353.200911 
L 194.351216 353.154664 
L 202.847034 352.979178 
L 211.342852 353.004859 
L 219.83867 353.006999 
L 228.334489 353.028935 
L 236.830307 353.013741 
L 245.326125 353.054831 
L 253.821943 353.059539 
L 262.317761 353.032253 
L 270.81358 353.055045 
L 279.309398 353.084471 
L 287.805216 353.100415 
L 296.301034 353.09453 
L 304.796852 353.102448 
L 313.29267 353.121923 
L 321.788489 353.101057 
L 330.284307 353.094637 
L 338.780125 353.102555 
L 347.275943 353.127916 
L 355.771761 353.119355 
L 364.26758 353.132089 
L 372.763398 353.133801 
L 381.259216 353.130805 
L 389.755034 353.127381 
L 398.250852 353.141185 
L 406.74667 353.138081 
L 415.242489 353.149103 
L 423.738307 353.125883 
L 432.234125 353.135513 
L 440.729943 353.141827 
L 449.225761 353.134764 
L 457.72158 353.148782 
L 466.217398 353.143539 
L 474.713216 353.140007 
L 483.209034 353.143218 
L 491.704852 353.139151 
L 500.20067 353.148354 
L 508.696489 353.147605 
L 517.192307 353.145358 
L 525.688125 353.147498 
L 534.183943 353.144288 
L 542.679761 353.1399 
L 551.17558 353.146 
L 559.671398 353.107478 
L 568.167216 353.154239 
L 576.663034 353.143432 
L 585.158852 353.171039 
L 593.65467 353.09881 
L 602.150489 353.136048 
L 610.646307 353.11347 
L 619.142125 353.149531 
L 627.637943 353.086719 
L 636.133761 353.088752 
L 644.62958 353.172751 
L 653.125398 353.166117 
L 661.621216 353.157235 
L 670.117034 353.167187 
L 678.612852 353.187625 
L 687.10867 353.200038 
L 695.604489 353.206458 
L 704.100307 353.20068 
L 712.596125 353.205709 
L 721.091943 353.204853 
L 729.587761 353.200894 
L 738.08358 353.195864 
L 746.579398 353.207956 
L 755.075216 353.20389 
L 763.571034 353.20389 
L 772.066852 353.197256 
L 780.56267 353.167401 
L 789.058489 353.202713 
L 797.554307 353.190621 
L 806.050125 353.200038 
L 814.545943 353.197149 
L 823.041761 353.200145 
L 831.53758 353.195008 
L 840.033398 353.195222 
L 848.529216 353.195329 
L 857.025034 353.194259 
L 865.520852 353.196721 
L 874.01667 353.186876 
L 882.512489 353.191905 
L 891.008307 353.139793 
L 899.504125 353.174677 
L 907.999943 353.1735 
L 916.495761 353.184415 
L 924.99158 353.176924 
L 933.487398 353.186341 
L 941.983216 353.159697 
L 950.479034 352.846384 
" clip-path="url(#p7e23581a4f)" style="fill: none; stroke: #90ed7d; stroke-linecap: square"/>
   </g>
   <g id="line2d_19">
    <path d="M 100.897216 353.223653 
L 109.393034 353.223567 
L 117.888852 353.223585 
L 126.38467 353.223662 
L 134.880489 353.223653 
L 143.376307 353.223725 
L 151.872125 353.22357 
L 160.367943 353.222981 
L 168.863761 353.219646 
L 177.35958 353.206569 
L 185.855398 353.174379 
L 194.351216 353.079445 
L 202.847034 352.736275 
L 211.342852 352.745446 
L 219.83867 352.751885 
L 228.334489 352.826619 
L 236.830307 352.844473 
L 245.326125 352.866815 
L 253.821943 352.833351 
L 262.317761 352.799691 
L 270.81358 352.879401 
L 279.309398 352.94916 
L 287.805216 352.966038 
L 296.301034 352.966331 
L 304.796852 352.983112 
L 313.29267 353.017259 
L 321.788489 352.961453 
L 330.284307 352.970721 
L 338.780125 352.980575 
L 347.275943 353.027211 
L 355.771761 353.01482 
L 364.26758 353.031211 
L 372.763398 353.053846 
L 381.259216 353.027699 
L 389.755034 353.037553 
L 398.250852 353.051114 
L 406.74667 353.055992 
L 415.242489 353.094335 
L 423.738307 353.055212 
L 432.234125 353.06331 
L 440.729943 353.051797 
L 449.225761 353.06331 
L 457.72158 353.090823 
L 466.217398 353.093457 
L 474.713216 353.085749 
L 483.209034 353.075895 
L 491.704852 353.087896 
L 500.20067 353.105262 
L 508.696489 353.107896 
L 517.192307 353.110335 
L 525.688125 353.110433 
L 534.183943 353.119409 
L 542.679761 353.109457 
L 551.17558 353.115018 
L 559.671398 353.044772 
L 568.167216 353.118433 
L 576.663034 353.130726 
L 585.158852 353.144971 
L 593.65467 353.058822 
L 602.150489 353.10175 
L 610.646307 353.078237 
L 619.142125 353.124677 
L 627.637943 353.034723 
L 636.133761 353.029747 
L 644.62958 353.142141 
L 653.125398 353.129263 
L 661.621216 353.113165 
L 670.117034 353.124287 
L 678.612852 353.161849 
L 687.10867 353.185752 
L 695.604489 353.202533 
L 704.100307 353.192484 
L 712.596125 353.197558 
L 721.091943 353.195314 
L 729.587761 353.192972 
L 738.08358 353.186435 
L 746.579398 353.201948 
L 755.075216 353.198338 
L 763.571034 353.196582 
L 772.066852 353.187801 
L 780.56267 353.180777 
L 789.058489 353.194826 
L 797.554307 353.189557 
L 806.050125 353.177557 
L 814.545943 353.163898 
L 823.041761 353.178923 
L 831.53758 353.169654 
L 840.033398 353.173264 
L 848.529216 353.171508 
L 857.025034 353.176679 
L 865.520852 353.175898 
L 874.01667 353.159996 
L 882.512489 353.140775 
L 891.008307 352.94272 
L 899.504125 353.129848 
L 907.999943 353.038431 
L 916.495761 353.119799 
L 924.99158 353.099701 
L 933.487398 353.145849 
L 941.983216 353.013649 
L 950.479034 351.982885 
" clip-path="url(#p7e23581a4f)" style="fill: none; stroke: #f7a35c; stroke-linecap: square"/>
   </g>
   <g id="line2d_20">
    <path d="M 100.897216 353.223526 
L 109.393034 353.223366 
L 117.888852 353.223495 
L 126.38467 353.223588 
L 134.880489 353.223819 
L 143.376307 353.223767 
L 151.872125 353.223814 
L 160.367943 353.223778 
L 168.863761 353.222667 
L 177.35958 353.216751 
L 185.855398 353.209448 
L 194.351216 353.174879 
L 202.847034 353.203997 
L 211.342852 353.074996 
L 219.83867 353.192571 
L 228.334489 353.061358 
L 236.830307 353.191097 
L 245.326125 353.107799 
L 253.821943 353.025975 
L 262.317761 353.206208 
L 270.81358 353.211737 
L 279.309398 353.210631 
L 287.805216 353.146868 
L 296.301034 353.052512 
L 304.796852 353.201785 
L 313.29267 353.169351 
L 321.788489 353.177091 
L 330.284307 353.205103 
L 338.780125 353.175617 
L 347.275943 353.162716 
L 355.771761 353.157188 
L 364.26758 353.205471 
L 372.763398 353.163454 
L 381.259216 353.213948 
L 389.755034 353.161242 
L 398.250852 353.19552 
L 406.74667 353.19552 
L 415.242489 353.182988 
L 423.738307 353.193677 
L 432.234125 353.194783 
L 440.729943 353.199943 
L 449.225761 353.070204 
L 457.72158 353.028186 
L 466.217398 352.578156 
L 474.713216 353.038507 
L 483.209034 352.883705 
L 491.704852 348.14751 
L 500.20067 349.363441 
L 508.696489 350.798305 
L 517.192307 304.853162 
L 525.688125 273.170415 
" clip-path="url(#p7e23581a4f)" style="fill: none; stroke: #8085e9; stroke-linecap: square"/>
   </g>
   <g id="line2d_21">
    <path d="M 100.897216 353.223563 
L 109.393034 353.223458 
L 117.888852 353.223459 
L 126.38467 353.223527 
L 134.880489 353.22379 
L 143.376307 353.223734 
L 151.872125 353.223768 
L 160.367943 353.223725 
L 168.863761 353.222177 
L 177.35958 353.214573 
L 185.855398 353.201236 
L 194.351216 353.16115 
L 202.847034 353.187042 
L 211.342852 353.09195 
L 219.83867 353.087159 
L 228.334489 353.204734 
L 236.830307 353.114065 
L 245.326125 353.150185 
L 253.821943 353.097479 
L 262.317761 353.155714 
L 270.81358 353.161979 
L 279.309398 353.139496 
L 287.805216 353.148711 
L 296.301034 353.113327 
L 304.796852 353.155714 
L 313.29267 353.157556 
L 321.788489 353.171562 
L 330.284307 353.159031 
L 338.780125 353.177091 
L 347.275943 353.147605 
L 355.771761 353.168245 
L 364.26758 353.159768 
L 372.763398 353.170088 
L 381.259216 353.169351 
L 389.755034 353.178565 
L 398.250852 353.184831 
L 406.74667 353.173037 
L 415.242489 353.210631 
L 423.738307 353.211 
L 432.234125 353.205103 
L 440.729943 353.215054 
L 449.225761 353.205103 
L 457.72158 353.202523 
L 466.217398 353.199943 
L 474.713216 353.212474 
L 483.209034 353.208051 
L 491.704852 353.212474 
L 500.20067 353.194414 
L 508.696489 352.585896 
L 517.192307 353.20326 
L 525.688125 353.208788 
" clip-path="url(#p7e23581a4f)" style="fill: none; stroke: #f15c80; stroke-linecap: square"/>
   </g>
   <g id="line2d_22">
    <path d="M 58.418125 353.2239 
L 992.958125 353.2239 
" clip-path="url(#p7e23581a4f)" style="fill: none; stroke: #dedede; stroke-width: 2; stroke-linecap: square"/>
   </g>
   <g id="text_14">
    <!-- Cutadapt: Lengths of Trimmed Sequences (3' end) -->
    <g transform="translate(324.335625 19.3575) scale(0.16 -0.16)">
     <defs>
      <path id="DejaVuSans-43" d="M 4122 4306 
L 4122 3641 
Q 3803 3938 3442 4084 
Q 3081 4231 2675 4231 
Q 1875 4231 1450 3742 
Q 1025 3253 1025 2328 
Q 1025 1406 1450 917 
Q 1875 428 2675 428 
Q 3081 428 3442 575 
Q 3803 722 4122 1019 
L 4122 359 
Q 3791 134 3420 21 
Q 3050 -91 2638 -91 
Q 1578 -91 968 557 
Q 359 1206 359 2328 
Q 359 3453 968 4101 
Q 1578 4750 2638 4750 
Q 3056 4750 3426 4639 
Q 3797 4528 4122 4306 
z
" transform="scale(0.015625)"/>
      <path id="DejaVuSans-75" d="M 544 1381 
L 544 3500 
L 1119 3500 
L 1119 1403 
Q 1119 906 1312 657 
Q 1506 409 1894 409 
Q 2359 409 2629 706 
Q 2900 1003 2900 1516 
L 2900 3500 
L 3475 3500 
L 3475 0 
L 2900 0 
L 2900 538 
Q 2691 219 2414 64 
Q 2138 -91 1772 -91 
Q 1169 -91 856 284 
Q 544 659 544 1381 
z
M 1991 3584 
L 1991 3584 
z
" transform="scale(0.015625)"/>
      <path id="DejaVuSans-61" d="M 2194 1759 
Q 1497 1759 1228 1600 
Q 959 1441 959 1056 
Q 959 750 1161 570 
Q 1363 391 1709 391 
Q 2188 391 2477 730 
Q 2766 1069 2766 1631 
L 2766 1759 
L 2194 1759 
z
M 3341 1997 
L 3341 0 
L 2766 0 
L 2766 531 
Q 2569 213 2275 61 
Q 1981 -91 1556 -91 
Q 1019 -91 701 211 
Q 384 513 384 1019 
Q 384 1609 779 1909 
Q 1175 2209 1959 2209 
L 2766 2209 
L 2766 2266 
Q 2766 2663 2505 2880 
Q 2244 3097 1772 3097 
Q 1472 3097 1187 3025 
Q 903 2953 641 2809 
L 641 3341 
Q 956 3463 1253 3523 
Q 1550 3584 1831 3584 
Q 2591 3584 2966 3190 
Q 3341 2797 3341 1997 
z
" transform="scale(0.015625)"/>
      <path id="DejaVuSans-3a" d="M 750 794 
L 1409 794 
L 1409 0 
L 750 0 
L 750 794 
z
M 750 3309 
L 1409 3309 
L 1409 2516 
L 750 2516 
L 750 3309 
z
" transform="scale(0.015625)"/>
      <path id="DejaVuSans-6f" d="M 1959 3097 
Q 1497 3097 1228 2736 
Q 959 2375 959 1747 
Q 959 1119 1226 758 
Q 1494 397 1959 397 
Q 2419 397 2687 759 
Q 2956 1122 2956 1747 
Q 2956 2369 2687 2733 
Q 2419 3097 1959 3097 
z
M 1959 3584 
Q 2709 3584 3137 3096 
Q 3566 2609 3566 1747 
Q 3566 888 3137 398 
Q 2709 -91 1959 -91 
Q 1206 -91 779 398 
Q 353 888 353 1747 
Q 353 2609 779 3096 
Q 1206 3584 1959 3584 
z
" transform="scale(0.015625)"/>
      <path id="DejaVuSans-66" d="M 2375 4863 
L 2375 4384 
L 1825 4384 
Q 1516 4384 1395 4259 
Q 1275 4134 1275 3809 
L 1275 3500 
L 2222 3500 
L 2222 3053 
L 1275 3053 
L 1275 0 
L 697 0 
L 697 3053 
L 147 3053 
L 147 3500 
L 697 3500 
L 697 3744 
Q 697 4328 969 4595 
Q 1241 4863 1831 4863 
L 2375 4863 
z
" transform="scale(0.015625)"/>
      <path id="DejaVuSans-53" d="M 3425 4513 
L 3425 3897 
Q 3066 4069 2747 4153 
Q 2428 4238 2131 4238 
Q 1616 4238 1336 4038 
Q 1056 3838 1056 3469 
Q 1056 3159 1242 3001 
Q 1428 2844 1947 2747 
L 2328 2669 
Q 3034 2534 3370 2195 
Q 3706 1856 3706 1288 
Q 3706 609 3251 259 
Q 2797 -91 1919 -91 
Q 1588 -91 1214 -16 
Q 841 59 441 206 
L 441 856 
Q 825 641 1194 531 
Q 1563 422 1919 422 
Q 2459 422 2753 634 
Q 3047 847 3047 1241 
Q 3047 1584 2836 1778 
Q 2625 1972 2144 2069 
L 1759 2144 
Q 1053 2284 737 2584 
Q 422 2884 422 3419 
Q 422 4038 858 4394 
Q 1294 4750 2059 4750 
Q 2388 4750 2728 4690 
Q 3069 4631 3425 4513 
z
" transform="scale(0.015625)"/>
      <path id="DejaVuSans-71" d="M 947 1747 
Q 947 1113 1208 752 
Q 1469 391 1925 391 
Q 2381 391 2643 752 
Q 2906 1113 2906 1747 
Q 2906 2381 2643 2742 
Q 2381 3103 1925 3103 
Q 1469 3103 1208 2742 
Q 947 2381 947 1747 
z
M 2906 525 
Q 2725 213 2448 61 
Q 2172 -91 1784 -91 
Q 1150 -91 751 415 
Q 353 922 353 1747 
Q 353 2572 751 3078 
Q 1150 3584 1784 3584 
Q 2172 3584 2448 3432 
Q 2725 3281 2906 2969 
L 2906 3500 
L 3481 3500 
L 3481 -1331 
L 2906 -1331 
L 2906 525 
z
" transform="scale(0.015625)"/>
      <path id="DejaVuSans-33" d="M 2597 2516 
Q 3050 2419 3304 2112 
Q 3559 1806 3559 1356 
Q 3559 666 3084 287 
Q 2609 -91 1734 -91 
Q 1441 -91 1130 -33 
Q 819 25 488 141 
L 488 750 
Q 750 597 1062 519 
Q 1375 441 1716 441 
Q 2309 441 2620 675 
Q 2931 909 2931 1356 
Q 2931 1769 2642 2001 
Q 2353 2234 1838 2234 
L 1294 2234 
L 1294 2753 
L 1863 2753 
Q 2328 2753 2575 2939 
Q 2822 3125 2822 3475 
Q 2822 3834 2567 4026 
Q 2313 4219 1838 4219 
Q 1578 4219 1281 4162 
Q 984 4106 628 3988 
L 628 4550 
Q 988 4650 1302 4700 
Q 1616 4750 1894 4750 
Q 2613 4750 3031 4423 
Q 3450 4097 3450 3541 
Q 3450 3153 3228 2886 
Q 3006 2619 2597 2516 
z
" transform="scale(0.015625)"/>
      <path id="DejaVuSans-27" d="M 1147 4666 
L 1147 2931 
L 616 2931 
L 616 4666 
L 1147 4666 
z
" transform="scale(0.015625)"/>
     </defs>
     <use xlink:href="#DejaVuSans-43"/>
     <use xlink:href="#DejaVuSans-75" x="69.824219"/>
     <use xlink:href="#DejaVuSans-74" x="133.203125"/>
     <use xlink:href="#DejaVuSans-61" x="172.412109"/>
     <use xlink:href="#DejaVuSans-64" x="233.691406"/>
     <use xlink:href="#DejaVuSans-61" x="297.167969"/>
     <use xlink:href="#DejaVuSans-70" x="358.447266"/>
     <use xlink:href="#DejaVuSans-74" x="421.923828"/>
     <use xlink:href="#DejaVuSans-3a" x="461.132812"/>
     <use xlink:href="#DejaVuSans-20" x="494.824219"/>
     <use xlink:href="#DejaVuSans-4c" x="526.611328"/>
     <use xlink:href="#DejaVuSans-65" x="580.574219"/>
     <use xlink:href="#DejaVuSans-6e" x="642.097656"/>
     <use xlink:href="#DejaVuSans-67" x="705.476562"/>
     <use xlink:href="#DejaVuSans-74" x="768.953125"/>
     <use xlink:href="#DejaVuSans-68" x="808.162109"/>
     <use xlink:href="#DejaVuSans-73" x="871.541016"/>
     <use xlink:href="#DejaVuSans-20" x="923.640625"/>
     <use xlink:href="#DejaVuSans-6f" x="955.427734"/>
     <use xlink:href="#DejaVuSans-66" x="1016.609375"/>
     <use xlink:href="#DejaVuSans-20" x="1051.814453"/>
     <use xlink:href="#DejaVuSans-54" x="1083.601562"/>
     <use xlink:href="#DejaVuSans-72" x="1129.935547"/>
     <use xlink:href="#DejaVuSans-69" x="1171.048828"/>
     <use xlink:href="#DejaVuSans-6d" x="1198.832031"/>
     <use xlink:href="#DejaVuSans-6d" x="1296.244141"/>
     <use xlink:href="#DejaVuSans-65" x="1393.65625"/>
     <use xlink:href="#DejaVuSans-64" x="1455.179688"/>
     <use xlink:href="#DejaVuSans-20" x="1518.65625"/>
     <use xlink:href="#DejaVuSans-53" x="1550.443359"/>
     <use xlink:href="#DejaVuSans-65" x="1613.919922"/>
     <use xlink:href="#DejaVuSans-71" x="1675.443359"/>
     <use xlink:href="#DejaVuSans-75" x="1738.919922"/>
     <use xlink:href="#DejaVuSans-65" x="1802.298828"/>
     <use xlink:href="#DejaVuSans-6e" x="1863.822266"/>
     <use xlink:href="#DejaVuSans-63" x="1927.201172"/>
     <use xlink:href="#DejaVuSans-65" x="1982.181641"/>
     <use xlink:href="#DejaVuSans-73" x="2043.705078"/>
     <use xlink:href="#DejaVuSans-20" x="2095.804688"/>
     <use xlink:href="#DejaVuSans-28" x="2127.591797"/>
     <use xlink:href="#DejaVuSans-33" x="2166.605469"/>
     <use xlink:href="#DejaVuSans-27" x="2230.228516"/>
     <use xlink:href="#DejaVuSans-20" x="2257.71875"/>
     <use xlink:href="#DejaVuSans-65" x="2289.505859"/>
     <use xlink:href="#DejaVuSans-6e" x="2351.029297"/>
     <use xlink:href="#DejaVuSans-64" x="2414.408203"/>
     <use xlink:href="#DejaVuSans-29" x="2477.884766"/>
    </g>
   </g>
  </g>
 </g>
 <defs>
  <clipPath id="p7e23581a4f">
   <rect x="58.418125" y="35.2559" width="934.54" height="317.968"/>
  </clipPath>
 </defs>
</svg>
