<?xml version="1.0" encoding="utf-8" standalone="no"?>
<!DOCTYPE svg PUBLIC "-//W3C//DTD SVG 1.1//EN"
  "http://www.w3.org/Graphics/SVG/1.1/DTD/svg11.dtd">
<svg xmlns:xlink="http://www.w3.org/1999/xlink" width="1000.318125pt" height="388.844525pt" viewBox="0 0 1000.318125 388.844525" xmlns="http://www.w3.org/2000/svg" version="1.1">
 <metadata>
  <rdf:RDF xmlns:dc="http://purl.org/dc/elements/1.1/" xmlns:cc="http://creativecommons.org/ns#" xmlns:rdf="http://www.w3.org/1999/02/22-rdf-syntax-ns#">
   <cc:Work>
    <dc:type rdf:resource="http://purl.org/dc/dcmitype/StillImage"/>
    <dc:date>2025-04-01T05:20:44.913524</dc:date>
    <dc:format>image/svg+xml</dc:format>
    <dc:creator>
     <cc:Agent>
      <dc:title>Matplotlib v3.8.2, https://matplotlib.org/</dc:title>
     </cc:Agent>
    </dc:creator>
   </cc:Work>
  </rdf:RDF>
 </metadata>
 <defs>
  <style type="text/css">*{stroke-linejoin: round; stroke-linecap: butt}</style>
 </defs>
 <g id="figure_1">
  <g id="axes_1">
   <g id="patch_1">
    <path d="M 38.058125 353.2239 
L 993.118125 353.2239 
L 993.118125 35.2559 
L 38.058125 35.2559 
z
" style="fill: #ffffff"/>
   </g>
   <g id="patch_2">
    <path d="M 38.058125 128.41779 
L 958.476371 128.41779 
L 958.476371 -449.655065 
L 38.058125 -449.655065 
z
" clip-path="url(#p914e5462ab)" style="fill: #c3e6c3"/>
   </g>
   <g id="patch_3">
    <path d="M 38.058125 192.648107 
L 958.476371 192.648107 
L 958.476371 128.41779 
L 38.058125 128.41779 
z
" clip-path="url(#p914e5462ab)" style="fill: #e6dcc3"/>
   </g>
   <g id="patch_4">
    <path d="M 38.058125 353.2239 
L 958.476371 353.2239 
L 958.476371 192.648107 
L 38.058125 192.648107 
z
" clip-path="url(#p914e5462ab)" style="fill: #e6c3c3"/>
   </g>
   <g id="matplotlib.axis_1">
    <g id="xtick_1">
     <g id="text_1">
      <!-- 0 -->
      <g transform="translate(70.154879 366.30265) scale(0.08 -0.08)">
       <defs>
        <path id="DejaVuSans-30" d="M 2034 4250 
Q 1547 4250 1301 3770 
Q 1056 3291 1056 2328 
Q 1056 1369 1301 889 
Q 1547 409 2034 409 
Q 2525 409 2770 889 
Q 3016 1369 3016 2328 
Q 3016 3291 2770 3770 
Q 2525 4250 2034 4250 
z
M 2034 4750 
Q 2819 4750 3233 4129 
Q 3647 3509 3647 2328 
Q 3647 1150 3233 529 
Q 2819 -91 2034 -91 
Q 1250 -91 836 529 
Q 422 1150 422 2328 
Q 422 3509 836 4129 
Q 1250 4750 2034 4750 
z
" transform="scale(0.015625)"/>
       </defs>
       <use xlink:href="#DejaVuSans-30"/>
      </g>
     </g>
    </g>
    <g id="xtick_2">
     <g id="text_2">
      <!-- 20 -->
      <g transform="translate(243.011164 366.30265) scale(0.08 -0.08)">
       <defs>
        <path id="DejaVuSans-32" d="M 1228 531 
L 3431 531 
L 3431 0 
L 469 0 
L 469 531 
Q 828 903 1448 1529 
Q 2069 2156 2228 2338 
Q 2531 2678 2651 2914 
Q 2772 3150 2772 3378 
Q 2772 3750 2511 3984 
Q 2250 4219 1831 4219 
Q 1534 4219 1204 4116 
Q 875 4013 500 3803 
L 500 4441 
Q 881 4594 1212 4672 
Q 1544 4750 1819 4750 
Q 2544 4750 2975 4387 
Q 3406 4025 3406 3419 
Q 3406 3131 3298 2873 
Q 3191 2616 2906 2266 
Q 2828 2175 2409 1742 
Q 1991 1309 1228 531 
z
" transform="scale(0.015625)"/>
       </defs>
       <use xlink:href="#DejaVuSans-32"/>
       <use xlink:href="#DejaVuSans-30" x="63.623047"/>
      </g>
     </g>
    </g>
    <g id="xtick_3">
     <g id="text_3">
      <!-- 40 -->
      <g transform="translate(418.41245 366.30265) scale(0.08 -0.08)">
       <defs>
        <path id="DejaVuSans-34" d="M 2419 4116 
L 825 1625 
L 2419 1625 
L 2419 4116 
z
M 2253 4666 
L 3047 4666 
L 3047 1625 
L 3713 1625 
L 3713 1100 
L 3047 1100 
L 3047 0 
L 2419 0 
L 2419 1100 
L 313 1100 
L 313 1709 
L 2253 4666 
z
" transform="scale(0.015625)"/>
       </defs>
       <use xlink:href="#DejaVuSans-34"/>
       <use xlink:href="#DejaVuSans-30" x="63.623047"/>
      </g>
     </g>
    </g>
    <g id="xtick_4">
     <g id="text_4">
      <!-- 60 -->
      <g transform="translate(593.813736 366.30265) scale(0.08 -0.08)">
       <defs>
        <path id="DejaVuSans-36" d="M 2113 2584 
Q 1688 2584 1439 2293 
Q 1191 2003 1191 1497 
Q 1191 994 1439 701 
Q 1688 409 2113 409 
Q 2538 409 2786 701 
Q 3034 994 3034 1497 
Q 3034 2003 2786 2293 
Q 2538 2584 2113 2584 
z
M 3366 4563 
L 3366 3988 
Q 3128 4100 2886 4159 
Q 2644 4219 2406 4219 
Q 1781 4219 1451 3797 
Q 1122 3375 1075 2522 
Q 1259 2794 1537 2939 
Q 1816 3084 2150 3084 
Q 2853 3084 3261 2657 
Q 3669 2231 3669 1497 
Q 3669 778 3244 343 
Q 2819 -91 2113 -91 
Q 1303 -91 875 529 
Q 447 1150 447 2328 
Q 447 3434 972 4092 
Q 1497 4750 2381 4750 
Q 2619 4750 2861 4703 
Q 3103 4656 3366 4563 
z
" transform="scale(0.015625)"/>
       </defs>
       <use xlink:href="#DejaVuSans-36"/>
       <use xlink:href="#DejaVuSans-30" x="63.623047"/>
      </g>
     </g>
    </g>
    <g id="xtick_5">
     <g id="text_5">
      <!-- 80 -->
      <g transform="translate(769.215021 366.30265) scale(0.08 -0.08)">
       <defs>
        <path id="DejaVuSans-38" d="M 2034 2216 
Q 1584 2216 1326 1975 
Q 1069 1734 1069 1313 
Q 1069 891 1326 650 
Q 1584 409 2034 409 
Q 2484 409 2743 651 
Q 3003 894 3003 1313 
Q 3003 1734 2745 1975 
Q 2488 2216 2034 2216 
z
M 1403 2484 
Q 997 2584 770 2862 
Q 544 3141 544 3541 
Q 544 4100 942 4425 
Q 1341 4750 2034 4750 
Q 2731 4750 3128 4425 
Q 3525 4100 3525 3541 
Q 3525 3141 3298 2862 
Q 3072 2584 2669 2484 
Q 3125 2378 3379 2068 
Q 3634 1759 3634 1313 
Q 3634 634 3220 271 
Q 2806 -91 2034 -91 
Q 1263 -91 848 271 
Q 434 634 434 1313 
Q 434 1759 690 2068 
Q 947 2378 1403 2484 
z
M 1172 3481 
Q 1172 3119 1398 2916 
Q 1625 2713 2034 2713 
Q 2441 2713 2670 2916 
Q 2900 3119 2900 3481 
Q 2900 3844 2670 4047 
Q 2441 4250 2034 4250 
Q 1625 4250 1398 4047 
Q 1172 3844 1172 3481 
z
" transform="scale(0.015625)"/>
       </defs>
       <use xlink:href="#DejaVuSans-38"/>
       <use xlink:href="#DejaVuSans-30" x="63.623047"/>
      </g>
     </g>
    </g>
    <g id="xtick_6">
     <g id="text_6">
      <!-- 100 -->
      <g transform="translate(942.071307 366.30265) scale(0.08 -0.08)">
       <defs>
        <path id="DejaVuSans-31" d="M 794 531 
L 1825 531 
L 1825 4091 
L 703 3866 
L 703 4441 
L 1819 4666 
L 2450 4666 
L 2450 531 
L 3481 531 
L 3481 0 
L 794 0 
L 794 531 
z
" transform="scale(0.015625)"/>
       </defs>
       <use xlink:href="#DejaVuSans-31"/>
       <use xlink:href="#DejaVuSans-30" x="63.623047"/>
       <use xlink:href="#DejaVuSans-30" x="127.246094"/>
      </g>
     </g>
    </g>
    <g id="text_7">
     <!-- Position (bp) -->
     <g transform="translate(484.285 379.564837) scale(0.1 -0.1)">
      <defs>
       <path id="DejaVuSans-50" d="M 1259 4147 
L 1259 2394 
L 2053 2394 
Q 2494 2394 2734 2622 
Q 2975 2850 2975 3272 
Q 2975 3691 2734 3919 
Q 2494 4147 2053 4147 
L 1259 4147 
z
M 628 4666 
L 2053 4666 
Q 2838 4666 3239 4311 
Q 3641 3956 3641 3272 
Q 3641 2581 3239 2228 
Q 2838 1875 2053 1875 
L 1259 1875 
L 1259 0 
L 628 0 
L 628 4666 
z
" transform="scale(0.015625)"/>
       <path id="DejaVuSans-6f" d="M 1959 3097 
Q 1497 3097 1228 2736 
Q 959 2375 959 1747 
Q 959 1119 1226 758 
Q 1494 397 1959 397 
Q 2419 397 2687 759 
Q 2956 1122 2956 1747 
Q 2956 2369 2687 2733 
Q 2419 3097 1959 3097 
z
M 1959 3584 
Q 2709 3584 3137 3096 
Q 3566 2609 3566 1747 
Q 3566 888 3137 398 
Q 2709 -91 1959 -91 
Q 1206 -91 779 398 
Q 353 888 353 1747 
Q 353 2609 779 3096 
Q 1206 3584 1959 3584 
z
" transform="scale(0.015625)"/>
       <path id="DejaVuSans-73" d="M 2834 3397 
L 2834 2853 
Q 2591 2978 2328 3040 
Q 2066 3103 1784 3103 
Q 1356 3103 1142 2972 
Q 928 2841 928 2578 
Q 928 2378 1081 2264 
Q 1234 2150 1697 2047 
L 1894 2003 
Q 2506 1872 2764 1633 
Q 3022 1394 3022 966 
Q 3022 478 2636 193 
Q 2250 -91 1575 -91 
Q 1294 -91 989 -36 
Q 684 19 347 128 
L 347 722 
Q 666 556 975 473 
Q 1284 391 1588 391 
Q 1994 391 2212 530 
Q 2431 669 2431 922 
Q 2431 1156 2273 1281 
Q 2116 1406 1581 1522 
L 1381 1569 
Q 847 1681 609 1914 
Q 372 2147 372 2553 
Q 372 3047 722 3315 
Q 1072 3584 1716 3584 
Q 2034 3584 2315 3537 
Q 2597 3491 2834 3397 
z
" transform="scale(0.015625)"/>
       <path id="DejaVuSans-69" d="M 603 3500 
L 1178 3500 
L 1178 0 
L 603 0 
L 603 3500 
z
M 603 4863 
L 1178 4863 
L 1178 4134 
L 603 4134 
L 603 4863 
z
" transform="scale(0.015625)"/>
       <path id="DejaVuSans-74" d="M 1172 4494 
L 1172 3500 
L 2356 3500 
L 2356 3053 
L 1172 3053 
L 1172 1153 
Q 1172 725 1289 603 
Q 1406 481 1766 481 
L 2356 481 
L 2356 0 
L 1766 0 
Q 1100 0 847 248 
Q 594 497 594 1153 
L 594 3053 
L 172 3053 
L 172 3500 
L 594 3500 
L 594 4494 
L 1172 4494 
z
" transform="scale(0.015625)"/>
       <path id="DejaVuSans-6e" d="M 3513 2113 
L 3513 0 
L 2938 0 
L 2938 2094 
Q 2938 2591 2744 2837 
Q 2550 3084 2163 3084 
Q 1697 3084 1428 2787 
Q 1159 2491 1159 1978 
L 1159 0 
L 581 0 
L 581 3500 
L 1159 3500 
L 1159 2956 
Q 1366 3272 1645 3428 
Q 1925 3584 2291 3584 
Q 2894 3584 3203 3211 
Q 3513 2838 3513 2113 
z
" transform="scale(0.015625)"/>
       <path id="DejaVuSans-20" transform="scale(0.015625)"/>
       <path id="DejaVuSans-28" d="M 1984 4856 
Q 1566 4138 1362 3434 
Q 1159 2731 1159 2009 
Q 1159 1288 1364 580 
Q 1569 -128 1984 -844 
L 1484 -844 
Q 1016 -109 783 600 
Q 550 1309 550 2009 
Q 550 2706 781 3412 
Q 1013 4119 1484 4856 
L 1984 4856 
z
" transform="scale(0.015625)"/>
       <path id="DejaVuSans-62" d="M 3116 1747 
Q 3116 2381 2855 2742 
Q 2594 3103 2138 3103 
Q 1681 3103 1420 2742 
Q 1159 2381 1159 1747 
Q 1159 1113 1420 752 
Q 1681 391 2138 391 
Q 2594 391 2855 752 
Q 3116 1113 3116 1747 
z
M 1159 2969 
Q 1341 3281 1617 3432 
Q 1894 3584 2278 3584 
Q 2916 3584 3314 3078 
Q 3713 2572 3713 1747 
Q 3713 922 3314 415 
Q 2916 -91 2278 -91 
Q 1894 -91 1617 61 
Q 1341 213 1159 525 
L 1159 0 
L 581 0 
L 581 4863 
L 1159 4863 
L 1159 2969 
z
" transform="scale(0.015625)"/>
       <path id="DejaVuSans-70" d="M 1159 525 
L 1159 -1331 
L 581 -1331 
L 581 3500 
L 1159 3500 
L 1159 2969 
Q 1341 3281 1617 3432 
Q 1894 3584 2278 3584 
Q 2916 3584 3314 3078 
Q 3713 2572 3713 1747 
Q 3713 922 3314 415 
Q 2916 -91 2278 -91 
Q 1894 -91 1617 61 
Q 1341 213 1159 525 
z
M 3116 1747 
Q 3116 2381 2855 2742 
Q 2594 3103 2138 3103 
Q 1681 3103 1420 2742 
Q 1159 2381 1159 1747 
Q 1159 1113 1420 752 
Q 1681 391 2138 391 
Q 2594 391 2855 752 
Q 3116 1113 3116 1747 
z
" transform="scale(0.015625)"/>
       <path id="DejaVuSans-29" d="M 513 4856 
L 1013 4856 
Q 1481 4119 1714 3412 
Q 1947 2706 1947 2009 
Q 1947 1309 1714 600 
Q 1481 -109 1013 -844 
L 513 -844 
Q 928 -128 1133 580 
Q 1338 1288 1338 2009 
Q 1338 2731 1133 3434 
Q 928 4138 513 4856 
z
" transform="scale(0.015625)"/>
      </defs>
      <use xlink:href="#DejaVuSans-50"/>
      <use xlink:href="#DejaVuSans-6f" x="56.677734"/>
      <use xlink:href="#DejaVuSans-73" x="117.859375"/>
      <use xlink:href="#DejaVuSans-69" x="169.958984"/>
      <use xlink:href="#DejaVuSans-74" x="197.742188"/>
      <use xlink:href="#DejaVuSans-69" x="236.951172"/>
      <use xlink:href="#DejaVuSans-6f" x="264.734375"/>
      <use xlink:href="#DejaVuSans-6e" x="325.916016"/>
      <use xlink:href="#DejaVuSans-20" x="389.294922"/>
      <use xlink:href="#DejaVuSans-28" x="421.082031"/>
      <use xlink:href="#DejaVuSans-62" x="460.095703"/>
      <use xlink:href="#DejaVuSans-70" x="523.572266"/>
      <use xlink:href="#DejaVuSans-29" x="587.048828"/>
     </g>
    </g>
   </g>
   <g id="matplotlib.axis_2">
    <g id="ytick_1">
     <g id="line2d_1">
      <path d="M 38.058125 353.2239 
L 993.118125 353.2239 
" clip-path="url(#p914e5462ab)" style="fill: none; stroke: #dedede; stroke-linecap: square"/>
     </g>
     <g id="text_8">
      <!-- 0 -->
      <g transform="translate(25.968125 356.263275) scale(0.08 -0.08)">
       <use xlink:href="#DejaVuSans-30"/>
      </g>
     </g>
    </g>
    <g id="ytick_2">
     <g id="line2d_2">
      <path d="M 38.058125 313.079952 
L 993.118125 313.079952 
" clip-path="url(#p914e5462ab)" style="fill: none; stroke: #dedede; stroke-linecap: square"/>
     </g>
     <g id="text_9">
      <!-- 5 -->
      <g transform="translate(25.968125 316.119327) scale(0.08 -0.08)">
       <defs>
        <path id="DejaVuSans-35" d="M 691 4666 
L 3169 4666 
L 3169 4134 
L 1269 4134 
L 1269 2991 
Q 1406 3038 1543 3061 
Q 1681 3084 1819 3084 
Q 2600 3084 3056 2656 
Q 3513 2228 3513 1497 
Q 3513 744 3044 326 
Q 2575 -91 1722 -91 
Q 1428 -91 1123 -41 
Q 819 9 494 109 
L 494 744 
Q 775 591 1075 516 
Q 1375 441 1709 441 
Q 2250 441 2565 725 
Q 2881 1009 2881 1497 
Q 2881 1984 2565 2268 
Q 2250 2553 1709 2553 
Q 1456 2553 1204 2497 
Q 953 2441 691 2322 
L 691 4666 
z
" transform="scale(0.015625)"/>
       </defs>
       <use xlink:href="#DejaVuSans-35"/>
      </g>
     </g>
    </g>
    <g id="ytick_3">
     <g id="line2d_3">
      <path d="M 38.058125 272.936003 
L 993.118125 272.936003 
" clip-path="url(#p914e5462ab)" style="fill: none; stroke: #dedede; stroke-linecap: square"/>
     </g>
     <g id="text_10">
      <!-- 10 -->
      <g transform="translate(20.878125 275.975378) scale(0.08 -0.08)">
       <use xlink:href="#DejaVuSans-31"/>
       <use xlink:href="#DejaVuSans-30" x="63.623047"/>
      </g>
     </g>
    </g>
    <g id="ytick_4">
     <g id="line2d_4">
      <path d="M 38.058125 232.792055 
L 993.118125 232.792055 
" clip-path="url(#p914e5462ab)" style="fill: none; stroke: #dedede; stroke-linecap: square"/>
     </g>
     <g id="text_11">
      <!-- 15 -->
      <g transform="translate(20.878125 235.83143) scale(0.08 -0.08)">
       <use xlink:href="#DejaVuSans-31"/>
       <use xlink:href="#DejaVuSans-35" x="63.623047"/>
      </g>
     </g>
    </g>
    <g id="ytick_5">
     <g id="line2d_5">
      <path d="M 38.058125 192.648107 
L 993.118125 192.648107 
" clip-path="url(#p914e5462ab)" style="fill: none; stroke: #dedede; stroke-linecap: square"/>
     </g>
     <g id="text_12">
      <!-- 20 -->
      <g transform="translate(20.878125 195.687482) scale(0.08 -0.08)">
       <use xlink:href="#DejaVuSans-32"/>
       <use xlink:href="#DejaVuSans-30" x="63.623047"/>
      </g>
     </g>
    </g>
    <g id="ytick_6">
     <g id="line2d_6">
      <path d="M 38.058125 152.504159 
L 993.118125 152.504159 
" clip-path="url(#p914e5462ab)" style="fill: none; stroke: #dedede; stroke-linecap: square"/>
     </g>
     <g id="text_13">
      <!-- 25 -->
      <g transform="translate(20.878125 155.543534) scale(0.08 -0.08)">
       <use xlink:href="#DejaVuSans-32"/>
       <use xlink:href="#DejaVuSans-35" x="63.623047"/>
      </g>
     </g>
    </g>
    <g id="ytick_7">
     <g id="line2d_7">
      <path d="M 38.058125 112.36021 
L 993.118125 112.36021 
" clip-path="url(#p914e5462ab)" style="fill: none; stroke: #dedede; stroke-linecap: square"/>
     </g>
     <g id="text_14">
      <!-- 30 -->
      <g transform="translate(20.878125 115.399585) scale(0.08 -0.08)">
       <defs>
        <path id="DejaVuSans-33" d="M 2597 2516 
Q 3050 2419 3304 2112 
Q 3559 1806 3559 1356 
Q 3559 666 3084 287 
Q 2609 -91 1734 -91 
Q 1441 -91 1130 -33 
Q 819 25 488 141 
L 488 750 
Q 750 597 1062 519 
Q 1375 441 1716 441 
Q 2309 441 2620 675 
Q 2931 909 2931 1356 
Q 2931 1769 2642 2001 
Q 2353 2234 1838 2234 
L 1294 2234 
L 1294 2753 
L 1863 2753 
Q 2328 2753 2575 2939 
Q 2822 3125 2822 3475 
Q 2822 3834 2567 4026 
Q 2313 4219 1838 4219 
Q 1578 4219 1281 4162 
Q 984 4106 628 3988 
L 628 4550 
Q 988 4650 1302 4700 
Q 1616 4750 1894 4750 
Q 2613 4750 3031 4423 
Q 3450 4097 3450 3541 
Q 3450 3153 3228 2886 
Q 3006 2619 2597 2516 
z
" transform="scale(0.015625)"/>
       </defs>
       <use xlink:href="#DejaVuSans-33"/>
       <use xlink:href="#DejaVuSans-30" x="63.623047"/>
      </g>
     </g>
    </g>
    <g id="ytick_8">
     <g id="line2d_8">
      <path d="M 38.058125 72.216262 
L 993.118125 72.216262 
" clip-path="url(#p914e5462ab)" style="fill: none; stroke: #dedede; stroke-linecap: square"/>
     </g>
     <g id="text_15">
      <!-- 35 -->
      <g transform="translate(20.878125 75.255637) scale(0.08 -0.08)">
       <use xlink:href="#DejaVuSans-33"/>
       <use xlink:href="#DejaVuSans-35" x="63.623047"/>
      </g>
     </g>
    </g>
    <g id="text_16">
     <!-- Phred Score -->
     <g transform="translate(14.798438 224.20865) rotate(-90) scale(0.1 -0.1)">
      <defs>
       <path id="DejaVuSans-68" d="M 3513 2113 
L 3513 0 
L 2938 0 
L 2938 2094 
Q 2938 2591 2744 2837 
Q 2550 3084 2163 3084 
Q 1697 3084 1428 2787 
Q 1159 2491 1159 1978 
L 1159 0 
L 581 0 
L 581 4863 
L 1159 4863 
L 1159 2956 
Q 1366 3272 1645 3428 
Q 1925 3584 2291 3584 
Q 2894 3584 3203 3211 
Q 3513 2838 3513 2113 
z
" transform="scale(0.015625)"/>
       <path id="DejaVuSans-72" d="M 2631 2963 
Q 2534 3019 2420 3045 
Q 2306 3072 2169 3072 
Q 1681 3072 1420 2755 
Q 1159 2438 1159 1844 
L 1159 0 
L 581 0 
L 581 3500 
L 1159 3500 
L 1159 2956 
Q 1341 3275 1631 3429 
Q 1922 3584 2338 3584 
Q 2397 3584 2469 3576 
Q 2541 3569 2628 3553 
L 2631 2963 
z
" transform="scale(0.015625)"/>
       <path id="DejaVuSans-65" d="M 3597 1894 
L 3597 1613 
L 953 1613 
Q 991 1019 1311 708 
Q 1631 397 2203 397 
Q 2534 397 2845 478 
Q 3156 559 3463 722 
L 3463 178 
Q 3153 47 2828 -22 
Q 2503 -91 2169 -91 
Q 1331 -91 842 396 
Q 353 884 353 1716 
Q 353 2575 817 3079 
Q 1281 3584 2069 3584 
Q 2775 3584 3186 3129 
Q 3597 2675 3597 1894 
z
M 3022 2063 
Q 3016 2534 2758 2815 
Q 2500 3097 2075 3097 
Q 1594 3097 1305 2825 
Q 1016 2553 972 2059 
L 3022 2063 
z
" transform="scale(0.015625)"/>
       <path id="DejaVuSans-64" d="M 2906 2969 
L 2906 4863 
L 3481 4863 
L 3481 0 
L 2906 0 
L 2906 525 
Q 2725 213 2448 61 
Q 2172 -91 1784 -91 
Q 1150 -91 751 415 
Q 353 922 353 1747 
Q 353 2572 751 3078 
Q 1150 3584 1784 3584 
Q 2172 3584 2448 3432 
Q 2725 3281 2906 2969 
z
M 947 1747 
Q 947 1113 1208 752 
Q 1469 391 1925 391 
Q 2381 391 2643 752 
Q 2906 1113 2906 1747 
Q 2906 2381 2643 2742 
Q 2381 3103 1925 3103 
Q 1469 3103 1208 2742 
Q 947 2381 947 1747 
z
" transform="scale(0.015625)"/>
       <path id="DejaVuSans-53" d="M 3425 4513 
L 3425 3897 
Q 3066 4069 2747 4153 
Q 2428 4238 2131 4238 
Q 1616 4238 1336 4038 
Q 1056 3838 1056 3469 
Q 1056 3159 1242 3001 
Q 1428 2844 1947 2747 
L 2328 2669 
Q 3034 2534 3370 2195 
Q 3706 1856 3706 1288 
Q 3706 609 3251 259 
Q 2797 -91 1919 -91 
Q 1588 -91 1214 -16 
Q 841 59 441 206 
L 441 856 
Q 825 641 1194 531 
Q 1563 422 1919 422 
Q 2459 422 2753 634 
Q 3047 847 3047 1241 
Q 3047 1584 2836 1778 
Q 2625 1972 2144 2069 
L 1759 2144 
Q 1053 2284 737 2584 
Q 422 2884 422 3419 
Q 422 4038 858 4394 
Q 1294 4750 2059 4750 
Q 2388 4750 2728 4690 
Q 3069 4631 3425 4513 
z
" transform="scale(0.015625)"/>
       <path id="DejaVuSans-63" d="M 3122 3366 
L 3122 2828 
Q 2878 2963 2633 3030 
Q 2388 3097 2138 3097 
Q 1578 3097 1268 2742 
Q 959 2388 959 1747 
Q 959 1106 1268 751 
Q 1578 397 2138 397 
Q 2388 397 2633 464 
Q 2878 531 3122 666 
L 3122 134 
Q 2881 22 2623 -34 
Q 2366 -91 2075 -91 
Q 1284 -91 818 406 
Q 353 903 353 1747 
Q 353 2603 823 3093 
Q 1294 3584 2113 3584 
Q 2378 3584 2631 3529 
Q 2884 3475 3122 3366 
z
" transform="scale(0.015625)"/>
      </defs>
      <use xlink:href="#DejaVuSans-50"/>
      <use xlink:href="#DejaVuSans-68" x="60.302734"/>
      <use xlink:href="#DejaVuSans-72" x="123.681641"/>
      <use xlink:href="#DejaVuSans-65" x="162.544922"/>
      <use xlink:href="#DejaVuSans-64" x="224.068359"/>
      <use xlink:href="#DejaVuSans-20" x="287.544922"/>
      <use xlink:href="#DejaVuSans-53" x="319.332031"/>
      <use xlink:href="#DejaVuSans-63" x="382.808594"/>
      <use xlink:href="#DejaVuSans-6f" x="437.789062"/>
      <use xlink:href="#DejaVuSans-72" x="498.970703"/>
      <use xlink:href="#DejaVuSans-65" x="537.833984"/>
     </g>
    </g>
   </g>
   <g id="line2d_9">
    <path d="M 81.469943 63.632888 
L 90.240007 63.93829 
L 99.010072 61.309895 
L 107.780136 60.736726 
L 116.5502 60.636533 
L 125.320265 60.533438 
L 134.090329 61.588892 
L 142.860393 60.636796 
L 151.630457 60.611375 
L 160.400522 60.767222 
L 169.170586 60.170622 
L 177.94065 60.635052 
L 186.710715 60.916846 
L 195.480779 60.845082 
L 204.250843 60.73509 
L 213.020907 60.6112 
L 221.790972 60.634326 
L 230.561036 60.767567 
L 239.3311 60.784341 
L 248.101164 61.028346 
L 256.871229 60.900876 
L 265.641293 61.286798 
L 274.411357 61.331505 
L 283.181422 61.411893 
L 291.951486 61.472841 
L 300.72155 61.72992 
L 309.491614 61.699812 
L 318.261679 61.792788 
L 327.031743 61.677486 
L 335.801807 61.842568 
L 344.571872 61.982136 
L 353.341936 62.115597 
L 362.112 62.129815 
L 370.882064 62.32131 
L 379.652129 62.121834 
L 388.422193 62.118217 
L 397.192257 62.370268 
L 405.962322 62.362791 
L 414.732386 62.295275 
L 423.50245 62.427422 
L 432.272514 62.411029 
L 441.042579 62.669126 
L 449.812643 62.996242 
L 458.582707 62.637772 
L 467.352771 63.191455 
L 476.122836 62.684739 
L 484.8929 62.66211 
L 493.662964 62.805048 
L 502.433029 62.637935 
L 511.203093 61.740196 
L 519.973157 59.957359 
" clip-path="url(#p914e5462ab)" style="fill: none; stroke: #5cb85c; stroke-linecap: square"/>
   </g>
   <g id="line2d_10">
    <path d="M 81.469943 62.737368 
L 90.240007 61.979445 
L 99.010072 62.016617 
L 107.780136 61.610625 
L 116.5502 61.693547 
L 125.320265 62.169696 
L 134.090329 62.679386 
L 142.860393 61.812168 
L 151.630457 61.9554 
L 160.400522 62.120391 
L 169.170586 61.883269 
L 177.94065 62.110557 
L 186.710715 62.563313 
L 195.480779 62.321194 
L 204.250843 62.502706 
L 213.020907 62.737657 
L 221.790972 62.798213 
L 230.561036 62.798351 
L 239.3311 63.030673 
L 248.101164 62.892373 
L 256.871229 62.939282 
L 265.641293 62.898998 
L 274.411357 62.91103 
L 283.181422 63.210579 
L 291.951486 63.455129 
L 300.72155 63.669991 
L 309.491614 63.709841 
L 318.261679 63.736036 
L 327.031743 63.965838 
L 335.801807 63.74609 
L 344.571872 63.896153 
L 353.341936 63.612296 
L 362.112 64.107106 
L 370.882064 64.257981 
L 379.652129 64.372805 
L 388.422193 64.208476 
L 397.192257 64.551694 
L 405.962322 64.436367 
L 414.732386 65.038462 
L 423.50245 64.667447 
L 432.272514 64.574095 
L 441.042579 64.54197 
L 449.812643 64.567506 
L 458.582707 64.62144 
L 467.352771 64.920444 
L 476.122836 64.786895 
L 484.8929 65.053786 
L 493.662964 64.835337 
L 502.433029 64.470657 
L 511.203093 63.310823 
L 519.973157 61.13065 
" clip-path="url(#p914e5462ab)" style="fill: none; stroke: #5cb85c; stroke-linecap: square"/>
   </g>
   <g id="line2d_11">
    <path d="M 81.469943 62.209788 
L 90.240007 62.795236 
L 99.010072 60.750734 
L 107.780136 60.318519 
L 116.5502 60.280481 
L 125.320265 60.190969 
L 134.090329 61.11107 
L 142.860393 60.228983 
L 151.630457 60.205192 
L 160.400522 60.354998 
L 169.170586 59.837122 
L 177.94065 60.299911 
L 186.710715 60.542373 
L 195.480779 60.481963 
L 204.250843 60.402622 
L 213.020907 60.267883 
L 221.790972 60.303466 
L 230.561036 60.427071 
L 239.3311 60.40859 
L 248.101164 60.649577 
L 256.871229 60.484681 
L 265.641293 60.833824 
L 274.411357 60.847734 
L 283.181422 60.928393 
L 291.951486 61.020199 
L 300.72155 61.221519 
L 309.491614 61.158354 
L 318.261679 61.271289 
L 327.031743 61.148404 
L 335.801807 61.307577 
L 344.571872 61.392136 
L 353.341936 61.498802 
L 362.112 61.527416 
L 370.882064 61.701253 
L 379.652129 61.511498 
L 388.422193 61.497429 
L 397.192257 61.705142 
L 405.962322 61.686092 
L 414.732386 61.650085 
L 423.50245 61.757354 
L 432.272514 61.753757 
L 441.042579 61.853315 
L 449.812643 62.041207 
L 458.582707 61.852038 
L 467.352771 62.389454 
L 476.122836 61.966653 
L 484.8929 61.914421 
L 493.662964 62.073457 
L 502.433029 61.876002 
L 511.203093 61.217117 
L 519.973157 59.602842 
" clip-path="url(#p914e5462ab)" style="fill: none; stroke: #5cb85c; stroke-linecap: square"/>
   </g>
   <g id="line2d_12">
    <path d="M 81.469943 63.009226 
L 90.240007 63.187065 
L 99.010072 63.192809 
L 107.780136 62.751592 
L 116.5502 62.74529 
L 125.320265 63.185382 
L 134.090329 63.534612 
L 142.860393 62.770532 
L 151.630457 62.912665 
L 160.400522 63.042961 
L 169.170586 62.847745 
L 177.94065 63.115987 
L 186.710715 63.559875 
L 195.480779 63.334409 
L 204.250843 63.520123 
L 213.020907 63.749051 
L 221.790972 63.718396 
L 230.561036 63.725971 
L 239.3311 63.878959 
L 248.101164 63.766311 
L 256.871229 63.829181 
L 265.641293 63.786289 
L 274.411357 63.849041 
L 283.181422 64.145163 
L 291.951486 64.357874 
L 300.72155 64.535743 
L 309.491614 64.518446 
L 318.261679 64.525014 
L 327.031743 64.710973 
L 335.801807 64.45825 
L 344.571872 64.6018 
L 353.341936 64.367332 
L 362.112 64.8235 
L 370.882064 64.955364 
L 379.652129 65.019498 
L 388.422193 64.906436 
L 397.192257 65.214673 
L 405.962322 65.068759 
L 414.732386 65.561759 
L 423.50245 65.193548 
L 432.272514 65.023111 
L 441.042579 65.061982 
L 449.812643 65.082758 
L 458.582707 65.097082 
L 467.352771 65.325314 
L 476.122836 65.204325 
L 484.8929 65.412233 
L 493.662964 65.140174 
L 502.433029 64.772653 
L 511.203093 63.564706 
L 519.973157 61.138432 
" clip-path="url(#p914e5462ab)" style="fill: none; stroke: #5cb85c; stroke-linecap: square"/>
   </g>
   <g id="line2d_13">
    <path d="M 81.469943 40.008151 
L 90.240007 44.866091 
L 99.010072 42.541935 
L 107.780136 41.454557 
L 116.5502 40.966063 
L 125.320265 39.512458 
L 134.090329 39.808928 
L 142.860393 38.322808 
L 151.630457 38.737374 
L 160.400522 38.614863 
L 177.94065 38.163685 
L 195.480779 37.962127 
L 213.020907 37.174645 
L 230.561036 37.048674 
L 248.101164 36.934008 
L 265.641293 36.892025 
L 283.181422 36.936173 
L 300.72155 37.209409 
L 318.261679 37.108136 
L 335.801807 37.255735 
L 353.341936 37.290044 
L 370.882064 37.381293 
L 388.422193 37.330206 
L 405.962322 37.408487 
L 423.50245 37.482727 
L 441.042579 37.521679 
L 458.582707 37.496746 
L 476.122836 37.558431 
L 493.662964 37.643108 
L 511.203093 37.766547 
L 528.743221 38.686071 
L 546.28335 37.823248 
L 563.823479 37.894451 
L 581.363607 37.872976 
L 598.903736 37.975225 
L 616.443864 38.00795 
L 633.983993 38.124905 
L 651.524121 38.185475 
L 669.06425 38.242304 
L 686.604378 38.308781 
L 704.144507 38.406007 
L 721.684636 38.434715 
L 739.224764 38.563859 
L 756.764893 38.568556 
L 774.305021 38.640532 
L 791.84515 38.866629 
L 809.385278 38.795604 
L 826.925407 38.887296 
L 844.465535 38.825026 
L 862.005664 38.983238 
L 879.545793 38.90076 
L 897.085921 38.907153 
L 914.62605 39.000182 
L 932.166178 38.847043 
L 949.706307 38.269693 
" clip-path="url(#p914e5462ab)" style="fill: none; stroke: #5cb85c; stroke-linecap: square"/>
   </g>
   <g id="line2d_14">
    <path d="M 81.469943 43.445212 
L 90.240007 45.411152 
L 99.010072 43.228868 
L 107.780136 42.114805 
L 116.5502 40.257335 
L 125.320265 40.385814 
L 134.090329 40.718338 
L 142.860393 40.172735 
L 151.630457 39.820364 
L 160.400522 38.911576 
L 177.94065 39.014814 
L 195.480779 39.11209 
L 213.020907 37.987788 
L 230.561036 37.857073 
L 248.101164 37.805884 
L 265.641293 37.63851 
L 283.181422 37.783851 
L 300.72155 38.046946 
L 318.261679 37.987763 
L 335.801807 38.159703 
L 353.341936 38.285285 
L 370.882064 38.466498 
L 388.422193 38.421246 
L 405.962322 38.481424 
L 423.50245 38.60513 
L 441.042579 38.72805 
L 458.582707 38.756679 
L 476.122836 38.879849 
L 493.662964 39.038319 
L 511.203093 39.141891 
L 528.743221 40.034647 
L 546.28335 39.23374 
L 563.823479 39.343141 
L 581.363607 39.344582 
L 598.903736 39.534243 
L 616.443864 39.55464 
L 633.983993 39.730164 
L 651.524121 39.908854 
L 669.06425 39.884379 
L 686.604378 40.050265 
L 704.144507 40.086091 
L 721.684636 40.198989 
L 739.224764 40.41864 
L 756.764893 40.37679 
L 774.305021 40.512222 
L 791.84515 40.709346 
L 809.385278 40.80611 
L 826.925407 40.845349 
L 844.465535 40.791877 
L 862.005664 40.934945 
L 879.545793 40.877852 
L 897.085921 40.904986 
L 914.62605 41.093879 
L 932.166178 40.918184 
L 949.706307 40.14469 
" clip-path="url(#p914e5462ab)" style="fill: none; stroke: #5cb85c; stroke-linecap: square"/>
   </g>
   <g id="line2d_15">
    <path d="M 81.469943 41.216457 
L 90.240007 44.65152 
L 99.010072 42.41262 
L 107.780136 40.513992 
L 116.5502 39.603005 
L 125.320265 38.914706 
L 134.090329 38.212732 
L 142.860393 38.549756 
L 151.630457 37.720777 
L 160.400522 38.395572 
L 177.94065 37.881202 
L 195.480779 37.629379 
L 213.020907 36.936612 
L 230.561036 36.863208 
L 248.101164 36.732836 
L 265.641293 36.699036 
L 283.181422 36.75182 
L 300.72155 36.981823 
L 318.261679 36.947172 
L 335.801807 37.04857 
L 353.341936 36.986895 
L 370.882064 37.096142 
L 388.422193 37.06893 
L 405.962322 37.109146 
L 423.50245 37.175604 
L 441.042579 37.183784 
L 458.582707 37.160624 
L 476.122836 37.21699 
L 493.662964 37.28886 
L 511.203093 37.408413 
L 528.743221 38.32528 
L 546.28335 37.454493 
L 563.823479 37.506122 
L 581.363607 37.467543 
L 598.903736 37.555853 
L 616.443864 37.59027 
L 633.983993 37.674888 
L 651.524121 37.712137 
L 669.06425 37.798594 
L 686.604378 37.841079 
L 704.144507 37.922197 
L 721.684636 37.931273 
L 739.224764 38.051913 
L 756.764893 38.064962 
L 774.305021 38.122969 
L 791.84515 38.348721 
L 809.385278 38.258149 
L 826.925407 38.355541 
L 844.465535 38.292716 
L 862.005664 38.422248 
L 879.545793 38.330572 
L 897.085921 38.325944 
L 914.62605 38.400907 
L 932.166178 38.278752 
L 949.706307 37.733665 
" clip-path="url(#p914e5462ab)" style="fill: none; stroke: #5cb85c; stroke-linecap: square"/>
   </g>
   <g id="line2d_16">
    <path d="M 81.469943 40.758596 
L 90.240007 44.211296 
L 99.010072 41.426922 
L 107.780136 39.77151 
L 116.5502 40.209933 
L 125.320265 40.135046 
L 134.090329 39.048469 
L 142.860393 38.977607 
L 151.630457 38.633998 
L 160.400522 38.359446 
L 177.94065 38.110795 
L 195.480779 37.990526 
L 213.020907 37.186886 
L 230.561036 37.072293 
L 248.101164 36.96903 
L 265.641293 36.840463 
L 283.181422 36.863342 
L 300.72155 37.100955 
L 318.261679 37.040651 
L 335.801807 37.178167 
L 353.341936 37.167093 
L 370.882064 37.274212 
L 388.422193 37.231202 
L 405.962322 37.296326 
L 423.50245 37.365931 
L 441.042579 37.399966 
L 458.582707 37.378273 
L 476.122836 37.440871 
L 493.662964 37.523902 
L 511.203093 37.651433 
L 528.743221 38.559298 
L 546.28335 37.708858 
L 563.823479 37.762785 
L 581.363607 37.740913 
L 598.903736 37.83229 
L 616.443864 37.860874 
L 633.983993 37.956995 
L 651.524121 38.006088 
L 669.06425 38.08541 
L 686.604378 38.136479 
L 704.144507 38.227742 
L 721.684636 38.256668 
L 739.224764 38.37597 
L 756.764893 38.375503 
L 774.305021 38.431451 
L 791.84515 38.622821 
L 809.385278 38.566859 
L 826.925407 38.645284 
L 844.465535 38.579786 
L 862.005664 38.718312 
L 879.545793 38.659345 
L 897.085921 38.67291 
L 914.62605 38.770616 
L 932.166178 38.627243 
L 949.706307 38.058312 
" clip-path="url(#p914e5462ab)" style="fill: none; stroke: #5cb85c; stroke-linecap: square"/>
   </g>
   <g id="line2d_17">
    <path d="M 81.469943 61.726709 
L 90.240007 62.482138 
L 99.010072 60.655764 
L 107.780136 60.286188 
L 116.5502 60.255042 
L 125.320265 60.210162 
L 134.090329 61.074913 
L 142.860393 60.212074 
L 151.630457 60.256378 
L 160.400522 60.246092 
L 169.170586 59.836409 
L 177.94065 60.277908 
L 186.710715 60.462059 
L 195.480779 60.474622 
L 204.250843 60.342863 
L 213.020907 60.210837 
L 221.790972 60.29834 
L 230.561036 60.350145 
L 239.3311 60.364575 
L 248.101164 60.566925 
L 256.871229 60.444899 
L 265.641293 60.817844 
L 274.411357 60.751801 
L 283.181422 60.849732 
L 291.951486 60.924709 
L 300.72155 61.12821 
L 309.491614 61.176464 
L 318.261679 61.110762 
L 327.031743 61.081284 
L 335.801807 61.217566 
L 344.571872 61.366597 
L 353.341936 61.438813 
L 362.112 61.428919 
L 370.882064 61.683921 
L 379.652129 61.471325 
L 388.422193 61.485509 
L 397.192257 61.697544 
L 405.962322 61.637158 
L 414.732386 61.578483 
L 423.50245 61.730201 
L 432.272514 61.702106 
L 441.042579 61.941926 
L 449.812643 62.181523 
L 458.582707 61.81541 
L 467.352771 62.376555 
L 476.122836 61.869087 
L 484.8929 61.88768 
L 493.662964 62.061798 
L 502.433029 62.209268 
L 511.203093 61.755438 
L 519.973157 59.497698 
" clip-path="url(#p914e5462ab)" style="fill: none; stroke: #5cb85c; stroke-linecap: square"/>
   </g>
   <g id="line2d_18">
    <path d="M 81.469943 61.596472 
L 90.240007 61.833255 
L 99.010072 61.676535 
L 107.780136 61.49158 
L 116.5502 61.561147 
L 125.320265 61.992892 
L 134.090329 62.100895 
L 142.860393 61.610869 
L 151.630457 61.774995 
L 160.400522 61.861797 
L 169.170586 61.688349 
L 177.94065 61.989784 
L 186.710715 62.254944 
L 195.480779 62.119535 
L 204.250843 62.26743 
L 213.020907 62.358832 
L 221.790972 62.514172 
L 230.561036 62.550493 
L 239.3311 62.602637 
L 248.101164 62.57397 
L 256.871229 62.479787 
L 265.641293 62.530846 
L 274.411357 62.523069 
L 283.181422 62.908686 
L 291.951486 63.078406 
L 300.72155 63.132638 
L 309.491614 63.056129 
L 318.261679 63.26181 
L 327.031743 63.436686 
L 335.801807 63.166171 
L 344.571872 63.346968 
L 353.341936 63.199626 
L 362.112 63.53469 
L 370.882064 63.722491 
L 379.652129 63.874294 
L 388.422193 63.565109 
L 397.192257 63.929261 
L 405.962322 63.799728 
L 414.732386 64.341734 
L 423.50245 63.90801 
L 432.272514 63.810372 
L 441.042579 63.771181 
L 449.812643 63.711853 
L 458.582707 63.736743 
L 467.352771 63.987819 
L 476.122836 63.764784 
L 484.8929 64.069841 
L 493.662964 63.742742 
L 502.433029 63.480984 
L 511.203093 62.601802 
L 519.973157 60.595996 
" clip-path="url(#p914e5462ab)" style="fill: none; stroke: #5cb85c; stroke-linecap: square"/>
   </g>
   <g id="line2d_19">
    <path d="M 81.469943 41.931247 
L 90.240007 44.911441 
L 99.010072 42.483354 
L 107.780136 40.812823 
L 116.5502 39.881107 
L 125.320265 39.092294 
L 134.090329 39.07944 
L 142.860393 38.258419 
L 151.630457 38.188144 
L 160.400522 37.884832 
L 177.94065 37.960368 
L 195.480779 37.887314 
L 213.020907 37.039067 
L 230.561036 36.970634 
L 248.101164 36.860494 
L 265.641293 36.791263 
L 283.181422 36.83705 
L 300.72155 37.092437 
L 318.261679 37.056793 
L 335.801807 37.192868 
L 353.341936 37.171798 
L 370.882064 37.291858 
L 388.422193 37.26831 
L 405.962322 37.353658 
L 423.50245 37.429695 
L 441.042579 37.478341 
L 458.582707 37.463863 
L 476.122836 37.543102 
L 493.662964 37.633883 
L 511.203093 37.768513 
L 528.743221 38.687153 
L 546.28335 37.842724 
L 563.823479 37.916584 
L 581.363607 37.920849 
L 598.903736 38.024651 
L 616.443864 38.058214 
L 633.983993 38.1734 
L 651.524121 38.248701 
L 669.06425 38.342145 
L 686.604378 38.409827 
L 704.144507 38.507208 
L 721.684636 38.535182 
L 739.224764 38.679665 
L 756.764893 38.694662 
L 774.305021 38.775477 
L 791.84515 38.985823 
L 809.385278 38.886976 
L 826.925407 39.001588 
L 844.465535 38.948409 
L 862.005664 39.103565 
L 879.545793 39.016994 
L 897.085921 39.01384 
L 914.62605 39.115228 
L 932.166178 38.95808 
L 949.706307 38.386478 
" clip-path="url(#p914e5462ab)" style="fill: none; stroke: #5cb85c; stroke-linecap: square"/>
   </g>
   <g id="line2d_20">
    <path d="M 81.469943 43.201776 
L 90.240007 46.695393 
L 99.010072 42.652146 
L 107.780136 40.924695 
L 116.5502 40.101888 
L 125.320265 39.813737 
L 134.090329 39.561091 
L 142.860393 38.59835 
L 151.630457 38.747867 
L 160.400522 38.543144 
L 177.94065 38.278208 
L 195.480779 38.15167 
L 213.020907 37.439706 
L 230.561036 37.270418 
L 248.101164 37.19944 
L 265.641293 37.193171 
L 283.181422 37.305911 
L 300.72155 37.59119 
L 318.261679 37.461997 
L 335.801807 37.564937 
L 353.341936 37.461057 
L 370.882064 37.680398 
L 388.422193 37.681635 
L 405.962322 37.733714 
L 423.50245 37.837163 
L 441.042579 37.830849 
L 458.582707 37.755189 
L 476.122836 37.748917 
L 493.662964 37.824556 
L 511.203093 37.997316 
L 528.743221 38.905352 
L 546.28335 38.033208 
L 563.823479 38.05416 
L 581.363607 38.113595 
L 598.903736 38.216857 
L 616.443864 38.257067 
L 633.983993 38.344444 
L 651.524121 38.37727 
L 669.06425 38.45839 
L 686.604378 38.518148 
L 704.144507 38.645764 
L 721.684636 38.655185 
L 739.224764 38.775255 
L 756.764893 38.826433 
L 774.305021 38.870396 
L 791.84515 39.265751 
L 809.385278 39.124197 
L 826.925407 39.300247 
L 844.465535 39.124993 
L 862.005664 39.313917 
L 879.545793 39.154349 
L 897.085921 39.102474 
L 914.62605 39.1242 
L 932.166178 39.015795 
L 949.706307 38.485654 
" clip-path="url(#p914e5462ab)" style="fill: none; stroke: #5cb85c; stroke-linecap: square"/>
   </g>
   <g id="line2d_21">
    <path d="M 81.469943 42.946097 
L 90.240007 46.225824 
L 99.010072 44.086774 
L 107.780136 42.410089 
L 116.5502 41.369286 
L 125.320265 40.86495 
L 134.090329 40.238138 
L 142.860393 39.963304 
L 151.630457 40.059373 
L 160.400522 39.333236 
L 177.94065 39.357276 
L 195.480779 39.433936 
L 213.020907 38.107784 
L 230.561036 38.028192 
L 248.101164 37.918728 
L 265.641293 37.827923 
L 283.181422 37.994251 
L 300.72155 38.28071 
L 318.261679 38.277909 
L 335.801807 38.435009 
L 353.341936 38.534008 
L 370.882064 38.781442 
L 388.422193 38.731905 
L 405.962322 38.805698 
L 423.50245 38.989128 
L 441.042579 39.149085 
L 458.582707 39.223951 
L 476.122836 39.387974 
L 493.662964 39.573385 
L 511.203093 39.666768 
L 528.743221 40.599483 
L 546.28335 39.811871 
L 563.823479 39.935566 
L 581.363607 39.979474 
L 598.903736 40.210201 
L 616.443864 40.206037 
L 633.983993 40.41822 
L 651.524121 40.621399 
L 669.06425 40.61451 
L 686.604378 40.792406 
L 704.144507 40.834347 
L 721.684636 40.980206 
L 739.224764 41.278595 
L 756.764893 41.23402 
L 774.305021 41.359234 
L 791.84515 41.545295 
L 809.385278 41.706341 
L 826.925407 41.765954 
L 844.465535 41.694017 
L 862.005664 41.858054 
L 879.545793 41.762791 
L 897.085921 41.815981 
L 914.62605 42.043601 
L 932.166178 41.845353 
L 949.706307 40.972771 
" clip-path="url(#p914e5462ab)" style="fill: none; stroke: #5cb85c; stroke-linecap: square"/>
   </g>
   <g id="line2d_22">
    <path d="M 81.469943 42.224602 
L 90.240007 44.435563 
L 99.010072 42.990058 
L 107.780136 41.346622 
L 116.5502 40.464063 
L 125.320265 40.198565 
L 134.090329 38.712636 
L 142.860393 38.777513 
L 151.630457 38.301776 
L 160.400522 38.832582 
L 177.94065 38.281294 
L 195.480779 38.257734 
L 213.020907 37.405687 
L 230.561036 37.391229 
L 248.101164 37.181251 
L 265.641293 37.265861 
L 283.181422 37.380246 
L 300.72155 37.710817 
L 318.261679 37.742492 
L 335.801807 37.792663 
L 353.341936 37.717097 
L 370.882064 37.908535 
L 388.422193 37.927043 
L 405.962322 38.031477 
L 423.50245 38.131532 
L 441.042579 38.168874 
L 458.582707 38.149274 
L 476.122836 38.210839 
L 493.662964 38.311938 
L 511.203093 38.459755 
L 528.743221 39.387481 
L 546.28335 38.576452 
L 563.823479 38.617776 
L 581.363607 38.665123 
L 598.903736 38.800469 
L 616.443864 38.867454 
L 633.983993 38.976449 
L 651.524121 39.052791 
L 669.06425 39.121236 
L 686.604378 39.206167 
L 704.144507 39.342331 
L 721.684636 39.393757 
L 739.224764 39.562217 
L 756.764893 39.583857 
L 774.305021 39.682586 
L 791.84515 40.010645 
L 809.385278 39.863467 
L 826.925407 40.063208 
L 844.465535 39.931368 
L 862.005664 40.123168 
L 879.545793 40.018645 
L 897.085921 39.986409 
L 914.62605 40.077251 
L 932.166178 39.905401 
L 949.706307 39.287514 
" clip-path="url(#p914e5462ab)" style="fill: none; stroke: #5cb85c; stroke-linecap: square"/>
   </g>
   <g id="line2d_23">
    <path d="M 81.469943 62.788869 
L 90.240007 63.530691 
L 99.010072 61.1647 
L 107.780136 60.651607 
L 116.5502 60.607504 
L 125.320265 60.518502 
L 134.090329 61.498495 
L 142.860393 60.537549 
L 151.630457 60.512169 
L 160.400522 60.614215 
L 169.170586 60.095883 
L 177.94065 60.585039 
L 186.710715 60.837864 
L 195.480779 60.813133 
L 204.250843 60.709833 
L 213.020907 60.561431 
L 221.790972 60.589588 
L 230.561036 60.700197 
L 239.3311 60.707152 
L 248.101164 60.939887 
L 256.871229 60.80087 
L 265.641293 61.215627 
L 274.411357 61.178361 
L 283.181422 61.290095 
L 291.951486 61.379081 
L 300.72155 61.619268 
L 309.491614 61.594762 
L 318.261679 61.662451 
L 327.031743 61.548298 
L 335.801807 61.698298 
L 344.571872 61.851732 
L 353.341936 61.939558 
L 362.112 61.960459 
L 370.882064 62.181006 
L 379.652129 61.970172 
L 388.422193 61.948191 
L 397.192257 62.20733 
L 405.962322 62.267452 
L 414.732386 62.135994 
L 423.50245 62.315444 
L 432.272514 62.26459 
L 441.042579 62.520978 
L 449.812643 63.131297 
L 458.582707 62.497313 
L 467.352771 63.070141 
L 476.122836 62.49411 
L 484.8929 62.439366 
L 493.662964 62.561965 
L 502.433029 62.429475 
L 511.203093 61.874874 
L 519.973157 59.813366 
" clip-path="url(#p914e5462ab)" style="fill: none; stroke: #5cb85c; stroke-linecap: square"/>
   </g>
   <g id="line2d_24">
    <path d="M 81.469943 61.59575 
L 90.240007 62.031435 
L 99.010072 61.902153 
L 107.780136 61.602547 
L 116.5502 61.656335 
L 125.320265 62.148106 
L 134.090329 62.450173 
L 142.860393 61.75897 
L 151.630457 61.902271 
L 160.400522 62.050038 
L 169.170586 61.833282 
L 177.94065 62.130149 
L 186.710715 62.484714 
L 195.480779 62.310517 
L 204.250843 62.461647 
L 213.020907 62.64591 
L 221.790972 62.734992 
L 230.561036 62.738617 
L 239.3311 62.939525 
L 248.101164 62.814892 
L 256.871229 62.832378 
L 265.641293 62.820064 
L 274.411357 62.843582 
L 283.181422 63.187193 
L 291.951486 63.365911 
L 300.72155 63.530859 
L 309.491614 63.552509 
L 318.261679 63.612319 
L 327.031743 63.852479 
L 335.801807 63.635566 
L 344.571872 63.778734 
L 353.341936 63.521764 
L 362.112 63.95981 
L 370.882064 64.144319 
L 379.652129 64.261906 
L 388.422193 64.04236 
L 397.192257 64.412759 
L 405.962322 64.275093 
L 414.732386 64.850116 
L 423.50245 64.507529 
L 432.272514 64.396828 
L 441.042579 64.370391 
L 449.812643 64.384683 
L 458.582707 64.398179 
L 467.352771 64.663053 
L 476.122836 64.511512 
L 484.8929 64.792368 
L 493.662964 64.505747 
L 502.433029 64.169449 
L 511.203093 63.109904 
L 519.973157 60.872728 
" clip-path="url(#p914e5462ab)" style="fill: none; stroke: #5cb85c; stroke-linecap: square"/>
   </g>
   <g id="line2d_25">
    <path d="M 38.058125 353.2239 
L 993.118125 353.2239 
" clip-path="url(#p914e5462ab)" style="fill: none; stroke: #dedede; stroke-width: 2; stroke-linecap: square"/>
   </g>
   <g id="text_17">
    <!-- FastQC: Mean Quality Scores -->
    <g transform="translate(400.349375 19.3575) scale(0.16 -0.16)">
     <defs>
      <path id="DejaVuSans-46" d="M 628 4666 
L 3309 4666 
L 3309 4134 
L 1259 4134 
L 1259 2759 
L 3109 2759 
L 3109 2228 
L 1259 2228 
L 1259 0 
L 628 0 
L 628 4666 
z
" transform="scale(0.015625)"/>
      <path id="DejaVuSans-61" d="M 2194 1759 
Q 1497 1759 1228 1600 
Q 959 1441 959 1056 
Q 959 750 1161 570 
Q 1363 391 1709 391 
Q 2188 391 2477 730 
Q 2766 1069 2766 1631 
L 2766 1759 
L 2194 1759 
z
M 3341 1997 
L 3341 0 
L 2766 0 
L 2766 531 
Q 2569 213 2275 61 
Q 1981 -91 1556 -91 
Q 1019 -91 701 211 
Q 384 513 384 1019 
Q 384 1609 779 1909 
Q 1175 2209 1959 2209 
L 2766 2209 
L 2766 2266 
Q 2766 2663 2505 2880 
Q 2244 3097 1772 3097 
Q 1472 3097 1187 3025 
Q 903 2953 641 2809 
L 641 3341 
Q 956 3463 1253 3523 
Q 1550 3584 1831 3584 
Q 2591 3584 2966 3190 
Q 3341 2797 3341 1997 
z
" transform="scale(0.015625)"/>
      <path id="DejaVuSans-51" d="M 2522 4238 
Q 1834 4238 1429 3725 
Q 1025 3213 1025 2328 
Q 1025 1447 1429 934 
Q 1834 422 2522 422 
Q 3209 422 3611 934 
Q 4013 1447 4013 2328 
Q 4013 3213 3611 3725 
Q 3209 4238 2522 4238 
z
M 3406 84 
L 4238 -825 
L 3475 -825 
L 2784 -78 
Q 2681 -84 2626 -87 
Q 2572 -91 2522 -91 
Q 1538 -91 948 567 
Q 359 1225 359 2328 
Q 359 3434 948 4092 
Q 1538 4750 2522 4750 
Q 3503 4750 4090 4092 
Q 4678 3434 4678 2328 
Q 4678 1516 4351 937 
Q 4025 359 3406 84 
z
" transform="scale(0.015625)"/>
      <path id="DejaVuSans-43" d="M 4122 4306 
L 4122 3641 
Q 3803 3938 3442 4084 
Q 3081 4231 2675 4231 
Q 1875 4231 1450 3742 
Q 1025 3253 1025 2328 
Q 1025 1406 1450 917 
Q 1875 428 2675 428 
Q 3081 428 3442 575 
Q 3803 722 4122 1019 
L 4122 359 
Q 3791 134 3420 21 
Q 3050 -91 2638 -91 
Q 1578 -91 968 557 
Q 359 1206 359 2328 
Q 359 3453 968 4101 
Q 1578 4750 2638 4750 
Q 3056 4750 3426 4639 
Q 3797 4528 4122 4306 
z
" transform="scale(0.015625)"/>
      <path id="DejaVuSans-3a" d="M 750 794 
L 1409 794 
L 1409 0 
L 750 0 
L 750 794 
z
M 750 3309 
L 1409 3309 
L 1409 2516 
L 750 2516 
L 750 3309 
z
" transform="scale(0.015625)"/>
      <path id="DejaVuSans-4d" d="M 628 4666 
L 1569 4666 
L 2759 1491 
L 3956 4666 
L 4897 4666 
L 4897 0 
L 4281 0 
L 4281 4097 
L 3078 897 
L 2444 897 
L 1241 4097 
L 1241 0 
L 628 0 
L 628 4666 
z
" transform="scale(0.015625)"/>
      <path id="DejaVuSans-75" d="M 544 1381 
L 544 3500 
L 1119 3500 
L 1119 1403 
Q 1119 906 1312 657 
Q 1506 409 1894 409 
Q 2359 409 2629 706 
Q 2900 1003 2900 1516 
L 2900 3500 
L 3475 3500 
L 3475 0 
L 2900 0 
L 2900 538 
Q 2691 219 2414 64 
Q 2138 -91 1772 -91 
Q 1169 -91 856 284 
Q 544 659 544 1381 
z
M 1991 3584 
L 1991 3584 
z
" transform="scale(0.015625)"/>
      <path id="DejaVuSans-6c" d="M 603 4863 
L 1178 4863 
L 1178 0 
L 603 0 
L 603 4863 
z
" transform="scale(0.015625)"/>
      <path id="DejaVuSans-79" d="M 2059 -325 
Q 1816 -950 1584 -1140 
Q 1353 -1331 966 -1331 
L 506 -1331 
L 506 -850 
L 844 -850 
Q 1081 -850 1212 -737 
Q 1344 -625 1503 -206 
L 1606 56 
L 191 3500 
L 800 3500 
L 1894 763 
L 2988 3500 
L 3597 3500 
L 2059 -325 
z
" transform="scale(0.015625)"/>
     </defs>
     <use xlink:href="#DejaVuSans-46"/>
     <use xlink:href="#DejaVuSans-61" x="48.394531"/>
     <use xlink:href="#DejaVuSans-73" x="109.673828"/>
     <use xlink:href="#DejaVuSans-74" x="161.773438"/>
     <use xlink:href="#DejaVuSans-51" x="200.982422"/>
     <use xlink:href="#DejaVuSans-43" x="279.693359"/>
     <use xlink:href="#DejaVuSans-3a" x="349.517578"/>
     <use xlink:href="#DejaVuSans-20" x="383.208984"/>
     <use xlink:href="#DejaVuSans-4d" x="414.996094"/>
     <use xlink:href="#DejaVuSans-65" x="501.275391"/>
     <use xlink:href="#DejaVuSans-61" x="562.798828"/>
     <use xlink:href="#DejaVuSans-6e" x="624.078125"/>
     <use xlink:href="#DejaVuSans-20" x="687.457031"/>
     <use xlink:href="#DejaVuSans-51" x="719.244141"/>
     <use xlink:href="#DejaVuSans-75" x="797.955078"/>
     <use xlink:href="#DejaVuSans-61" x="861.333984"/>
     <use xlink:href="#DejaVuSans-6c" x="922.613281"/>
     <use xlink:href="#DejaVuSans-69" x="950.396484"/>
     <use xlink:href="#DejaVuSans-74" x="978.179688"/>
     <use xlink:href="#DejaVuSans-79" x="1017.388672"/>
     <use xlink:href="#DejaVuSans-20" x="1076.568359"/>
     <use xlink:href="#DejaVuSans-53" x="1108.355469"/>
     <use xlink:href="#DejaVuSans-63" x="1171.832031"/>
     <use xlink:href="#DejaVuSans-6f" x="1226.8125"/>
     <use xlink:href="#DejaVuSans-72" x="1287.994141"/>
     <use xlink:href="#DejaVuSans-65" x="1326.857422"/>
     <use xlink:href="#DejaVuSans-73" x="1388.380859"/>
    </g>
   </g>
  </g>
 </g>
 <defs>
  <clipPath id="p914e5462ab">
   <rect x="38.058125" y="35.2559" width="955.06" height="317.968"/>
  </clipPath>
 </defs>
</svg>
