<?xml version="1.0" encoding="utf-8" standalone="no"?>
<!DOCTYPE svg PUBLIC "-//W3C//DTD SVG 1.1//EN"
  "http://www.w3.org/Graphics/SVG/1.1/DTD/svg11.dtd">
<svg xmlns:xlink="http://www.w3.org/1999/xlink" width="1000.358125pt" height="388.844525pt" viewBox="0 0 1000.358125 388.844525" xmlns="http://www.w3.org/2000/svg" version="1.1">
 <metadata>
  <rdf:RDF xmlns:dc="http://purl.org/dc/elements/1.1/" xmlns:cc="http://creativecommons.org/ns#" xmlns:rdf="http://www.w3.org/1999/02/22-rdf-syntax-ns#">
   <cc:Work>
    <dc:type rdf:resource="http://purl.org/dc/dcmitype/StillImage"/>
    <dc:date>2025-04-01T05:20:41.881867</dc:date>
    <dc:format>image/svg+xml</dc:format>
    <dc:creator>
     <cc:Agent>
      <dc:title>Matplotlib v3.8.2, https://matplotlib.org/</dc:title>
     </cc:Agent>
    </dc:creator>
   </cc:Work>
  </rdf:RDF>
 </metadata>
 <defs>
  <style type="text/css">*{stroke-linejoin: round; stroke-linecap: butt}</style>
 </defs>
 <g id="figure_1">
  <g id="axes_1">
   <g id="patch_1">
    <path d="M 32.968125 353.2239 
L 993.158125 353.2239 
L 993.158125 35.2559 
L 32.968125 35.2559 
z
" style="fill: #ffffff"/>
   </g>
   <g id="patch_2">
    <path d="M 32.968125 -918.6481 
L 993.158125 -918.6481 
L 993.158125 -6006.1361 
L 32.968125 -6006.1361 
z
" clip-path="url(#pf2695ddb43)" style="fill: #e6c3c3"/>
   </g>
   <g id="patch_3">
    <path d="M 32.968125 35.2559 
L 993.158125 35.2559 
L 993.158125 -918.6481 
L 32.968125 -918.6481 
z
" clip-path="url(#pf2695ddb43)" style="fill: #e6dcc3"/>
   </g>
   <g id="patch_4">
    <path d="M 32.968125 353.2239 
L 993.158125 353.2239 
L 993.158125 35.2559 
L 32.968125 35.2559 
z
" clip-path="url(#pf2695ddb43)" style="fill: #c3e6c3"/>
   </g>
   <g id="matplotlib.axis_1">
    <g id="xtick_1">
     <g id="text_1">
      <!-- 0 -->
      <g transform="translate(30.423125 366.30265) scale(0.08 -0.08)">
       <defs>
        <path id="DejaVuSans-30" d="M 2034 4250 
Q 1547 4250 1301 3770 
Q 1056 3291 1056 2328 
Q 1056 1369 1301 889 
Q 1547 409 2034 409 
Q 2525 409 2770 889 
Q 3016 1369 3016 2328 
Q 3016 3291 2770 3770 
Q 2525 4250 2034 4250 
z
M 2034 4750 
Q 2819 4750 3233 4129 
Q 3647 3509 3647 2328 
Q 3647 1150 3233 529 
Q 2819 -91 2034 -91 
Q 1250 -91 836 529 
Q 422 1150 422 2328 
Q 422 3509 836 4129 
Q 1250 4750 2034 4750 
z
" transform="scale(0.015625)"/>
       </defs>
       <use xlink:href="#DejaVuSans-30"/>
      </g>
     </g>
    </g>
    <g id="xtick_2">
     <g id="text_2">
      <!-- 20 -->
      <g transform="translate(210.858592 366.30265) scale(0.08 -0.08)">
       <defs>
        <path id="DejaVuSans-32" d="M 1228 531 
L 3431 531 
L 3431 0 
L 469 0 
L 469 531 
Q 828 903 1448 1529 
Q 2069 2156 2228 2338 
Q 2531 2678 2651 2914 
Q 2772 3150 2772 3378 
Q 2772 3750 2511 3984 
Q 2250 4219 1831 4219 
Q 1534 4219 1204 4116 
Q 875 4013 500 3803 
L 500 4441 
Q 881 4594 1212 4672 
Q 1544 4750 1819 4750 
Q 2544 4750 2975 4387 
Q 3406 4025 3406 3419 
Q 3406 3131 3298 2873 
Q 3191 2616 2906 2266 
Q 2828 2175 2409 1742 
Q 1991 1309 1228 531 
z
" transform="scale(0.015625)"/>
       </defs>
       <use xlink:href="#DejaVuSans-32"/>
       <use xlink:href="#DejaVuSans-30" x="63.623047"/>
      </g>
     </g>
    </g>
    <g id="xtick_3">
     <g id="text_3">
      <!-- 40 -->
      <g transform="translate(393.839059 366.30265) scale(0.08 -0.08)">
       <defs>
        <path id="DejaVuSans-34" d="M 2419 4116 
L 825 1625 
L 2419 1625 
L 2419 4116 
z
M 2253 4666 
L 3047 4666 
L 3047 1625 
L 3713 1625 
L 3713 1100 
L 3047 1100 
L 3047 0 
L 2419 0 
L 2419 1100 
L 313 1100 
L 313 1709 
L 2253 4666 
z
" transform="scale(0.015625)"/>
       </defs>
       <use xlink:href="#DejaVuSans-34"/>
       <use xlink:href="#DejaVuSans-30" x="63.623047"/>
      </g>
     </g>
    </g>
    <g id="xtick_4">
     <g id="text_4">
      <!-- 60 -->
      <g transform="translate(576.819526 366.30265) scale(0.08 -0.08)">
       <defs>
        <path id="DejaVuSans-36" d="M 2113 2584 
Q 1688 2584 1439 2293 
Q 1191 2003 1191 1497 
Q 1191 994 1439 701 
Q 1688 409 2113 409 
Q 2538 409 2786 701 
Q 3034 994 3034 1497 
Q 3034 2003 2786 2293 
Q 2538 2584 2113 2584 
z
M 3366 4563 
L 3366 3988 
Q 3128 4100 2886 4159 
Q 2644 4219 2406 4219 
Q 1781 4219 1451 3797 
Q 1122 3375 1075 2522 
Q 1259 2794 1537 2939 
Q 1816 3084 2150 3084 
Q 2853 3084 3261 2657 
Q 3669 2231 3669 1497 
Q 3669 778 3244 343 
Q 2819 -91 2113 -91 
Q 1303 -91 875 529 
Q 447 1150 447 2328 
Q 447 3434 972 4092 
Q 1497 4750 2381 4750 
Q 2619 4750 2861 4703 
Q 3103 4656 3366 4563 
z
" transform="scale(0.015625)"/>
       </defs>
       <use xlink:href="#DejaVuSans-36"/>
       <use xlink:href="#DejaVuSans-30" x="63.623047"/>
      </g>
     </g>
    </g>
    <g id="xtick_5">
     <g id="text_5">
      <!-- 80 -->
      <g transform="translate(759.799993 366.30265) scale(0.08 -0.08)">
       <defs>
        <path id="DejaVuSans-38" d="M 2034 2216 
Q 1584 2216 1326 1975 
Q 1069 1734 1069 1313 
Q 1069 891 1326 650 
Q 1584 409 2034 409 
Q 2484 409 2743 651 
Q 3003 894 3003 1313 
Q 3003 1734 2745 1975 
Q 2488 2216 2034 2216 
z
M 1403 2484 
Q 997 2584 770 2862 
Q 544 3141 544 3541 
Q 544 4100 942 4425 
Q 1341 4750 2034 4750 
Q 2731 4750 3128 4425 
Q 3525 4100 3525 3541 
Q 3525 3141 3298 2862 
Q 3072 2584 2669 2484 
Q 3125 2378 3379 2068 
Q 3634 1759 3634 1313 
Q 3634 634 3220 271 
Q 2806 -91 2034 -91 
Q 1263 -91 848 271 
Q 434 634 434 1313 
Q 434 1759 690 2068 
Q 947 2378 1403 2484 
z
M 1172 3481 
Q 1172 3119 1398 2916 
Q 1625 2713 2034 2713 
Q 2441 2713 2670 2916 
Q 2900 3119 2900 3481 
Q 2900 3844 2670 4047 
Q 2441 4250 2034 4250 
Q 1625 4250 1398 4047 
Q 1172 3844 1172 3481 
z
" transform="scale(0.015625)"/>
       </defs>
       <use xlink:href="#DejaVuSans-38"/>
       <use xlink:href="#DejaVuSans-30" x="63.623047"/>
      </g>
     </g>
    </g>
    <g id="xtick_6">
     <g id="text_6">
      <!-- 100 -->
      <g transform="translate(940.235459 366.30265) scale(0.08 -0.08)">
       <defs>
        <path id="DejaVuSans-31" d="M 794 531 
L 1825 531 
L 1825 4091 
L 703 3866 
L 703 4441 
L 1819 4666 
L 2450 4666 
L 2450 531 
L 3481 531 
L 3481 0 
L 794 0 
L 794 531 
z
" transform="scale(0.015625)"/>
       </defs>
       <use xlink:href="#DejaVuSans-31"/>
       <use xlink:href="#DejaVuSans-30" x="63.623047"/>
       <use xlink:href="#DejaVuSans-30" x="127.246094"/>
      </g>
     </g>
    </g>
    <g id="text_7">
     <!-- Position in Read (bp) -->
     <g transform="translate(461.46 379.564837) scale(0.1 -0.1)">
      <defs>
       <path id="DejaVuSans-50" d="M 1259 4147 
L 1259 2394 
L 2053 2394 
Q 2494 2394 2734 2622 
Q 2975 2850 2975 3272 
Q 2975 3691 2734 3919 
Q 2494 4147 2053 4147 
L 1259 4147 
z
M 628 4666 
L 2053 4666 
Q 2838 4666 3239 4311 
Q 3641 3956 3641 3272 
Q 3641 2581 3239 2228 
Q 2838 1875 2053 1875 
L 1259 1875 
L 1259 0 
L 628 0 
L 628 4666 
z
" transform="scale(0.015625)"/>
       <path id="DejaVuSans-6f" d="M 1959 3097 
Q 1497 3097 1228 2736 
Q 959 2375 959 1747 
Q 959 1119 1226 758 
Q 1494 397 1959 397 
Q 2419 397 2687 759 
Q 2956 1122 2956 1747 
Q 2956 2369 2687 2733 
Q 2419 3097 1959 3097 
z
M 1959 3584 
Q 2709 3584 3137 3096 
Q 3566 2609 3566 1747 
Q 3566 888 3137 398 
Q 2709 -91 1959 -91 
Q 1206 -91 779 398 
Q 353 888 353 1747 
Q 353 2609 779 3096 
Q 1206 3584 1959 3584 
z
" transform="scale(0.015625)"/>
       <path id="DejaVuSans-73" d="M 2834 3397 
L 2834 2853 
Q 2591 2978 2328 3040 
Q 2066 3103 1784 3103 
Q 1356 3103 1142 2972 
Q 928 2841 928 2578 
Q 928 2378 1081 2264 
Q 1234 2150 1697 2047 
L 1894 2003 
Q 2506 1872 2764 1633 
Q 3022 1394 3022 966 
Q 3022 478 2636 193 
Q 2250 -91 1575 -91 
Q 1294 -91 989 -36 
Q 684 19 347 128 
L 347 722 
Q 666 556 975 473 
Q 1284 391 1588 391 
Q 1994 391 2212 530 
Q 2431 669 2431 922 
Q 2431 1156 2273 1281 
Q 2116 1406 1581 1522 
L 1381 1569 
Q 847 1681 609 1914 
Q 372 2147 372 2553 
Q 372 3047 722 3315 
Q 1072 3584 1716 3584 
Q 2034 3584 2315 3537 
Q 2597 3491 2834 3397 
z
" transform="scale(0.015625)"/>
       <path id="DejaVuSans-69" d="M 603 3500 
L 1178 3500 
L 1178 0 
L 603 0 
L 603 3500 
z
M 603 4863 
L 1178 4863 
L 1178 4134 
L 603 4134 
L 603 4863 
z
" transform="scale(0.015625)"/>
       <path id="DejaVuSans-74" d="M 1172 4494 
L 1172 3500 
L 2356 3500 
L 2356 3053 
L 1172 3053 
L 1172 1153 
Q 1172 725 1289 603 
Q 1406 481 1766 481 
L 2356 481 
L 2356 0 
L 1766 0 
Q 1100 0 847 248 
Q 594 497 594 1153 
L 594 3053 
L 172 3053 
L 172 3500 
L 594 3500 
L 594 4494 
L 1172 4494 
z
" transform="scale(0.015625)"/>
       <path id="DejaVuSans-6e" d="M 3513 2113 
L 3513 0 
L 2938 0 
L 2938 2094 
Q 2938 2591 2744 2837 
Q 2550 3084 2163 3084 
Q 1697 3084 1428 2787 
Q 1159 2491 1159 1978 
L 1159 0 
L 581 0 
L 581 3500 
L 1159 3500 
L 1159 2956 
Q 1366 3272 1645 3428 
Q 1925 3584 2291 3584 
Q 2894 3584 3203 3211 
Q 3513 2838 3513 2113 
z
" transform="scale(0.015625)"/>
       <path id="DejaVuSans-20" transform="scale(0.015625)"/>
       <path id="DejaVuSans-52" d="M 2841 2188 
Q 3044 2119 3236 1894 
Q 3428 1669 3622 1275 
L 4263 0 
L 3584 0 
L 2988 1197 
Q 2756 1666 2539 1819 
Q 2322 1972 1947 1972 
L 1259 1972 
L 1259 0 
L 628 0 
L 628 4666 
L 2053 4666 
Q 2853 4666 3247 4331 
Q 3641 3997 3641 3322 
Q 3641 2881 3436 2590 
Q 3231 2300 2841 2188 
z
M 1259 4147 
L 1259 2491 
L 2053 2491 
Q 2509 2491 2742 2702 
Q 2975 2913 2975 3322 
Q 2975 3731 2742 3939 
Q 2509 4147 2053 4147 
L 1259 4147 
z
" transform="scale(0.015625)"/>
       <path id="DejaVuSans-65" d="M 3597 1894 
L 3597 1613 
L 953 1613 
Q 991 1019 1311 708 
Q 1631 397 2203 397 
Q 2534 397 2845 478 
Q 3156 559 3463 722 
L 3463 178 
Q 3153 47 2828 -22 
Q 2503 -91 2169 -91 
Q 1331 -91 842 396 
Q 353 884 353 1716 
Q 353 2575 817 3079 
Q 1281 3584 2069 3584 
Q 2775 3584 3186 3129 
Q 3597 2675 3597 1894 
z
M 3022 2063 
Q 3016 2534 2758 2815 
Q 2500 3097 2075 3097 
Q 1594 3097 1305 2825 
Q 1016 2553 972 2059 
L 3022 2063 
z
" transform="scale(0.015625)"/>
       <path id="DejaVuSans-61" d="M 2194 1759 
Q 1497 1759 1228 1600 
Q 959 1441 959 1056 
Q 959 750 1161 570 
Q 1363 391 1709 391 
Q 2188 391 2477 730 
Q 2766 1069 2766 1631 
L 2766 1759 
L 2194 1759 
z
M 3341 1997 
L 3341 0 
L 2766 0 
L 2766 531 
Q 2569 213 2275 61 
Q 1981 -91 1556 -91 
Q 1019 -91 701 211 
Q 384 513 384 1019 
Q 384 1609 779 1909 
Q 1175 2209 1959 2209 
L 2766 2209 
L 2766 2266 
Q 2766 2663 2505 2880 
Q 2244 3097 1772 3097 
Q 1472 3097 1187 3025 
Q 903 2953 641 2809 
L 641 3341 
Q 956 3463 1253 3523 
Q 1550 3584 1831 3584 
Q 2591 3584 2966 3190 
Q 3341 2797 3341 1997 
z
" transform="scale(0.015625)"/>
       <path id="DejaVuSans-64" d="M 2906 2969 
L 2906 4863 
L 3481 4863 
L 3481 0 
L 2906 0 
L 2906 525 
Q 2725 213 2448 61 
Q 2172 -91 1784 -91 
Q 1150 -91 751 415 
Q 353 922 353 1747 
Q 353 2572 751 3078 
Q 1150 3584 1784 3584 
Q 2172 3584 2448 3432 
Q 2725 3281 2906 2969 
z
M 947 1747 
Q 947 1113 1208 752 
Q 1469 391 1925 391 
Q 2381 391 2643 752 
Q 2906 1113 2906 1747 
Q 2906 2381 2643 2742 
Q 2381 3103 1925 3103 
Q 1469 3103 1208 2742 
Q 947 2381 947 1747 
z
" transform="scale(0.015625)"/>
       <path id="DejaVuSans-28" d="M 1984 4856 
Q 1566 4138 1362 3434 
Q 1159 2731 1159 2009 
Q 1159 1288 1364 580 
Q 1569 -128 1984 -844 
L 1484 -844 
Q 1016 -109 783 600 
Q 550 1309 550 2009 
Q 550 2706 781 3412 
Q 1013 4119 1484 4856 
L 1984 4856 
z
" transform="scale(0.015625)"/>
       <path id="DejaVuSans-62" d="M 3116 1747 
Q 3116 2381 2855 2742 
Q 2594 3103 2138 3103 
Q 1681 3103 1420 2742 
Q 1159 2381 1159 1747 
Q 1159 1113 1420 752 
Q 1681 391 2138 391 
Q 2594 391 2855 752 
Q 3116 1113 3116 1747 
z
M 1159 2969 
Q 1341 3281 1617 3432 
Q 1894 3584 2278 3584 
Q 2916 3584 3314 3078 
Q 3713 2572 3713 1747 
Q 3713 922 3314 415 
Q 2916 -91 2278 -91 
Q 1894 -91 1617 61 
Q 1341 213 1159 525 
L 1159 0 
L 581 0 
L 581 4863 
L 1159 4863 
L 1159 2969 
z
" transform="scale(0.015625)"/>
       <path id="DejaVuSans-70" d="M 1159 525 
L 1159 -1331 
L 581 -1331 
L 581 3500 
L 1159 3500 
L 1159 2969 
Q 1341 3281 1617 3432 
Q 1894 3584 2278 3584 
Q 2916 3584 3314 3078 
Q 3713 2572 3713 1747 
Q 3713 922 3314 415 
Q 2916 -91 2278 -91 
Q 1894 -91 1617 61 
Q 1341 213 1159 525 
z
M 3116 1747 
Q 3116 2381 2855 2742 
Q 2594 3103 2138 3103 
Q 1681 3103 1420 2742 
Q 1159 2381 1159 1747 
Q 1159 1113 1420 752 
Q 1681 391 2138 391 
Q 2594 391 2855 752 
Q 3116 1113 3116 1747 
z
" transform="scale(0.015625)"/>
       <path id="DejaVuSans-29" d="M 513 4856 
L 1013 4856 
Q 1481 4119 1714 3412 
Q 1947 2706 1947 2009 
Q 1947 1309 1714 600 
Q 1481 -109 1013 -844 
L 513 -844 
Q 928 -128 1133 580 
Q 1338 1288 1338 2009 
Q 1338 2731 1133 3434 
Q 928 4138 513 4856 
z
" transform="scale(0.015625)"/>
      </defs>
      <use xlink:href="#DejaVuSans-50"/>
      <use xlink:href="#DejaVuSans-6f" x="56.677734"/>
      <use xlink:href="#DejaVuSans-73" x="117.859375"/>
      <use xlink:href="#DejaVuSans-69" x="169.958984"/>
      <use xlink:href="#DejaVuSans-74" x="197.742188"/>
      <use xlink:href="#DejaVuSans-69" x="236.951172"/>
      <use xlink:href="#DejaVuSans-6f" x="264.734375"/>
      <use xlink:href="#DejaVuSans-6e" x="325.916016"/>
      <use xlink:href="#DejaVuSans-20" x="389.294922"/>
      <use xlink:href="#DejaVuSans-69" x="421.082031"/>
      <use xlink:href="#DejaVuSans-6e" x="448.865234"/>
      <use xlink:href="#DejaVuSans-20" x="512.244141"/>
      <use xlink:href="#DejaVuSans-52" x="544.03125"/>
      <use xlink:href="#DejaVuSans-65" x="609.013672"/>
      <use xlink:href="#DejaVuSans-61" x="670.537109"/>
      <use xlink:href="#DejaVuSans-64" x="731.816406"/>
      <use xlink:href="#DejaVuSans-20" x="795.292969"/>
      <use xlink:href="#DejaVuSans-28" x="827.080078"/>
      <use xlink:href="#DejaVuSans-62" x="866.09375"/>
      <use xlink:href="#DejaVuSans-70" x="929.570312"/>
      <use xlink:href="#DejaVuSans-29" x="993.046875"/>
     </g>
    </g>
   </g>
   <g id="matplotlib.axis_2">
    <g id="ytick_1">
     <g id="line2d_1">
      <path d="M 32.968125 353.2239 
L 993.158125 353.2239 
" clip-path="url(#pf2695ddb43)" style="fill: none; stroke: #dedede; stroke-linecap: square"/>
     </g>
     <g id="text_8">
      <!-- 0 -->
      <g transform="translate(20.878125 356.263275) scale(0.08 -0.08)">
       <use xlink:href="#DejaVuSans-30"/>
      </g>
     </g>
    </g>
    <g id="ytick_2">
     <g id="line2d_2">
      <path d="M 32.968125 289.6303 
L 993.158125 289.6303 
" clip-path="url(#pf2695ddb43)" style="fill: none; stroke: #dedede; stroke-linecap: square"/>
     </g>
     <g id="text_9">
      <!-- 1 -->
      <g transform="translate(20.878125 292.669675) scale(0.08 -0.08)">
       <use xlink:href="#DejaVuSans-31"/>
      </g>
     </g>
    </g>
    <g id="ytick_3">
     <g id="line2d_3">
      <path d="M 32.968125 226.0367 
L 993.158125 226.0367 
" clip-path="url(#pf2695ddb43)" style="fill: none; stroke: #dedede; stroke-linecap: square"/>
     </g>
     <g id="text_10">
      <!-- 2 -->
      <g transform="translate(20.878125 229.076075) scale(0.08 -0.08)">
       <use xlink:href="#DejaVuSans-32"/>
      </g>
     </g>
    </g>
    <g id="ytick_4">
     <g id="line2d_4">
      <path d="M 32.968125 162.4431 
L 993.158125 162.4431 
" clip-path="url(#pf2695ddb43)" style="fill: none; stroke: #dedede; stroke-linecap: square"/>
     </g>
     <g id="text_11">
      <!-- 3 -->
      <g transform="translate(20.878125 165.482475) scale(0.08 -0.08)">
       <defs>
        <path id="DejaVuSans-33" d="M 2597 2516 
Q 3050 2419 3304 2112 
Q 3559 1806 3559 1356 
Q 3559 666 3084 287 
Q 2609 -91 1734 -91 
Q 1441 -91 1130 -33 
Q 819 25 488 141 
L 488 750 
Q 750 597 1062 519 
Q 1375 441 1716 441 
Q 2309 441 2620 675 
Q 2931 909 2931 1356 
Q 2931 1769 2642 2001 
Q 2353 2234 1838 2234 
L 1294 2234 
L 1294 2753 
L 1863 2753 
Q 2328 2753 2575 2939 
Q 2822 3125 2822 3475 
Q 2822 3834 2567 4026 
Q 2313 4219 1838 4219 
Q 1578 4219 1281 4162 
Q 984 4106 628 3988 
L 628 4550 
Q 988 4650 1302 4700 
Q 1616 4750 1894 4750 
Q 2613 4750 3031 4423 
Q 3450 4097 3450 3541 
Q 3450 3153 3228 2886 
Q 3006 2619 2597 2516 
z
" transform="scale(0.015625)"/>
       </defs>
       <use xlink:href="#DejaVuSans-33"/>
      </g>
     </g>
    </g>
    <g id="ytick_5">
     <g id="line2d_5">
      <path d="M 32.968125 98.8495 
L 993.158125 98.8495 
" clip-path="url(#pf2695ddb43)" style="fill: none; stroke: #dedede; stroke-linecap: square"/>
     </g>
     <g id="text_12">
      <!-- 4 -->
      <g transform="translate(20.878125 101.888875) scale(0.08 -0.08)">
       <use xlink:href="#DejaVuSans-34"/>
      </g>
     </g>
    </g>
    <g id="ytick_6">
     <g id="line2d_6">
      <path d="M 32.968125 35.2559 
L 993.158125 35.2559 
" clip-path="url(#pf2695ddb43)" style="fill: none; stroke: #dedede; stroke-linecap: square"/>
     </g>
     <g id="text_13">
      <!-- 5 -->
      <g transform="translate(20.878125 38.295275) scale(0.08 -0.08)">
       <defs>
        <path id="DejaVuSans-35" d="M 691 4666 
L 3169 4666 
L 3169 4134 
L 1269 4134 
L 1269 2991 
Q 1406 3038 1543 3061 
Q 1681 3084 1819 3084 
Q 2600 3084 3056 2656 
Q 3513 2228 3513 1497 
Q 3513 744 3044 326 
Q 2575 -91 1722 -91 
Q 1428 -91 1123 -41 
Q 819 9 494 109 
L 494 744 
Q 775 591 1075 516 
Q 1375 441 1709 441 
Q 2250 441 2565 725 
Q 2881 1009 2881 1497 
Q 2881 1984 2565 2268 
Q 2250 2553 1709 2553 
Q 1456 2553 1204 2497 
Q 953 2441 691 2322 
L 691 4666 
z
" transform="scale(0.015625)"/>
       </defs>
       <use xlink:href="#DejaVuSans-35"/>
      </g>
     </g>
    </g>
    <g id="text_14">
     <!-- Percentage N-Count -->
     <g transform="translate(14.798438 244.344588) rotate(-90) scale(0.1 -0.1)">
      <defs>
       <path id="DejaVuSans-72" d="M 2631 2963 
Q 2534 3019 2420 3045 
Q 2306 3072 2169 3072 
Q 1681 3072 1420 2755 
Q 1159 2438 1159 1844 
L 1159 0 
L 581 0 
L 581 3500 
L 1159 3500 
L 1159 2956 
Q 1341 3275 1631 3429 
Q 1922 3584 2338 3584 
Q 2397 3584 2469 3576 
Q 2541 3569 2628 3553 
L 2631 2963 
z
" transform="scale(0.015625)"/>
       <path id="DejaVuSans-63" d="M 3122 3366 
L 3122 2828 
Q 2878 2963 2633 3030 
Q 2388 3097 2138 3097 
Q 1578 3097 1268 2742 
Q 959 2388 959 1747 
Q 959 1106 1268 751 
Q 1578 397 2138 397 
Q 2388 397 2633 464 
Q 2878 531 3122 666 
L 3122 134 
Q 2881 22 2623 -34 
Q 2366 -91 2075 -91 
Q 1284 -91 818 406 
Q 353 903 353 1747 
Q 353 2603 823 3093 
Q 1294 3584 2113 3584 
Q 2378 3584 2631 3529 
Q 2884 3475 3122 3366 
z
" transform="scale(0.015625)"/>
       <path id="DejaVuSans-67" d="M 2906 1791 
Q 2906 2416 2648 2759 
Q 2391 3103 1925 3103 
Q 1463 3103 1205 2759 
Q 947 2416 947 1791 
Q 947 1169 1205 825 
Q 1463 481 1925 481 
Q 2391 481 2648 825 
Q 2906 1169 2906 1791 
z
M 3481 434 
Q 3481 -459 3084 -895 
Q 2688 -1331 1869 -1331 
Q 1566 -1331 1297 -1286 
Q 1028 -1241 775 -1147 
L 775 -588 
Q 1028 -725 1275 -790 
Q 1522 -856 1778 -856 
Q 2344 -856 2625 -561 
Q 2906 -266 2906 331 
L 2906 616 
Q 2728 306 2450 153 
Q 2172 0 1784 0 
Q 1141 0 747 490 
Q 353 981 353 1791 
Q 353 2603 747 3093 
Q 1141 3584 1784 3584 
Q 2172 3584 2450 3431 
Q 2728 3278 2906 2969 
L 2906 3500 
L 3481 3500 
L 3481 434 
z
" transform="scale(0.015625)"/>
       <path id="DejaVuSans-4e" d="M 628 4666 
L 1478 4666 
L 3547 763 
L 3547 4666 
L 4159 4666 
L 4159 0 
L 3309 0 
L 1241 3903 
L 1241 0 
L 628 0 
L 628 4666 
z
" transform="scale(0.015625)"/>
       <path id="DejaVuSans-2d" d="M 313 2009 
L 1997 2009 
L 1997 1497 
L 313 1497 
L 313 2009 
z
" transform="scale(0.015625)"/>
       <path id="DejaVuSans-43" d="M 4122 4306 
L 4122 3641 
Q 3803 3938 3442 4084 
Q 3081 4231 2675 4231 
Q 1875 4231 1450 3742 
Q 1025 3253 1025 2328 
Q 1025 1406 1450 917 
Q 1875 428 2675 428 
Q 3081 428 3442 575 
Q 3803 722 4122 1019 
L 4122 359 
Q 3791 134 3420 21 
Q 3050 -91 2638 -91 
Q 1578 -91 968 557 
Q 359 1206 359 2328 
Q 359 3453 968 4101 
Q 1578 4750 2638 4750 
Q 3056 4750 3426 4639 
Q 3797 4528 4122 4306 
z
" transform="scale(0.015625)"/>
       <path id="DejaVuSans-75" d="M 544 1381 
L 544 3500 
L 1119 3500 
L 1119 1403 
Q 1119 906 1312 657 
Q 1506 409 1894 409 
Q 2359 409 2629 706 
Q 2900 1003 2900 1516 
L 2900 3500 
L 3475 3500 
L 3475 0 
L 2900 0 
L 2900 538 
Q 2691 219 2414 64 
Q 2138 -91 1772 -91 
Q 1169 -91 856 284 
Q 544 659 544 1381 
z
M 1991 3584 
L 1991 3584 
z
" transform="scale(0.015625)"/>
      </defs>
      <use xlink:href="#DejaVuSans-50"/>
      <use xlink:href="#DejaVuSans-65" x="56.677734"/>
      <use xlink:href="#DejaVuSans-72" x="118.201172"/>
      <use xlink:href="#DejaVuSans-63" x="157.064453"/>
      <use xlink:href="#DejaVuSans-65" x="212.044922"/>
      <use xlink:href="#DejaVuSans-6e" x="273.568359"/>
      <use xlink:href="#DejaVuSans-74" x="336.947266"/>
      <use xlink:href="#DejaVuSans-61" x="376.15625"/>
      <use xlink:href="#DejaVuSans-67" x="437.435547"/>
      <use xlink:href="#DejaVuSans-65" x="500.912109"/>
      <use xlink:href="#DejaVuSans-20" x="562.435547"/>
      <use xlink:href="#DejaVuSans-4e" x="594.222656"/>
      <use xlink:href="#DejaVuSans-2d" x="669.027344"/>
      <use xlink:href="#DejaVuSans-43" x="705.111328"/>
      <use xlink:href="#DejaVuSans-6f" x="774.935547"/>
      <use xlink:href="#DejaVuSans-75" x="836.117188"/>
      <use xlink:href="#DejaVuSans-6e" x="899.496094"/>
      <use xlink:href="#DejaVuSans-74" x="962.875"/>
     </g>
    </g>
   </g>
   <g id="line2d_7">
    <path d="M 42.117148 353.21792 
L 51.266172 350.705593 
L 60.415195 353.177175 
L 69.564218 353.2239 
L 78.713242 353.2239 
L 87.862265 353.2239 
L 97.011288 353.2239 
L 106.160312 353.2239 
L 115.309335 353.2239 
L 124.458358 353.2239 
L 133.607382 353.2239 
L 142.756405 353.2239 
L 151.905428 353.2239 
L 161.054452 353.2239 
L 170.203475 353.2239 
L 179.352499 353.2239 
L 188.501522 353.2239 
L 197.650545 353.2239 
L 206.799569 353.2239 
L 215.948592 353.2239 
L 225.097615 353.2239 
L 234.246639 353.2239 
L 243.395662 353.2239 
L 252.544685 353.2239 
L 261.693709 353.2239 
L 270.842732 353.2239 
L 279.991755 353.2239 
L 289.140779 353.223393 
L 298.289802 353.2239 
L 307.438825 353.199777 
L 316.587849 353.2239 
L 325.736872 353.149707 
L 334.885895 353.217717 
L 344.034919 353.146464 
L 353.183942 353.223697 
L 362.332965 353.138558 
L 371.481989 353.215183 
L 380.631012 353.135416 
L 389.780035 353.221772 
L 398.929059 353.140686 
L 408.078082 353.221467 
L 417.227105 353.029888 
L 426.376129 352.888374 
L 435.525152 353.166524 
L 444.674176 353.223697 
L 453.823199 352.754672 
L 462.972222 353.222682 
L 472.121246 353.223594 
L 481.270269 353.223796 
L 490.419292 352.616193 
L 499.568316 353.131946 
" clip-path="url(#pf2695ddb43)" style="fill: none; stroke: #5cb85c; stroke-linecap: square"/>
   </g>
   <g id="line2d_8">
    <path d="M 42.117148 352.516735 
L 51.266172 353.223799 
L 60.415195 353.059297 
L 69.564218 352.984293 
L 78.713242 353.223799 
L 87.862265 353.03335 
L 97.011288 353.223799 
L 106.160312 353.142511 
L 115.309335 352.69492 
L 124.458358 353.223799 
L 133.607382 353.223799 
L 142.756405 353.148491 
L 151.905428 353.124064 
L 161.054452 353.094164 
L 170.203475 353.223799 
L 179.352499 353.206467 
L 188.501522 353.158018 
L 197.650545 353.223799 
L 206.799569 353.223799 
L 215.948592 353.10957 
L 225.097615 353.223799 
L 234.246639 353.223799 
L 243.395662 352.828305 
L 252.544685 353.18508 
L 261.693709 353.015713 
L 270.842732 353.205048 
L 279.991755 353.18427 
L 289.140779 353.223799 
L 298.289802 353.223697 
L 307.438825 353.101056 
L 316.587849 353.15741 
L 325.736872 353.089907 
L 334.885895 353.213359 
L 344.034919 353.193189 
L 353.183942 353.223393 
L 362.332965 353.207987 
L 371.481989 352.879186 
L 380.631012 353.2239 
L 389.780035 353.2239 
L 398.929059 353.159031 
L 408.078082 353.2239 
L 417.227105 353.2239 
L 426.376129 352.703788 
L 435.525152 353.19947 
L 444.674176 353.223799 
L 453.823199 353.201488 
L 462.972222 353.2239 
L 472.121246 353.2239 
L 481.270269 353.048397 
L 490.419292 353.2239 
L 499.568316 353.2239 
" clip-path="url(#pf2695ddb43)" style="fill: none; stroke: #5cb85c; stroke-linecap: square"/>
   </g>
   <g id="line2d_9">
    <path d="M 42.117148 353.215625 
L 51.266172 350.645706 
L 60.415195 353.175458 
L 69.564218 353.2239 
L 78.713242 353.2239 
L 87.862265 353.2239 
L 97.011288 353.2239 
L 106.160312 353.2239 
L 115.309335 353.2239 
L 124.458358 353.2239 
L 133.607382 353.2239 
L 142.756405 353.2239 
L 151.905428 353.2239 
L 161.054452 353.2239 
L 170.203475 353.2239 
L 179.352499 353.2239 
L 188.501522 353.2239 
L 197.650545 353.2239 
L 206.799569 353.2239 
L 215.948592 353.2239 
L 225.097615 353.2239 
L 234.246639 353.2239 
L 243.395662 353.2239 
L 252.544685 353.2239 
L 261.693709 353.2239 
L 270.842732 353.2239 
L 279.991755 353.2239 
L 289.140779 353.2239 
L 298.289802 353.2239 
L 307.438825 353.203656 
L 316.587849 353.2239 
L 325.736872 353.158266 
L 334.885895 353.218839 
L 344.034919 353.155695 
L 353.183942 353.223579 
L 362.332965 353.148305 
L 371.481989 353.217554 
L 380.631012 353.146939 
L 389.780035 353.222052 
L 398.929059 353.151678 
L 408.078082 353.222534 
L 417.227105 353.052694 
L 426.376129 352.907671 
L 435.525152 353.166775 
L 444.674176 353.22382 
L 453.823199 352.778664 
L 462.972222 353.222693 
L 472.121246 353.223253 
L 481.270269 353.223569 
L 490.419292 352.652905 
L 499.568316 353.168853 
" clip-path="url(#pf2695ddb43)" style="fill: none; stroke: #5cb85c; stroke-linecap: square"/>
   </g>
   <g id="line2d_10">
    <path d="M 42.117148 352.511006 
L 51.266172 353.22382 
L 60.415195 353.055678 
L 69.564218 352.985064 
L 78.713242 353.22382 
L 87.862265 353.047484 
L 97.011288 353.223739 
L 106.160312 353.205423 
L 115.309335 352.698107 
L 124.458358 353.22382 
L 133.607382 353.22382 
L 142.756405 353.149188 
L 151.905428 353.123722 
L 161.054452 353.093195 
L 170.203475 353.22382 
L 179.352499 353.218839 
L 188.501522 353.158266 
L 197.650545 353.22382 
L 206.799569 353.22382 
L 215.948592 353.107655 
L 225.097615 353.223659 
L 234.246639 353.22382 
L 243.395662 352.834757 
L 252.544685 353.203656 
L 261.693709 353.016153 
L 270.842732 353.207431 
L 279.991755 353.185259 
L 289.140779 353.22382 
L 298.289802 353.22382 
L 307.438825 353.103478 
L 316.587849 353.156097 
L 325.736872 353.088053 
L 334.885895 353.213456 
L 344.034919 353.190882 
L 353.183942 353.22382 
L 362.332965 353.220205 
L 371.481989 352.886573 
L 380.631012 353.22382 
L 389.780035 353.2239 
L 398.929059 353.157141 
L 408.078082 353.2239 
L 417.227105 353.2239 
L 426.376129 352.712514 
L 435.525152 353.202608 
L 444.674176 353.2239 
L 453.823199 353.203161 
L 462.972222 353.2239 
L 472.121246 353.2239 
L 481.270269 353.05071 
L 490.419292 353.2239 
L 499.568316 353.2239 
" clip-path="url(#pf2695ddb43)" style="fill: none; stroke: #5cb85c; stroke-linecap: square"/>
   </g>
   <g id="line2d_11">
    <path d="M 42.117148 353.2239 
L 51.266172 346.627977 
L 60.415195 353.2239 
L 69.564218 353.2239 
L 78.713242 353.2239 
L 87.862265 353.223141 
L 97.011288 353.2239 
L 106.160312 353.221417 
L 115.309335 353.2239 
L 124.458358 353.21081 
L 142.756405 353.2239 
L 161.054452 353.2239 
L 179.352499 353.2239 
L 197.650545 352.426085 
L 215.948592 353.199807 
L 234.246639 353.2105 
L 252.544685 352.517508 
L 270.842732 353.208171 
L 289.140779 353.2239 
L 307.438825 351.170588 
L 325.736872 353.153121 
L 344.034919 352.635283 
L 362.332965 352.363292 
L 380.631012 352.549672 
L 398.929059 350.578263 
L 417.227105 352.86052 
L 435.525152 352.493036 
L 453.823199 352.862538 
L 472.121246 353.208809 
L 490.419292 353.099727 
L 508.717339 333.104105 
L 527.015386 353.086223 
L 545.313432 351.710725 
L 563.611479 353.2239 
L 581.909526 351.895054 
L 600.207572 353.219588 
L 618.505619 352.9819 
L 636.803666 352.794484 
L 655.101712 352.623331 
L 673.399759 352.824906 
L 691.697806 350.704058 
L 709.995852 353.2239 
L 728.293899 352.22401 
L 746.591946 351.890553 
L 764.889993 353.220537 
L 783.188039 352.647062 
L 801.486086 353.2239 
L 819.784133 353.2239 
L 838.082179 353.220537 
L 856.380226 353.2239 
L 874.678273 353.159761 
L 892.976319 353.035898 
L 911.274366 353.220002 
L 929.572413 353.219951 
L 947.870459 353.2239 
" clip-path="url(#pf2695ddb43)" style="fill: none; stroke: #5cb85c; stroke-linecap: square"/>
   </g>
   <g id="line2d_12">
    <path d="M 42.117148 353.2239 
L 51.266172 346.691029 
L 60.415195 353.2239 
L 69.564218 353.2239 
L 78.713242 353.2239 
L 87.862265 353.222997 
L 97.011288 353.2239 
L 106.160312 353.222298 
L 115.309335 353.2239 
L 124.458358 353.209887 
L 142.756405 353.2239 
L 161.054452 353.2239 
L 179.352499 353.2239 
L 197.650545 352.440506 
L 215.948592 353.201424 
L 234.246639 353.21031 
L 252.544685 352.518886 
L 270.842732 353.207134 
L 289.140779 353.2239 
L 307.438825 351.175497 
L 325.736872 353.152905 
L 344.034919 352.638765 
L 362.332965 352.368083 
L 380.631012 352.548076 
L 398.929059 350.595926 
L 417.227105 352.855814 
L 435.525152 352.491968 
L 453.823199 352.865078 
L 472.121246 353.209319 
L 490.419292 353.098311 
L 508.717339 333.792697 
L 527.015386 353.089134 
L 545.313432 351.712506 
L 563.611479 353.2239 
L 581.909526 351.89381 
L 600.207572 353.219647 
L 618.505619 352.981753 
L 636.803666 352.795904 
L 655.101712 352.621242 
L 673.399759 352.824599 
L 691.697806 350.713154 
L 709.995852 353.2239 
L 728.293899 352.228554 
L 746.591946 351.903235 
L 764.889993 353.221045 
L 783.188039 352.642829 
L 801.486086 353.2239 
L 819.784133 353.2239 
L 838.082179 353.220215 
L 856.380226 353.2239 
L 874.678273 353.158848 
L 892.976319 353.034876 
L 911.274366 353.220011 
L 929.572413 353.220113 
L 947.870459 353.2239 
" clip-path="url(#pf2695ddb43)" style="fill: none; stroke: #5cb85c; stroke-linecap: square"/>
   </g>
   <g id="line2d_13">
    <path d="M 42.117148 353.2239 
L 51.266172 346.523229 
L 60.415195 353.2239 
L 69.564218 353.2239 
L 78.713242 353.2239 
L 87.862265 353.223251 
L 97.011288 353.2239 
L 106.160312 353.222356 
L 115.309335 353.2239 
L 124.458358 353.210482 
L 142.756405 353.2239 
L 161.054452 353.2239 
L 179.352499 353.2239 
L 197.650545 352.422633 
L 215.948592 353.199179 
L 234.246639 353.208351 
L 252.544685 352.512871 
L 270.842732 353.20693 
L 289.140779 353.2239 
L 307.438825 351.171415 
L 325.736872 353.150586 
L 344.034919 352.640646 
L 362.332965 352.372126 
L 380.631012 352.545544 
L 398.929059 350.606829 
L 417.227105 352.862919 
L 435.525152 352.487409 
L 453.823199 352.856928 
L 472.121246 353.209046 
L 490.419292 353.095292 
L 508.717339 332.96127 
L 527.015386 353.08612 
L 545.313432 351.696086 
L 563.611479 353.2239 
L 581.909526 351.907922 
L 600.207572 353.2197 
L 618.505619 352.986772 
L 636.803666 352.790269 
L 655.101712 352.623305 
L 673.399759 352.82004 
L 691.697806 350.712291 
L 709.995852 353.2239 
L 728.293899 352.22417 
L 746.591946 351.908802 
L 764.889993 353.220333 
L 783.188039 352.636955 
L 801.486086 353.2239 
L 819.784133 353.2239 
L 838.082179 353.219963 
L 856.380226 353.2239 
L 874.678273 353.157627 
L 892.976319 353.033435 
L 911.274366 353.219916 
L 929.572413 353.220225 
L 947.870459 353.2239 
" clip-path="url(#pf2695ddb43)" style="fill: none; stroke: #5cb85c; stroke-linecap: square"/>
   </g>
   <g id="line2d_14">
    <path d="M 42.117148 353.2239 
L 51.266172 346.532812 
L 60.415195 353.2239 
L 69.564218 353.2239 
L 78.713242 353.2239 
L 87.862265 353.223514 
L 97.011288 353.2239 
L 106.160312 353.221681 
L 115.309335 353.2239 
L 124.458358 353.209509 
L 142.756405 353.2239 
L 161.054452 353.2239 
L 179.352499 353.2239 
L 197.650545 352.413828 
L 215.948592 353.200134 
L 234.246639 353.210232 
L 252.544685 352.517075 
L 270.842732 353.205843 
L 289.140779 353.2239 
L 307.438825 351.171924 
L 325.736872 353.153086 
L 344.034919 352.634568 
L 362.332965 352.36842 
L 380.631012 352.544957 
L 398.929059 350.588831 
L 417.227105 352.863622 
L 435.525152 352.496992 
L 453.823199 352.863589 
L 472.121246 353.208833 
L 490.419292 353.100104 
L 508.717339 333.152325 
L 527.015386 353.089523 
L 545.313432 351.718098 
L 563.611479 353.2239 
L 581.909526 351.897964 
L 600.207572 353.21906 
L 618.505619 352.98507 
L 636.803666 352.790234 
L 655.101712 352.61508 
L 673.399759 352.825883 
L 691.697806 350.706533 
L 709.995852 353.2239 
L 728.293899 352.225858 
L 746.591946 351.901099 
L 764.889993 353.220957 
L 783.188039 352.643718 
L 801.486086 353.2239 
L 819.784133 353.2239 
L 838.082179 353.220379 
L 856.380226 353.2239 
L 874.678273 353.160145 
L 892.976319 353.034065 
L 911.274366 353.220089 
L 929.572413 353.219977 
L 947.870459 353.2239 
" clip-path="url(#pf2695ddb43)" style="fill: none; stroke: #5cb85c; stroke-linecap: square"/>
   </g>
   <g id="line2d_15">
    <path d="M 42.117148 353.216285 
L 51.266172 350.665506 
L 60.415195 353.174276 
L 69.564218 353.223814 
L 78.713242 353.223814 
L 87.862265 353.223814 
L 97.011288 353.223814 
L 106.160312 353.223814 
L 115.309335 353.223814 
L 124.458358 353.223814 
L 133.607382 353.223814 
L 142.756405 353.223814 
L 151.905428 353.223814 
L 161.054452 353.223814 
L 170.203475 353.223814 
L 179.352499 353.223814 
L 188.501522 353.223814 
L 197.650545 353.223814 
L 206.799569 353.223814 
L 215.948592 353.223814 
L 225.097615 353.223814 
L 234.246639 353.223814 
L 243.395662 353.223814 
L 252.544685 353.223814 
L 261.693709 353.223814 
L 270.842732 353.223814 
L 279.991755 353.223814 
L 289.140779 353.223387 
L 298.289802 353.223814 
L 307.438825 353.201911 
L 316.587849 353.223814 
L 325.736872 353.152886 
L 334.885895 353.219194 
L 344.034919 353.149036 
L 353.183942 353.223387 
L 362.332965 353.141335 
L 371.481989 353.217055 
L 380.631012 353.139111 
L 389.780035 353.222617 
L 398.929059 353.142105 
L 408.078082 353.219451 
L 417.227105 353.044471 
L 426.376129 352.884457 
L 435.525152 353.166911 
L 444.674176 353.223814 
L 453.823199 352.750872 
L 462.972222 353.222358 
L 472.121246 353.223126 
L 481.270269 353.22346 
L 490.419292 352.617144 
L 499.568316 353.108527 
" clip-path="url(#pf2695ddb43)" style="fill: none; stroke: #5cb85c; stroke-linecap: square"/>
   </g>
   <g id="line2d_16">
    <path d="M 42.117148 352.474914 
L 51.266172 353.2239 
L 60.415195 353.059113 
L 69.564218 352.975864 
L 78.713242 353.2239 
L 87.862265 353.037552 
L 97.011288 353.223814 
L 106.160312 353.118748 
L 115.309335 352.671358 
L 124.458358 353.2239 
L 133.607382 353.2239 
L 142.756405 353.148009 
L 151.905428 353.120202 
L 161.054452 353.091796 
L 170.203475 353.223729 
L 179.352499 353.195665 
L 188.501522 353.156565 
L 197.650545 353.2239 
L 206.799569 353.2239 
L 215.948592 353.107882 
L 225.097615 353.223729 
L 234.246639 353.223729 
L 243.395662 352.811247 
L 252.544685 353.171281 
L 261.693709 353.010943 
L 270.842732 353.20559 
L 279.991755 353.184799 
L 289.140779 353.2239 
L 298.289802 353.223729 
L 307.438825 353.100267 
L 316.587849 353.153656 
L 325.736872 353.087433 
L 334.885895 353.212863 
L 344.034919 353.192243 
L 353.183942 353.223814 
L 362.332965 353.199772 
L 371.481989 352.874561 
L 380.631012 353.223814 
L 389.780035 353.2239 
L 398.929059 353.158618 
L 408.078082 353.2239 
L 417.227105 353.2239 
L 426.376129 352.68363 
L 435.525152 353.191983 
L 444.674176 353.2239 
L 453.823199 353.202329 
L 462.972222 353.223814 
L 472.121246 353.223728 
L 481.270269 353.044186 
L 490.419292 353.2239 
L 499.568316 353.2239 
" clip-path="url(#pf2695ddb43)" style="fill: none; stroke: #5cb85c; stroke-linecap: square"/>
   </g>
   <g id="line2d_17">
    <path d="M 42.117148 353.2239 
L 51.266172 346.587845 
L 60.415195 353.2239 
L 69.564218 353.2239 
L 78.713242 353.2239 
L 87.862265 353.223038 
L 97.011288 353.2239 
L 106.160312 353.2225 
L 115.309335 353.2239 
L 124.458358 353.209372 
L 142.756405 353.2239 
L 161.054452 353.2239 
L 179.352499 353.2239 
L 197.650545 352.423658 
L 215.948592 353.199354 
L 234.246639 353.209628 
L 252.544685 352.511998 
L 270.842732 353.207285 
L 289.140779 353.2239 
L 307.438825 351.175187 
L 325.736872 353.154249 
L 344.034919 352.636018 
L 362.332965 352.373274 
L 380.631012 352.543787 
L 398.929059 350.602574 
L 417.227105 352.863701 
L 435.525152 352.491047 
L 453.823199 352.859527 
L 472.121246 353.209183 
L 490.419292 353.098776 
L 508.717339 333.035946 
L 527.015386 353.09036 
L 545.313432 351.704862 
L 563.611479 353.2239 
L 581.909526 351.90637 
L 600.207572 353.219214 
L 618.505619 352.986402 
L 636.803666 352.790064 
L 655.101712 352.623106 
L 673.399759 352.822056 
L 691.697806 350.707986 
L 709.995852 353.2239 
L 728.293899 352.224587 
L 746.591946 351.909817 
L 764.889993 353.220722 
L 783.188039 352.645484 
L 801.486086 353.2239 
L 819.784133 353.2239 
L 838.082179 353.220494 
L 856.380226 353.2239 
L 874.678273 353.159163 
L 892.976319 353.034537 
L 911.274366 353.219928 
L 929.572413 353.220184 
L 947.870459 353.2239 
" clip-path="url(#pf2695ddb43)" style="fill: none; stroke: #5cb85c; stroke-linecap: square"/>
   </g>
   <g id="line2d_18">
    <path d="M 42.117148 353.2239 
L 51.266172 346.547968 
L 60.415195 353.2239 
L 69.564218 353.2239 
L 78.713242 353.2239 
L 87.862265 353.222977 
L 97.011288 353.2239 
L 106.160312 353.222428 
L 115.309335 353.2239 
L 124.458358 353.210741 
L 142.756405 353.2239 
L 161.054452 353.2239 
L 179.352499 353.2239 
L 197.650545 352.415873 
L 215.948592 353.198979 
L 234.246639 353.209768 
L 252.544685 352.508772 
L 270.842732 353.206263 
L 289.140779 353.2239 
L 307.438825 351.177677 
L 325.736872 353.151868 
L 344.034919 352.642258 
L 362.332965 352.37203 
L 380.631012 352.544894 
L 398.929059 350.594638 
L 417.227105 352.864116 
L 435.525152 352.488666 
L 453.823199 352.859102 
L 472.121246 353.209045 
L 490.419292 353.096089 
L 508.717339 333.176246 
L 527.015386 353.086148 
L 545.313432 351.699947 
L 563.611479 353.2239 
L 581.909526 351.910866 
L 600.207572 353.219397 
L 618.505619 352.988098 
L 636.803666 352.791685 
L 655.101712 352.614468 
L 673.399759 352.818714 
L 691.697806 350.709801 
L 709.995852 353.2239 
L 728.293899 352.222479 
L 746.591946 351.909269 
L 764.889993 353.220358 
L 783.188039 352.642832 
L 801.486086 353.2239 
L 819.784133 353.2239 
L 838.082179 353.219971 
L 856.380226 353.2239 
L 874.678273 353.159365 
L 892.976319 353.031978 
L 911.274366 353.219609 
L 929.572413 353.219896 
L 947.870459 353.2239 
" clip-path="url(#pf2695ddb43)" style="fill: none; stroke: #5cb85c; stroke-linecap: square"/>
   </g>
   <g id="line2d_19">
    <path d="M 42.117148 353.2239 
L 51.266172 346.869254 
L 60.415195 353.2239 
L 69.564218 353.2239 
L 78.713242 353.2239 
L 87.862265 353.223144 
L 97.011288 353.2239 
L 106.160312 353.222176 
L 115.309335 353.2239 
L 124.458358 353.21046 
L 142.756405 353.2239 
L 161.054452 353.2239 
L 179.352499 353.2239 
L 197.650545 352.458359 
L 215.948592 353.200164 
L 234.246639 353.210611 
L 252.544685 352.514554 
L 270.842732 353.207935 
L 289.140779 353.2239 
L 307.438825 351.189658 
L 325.736872 353.152329 
L 344.034919 352.64412 
L 362.332965 352.371548 
L 380.631012 352.542765 
L 398.929059 350.595258 
L 417.227105 352.86222 
L 435.525152 352.485965 
L 453.823199 352.860012 
L 472.121246 353.209296 
L 490.419292 353.097237 
L 508.717339 333.65694 
L 527.015386 353.087425 
L 545.313432 351.70402 
L 563.611479 353.2239 
L 581.909526 351.916315 
L 600.207572 353.219682 
L 618.505619 352.985496 
L 636.803666 352.790981 
L 655.101712 352.615743 
L 673.399759 352.818436 
L 691.697806 350.72493 
L 709.995852 353.2239 
L 728.293899 352.232019 
L 746.591946 351.909511 
L 764.889993 353.220846 
L 783.188039 352.645133 
L 801.486086 353.2239 
L 819.784133 353.2239 
L 838.082179 353.220211 
L 856.380226 353.2239 
L 874.678273 353.156653 
L 892.976319 353.032454 
L 911.274366 353.219969 
L 929.572413 353.219758 
L 947.870459 353.2239 
" clip-path="url(#pf2695ddb43)" style="fill: none; stroke: #5cb85c; stroke-linecap: square"/>
   </g>
   <g id="line2d_20">
    <path d="M 42.117148 353.2239 
L 51.266172 346.613382 
L 60.415195 353.2239 
L 69.564218 353.2239 
L 78.713242 353.2239 
L 87.862265 353.223095 
L 97.011288 353.2239 
L 106.160312 353.222151 
L 115.309335 353.2239 
L 124.458358 353.21023 
L 142.756405 353.2239 
L 161.054452 353.2239 
L 179.352499 353.2239 
L 197.650545 352.434088 
L 215.948592 353.200363 
L 234.246639 353.20937 
L 252.544685 352.510251 
L 270.842732 353.206566 
L 289.140779 353.2239 
L 307.438825 351.182485 
L 325.736872 353.152317 
L 344.034919 352.644465 
L 362.332965 352.375412 
L 380.631012 352.543835 
L 398.929059 350.595389 
L 417.227105 352.867152 
L 435.525152 352.494929 
L 453.823199 352.862044 
L 472.121246 353.210244 
L 490.419292 353.098318 
L 508.717339 333.171436 
L 527.015386 353.08716 
L 545.313432 351.703202 
L 563.611479 353.2239 
L 581.909526 351.91727 
L 600.207572 353.219515 
L 618.505619 352.988321 
L 636.803666 352.788921 
L 655.101712 352.612989 
L 673.399759 352.823394 
L 691.697806 350.714781 
L 709.995852 353.2239 
L 728.293899 352.232121 
L 746.591946 351.912413 
L 764.889993 353.220791 
L 783.188039 352.64119 
L 801.486086 353.2239 
L 819.784133 353.2239 
L 838.082179 353.220264 
L 856.380226 353.2239 
L 874.678273 353.160505 
L 892.976319 353.033854 
L 911.274366 353.220292 
L 929.572413 353.220125 
L 947.870459 353.2239 
" clip-path="url(#pf2695ddb43)" style="fill: none; stroke: #5cb85c; stroke-linecap: square"/>
   </g>
   <g id="line2d_21">
    <path d="M 42.117148 353.217241 
L 51.266172 350.678093 
L 60.415195 353.17718 
L 69.564218 353.2239 
L 78.713242 353.2239 
L 87.862265 353.2239 
L 97.011288 353.2239 
L 106.160312 353.2239 
L 115.309335 353.2239 
L 124.458358 353.2239 
L 133.607382 353.2239 
L 142.756405 353.2239 
L 151.905428 353.2239 
L 161.054452 353.2239 
L 170.203475 353.2239 
L 179.352499 353.2239 
L 188.501522 353.2239 
L 197.650545 353.2239 
L 206.799569 353.2239 
L 215.948592 353.2239 
L 225.097615 353.2239 
L 234.246639 353.2239 
L 243.395662 353.2239 
L 252.544685 353.2239 
L 261.693709 353.2239 
L 270.842732 353.2239 
L 279.991755 353.2239 
L 289.140779 353.2239 
L 298.289802 353.2239 
L 307.438825 353.203183 
L 316.587849 353.2239 
L 325.736872 353.154666 
L 334.885895 353.218298 
L 344.034919 353.152129 
L 353.183942 353.223371 
L 362.332965 353.143567 
L 371.481989 353.216607 
L 380.631012 353.142193 
L 389.780035 353.222209 
L 398.929059 353.146949 
L 408.078082 353.223054 
L 417.227105 353.046943 
L 426.376129 352.906658 
L 435.525152 353.169139 
L 444.674176 353.2239 
L 453.823199 352.764812 
L 462.972222 353.222312 
L 472.121246 353.223581 
L 481.270269 353.223574 
L 490.419292 352.627668 
L 499.568316 353.169782 
" clip-path="url(#pf2695ddb43)" style="fill: none; stroke: #5cb85c; stroke-linecap: square"/>
   </g>
   <g id="line2d_22">
    <path d="M 42.117148 352.495832 
L 51.266172 353.2239 
L 60.415195 353.057844 
L 69.564218 352.977194 
L 78.713242 353.2239 
L 87.862265 353.037232 
L 97.011288 353.2239 
L 106.160312 353.188913 
L 115.309335 352.693493 
L 124.458358 353.223689 
L 133.607382 353.2239 
L 142.756405 353.148007 
L 151.905428 353.122638 
L 161.054452 353.094205 
L 170.203475 353.2239 
L 179.352499 353.214176 
L 188.501522 353.158154 
L 197.650545 353.2239 
L 206.799569 353.2239 
L 215.948592 353.106361 
L 225.097615 353.223477 
L 234.246639 353.2239 
L 243.395662 352.827839 
L 252.544685 353.196841 
L 261.693709 353.012287 
L 270.842732 353.204662 
L 279.991755 353.18627 
L 289.140779 353.2239 
L 298.289802 353.2239 
L 307.438825 353.099067 
L 316.587849 353.156886 
L 325.736872 353.088814 
L 334.885895 353.212484 
L 344.034919 353.192084 
L 353.183942 353.223794 
L 362.332965 353.214704 
L 371.481989 352.876355 
L 380.631012 353.223583 
L 389.780035 353.2239 
L 398.929059 353.160162 
L 408.078082 353.2239 
L 417.227105 353.2239 
L 426.376129 352.701891 
L 435.525152 353.199374 
L 444.674176 353.2239 
L 453.823199 353.201902 
L 462.972222 353.223688 
L 472.121246 353.2239 
L 481.270269 353.045869 
L 490.419292 353.2239 
L 499.568316 353.2239 
" clip-path="url(#pf2695ddb43)" style="fill: none; stroke: #5cb85c; stroke-linecap: square"/>
   </g>
   <g id="line2d_23">
    <path d="M 32.968125 353.2239 
L 993.158125 353.2239 
" clip-path="url(#pf2695ddb43)" style="fill: none; stroke: #dedede; stroke-width: 2; stroke-linecap: square"/>
   </g>
   <g id="text_15">
    <!-- FastQC: Per Base N Content -->
    <g transform="translate(402.209375 19.3575) scale(0.16 -0.16)">
     <defs>
      <path id="DejaVuSans-46" d="M 628 4666 
L 3309 4666 
L 3309 4134 
L 1259 4134 
L 1259 2759 
L 3109 2759 
L 3109 2228 
L 1259 2228 
L 1259 0 
L 628 0 
L 628 4666 
z
" transform="scale(0.015625)"/>
      <path id="DejaVuSans-51" d="M 2522 4238 
Q 1834 4238 1429 3725 
Q 1025 3213 1025 2328 
Q 1025 1447 1429 934 
Q 1834 422 2522 422 
Q 3209 422 3611 934 
Q 4013 1447 4013 2328 
Q 4013 3213 3611 3725 
Q 3209 4238 2522 4238 
z
M 3406 84 
L 4238 -825 
L 3475 -825 
L 2784 -78 
Q 2681 -84 2626 -87 
Q 2572 -91 2522 -91 
Q 1538 -91 948 567 
Q 359 1225 359 2328 
Q 359 3434 948 4092 
Q 1538 4750 2522 4750 
Q 3503 4750 4090 4092 
Q 4678 3434 4678 2328 
Q 4678 1516 4351 937 
Q 4025 359 3406 84 
z
" transform="scale(0.015625)"/>
      <path id="DejaVuSans-3a" d="M 750 794 
L 1409 794 
L 1409 0 
L 750 0 
L 750 794 
z
M 750 3309 
L 1409 3309 
L 1409 2516 
L 750 2516 
L 750 3309 
z
" transform="scale(0.015625)"/>
      <path id="DejaVuSans-42" d="M 1259 2228 
L 1259 519 
L 2272 519 
Q 2781 519 3026 730 
Q 3272 941 3272 1375 
Q 3272 1813 3026 2020 
Q 2781 2228 2272 2228 
L 1259 2228 
z
M 1259 4147 
L 1259 2741 
L 2194 2741 
Q 2656 2741 2882 2914 
Q 3109 3088 3109 3444 
Q 3109 3797 2882 3972 
Q 2656 4147 2194 4147 
L 1259 4147 
z
M 628 4666 
L 2241 4666 
Q 2963 4666 3353 4366 
Q 3744 4066 3744 3513 
Q 3744 3084 3544 2831 
Q 3344 2578 2956 2516 
Q 3422 2416 3680 2098 
Q 3938 1781 3938 1306 
Q 3938 681 3513 340 
Q 3088 0 2303 0 
L 628 0 
L 628 4666 
z
" transform="scale(0.015625)"/>
     </defs>
     <use xlink:href="#DejaVuSans-46"/>
     <use xlink:href="#DejaVuSans-61" x="48.394531"/>
     <use xlink:href="#DejaVuSans-73" x="109.673828"/>
     <use xlink:href="#DejaVuSans-74" x="161.773438"/>
     <use xlink:href="#DejaVuSans-51" x="200.982422"/>
     <use xlink:href="#DejaVuSans-43" x="279.693359"/>
     <use xlink:href="#DejaVuSans-3a" x="349.517578"/>
     <use xlink:href="#DejaVuSans-20" x="383.208984"/>
     <use xlink:href="#DejaVuSans-50" x="414.996094"/>
     <use xlink:href="#DejaVuSans-65" x="471.673828"/>
     <use xlink:href="#DejaVuSans-72" x="533.197266"/>
     <use xlink:href="#DejaVuSans-20" x="574.310547"/>
     <use xlink:href="#DejaVuSans-42" x="606.097656"/>
     <use xlink:href="#DejaVuSans-61" x="674.701172"/>
     <use xlink:href="#DejaVuSans-73" x="735.980469"/>
     <use xlink:href="#DejaVuSans-65" x="788.080078"/>
     <use xlink:href="#DejaVuSans-20" x="849.603516"/>
     <use xlink:href="#DejaVuSans-4e" x="881.390625"/>
     <use xlink:href="#DejaVuSans-20" x="956.195312"/>
     <use xlink:href="#DejaVuSans-43" x="987.982422"/>
     <use xlink:href="#DejaVuSans-6f" x="1057.806641"/>
     <use xlink:href="#DejaVuSans-6e" x="1118.988281"/>
     <use xlink:href="#DejaVuSans-74" x="1182.367188"/>
     <use xlink:href="#DejaVuSans-65" x="1221.576172"/>
     <use xlink:href="#DejaVuSans-6e" x="1283.099609"/>
     <use xlink:href="#DejaVuSans-74" x="1346.478516"/>
    </g>
   </g>
  </g>
 </g>
 <defs>
  <clipPath id="pf2695ddb43">
   <rect x="32.968125" y="35.2559" width="960.19" height="317.968"/>
  </clipPath>
 </defs>
</svg>
